<?xml version="1.0" encoding="UTF-8" standalone="no"?>
<svg
   xmlns:dc="http://purl.org/dc/elements/1.1/"
   xmlns:cc="http://creativecommons.org/ns#"
   xmlns:rdf="http://www.w3.org/1999/02/22-rdf-syntax-ns#"
   xmlns:svg="http://www.w3.org/2000/svg"
   xmlns="http://www.w3.org/2000/svg"
   xmlns:sodipodi="http://sodipodi.sourceforge.net/DTD/sodipodi-0.dtd"
   xmlns:inkscape="http://www.inkscape.org/namespaces/inkscape"
   width="595.277"
   height="595.273"
   id="svg2"
   sodipodi:version="0.32"
   inkscape:version="0.46"
   sodipodi:docname="BSC_Young_Boys_Logo.svg"
   inkscape:output_extension="org.inkscape.output.svg.inkscape">
  <metadata
     id="metadata65">
    <rdf:RDF>
      <cc:Work
         rdf:about="">
        <dc:format>image/svg+xml</dc:format>
        <dc:type
           rdf:resource="http://purl.org/dc/dcmitype/StillImage" />
      </cc:Work>
    </rdf:RDF>
  </metadata>
  <sodipodi:namedview
     inkscape:window-height="681"
     inkscape:window-width="640"
     inkscape:pageshadow="2"
     inkscape:pageopacity="0.0"
     guidetolerance="10.0"
     gridtolerance="10.0"
     objecttolerance="10.0"
     borderopacity="1.0"
     bordercolor="#666666"
     pagecolor="#ffffff"
     id="base"
     showgrid="false"
     inkscape:zoom="0.77611448"
     inkscape:cx="297.63849"
     inkscape:cy="297.63651"
     inkscape:window-x="110"
     inkscape:window-y="145"
     inkscape:current-layer="g12" />
  <defs
     id="defs4">
    <inkscape:perspective
       sodipodi:type="inkscape:persp3d"
       inkscape:vp_x="0 : 297.63651 : 1"
       inkscape:vp_y="0 : 1000 : 0"
       inkscape:vp_z="595.27698 : 297.63651 : 1"
       inkscape:persp3d-origin="297.63849 : 198.42434 : 1"
       id="perspective67" />
    <marker
       id="ArrowEnd"
       viewBox="0 0 10 10"
       refX="0"
       refY="5"
       markerUnits="strokeWidth"
       markerWidth="4"
       markerHeight="3"
       orient="auto">
      <path
         d="M 0 0 L 10 5 L 0 10 z"
         id="path7" />
    </marker>
    <marker
       id="ArrowStart"
       viewBox="0 0 10 10"
       refX="10"
       refY="5"
       markerUnits="strokeWidth"
       markerWidth="4"
       markerHeight="3"
       orient="auto">
      <path
         d="M 10 0 L 0 5 L 10 10 z"
         id="path10" />
    </marker>
  </defs>
  <g
     id="g12">
    <g
       id="g2493">
      <g
         id="g2466">
        <g
           id="g2440">
          <path
             id="path16"
             d="M 297.637 16.586C 452.832 16.586 578.691 142.441 578.691 297.637C 578.691 452.832 452.832 578.687 297.637 578.687C 142.441 578.687 16.5859 452.832 16.5859 297.637C 16.5859 142.441 142.441 16.586 297.637 16.586"
             style="stroke:none; fill-rule:evenodd; fill:#f9cc11" />
          <path
             id="path18"
             d="M 297.641 14.172C 454.164 14.172 581.102 141.109 581.102 297.637C 581.102 454.164 454.164 581.102 297.641 581.102C 141.109 581.102 14.1719 454.164 14.1719 297.637C 14.1719 141.109 141.109 14.172 297.641 14.172zM 297.641 17.383C 452.391 17.383 577.891 142.883 577.891 297.637C 577.891 452.391 452.391 577.891 297.641 577.891C 142.883 577.891 17.3828 452.391 17.3828 297.637C 17.3828 142.883 142.883 17.383 297.641 17.383"
             style="stroke:none; fill-rule:evenodd; fill:#000000" />
          <path
             id="path20"
             d="M 297.637 84.84C 415.141 84.84 510.434 180.133 510.434 297.637C 510.434 415.141 415.141 510.434 297.637 510.434C 180.133 510.434 84.8398 415.141 84.8398 297.637C 84.8398 180.133 180.133 84.84 297.637 84.84"
             style="stroke:none; fill-rule:evenodd; fill:#000000" />
          <path
             id="path22"
             d="M 374.887 310.125L 374.887 358.387L 378.727 358.387C 381.555 358.387 381.859 357.371 381.859 355.871L 381.859 312.918C 381.859 310.934 381.301 310.121 378.758 310.121L 374.887 310.121L 374.887 310.125zM 268.098 392.098L 178.883 391.926L 146.777 358.957L 146.777 336.414L 171.863 336.414L 171.863 286.105L 108.719 228.73L 89.8125 228.777L 62.2305 200.207L 62.2305 177.672L 204.566 177.672L 233.477 209.07L 233.551 229.496L 224.398 229.453L 239.258 242.894L 287.094 208.305L 278.754 200.297L 278.754 177.672L 365.914 177.672L 395.695 197.828L 395.766 230.32L 363.371 230.34L 324.633 258.324L 393.719 258.324C 436.836 258.324 487.734 287.629 487.637 337.027C 487.586 362.211 478.27 379.32 458.66 392.613C 477.676 405.418 489.07 424.035 489.004 449.082C 488.941 471.828 478.848 490.953 462.43 503.426C 450.832 512.242 435.914 518.055 419.855 518.055L 277.852 518.055L 246.102 485.07L 246.102 460.465L 268.098 460.465L 268.098 392.098zM 374.566 411.512L 374.602 460.465L 378.719 460.465C 380.473 460.465 381.512 459.656 381.512 457.301L 381.516 416.004C 381.445 412.199 380.801 411.684 378.344 411.512L 374.566 411.512"
             style="stroke:none; fill-rule:evenodd; fill:#ffffff" />
          <path
             id="path24"
             d="M 370.871 306.109L 370.871 362.402L 378.824 362.402C 383.453 362.402 385.875 360.785 385.875 356.012L 385.875 312.805C 385.875 307.703 383.859 306.109 378.848 306.109L 370.871 306.109zM 272.113 388.09L 180.578 387.914L 150.793 357.324L 150.793 340.43L 175.883 340.43L 175.883 284.328L 110.27 224.711L 91.5156 224.758L 66.2461 198.586L 66.2461 181.687L 202.809 181.687L 229.465 210.644L 229.52 225.465L 213.922 225.391L 238.977 248.055L 293.344 208.738L 282.77 198.586L 282.77 181.687L 364.684 181.687L 391.688 199.965L 391.742 226.305L 362.07 226.324L 312.219 262.34L 393.68 262.344C 431.387 262.344 483.742 287.941 483.621 337.055C 483.547 367.691 469.27 380.883 451.934 392.363C 457.18 398.055 484.801 409.375 484.988 449.094C 485.18 488.867 451.75 514.039 419.809 514.039L 279.562 514.039L 250.117 483.453L 250.117 464.48L 272.113 464.48L 272.113 388.09zM 370.527 407.496L 370.527 464.477L 378.832 464.477C 383.867 464.477 385.527 462.406 385.527 457.383L 385.531 415.879C 385.531 410.906 383.852 407.496 378.516 407.496L 370.527 407.496"
             style="stroke:none; fill-rule:evenodd; fill:#000000" />
          <path
             id="path26"
             d="M 342.801 279.07L 342.801 364.008L 378.887 364.008C 385.887 364.008 387.48 359.957 387.48 356.055L 387.48 287.316C 387.48 280.934 384.234 279.066 378.887 279.066L 342.801 279.066L 342.801 279.07zM 342.801 379.77L 342.801 466.086L 378.887 466.086C 384.672 466.086 387.48 463.223 387.48 457.434L 387.48 389.738C 387.48 383.281 384.652 379.77 378.891 379.77L 342.801 379.77zM 273.719 466.086L 273.719 279.07L 257.223 279.07L 257.223 263.945L 393.664 263.949C 430 263.949 457.469 284.359 458.625 322.477C 459.223 342.184 447.727 362.73 430.078 373.746C 446.93 384.996 459.445 396.07 459.324 425.359C 459.18 460.969 426.82 481.844 402.258 481.844L 251.723 481.844L 251.723 466.086L 273.719 466.086"
             style="stroke:none; fill-rule:evenodd; fill:#f9cc11" />
          <path
             id="path28"
             d="M 244.848 264.766L 244.848 342.035L 260.656 342.035L 260.656 355.719L 152.398 355.719L 152.398 342.035L 177.484 342.035L 177.484 280.719L 100.586 211.16L 84.9102 196.98L 67.8477 196.98L 67.8477 183.297L 201.199 183.297L 201.199 196.98L 180.117 196.98L 238.863 250.121L 312.145 196.98L 284.371 196.98L 284.371 183.297L 363.074 183.297L 363.074 196.98L 338.328 196.98L 244.848 264.77"
             style="stroke:none; fill-rule:evenodd; fill:#f9cc11" />
          <path
             id="path30"
             d="M 297.637 101.793L 304.684 123.492L 327.504 123.492L 309.039 136.902L 316.094 158.602L 297.633 145.191L 279.176 158.602L 286.227 136.902L 267.766 123.492L 290.582 123.492L 297.633 101.793"
             style="stroke:none; fill-rule:evenodd; fill:#f9cc11" />
          <path
             id="path32"
             d="M 254.77 558.969L 249.184 558.008L 252.816 536.766C 250.453 538.285 247.902 538.988 244.801 538.953L 245.656 533.988C 249.789 533.863 254.051 531.484 255.164 529.531L 259.699 530.312L 254.77 558.973"
             style="stroke:none; fill-rule:evenodd; fill:#000000" />
          <path
             id="path34"
             d="M 298.395 555.367L 304.188 554.754C 304.602 556.773 307.246 557.848 309.945 557.523C 315.395 556.871 315.762 552.793 315.91 549.156C 314.172 550.852 311.137 551.758 308.422 551.867C 305.465 551.988 302.863 551.215 300.641 549.551C 298.418 547.879 297.234 545.641 297.109 542.824C 296.977 539.891 298.008 537.477 300.195 535.586C 302.375 533.699 304.688 532.68 308.191 532.531C 317.539 532.148 321 538.359 321.379 546.773C 321.781 555.711 319.078 561.727 309.34 562.129C 304.359 562.332 299.766 559.68 298.395 555.367zM 315.066 542.394C 314.902 538.746 312.117 537.008 308.602 537.148C 305.109 537.289 302.867 539.277 303.031 542.531C 303.195 545.789 305.781 547.894 309.465 547.75C 312.688 547.621 315.215 545.785 315.066 542.394"
             style="stroke:none; fill-rule:evenodd; fill:#000000" />
          <path
             id="path36"
             d="M 273.879 545.652C 272.043 545.027 270.711 544.18 269.887 543.109C 269.059 542.043 268.652 540.875 268.66 539.613C 268.676 537.457 269.648 535.684 271.594 534.293C 273.543 532.902 276.297 532.223 279.855 532.262C 283.383 532.297 286.113 533.035 288.047 534.465C 289.992 535.891 290.953 537.687 290.938 539.844C 290.93 541.187 290.469 542.375 289.562 543.418C 288.664 544.453 287.398 545.242 285.777 545.777C 287.828 546.437 289.387 547.398 290.449 548.648C 291.512 549.894 292.035 551.328 292.023 552.945C 292.004 555.621 290.898 557.781 288.703 559.43C 286.504 561.078 283.594 561.883 279.965 561.848C 276.586 561.812 273.781 561.094 271.547 559.691C 268.902 558.023 267.598 555.773 267.617 552.93C 267.633 551.367 268.141 549.934 269.145 548.633C 270.148 547.336 271.73 546.34 273.879 545.652zM 274.141 539.723C 274.113 542.687 277.387 543.609 279.77 543.637C 282.137 543.668 285.297 542.758 285.316 539.883C 285.34 537.102 282.16 536.25 279.891 536.223C 277.602 536.195 274.16 536.922 274.137 539.723L 274.141 539.723zM 273.035 552.644C 273.008 556.437 276.59 557.523 279.867 557.562C 283.051 557.598 286.305 556.211 286.332 552.727C 286.359 549.363 282.746 548.113 279.832 548.078C 276.949 548.047 273.062 549.242 273.035 552.644"
             style="stroke:none; fill-rule:evenodd; fill:#000000" />
          <path
             id="path38"
             d="M 333.781 542.973C 331.863 542.676 330.406 542.07 329.41 541.164C 328.406 540.262 327.801 539.18 327.59 537.937C 327.23 535.812 327.875 533.891 329.551 532.184C 331.227 530.477 333.816 529.328 337.328 528.742C 340.809 528.164 343.629 528.41 345.781 529.48C 347.945 530.547 349.207 532.148 349.566 534.273C 349.793 535.598 349.547 536.848 348.836 538.031C 348.133 539.207 347.023 540.207 345.52 541.016C 347.656 541.309 349.355 541.98 350.621 543.027C 351.887 544.07 352.652 545.391 352.926 546.984C 353.371 549.621 352.66 551.941 350.781 553.949C 348.906 555.953 346.184 557.258 342.602 557.852C 339.266 558.406 336.383 558.191 333.938 557.199C 331.043 556.02 329.363 554.031 328.891 551.23C 328.629 549.687 328.883 548.187 329.645 546.73C 330.402 545.277 331.785 544.023 333.781 542.973zM 333.004 537.086C 333.496 540.008 336.879 540.348 339.23 539.961C 341.566 539.574 344.52 538.125 344.039 535.297C 343.578 532.551 340.297 532.266 338.055 532.637C 335.797 533.008 332.539 534.328 333.004 537.086zM 334.172 550.004C 334.805 553.742 338.523 554.187 341.758 553.652C 344.898 553.133 347.863 551.199 347.281 547.762C 346.719 544.445 342.941 543.848 340.066 544.32C 337.227 544.793 333.605 546.648 334.172 550.004"
             style="stroke:none; fill-rule:evenodd; fill:#000000" />
          <path
             id="path40"
             d="M 93.0781 138.074L 87.3438 145.004L 92.1641 148.996L 97.8984 142.07C 99.1914 140.512 99.8984 139.293 100.02 138.41C 100.145 137.535 99.7695 136.734 98.8945 136.012C 98.0312 135.297 97.1484 135.094 96.2461 135.406C 95.3477 135.723 94.2969 136.609 93.0781 138.078L 93.0781 138.074zM 101.527 156.754L 107.984 148.957C 109.297 147.375 109.996 146.144 110.09 145.254C 110.18 144.375 109.754 143.539 108.801 142.754C 107.852 141.965 106.902 141.715 105.957 141.996C 105.016 142.281 103.941 143.148 102.734 144.605L 96.2773 152.402L 101.527 156.754zM 101.332 166.484L 77.9414 147.109L 90.4648 131.988C 92.6367 129.363 94.7539 127.797 96.8203 127.297C 98.8828 126.793 100.887 127.34 102.824 128.945C 103.965 129.891 104.742 130.992 105.172 132.246C 105.594 133.508 105.637 134.883 105.312 136.367C 106.863 135.379 108.41 134.937 109.953 135.062C 111.5 135.187 112.996 135.852 114.453 137.059C 116.527 138.777 117.605 140.805 117.668 143.137C 117.738 145.469 116.789 147.824 114.824 150.191L 101.328 166.484"
             style="stroke:none; fill-rule:evenodd; fill:#000000" />
          <path
             id="path42"
             d="M 118.555 131.043L 124.242 125.738L 124.441 125.945C 125.605 127.199 127.043 127.641 128.758 127.27C 130.473 126.898 132.383 125.73 134.484 123.77C 136.105 122.258 137.137 120.855 137.574 119.555C 138.012 118.258 137.824 117.176 137.012 116.305C 136.328 115.57 135.539 115.301 134.645 115.492C 133.746 115.68 132.34 116.5 130.418 117.957L 126.109 121.25C 122.938 123.637 120.211 124.957 117.91 125.215C 115.609 125.469 113.605 124.676 111.883 122.828C 109.852 120.652 109.172 117.961 109.848 114.758C 110.531 111.562 112.477 108.465 115.703 105.457C 119.168 102.223 122.477 100.344 125.641 99.812C 128.805 99.277 131.426 100.129 133.52 102.371L 133.688 102.551L 128.16 107.707C 126.996 106.715 125.703 106.363 124.285 106.664C 122.867 106.961 121.312 107.894 119.617 109.469C 118.055 110.93 117.051 112.277 116.605 113.527C 116.16 114.777 116.316 115.809 117.074 116.617C 117.68 117.266 118.371 117.508 119.16 117.336C 119.949 117.164 121.43 116.266 123.617 114.633L 128.152 111.223C 131.289 108.879 134.012 107.617 136.336 107.426C 138.66 107.234 140.715 108.105 142.508 110.027C 144.812 112.496 145.562 115.316 144.758 118.473C 143.949 121.633 141.609 125.012 137.742 128.617C 134.062 132.051 130.598 134.016 127.355 134.52C 124.109 135.016 121.32 134.012 118.988 131.508L 118.555 131.043"
             style="stroke:none; fill-rule:evenodd; fill:#000000" />
          <path
             id="path44"
             d="M 176.637 85.727C 178.48 89.082 178.766 92.605 177.48 96.297C 176.195 99.9839 173.539 103.242 169.512 106.059C 164.973 109.238 160.516 110.59 156.148 110.109C 151.785 109.633 148.215 107.402 145.426 103.426C 142.641 99.4449 141.762 95.3199 142.801 91.047C 143.84 86.777 146.633 83.051 151.176 79.871C 155.141 77.094 159.055 75.687 162.898 75.6559C 166.75 75.629 169.848 76.9529 172.211 79.629L 165.41 84.387C 163.934 83.1559 162.297 82.59 160.5 82.691C 158.707 82.793 156.797 83.559 154.75 84.988C 152.266 86.73 150.793 88.8199 150.348 91.254C 149.906 93.687 150.551 96.137 152.289 98.6169C 154.012 101.082 156.094 102.523 158.52 102.937C 160.949 103.352 163.414 102.68 165.918 100.926C 168.082 99.41 169.504 97.738 170.191 95.9059C 170.871 94.0779 170.746 92.2729 169.809 90.508L 176.637 85.727"
             style="stroke:none; fill-rule:evenodd; fill:#000000" />
          <path
             id="path46"
             d="M 212.332 84.0229L 208.512 71.641L 190.699 58.91L 199.941 56.059L 210.387 64.211L 214.352 51.613L 223.555 48.777L 215.77 69.3979L 219.594 81.785L 212.332 84.0229"
             style="stroke:none; fill-rule:evenodd; fill:#000000" />
          <path
             id="path48"
             d="M 247.18 68.391C 250.145 67.7029 252.281 66.324 253.59 64.246C 254.902 62.168 255.223 59.6559 254.547 56.727C 253.863 53.766 252.473 51.637 250.383 50.34C 248.289 49.047 245.766 48.746 242.805 49.43C 239.848 50.1089 237.699 51.496 236.375 53.59C 235.055 55.68 234.734 58.191 235.414 61.141C 236.094 64.0699 237.48 66.191 239.574 67.4839C 241.676 68.777 244.211 69.074 247.18 68.391zM 227.254 63.0229C 226.16 58.293 226.891 54.137 229.453 50.566C 232.02 46.996 235.996 44.59 241.398 43.344C 246.801 42.094 251.43 42.516 255.285 44.602C 259.141 46.691 261.613 50.105 262.707 54.84C 263.801 59.574 263.074 63.719 260.52 67.277C 257.969 70.84 253.992 73.246 248.59 74.4919C 243.188 75.7419 238.559 75.3199 234.688 73.2419C 230.82 71.1639 228.344 67.758 227.25 63.0229"
             style="stroke:none; fill-rule:evenodd; fill:#000000" />
          <path
             id="path50"
             d="M 273.414 39.508L 274.551 55.797C 274.762 58.7729 275.543 60.8979 276.895 62.16C 278.242 63.422 280.301 63.961 283.078 63.766C 284.555 63.66 285.824 63.363 286.887 62.871C 287.949 62.379 288.785 61.699 289.402 60.8279C 289.891 60.152 290.215 59.394 290.387 58.555C 290.551 57.7029 290.574 56.418 290.453 54.684L 289.312 38.3979L 296.852 37.871L 298.047 54.9529C 298.367 59.551 297.297 63.121 294.84 65.676C 292.383 68.238 288.613 69.6949 283.516 70.051C 278.434 70.4059 274.504 69.488 271.715 67.293C 268.926 65.105 267.367 61.715 267.047 57.121L 265.852 40.0389L 273.41 39.512"
             style="stroke:none; fill-rule:evenodd; fill:#000000" />
          <path
             id="path52"
             d="M 301.152 67.93L 303.27 37.633L 312.59 38.2809L 326.234 60.711L 327.73 39.34L 335.023 39.852L 332.906 70.152L 323.688 69.508L 309.91 46.863L 308.402 68.437L 301.152 67.93"
             style="stroke:none; fill-rule:evenodd; fill:#000000" />
          <path
             id="path54"
             d="M 350.902 75.816C 348.621 75.2889 346.535 74.469 344.641 73.355C 342.746 72.25 341.18 70.93 339.949 69.41C 338.43 67.512 337.438 65.4839 336.98 63.3199C 336.516 61.1559 336.578 58.797 337.168 56.25C 338.262 51.516 340.738 48.105 344.609 46.02C 348.477 43.934 353.113 43.516 358.52 44.762C 363.074 45.812 366.645 47.711 369.215 50.437C 371.789 53.18 372.918 56.238 372.598 59.6169L 364.531 57.754C 364.23 55.941 363.469 54.473 362.238 53.324C 361.008 52.18 359.293 51.352 357.105 50.844C 354.148 50.16 351.609 50.469 349.508 51.766C 347.402 53.066 346.012 55.184 345.332 58.133C 344.652 61.062 344.973 63.5779 346.289 65.6559C 347.609 67.738 349.758 69.121 352.73 69.805C 354.758 70.27 358.691 70.7029 362.836 70.3669L 363.613 67.105L 353.684 64.84L 355.047 58.937L 371.77 62.84L 368.547 75.562C 366.301 76.191 363.664 76.555 360.746 76.68C 357.441 76.824 353.816 76.488 350.902 75.816"
             style="stroke:none; fill-rule:evenodd; fill:#000000" />
          <path
             id="path56"
             d="M 411.082 70.809L 403 66.8669L 400.258 72.4919L 408.34 76.437C 410.16 77.324 411.508 77.727 412.395 77.637C 413.273 77.547 413.961 76.996 414.461 75.977C 414.949 74.965 414.941 74.062 414.426 73.262C 413.906 72.461 412.797 71.644 411.082 70.809zM 394.926 83.426L 404.023 87.863C 405.867 88.762 407.23 89.152 408.113 89.0309C 408.992 88.9139 409.703 88.301 410.246 87.191C 410.785 86.086 410.805 85.102 410.309 84.25C 409.809 83.402 408.715 82.562 407.012 81.73L 397.914 77.297L 394.926 83.426zM 385.422 85.527L 398.734 58.227L 416.383 66.836C 419.445 68.3279 421.469 70.016 422.441 71.9059C 423.418 73.793 423.355 75.8669 422.254 78.129C 421.605 79.461 420.719 80.477 419.602 81.187C 418.477 81.894 417.148 82.262 415.625 82.301C 416.957 83.5699 417.746 84.973 417.988 86.5C 418.234 88.0309 417.941 89.641 417.109 91.344C 415.93 93.766 414.211 95.2889 411.965 95.8979C 409.711 96.516 407.199 96.152 404.434 94.801L 385.422 85.527"
             style="stroke:none; fill-rule:evenodd; fill:#000000" />
          <path
             id="path58"
             d="M 434.562 106.703C 437.055 108.449 439.508 109.113 441.93 108.695C 444.352 108.281 446.434 106.836 448.16 104.371C 449.898 101.887 450.555 99.426 450.117 97.008C 449.68 94.586 448.215 92.512 445.723 90.766C 443.238 89.0229 440.77 88.355 438.332 88.7729C 435.895 89.187 433.812 90.629 432.074 93.1089C 430.352 95.574 429.703 98.0229 430.148 100.445C 430.59 102.871 432.066 104.957 434.562 106.703zM 425.215 88.309C 428 84.3279 431.574 82.09 435.945 81.605C 440.312 81.125 444.766 82.469 449.305 85.6479C 453.848 88.8279 456.633 92.551 457.66 96.812C 458.691 101.074 457.809 105.199 455.02 109.18C 452.234 113.156 448.664 115.391 444.312 115.879C 439.961 116.363 435.508 115.02 430.969 111.84C 426.426 108.66 423.641 104.937 422.598 100.672C 421.551 96.4059 422.43 92.285 425.215 88.309"
             style="stroke:none; fill-rule:evenodd; fill:#000000" />
          <path
             id="path60"
             d="M 453.824 128.695L 462.664 119.215L 464.836 97.43L 471.91 104.027L 470.043 117.141L 482.938 114.309L 489.984 120.879L 468.223 124.394L 459.383 133.875L 453.828 128.691"
             style="stroke:none; fill-rule:evenodd; fill:#000000" />
          <path
             id="path62"
             d="M 479.688 136.535L 484.582 142.582L 484.359 142.762C 483.031 143.84 482.488 145.242 482.742 146.977C 482.992 148.715 484.023 150.699 485.832 152.934C 487.227 154.656 488.555 155.781 489.82 156.309C 491.086 156.836 492.176 156.727 493.102 155.977C 493.883 155.348 494.207 154.574 494.078 153.672C 493.953 152.762 493.23 151.301 491.91 149.281L 488.93 144.754C 486.77 141.426 485.645 138.609 485.547 136.297C 485.449 133.984 486.383 132.039 488.344 130.449C 490.66 128.574 493.395 128.086 496.539 128.984C 499.676 129.891 502.637 132.047 505.41 135.477C 508.391 139.156 510.035 142.59 510.348 145.781C 510.66 148.973 509.629 151.531 507.242 153.465L 507.055 153.617L 502.297 147.746C 503.371 146.652 503.805 145.387 503.609 143.949C 503.41 142.516 502.586 140.898 501.133 139.102C 499.785 137.441 498.512 136.344 497.297 135.812C 496.082 135.281 495.043 135.367 494.18 136.062C 493.488 136.621 493.203 137.297 493.32 138.094C 493.434 138.894 494.23 140.434 495.703 142.73L 498.789 147.492C 500.906 150.785 501.977 153.59 502.008 155.918C 502.035 158.25 501.023 160.242 498.98 161.894C 496.355 164.023 493.492 164.574 490.398 163.551C 487.305 162.523 484.094 159.953 480.77 155.844C 477.602 151.934 475.879 148.34 475.605 145.07C 475.336 141.797 476.535 139.086 479.191 136.934L 479.688 136.531"
             style="stroke:none; fill-rule:evenodd; fill:#000000" />
        </g>
      </g>
    </g>
  </g>
</svg>
