<?xml version="1.0" encoding="UTF-8" standalone="no"?>
<svg xmlns="http://www.w3.org/2000/svg" height="697.97998" width="572.84003" version="1.1">
  <g transform="matrix(.5 0 0 -.5 0 697.98)">
    <g>
      <path d="m1119.39 1376.88s113.64-1087.419-546.538-1356.5597c-660.1762 269.1407-546.5434 1356.5597-546.5434 1356.5597h1093.0814" fill="#fff"/>
      <g>
        <path d="m37.6953 1194.96c-0.664-318.511 64.2777-958.319 535.1367-1154.2686 470.818 195.9886 535.778 835.7576 535.118 1154.2186 0 78.08-3.69 136.09-5.82 163.12h-1058.5558c-2.1289-27.01-5.8789-84.96-5.8789-163.07zm528.0277-1192.1084c-504.9222 208.02744-565.11753 869.51544-565.723 1192.1084 0 111.49 7.51953 183.4 7.51953 183.89l1.83594 16.88h1110.0045v-18.83 18.83h16.99l1.76-16.88c0.05-0.49 7.57-72.46 7.57-183.94-0.6599-322.543-60.8599-983.949-565.6999-1192.0584l-7.167-2.8516-7.09 2.85156"/>
        <path d="m5.9375 1318.6c2.16797 48.36 5.0195 76.76 5.0977 77.36v-0.06l74.9414-7.5c0.0586-0.13-2.6758-26.4-4.7266-73.14l-75.3125 3.34zm-2.22656-106.56c0 18.39 0.17578 35.72 0.48828 51.83v-0.08l75.35158-1.5c-0.3125-15.61-0.4688-32.38-0.4688-50.25 0-7.8 0-15.81 0.0391-24.03l-75.29297-0.66c-0.11719 8.4-0.11719 16.64-0.11719 24.69zm1.1914-79.42v-0.06 0.06zm0-0.06 75.31246 2.37c0.7422-23.68 1.875-48.5 3.4571-74.22l-75.25393-4.61c-1.64063 26.56-2.77344 52.09-3.51563 76.46zm7.46096-131.05 75.1172 6.23c2.0117-24.025 4.414-48.674 7.3828-73.81l-74.8828-8.77c-3.0078 26.016-5.5664 51.524-7.6172 76.35zm14.6484-130.725h0.0586l74.5707 10.606c3.398-24.102 7.324-48.496 11.816-73.067l-74.1601-13.379c-4.668 25.547-8.7305 50.84-12.2852 75.84zm22.8125-129.844 73.7308 15.625c5.097-23.925 10.664-47.89 16.836-71.796l-72.9496-18.887c-6.4844 25.058-12.3437 50.117-17.6172 75.058zm32.2656-128.144 72.2852 21.348c6.973-23.418 14.473-46.719 22.637-69.805l-70.996-25.176c-8.6527 24.414-16.6019 48.984-23.9262 73.633zm43.5352-125.508 69.922 28.145c9.082-22.579 18.887-44.844 29.433-66.7l-67.929-32.695c-11.27 23.438-21.738 47.227-31.426 71.25zm56.914-120.898c0-0.02 0.02-0.02 0.02-0.039l-0.02-0.024v0.063zm0.02-0.039 66.074 36.191c11.621-21.254 24.043-41.953 37.168-62.055l-62.949-41.347c-14.356 21.839-27.774 44.281-40.293 67.211zm72.617-113.223 60.234 45.269c14.395-19.179 29.61-37.578 45.703-55.187l-55.625-50.859c-17.812 19.488-34.57 39.757-50.312 60.777zm89.961-101.039 51.679 54.851c17.207-16.23 35.235-31.55 54.317-45.882l-45.41-60.2c-21.309 16.063-41.465 33.192-60.586 51.231zm107.265-83.6095 40.391 63.6285c19.727-12.461 40.312-24.019 61.973-34.5074l-32.93-67.793c-24.219 11.7422-47.344 24.7031-69.434 38.6719"/>
        <path d="m1059.96 1388.36h0.08l74.94 7.58c0.06-0.6 2.91-29 5.04-77.38l-75.31-3.28c-2.07 46.74-4.67 73.01-4.75 73.08zm6.8-200.33c0.13 8.18 0.13 16.21 0.13 23.97 0 17.91-0.19 34.72-0.48 50.31l75.37 1.52c0.31-16.09 0.47-33.44 0.47-51.83 0-7.99 0-16.25-0.04-24.69l-75.45 0.72zm-4.44-127.32c1.61 25.74 2.68 50.54 3.4 74.22l75.32-2.37c-0.73-24.33-1.88-49.94-3.52-76.44l-75.2 4.59zm-11.21-126.761c2.89 25.117 5.39 49.766 7.41 73.791l75.05-6.25c-2.05-24.806-4.55-50.314-7.57-76.33l-74.89 8.789zm-18.57-125.625c4.43 24.59 8.3 48.985 11.78 73.086l74.63-10.625c-3.58-25-7.64-50.312-12.25-75.859l-74.16 13.398zm-26.93-123.613c6.11 23.965 11.69 47.891 16.79 71.797l-0.06 0.058 73.81-15.605c-5.29-24.922-11.13-49.981-17.61-75.059l-72.93 18.809zm-36.684-120.332c8.203 23.047 15.722 46.309 22.656 69.785l72.268-21.348c-7.29-24.707-15.24-49.218-23.83-73.613l-71.094 25.176zm-47.852-115.664c10.469 21.836 20.254 44.121 29.356 66.758l69.9-28.164c-9.7-24.102-20.13-47.891-31.424-71.25l-67.832 32.656zm-60.937-108.203c13.164 20.078 25.547 40.777 37.187 62.011l66.094-36.152c-12.5-22.949-25.918-45.41-40.293-67.25l-62.988 41.391zm-75.254-97.282c16.074 17.551 31.308 35.989 45.703 55.168l60.176-45.269c-15.703-21.02-32.461-41.328-50.293-60.801l-55.586 50.902zm-90.059-82.23c19.063 14.391 37.149 29.691 54.317 45.941v-0.062l51.699-54.809c-19.102-18-39.336-35.129-60.567-51.211l-45.449 60.141zm-103.594-63.4219c21.622 10.5119 42.247 22.0309 61.973 34.5309l40.352-63.5895c-22.09-14.0195-45.157-26.9882-69.375-38.7109l-32.95 67.7695"/>
        <path d="m15.8398 1308.71v75.36h75.3516v-75.36h-75.3516zm129.1992 0v75.36h75.371v-75.36h-75.371zm129.238 0v75.36h75.371v-75.36h-75.371zm129.18 0v75.36h75.371v-75.36h-75.371zm129.199 0v75.36h75.371v-75.36h-75.371zm129.239 0v75.36h75.371v-75.36h-75.371zm129.199 0v75.36h75.371v-75.36h-75.371zm129.199 0v75.36h75.352v-75.36h-75.352zm129.237 0v75.36h75.37v-75.36h-75.37"/>
      </g>
    </g>
    <g>
      <g fill="#f00">
        <path d="m339.16 452.621h59.141l66.484 66.563 15.762-16.426-50.137-50.137h35.508s35.195-3.32 17.09-39.746c0 0-3.457 17.07-20.488 17.07h-37.618v-40.465c0-17.039 17.09-20.468 17.09-20.468-36.367-18.114-39.824 17.09-39.824 17.09v38.394l-32.305-32.348c-12.031-12.089-2.422-26.519-2.422-26.519-38.496 12.851-15.996 40.234-15.996 40.234l24.102 24.082h-32.988c-16.993 0-20.391-17.07-20.391-17.07-18.203 36.426 16.992 39.746 16.992 39.746"/>
        <path d="m813.105 452.973h-59.023l-66.562 66.543-15.704-16.446 50.079-50.097h-35.508s-35.196-3.321-17.012-39.785c0 0 3.379 17.089 20.41 17.089h37.617v-40.425c0-17.071-17.011-20.454-17.011-20.454 36.308-18.128 39.707 17.032 39.707 17.032v38.34l32.343-32.25c12.032-12.09 2.442-26.481 2.442-26.481 38.496 12.789 16.055 40.137 16.055 40.137l-24.161 24.101h32.95c17.031 0 20.449-17.089 20.449-17.089 18.183 36.464-17.071 39.785-17.071 39.785"/>
        <path d="m471.504 1008.32s13.769-27.144 54.394-12.027c0 0-44.433-33.398-58.886-9.648 0 0-7.246 12.343 4.492 21.675"/>
      </g>
      <path d="m602.031 1017.31c-28.789-11.33-39.121-6.72-39.121-6.72-4.707 0.33-5.781 4.02-5.781 4.02-2.344 3.03-3.301 15.2-3.301 15.2 0.293 2.07 2.324 0.66 2.324 0.66 7.754-11.09 41.797-7.03 41.797-7.03 10.176-0.7 4.082-6.13 4.082-6.13m-70.468-165.724c6.113-38.418-13.145-49.356-31.387-53.535-12.207-2.774-72.422-0.567-45.078 68.008 0 0 20.273 50.664 6.25 86.211-10.684 27.109-6.875 44.16-8.477 52.44-1.211 6.35-3.711 28.71-48.144 27.52 0 0-114.278 1.99-132.344 10.16 0 0-10.195 2.26-3.613-9.26 0 0 29.101-42.15 92.851-40.411 5.606 0.078 5.567-4.903 1.504-8.672 0 0-10.625-11.426-41.25-7.656 0 0-40.449 1.406-106.426 29.379 0 0-7.89 4.47-7.812-6.665 0 0-0.43-35.332 44.648-52.285 0 0 44.024-19.902 99.707-10.351 6.231 1.074 10.762-5.762 3.653-11.856 0 0-22.832-18.711-61.231-17.09 0 0-41.348-3.339-91.855 22.5 0 0-10.235 4.317-7.325-12.168 0 0 8.243-54.14 79.2-57.558 0 0 43.203-2.949 74.433 15.293 2.481 1.484 8.672-0.645 3.926-7.461 0 0-24.785-31.797-71.934-38.184 0 0-41.015-4.746-83.593 8.965 0 0-11.192 1.856-10.02-11.64 0 0 5.586-38.106 58.867-47.442 0 0 46.719-7.48 104.942 29.902 3.398 2.188 6.816-2.695 4.023-7.89 0 0-15.547-38.242-71.582-54.141 0 0-39.453-12.07-97.851-1.758 0 0-11.231-1.621-7.207-11.171 0 0 14.355-35.157 64.804-42.383 0 0 62.988-8.555 116.367 37.265 4.766 4.102 18.262 0.391 9.161-12.5 0 0-34.356-55.156-135.704-77.382 0 0-15.957-2.559-26.64-4.141 0 0-6.387-0.859-4.863-9.004 0 0 20.839-46.211 96.074-25.43-0.586-0.136 49.629 13.457 102.929 61.7 6.387 5.742 14.122-2.11 12.403-8.965 0 0-2.91-45.567-106.621-94.278 0 0-29.532-13.613-64.766-17.148 0 0-10.391-2.852-5.332-11.524 0 0 41.094-46.464 132.793-4.785 0 0 68.711 33.828 101.562 90.469 5.215 9.043 38.946 11.426 44.844-6.367 0 0 9.219-41.328-40.644-61.289 0 0-32.246-12.598-22.227-35.117 0 0 11.973-32.891 17.832-39.336 4.238-4.668 16.016-12.403 30.156 0.371 14.219 12.773 13.653 16.426 21.719 20.293 7.988 3.906 17.774-0.645 18.086-13.184 0 0-10.879-64.922-67.637-105.414 0 0 10.938-15.562 5.489-33.082 0 0-19.024-46.168 22.675-110.84 0 0-14.785 71.68 25.625 139.762 0 0 13.926 28.559 20.411 30.394 0 0 10.488 3.75 12.343-8.824 0 0 4.18-37.89-34.492-109.832 0 0 25.742-0.597 30.547-30.508 2.422-15.211 2.422-64.191 24.121-82.769 23.223 19.937 20.41 53.769 22.676 82.828 2.207 29.051 29.297 30.449 29.297 30.449-38.594 71.942-33.223 108.582-33.223 108.582 1.856 14.02 12.324 10.133 12.324 10.133 6.485-1.855 20.45-30.394 20.45-30.394 40.41-68.122 25.605-139.758 25.605-139.758 41.66 64.679 22.539 110.797 22.539 110.797-5.293 17.582 5.586 33.062 5.586 33.062-56.758 40.512-67.617 105.434-67.617 105.434 0.332 12.539 10.058 17.09 18.086 13.222 8.047-3.886 7.48-7.578 21.738-20.293 14.18-12.734 25.84-5.097 30.078-0.41 5.918 6.446 17.93 39.317 17.93 39.317 9.961 22.558-22.285 35.117-22.285 35.117-49.844 20.019-40.645 61.328-40.645 61.328 5.957 17.754 27.031 17.305 32.285 8.242 32.93-56.601 101.582-90.371 101.582-90.371 91.739-41.719 132.715 4.727 132.715 4.727 5.098 8.613-5.215 11.484-5.215 11.484-35.254 3.535-64.843 17.168-64.843 17.168-103.653 48.711-106.602 94.277-106.602 94.277-1.719 6.856 6.016 14.727 12.363 8.946 53.418-48.204 103.633-61.836 103.067-61.641 75.156-20.801 95.996 25.371 95.996 25.371 1.523 8.223-4.883 9.004-4.883 9.004-10.684 1.621-26.641 4.141-26.641 4.141-101.328 22.226-135.703 77.421-135.703 77.421-9.023 12.852 4.375 16.641 9.18 12.481 53.398-45.762 116.348-37.305 116.348-37.305 50.468 7.227 64.824 42.442 64.824 42.442 4.023 9.57-7.227 11.132-7.227 11.132-58.32-10.351-97.812 1.758-97.812 1.758-56.094 15.918-71.602 54.102-71.602 54.102-2.773 5.332 0.625 10.137 4.004 7.969 58.262-37.422 104.981-29.883 104.981-29.883 53.261 9.258 58.867 47.383 58.867 47.383 1.133 13.593-10.039 11.582-10.039 11.582-42.578-13.692-83.555-8.887-83.555-8.887-47.187 6.406-71.973 38.164-71.973 38.164-4.746 6.836 1.446 8.906 3.965 7.48 31.231-18.222 74.414-15.293 74.414-15.293 70.938 3.438 79.16 57.54 79.16 57.54 2.95 16.484-7.324 12.168-7.324 12.168-50.547-25.801-91.836-22.5-91.836-22.5-38.398-1.622-61.211 17.089-61.211 17.089-7.129 6.094-2.597 12.93 3.614 11.856 55.742-9.531 99.726 10.39 99.726 10.39 45.059 16.895 44.688 52.247 44.688 52.247 0.058 11.19-7.91 6.64-7.91 6.64-65.879-27.91-106.387-29.336-106.387-29.336-30.606-3.789-41.231 7.637-41.231 7.637-4.062 3.809-4.101 8.809 1.582 8.672 63.653-1.738 92.774 40.387 92.774 40.387 6.582 11.57-3.653 9.4-3.653 9.4-17.988-8.22-132.324-10.28-132.324-10.28-37.754 1.02-45.547-17.03-48.144-27.51-4.453-17.759 2.187-8.853-8.438-52.466-11.601-47.461 6.211-86.191 6.211-86.191 33.399-72.52-20.254-73.262-36.152-71.348-44.317 5.332-36.563 56.016-36.563 56.016 3.868 19.199 26.817 25.351 26.817 25.351-2.832 1.465-8.828 0.879-17.637 9.727-16.055 16.054 1.309 34.316 1.309 34.316 5.39 6.778 22.48 14.102 22.48 14.102-22.051 4.824-22.246 18.203-15.703 27.949 17.91 26.66 7.598 37.124 4.805 46.094-7.832 25.35 13.105 30.92 13.105 30.92-62.09 18.03-90.625 12.26-90.625 12.26s-9.59-14.57-44.453-9.04c0 0-28.535 1.39-34.141-28.59 0 0 27.871 15.95 44.61-4.75 0 0 15.801-21.562-12.793-34.355 0 0 18.691-1.738 24.785-20.039 0 0 5.098-12.129-0.352-31.543-3.574-15.859-2.129-10.234-6.406-25.117-1.699-5.879 0.606-9.629 4.473-11.524 0 0-9.864-11.172-5.781-36.816"/>
    </g>
    <g>
      <g fill="#f00">
        <path d="m227.285 1254.79h116.797l-32.148-151.29h-116.778l32.129 151.29"/>
        <path d="m358.418 1254.79h116.797l-32.168-151.29h-116.777l32.148 151.29"/>
        <path d="m489.551 1254.79h469.883l-32.129-151.29h-469.903l32.149 151.29"/>
      </g>
      <g fill="#fff">
        <path d="m251.016 1231.31h59.824l-3.32-16.93h-36.407l-4.472-19.57h35.097l-3.437-16.92h-34.61l-7.539-36.01h-24.101l18.965 89.43"/>
        <path d="m441.621 1209.79c-7.558 4.35-14.726 5.37-22.305 5.37-23.925 0-33.554-16.87-33.554-33.83 0-15.88 10.117-23.3 24.492-23.3 8.574 0 16.367 1.82 22.656 4.98l-2.578-19.2c-5.742-1.91-15.742-3.43-23.809-3.43-28.828 0-45.371 17.01-45.371 41.64 0 29.68 20.899 50.84 54.473 50.84 17.148 0 26.777-2.97 31.641-4.75l-5.645-18.32"/>
        <path d="m557.559 1212.86h-0.254l-18.946-34.97h23.047l-3.847 34.97zm-11.914 18.47h29.98l14.609-89.45h-24.082l-2.441 19.08h-34.707l-10.664-19.08h-25.84l53.145 89.45"/>
        <path d="m634.18 1155.75c9.863 0 15.742 6.77 17.402 15.74-1.914 0.39-4.727 0.39-6.133 0.39-11.035 0.35-19.082-3.59-19.082-9.49 0-3.05 2.949-6.64 7.813-6.64m15.351-4.52-0.234 0.28v-0.28c-4.863-7.67-13.477-10.85-22.422-10.85-14.355 0-22.285 6.38-22.285 19.31 0 16.41 16.367 24.47 36.758 24.47 4.609 0 9.238-0.37 12.422-0.64 0.253 0.9 0.253 1.8 0.253 2.69 0 4.73-4.726 8.58-12.285 8.58-8.359 0-13.965-1.27-21.679-5.25l2.324 16.77c6.777 2.31 14.082 3.87 24.472 3.87 15.86 0 28.946-6.29 28.946-22.68 0-10.5-5.899-25.5-8.438-45.58h-18.847l1.015 9.31"/>
        <path d="m721.387 1208.64-2.539-13.71h0.234c3.731 7.83 11.172 15.23 20.645 15.23 3.066 0 6.66-0.39 9.746-1.64l-5.274-20.39c-2.949 2.32-6.269 2.83-10.625 2.83-9.746 0-15.508-8.46-17.168-18.32l-6.523-30.76h-23.067l10.372 49.32c1.171 5.78 2.187 11.42 2.812 17.44h21.387"/>
        <path d="m779.551 1155.75c9.863 0 15.781 6.77 17.441 15.74-1.933 0.39-4.746 0.39-6.152 0.39-11.016 0.35-19.121-3.59-19.121-9.49 0-3.05 2.988-6.64 7.832-6.64m15.351-4.52-0.234 0.28v-0.28c-4.844-7.67-13.477-10.85-22.402-10.85-14.375 0-22.286 6.38-22.286 19.31 0 16.41 16.368 24.47 36.739 24.47 4.629 0 9.238-0.37 12.422-0.64 0.273 0.9 0.273 1.8 0.273 2.69 0 4.73-4.746 8.58-12.285 8.58-8.359 0-13.965-1.27-21.68-5.25l2.324 16.77c6.778 2.31 14.082 3.87 24.473 3.87 15.859 0 28.945-6.29 28.945-22.68 0-10.5-5.898-25.5-8.457-45.58h-18.808l0.976 9.31"/>
        <path d="m905.488 1159.32c-1.172-5.76-2.187-11.41-2.812-17.42h-21.406l1.796 10.88h-0.273c-6.66-7.42-13.594-12.42-25.723-12.42-13.476 0-20.761 10-20.761 23.04 0 4.49 0.39 7.03 1.796 14.1l6.133 31.14h23.828l-6.406-31.27c-0.644-3.32-1.523-6.64-1.523-10.14 0-3.94 2.539-7.91 8.945-7.64 9.766 0 15.488 8.42 17.188 18.3l6.523 30.75h23.047l-10.352-49.32"/>
      </g>
    </g>
  </g>
</svg>