<?xml version="1.0" encoding="UTF-8" standalone="no"?>
<!-- Created with Inkscape (http://www.inkscape.org/) -->

<svg
   xmlns:dc="http://purl.org/dc/elements/1.1/"
   xmlns:cc="http://creativecommons.org/ns#"
   xmlns:rdf="http://www.w3.org/1999/02/22-rdf-syntax-ns#"
   xmlns:svg="http://www.w3.org/2000/svg"
   xmlns="http://www.w3.org/2000/svg"
   xmlns:sodipodi="http://sodipodi.sourceforge.net/DTD/sodipodi-0.dtd"
   xmlns:inkscape="http://www.inkscape.org/namespaces/inkscape"
   id="svg2"
   version="1.1"
   inkscape:version="0.48.2 r9819"
   width="300"
   height="299.91507"
   xml:space="preserve"
   sodipodi:docname="MZRL.pdf"><metadata
     id="metadata8"><rdf:RDF><cc:Work
         rdf:about=""><dc:format>image/svg+xml</dc:format><dc:type
           rdf:resource="http://purl.org/dc/dcmitype/StillImage" /><dc:title></dc:title></cc:Work></rdf:RDF></metadata><defs
     id="defs6"><clipPath
       clipPathUnits="userSpaceOnUse"
       id="clipPath16"><path
         d="m 0.059998,680.28 473.326002,0 0,-680.28 -473.326002,0 0,680.28 z"
         id="path18"
         inkscape:connector-curvature="0" /></clipPath><clipPath
       clipPathUnits="userSpaceOnUse"
       id="clipPath352"><path
         d="m 21.968,458.639 96.641,0 0,23.225 -96.641,0 0,-23.225 z"
         id="path354"
         inkscape:connector-curvature="0" /></clipPath><clipPath
       clipPathUnits="userSpaceOnUse"
       id="clipPath418"><path
         d="m 21.968,445.885 26.857,0 0,8.556 -26.857,0 0,-8.556 z"
         id="path420"
         inkscape:connector-curvature="0" /></clipPath></defs><sodipodi:namedview
     pagecolor="#ffffff"
     bordercolor="#666666"
     borderopacity="1"
     objecttolerance="10"
     gridtolerance="10"
     guidetolerance="10"
     inkscape:pageopacity="0"
     inkscape:pageshadow="2"
     inkscape:window-width="1366"
     inkscape:window-height="716"
     id="namedview4"
     showgrid="false"
     fit-margin-top="0"
     fit-margin-left="0"
     fit-margin-right="0"
     fit-margin-bottom="0"
     inkscape:zoom="1"
     inkscape:cx="86.483019"
     inkscape:cy="92.267491"
     inkscape:window-x="-8"
     inkscape:window-y="-8"
     inkscape:window-maximized="1"
     inkscape:current-layer="g10" /><g
     id="g10"
     inkscape:groupmode="layer"
     inkscape:label="MZRL"
     transform="matrix(1.25,0,0,-1.25,-209.38322,752.84447)"><g
       id="g24"
       transform="matrix(3.2352426,0,0,3.2352426,407.36746,538.22747)"><path
         d="m 0,0 -19.795,19.787 -34.463,0 -19.79,-19.818 0.018,-34.413 19.798,-19.797 34.455,0 19.77,19.814"
         style="fill:#ffffff;fill-opacity:1;fill-rule:nonzero;stroke:none"
         id="path26"
         inkscape:connector-curvature="0" /></g><g
       id="g28"
       transform="matrix(3.2352426,0,0,3.2352426,338.37268,570.89048)"><path
         d="m 0,0 c 0.336,-0.354 -0.311,-0.539 -0.218,-0.807 0.286,-0.754 0.159,-1.652 -0.406,-2.284 -0.109,-0.096 -0.234,-0.168 -0.387,-0.184 -0.246,0.047 -0.229,0.299 -0.346,0.448 -0.091,0.233 -0.402,0.464 -0.682,0.497 -0.423,0.049 -0.729,-0.208 -0.959,-0.498 -0.116,-0.096 -0.294,-0.116 -0.455,-0.099 -0.155,0.023 -0.234,0.176 -0.311,0.283 -0.138,0.217 -0.062,0.464 -0.054,0.704 -0.083,0.101 -0.116,0.227 -0.211,0.321 -0.017,0.053 0.013,0.092 0.031,0.135 0.132,0.094 0.317,0.098 0.465,0.165 0.811,0.417 1.606,0.869 2.654,0.855 C -0.597,-0.351 -0.464,0.059 0,0"
         style="fill:#ffdd00;fill-opacity:1;fill-rule:nonzero;stroke:none"
         id="path30"
         inkscape:connector-curvature="0" /></g><g
       id="g32"
       transform="matrix(3.2352426,0,0,3.2352426,338.37268,570.89048)"><path
         d="m 0,0 c 0.336,-0.354 -0.311,-0.539 -0.218,-0.807 0.286,-0.754 0.159,-1.652 -0.406,-2.284 -0.109,-0.096 -0.234,-0.168 -0.387,-0.184 -0.246,0.047 -0.229,0.299 -0.346,0.448 -0.091,0.233 -0.402,0.464 -0.682,0.497 -0.423,0.049 -0.729,-0.208 -0.959,-0.498 -0.116,-0.096 -0.294,-0.116 -0.455,-0.099 -0.155,0.023 -0.234,0.176 -0.311,0.283 -0.138,0.217 -0.062,0.464 -0.054,0.704 -0.083,0.101 -0.116,0.227 -0.211,0.321 -0.017,0.053 0.013,0.092 0.031,0.135 0.132,0.094 0.317,0.098 0.465,0.165 0.811,0.417 1.606,0.869 2.654,0.855 C -0.597,-0.351 -0.464,0.059 0,0 z"
         style="fill:none;stroke:#ffdd00;stroke-width:0.037;stroke-linecap:butt;stroke-linejoin:miter;stroke-miterlimit:3.86400008;stroke-opacity:1;stroke-dasharray:none"
         id="path34"
         inkscape:connector-curvature="0" /></g><g
       id="g36"
       transform="matrix(3.2352426,0,0,3.2352426,341.50763,562.85414)"><path
         d="m 0,0 c 0.907,-1.522 1.671,-2.563 1.671,-2.563 -0.4,-1.403 -2.673,-2.127 -2.867,-2.526 -0.172,-0.507 -0.711,-0.925 -1.231,-1.242 0.135,0.789 -0.012,1.444 -0.012,1.444 -0.329,-1.428 -2.652,-2.532 -4.002,-2.519 1.17,0.442 1.779,1.826 1.779,1.826 -0.863,-1.087 -3.14,-1.206 -3.811,-1.07 0.288,0.008 1.032,0.353 1.712,0.797 0.168,0.137 -2.966,-0.787 -4.472,-0.015 -0.203,0.118 -0.416,0.262 -0.576,0.426 1.643,-0.198 3.192,0.231 3.192,0.231 -1.359,0.257 -1.178,0.331 -2.63,0.829 0.72,0.418 1.549,0.47 2.281,0.433 0.39,-0.034 1.038,0.042 1.381,0.154 l -0.001,0.022 c -0.699,0.218 -1.397,0.439 -2.203,0.403 0.302,0.167 1.164,0.27 1.528,0.345 1.371,0.341 2.049,-0.638 3.347,-0.209 -0.146,-0.402 -0.5,-0.668 -0.402,-1.237 0.733,0.725 1.71,1.109 2.471,1.807 0.682,0.554 1.278,1.228 1.748,1.894 0.364,0.6 0.539,1.271 0.436,1.997 C -0.581,1.342 -0.204,0.342 0,0"
         style="fill:#ffdd00;fill-opacity:1;fill-rule:nonzero;stroke:none"
         id="path38"
         inkscape:connector-curvature="0" /></g><g
       id="g40"
       transform="matrix(3.2352426,0,0,3.2352426,341.50763,562.85414)"><path
         d="m 0,0 c 0.907,-1.522 1.671,-2.563 1.671,-2.563 -0.4,-1.403 -2.673,-2.127 -2.867,-2.526 -0.172,-0.507 -0.711,-0.925 -1.231,-1.242 0.135,0.789 -0.012,1.444 -0.012,1.444 -0.329,-1.428 -2.652,-2.532 -4.002,-2.519 1.17,0.442 1.779,1.826 1.779,1.826 -0.863,-1.087 -3.14,-1.206 -3.811,-1.07 0.288,0.008 1.032,0.353 1.712,0.797 0.168,0.137 -2.966,-0.787 -4.472,-0.015 -0.203,0.118 -0.416,0.262 -0.576,0.426 1.643,-0.198 3.192,0.231 3.192,0.231 -1.359,0.257 -1.178,0.331 -2.63,0.829 0.72,0.418 1.549,0.47 2.281,0.433 0.39,-0.034 1.038,0.042 1.381,0.154 l -0.001,0.022 c -0.699,0.218 -1.397,0.439 -2.203,0.403 0.302,0.167 1.164,0.27 1.528,0.345 1.371,0.341 2.049,-0.638 3.347,-0.209 -0.146,-0.402 -0.5,-0.668 -0.402,-1.237 0.733,0.725 1.71,1.109 2.471,1.807 0.682,0.554 1.278,1.228 1.748,1.894 0.364,0.6 0.539,1.271 0.436,1.997 C -0.581,1.342 -0.204,0.342 0,0 z"
         style="fill:none;stroke:#ffdd00;stroke-width:0.037;stroke-linecap:butt;stroke-linejoin:miter;stroke-miterlimit:3.86400008;stroke-opacity:1;stroke-dasharray:none"
         id="path42"
         inkscape:connector-curvature="0" /></g><g
       id="g44"
       transform="matrix(3.2352426,0,0,3.2352426,332.20307,561.66033)"><path
         d="m 0,0 c 0.151,-0.114 0.199,-0.269 0.293,-0.405 l -0.02,-0.09 c -0.317,-0.172 -0.726,-0.419 -1.115,-0.218 -0.085,0.072 -0.174,0.074 -0.241,0.165 0.045,0.181 0.182,0.345 0.344,0.48 0.145,0.1 0.297,0.188 0.474,0.232 C -0.138,0.176 -0.091,0.042 0,0"
         style="fill:#ffdd00;fill-opacity:1;fill-rule:nonzero;stroke:none"
         id="path46"
         inkscape:connector-curvature="0" /></g><g
       id="g48"
       transform="matrix(3.2352426,0,0,3.2352426,332.20307,561.66033)"><path
         d="m 0,0 c 0.151,-0.114 0.199,-0.269 0.293,-0.405 l -0.02,-0.09 c -0.317,-0.172 -0.726,-0.419 -1.115,-0.218 -0.085,0.072 -0.174,0.074 -0.241,0.165 0.045,0.181 0.182,0.345 0.344,0.48 0.145,0.1 0.297,0.188 0.474,0.232 C -0.138,0.176 -0.091,0.042 0,0 z"
         style="fill:none;stroke:#ffdd00;stroke-width:0.037;stroke-linecap:butt;stroke-linejoin:miter;stroke-miterlimit:3.86400008;stroke-opacity:1;stroke-dasharray:none"
         id="path50"
         inkscape:connector-curvature="0" /></g><g
       id="g52"
       transform="matrix(3.2352426,0,0,3.2352426,304.96557,556.581)"><path
         d="m 0,0 0.001,-0.022 c -0.327,-0.049 -0.628,-0.16 -0.864,-0.35 0.839,-0.054 1.459,-0.34 2.184,-0.67 -0.077,-0.067 -1.277,-0.701 -1.499,-0.767 -0.657,0.535 -1.235,1.101 -1.776,1.683 0.297,0.152 0.617,0.432 0.715,0.729 0.056,0.188 0.115,0.389 0.054,0.599 C -0.802,0.795 -0.479,0.355 0,0"
         style="fill:#ffdd00;fill-opacity:1;fill-rule:nonzero;stroke:none"
         id="path54"
         inkscape:connector-curvature="0" /></g><g
       id="g56"
       transform="matrix(3.2352426,0,0,3.2352426,304.96557,556.581)"><path
         d="m 0,0 0.001,-0.022 c -0.327,-0.049 -0.628,-0.16 -0.864,-0.35 0.839,-0.054 1.459,-0.34 2.184,-0.67 -0.077,-0.067 -1.277,-0.701 -1.499,-0.767 -0.657,0.535 -1.235,1.101 -1.776,1.683 0.297,0.152 0.617,0.432 0.715,0.729 0.056,0.188 0.115,0.389 0.054,0.599 C -0.802,0.795 -0.479,0.355 0,0 z"
         style="fill:none;stroke:#ffdd00;stroke-width:0.037;stroke-linecap:butt;stroke-linejoin:miter;stroke-miterlimit:3.86400008;stroke-opacity:1;stroke-dasharray:none"
         id="path58"
         inkscape:connector-curvature="0" /></g><g
       id="g60"
       transform="matrix(3.2352426,0,0,3.2352426,358.22737,547.50291)"><path
         d="m 0,0 -1.161,-2.11 c -0.151,-0.433 -0.302,-0.92 -0.162,-1.388 0.053,-0.318 -1.794,-0.602 -1.661,-0.888 -0.748,0.602 -1.613,1.279 -1.402,2.274 0.094,1.241 3.912,2.951 4.192,4.134 0.112,0.38 0.154,0.59 0.205,0.893 C 0.471,2.048 0.39,0.866 0,0"
         style="fill:#ffdd00;fill-opacity:1;fill-rule:nonzero;stroke:none"
         id="path62"
         inkscape:connector-curvature="0" /></g><g
       id="g64"
       transform="matrix(3.2352426,0,0,3.2352426,358.22737,547.50291)"><path
         d="m 0,0 -1.161,-2.11 c -0.151,-0.433 -0.302,-0.92 -0.162,-1.388 0.053,-0.318 -1.794,-0.602 -1.661,-0.888 -0.748,0.602 -1.613,1.279 -1.402,2.274 0.094,1.241 3.912,2.951 4.192,4.134 0.112,0.38 0.154,0.59 0.205,0.893 C 0.471,2.048 0.39,0.866 0,0 z"
         style="fill:none;stroke:#ffdd00;stroke-width:0.037;stroke-linecap:butt;stroke-linejoin:miter;stroke-miterlimit:3.86400008;stroke-opacity:1;stroke-dasharray:none"
         id="path66"
         inkscape:connector-curvature="0" /></g><g
       id="g68"
       transform="matrix(3.2352426,0,0,3.2352426,337.82916,533.31637)"><path
         d="M 0,0 C -0.385,-0.043 -0.742,-0.388 -0.742,-0.388 0.033,-0.482 1.021,-1.199 1.603,-1.682 1.252,-1.762 0.982,-2.153 0.982,-2.153 1.956,-2.212 4.633,-4.638 5.162,-5.032 5.5,-5.325 5.634,-6.833 5.516,-7.227 5.351,-7.752 4.739,-8.093 4.133,-8.132 l -0.204,-0.01 c 0.149,0.189 0.271,0.399 0.18,0.649 -0.263,0.7 -1.2,2.02 -1.941,2.142 -0.693,0.143 -1.419,0.22 -2.043,0.532 -1.384,0.892 -1.05,2.201 -1.944,3.758 -0.688,1.195 -2.47,1.986 -4.006,2.496 1.277,-0.144 2.762,-0.159 3.802,0.512 C -1.939,1.984 -0.539,0.973 0,0"
         style="fill:#ffdd00;fill-opacity:1;fill-rule:nonzero;stroke:none"
         id="path70"
         inkscape:connector-curvature="0" /></g><g
       id="g72"
       transform="matrix(3.2352426,0,0,3.2352426,337.82916,533.31637)"><path
         d="M 0,0 C -0.385,-0.043 -0.742,-0.388 -0.742,-0.388 0.033,-0.482 1.021,-1.199 1.603,-1.682 1.252,-1.762 0.982,-2.153 0.982,-2.153 1.956,-2.212 4.633,-4.638 5.162,-5.032 5.5,-5.325 5.634,-6.833 5.516,-7.227 5.351,-7.752 4.739,-8.093 4.133,-8.132 l -0.204,-0.01 c 0.149,0.189 0.271,0.399 0.18,0.649 -0.263,0.7 -1.2,2.02 -1.941,2.142 -0.693,0.143 -1.419,0.22 -2.043,0.532 -1.384,0.892 -1.05,2.201 -1.944,3.758 -0.688,1.195 -2.47,1.986 -4.006,2.496 1.277,-0.144 2.762,-0.159 3.802,0.512 C -1.939,1.984 -0.539,0.973 0,0 z"
         style="fill:none;stroke:#ffdd00;stroke-width:0.037;stroke-linecap:butt;stroke-linejoin:miter;stroke-miterlimit:3.86400008;stroke-opacity:1;stroke-dasharray:none"
         id="path74"
         inkscape:connector-curvature="0" /></g><g
       id="g76"
       transform="matrix(3.2352426,0,0,3.2352426,332.4716,523.45212)"><path
         d="m 0,0 c 0.024,-0.246 -2.342,-1.833 -2.815,-2.518 -0.14,0.277 -0.369,0.562 -0.672,0.762 l -0.024,-0.023 c -0.124,-0.676 -0.564,-2.118 -2.385,-3.525 -0.395,-0.088 -0.847,-0.018 -1.245,0.04 l -0.364,0.082 c 0.309,0.155 0.621,0.455 0.778,0.744 0.662,0.959 -0.193,2.387 0.877,3.21 0.313,0.228 0.652,0.415 1.005,0.578 l 2.321,1.083 c 1.883,0.941 1.673,1.426 1.727,1.594 C -0.29,1.453 -0.11,0.727 0,0"
         style="fill:#ffdd00;fill-opacity:1;fill-rule:nonzero;stroke:none"
         id="path78"
         inkscape:connector-curvature="0" /></g><g
       id="g80"
       transform="matrix(3.2352426,0,0,3.2352426,332.4716,523.45212)"><path
         d="m 0,0 c 0.024,-0.246 -2.342,-1.833 -2.815,-2.518 -0.14,0.277 -0.369,0.562 -0.672,0.762 l -0.024,-0.023 c -0.124,-0.676 -0.564,-2.118 -2.385,-3.525 -0.395,-0.088 -0.847,-0.018 -1.245,0.04 l -0.364,0.082 c 0.309,0.155 0.621,0.455 0.778,0.744 0.662,0.959 -0.193,2.387 0.877,3.21 0.313,0.228 0.652,0.415 1.005,0.578 l 2.321,1.083 c 1.883,0.941 1.673,1.426 1.727,1.594 C -0.29,1.453 -0.11,0.727 0,0 z"
         style="fill:none;stroke:#ffdd00;stroke-width:0.037;stroke-linecap:butt;stroke-linejoin:miter;stroke-miterlimit:3.86400008;stroke-opacity:1;stroke-dasharray:none"
         id="path82"
         inkscape:connector-curvature="0" /></g><g
       id="g84"
       transform="matrix(3.2352426,0,0,3.2352426,407.50658,538.14336)"><path
         d="m 0,0 -19.831,19.823 -34.525,0 -19.827,-19.854 0.018,-34.476 19.834,-19.832 34.517,0 19.807,19.85 L 0,0 z m -1.408,-0.537 -0.006,-33.417 -19.074,-19.076 -33.419,10e-4 -19.073,19.075 -0.003,33.418 19.078,19.075 33.416,0"
         style="fill:#ffdd00;fill-opacity:1;fill-rule:nonzero;stroke:none"
         id="path86"
         inkscape:connector-curvature="0" /></g><g
       id="g88"
       transform="matrix(3.2352426,0,0,3.2352426,176.02497,497.75782)"><path
         d="M 0,0 68.433,0"
         style="fill:none;stroke:#004685;stroke-width:0.95899999;stroke-linecap:butt;stroke-linejoin:miter;stroke-miterlimit:3.86400008;stroke-opacity:1;stroke-dasharray:none"
         id="path90"
         inkscape:connector-curvature="0" /></g><g
       id="g92"
       transform="matrix(3.2352426,0,0,3.2352426,203.78983,427.70835)"><path
         d="m 0,0 1.978,0 -0.159,-0.559 -1.203,0 -0.206,-0.648 1.161,0 -0.163,-0.559 -1.143,0 -0.355,-1.19 -0.795,0"
         style="fill:#004685;fill-opacity:1;fill-rule:nonzero;stroke:none"
         id="path94"
         inkscape:connector-curvature="0" /></g><g
       id="g96"
       transform="matrix(3.2352426,0,0,3.2352426,218.77223,423.25666)"><path
         d="m 0,0 c -0.277,-0.94 -0.566,-1.63 -1.642,-1.63 -0.664,0 -1.165,0.237 -1.104,0.931 0.019,0.233 0.07,0.424 0.112,0.56 l 0.468,1.515 0.8,0 -0.503,-1.672 c -0.042,-0.14 -0.077,-0.254 -0.082,-0.323 -0.022,-0.241 0.102,-0.427 0.381,-0.427 0.508,0 0.642,0.61 0.786,1.084 l 0.408,1.338 0.783,0"
         style="fill:#004685;fill-opacity:1;fill-rule:nonzero;stroke:none"
         id="path98"
         inkscape:connector-curvature="0" /></g><g
       id="g100"
       transform="matrix(3.2352426,0,0,3.2352426,227.60121,425.54397)"><path
         d="m 0,0 c -0.146,0.072 -0.348,0.136 -0.64,0.136 -0.314,0 -0.572,-0.048 -0.593,-0.284 -0.036,-0.419 1.125,-0.262 1.047,-1.161 -0.072,-0.817 -0.849,-1.028 -1.535,-1.028 -0.305,0 -0.65,0.072 -0.901,0.152 l 0.24,0.601 c 0.147,-0.102 0.455,-0.169 0.712,-0.169 0.247,0 0.636,0.046 0.663,0.352 0.041,0.473 -1.122,0.296 -1.049,1.131 0.065,0.762 0.755,0.991 1.404,0.991 0.363,0 0.703,-0.039 0.894,-0.132"
         style="fill:#004685;fill-opacity:1;fill-rule:nonzero;stroke:none"
         id="path102"
         inkscape:connector-curvature="0" /></g><g
       id="g104"
       transform="matrix(3.2352426,0,0,3.2352426,236.2749,425.54397)"><path
         d="m 0,0 c -0.146,0.072 -0.349,0.136 -0.64,0.136 -0.314,0 -0.572,-0.048 -0.593,-0.284 -0.037,-0.419 1.125,-0.262 1.047,-1.161 -0.072,-0.817 -0.849,-1.028 -1.534,-1.028 -0.306,0 -0.651,0.072 -0.903,0.152 l 0.241,0.601 c 0.147,-0.102 0.453,-0.169 0.713,-0.169 0.246,0 0.634,0.046 0.661,0.352 0.042,0.473 -1.121,0.296 -1.049,1.131 0.068,0.762 0.757,0.991 1.405,0.991 0.364,0 0.703,-0.039 0.893,-0.132"
         style="fill:#004685;fill-opacity:1;fill-rule:nonzero;stroke:none"
         id="path106"
         inkscape:connector-curvature="0" /></g><g
       id="g108"
       transform="matrix(3.2352426,0,0,3.2352426,239.35161,427.70835)"><path
         d="M 0,0 1.312,0 C 1.618,0 2.137,-0.118 2.088,-0.677 2.053,-1.075 1.718,-1.372 1.247,-1.427 L 1.246,-1.436 C 1.581,-1.486 1.797,-1.682 1.769,-2.007 1.713,-2.633 1.149,-2.931 0.472,-2.939 L -0.877,-2.956 0,0 z m 0.069,-2.397 0.213,0 c 0.397,0 0.674,0.11 0.7,0.399 0.022,0.258 -0.162,0.296 -0.518,0.296 l -0.19,0 -0.205,-0.695 z m 0.366,1.228 0.296,0 c 0.331,0 0.538,0.132 0.555,0.334 0.021,0.238 -0.17,0.276 -0.467,0.276 l -0.203,0"
         style="fill:#004685;fill-opacity:1;fill-rule:nonzero;stroke:none"
         id="path110"
         inkscape:connector-curvature="0" /></g><g
       id="g112"
       transform="matrix(3.2352426,0,0,3.2352426,251.71024,427.70835)"><path
         d="m 0,0 0.99,0 0.225,-2.956 -0.796,0 -0.026,0.631 -1.147,0 -0.408,-0.631 -0.855,0 L 0,0 z m 0.34,-0.61 -0.008,0 -0.728,-1.156 0.762,0"
         style="fill:#004685;fill-opacity:1;fill-rule:nonzero;stroke:none"
         id="path114"
         inkscape:connector-curvature="0" /></g><g
       id="g116"
       transform="matrix(3.2352426,0,0,3.2352426,259.74011,427.70835)"><path
         d="m 0,0 0.8,0 -0.699,-2.372 1.236,0 -0.173,-0.584 -2.037,0"
         style="fill:#004685;fill-opacity:1;fill-rule:nonzero;stroke:none"
         id="path118"
         inkscape:connector-curvature="0" /></g><g
       id="g120"
       transform="matrix(3.2352426,0,0,3.2352426,267.65351,427.70835)"><path
         d="m 0,0 0.801,0 -0.699,-2.372 1.237,0 -0.174,-0.584 -2.037,0"
         style="fill:#004685;fill-opacity:1;fill-rule:nonzero;stroke:none"
         id="path122"
         inkscape:connector-curvature="0" /></g><g
       id="g124"
       transform="matrix(3.2352426,0,0,3.2352426,287.17173,425.40486)"><path
         d="m 0,0 c -0.238,0.145 -0.472,0.179 -0.722,0.179 -0.791,0 -1.158,-0.559 -1.207,-1.118 -0.046,-0.526 0.267,-0.771 0.742,-0.771 0.283,0 0.547,0.059 0.764,0.165 l -0.14,-0.635 c -0.196,-0.064 -0.531,-0.115 -0.799,-0.115 -0.953,0 -1.45,0.563 -1.378,1.376 0.086,0.982 0.837,1.682 1.947,1.682 0.568,0 0.876,-0.098 1.033,-0.157"
         style="fill:#004685;fill-opacity:1;fill-rule:nonzero;stroke:none"
         id="path126"
         inkscape:connector-curvature="0" /></g><g
       id="g128"
       transform="matrix(3.2352426,0,0,3.2352426,289.50434,427.70835)"><path
         d="m 0,0 0.801,0 -0.699,-2.372 1.237,0 -0.175,-0.584 -2.036,0"
         style="fill:#004685;fill-opacity:1;fill-rule:nonzero;stroke:none"
         id="path130"
         inkscape:connector-curvature="0" /></g><g
       id="g132"
       transform="matrix(3.2352426,0,0,3.2352426,304.39293,423.25666)"><path
         d="m 0,0 c -0.277,-0.94 -0.566,-1.63 -1.642,-1.63 -0.664,0 -1.164,0.237 -1.104,0.931 0.021,0.233 0.071,0.424 0.113,0.56 l 0.467,1.515 0.8,0 -0.502,-1.672 c -0.042,-0.14 -0.077,-0.254 -0.083,-0.323 -0.021,-0.241 0.102,-0.427 0.382,-0.427 0.508,0 0.641,0.61 0.785,1.084 l 0.41,1.338 0.783,0"
         style="fill:#004685;fill-opacity:1;fill-rule:nonzero;stroke:none"
         id="path134"
         inkscape:connector-curvature="0" /></g><g
       id="g136"
       transform="matrix(3.2352426,0,0,3.2352426,307.63141,427.70835)"><path
         d="M 0,0 1.314,0 C 1.618,0 2.137,-0.118 2.088,-0.677 2.053,-1.075 1.719,-1.372 1.247,-1.427 L 1.246,-1.436 C 1.582,-1.486 1.797,-1.682 1.768,-2.007 1.714,-2.633 1.149,-2.931 0.471,-2.939 L -0.877,-2.956 0,0 z m 0.071,-2.397 0.211,0 c 0.398,0 0.674,0.11 0.7,0.399 0.022,0.258 -0.161,0.296 -0.516,0.296 l -0.191,0 -0.204,-0.695 z m 0.365,1.228 0.296,0 c 0.33,0 0.537,0.132 0.554,0.334 0.022,0.238 -0.171,0.276 -0.467,0.276 l -0.203,0"
         style="fill:#004685;fill-opacity:1;fill-rule:nonzero;stroke:none"
         id="path138"
         inkscape:connector-curvature="0" /></g><g
       id="g140"
       transform="matrix(3.2352426,0,0,3.2352426,321.55266,427.70835)"><path
         d="m 0,0 0.8,0 -0.699,-2.372 1.237,0 -0.174,-0.584 -2.037,0"
         style="fill:#004685;fill-opacity:1;fill-rule:nonzero;stroke:none"
         id="path142"
         inkscape:connector-curvature="0" /></g><g
       id="g144"
       transform="matrix(3.2352426,0,0,3.2352426,336.43477,423.25666)"><path
         d="m 0,0 c -0.277,-0.94 -0.566,-1.63 -1.642,-1.63 -0.665,0 -1.165,0.237 -1.103,0.931 0.02,0.233 0.07,0.424 0.112,0.56 l 0.467,1.515 0.801,0 -0.503,-1.672 c -0.042,-0.14 -0.078,-0.254 -0.083,-0.323 -0.021,-0.241 0.102,-0.427 0.382,-0.427 0.507,0 0.642,0.61 0.785,1.084 l 0.409,1.338 0.784,0"
         style="fill:#004685;fill-opacity:1;fill-rule:nonzero;stroke:none"
         id="path146"
         inkscape:connector-curvature="0" /></g><g
       id="g148"
       transform="matrix(3.2352426,0,0,3.2352426,339.34972,427.70835)"><path
         d="m 0,0 2.277,0 -0.186,-0.627 -1.859,-1.745 1.352,0 -0.163,-0.584 -2.337,0 0.19,0.626 1.831,1.746 -1.276,0"
         style="fill:#004685;fill-opacity:1;fill-rule:nonzero;stroke:none"
         id="path150"
         inkscape:connector-curvature="0" /></g><g
       id="g152"
       transform="matrix(3.2352426,0,0,3.2352426,348.3987,427.70835)"><path
         d="m 0,0 2.08,0 -0.163,-0.559 -1.3,0 -0.189,-0.61 1.232,0 -0.172,-0.559 -1.228,0 -0.202,-0.669 1.35,0 -0.162,-0.559 -2.139,0"
         style="fill:#004685;fill-opacity:1;fill-rule:nonzero;stroke:none"
         id="path154"
         inkscape:connector-curvature="0" /></g><g
       id="g156"
       transform="matrix(3.2352426,0,0,3.2352426,357.03033,427.70835)"><path
         d="M 0,0 0.945,0 C 1.508,-0.004 2.184,-0.021 2.119,-0.754 2.073,-1.275 1.651,-1.457 1.194,-1.512 L 1.193,-1.52 c 0.23,-0.021 0.28,-0.335 0.306,-0.526 l 0.131,-0.91 -0.787,0 -0.085,0.753 c -0.044,0.386 -0.067,0.416 -0.423,0.416 l -0.085,0 -0.339,-1.169 -0.792,0 L 0,0 z m 0.414,-1.229 0.266,0 c 0.345,0 0.618,0.086 0.642,0.366 0.019,0.211 -0.101,0.3 -0.337,0.304 l -0.376,0"
         style="fill:#004685;fill-opacity:1;fill-rule:nonzero;stroke:none"
         id="path158"
         inkscape:connector-curvature="0" /></g><g
       id="g160"
       transform="matrix(3.2352426,0,0,3.2352426,366.47076,427.70835)"><path
         d="m 0,0 0.986,0 0.427,-2.049 0.008,0 L 2.016,0 2.761,0 1.876,-2.956 l -0.983,0 -0.439,2.046 -0.009,0 -0.588,-2.046 -0.747,0"
         style="fill:#004685;fill-opacity:1;fill-rule:nonzero;stroke:none"
         id="path162"
         inkscape:connector-curvature="0" /></g><g
       id="g164"
       transform="matrix(3.2352426,0,0,3.2352426,347.99106,448.8086)"><path
         d="m 0,0 3.196,11.227 -1.071,0 L -1.071,0 0,0 z m -6.705,-4.021 -0.195,-0.682 15.664,0 1.125,4.021 -1.068,0 -0.933,-3.339"
         style="fill:#ffdd00;fill-opacity:1;fill-rule:nonzero;stroke:none"
         id="path166"
         inkscape:connector-curvature="0" /></g><g
       id="g168"
       transform="matrix(3.2352426,0,0,3.2352426,210.55795,435.6994)"><path
         d="m 0,0 -0.189,-0.682 5.581,0 1.614,5.783 7.783,0 1.024,3.686 -1.066,0 -0.835,-3.003 -7.783,0 L 4.515,0 0,0 z m 8.766,11.248 8.256,0 1.044,4 -1.055,0 -0.866,-3.318 -8.256,0 -0.736,-2.461 1.081,0"
         style="fill:#ffdd00;fill-opacity:1;fill-rule:nonzero;stroke:none"
         id="path170"
         inkscape:connector-curvature="0" /></g><g
       id="g172"
       transform="matrix(3.2352426,0,0,3.2352426,327.80638,485.00126)"><path
         d="m 0,0 c -0.015,0.004 -0.432,0.006 -1.055,0.005 l -0.906,-3.433 c -0.054,0.022 -3.746,0.099 -5.187,-0.059 -2.527,-0.276 -4.88,-1.574 -5.581,-3.952 -0.488,-1.653 -0.094,-2.834 1.106,-3.384 -0.481,0.64 -0.567,1.557 -0.229,2.701 0.702,2.379 3.054,3.677 5.58,3.954 1.441,0.157 5.134,0.079 5.187,0.059 L 0,0 z m -16.2,-14.336 c 1.036,-1.014 2.598,-1.68 4.851,-1.68 2.049,0 6.987,-0.001 7.019,0.044 l 1.104,4.163 c 0.006,0.011 -0.425,0.01 -1.057,0.004 l -0.923,-3.485 c -0.032,-0.045 -4.97,-0.044 -7.02,-0.044 -1.693,0 -2.989,0.382 -3.974,0.998"
         style="fill:#ffdd00;fill-opacity:1;fill-rule:nonzero;stroke:none"
         id="path174"
         inkscape:connector-curvature="0" /></g><g
       id="g176"
       transform="matrix(3.2352426,0,0,3.2352426,321.07707,437.3882)"><path
         d="m 0,0 15.663,0 1.126,4.021 -10.083,0 3.389,11.909 -5.535,0"
         style="fill:#004685;fill-opacity:1;fill-rule:nonzero;stroke:none"
         id="path178"
         inkscape:connector-curvature="0" /></g><g
       id="g180"
       transform="matrix(3.2352426,0,0,3.2352426,205.35568,437.2879)"><path
         d="m 0,0 5.58,0 1.614,5.784 7.784,0 1.024,3.685 -7.784,0 0.736,2.462 8.256,0 1.045,3.999 -13.837,0"
         style="fill:#004685;fill-opacity:1;fill-rule:nonzero;stroke:none"
         id="path182"
         inkscape:connector-curvature="0" /></g><g
       id="g184"
       transform="matrix(3.2352426,0,0,3.2352426,312.77221,450.59446)"><path
         d="m 0,0 c 0.019,0.033 -4.133,-0.045 -5.637,-0.045 -2.616,0 -3.676,1.399 -2.988,3.732 0.701,2.379 3.054,3.676 5.581,3.952 1.441,0.158 5.133,0.081 5.187,0.059 l 1.084,4.111 c -0.049,0.014 -4.405,-0.007 -6.367,-0.007 -5.45,0 -9.819,-2.86 -11.16,-7.412 -1.052,-3.567 -0.035,-8.598 6.178,-8.598 2.05,0 6.987,0 7.019,0.045"
         style="fill:#004685;fill-opacity:1;fill-rule:nonzero;stroke:none"
         id="path186"
         inkscape:connector-curvature="0" /></g><g
       id="g188"
       transform="matrix(3.2352426,0,0,3.2352426,399.90376,429.85655)"><path
         d="m 0,0 0,32.475 -18.473,18.464 -32.475,0 -18.463,-18.464 0,-32.475 18.463,-18.467 32.475,0 L 0,0 z m -34.805,-6.524 25.824,0 -10.319,-10.32 -15.505,0 0,10.32 z m -33.085,27.01 66.166,0 -0.004,-19.756 -6.287,-6.287 -53.586,0 -6.286,6.288 -0.003,19.755 z m 49.683,9.342 c 0.974,-0.058 3.651,-2.484 4.18,-2.879 0.338,-0.293 0.472,-1.8 0.354,-2.195 -0.165,-0.524 -0.777,-0.865 -1.383,-0.905 l -0.204,-0.01 c 0.149,0.19 0.271,0.4 0.18,0.649 -0.263,0.7 -1.2,2.02 -1.941,2.142 -0.693,0.144 -1.419,0.22 -2.043,0.532 -1.384,0.892 -1.05,2.202 -1.944,3.758 -0.688,1.196 -2.47,1.986 -4.006,2.496 1.277,-0.143 2.762,-0.159 3.802,0.512 0.084,0.037 1.484,-0.974 2.023,-1.946 -0.385,-0.044 -0.742,-0.389 -0.742,-0.389 0.775,-0.093 1.763,-0.81 2.345,-1.293 -0.351,-0.081 -0.621,-0.472 -0.621,-0.472 m -0.506,12.511 c 0.079,0.114 0.457,-0.885 0.661,-1.228 0.906,-1.521 1.671,-2.562 1.671,-2.562 -0.4,-1.403 -2.673,-2.127 -2.867,-2.526 -0.172,-0.508 -0.712,-0.926 -1.232,-1.243 0.135,0.789 -0.011,1.444 -0.011,1.444 -0.33,-1.428 -2.652,-2.532 -4.002,-2.518 1.17,0.442 1.779,1.826 1.779,1.826 -0.863,-1.087 -3.14,-1.207 -3.811,-1.071 0.288,0.009 1.032,0.353 1.712,0.797 0.168,0.138 -2.966,-0.787 -4.473,-0.014 -0.202,0.117 -0.415,0.262 -0.575,0.425 1.643,-0.198 3.191,0.231 3.191,0.231 -1.358,0.257 -1.177,0.332 -2.629,0.83 0.72,0.418 1.548,0.469 2.281,0.433 0.39,-0.034 1.037,0.041 1.381,0.154 l -0.002,0.022 c -0.698,0.218 -1.397,0.438 -2.202,0.403 0.301,0.166 1.163,0.27 1.527,0.345 1.371,0.34 2.049,-0.638 3.348,-0.209 -0.146,-0.402 -0.5,-0.669 -0.403,-1.237 0.734,0.725 1.711,1.109 2.471,1.806 0.683,0.555 1.279,1.229 1.749,1.894 0.363,0.6 0.539,1.271 0.436,1.998 m -4.126,-0.682 c -0.083,0.1 -0.116,0.226 -0.211,0.321 -0.017,0.052 0.013,0.092 0.03,0.134 0.132,0.094 0.318,0.098 0.465,0.165 0.812,0.417 1.607,0.869 2.655,0.856 0.282,0.112 0.415,0.522 0.879,0.463 0.336,-0.353 -0.311,-0.539 -0.219,-0.807 0.287,-0.754 0.16,-1.652 -0.405,-2.284 -0.11,-0.095 -0.234,-0.168 -0.387,-0.183 -0.246,0.046 -0.229,0.298 -0.346,0.447 -0.091,0.233 -0.402,0.464 -0.682,0.497 -0.424,0.049 -0.729,-0.208 -0.959,-0.498 -0.116,-0.096 -0.294,-0.116 -0.456,-0.098 -0.154,0.022 -0.234,0.175 -0.311,0.283 -0.137,0.216 -0.062,0.463 -0.053,0.704 m 1.171,-0.983 c 0.145,0.101 0.298,0.189 0.475,0.233 0.126,0.011 0.173,-0.122 0.265,-0.164 0.151,-0.115 0.199,-0.27 0.293,-0.406 l -0.021,-0.09 c -0.317,-0.171 -0.726,-0.418 -1.114,-0.218 -0.085,0.073 -0.174,0.074 -0.242,0.165 0.045,0.182 0.182,0.346 0.344,0.48 M -30.209,38.8 c 0.839,-0.054 1.459,-0.339 2.183,-0.67 -0.077,-0.067 -1.277,-0.701 -1.499,-0.767 -0.657,0.535 -1.235,1.101 -1.775,1.683 0.296,0.152 0.616,0.432 0.714,0.729 0.056,0.189 0.115,0.389 0.054,0.599 0.383,-0.407 0.706,-0.847 1.185,-1.202 l 0.002,-0.022 c -0.328,-0.049 -0.629,-0.16 -0.864,-0.35 m -3.455,-4.69 c 0.015,-0.037 0.461,-0.319 0.555,-0.273 0.357,0.381 0.961,0.417 1.592,0.365 0.289,-0.232 0.557,-0.489 0.8,-0.771 -0.16,-0.066 -0.352,-0.1 -0.587,-0.1 -0.287,0 -0.593,0.048 -0.862,0.091 -0.086,0.014 -0.169,0.026 -0.247,0.038 l -0.134,0.018 c -0.758,0.274 -1.603,0.568 -2.319,0.809 l -0.074,0.077 c -0.025,0.026 -0.058,0.058 -0.096,0.095 -0.189,0.185 -0.633,0.619 -0.506,0.792 l 0.012,0.027 c 0.133,0.037 0.374,0.093 0.564,0.138 0.132,0.03 0.237,0.055 0.329,0.077 0.469,-0.051 0.92,-0.162 1.352,-0.315 -0.095,-0.109 -0.19,-0.228 -0.286,-0.372 -0.075,-0.145 -0.135,-0.543 -0.093,-0.696 m -4.8,-4.526 c -0.26,-0.674 -0.694,-1.317 -1.093,-1.876 -0.391,0.096 -1.079,0.455 -1.546,0.766 -0.179,0.812 -0.209,1.928 -0.03,2.65 l 0.014,0.096 c 0.18,0.595 0.451,1.166 0.815,1.693 l 0.097,0.012 c 0.121,0.017 0.287,0.026 0.453,0.026 0.455,0 0.951,-0.068 1.233,-0.241 -0.012,-0.895 0.026,-2.347 0.057,-3.126 m 1.149,-5.849 c 0,0.126 0.018,0.386 0.056,0.792 0.029,-0.001 0.052,-0.007 0.083,-0.007 0.496,0 1.179,0.185 1.781,0.349 0.21,0.057 0.411,0.111 0.589,0.153 0.414,-0.116 1.239,-0.385 1.772,-0.587 -0.12,-0.301 -0.432,-0.629 -0.662,-0.819 -0.185,-0.051 -0.372,-0.094 -0.564,-0.128 -0.35,-0.062 -0.707,-0.093 -1.06,-0.093 -0.697,0 -1.368,0.122 -1.995,0.34 m -4.528,4.58 c 0.228,-1.295 0.823,-2.44 1.661,-3.349 -0.838,0.909 -1.433,2.054 -1.661,3.349 -0.153,0.872 -0.133,1.748 0.054,2.587 0.186,0.839 0.538,1.642 1.046,2.367 0.1,0.144 0.207,0.281 0.319,0.413 -0.112,-0.132 -0.219,-0.269 -0.319,-0.413 -0.508,-0.725 -0.86,-1.528 -1.046,-2.367 -0.187,-0.839 -0.207,-1.715 -0.054,-2.587 m 3.472,-2.77 c 0.193,-0.248 0.385,-0.498 0.574,-0.751 l -0.002,-0.017 c -0.037,-0.367 -0.059,-0.629 -0.071,-0.819 -1.443,0.669 -2.587,1.893 -3.144,3.429 -0.025,0.134 -0.039,0.267 -0.037,0.394 0.433,-0.26 1.056,-0.588 1.524,-0.652 0.359,-0.554 0.762,-1.077 1.156,-1.584 m -0.862,-1.429 c -0.19,0.14 -0.372,0.291 -0.546,0.45 0.174,-0.159 0.356,-0.31 0.546,-0.45 m 1.308,-0.745 c -0.166,0.071 -0.328,0.149 -0.487,0.233 0.159,-0.084 0.321,-0.162 0.487,-0.233 m -0.033,9.353 c 0.564,0.74 1.311,1.129 2.021,1.326 0.931,-0.299 2.581,-0.869 3.776,-1.31 0.28,-0.63 0.386,-1.359 0.463,-2.13 -0.875,-0.461 -2.058,-1.285 -2.861,-1.867 -1.205,0.013 -2.433,0.514 -3.36,1.362 -0.027,0.815 -0.049,1.916 -0.039,2.619 m 8.065,-4.195 c -0.311,-1.008 -0.772,-2.106 -1.081,-2.744 -0.444,-0.425 -1.132,-0.682 -1.767,-0.861 -0.479,0.186 -1.24,0.439 -1.722,0.584 -0.219,0.827 -0.161,1.804 0.163,2.729 0.691,0.502 1.948,1.389 2.838,1.863 0.196,-0.241 0.449,-0.465 0.717,-0.698 0.315,-0.274 0.632,-0.558 0.852,-0.873 m -0.665,5.558 c 0.104,-0.013 0.207,-0.027 0.304,-0.037 0,0 3.077,-0.577 3.591,-0.713 1.326,-0.323 2.485,-0.781 3.674,-1.404 0.345,-0.196 0.686,-0.456 0.728,-0.837 -0.055,-0.536 -0.505,-0.927 -1.013,-1.164 l -1.548,-0.714 -1.958,-0.932 c -0.366,-0.214 -0.764,-0.578 -0.907,-0.927 l 0.013,-0.01 c -0.146,-0.297 -0.118,-0.676 -0.145,-1.023 -0.024,-0.647 0.112,-1.338 -0.42,-1.83 -0.354,-0.417 -1.243,-0.681 -1.605,-0.743 -1.683,-0.273 -2.216,-0.466 -2.744,-0.98 -0.121,-0.101 -0.665,-0.766 0.048,-1.321 l -2.265,0 0,1.403 c 0.215,0.017 0.43,0.042 0.643,0.08 1.745,0.307 3.265,1.275 4.281,2.725 1.016,1.451 1.407,3.21 1.1,4.955 -0.239,1.353 -0.877,2.546 -1.777,3.472 m 3.863,-6.383 c 0.313,0.228 0.652,0.415 1.005,0.578 l 2.321,1.083 c 1.883,0.941 1.673,1.426 1.727,1.594 0.507,-0.574 0.687,-1.3 0.797,-2.027 0.024,-0.246 -2.342,-1.833 -2.815,-2.518 -0.14,0.278 -0.369,0.562 -0.672,0.763 l -0.024,-0.023 c -0.124,-0.677 -0.564,-2.118 -2.385,-3.526 -0.395,-0.087 -0.847,-0.018 -1.245,0.041 l -0.364,0.082 c 0.309,0.155 0.621,0.454 0.778,0.743 0.662,0.959 -0.193,2.387 0.877,3.21 m 7.928,-5.787 c -0.011,-0.153 0.078,-0.327 0.186,-0.465 l -10.493,0 c 0.021,0.005 0.038,0.009 0.041,0.013 0.019,0.354 0.079,0.767 0.694,0.943 0,0 1.539,0.318 2.002,0.456 l 2.298,2.361 3.706,2.364 c 0,0 0.039,-0.033 0.112,-0.128 0.591,-0.745 3.43,-2.375 3.872,-2.525 0.337,-0.125 0.594,-0.405 0.581,-0.734 -0.023,-0.44 -0.55,-0.694 -0.952,-0.841 -0.757,-0.242 -1.97,-0.635 -2.047,-1.444 m -24.268,20.146 c -0.38,-0.225 -1.635,-0.465 -1.918,-1.317 -0.279,-0.733 -1.517,-0.995 -2.041,-0.866 -0.386,0.096 -0.881,0.36 -0.832,0.374 0.891,-0.058 1.287,0.077 1.762,0.537 0.324,0.322 0.482,1.151 1.656,1.243 l 1.373,0.029 z m 6.237,-2.643 -0.379,0.085 c -0.504,0.046 -0.958,-0.06 -1.292,-0.403 -0.616,-0.726 -1.129,-1.431 -1.894,-2.085 0.556,-0.473 0.355,-0.958 0.417,-1.057 0.38,0.036 0.291,0.063 0.684,0.034 0.674,-0.062 1.143,-0.135 1.539,-0.35 0.014,0.005 0.029,0.008 0.042,0.014 0.312,-0.169 0.579,-0.422 0.858,-0.84 0.075,-0.145 0.084,-0.444 0.042,-0.596 -0.014,-0.038 -0.46,-0.32 -0.554,-0.274 -0.588,0.628 -1.791,0.234 -2.739,0.123 -0.056,-0.059 -0.109,-0.122 -0.164,-0.182 0.053,0.058 0.104,0.119 0.158,0.175 -0.034,-0.004 -0.071,-0.01 -0.105,-0.014 0,0 -3.077,-0.577 -3.591,-0.713 -1.326,-0.323 -2.485,-0.781 -3.675,-1.404 -0.344,-0.196 -0.685,-0.455 -0.728,-0.837 0.056,-0.535 0.505,-0.927 1.014,-1.164 l 1.547,-0.714 1.958,-0.932 c 0.366,-0.214 0.765,-0.578 0.908,-0.927 l -0.013,-0.01 c 0.145,-0.297 0.117,-0.676 0.145,-1.023 0.023,-0.647 -0.113,-1.338 0.42,-1.83 0.353,-0.417 1.243,-0.681 1.605,-0.743 1.682,-0.273 2.215,-0.466 2.742,-0.98 0.122,-0.101 0.666,-0.766 -0.047,-1.321 l -3.466,0 c -0.021,0.005 -0.038,0.009 -0.041,0.013 -0.018,0.355 -0.078,0.767 -0.693,0.943 0,0 -1.539,0.318 -2.002,0.456 l -2.299,2.361 -3.705,2.364 c 0,0 -0.039,-0.033 -0.112,-0.128 -0.591,-0.745 -3.431,-2.374 -3.872,-2.525 -0.338,-0.125 -0.594,-0.405 -0.581,-0.734 0.023,-0.44 0.549,-0.694 0.951,-0.84 0.758,-0.243 1.97,-0.635 2.047,-1.445 0.011,-0.153 -0.078,-0.327 -0.186,-0.465 l -3.84,0 c -0.08,0.477 -1.596,2.022 -2.429,2.765 0,0 0.459,1.98 0.681,2.453 0.51,0.828 1.638,1.678 2.484,2.286 0.009,0.036 -0.038,0.054 -0.059,0.08 -1.296,0.461 -1.406,1.285 -1.202,1.813 0.379,0.799 -0.946,1.324 -0.714,2.183 0.228,0.947 -0.884,2.606 -1.162,3.442 -0.595,1.337 -0.196,3.134 0.923,4.196 0.06,0.047 0.145,0.126 0.235,0.088 -0.423,-1.058 -0.144,-2.137 0.477,-2.673 l 3.529,-2.479 c 0.212,-0.366 0.451,-0.725 0.51,-1.139 0.126,-0.81 -0.305,-1.496 -1.01,-1.94 -0.562,-0.473 -1.372,-0.9 -1.428,-1.643 0.045,-0.22 0.21,-0.466 0.483,-0.52 0.628,-0.151 1.09,0.233 1.494,0.57 1.036,1.018 1.018,4.567 0.962,4.652 -0.673,0.476 -2.4,1.598 -2.803,2.624 -0.187,0.628 0.729,1.602 1.652,3.155 0.285,0.704 0.502,1.353 1.048,1.76 0.083,0.093 0.161,0.372 0.255,0.608 0.036,0.067 0.275,0.131 0.375,0.124 0.231,-0.036 0.521,0.087 0.722,0.017 0.778,-0.071 1.853,-0.713 2.475,-1.095 0.403,-0.238 0.958,-0.223 1.272,-0.602 0.082,-0.194 -0.016,-0.388 -0.135,-0.557 -0.004,-0.3 0.01,-0.594 -0.126,-0.855 -0.147,-0.324 -0.529,-0.491 -0.9,-0.498 -0.211,-0.021 -0.114,-0.241 -0.149,-0.346 0.099,-0.237 0.205,-0.604 -0.06,-0.814 -0.466,-0.235 -1.063,0.003 -1.516,0.149 l -0.028,-0.021 c 1.843,-1.272 3.966,-0.588 4.125,-0.549 0.672,0.037 1.534,0.111 2.167,-0.137 0.228,-0.044 0.435,-0.338 0.673,-0.109 0.63,0.323 1.261,0.757 1.724,1.221 0.596,0.496 0.893,1.095 1.575,1.515 0.643,0.419 1.596,0.291 2.283,0.046 0.915,-0.335 0.561,-1.774 0.498,-1.802 m -0.882,-3.762 c 0.195,0.074 0.394,0.14 0.597,0.196 -0.203,-0.057 -0.402,-0.122 -0.597,-0.196 m 35.958,-3.913 -0.002,-10.293 -13.016,0 c 0.08,0.477 1.595,2.022 2.429,2.764 0,0 -0.459,1.981 -0.682,2.454 -0.509,0.828 -1.638,1.678 -2.484,2.286 -0.008,0.036 0.039,0.054 0.06,0.08 1.295,0.46 1.406,1.284 1.202,1.813 -0.38,0.799 0.946,1.324 0.714,2.183 -0.228,0.947 0.883,2.606 1.162,3.442 0.595,1.337 0.196,3.134 -0.923,4.196 -0.061,0.047 -0.145,0.126 -0.235,0.088 0.423,-1.059 0.143,-2.137 -0.478,-2.673 l -3.528,-2.479 c -0.213,-0.366 -0.452,-0.725 -0.51,-1.139 -0.126,-0.81 0.305,-1.496 1.009,-1.94 0.563,-0.473 1.372,-0.901 1.429,-1.643 -0.045,-0.22 -0.211,-0.466 -0.483,-0.52 -0.629,-0.152 -1.09,0.232 -1.494,0.569 -1.036,1.019 -1.018,4.567 -0.962,4.652 0.673,0.476 2.401,1.599 2.802,2.625 0.188,0.628 -0.729,1.601 -1.65,3.155 -0.286,0.704 -0.503,1.353 -1.05,1.76 -0.081,0.093 -0.161,0.372 -0.255,0.607 -0.035,0.068 -0.275,0.132 -0.374,0.125 -0.231,-0.036 -0.523,0.086 -0.723,0.017 -0.777,-0.071 -1.852,-0.713 -2.474,-1.095 -0.402,-0.238 -0.958,-0.223 -1.272,-0.602 -0.082,-0.195 0.016,-0.388 0.134,-0.557 0.005,-0.301 -0.01,-0.594 0.127,-0.855 0.147,-0.324 0.528,-0.491 0.901,-0.498 0.208,-0.021 0.112,-0.241 0.148,-0.347 -0.098,-0.236 -0.206,-0.603 0.059,-0.814 0.466,-0.234 1.064,0.004 1.517,0.15 l 0.027,-0.021 c -1.843,-1.272 -3.965,-0.589 -4.124,-0.549 -0.673,0.037 -1.534,0.111 -2.167,-0.137 -0.229,-0.044 -0.436,-0.338 -0.674,-0.109 -0.63,0.323 -1.26,0.757 -1.724,1.221 -0.595,0.496 -0.892,1.095 -1.574,1.515 -0.643,0.419 -1.597,0.29 -2.284,0.046 -0.914,-0.335 -0.561,-1.774 -0.497,-1.802 l 0.379,0.085 c 0.503,0.046 0.958,-0.06 1.292,-0.403 0.615,-0.726 1.128,-1.431 1.893,-2.085 -0.555,-0.473 -0.354,-0.958 -0.417,-1.057 -0.379,0.036 -0.291,0.063 -0.683,0.034 -0.72,-0.066 -1.208,-0.143 -1.621,-0.395 -0.777,0.318 -1.622,0.497 -2.507,0.497 -0.385,0 -0.775,-0.034 -1.157,-0.101 0.382,0.067 0.772,0.101 1.157,0.101 0.169,0 0.335,-0.01 0.5,-0.022 l 0,13.245 15.503,0 17.58,-17.574 z m -12.486,1.123 c 0.053,-0.318 -1.794,-0.601 -1.661,-0.888 -0.747,0.603 -1.613,1.279 -1.401,2.275 0.094,1.241 3.911,2.951 4.191,4.134 0.112,0.379 0.154,0.59 0.205,0.893 0.46,-0.867 0.379,-2.05 -0.011,-2.915 l -1.16,-2.11 c -0.152,-0.433 -0.302,-0.921 -0.163,-1.389 m -10.167,7.923 c -0.324,0.322 -0.482,1.151 -1.656,1.243 l -1.374,0.029 c 0.381,-0.225 1.636,-0.465 1.919,-1.317 0.279,-0.733 1.517,-0.995 2.041,-0.866 0.385,0.096 0.881,0.36 0.832,0.374 -0.891,-0.058 -1.288,0.077 -1.762,0.537 m -14.764,-1.745 c -0.296,0.152 -0.615,0.432 -0.714,0.729 -0.056,0.189 -0.115,0.39 -0.055,0.6 -0.382,-0.408 -0.706,-0.848 -1.185,-1.203 l -10e-4,-0.022 c 0.327,-0.049 0.628,-0.16 0.864,-0.35 -0.84,-0.054 -1.459,-0.339 -2.183,-0.67 0.076,-0.067 1.277,-0.701 1.497,-0.767 0.66,0.535 1.237,1.101 1.777,1.683 M -44.8,37.339 c 0.698,0.218 1.396,0.438 2.202,0.403 -0.301,0.166 -1.164,0.27 -1.528,0.345 -1.37,0.341 -2.049,-0.638 -3.347,-0.209 0.147,-0.402 0.5,-0.669 0.402,-1.237 -0.733,0.725 -1.711,1.109 -2.471,1.807 -0.682,0.554 -1.277,1.228 -1.748,1.894 -0.363,0.599 -0.539,1.27 -0.436,1.997 -0.079,0.114 -0.457,-0.885 -0.661,-1.227 -0.907,-1.522 -1.671,-2.563 -1.671,-2.563 0.399,-1.403 2.672,-2.127 2.867,-2.526 0.172,-0.508 0.711,-0.926 1.231,-1.243 -0.135,0.789 0.012,1.444 0.012,1.444 0.329,-1.428 2.652,-2.532 4.001,-2.518 -1.169,0.442 -1.779,1.826 -1.779,1.826 0.864,-1.087 3.141,-1.207 3.812,-1.071 -0.288,0.009 -1.032,0.353 -1.712,0.797 -0.168,0.138 2.966,-0.787 4.472,-0.014 0.202,0.118 0.416,0.262 0.576,0.425 -1.643,-0.198 -3.191,0.232 -3.191,0.232 1.358,0.256 1.176,0.331 2.628,0.829 -0.719,0.418 -1.548,0.469 -2.28,0.433 -0.39,-0.034 -1.038,0.041 -1.381,0.154 l 0.002,0.022 z m -5.112,2.778 c 0.352,-0.19 0.806,-0.464 1.239,-0.242 0.094,0.081 0.194,0.082 0.267,0.184 l -0.382,0.533 c -0.161,0.111 -0.329,0.209 -0.526,0.258 -0.142,0.013 -0.194,-0.135 -0.296,-0.182 -0.167,-0.127 -0.22,-0.299 -0.325,-0.451 l 0.023,-0.1 z m 1.492,0.651 c 0.116,-0.096 0.294,-0.116 0.455,-0.098 0.155,0.022 0.235,0.176 0.312,0.283 0.137,0.216 0.062,0.464 0.053,0.704 0.083,0.101 0.116,0.226 0.211,0.321 0.015,0.052 -0.014,0.092 -0.031,0.134 -0.132,0.094 -0.318,0.098 -0.464,0.166 -0.813,0.416 -1.606,0.868 -2.655,0.855 -0.282,0.112 -0.415,0.523 -0.879,0.463 -0.336,-0.353 0.311,-0.538 0.219,-0.807 -0.288,-0.754 -0.161,-1.652 0.405,-2.283 0.11,-0.096 0.234,-0.169 0.386,-0.184 0.247,0.046 0.23,0.298 0.347,0.447 0.09,0.233 0.402,0.464 0.683,0.497 0.422,0.049 0.727,-0.208 0.958,-0.498 m -0.752,1.847 c -0.064,-0.16 -0.101,-0.349 -0.282,-0.44 -0.2,-0.026 -0.364,0.076 -0.544,0.115 -0.07,0.009 -0.127,0.075 -0.108,0.137 0.227,0.208 0.921,0.25 0.934,0.188 m -1.337,-11.022 c -0.774,-0.093 -1.762,-0.81 -2.345,-1.293 0.351,-0.081 0.622,-0.472 0.622,-0.472 -0.975,-0.058 -3.651,-2.484 -4.18,-2.879 -0.338,-0.292 -0.473,-1.8 -0.355,-2.194 0.166,-0.525 0.777,-0.866 1.383,-0.906 l 0.205,-0.01 c -0.149,0.19 -0.271,0.4 -0.18,0.65 0.261,0.699 1.199,2.019 1.94,2.141 0.694,0.144 1.419,0.22 2.043,0.533 1.385,0.891 1.051,2.201 1.944,3.757 0.689,1.196 2.471,1.986 4.007,2.496 -1.278,-0.143 -2.762,-0.158 -3.803,0.512 -0.084,0.037 -1.483,-0.974 -2.022,-1.946 0.385,-0.044 0.741,-0.389 0.741,-0.389 m -4.06,0.387 c 0.746,0.603 1.612,1.28 1.4,2.275 -0.094,1.241 -3.911,2.951 -4.192,4.134 -0.112,0.38 -0.155,0.59 -0.204,0.893 -0.461,-0.867 -0.379,-2.049 0.01,-2.915 l 1.161,-2.11 c 0.151,-0.433 0.302,-0.92 0.163,-1.388 -0.054,-0.318 1.794,-0.602 1.662,-0.889 m 5.772,-1.02 c -0.508,-0.575 -0.688,-1.301 -0.797,-2.027 -0.025,-0.247 2.341,-1.834 2.814,-2.519 0.141,0.278 0.369,0.562 0.672,0.763 l 0.024,-0.023 c 0.125,-0.677 0.565,-2.118 2.385,-3.526 0.395,-0.087 0.848,-0.018 1.245,0.041 l 0.364,0.082 c -0.308,0.155 -0.621,0.454 -0.777,0.743 -0.663,0.959 0.193,2.387 -0.877,3.211 -0.314,0.227 -0.652,0.414 -1.005,0.577 l -2.321,1.083 c -1.884,0.941 -1.673,1.426 -1.727,1.595 m 27.53,11.655 c 0.063,-0.16 0.1,-0.349 0.281,-0.44 0.201,-0.026 0.365,0.076 0.545,0.115 0.07,0.009 0.127,0.075 0.107,0.137 -0.226,0.208 -0.921,0.249 -0.933,0.188"
         style="fill:#004685;fill-opacity:1;fill-rule:nonzero;stroke:none"
         id="path190"
         inkscape:connector-curvature="0" /></g><g
       id="g192"
       transform="matrix(3.2352426,0,0,3.2352426,260.67833,565.94056)"><path
         d="m 0,0 -1.374,-0.029 c -1.174,-0.092 -1.332,-0.921 -1.655,-1.244 -0.475,-0.46 -0.872,-0.594 -1.763,-0.536 -0.049,-0.014 0.447,-0.278 0.832,-0.374 0.524,-0.129 1.762,0.133 2.041,0.866 C -1.636,-0.465 -0.381,-0.225 0,0 m -8.891,-6.477 c 0.056,-0.085 0.074,-3.634 -0.962,-4.653 -0.404,-0.336 -0.865,-0.72 -1.494,-0.569 -0.272,0.054 -0.438,0.3 -0.482,0.52 0.055,0.743 0.865,1.17 1.428,1.643 0.705,0.444 1.136,1.13 1.01,1.94 -0.06,0.414 -0.298,0.773 -0.511,1.139 l -3.529,2.479 c -0.621,0.536 -0.9,1.615 -0.476,2.673 -0.091,0.038 -0.175,-0.041 -0.236,-0.088 -1.119,-1.062 -1.518,-2.859 -0.922,-4.196 0.278,-0.836 1.389,-2.495 1.161,-3.442 -0.232,-0.859 1.093,-1.384 0.714,-2.183 -0.204,-0.528 -0.094,-1.352 1.202,-1.813 0.021,-0.026 0.068,-0.044 0.06,-0.08 -0.847,-0.608 -1.975,-1.458 -2.484,-2.286 -0.223,-0.473 -0.682,-2.453 -0.682,-2.453 0.833,-0.743 2.349,-2.288 2.429,-2.765 l 3.841,0 c 0.108,0.138 0.196,0.312 0.186,0.465 -0.078,0.81 -1.29,1.202 -2.048,1.445 -0.401,0.146 -0.928,0.4 -0.951,0.84 -0.013,0.329 0.244,0.609 0.581,0.734 0.441,0.15 3.282,1.78 3.872,2.525 0.073,0.095 0.112,0.128 0.112,0.128 l 3.706,-2.364 2.298,-2.361 c 0.463,-0.139 2.002,-0.456 2.002,-0.456 0.615,-0.177 0.676,-0.588 0.693,-0.943 0.003,-0.004 0.02,-0.008 0.041,-0.013 l 3.467,0 c 0.712,0.555 0.168,1.22 0.047,1.321 -0.527,0.514 -1.061,0.707 -2.743,0.98 -0.362,0.062 -1.251,0.326 -1.605,0.743 -0.532,0.492 -0.396,1.183 -0.419,1.83 -0.028,0.347 0,0.726 -0.146,1.023 l 0.014,0.01 c -0.144,0.349 -0.542,0.713 -0.908,0.927 l -1.958,0.932 -1.548,0.714 c -0.508,0.237 -0.958,0.629 -1.013,1.164 0.042,0.382 0.384,0.641 0.728,0.837 1.189,0.623 2.348,1.081 3.674,1.404 0.514,0.136 3.591,0.713 3.591,0.713 0.035,0.004 0.071,0.01 0.106,0.014 -0.054,-0.056 -0.051,-0.052 0.006,0.007 0.948,0.111 2.151,0.504 2.739,-0.123 0.093,-0.046 0.54,0.236 0.554,0.274 0.041,0.152 0.033,0.451 -0.042,0.595 -0.279,0.419 -0.547,0.672 -0.858,0.84 C 5.34,-6.411 5.326,-6.414 5.312,-6.419 4.916,-6.204 4.447,-6.131 3.772,-6.069 3.38,-6.04 3.468,-6.067 3.089,-6.103 c -0.062,0.099 0.138,0.583 -0.417,1.057 0.765,0.654 1.277,1.358 1.893,2.085 0.334,0.343 0.788,0.449 1.292,0.403 l 0.38,-0.085 C 6.299,-2.615 6.653,-1.176 5.739,-0.841 5.051,-0.596 4.098,-0.468 3.455,-0.887 2.774,-1.307 2.477,-1.906 1.881,-2.402 1.418,-2.866 0.787,-3.3 0.156,-3.623 c -0.238,-0.229 -0.444,0.065 -0.673,0.109 -0.632,0.248 -1.495,0.174 -2.166,0.137 -0.16,-0.039 -2.282,-0.723 -4.125,0.549 l 0.027,0.021 c 0.453,-0.146 1.051,-0.384 1.516,-0.15 0.266,0.211 0.159,0.578 0.06,0.815 0.035,0.105 -0.061,0.325 0.149,0.346 0.372,0.007 0.753,0.174 0.9,0.498 0.137,0.261 0.122,0.555 0.127,0.855 0.118,0.169 0.216,0.363 0.134,0.557 C -4.209,0.493 -4.764,0.478 -5.167,0.716 -5.789,1.098 -6.863,1.74 -7.641,1.811 -7.842,1.881 -8.132,1.758 -8.364,1.794 -8.463,1.801 -8.703,1.737 -8.738,1.67 -8.832,1.434 -8.911,1.155 -8.993,1.062 c -0.546,-0.407 -0.764,-1.056 -1.049,-1.76 -0.923,-1.553 -1.838,-2.527 -1.651,-3.155 0.402,-1.026 2.13,-2.148 2.802,-2.624 m 3.505,5.182 c -0.23,0.29 -0.535,0.547 -0.958,0.498 -0.281,-0.033 -0.592,-0.264 -0.683,-0.497 -0.117,-0.149 -0.1,-0.401 -0.346,-0.447 -0.153,0.015 -0.276,0.087 -0.387,0.184 -0.565,0.631 -0.693,1.529 -0.405,2.283 0.092,0.269 -0.554,0.454 -0.219,0.807 0.465,0.06 0.598,-0.351 0.879,-0.463 1.049,0.013 1.843,-0.439 2.655,-0.855 0.147,-0.068 0.333,-0.072 0.464,-0.166 0.018,-0.042 0.047,-0.082 0.031,-0.134 -0.095,-0.095 -0.128,-0.22 -0.211,-0.321 0.009,-0.241 0.085,-0.488 -0.053,-0.704 -0.077,-0.107 -0.156,-0.261 -0.312,-0.283 -0.161,-0.018 -0.339,0.002 -0.455,0.098 m -1.492,-0.651 -0.022,0.1 c 0.104,0.151 0.157,0.324 0.325,0.451 0.102,0.047 0.153,0.195 0.295,0.182 0.197,-0.05 0.366,-0.147 0.526,-0.258 l 0.382,-0.534 c -0.073,-0.101 -0.173,-0.102 -0.266,-0.183 -0.433,-0.222 -0.887,0.051 -1.24,0.242 M 2.118,-4.7 c -0.219,0.066 -1.42,0.7 -1.496,0.767 0.724,0.331 1.343,0.616 2.183,0.67 -0.236,0.19 -0.537,0.301 -0.864,0.35 l 10e-4,0.022 c 0.479,0.355 0.802,0.795 1.184,1.203 -0.059,-0.21 -10e-4,-0.411 0.056,-0.6 C 3.28,-2.585 3.6,-2.865 3.895,-3.017 3.356,-3.599 2.778,-4.165 2.118,-4.7 m -8.678,-8.43 c 0.109,0.726 0.289,1.452 0.797,2.027 0.054,-0.169 -0.156,-0.654 1.728,-1.595 l 2.32,-1.083 c 0.353,-0.163 0.691,-0.35 1.005,-0.577 1.07,-0.824 0.215,-2.252 0.877,-3.211 0.157,-0.289 0.469,-0.588 0.778,-0.743 l -0.364,-0.082 c -0.398,-0.059 -0.85,-0.128 -1.246,-0.041 -1.82,1.407 -2.26,2.849 -2.384,3.525 l -0.024,0.024 c -0.303,-0.201 -0.531,-0.486 -0.672,-0.763 -0.474,0.685 -2.839,2.272 -2.815,2.519 m -6.637,3.935 c 0.14,0.469 -0.011,0.956 -0.163,1.389 l -1.161,2.11 c -0.388,0.865 -0.47,2.048 -0.01,2.915 0.05,-0.303 0.092,-0.514 0.205,-0.893 0.281,-1.183 4.097,-2.893 4.192,-4.134 0.211,-0.995 -0.655,-1.672 -1.401,-2.275 0.132,0.287 -1.716,0.571 -1.662,0.888 m 5.723,-1.275 c 0,0 -0.357,0.345 -0.741,0.389 0.538,0.972 1.938,1.983 2.022,1.946 1.041,-0.67 2.525,-0.656 3.802,-0.512 -1.535,-0.51 -3.318,-1.3 -4.006,-2.496 -0.894,-1.556 -0.56,-2.866 -1.945,-3.758 -0.623,-0.312 -1.348,-0.388 -2.043,-0.532 -0.74,-0.122 -1.678,-1.442 -1.94,-2.141 -0.091,-0.25 0.031,-0.46 0.181,-0.65 l -0.205,0.01 c -0.607,0.04 -1.218,0.381 -1.383,0.906 -0.118,0.394 0.017,1.902 0.354,2.194 0.529,0.395 3.206,2.821 4.18,2.879 0,0 -0.27,0.391 -0.621,0.472 0.582,0.483 1.571,1.2 2.345,1.293 m -3.55,6.956 c 0,0 0.764,1.041 1.672,2.563 0.203,0.342 0.581,1.341 0.661,1.227 -0.103,-0.727 0.073,-1.398 0.435,-1.997 0.471,-0.666 1.066,-1.34 1.748,-1.894 0.761,-0.699 1.738,-1.082 2.471,-1.807 0.098,0.568 -0.255,0.835 -0.402,1.237 1.298,-0.429 1.977,0.55 3.348,0.209 0.364,-0.076 1.226,-0.179 1.527,-0.345 -0.805,0.035 -1.504,-0.185 -2.202,-0.403 l -0.002,-0.022 c 0.344,-0.113 0.991,-0.188 1.381,-0.154 0.733,0.036 1.562,-0.015 2.281,-0.433 -1.452,-0.498 -1.271,-0.573 -2.629,-0.83 0,0 1.549,-0.429 3.192,-0.231 -0.161,-0.163 -0.374,-0.307 -0.576,-0.425 -1.506,-0.773 -4.641,0.152 -4.473,0.014 0.68,-0.444 1.424,-0.788 1.713,-0.797 -0.672,-0.136 -2.949,-0.016 -3.812,1.071 0,0 0.609,-1.384 1.779,-1.826 -1.35,-0.014 -3.672,1.09 -4.002,2.518 0,0 -0.146,-0.655 -0.011,-1.444 -0.521,0.317 -1.059,0.735 -1.232,1.243 -0.194,0.399 -2.467,1.123 -2.867,2.526 m 4.887,4.066 c -0.013,0.062 -0.708,0.019 -0.934,-0.188 -0.02,-0.062 0.037,-0.128 0.107,-0.137 0.18,-0.039 0.345,-0.141 0.545,-0.115 0.181,0.091 0.217,0.28 0.282,0.44"
         style="fill:#ffdd00;fill-opacity:1;fill-rule:nonzero;stroke:none"
         id="path194"
         inkscape:connector-curvature="0" /></g><text
       transform="scale(1,-1)"
       id="text458"
       x="-888.2168"
       y="73.013382"
       style="font-size:38.82291031px"><tspan
         style="font-size:33.68696594px;font-variant:normal;font-weight:normal;writing-mode:lr-tb;fill:#004685;fill-opacity:1;fill-rule:nonzero;stroke:none;font-family:ArialMT;-inkscape-font-specification:ArialMT"
         x="-888.2168 -876.58807 -855.91101 -842.672 -832.69391 -806.10822 -779.67065 -768.04193 -741.45618 -717.26892"
         y="73.013382"
         sodipodi:role="line"
         id="tspan460"></tspan></text>
</g></svg>