<?xml version="1.0" encoding="UTF-8"?>
<!DOCTYPE svg PUBLIC "-//W3C//DTD SVG 1.1//EN" "http://www.w3.org/Graphics/SVG/1.1/DTD/svg11.dtd">
<!-- Creator: CorelDRAW X5 -->
<svg xmlns="http://www.w3.org/2000/svg" xml:space="preserve" width="464px" height="600px" style="shape-rendering:geometricPrecision; text-rendering:geometricPrecision; image-rendering:optimizeQuality; fill-rule:evenodd; clip-rule:evenodd"
viewBox="0 0 464000 600471"
 xmlns:xlink="http://www.w3.org/1999/xlink">
 <defs>
  <style type="text/css">
   <![CDATA[
    .fil4 {fill:black}
    .fil2 {fill:#101E32}
    .fil1 {fill:#B50F24}
    .fil0 {fill:#B89B4B}
    .fil3 {fill:white}
   ]]>
  </style>
 </defs>
 <g id="Cagliari">
  <metadata id="CorelCorpID_0Corel-Layer"/>
  <g id="Ostiamare">
   <path class="fil0" d="M231896 47198c97945,0 177345,113253 177345,252958 0,139705 -79400,252958 -177345,252958 -97945,0 -177345,-113253 -177345,-252958 0,-139705 79400,-252958 177345,-252958zm79147 517712c-5913,1828 -33449,9995 -32430,10218 3536,3543 27060,-691 31689,-1898 2462,-715 4788,-1497 7182,-2400 4378,-1672 21203,-9299 23523,-13248 -1735,-830 -25092,5904 -27833,6673 0,-1 -2140,659 -2130,656zm14751 -14795c-1296,714 -16043,8934 -16014,8963 -1462,832 -13118,7243 -13680,8216 1584,1269 15140,-2544 17010,-3136 5348,-1686 9798,-3575 14742,-6170 5904,-3336 25244,-16563 27425,-22758 -2124,-265 -26576,13293 -29482,14885zm-18705 -4991c-311,357 -3678,4252 -3665,4259 -1710,1902 -17879,19433 -17730,21067 4632,46 19210,-10721 22645,-13568 2925,-2625 5412,-5170 7949,-8146 3010,-3770 16447,-23910 14307,-28415 -2723,1164 -20802,21726 -23506,24803zm-15147 31831c-4665,-47 -32718,-372 -31854,254 1067,4291 22748,7745 26799,8043 7622,150 28685,-1720 34614,-6438 -1110,-1638 -26813,-1822 -29558,-1858zm686 -19461c-4334,4262 -19579,16481 -25908,16379 -9,-1862 16150,-17938 18058,-19854 1070,-1066 13220,-12923 13282,-12817 859,-832 6147,-6064 7178,-6199 931,1208 -3294,9933 -3930,11153 -2602,4289 -5200,7658 -8679,11338zm-15044 28445c-3742,-203 -41143,-3300 -41850,-3139 1144,6062 29509,12347 35214,13046 10525,664 37914,-964 46228,-7503 -1103,-1299 -36125,-2234 -39593,-2404zm-7792 -18254c-6815,5113 -27303,16513 -35994,14677 260,-1501 24223,-18552 26686,-20392 2868,-2152 25676,-19948 27555,-20407 2152,5199 -14265,22707 -18248,26122zm88371 -36374c-2291,1262 -18674,9070 -21137,7194 1490,-2246 18037,-12706 20903,-14466 1972,-1172 19129,-11076 20921,-10290 -2016,4678 -16199,14840 -20688,17562zm-27597 -3941c-971,1896 -8384,17101 -7381,18775 4194,-1729 12486,-14746 14547,-18603 1091,-2278 7294,-17628 5344,-19802 -2387,1601 -10949,16723 -12510,19631zm45525 -17702c-2116,1532 -17970,11716 -20640,10175 1310,-2561 16913,-15347 19691,-17558 93,-73 917,-715 917,-714 1754,-1170 15372,-9830 17222,-9116 -582,2599 -9562,10865 -11706,12673 -1788,1604 -3566,3079 -5484,4539zm-28348 -250c-776,2023 -6752,18598 -5507,20182 4023,-2347 11111,-16824 12808,-21027 2172,-5962 3650,-11717 3900,-18044 -26,-321 -185,-2558 -582,-2656 -297,96 -959,1300 -1111,1563 -3619,6276 -6812,13302 -9508,19982zm42262 -20551c-2070,1629 -15242,10761 -17834,9549 891,-2695 13314,-13962 15781,-16087 1742,-1436 15349,-12123 17412,-11553 -823,4141 -12060,15266 -15359,18091zm-26938 375c-63,287 -729,3498 -695,3498 -404,1648 -3776,16258 -2557,17310 2026,-1345 6801,-11646 7780,-13940 935,-2634 1648,-5108 2242,-7834 450,-2373 2321,-17251 94,-18886 -2117,1983 -6150,16801 -6864,19852zm38754 -21834c-1808,1707 -14518,12431 -17242,11432 707,-2858 12373,-15513 14724,-17932 1619,-1597 14537,-13743 16661,-13330 -539,4290 -11031,16646 -14142,19830zm-27055 2922c-284,2145 -1860,17802 -158,19160 2983,-2580 6302,-17002 6906,-20808 280,-2409 1171,-17925 -1190,-19409 -2009,2251 -5045,17825 -5559,21058zm37417 -25896c-1654,1853 -13718,13982 -16508,13206 517,-3016 11326,-16941 13543,-19647 1488,-1740 13613,-15254 15781,-14999 -250,4414 -9914,17919 -12816,21440zm-26939 5363c-137,2181 -667,18434 1154,19674 2811,-2919 5160,-17996 5511,-21973 115,-2434 -21,-18518 -2483,-19843 -1864,2485 -3881,18762 -4181,22143zm35760 -29719c-1497,1983 -12801,15431 -15641,14871 315,-3138 10195,-18267 12244,-21231 1348,-1865 12584,-16663 14776,-16561 47,4526 -8712,19088 -11380,22921zm-26614 7699c6,2204 550,18982 2471,20098 2613,-3233 3965,-18883 4053,-23017 -44,-2448 -1242,-19020 -3792,-20185 -1711,2715 -2654,19582 -2732,23103zm33808 -33304c-1337,2101 -11775,16778 -14649,16430 106,-3254 8966,-19474 10830,-22687 1206,-1981 11447,-17962 13654,-18020 348,4619 -7422,20149 -9836,24277zm-26100 9934c149,2219 1797,19439 3801,20431 2400,-3522 2718,-19674 2533,-23937 -201,-2457 -2494,-19425 -5121,-20432 -1525,2906 -1366,20315 -1213,23938zm31576 -36657c-1173,2204 -10644,18026 -13537,17884 -110,-3336 7652,-20581 9305,-24013 1054,-2078 10214,-19170 12417,-19377 662,4698 -6048,21106 -8185,25506zm-25410 12074c289,2224 3077,19807 5150,20671 2162,-3794 1416,-20354 945,-24734 -357,-2456 -3779,-19735 -6473,-20583 -1323,3070 -14,20946 378,24646zm29038 -39384c-1007,2293 -9429,19162 -12326,19217 -328,-3397 6269,-21569 7692,-25196 899,-2164 8899,-20261 11085,-20618 980,4753 -4608,21946 -6451,26597zm-24565 14096c429,2226 4354,20071 6502,20813 1913,-4044 78,-20924 -685,-25396 -510,-2446 -5081,-19949 -7832,-20635 -1115,3243 1377,21439 2015,25219zm26358 -42644c-833,2372 -8095,20216 -10984,20470 -559,-3453 4774,-22456 5948,-26271 172,-538 1978,-5969 2025,-5932 568,-1516 6024,-15486 7601,-15656 747,2018 -1116,13357 -1543,15656 -808,4053 -1764,7792 -3046,11733zm-23547 16061c570,2213 5704,20250 7898,20860 1638,-4272 -1333,-21401 -2405,-25944 -666,-2430 -6436,-20065 -9236,-20589 -883,3364 2852,21860 3743,25674zm23354 -45093c-1654,6173 -3597,11624 -6621,17299 -209,378 -2366,4299 -2915,4088 -239,-475 77,-3502 132,-4088 804,-7671 2175,-15202 3978,-22712 589,-2272 5946,-21042 8141,-21690 1613,4459 -1585,22375 -2715,27104zm-22377 17707c711,2191 7090,20331 9319,20807 1070,-3193 -1874,-17788 -2707,-21215 -449,-1733 -935,-3422 -1486,-5128 -830,-2401 -7731,-19555 -10641,-19898 -632,3199 4324,21453 5390,25026 0,0 127,413 125,408zm20210 -46100c-511,2431 -5319,20861 -8068,21468 -1054,-3438 1613,-22408 2293,-26388 443,-2284 4534,-20889 6681,-21667 1899,4225 -99,21927 -905,26586zm-21131 18693c868,2117 8560,19724 10736,20048 1032,-4641 -4227,-21227 -5996,-25768 -1008,-2324 -9024,-18523 -11949,-18667 -421,3254 5864,20902 7209,24387zm17083 -46207c-355,2443 -3927,20666 -6625,21438 -1286,-3296 125,-21911 542,-25837 296,-2289 3154,-20640 5242,-21548 2171,3984 1337,21371 841,25946zm-19841 19598c1024,2036 9859,18634 12053,18811 714,-4581 -5642,-20397 -7703,-24688 -1178,-2230 -10217,-17396 -13141,-17333 -207,3184 7229,19929 8792,23210zm14002 -46101c-198,2441 -2569,20381 -5205,21313 -1496,-3114 -1303,-21326 -1143,-25161 149,-2283 1805,-20301 3821,-21336 2420,3714 2722,20715 2527,25184zm-18502 20428c1174,1939 11059,17445 13254,17472 411,-4507 -6970,-19460 -9300,-23480 -1345,-2125 -11303,-16167 -14214,-15895 -4,3105 8496,18839 10260,21903zm10963 -45786c-39,2435 -1238,19998 -3803,21092 -1695,-2921 -2677,-20631 -2765,-24362 0,-2268 484,-19872 2413,-21032 2657,3433 4059,19956 4154,24302zm-17105 21186c1311,1821 12177,16154 14336,16028 119,-4402 -8211,-18421 -10784,-22142 -1508,-2007 -12298,-14832 -15161,-14350 191,3008 9667,17637 11609,20465zm7958 -45267c122,2418 67,19526 -2416,20780 -1877,-2714 -3995,-19829 -4324,-23441 -150,-2241 -818,-19362 1009,-20639 2871,3130 5352,19092 5730,23300zm-15643 21877c1446,1696 13165,14756 15294,14479 -167,-4297 -9357,-17265 -12152,-20676 -1668,-1874 -13157,-13396 -15977,-12696 381,2879 10744,16328 12835,18893zm5134 -44239c286,2395 1336,18968 -1054,20385 -2025,-2471 -5247,-18958 -5806,-22414 -301,-2205 -2089,-18771 -380,-20165 3074,2814 6588,18139 7240,22195zm-14121 22499c1574,1558 14027,13274 16111,12845 -440,-4163 -10395,-16023 -13384,-19102 -1820,-1724 -13887,-11882 -16641,-10956 556,2744 11698,14919 13914,17213zm2034 -43651c459,2359 2612,18315 330,19895 -2165,-2217 -6469,-17963 -7254,-21252 -692,-3118 -1230,-6132 -1636,-9295 -208,-1037 -2224,-11293 -1336,-11842 1213,758 4821,7786 5501,9155 1969,4494 3318,8567 4396,13339zm-12475 23071c1693,1399 14782,11661 16801,11078 -710,-4020 -11349,-14655 -14509,-17374 -1972,-1555 -14493,-10242 -17161,-9083 721,2573 12562,13384 14868,15379zm-2312 -44309c1547,4191 2634,8002 3453,12374 77,893 564,8272 -378,8703 -740,-438 -3004,-5396 -3403,-6264 -2628,-5344 -5013,-10651 -7218,-16172 -807,-2101 -7313,-19964 -6074,-21575 4228,2694 11786,18352 13620,22933zm-9352 25347c1806,1224 15398,9934 17339,9201 -936,-3749 -11985,-13002 -15188,-15300 0,0 -363,-283 -358,-279 -2254,-1657 -16945,-11140 -19648,-9705 -25,1152 14379,13695 14412,13593 -14,42 3487,2520 3443,2490zm-8929 -46445c1095,2282 7965,19082 5940,21198 -2449,-1839 -11747,-18392 -13442,-21549 -1012,-1966 -9188,-18498 -8190,-20189 4472,2077 13429,16287 15692,20539zm-6271 26309c1903,1145 18150,10611 19909,9822 -1789,-4513 -15028,-14218 -19257,-16827 -2451,-1369 -17480,-8532 -19986,-6763 1282,2190 16680,12112 19333,13768zm-13756 -44421c1359,2139 9782,17453 7991,19803 -2479,-1411 -13376,-16340 -15321,-19103 -3351,-4912 -7990,-11949 -10204,-17433 -57,-135 -491,-1080 -268,-1175 121,-19 795,371 795,371 6569,4222 12672,11295 17006,17537zm-3382 26383c2005,869 18675,7827 20286,6870 -2175,-4167 -15959,-11776 -20330,-13727 -2629,-1032 -17732,-5785 -19972,-3680 1421,1880 17348,9332 20016,10538zm-18453 -41358c167,179 1818,2032 1818,2032 1309,1693 9871,14176 8525,16276 -1606,-535 -10524,-9508 -11990,-10989 -47,29 -5820,-5794 -5797,-5769 -1510,-1563 -14971,-15648 -14630,-17312 5443,784 18315,11914 22075,15763zm91 26355c2072,560 18894,4889 20322,3770 -2563,-3784 -16692,-9173 -21129,-10426 -2778,-694 -5272,-1135 -8126,-1408 -1341,-148 -11533,-888 -12269,470 629,783 8209,3476 9396,3911 3919,1335 7814,2559 11805,3683zm-25580 -38551c2069,1663 15358,13948 14249,16897 -2274,-573 -18624,-12247 -21183,-14086 -1751,-1283 -17406,-12770 -17397,-14403 5563,-210 19918,8378 24331,11593zm5240 26271c1074,148 13267,1624 13224,1447 752,25 7422,283 7736,-380 -420,-727 -4725,-2580 -5564,-2932 -5911,-2462 -11098,-3881 -17505,-4692 -2932,-258 -18785,-426 -20256,2388 1677,1126 19663,3782 22367,4170zm-32224 -33745c2369,1274 17509,10873 16930,14041 -2122,-149 -20442,-8746 -23169,-10022 -18008,-9983 -11071,-5861 -21086,-11931 8542,3232 14038,1581 27326,7912zm9888 24831c2088,-106 19865,-1077 20785,-2401 -3848,-3053 -19004,-3868 -23955,-3647 -2934,283 -18243,3014 -19119,6040 1828,785 19599,117 22289,8zm-117093 527678c5913,1828 33449,9995 32430,10218 -3536,3543 -27060,-691 -31689,-1898 -2462,-715 -4788,-1497 -7182,-2400 -4378,-1672 -21203,-9299 -23523,-13248 1735,-830 25092,5904 27833,6673 0,-1 2140,659 2130,656zm-14751 -14795c1296,714 16043,8934 16014,8963 1462,832 13118,7243 13680,8216 -1584,1269 -15140,-2544 -17010,-3136 -5348,-1686 -9798,-3575 -14742,-6170 -5904,-3336 -25244,-16563 -27425,-22758 2124,-265 26576,13293 29482,14885zm18705 -4991c311,357 3678,4252 3665,4259 1710,1902 17879,19433 17730,21067 -4632,46 -19210,-10721 -22645,-13568 -2925,-2625 -5412,-5170 -7949,-8146 -3010,-3770 -16447,-23910 -14307,-28415 2723,1164 20802,21726 23506,24803zm15147 31831c4665,-47 32718,-372 31854,254 -1067,4291 -22748,7745 -26799,8043 -7622,150 -28685,-1720 -34614,-6438 1110,-1638 26813,-1822 29558,-1858zm-686 -19461c4334,4262 19579,16481 25908,16379 9,-1862 -16150,-17938 -18058,-19854 -1070,-1066 -13220,-12923 -13282,-12817 -859,-832 -6147,-6064 -7178,-6199 -931,1208 3294,9933 3930,11153 2602,4289 5200,7658 8679,11338zm15044 28445c3742,-203 41143,-3300 41850,-3139 -1144,6062 -29509,12347 -35214,13046 -10525,664 -37914,-964 -46228,-7503 1103,-1299 36125,-2234 39593,-2404zm7792 -18254c6815,5113 27303,16513 35994,14677 -260,-1501 -24223,-18552 -26686,-20392 -2868,-2152 -25676,-19948 -27555,-20407 -2152,5199 14265,22707 18248,26122zm-88371 -36374c2291,1262 18674,9070 21137,7194 -1490,-2246 -18037,-12706 -20903,-14466 -1972,-1172 -19129,-11076 -20921,-10290 2016,4678 16199,14840 20688,17562zm27597 -3941c971,1896 8384,17101 7381,18775 -4194,-1729 -12486,-14746 -14547,-18603 -1091,-2278 -7294,-17628 -5344,-19802 2387,1601 10949,16723 12510,19631zm-45525 -17702c2116,1532 17970,11716 20640,10175 -1310,-2561 -16913,-15347 -19691,-17558 -93,-73 -917,-715 -917,-714 -1754,-1170 -15372,-9830 -17222,-9116 582,2599 9562,10865 11706,12673 1788,1604 3566,3079 5484,4539zm28348 -250c776,2023 6752,18598 5507,20182 -4023,-2347 -11111,-16824 -12808,-21027 -2172,-5962 -3650,-11717 -3900,-18044 26,-321 185,-2558 582,-2656 297,96 959,1300 1111,1563 3619,6276 6812,13302 9508,19982zm-42262 -20551c2070,1629 15242,10761 17834,9549 -891,-2695 -13314,-13962 -15781,-16087 -1742,-1436 -15349,-12123 -17412,-11553 823,4141 12060,15266 15359,18091zm26938 375c63,287 729,3498 695,3498 404,1648 3776,16258 2557,17310 -2026,-1345 -6801,-11646 -7780,-13940 -935,-2634 -1648,-5108 -2242,-7834 -450,-2373 -2321,-17251 -94,-18886 2117,1983 6150,16801 6864,19852zm-38754 -21834c1808,1707 14518,12431 17242,11432 -707,-2858 -12373,-15513 -14724,-17932 -1619,-1597 -14537,-13743 -16661,-13330 539,4290 11031,16646 14142,19830zm27055 2922c284,2145 1860,17802 158,19160 -2983,-2580 -6302,-17002 -6906,-20808 -280,-2409 -1171,-17925 1190,-19409 2009,2251 5045,17825 5559,21058zm-37417 -25896c1654,1853 13718,13982 16508,13206 -517,-3016 -11326,-16941 -13543,-19647 -1488,-1740 -13613,-15254 -15781,-14999 250,4414 9914,17919 12816,21440zm26939 5363c137,2181 667,18434 -1154,19674 -2811,-2919 -5160,-17996 -5511,-21973 -115,-2434 21,-18518 2483,-19843 1864,2485 3881,18762 4181,22143zm-35760 -29719c1497,1983 12801,15431 15641,14871 -315,-3138 -10195,-18267 -12244,-21231 -1348,-1865 -12584,-16663 -14776,-16561 -47,4526 8712,19088 11380,22921zm26614 7699c-6,2204 -550,18982 -2471,20098 -2613,-3233 -3965,-18883 -4053,-23017 44,-2448 1242,-19020 3792,-20185 1711,2715 2654,19582 2732,23103zm-33808 -33304c1337,2101 11775,16778 14649,16430 -106,-3254 -8966,-19474 -10830,-22687 -1206,-1981 -11447,-17962 -13654,-18020 -348,4619 7422,20149 9836,24277zm26100 9934c-149,2219 -1797,19439 -3801,20431 -2400,-3522 -2718,-19674 -2533,-23937 201,-2457 2494,-19425 5121,-20432 1525,2906 1366,20315 1213,23938zm-31576 -36657c1173,2204 10644,18026 13537,17884 110,-3336 -7652,-20581 -9305,-24013 -1054,-2078 -10214,-19170 -12417,-19377 -662,4698 6048,21106 8185,25506zm25410 12074c-289,2224 -3077,19807 -5150,20671 -2162,-3794 -1416,-20354 -945,-24734 357,-2456 3779,-19735 6473,-20583 1323,3070 14,20946 -378,24646zm-29038 -39384c1007,2293 9429,19162 12326,19217 328,-3397 -6269,-21569 -7692,-25196 -899,-2164 -8899,-20261 -11085,-20618 -980,4753 4608,21946 6451,26597zm24565 14096c-429,2226 -4354,20071 -6502,20813 -1913,-4044 -78,-20924 685,-25396 510,-2446 5081,-19949 7832,-20635 1115,3243 -1377,21439 -2015,25219zm-26358 -42644c833,2372 8095,20216 10984,20470 559,-3453 -4774,-22456 -5948,-26271 -172,-538 -1978,-5969 -2025,-5932 -568,-1516 -6024,-15486 -7601,-15656 -747,2018 1116,13357 1543,15656 808,4053 1764,7792 3046,11733zm23547 16061c-570,2213 -5704,20250 -7898,20860 -1638,-4272 1333,-21401 2405,-25944 666,-2430 6436,-20065 9236,-20589 883,3364 -2852,21860 -3743,25674zm-23354 -45093c1654,6173 3597,11624 6621,17299 209,378 2366,4299 2915,4088 239,-475 -77,-3502 -132,-4088 -804,-7671 -2175,-15202 -3978,-22712 -589,-2272 -5946,-21042 -8141,-21690 -1613,4459 1585,22375 2715,27104zm22377 17707c-711,2191 -7090,20331 -9319,20807 -1070,-3193 1874,-17788 2707,-21215 449,-1733 935,-3422 1486,-5128 830,-2401 7731,-19555 10641,-19898 632,3199 -4324,21453 -5390,25026 0,0 -127,413 -125,408zm-20210 -46100c511,2431 5319,20861 8068,21468 1054,-3438 -1613,-22408 -2293,-26388 -443,-2284 -4534,-20889 -6681,-21667 -1899,4225 99,21927 905,26586zm21131 18693c-868,2117 -8560,19724 -10736,20048 -1032,-4641 4227,-21227 5996,-25768 1008,-2324 9024,-18523 11949,-18667 421,3254 -5864,20902 -7209,24387zm-17083 -46207c355,2443 3927,20666 6625,21438 1286,-3296 -125,-21911 -542,-25837 -296,-2289 -3154,-20640 -5242,-21548 -2171,3984 -1337,21371 -841,25946zm19841 19598c-1024,2036 -9859,18634 -12053,18811 -714,-4581 5642,-20397 7703,-24688 1178,-2230 10217,-17396 13141,-17333 207,3184 -7229,19929 -8792,23210zm-14002 -46101c198,2441 2569,20381 5205,21313 1496,-3114 1303,-21326 1143,-25161 -149,-2283 -1805,-20301 -3821,-21336 -2420,3714 -2722,20715 -2527,25184zm18502 20428c-1174,1939 -11059,17445 -13254,17472 -411,-4507 6970,-19460 9300,-23480 1345,-2125 11303,-16167 14214,-15895 4,3105 -8496,18839 -10260,21903zm-10963 -45786c39,2435 1238,19998 3803,21092 1695,-2921 2677,-20631 2765,-24362 0,-2268 -484,-19872 -2413,-21032 -2657,3433 -4059,19956 -4154,24302zm17105 21186c-1311,1821 -12177,16154 -14336,16028 -119,-4402 8211,-18421 10784,-22142 1508,-2007 12298,-14832 15161,-14350 -191,3008 -9667,17637 -11609,20465zm-7958 -45267c-122,2418 -67,19526 2416,20780 1877,-2714 3995,-19829 4324,-23441 150,-2241 818,-19362 -1009,-20639 -2871,3130 -5352,19092 -5730,23300zm15643 21877c-1446,1696 -13165,14756 -15294,14479 167,-4297 9357,-17265 12152,-20676 1668,-1874 13157,-13396 15977,-12696 -381,2879 -10744,16328 -12835,18893zm-5134 -44239c-286,2395 -1336,18968 1054,20385 2025,-2471 5247,-18958 5806,-22414 301,-2205 2089,-18771 380,-20165 -3074,2814 -6588,18139 -7240,22195zm14121 22499c-1574,1558 -14027,13274 -16111,12845 440,-4163 10395,-16023 13384,-19102 1820,-1724 13887,-11882 16641,-10956 -556,2744 -11698,14919 -13914,17213zm-2034 -43651c-459,2359 -2612,18315 -330,19895 2165,-2217 6469,-17963 7254,-21252 692,-3118 1230,-6132 1636,-9295 208,-1037 2224,-11293 1336,-11842 -1213,758 -4821,7786 -5501,9155 -1969,4494 -3318,8567 -4396,13339zm12475 23071c-1693,1399 -14782,11661 -16801,11078 710,-4020 11349,-14655 14509,-17374 1972,-1555 14493,-10242 17161,-9083 -721,2573 -12562,13384 -14868,15379zm2312 -44309c-1547,4191 -2634,8002 -3453,12374 -77,893 -564,8272 378,8703 740,-438 3004,-5396 3403,-6264 2628,-5344 5013,-10651 7218,-16172 807,-2101 7313,-19964 6074,-21575 -4228,2694 -11786,18352 -13620,22933zm9352 25347c-1806,1224 -15398,9934 -17339,9201 936,-3749 11985,-13002 15188,-15300 0,0 363,-283 358,-279 2254,-1657 16945,-11140 19648,-9705 25,1152 -14379,13695 -14412,13593 14,42 -3487,2520 -3443,2490zm8929 -46445c-1095,2282 -7965,19082 -5940,21198 2449,-1839 11747,-18392 13442,-21549 1012,-1966 9188,-18498 8190,-20189 -4472,2077 -13429,16287 -15692,20539zm6271 26309c-1903,1145 -18150,10611 -19909,9822 1789,-4513 15028,-14218 19257,-16827 2451,-1369 17480,-8532 19986,-6763 -1282,2190 -16680,12112 -19333,13768zm13756 -44421c-1359,2139 -9782,17453 -7991,19803 2479,-1411 13376,-16340 15321,-19103 3351,-4912 7990,-11949 10204,-17433 57,-135 491,-1080 268,-1175 -121,-19 -795,371 -795,371 -6569,4222 -12672,11295 -17006,17537zm3382 26383c-2005,869 -18675,7827 -20286,6870 2175,-4167 15959,-11776 20330,-13727 2629,-1032 17732,-5785 19972,-3680 -1421,1880 -17348,9332 -20016,10538zm18453 -41358c-167,179 -1818,2032 -1818,2032 -1309,1693 -9871,14176 -8525,16276 1606,-535 10524,-9508 11990,-10989 47,29 5820,-5794 5797,-5769 1510,-1563 14971,-15648 14630,-17312 -5443,784 -18315,11914 -22075,15763zm-91 26355c-2072,560 -18894,4889 -20322,3770 2563,-3784 16692,-9173 21129,-10426 2778,-694 5272,-1135 8126,-1408 1341,-148 11533,-888 12269,470 -629,783 -8209,3476 -9396,3911 -3919,1335 -7814,2559 -11805,3683zm25580 -38551c-2069,1663 -15358,13948 -14249,16897 2274,-573 18624,-12247 21183,-14086 1751,-1283 17406,-12770 17397,-14403 -5563,-210 -19918,8378 -24331,11593zm-5240 26271c-1074,148 -13267,1624 -13224,1447 -752,25 -7422,283 -7736,-380 420,-727 4725,-2580 5564,-2932 5911,-2462 11098,-3881 17505,-4692 2932,-258 18785,-426 20256,2388 -1677,1126 -19663,3782 -22367,4170zm32224 -33745c-2369,1274 -17509,10873 -16930,14041 2122,-149 20442,-8746 23169,-10022 18008,-9983 11071,-5861 21086,-11931 -8542,3232 -14038,1581 -27326,7912zm-9888 24831c-2088,-106 -19865,-1077 -20785,-2401 3848,-3053 19004,-3868 23955,-3647 2934,283 18243,3014 19119,6040 -1828,785 -19599,117 -22289,8z"/>
   <path class="fil1" d="M231971 47198l0 505916c90014,0 162985,-113254 162985,-252958 0,-139707 -72971,-252959 -162985,-252959z"/>
   <path class="fil2" d="M352680 202246l-120708 0 0 -155049c-90015,0 -162985,113252 -162985,252959 0,139704 72971,252958 162985,252958l0 -81439c57121,-18531 129886,-103576 129886,-211740 0,-31887 -9178,-57688 -9178,-57688z"/>
   <path class="fil1" d="M111263 202246c0,0 -9179,25802 -9179,57688 0,108164 72766,193210 129887,211741l0 -269429 -120708 0z"/>
   <path class="fil0" d="M351038 174562c0,5335 -3549,8202 -7798,8202 -4250,0 -7801,-2866 -7801,-8202 0,-5336 3550,-8201 7801,-8201 4249,0 7798,2865 7798,8201zm-87396 325970c0,4695 -3100,8201 -6800,8201 -3699,0 -6799,-3506 -6799,-8201 0,-4696 3100,-8201 6799,-8201 3700,0 6800,3505 6800,8201zm-9899 0c0,2257 924,4604 3100,4604 2174,0 3099,-2347 3099,-4604 0,-2257 -925,-4603 -3099,-4603 -2176,1 -3100,2348 -3100,4603zm-8073 4422c400,0 550,-123 625,-702l300 0 0 5000 -300 0c-51,-579 -250,-701 -749,-701l-11099 0c-324,0 -500,153 -500,701l-301 0c-199,-5670 4825,-7866 8076,-10335 500,-367 725,-701 725,-1404 0,-761 -526,-1583 -1774,-1583 -2326,0 -4201,2042 -4201,2835 0,123 50,305 100,458l-299 275 -2651 -4543 276 -243c99,120 251,243 449,243 276,0 874,-671 1901,-1311 1049,-671 2473,-1310 4374,-1310 2850,0 5425,2195 5425,5244 0,4511 -5100,5090 -7149,7379l6773 0zm-26470 -1160l250 153 0 275c25,1067 1600,1524 3224,1524 2099,0 4100,-1372 4300,-4269 -1726,1067 -3025,1586 -4700,1586 -2574,0 -4875,-2043 -4875,-5366 0,-3933 3299,-5366 5974,-5366 4174,0 6950,2591 6950,7927 0,5366 -3550,8476 -7648,8476 -1300,0 -2401,-245 -3199,-518 -802,-276 -1275,-520 -1375,-520 -200,0 -376,92 -576,336l-299 -152 1975 -4086zm1449 -6098c0,1799 1801,2257 2749,2257 950,0 2749,-456 2749,-2257 0,-1797 -1799,-2257 -2749,-2257 -949,0 -2749,459 -2749,2257zm-17172 1616l0 -4909 300 0c0,212 25,732 276,732 125,0 1399,-671 1624,-732l0 -975c0,-427 -300,-519 -500,-550l0 -365 4900 0 0 365c-350,30 -650,123 -650,550l0 14207c0,428 299,519 600,550l0 366 -4976 0 0 -366c325,-32 625,-122 625,-550l0 -9695c-1724,519 -1875,549 -1900,1371l-300 0 0 1zm121189 -316732l0 -367c625,-60 700,-274 700,-548l0 -14208c0,-274 -75,-487 -700,-548l0 -365 5151 0 0 365c-626,61 -700,274 -700,548l0 14208c0,274 74,488 700,548l0 367 -5151 0zm-8221 -10122l-251 -213c25,-122 50,-245 50,-458 0,-610 -1924,-1403 -4049,-1403 -2024,0 -4650,1068 -4650,4177 0,3110 2625,4176 4650,4176 875,0 4200,-823 4200,-1707 0,-182 -100,-305 -150,-456l276 -214 2573 4787 -300 213c-74,-213 -174,-245 -349,-245 -500,0 -2825,1646 -6550,1646 -4000,0 -8247,-2744 -8247,-8202 0,-5458 4247,-8201 8247,-8201 1999,0 3425,305 4424,640 975,335 1475,579 1725,579 149,0 275,-92 375,-243l274 92 -2249 5031zm-26572 6403l8599 0c275,0 374,-153 449,-853l300 0 0 5365 -300 0c-75,-640 -174,-792 -449,-792l-13049 0 0 -367c624,-60 700,-274 700,-548l0 -14209c0,-274 -76,-487 -700,-548l0 -365 5150 0 0 365c-626,61 -700,274 -700,548l0 11403zm-20847 244c-650,2226 -800,2621 -800,2805 0,184 100,305 450,305l0 367 -4425 0 0 -367c350,-92 500,-213 650,-701 225,-701 4449,-14116 4449,-14298 0,-213 -274,-274 -498,-305l0 -365 6524 0 0 365c-275,31 -449,92 -449,397 0,243 3074,9359 4624,13994 250,732 400,915 700,915l0 367 -4923 0 0 -367c349,-30 474,-182 474,-367 0,-122 -750,-2347 -849,-2744l-5926 0zm624 -2439l4649 0 -2425 -7255 -2225 7255zm-12345 -4208l-251 -213c25,-122 51,-245 51,-458 0,-610 -1925,-1403 -4050,-1403 -2024,0 -4650,1068 -4650,4177 0,3110 2625,4176 4650,4176 875,0 4198,-823 4198,-1707 0,-182 -98,-305 -148,-456l275 -214 2573 4787 -299 213c-75,-213 -174,-245 -350,-245 -500,0 -2825,1646 -6549,1646 -3999,0 -8249,-2744 -8249,-8202 0,-5458 4250,-8201 8249,-8201 2000,0 3424,305 4425,640 974,335 1474,579 1724,579 150,0 275,-92 375,-243l274 92 -2249 5031zm-33921 10122l0 -367c624,-60 698,-274 698,-548l0 -14208c0,-274 -74,-487 -698,-548l0 -365 5149 0 0 365c-624,61 -699,274 -699,548l0 14208c0,274 76,488 699,548l0 367 -5148 0zm-12872 -915c0,274 75,488 700,548l0 367 -5149 0 0 -367c624,-60 699,-274 699,-548l0 -14208c0,-274 -75,-487 -699,-548l0 -365 9148 0c3700,0 5276,1585 5276,5060 0,2805 -1501,4299 -3576,5000l2951 5062c225,396 449,548 724,548l0 367 -5199 0 0 -367c350,-30 550,-182 550,-548 0,-275 -2650,-4482 -2975,-5122l-2449 0 0 5122 -1 0zm0 -8355l4200 0c1474,0 1924,-792 1924,-1677 0,-885 -449,-1677 -1924,-1677l-4200 0 0 3354zm-17722 5794c-650,2226 -799,2621 -799,2805 0,184 99,305 449,305l0 367 -4424 0 0 -367c349,-92 500,-213 650,-701 225,-701 4449,-14116 4449,-14298 0,-213 -274,-274 -500,-305l0 -365 6524 0 0 365c-275,31 -450,92 -450,397 0,243 3074,9359 4624,13994 251,732 400,915 699,915l0 367 -4924 0 0 -367c350,-30 475,-182 475,-367 0,-122 -749,-2347 -849,-2744l-5924 0zm625 -2439l4649 0 -2424 -7255 -2225 7255zm-12848 5915l0 -367c624,-60 700,-274 700,-548l0 -14208c0,-274 -76,-487 -700,-548l0 -365 5149 0 0 365c-625,61 -699,274 -699,548l0 14208c0,274 75,488 699,548l0 367 -5149 0zm-11498 -3720l8599 0c274,0 375,-153 450,-853l300 0 0 5365 -300 0c-75,-640 -175,-792 -450,-792l-13048 0 0 -367c625,-60 700,-274 700,-548l0 -14209c0,-274 -75,-487 -700,-548l0 -365 5150 0 0 365c-625,61 -700,274 -700,548l0 11403zm-10474 -2104l-3223 0c-276,0 -350,245 -375,609l-300 0 0 -4268 300 0c25,396 99,549 375,549l7374 0 0 367c-300,30 -400,182 -400,518l0 5062c0,274 50,519 300,519l125 0 0 366c-2250,1524 -4975,2287 -8049,2287 -4176,0 -8124,-2683 -8124,-8202 0,-5519 3949,-8201 8124,-8201 1649,0 2374,152 4073,731 825,274 1625,792 1825,792 150,0 274,-122 350,-244l300 122 -1625 4024 -300 -213c25,-61 50,-183 50,-336 0,-579 -2475,-1463 -4550,-1463 -2375,0 -4549,1556 -4549,4848 0,3292 2623,4726 4799,4726 1375,0 2475,-213 3500,-579l-1 -2013zm-24296 2348c-649,2226 -800,2621 -800,2805 0,184 101,305 451,305l0 367 -4426 0 0 -367c350,-92 500,-213 650,-701 225,-701 4449,-14116 4449,-14298 0,-213 -274,-274 -500,-305l0 -365 6524 0 0 365c-275,31 -450,92 -450,397 0,243 3075,9359 4626,13994 250,732 400,915 700,915l0 367 -4925 0 0 -367c350,-30 475,-182 475,-367 0,-122 -749,-2347 -849,-2744l-5926 0zm625 -2439l4649 0 -2424 -7255 -2225 7255zm-9223 -4208l-250 -213c25,-122 49,-245 49,-458 0,-610 -1924,-1403 -4049,-1403 -2025,0 -4650,1068 -4650,4177 0,3110 2625,4176 4650,4176 875,0 4201,-823 4201,-1707 0,-182 -101,-305 -151,-456l276 -214 2574 4787 -300 213c-75,-213 -175,-245 -350,-245 -500,0 -2825,1646 -6549,1646 -3999,0 -8249,-2744 -8249,-8202 0,-5458 4250,-8201 8249,-8201 1999,0 3424,305 4425,640 975,335 1474,579 1724,579 150,0 275,-92 375,-243l274 92 -2249 5031zm213437 2104c0,2866 1923,4482 4100,4482 2173,0 4098,-1616 4098,-4482 0,-2866 -1925,-4482 -4098,-4482 -2177,0 -4100,1616 -4100,4482z"/>
   <polygon class="fil3" points="175185,251657 175185,365230 288757,365230 288757,357118 288757,251657 "/>
   <polygon class="fil0" points="180593,257066 180593,359821 283348,359821 283348,357118 283348,257066 "/>
   <path class="fil3" d="M234676 305739l43265 0 0 -43267 -43265 0 0 43267zm-48676 48676l43269 0 0 -43267 -43269 0 0 43267zm48676 0l43265 0 0 -43267 -43265 0 0 43267zm-48676 -48676l43269 0 0 -43267 -43269 0 0 43267z"/>
   <path class="fil0" d="M229269 305739l5406 0 0 -43267 -5406 0 0 43267zm0 48676l5406 0 0 -43267 -5406 0 0 43267z"/>
   <path class="fil4" d="M273043 277386c0,-6333 -5201,-13795 -15507,-13795 -10628,0 -14827,4458 -14827,11953 0,364 -14,719 -30,1066 8029,-1501 17254,1845 20574,6641 0,0 -12403,-1216 -21465,-1386 -926,3068 -2215,4943 -2215,5890 0,1196 3521,1389 3521,2197 0,347 -127,495 -127,778 0,579 1047,854 1047,1073 0,389 -1091,498 -1091,1114 0,212 460,1243 658,1725 1137,2763 1717,2657 4066,2657 0,0 1699,752 5366,1052 418,3747 3389,6267 4555,6267 399,0 517,-284 1200,-1023 605,-655 1648,-1554 3701,-2982 1319,-918 3187,-1923 5499,-3343 1296,-793 4299,-2083 4299,-2826 0,-920 -1421,-1842 -1421,-5429 -1,-5555 2197,-6392 2197,-11628zm-48675 48674c0,-6334 -5202,-13795 -15507,-13795 -10628,0 -14827,4458 -14827,11953 0,364 -14,718 -30,1065 8028,-1500 17253,1847 20573,6641 0,0 -12402,-1215 -21465,-1384 -926,3068 -2215,4943 -2215,5890 0,1196 3521,1390 3521,2196 0,347 -127,495 -127,779 0,579 1048,854 1048,1072 0,390 -1091,499 -1091,1116 0,212 461,1243 658,1723 1137,2763 1717,2658 4066,2658 0,0 1698,752 5365,1052 420,3747 3390,6267 4555,6267 397,0 517,-284 1199,-1023 606,-654 1648,-1555 3703,-2983 1317,-917 3186,-1923 5496,-3342 1297,-795 4299,-2084 4299,-2827 0,-919 -1420,-1841 -1420,-5429 1,-5556 2198,-6393 2198,-11628zm48675 0c0,-6334 -5201,-13795 -15507,-13795 -10628,0 -14827,4458 -14827,11953 0,364 -14,718 -30,1065 8029,-1500 17254,1847 20574,6641 0,0 -12403,-1215 -21465,-1384 -926,3068 -2215,4943 -2215,5890 0,1196 3521,1390 3521,2196 0,347 -127,495 -127,779 0,579 1047,854 1047,1072 0,390 -1091,499 -1091,1116 0,212 460,1243 658,1723 1137,2763 1717,2658 4066,2658 0,0 1699,752 5366,1052 418,3747 3389,6267 4555,6267 399,0 517,-284 1200,-1023 605,-654 1648,-1555 3701,-2983 1319,-917 3187,-1923 5499,-3342 1296,-795 4299,-2084 4299,-2827 0,-919 -1421,-1841 -1421,-5429 -1,-5556 2197,-6393 2197,-11628zm-48675 -48674c0,-6333 -5202,-13795 -15507,-13795 -10628,0 -14827,4458 -14827,11953 0,364 -14,719 -30,1066 8028,-1501 17253,1845 20573,6641 0,0 -12402,-1216 -21465,-1386 -926,3068 -2215,4943 -2215,5890 0,1196 3521,1389 3521,2197 0,347 -127,495 -127,778 0,579 1048,854 1048,1073 0,389 -1091,498 -1091,1114 0,212 461,1243 658,1725 1137,2763 1717,2657 4066,2657 0,0 1698,752 5365,1052 420,3747 3390,6267 4555,6267 397,0 517,-284 1199,-1023 606,-655 1648,-1554 3703,-2982 1317,-918 3186,-1923 5496,-3343 1297,-793 4299,-2083 4299,-2826 0,-920 -1420,-1842 -1420,-5429 1,-5555 2198,-6392 2198,-11628z"/>
  </g>
 </g>
</svg>
