<?xml version="1.0" encoding="UTF-8" standalone="no"?>
<!-- Created with Inkscape (http://www.inkscape.org/) -->
<svg
   xmlns:dc="http://purl.org/dc/elements/1.1/"
   xmlns:cc="http://web.resource.org/cc/"
   xmlns:rdf="http://www.w3.org/1999/02/22-rdf-syntax-ns#"
   xmlns:svg="http://www.w3.org/2000/svg"
   xmlns="http://www.w3.org/2000/svg"
   xmlns:sodipodi="http://inkscape.sourceforge.net/DTD/sodipodi-0.dtd"
   xmlns:inkscape="http://www.inkscape.org/namespaces/inkscape"
   height="400pt"
   width="400pt"
   id="svg5517"
   sodipodi:version="0.32"
   inkscape:version="0.43"
   sodipodi:docbase="/home/michal/Desktop/graph/wikisvg/final"
   sodipodi:docname="empoli.svg"
   version="1.0">
  <defs
     id="defs5519" />
  <sodipodi:namedview
     id="base"
     pagecolor="#ffffff"
     bordercolor="#666666"
     borderopacity="1.0"
     inkscape:pageopacity="0.0"
     inkscape:pageshadow="2"
     inkscape:cx="252.88374"
     inkscape:cy="362.29193"
     inkscape:zoom="1.0453941"
     inkscape:document-units="px"
     inkscape:current-layer="layer2"
     inkscape:window-width="1020"
     inkscape:window-height="695"
     inkscape:window-x="0"
     inkscape:window-y="24" />
  <metadata
     id="metadata5522">
    <rdf:RDF>
      <cc:Work
         rdf:about="">
        <dc:format>image/svg+xml</dc:format>
        <dc:type
           rdf:resource="http://purl.org/dc/dcmitype/StillImage" />
      </cc:Work>
    </rdf:RDF>
  </metadata>
  <g
     inkscape:groupmode="layer"
     id="layer2"
     inkscape:label="svg"
     style="display:inline">
    <path
       style="fill:#ffffff;fill-opacity:1;fill-rule:nonzero;stroke:#0066b4;stroke-width:2.49999809;stroke-linecap:round;stroke-miterlimit:4;stroke-dasharray:none;stroke-opacity:1"
       d="M 252.89494,497.56591 C 252.89494,497.56591 161.91435,416.95693 103.11348,268.64496 C 44.182632,120.00516 48.09999,52.559657 48.09999,52.559657 C 48.09999,52.559657 139.26173,7.5531852 252.12003,7.4289869 C 365.92859,7.3047898 457.72143,52.062867 457.72143,52.062867 C 457.72143,52.062867 453.94088,146.92432 404.9578,271.73108 C 355.65171,397.36085 252.89494,497.56591 252.89494,497.56591 z "
       id="path5536"
       sodipodi:nodetypes="czczczc" />
    <path
       style="fill:#0066b3;fill-opacity:1;fill-rule:nonzero;stroke:none;stroke-width:2.5;stroke-linecap:round;stroke-miterlimit:4;stroke-opacity:1"
       d="M 254.31672,20.632048 C 147.18542,20.757099 62.51273,58.791861 62.51273,58.791869 C 62.512731,58.791866 63.971001,77.224884 66.970292,96.230237 C 69.969575,115.23558 74.494037,134.80231 74.494037,134.80232 C 74.494038,134.80232 158.21495,100.01948 254.41979,100.81664 C 351.03806,101.61379 431.20206,134.69926 431.20205,134.69926 C 431.20206,134.69926 436.84914,117.11044 439.34419,96.668258 C 441.84213,76.202244 443.67291,59.436033 443.67291,59.436025 C 443.67292,59.436022 362.4046,20.506997 254.31672,20.632048 z M 237.54289,36.555592 C 237.65643,36.550445 237.76313,36.558189 237.87785,36.555592 C 237.99533,36.552926 238.11988,36.555592 238.23857,36.555592 C 243.43068,36.555647 247.43676,38.952241 250.24565,43.71861 C 253.05449,48.460885 254.44552,55.096681 254.44555,63.66169 C 254.44554,69.879826 253.85031,75.000441 252.61614,78.992607 C 251.39613,82.960611 249.60903,86.042526 247.28254,88.268463 C 244.97019,90.470209 242.08647,91.592309 238.62507,91.592309 C 235.1069,91.592319 232.20263,90.617895 229.89031,88.706484 C 227.59216,86.795074 225.70606,83.774124 224.27327,79.636766 C 222.84046,75.499437 222.13467,70.317852 222.13467,64.099717 C 222.13467,55.413725 223.54887,48.660726 226.3861,43.821675 C 229.09187,39.206892 232.81173,36.769942 237.54289,36.555592 z M 262.45886,37.612008 L 272.01813,37.946969 L 270.54946,77.755832 L 285.46812,78.296927 L 284.97856,91.308884 L 260.52639,90.407066 L 262.45886,37.612008 z M 204.14982,38.797256 C 204.1694,38.796428 204.18179,38.797902 204.20135,38.797256 C 207.52928,38.687254 210.16847,39.838188 212.13736,42.224167 C 214.30668,44.833029 215.66748,48.706165 216.18266,53.870515 C 216.71211,59.178394 216.0887,63.430767 214.3275,66.62481 C 212.58161,69.817377 209.5975,71.641463 205.38661,72.061489 L 199.6665,72.628347 L 201.62473,92.133404 L 191.13786,93.189817 L 185.88155,40.600893 L 203.248,38.874555 C 203.55259,38.844174 203.85615,38.809691 204.14982,38.797256 z M 292.63114,39.38988 L 302.83458,40.085569 L 299.97452,92.85486 L 289.0754,92.107638 L 292.63114,39.38988 z M 175.42046,41.992272 L 186.39687,94.168932 L 176.86336,96.178705 L 168.48933,56.395607 L 169.44268,97.750448 L 160.81098,99.554078 L 145.0678,61.316961 L 153.44183,101.10006 L 143.85679,103.10982 L 132.90613,50.933161 L 148.26282,47.71238 L 160.88829,78.219619 L 160.1153,45.213054 L 175.42046,41.992272 z M 329.32228,42.095337 L 354.05789,45.676845 L 352.40885,57.117062 L 337.72208,54.978464 L 336.38224,64.280081 L 348.93041,66.083718 L 347.35866,76.854015 L 334.81049,75.024613 L 331.66701,96.771322 L 321.61817,95.328419 L 329.32228,42.095337 z M 237.87785,49.000692 C 236.09907,49.137189 234.65404,50.328318 233.54912,52.530669 C 232.37166,54.87763 231.77124,58.757353 231.77124,64.177016 C 231.77122,69.548327 232.36008,73.399158 233.52336,75.74606 C 234.70079,78.092997 236.30143,79.276052 238.31588,79.276042 C 240.38703,79.276042 241.97349,78.121901 243.1084,75.823367 C 244.24326,73.524848 244.80895,69.407557 244.80898,63.455561 C 244.80895,58.447209 244.22271,54.803467 243.0311,52.504903 C 241.85363,50.182211 240.24141,49.000734 238.21281,49.000692 C 238.16725,49.00069 238.1291,48.999406 238.08398,49.000692 C 238.01052,49.002792 237.95016,48.995144 237.87785,49.000692 z M 200.80021,49.902512 C 200.67381,49.913234 200.54713,49.94074 200.41372,49.954044 L 197.4506,50.237473 L 198.61008,61.961118 L 201.16093,61.729221 C 203.17418,61.528424 204.55055,60.825119 205.25778,59.667922 C 205.96255,58.486877 206.22585,57.062545 206.05653,55.364957 C 205.89195,53.715255 205.40925,52.345293 204.58785,51.268123 C 203.83059,50.275183 202.56963,49.814659 200.85174,49.902512 C 200.83355,49.903441 200.81827,49.900979 200.80021,49.902512 z M 382.09157,52.221474 C 382.0974,52.221422 382.11601,52.221309 382.11734,52.221474 C 382.12589,52.221455 382.16003,52.221218 382.16887,52.221474 C 382.23329,52.216178 382.31035,52.222843 382.375,52.221474 C 383.90074,52.189184 385.48781,52.426673 387.11599,52.891397 C 391.22981,54.065684 394.08689,56.2863 395.69616,59.53909 C 397.32022,62.7962 397.93498,67.260556 397.55132,72.937542 L 387.76015,73.452867 C 387.88931,71.818644 387.89762,70.606541 387.76015,69.794059 C 387.53808,68.433724 387.10431,67.323392 386.47183,66.444446 C 385.83932,65.565566 385.00814,64.980634 383.99827,64.692341 C 381.71114,64.039544 379.56503,64.962948 377.53094,67.475097 C 376.0045,69.334093 374.57634,72.542539 373.27951,77.085908 C 371.67324,82.713286 371.13051,86.732099 371.63047,89.144515 C 372.13698,91.533888 373.37647,93.008277 375.36658,93.576316 C 377.29726,94.127408 379.00752,93.691812 380.4683,92.287999 C 381.94389,90.888423 383.35911,88.667355 384.71973,85.588776 L 392.37231,92.262233 C 390.67885,95.944169 388.82128,98.881578 386.8068,101.10006 C 384.79226,103.31852 382.66718,104.8114 380.391,105.58338 C 378.12962,106.35961 375.5353,106.3412 372.60959,105.50609 C 369.0601,104.49294 366.3737,102.87195 364.57052,100.63626 C 362.78876,98.381748 361.65099,94.986682 361.16937,90.484364 C 360.68772,85.982046 361.3562,80.599351 363.15337,74.303157 C 365.54958,65.908294 368.82029,59.868635 372.97032,56.189478 C 375.7404,53.733848 378.73951,52.410438 381.98851,52.247241 C 381.99813,52.247279 382.02985,52.24677 382.04004,52.247241 C 382.04325,52.247197 382.06281,52.247471 382.06581,52.247241 C 382.06848,52.244344 382.08928,52.22384 382.09157,52.221474 z M 124.06831,53.200592 L 126.90259,63.893587 L 113.01458,67.578161 L 115.12742,75.565698 L 128.01055,72.138788 L 130.74177,82.367995 L 117.83287,85.794904 L 120.46103,95.663377 L 134.7613,91.875734 L 137.77596,103.23866 L 115.17895,109.21643 L 101.88356,59.075297 L 124.06831,53.200592 z M 344.36977,86.001031 L 354.26401,87.933506 L 351.58433,101.58961 L 341.71585,99.631378 L 344.36977,86.001031 z M 395.15506,97.544308 L 404.86894,100.24977 L 401.13283,113.64822 L 391.41895,110.94277 L 395.15506,97.544308 z "
       id="path6412"
       sodipodi:nodetypes="cssccssszcsscsccscssscccccccccscscccccccccccccccccccccccccccccccccccccccsscssscsscccccccsssccsssscccssscscscccscscsssssscccccccccccccccccccccccc" />
    <path
       style="fill:#0066b3;fill-opacity:1;fill-rule:nonzero;stroke:none;stroke-width:2.5;stroke-linecap:round;stroke-miterlimit:4;stroke-opacity:1"
       d="M 248.28493,113.63136 C 150.66049,114.65234 76.990886,147.4367 76.990886,147.43669 C 76.990886,147.43669 94.040734,230.76251 141.09732,324.16742 L 363.64045,324.16742 C 410.55621,231.30137 428.72602,147.4367 428.72601,147.43669 C 428.72601,147.43669 352.87283,113.63113 252.94863,113.63136 C 251.77761,113.63136 250.60879,113.62219 249.44442,113.63136 C 249.06084,113.63439 248.66778,113.62735 248.28493,113.63136 z M 252.02104,149.21456 C 252.04653,149.21342 252.09855,149.21548 252.12411,149.21456 C 252.1497,149.21352 252.20152,149.21538 252.22717,149.21456 C 252.25286,149.21361 252.30449,149.21528 252.33023,149.21456 C 252.33239,149.21437 252.35063,149.21449 252.356,149.21456 C 252.37315,149.21469 252.39035,149.21433 252.40753,149.21456 C 252.4129,149.21462 252.43113,149.21473 252.4333,149.21456 C 252.43549,149.21439 252.45371,149.2145 252.45906,149.21456 C 252.47619,149.21466 252.49344,149.21435 252.5106,149.21456 C 252.51595,149.2146 252.53418,149.2147 252.53636,149.21456 C 252.71851,149.20294 252.8924,149.21456 253.07746,149.21456 C 257.81482,149.21455 261.65763,153.08313 261.65762,157.82049 C 261.65763,161.29949 259.58468,164.30697 256.60744,165.65342 L 317.51886,165.65342 L 317.51886,169.62143 L 190.31086,169.62143 L 190.31086,165.65342 L 249.54748,165.65342 C 246.57025,164.30697 244.4973,161.29949 244.4973,157.82049 C 244.49729,153.44325 247.78443,149.7445 252.02104,149.21456 z M 252.7425,153.36292 C 252.7402,153.3653 252.71939,153.38582 252.71673,153.38869 C 250.44771,153.56152 248.64567,155.48168 248.64567,157.79472 C 248.64567,160.22152 250.62489,162.17498 253.05169,162.17498 C 255.47849,162.17498 257.43197,160.22153 257.43196,157.79472 C 257.43196,155.36792 255.47849,153.38868 253.05169,153.38869 C 253.04547,153.38869 253.03205,153.38891 253.02592,153.38869 C 252.95343,153.38385 252.86527,153.36548 252.79403,153.36292 C 252.78802,153.36293 252.77435,153.36267 252.76826,153.36292 C 252.76532,153.36277 252.74484,153.36295 252.7425,153.36292 z M 238.62259,177.5832 C 238.62771,177.5833 238.64564,177.58332 238.64835,177.5832 C 238.67061,177.58337 238.7045,177.58284 238.72565,177.5832 C 238.72815,177.58313 238.74618,177.58312 238.75142,177.5832 C 238.7538,177.58295 238.77192,177.58312 238.77718,177.5832 C 238.79933,177.58336 238.83389,177.5838 238.85449,177.5832 C 238.85984,177.58328 238.87803,177.58329 238.88026,177.5832 C 238.90281,177.58332 238.93799,177.58366 238.95755,177.5832 C 238.96062,177.58293 238.97841,177.58309 238.98332,177.5832 C 239.01937,177.58241 239.06366,177.58265 239.08638,177.5832 C 239.09113,177.58345 239.10701,177.58324 239.11215,177.5832 C 239.11693,177.58308 239.13422,177.58324 239.13792,177.5832 C 239.13792,177.58319 243.6941,178.06632 246.35247,180.23713 C 249.01084,182.40794 249.77938,186.26643 249.77938,186.26643 L 249.80514,205.95185 L 256.22094,205.95185 L 256.29824,186.44679 C 256.29823,186.44678 257.07816,182.32536 259.77668,180.13406 C 261.92338,178.39088 265.27038,177.83109 266.55321,177.68627 C 266.55833,177.68636 266.57626,177.68638 266.57898,177.68627 C 266.60124,177.68643 266.63512,177.6859 266.65627,177.68627 C 266.65877,177.6862 266.67679,177.68619 266.68204,177.68627 C 266.68442,177.68602 266.70254,177.68619 266.7078,177.68627 C 266.72995,177.68642 266.7645,177.68686 266.7851,177.68627 C 266.79046,177.68634 266.80865,177.68635 266.81087,177.68627 C 266.83344,177.68638 266.86861,177.68672 266.88817,177.68627 C 266.9702,177.67896 267.03506,177.68387 267.06854,177.68627 C 267.07138,177.68631 267.09164,177.68632 267.0943,177.68627 C 267.09429,177.68627 271.65048,178.16938 274.30885,180.3402 C 276.96723,182.51102 277.73576,186.3695 277.73576,186.3695 L 277.76153,205.95185 L 283.91966,205.95185 L 283.99696,186.3695 C 283.99696,186.36949 284.80266,182.27383 287.50117,180.08253 C 289.72453,178.27709 293.23683,177.73393 294.40652,177.60897 C 294.40889,177.60871 294.42701,177.60888 294.43229,177.60897 C 294.45447,177.60913 294.48911,177.60955 294.5096,177.60897 C 294.51495,177.60905 294.53315,177.60906 294.53536,177.60897 C 294.55797,177.60908 294.59322,177.60941 294.61266,177.60897 C 294.62323,177.60857 294.65457,177.60855 294.66419,177.60897 C 294.66721,177.60903 294.68702,177.60903 294.68996,177.60897 C 294.71831,177.60668 294.75135,177.60879 294.76726,177.60897 C 294.77134,177.60916 294.79008,177.60872 294.79302,177.60897 C 294.79302,177.60898 299.34921,178.09209 302.00757,180.2629 C 304.66594,182.43372 305.43448,186.2922 305.43448,186.2922 L 305.46025,205.95185 L 316.69434,205.95185 L 316.69434,209.2757 L 188.79065,209.2757 L 188.79065,205.95185 L 200.437,205.95185 L 200.5143,186.62716 C 200.5143,186.62715 201.29423,182.50573 203.99274,180.31443 C 206.13943,178.57124 209.48643,178.01145 210.76927,177.86664 C 210.77439,177.86674 210.79233,177.86675 210.79504,177.86664 C 210.8173,177.8668 210.85117,177.86626 210.87234,177.86664 C 210.87483,177.86656 210.89286,177.86655 210.8981,177.86664 C 210.90049,177.86639 210.9186,177.86655 210.92387,177.86664 C 210.946,177.86679 210.98057,177.86723 211.00117,177.86664 C 211.00652,177.86671 211.02471,177.86672 211.02693,177.86664 C 211.0495,177.86675 211.08467,177.86708 211.10423,177.86664 C 211.10731,177.86636 211.1251,177.86653 211.13,177.86664 C 211.16606,177.86585 211.21034,177.86607 211.23306,177.86664 C 211.23781,177.86688 211.25369,177.86667 211.25882,177.86664 C 211.26361,177.86651 211.2809,177.86667 211.28459,177.86664 C 211.28459,177.86664 215.84078,178.34975 218.49914,180.52056 C 221.15752,182.69138 221.92606,186.54986 221.92606,186.54986 L 221.95183,205.95185 L 228.29032,205.95185 L 228.34185,186.34373 C 228.34185,186.34373 229.14755,182.2223 231.84607,180.031 C 233.99276,178.28782 237.33975,177.72803 238.62259,177.5832 z M 187.70847,211.67196 L 318.39491,211.67196 L 318.39491,215.02157 L 258.17917,215.02157 C 263.0854,217.02196 266.55321,221.84502 266.55321,227.46667 C 266.55321,232.26581 264.0316,236.47454 260.24048,238.85535 L 353.07629,238.85535 L 353.07629,242.3338 L 152.4087,242.3338 L 152.4087,238.85535 L 245.96597,238.85535 C 242.18686,236.47364 239.67901,232.26247 239.67901,227.46667 C 239.67901,221.88073 243.1125,217.06025 247.97574,215.02157 L 187.70847,215.02157 L 187.70847,211.67196 z M 251.91798,219.71103 C 248.01173,220.2439 245.03838,223.67296 245.03838,227.72433 C 245.03838,232.14269 248.63333,235.71187 253.05169,235.71187 C 257.47005,235.71187 261.06501,232.14269 261.065,227.72433 C 261.065,223.30598 257.47003,219.71102 253.05169,219.71103 C 252.91361,219.71103 252.7758,219.70411 252.63943,219.71103 C 252.57338,219.71439 252.49892,219.70607 252.4333,219.71103 C 252.40805,219.7116 252.35543,219.71024 252.33023,219.71103 C 252.30507,219.7117 252.25227,219.71014 252.22717,219.71103 C 252.20211,219.71179 252.14911,219.71006 252.12411,219.71103 C 252.09913,219.71188 252.04596,219.70997 252.02104,219.71103 C 251.99616,219.71196 251.94279,219.7099 251.91798,219.71103 z M 200.28241,219.91716 C 200.43194,219.90599 201.65689,219.82717 202.39523,220.38095 C 202.71711,220.62236 202.93366,220.71118 203.06516,220.81898 C 203.06984,220.82336 203.08641,220.84015 203.09092,220.84475 C 203.0942,220.84837 203.10987,220.86367 203.11669,220.87051 C 203.12109,220.8793 203.13819,220.91294 203.14246,220.92204 C 203.24957,221.10745 203.32359,221.46266 203.42589,222.28766 L 203.32282,226.02376 L 199.09715,225.99799 C 199.09738,225.99536 199.09733,225.97508 199.09715,225.97223 C 199.01224,225.77109 198.41377,224.60696 195.56718,222.77721 C 192.70583,220.93797 186.93836,220.08152 185.90484,219.94293 L 200.28241,219.91716 z M 304.81609,220.20059 C 304.82542,220.19754 304.8326,220.20347 304.84186,220.20059 C 304.84398,220.20067 304.86559,220.20022 304.86762,220.20059 C 304.86868,220.20063 304.88747,220.20064 304.89339,220.20059 C 304.89445,220.20063 304.91324,220.20064 304.91916,220.20059 C 304.9202,220.20063 304.93899,220.20064 304.94492,220.20059 C 304.94597,220.20062 304.96476,220.20064 304.9707,220.20059 C 304.97173,220.20062 304.99051,220.20064 304.99646,220.20059 C 304.99749,220.20062 305.01627,220.20063 305.02223,220.20059 C 305.0243,220.20065 305.04617,220.20032 305.04799,220.20059 C 305.05005,220.20065 305.07198,220.20032 305.07376,220.20059 C 305.08329,220.19998 305.11534,220.19985 305.12529,220.20059 C 305.12852,220.20067 305.14792,220.20072 305.15106,220.20059 C 305.16075,220.20004 305.19284,220.19995 305.20259,220.20059 C 305.2058,220.20067 305.22518,220.20071 305.22836,220.20059 C 305.23347,220.2007 305.25144,220.20072 305.25412,220.20059 C 305.27604,220.20063 305.31007,220.20011 305.33142,220.20059 C 305.334,220.20054 305.352,220.20052 305.35719,220.20059 C 305.36009,220.20035 305.37794,220.2005 305.38295,220.20059 C 305.40473,220.20057 305.43931,220.20018 305.46025,220.20059 C 305.46554,220.20054 305.48063,220.20086 305.48602,220.20059 C 305.76115,220.18676 305.97943,220.21861 306.02711,220.22635 L 320.37892,220.25212 C 319.34687,220.3883 313.57794,221.22141 310.71657,223.06065 C 307.86997,224.89038 307.29707,226.05619 307.21235,226.25566 C 307.21219,226.2585 307.21214,226.27877 307.21235,226.28143 L 302.96092,226.30719 L 302.85786,222.57108 C 302.9531,221.80299 303.02158,221.45152 303.11552,221.257 C 303.12843,221.2355 303.15672,221.19463 303.16705,221.1797 C 303.17161,221.17516 303.18822,221.15841 303.19282,221.15394 C 303.20527,221.14125 303.23167,221.11497 303.24435,221.1024 C 303.24604,221.10084 303.26452,221.08234 303.27012,221.07664 C 303.39993,220.98512 303.59316,220.91166 303.88851,220.69015 C 303.91042,220.67371 303.94304,220.65403 303.96581,220.63862 C 304.2062,220.48112 304.52696,220.29514 304.81609,220.20059 z M 212.49561,222.08152 C 212.50143,222.08147 212.52005,222.08136 212.52138,222.08152 C 212.5299,222.0815 212.56407,222.08127 212.57291,222.08152 C 212.63818,222.07621 212.71623,222.08329 212.77903,222.08152 C 218.01297,221.93491 223.50081,223.52497 224.11619,223.70479 C 223.32894,223.82929 210.74953,225.87646 210.64044,229.47644 C 210.5323,233.04491 218.00688,235.88478 218.88564,236.20143 C 217.43247,236.48829 201.78877,239.3522 203.01363,228.80652 C 203.58704,223.86967 207.84656,222.30869 212.39255,222.10729 C 212.40203,222.10737 212.43383,222.10684 212.44408,222.10729 C 212.44729,222.10725 212.46683,222.10752 212.46984,222.10729 C 212.47251,222.1044 212.49331,222.0839 212.49561,222.08152 z M 290.64466,222.08152 C 290.71565,222.07703 290.77958,222.08553 290.85079,222.08152 C 290.92311,222.07745 290.9844,222.08508 291.05691,222.08152 C 291.13059,222.07791 291.21497,222.0846 291.28882,222.08152 C 291.36382,222.0784 291.44557,222.08407 291.52071,222.08152 C 291.67583,222.07626 291.82899,222.08424 291.9845,222.08152 C 297.07319,221.99255 302.2706,223.30669 302.90939,228.80652 C 304.15369,239.5196 287.99698,236.40587 286.98585,236.20143 C 287.62049,235.97599 295.41854,233.11308 295.30835,229.47644 C 295.19925,225.87646 282.59407,223.82929 281.80683,223.70479 C 282.12957,223.60927 286.17241,222.36482 290.64466,222.08152 z M 251.78915,223.24101 C 251.79789,223.24124 251.83191,223.24073 251.84068,223.24101 C 251.84941,223.24123 251.88346,223.24073 251.89221,223.24101 C 251.90093,223.24122 251.935,223.24074 251.94374,223.24101 C 251.95246,223.24122 251.98655,223.24075 251.99528,223.24101 C 252.00398,223.24121 252.03809,223.24076 252.04681,223.24101 C 252.0555,223.2412 252.08963,223.24077 252.09834,223.24101 C 252.10702,223.24119 252.14118,223.24078 252.14987,223.24101 C 252.15853,223.24119 252.19272,223.24078 252.2014,223.24101 C 252.21007,223.24118 252.24427,223.24079 252.25294,223.24101 C 252.26158,223.24117 252.29582,223.2408 252.30447,223.24101 C 252.3131,223.24116 252.34735,223.24081 252.356,223.24101 C 252.36462,223.24115 252.3989,223.24083 252.40753,223.24101 C 252.41614,223.24113 252.45044,223.24083 252.45906,223.24101 C 252.46767,223.24113 252.50199,223.24084 252.5106,223.24101 C 252.51275,223.24074 252.531,223.24092 252.53636,223.24101 C 252.5535,223.24115 252.57071,223.24066 252.5879,223.24101 C 252.59326,223.24108 252.6115,223.24122 252.61367,223.24101 C 252.61588,223.24078 252.63408,223.24093 252.63943,223.24101 C 252.65652,223.2411 252.67382,223.24071 252.69097,223.24101 C 252.6963,223.24107 252.71452,223.24118 252.71673,223.24101 C 252.80914,223.234 252.90629,223.24219 253.00016,223.24101 C 253.01908,223.24077 253.03271,223.24101 253.05169,223.24101 C 255.48095,223.24101 257.45772,225.21776 257.45772,227.64703 C 257.45772,230.07632 255.48096,232.05307 253.05169,232.05307 C 250.6224,232.05306 248.64567,230.07632 248.64567,227.64703 C 248.64566,225.6361 249.9472,223.78379 251.78915,223.24101 z M 310.17548,230.32673 C 310.17782,230.32674 310.1984,230.3266 310.20124,230.32673 C 310.20349,230.32674 310.22452,230.32663 310.22701,230.32673 C 310.22925,230.32673 310.25027,230.32666 310.25277,230.32673 C 310.27443,230.3263 310.30908,230.32595 310.33007,230.32673 C 310.33542,230.32683 310.35034,230.32679 310.35584,230.32673 C 310.54901,230.32479 310.69778,230.34916 310.74234,230.35249 L 325.09413,230.37826 C 324.06452,230.51685 318.31892,231.3733 315.45756,233.21254 C 312.51281,235.10538 311.98167,236.26932 311.92758,236.40756 L 307.70192,236.45909 L 307.59885,232.72299 C 307.70468,231.86955 307.76793,231.51243 307.88228,231.33161 C 307.88685,231.32709 307.90344,231.31029 307.90804,231.30584 C 307.92105,231.29234 307.9493,231.26414 307.95958,231.25431 C 307.96432,231.25009 307.98042,231.23265 307.98534,231.22855 C 307.98983,231.22395 308.00658,231.20735 308.01111,231.20278 C 308.14297,231.10997 308.34339,231.03088 308.6295,230.81628 C 309.04789,230.50247 309.62726,230.38931 310.07241,230.35249 C 310.08123,230.35273 310.1151,230.35252 310.12394,230.35249 C 310.13275,230.34806 310.1662,230.33153 310.17548,230.32673 z M 195.00032,230.50709 C 195.00267,230.50709 195.02318,230.50696 195.02609,230.50709 C 195.29238,230.49192 196.39826,230.47978 197.08739,230.99665 C 197.38273,231.21815 197.57597,231.29162 197.70577,231.38314 C 197.71491,231.3874 197.74837,231.40451 197.75732,231.40891 C 197.75964,231.41132 197.78076,231.43205 197.78308,231.43467 C 197.79685,231.45252 197.82193,231.4907 197.83461,231.51197 C 197.84131,231.5253 197.855,231.55333 197.86038,231.5635 C 197.95432,231.75802 198.02279,232.1095 198.11804,232.87759 L 198.01497,236.61369 L 193.78931,236.58792 C 193.78953,236.58529 193.78948,236.56502 193.78931,236.56215 C 193.70441,236.36101 193.10593,235.19689 190.25933,233.36714 C 187.39798,231.5279 181.62904,230.69481 180.59698,230.55862 L 194.97455,230.53286 C 194.97696,230.53013 194.99801,230.50943 195.00032,230.50709 z M 147.04933,244.67852 L 358.92522,244.67852 L 358.92522,248.00238 L 254.70073,248.00238 C 257.06944,248.26709 261.5158,249.26968 264.28578,252.6403 C 268.21513,257.42164 268.84641,261.1174 268.84641,261.1174 L 268.84641,265.29153 L 358.89946,265.29153 L 358.89946,268.61538 L 268.84641,268.61538 L 268.87217,310.6659 L 282.37368,310.6659 L 282.45099,287.837 C 282.45099,287.83702 283.35696,282.99746 286.44476,280.41632 C 288.99431,278.28511 293.02529,277.65046 294.35499,277.50473 C 294.36007,277.50483 294.37801,277.50485 294.38076,277.50473 C 294.40314,277.50488 294.43713,277.50435 294.45806,277.50473 C 294.46055,277.50466 294.47859,277.50466 294.48382,277.50473 C 294.48622,277.5045 294.50432,277.50465 294.5096,277.50473 C 294.53202,277.50486 294.56677,277.50525 294.5869,277.50473 C 294.59801,277.50428 294.62942,277.50425 294.63843,277.50473 C 294.64137,277.5048 294.66115,277.5048 294.66419,277.50473 C 294.67457,277.50439 294.70544,277.5044 294.71573,277.50473 C 294.71874,277.50479 294.73637,277.5047 294.74149,277.50473 C 294.74668,277.50479 294.76469,277.50478 294.76726,277.50473 C 294.77668,277.50487 294.78904,277.50455 294.79302,277.50473 C 294.79301,277.50473 299.99637,278.09121 303.03822,280.64822 C 306.0801,283.20523 306.95469,287.73394 306.95469,287.73394 L 306.98046,310.6659 L 316.952,310.6659 L 317.02929,287.837 C 317.02929,287.83702 317.93527,282.99746 321.02306,280.41632 C 323.57263,278.28511 327.6036,277.65046 328.93331,277.50473 C 328.93838,277.50483 328.95632,277.50485 328.95907,277.50473 C 328.98145,277.50488 329.01543,277.50435 329.03637,277.50473 C 329.03886,277.50466 329.0569,277.50466 329.06214,277.50473 C 329.06453,277.5045 329.08264,277.50465 329.0879,277.50473 C 329.11033,277.50486 329.14509,277.50525 329.16521,277.50473 C 329.17633,277.50428 329.20773,277.50425 329.21674,277.50473 C 329.21968,277.5048 329.23947,277.5048 329.24251,277.50473 C 329.25287,277.50439 329.28375,277.5044 329.29404,277.50473 C 329.29706,277.50479 329.31469,277.5047 329.3198,277.50473 C 329.32226,277.50455 329.34034,277.50466 329.34557,277.50473 C 329.36374,277.50446 329.38876,277.50428 329.3971,277.50473 C 329.39711,277.50473 334.60044,278.09121 337.6423,280.64822 C 340.68417,283.20523 341.55877,287.73394 341.55877,287.73394 L 341.58454,310.6659 L 358.92522,310.6659 L 358.92522,313.98975 L 146.9978,313.98975 L 146.9978,310.6659 L 164.41578,310.6659 L 164.49307,287.88854 C 164.49307,287.88855 165.39904,283.04899 168.48684,280.46786 C 171.03095,278.34123 175.07941,277.72504 176.42285,277.58203 C 176.42792,277.58213 176.44586,277.58215 176.44862,277.58203 C 176.47097,277.58218 176.50502,277.58167 176.52592,277.58203 C 176.52841,277.58197 176.54645,277.58196 176.55168,277.58203 C 176.55411,277.58179 176.5722,277.58195 176.57745,277.58203 C 176.59985,277.58216 176.63454,277.58256 176.65475,277.58203 C 176.66594,277.58158 176.69736,277.58155 176.70628,277.58203 C 176.70922,277.5821 176.72899,277.58211 176.73204,277.58203 C 176.73476,277.58181 176.7527,277.58194 176.75782,277.58203 C 176.78787,277.58132 176.81907,277.58136 176.83512,277.58203 C 176.83712,277.58218 176.85527,277.58211 176.86088,277.58203 C 176.86088,277.58202 182.06422,278.14275 185.10608,280.69975 C 188.14795,283.25675 189.02255,287.81124 189.02255,287.81124 L 189.04832,310.6659 L 199.07139,310.6659 L 199.14869,287.96583 C 199.14869,287.96585 200.05465,283.12629 203.14246,280.54515 C 205.67807,278.42561 209.69826,277.80516 211.0527,277.65933 C 211.05777,277.65943 211.07569,277.65945 211.07846,277.65933 C 211.10077,277.65948 211.13487,277.65895 211.15576,277.65933 C 211.15827,277.65926 211.17631,277.65926 211.18153,277.65933 C 211.18398,277.65909 211.20205,277.65925 211.20729,277.65933 C 211.22963,277.65947 211.26425,277.65987 211.28459,277.65933 C 211.37846,277.65073 211.45359,277.65652 211.49073,277.65933 C 211.49361,277.65938 211.51389,277.6594 211.51649,277.65933 C 211.51649,277.65933 216.71983,278.22005 219.76169,280.77705 C 222.80356,283.33405 223.67817,287.88854 223.67817,287.88854 L 223.70393,310.6659 L 237.05084,310.6659 L 237.12814,268.61538 L 147.04933,268.61538 L 147.04933,265.29153 L 166.03905,265.29153 C 161.81351,264.75785 158.54106,261.13274 158.54107,256.7629 C 158.54106,252.17359 162.15084,248.38835 166.68321,248.15698 C 166.82941,248.14951 166.9732,248.15698 167.12124,248.15698 C 171.8586,248.15697 175.70139,252.02554 175.7014,256.7629 C 175.70142,261.13275 172.42896,264.75786 168.20342,265.29153 L 237.15391,265.29153 L 237.15391,260.88551 C 237.15392,260.8855 238.18966,256.61649 242.17834,251.79001 C 244.09955,249.46526 246.75623,248.41217 248.95486,248.00238 L 218.73105,248.00238 C 222.9623,248.53466 226.22901,252.20839 226.22902,256.58254 C 226.22904,261.31989 222.38621,265.1627 217.64886,265.1627 C 212.91152,265.16269 209.06869,261.31989 209.0687,256.58254 C 209.06869,252.20839 212.33541,248.53467 216.56668,248.00238 L 147.04933,248.00238 L 147.04933,244.67852 z M 191.52188,248.02815 C 191.55563,248.02435 191.59107,248.03153 191.62494,248.02815 C 191.65063,248.02721 191.70225,248.02886 191.72801,248.02815 C 191.73015,248.02795 191.74841,248.02808 191.75377,248.02815 C 191.77093,248.02826 191.78813,248.02791 191.8053,248.02815 C 191.81067,248.02819 191.8289,248.0283 191.83107,248.02815 C 191.83326,248.02798 191.85148,248.02809 191.85684,248.02815 C 191.87396,248.02824 191.89122,248.02794 191.90837,248.02815 C 191.91372,248.02819 191.93195,248.02828 191.93413,248.02815 C 191.93635,248.028 191.95456,248.0281 191.9599,248.02815 C 191.977,248.02821 191.99431,248.02796 192.01143,248.02815 C 192.01578,248.02808 192.03277,248.02836 192.0372,248.02815 C 192.10917,248.02449 192.17091,248.02999 192.24334,248.02815 C 192.3169,248.02626 192.40121,248.02815 192.47523,248.02815 C 197.21259,248.02814 201.05539,251.89673 201.05539,256.63407 C 201.0554,261.37143 197.21258,265.21424 192.47523,265.21423 C 187.73788,265.21422 183.89506,261.37144 183.89506,256.63407 C 183.89506,252.22013 187.23454,248.50922 191.52188,248.02815 z M 287.29505,248.07968 C 287.32054,248.07855 287.37255,248.08058 287.39811,248.07968 C 287.4237,248.07864 287.47552,248.08049 287.50117,248.07968 C 287.52686,248.07873 287.57848,248.08038 287.60424,248.07968 C 287.60639,248.07949 287.62464,248.07961 287.63,248.07968 C 287.64716,248.0798 287.66436,248.07944 287.68154,248.07968 C 287.68689,248.07974 287.70513,248.07984 287.7073,248.07968 C 287.70949,248.07951 287.72771,248.07962 287.73307,248.07968 C 287.75019,248.07978 287.76745,248.07947 287.7846,248.07968 C 287.78995,248.07972 287.80818,248.07982 287.81036,248.07968 C 287.88154,248.07517 287.94488,248.08242 288.01649,248.07968 C 288.12651,248.07546 288.24043,248.07968 288.35146,248.07968 C 293.08882,248.07967 296.93163,251.94826 296.93163,256.6856 C 296.93164,261.42296 293.08882,265.26578 288.35146,265.26577 C 283.61411,265.26576 279.7713,261.42297 279.77129,256.6856 C 279.77128,252.3067 283.05653,248.60758 287.29505,248.07968 z M 312.54597,248.07968 C 312.57146,248.07855 312.62347,248.08058 312.64904,248.07968 C 312.67463,248.07864 312.72644,248.08048 312.7521,248.07968 C 312.7778,248.07874 312.82941,248.08039 312.85516,248.07968 C 312.85732,248.07949 312.87556,248.07961 312.88093,248.07968 C 312.89808,248.0798 312.91529,248.07944 312.93246,248.07968 C 312.93783,248.07974 312.95606,248.07984 312.95823,248.07968 C 312.96041,248.07951 312.97864,248.07962 312.98399,248.07968 C 313.00113,248.07978 313.01838,248.07947 313.03553,248.07968 C 313.04088,248.07972 313.05911,248.07982 313.0613,248.07968 C 313.06351,248.07954 313.08171,248.07963 313.08707,248.07968 C 313.10416,248.07975 313.12147,248.07949 313.1386,248.07968 C 313.14294,248.07961 313.15993,248.0799 313.16436,248.07968 C 313.27317,248.07415 313.38949,248.08107 313.49932,248.07968 C 313.53622,248.0792 313.56537,248.07968 313.60238,248.07968 C 318.33975,248.07967 322.18255,251.94824 322.18255,256.6856 C 322.18257,261.42296 318.33974,265.26576 313.60238,265.26577 C 308.86505,265.26576 305.02223,261.42295 305.02223,256.6856 C 305.02222,252.30643 308.30676,248.60722 312.54597,248.07968 z M 337.69383,248.07968 C 337.71933,248.07854 337.77134,248.08059 337.7969,248.07968 C 337.82249,248.07864 337.8743,248.08049 337.89996,248.07968 C 337.92566,248.07874 337.97727,248.08039 338.00302,248.07968 C 338.00518,248.07949 338.02343,248.07961 338.02879,248.07968 C 338.04594,248.0798 338.06315,248.07944 338.08033,248.07968 C 338.08569,248.07974 338.10393,248.07984 338.1061,248.07968 C 338.10828,248.07951 338.1265,248.07962 338.13186,248.07968 C 338.14899,248.07978 338.16624,248.07947 338.1834,248.07968 C 338.18874,248.07972 338.20697,248.07982 338.20916,248.07968 C 338.21137,248.07954 338.22957,248.07963 338.23493,248.07968 C 338.25202,248.07975 338.26934,248.07949 338.28646,248.07968 C 338.29081,248.07961 338.3078,248.0799 338.31223,248.07968 C 338.45843,248.07221 338.6022,248.07968 338.75025,248.07968 C 343.48762,248.07967 347.33041,251.94825 347.33041,256.6856 C 347.33043,261.42296 343.48761,265.26577 338.75025,265.26577 C 334.01291,265.26576 330.17009,261.42296 330.17009,256.6856 C 330.17008,252.30724 333.45585,248.6083 337.69383,248.07968 z M 216.7728,252.15074 C 214.74746,252.55104 213.21706,254.41847 213.21707,256.55677 C 213.21707,258.98358 215.19627,260.93704 217.62309,260.93704 C 220.04989,260.93704 222.00336,258.98358 222.00336,256.55677 C 222.00336,254.12997 220.04988,252.15073 217.62309,252.15074 C 217.50934,252.15074 217.39971,252.14224 217.28813,252.15074 C 217.28592,252.1509 217.26771,252.1508 217.26237,252.15074 C 217.24522,252.15045 217.22792,252.15083 217.21084,252.15074 C 217.20548,252.15067 217.18727,252.15052 217.18507,252.15074 C 217.1829,252.15096 217.16466,252.15081 217.1593,252.15074 C 217.14211,252.1504 217.1249,252.15088 217.10777,252.15074 C 217.1024,252.15066 217.08415,252.15048 217.08201,252.15074 C 217.07339,252.15058 217.03907,252.15085 217.03046,252.15074 C 217.02184,252.15057 216.98754,252.15086 216.97893,252.15074 C 216.9703,252.15056 216.93603,252.15088 216.9274,252.15074 C 216.91876,252.15055 216.8845,252.15089 216.87587,252.15074 C 216.86722,252.15054 216.83298,252.1509 216.82434,252.15074 C 216.80833,252.15371 216.78875,252.1476 216.7728,252.15074 z M 191.65071,252.20228 C 189.60168,252.58249 188.04343,254.45318 188.04344,256.6083 C 188.04344,259.03511 190.02264,260.98858 192.44946,260.98857 C 194.87626,260.98857 196.82972,259.03512 196.82972,256.6083 C 196.82972,254.1815 194.87625,252.20228 192.44946,252.20228 C 192.3357,252.20228 192.22608,252.19378 192.11451,252.20228 C 192.11228,252.20244 192.09409,252.20231 192.08874,252.20228 C 192.08338,252.20224 192.06518,252.20208 192.06296,252.20228 C 192.06078,252.20246 192.04255,252.20234 192.0372,252.20228 C 192.02003,252.20195 192.00278,252.20239 191.98567,252.20228 C 191.98031,252.20219 191.96208,252.20203 191.9599,252.20228 C 191.94272,252.20286 191.89981,252.20309 191.8826,252.20228 C 191.87832,252.20224 191.86112,252.20205 191.85684,252.20228 C 191.84821,252.2021 191.81392,252.2024 191.8053,252.20228 C 191.79667,252.20209 191.76239,252.20242 191.75377,252.20228 C 191.74512,252.20208 191.71087,252.20243 191.70224,252.20228 C 191.68605,252.20509 191.66684,252.19928 191.65071,252.20228 z M 287.42388,252.25381 C 285.42209,252.67366 283.91967,254.53826 283.91966,256.65983 C 283.91966,259.08664 285.89889,261.04011 288.32569,261.0401 C 290.75249,261.0401 292.70597,259.08665 292.70595,256.65983 C 292.70595,254.23303 290.75249,252.25381 288.32569,252.25381 C 288.21193,252.25381 288.10233,252.24532 287.99073,252.25381 C 287.98851,252.25398 287.97031,252.25387 287.96496,252.25381 C 287.94783,252.25351 287.93051,252.2539 287.91343,252.25381 C 287.90808,252.25373 287.88987,252.25358 287.88766,252.25381 C 287.8855,252.25403 287.86726,252.25388 287.8619,252.25381 C 287.84471,252.25346 287.8275,252.25395 287.81036,252.25381 C 287.805,252.25372 287.78676,252.25354 287.7846,252.25381 C 287.776,252.25364 287.74167,252.25393 287.73307,252.25381 C 287.72445,252.25363 287.69015,252.25393 287.68154,252.25381 C 287.6729,252.25363 287.63863,252.25395 287.63,252.25381 C 287.62135,252.25361 287.5871,252.25396 287.57847,252.25381 C 287.56981,252.2536 287.53558,252.25397 287.52694,252.25381 C 287.51827,252.25359 287.48406,252.25398 287.47541,252.25381 C 287.45958,252.25694 287.43963,252.2505 287.42388,252.25381 z M 312.6748,252.25381 C 310.67302,252.67366 309.17059,254.53824 309.17059,256.65983 C 309.17059,259.08664 311.14981,261.04009 313.57662,261.0401 C 316.00342,261.0401 317.95689,259.08664 317.95689,256.65983 C 317.95689,254.23303 316.00342,252.25379 313.57662,252.25381 C 313.46286,252.25381 313.35325,252.2453 313.24166,252.25381 C 313.23944,252.25398 313.22123,252.25387 313.2159,252.25381 C 313.19875,252.25351 313.18145,252.2539 313.16436,252.25381 C 313.15901,252.25373 313.1408,252.25358 313.1386,252.25381 C 313.13643,252.25403 313.11819,252.25388 313.11283,252.25381 C 313.09564,252.25346 313.07842,252.25395 313.0613,252.25381 C 313.05593,252.25372 313.03768,252.25354 313.03553,252.25381 C 313.02692,252.25364 312.99259,252.25393 312.98399,252.25381 C 312.97537,252.25363 312.94107,252.25393 312.93246,252.25381 C 312.92383,252.25363 312.88956,252.25395 312.88093,252.25381 C 312.87229,252.25361 312.83803,252.25396 312.8294,252.25381 C 312.82075,252.2536 312.78651,252.25397 312.77787,252.25381 C 312.76919,252.25359 312.73499,252.25398 312.72633,252.25381 C 312.71052,252.25694 312.69057,252.2505 312.6748,252.25381 z M 337.7196,252.25381 C 335.76459,252.71126 334.31846,254.57127 334.31846,256.65983 C 334.31846,259.08664 336.29767,261.0401 338.72448,261.0401 C 341.15129,261.0401 343.10476,259.08664 343.10475,256.65983 C 343.10475,254.23303 341.15128,252.2538 338.72448,252.25381 C 338.61073,252.25381 338.50111,252.24531 338.38952,252.25381 C 338.38731,252.25398 338.3691,252.25387 338.36376,252.25381 C 338.34661,252.25351 338.32931,252.2539 338.31223,252.25381 C 338.30687,252.25373 338.28866,252.25358 338.28646,252.25381 C 338.28429,252.25403 338.26605,252.25388 338.26069,252.25381 C 338.2435,252.25346 338.2263,252.25395 338.20916,252.25381 C 338.20379,252.25372 338.18554,252.25354 338.1834,252.25381 C 338.17478,252.25364 338.14046,252.25393 338.13186,252.25381 C 338.12323,252.25363 338.08893,252.25393 338.08033,252.25381 C 338.07169,252.25363 338.03742,252.25395 338.02879,252.25381 C 338.02015,252.25361 337.9859,252.25396 337.97726,252.25381 C 337.96861,252.2536 337.93437,252.25397 337.92573,252.25381 C 337.91706,252.25359 337.88286,252.25398 337.87419,252.25381 C 337.86551,252.25358 337.83133,252.25399 337.82266,252.25381 C 337.81396,252.25358 337.77981,252.254 337.77113,252.25381 C 337.75567,252.25723 337.73499,252.25021 337.7196,252.25381 z M 166.29672,252.33111 C 164.24803,252.71154 162.68943,254.58227 162.68944,256.73713 C 162.68944,259.16394 164.66866,261.11739 167.09547,261.1174 C 169.52227,261.1174 171.47573,259.16394 171.47573,256.73713 C 171.47573,254.31033 169.52225,252.33109 167.09547,252.33111 C 166.98171,252.33111 166.87209,252.32259 166.76051,252.33111 C 166.72727,252.33364 166.68926,252.33222 166.65744,252.33111 C 166.64784,252.33108 166.61925,252.33089 166.60591,252.33111 C 166.58872,252.33169 166.54581,252.33192 166.52861,252.33111 C 166.52433,252.33107 166.50712,252.33088 166.50285,252.33111 C 166.49423,252.33093 166.45992,252.33123 166.45132,252.33111 C 166.44268,252.33093 166.40841,252.33125 166.39978,252.33111 C 166.39113,252.33091 166.35688,252.33125 166.34825,252.33111 C 166.33206,252.33392 166.31284,252.32812 166.29672,252.33111 z M 143.49358,328.90841 C 145.33403,332.49699 147.1886,336.02563 149.05909,339.49834 L 355.62714,339.49834 C 357.42453,336.16311 359.21547,332.78514 360.98653,329.34643 C 361.06257,329.19881 361.14254,329.056 361.21842,328.90841 L 143.49358,328.90841 z M 151.63571,344.23933 C 198.83215,430.0183 252.94864,479.07412 252.94863,479.07414 C 252.94863,479.07414 306.27654,429.2527 353.05052,344.23933 L 151.63571,344.23933 z M 212.08334,365.41919 L 218.91141,365.41919 L 218.91141,409.37642 L 210.56313,409.37642 L 210.56313,380.56975 C 209.21488,382.06392 207.91401,383.27882 206.64667,384.20279 C 205.39278,385.12682 203.8067,386.01138 201.90568,386.85672 L 201.90568,377.01401 C 204.71004,375.69683 206.89981,374.12105 208.45031,372.27302 C 210.00078,370.42504 211.20698,368.13226 212.08334,365.41919 z M 238.05574,365.41919 C 238.12149,365.41454 238.19547,365.42285 238.26186,365.41919 C 238.33039,365.41542 238.39879,365.42194 238.46799,365.41919 C 238.65565,365.41175 238.8421,365.41919 239.03485,365.41919 C 242.00098,365.41923 244.37891,366.16678 246.17211,367.66086 C 247.96524,369.13534 249.38416,371.50279 250.4493,374.74658 C 251.52788,377.97078 252.07254,382.21858 252.07257,387.52664 C 252.07254,395.33148 250.94874,401.04996 248.6972,404.68696 C 246.44559,408.30432 243.33484,410.12365 239.34404,410.12365 C 236.9846,410.12367 235.11449,409.72478 233.75277,408.93839 C 232.39103,408.13237 231.25494,406.96763 230.35162,405.43419 C 229.4483,403.90077 228.74993,401.98848 228.26455,399.68831 L 236.45823,398.19387 C 236.67393,399.86494 237.02806,401.03576 237.54041,401.72384 C 238.05273,402.41192 238.67979,402.7545 239.42134,402.7545 C 240.74261,402.75451 241.79751,401.78921 242.53906,399.84291 C 243.07835,398.40778 243.4804,395.36133 243.75008,390.72166 C 242.76584,392.19613 241.74779,393.28013 240.70966,393.96821 C 239.67149,394.65628 238.4641,394.99887 237.10238,394.99885 C 234.44632,394.99887 232.211,393.62861 230.37739,390.87625 C 228.55725,388.12392 227.64617,384.64809 227.64617,380.44092 C 227.64616,377.57068 228.10725,374.94139 229.03754,372.58221 C 229.96784,370.22313 231.24532,368.44787 232.87671,367.24859 C 234.2881,366.19409 236.01711,365.56331 238.05574,365.41919 z M 266.42438,365.41919 C 266.49739,365.41525 266.58233,365.42229 266.65627,365.41919 C 266.73261,365.416 266.81086,365.4215 266.88817,365.41919 C 267.09783,365.41295 267.31535,365.41919 267.53232,365.41919 C 270.43104,365.41923 272.67865,365.89883 274.28308,366.8621 C 275.90097,367.82546 277.15389,369.31443 278.07072,371.31967 C 279.00101,373.30532 279.48784,375.54182 279.48787,378.01889 C 279.48784,380.65329 278.95545,383.16996 277.89036,385.5684 C 276.83871,387.9669 274.90957,390.5826 272.11872,393.45288 C 270.46037,395.12396 269.33536,396.31444 268.76911,396.98285 C 268.21631,397.65128 267.56587,398.50398 266.81087,399.58525 L 279.66823,399.58525 L 279.66823,409.37642 L 254.95839,409.37642 C 255.24153,405.81804 256.10587,402.47923 257.53502,399.35335 C 258.97763,396.20784 261.67525,392.51424 265.62563,388.2481 C 268.03897,385.63342 269.58941,383.65263 270.26354,382.29609 C 270.93766,380.93962 271.26842,379.65008 271.26844,378.43115 C 271.26841,377.11398 270.93766,375.9798 270.26354,375.05577 C 269.60289,374.11214 268.74963,373.63866 267.73845,373.63862 C 266.6868,373.63865 265.83594,374.11825 265.16183,375.08154 C 264.50119,376.04488 264.05118,377.7455 263.82198,380.18326 L 255.57678,379.2299 C 255.90036,375.84851 256.49177,373.20702 257.35465,371.31967 C 258.21753,369.41274 259.42373,367.96785 260.9877,366.96517 C 262.35243,366.08075 264.16067,365.54134 266.42438,365.41919 z M 294.53536,365.41919 C 294.59318,365.41518 294.65745,365.42251 294.71573,365.41919 C 294.80522,365.4141 294.88283,365.42264 294.97338,365.41919 C 295.16339,365.41198 295.37136,365.41919 295.56601,365.41919 C 297.56139,365.41923 299.18075,365.77401 300.4616,366.50138 C 301.74241,367.20918 302.79611,368.15002 303.60508,369.3099 C 304.414,370.45022 305.05336,371.66511 305.51178,372.94294 C 305.98366,374.2012 306.36234,375.68405 306.6455,377.37473 C 307.19827,380.59895 307.46999,383.94996 307.47002,387.44934 C 307.46999,395.29351 306.55891,401.02419 304.73879,404.6612 C 302.91864,408.29821 299.78331,410.12365 295.33412,410.12365 C 292.83983,410.12367 290.81604,409.55721 289.27904,408.39731 C 287.74203,407.23737 286.47561,405.53678 285.4914,403.29558 C 284.77683,401.70315 284.22107,399.52908 283.8166,396.77672 C 283.42559,394.00473 283.24974,390.94608 283.24974,387.60394 C 283.24972,379.38627 284.24202,373.62373 286.26439,370.34054 C 288.12972,367.33241 290.89239,365.67211 294.53536,365.41919 z M 238.82871,372.91718 C 237.92777,373.05999 237.16471,373.68444 236.53553,374.72081 C 235.82094,375.92008 235.4791,377.70752 235.4791,380.10595 C 235.4791,382.52409 235.84551,384.36786 236.58706,385.6457 C 237.34207,386.9236 238.27652,387.57819 239.39557,387.57817 C 240.55506,387.57818 241.51288,386.93581 242.2814,385.69723 C 243.04987,384.4587 243.44087,382.68959 243.44088,380.38939 C 243.44087,378.04995 243.0388,376.24416 242.22987,374.92694 C 241.42089,373.59012 240.42622,372.91721 239.26675,372.91718 C 239.17716,372.91718 239.07176,372.91213 238.98332,372.91718 C 238.98019,372.91743 238.96243,372.91732 238.95755,372.91718 C 238.94733,372.9175 238.91492,372.91786 238.90602,372.91718 C 238.90286,372.91715 238.88363,372.91697 238.88026,372.91718 C 238.86589,372.9192 238.84302,372.9149 238.82871,372.91718 z M 294.89609,373.40673 C 293.7218,373.57556 292.87089,374.60669 292.31946,376.44715 C 291.71274,378.45245 291.41764,382.18404 291.41765,387.62971 C 291.41764,393.13439 291.7361,396.8904 292.39676,398.91533 C 293.07087,400.92058 294.04098,401.92998 295.30835,401.92997 C 296.14425,401.92997 296.86599,401.5128 297.47271,400.66743 C 298.09289,399.80244 298.55518,398.44437 298.83832,396.59636 C 299.13492,394.74838 299.27634,391.85116 299.27635,387.9389 C 299.27633,382.19832 298.94557,378.3616 298.27146,376.39562 C 297.61081,374.41003 296.61733,373.40676 295.28258,373.40673 C 295.21875,373.40673 295.13862,373.40228 295.07645,373.40673 C 295.07151,373.40709 295.05592,373.40666 295.05068,373.40673 C 295.03978,373.4065 295.01036,373.40721 294.99915,373.40673 C 294.99361,373.40656 294.9788,373.40673 294.97338,373.40673 C 294.96821,373.40698 294.95248,373.40616 294.94762,373.40673 C 294.92881,373.40899 294.91473,373.40405 294.89609,373.40673 z "
       id="path6415" />
    <path
       style="fill:none;fill-opacity:0.75;fill-rule:evenodd;stroke:#fefefe;stroke-width:1.99999869;stroke-linecap:butt;stroke-linejoin:miter;stroke-miterlimit:4;stroke-dasharray:none;stroke-opacity:1"
       d="M 201.65395,166.59151 L 252.96835,138.43986 L 304.75788,166.59151"
       id="path9945"
       sodipodi:nodetypes="ccc" />
    <path
       style="fill:none;fill-opacity:0.75;fill-rule:evenodd;stroke:#ffffff;stroke-width:4.99999619;stroke-linecap:round;stroke-linejoin:round;stroke-miterlimit:4;stroke-dasharray:none;stroke-opacity:1"
       d="M 139.25216,320.65157 C 139.25216,320.65157 140.9796,318.0735 143.43987,315.8357 C 145.90015,313.59788 149.09328,311.70033 149.09328,311.70033 L 149.04093,242.96957 L 188.92885,213.49858 L 189.08589,167.1197 L 253.00078,132.51876 L 317.28211,167.85255 L 317.28211,213.7603 L 356.85595,243.33599 L 356.8036,312.17146 C 356.8036,312.17146 360.35007,313.72876 362.71875,315.78335 C 365.08742,317.83794 366.27829,320.8086 366.27829,320.8086"
       id="path1338"
       sodipodi:nodetypes="czccccccccczc" />
  </g>
</svg>
