<?xml version="1.0" encoding="UTF-8" standalone="no"?>
<svg
   xmlns:svg="http://www.w3.org/2000/svg"
   xmlns="http://www.w3.org/2000/svg"
   version="1.1"
   width="278.40512"
   height="394.34799"
   id="svg3111">
  <defs
     id="defs3113" />
  <g
     transform="translate(-210.79744,-335.18818)"
     id="layer1">
    <path
       d="m 484.20256,340.18818 -236.36745,0 c -17.68898,0 -32.03767,14.33479 -32.03767,32.02616 l 0,352.32184 236.37683,0 c 17.69137,0 32.02829,-14.35202 32.02829,-32.03767 l 0,-352.31033"
       id="path22"
       style="fill:#edcf3f;fill-opacity:1;fill-rule:nonzero;stroke:none" />
    <path
       d="m 247.83511,349.80157 226.76472,0 -249.18606,365.12079 0,-342.70802 c 0,-12.37287 10.03782,-22.41277 22.42134,-22.41277"
       id="path24"
       style="fill:#d10019;fill-opacity:1;fill-rule:nonzero;stroke:none" />
    <path
       d="m 474.59983,692.49851 c 0,12.38101 -10.04629,22.42385 -22.42556,22.42385 l -226.7605,0 249.18606,-365.12079 0,342.69694"
       id="path26"
       style="fill:#202203;fill-opacity:1;fill-rule:nonzero;stroke:none" />
    <path
       d="m 437.59851,666.82981 c 2.14105,0.007 4.30342,-0.20898 5.73648,-0.90035 l 0,0 c 1.41172,-0.7306 2.17303,-1.55865 2.22421,-3.69288 l 0,0 c -0.0512,-2.03655 -0.84661,-2.84883 -2.35856,-3.58604 l 0,0 c -1.4949,-0.67068 -3.67007,-0.87966 -5.70875,-0.88222 l 0,9.06149 0.10662,0 0,0 z m 18.58276,19.45262 -8.55139,0 0,0 -10.13799,-13.42228 0,13.42228 -6.9051,0 0,-34.65001 6.5511,0 c 3.09855,0.0128 6.63426,0.01 9.80105,1.64759 l 0,0 c 3.34166,1.81114 5.24386,5.26561 5.24386,8.78427 l 0,0 c 0.0192,4.5348 -2.90022,8.46588 -7.35292,9.8179 l 0,0 9.71149,12.32616 1.6399,2.07409 m -55.83934,0 0,-34.65001 21.27187,0 0,6.22184 -14.36955,0 0,6.4225 12.99258,0 0,6.21587 -12.99258,0 0,9.56967 14.36955,0 0,6.22013 -21.27187,0 0,0 m -14.8193,0 -12.66353,-14.41603 -0.3557,0.31475 0,14.10128 -6.90403,0 0,-34.65001 6.90403,0 0,12.23703 12.63005,-11.88303 0.36658,-0.354 9.47307,0 -17.14502,15.79151 17.02091,18.8585 -9.32636,0 0,0 m -30.45172,-24.53974 -2.08581,-1.71028 c -2.22507,-1.82671 -5.38973,-2.86461 -8.38442,-2.85715 l 0,0 c -7.14394,10e-4 -12.47929,5.45371 -12.49101,11.82631 l 0,0 c 0.0114,6.28432 5.30954,11.73973 12.39526,11.74292 l 0,0 c 3.12286,0 6.11755,-1.09035 8.4759,-3.02966 l 0,0 2.09008,-1.725 0,8.20103 -0.66811,0.36231 c -2.90897,1.56186 -6.48328,2.40228 -9.75798,2.40996 l 0,0 c -10.54104,-0.02 -19.41999,-7.75042 -19.43833,-17.83318 l 0,0 c 0.01,-10.28279 8.94911,-18.15477 19.80832,-18.17652 l 0,0 c 3.23695,0.003 6.5415,0.71972 9.40718,2.33745 l 0,0 0.64892,0.36573 0,8.08608 m -54.62658,10.27533 8.32429,0 -4.16268,-8.72755 -4.16161,8.72755 0,0 z m 15.33579,14.26441 -3.97608,-8.04364 -14.3962,0 -3.97501,8.04364 -7.52886,0 18.70026,-37.598 18.70795,37.598 -7.53206,0 0,0 m -51.7737,-20.22309 -9.81939,23.4803 -16.43297,-37.90551 7.50795,0 8.89154,20.95604 9.85287,-23.67841 9.85223,23.67841 8.89644,-20.95604 7.50796,0 -16.43788,37.90551 -9.81875,-23.4803 0,0 m 66.91693,-207.3522 c -2.56649,0.0704 -3.74684,-1.44372 -3.74684,-2.95567 0.0708,-3.48667 6.02948,-3.33313 7.76279,-3.24996 2.24256,0.0682 4.35844,0.52033 5.78702,1.5802 -3.04289,0.6099 -7.82784,4.62543 -9.80297,4.62543 z m -54.42656,101.33683 c 0.48558,-0.54145 0.99717,-1.07607 1.54096,-1.62178 0.007,0.50818 0.003,1.05368 -0.007,1.62605 -0.0849,3.72103 -0.51052,8.41598 0.3299,11.4706 1.85593,0.46062 3.91104,0.6131 6.03268,0.52481 1.41621,-0.0643 2.78145,-0.3041 4.15841,-0.60649 -0.93127,-1.20615 -1.62434,-2.56222 -2.1242,-4.08164 -0.618,-2.25172 -0.81718,-4.99905 -0.5472,-7.29321 l 0,0 c 0.0206,-0.17401 0.04,-0.34142 0.0665,-0.51052 0.8206,-2.57481 2.12335,-3.07723 2.17752,-3.05804 1.49937,-0.81718 6.80913,4.36676 10.49177,5.54114 2.00521,-1.20359 4.67171,-3.4244 6.17194,-5.10546 -2.0276,-0.90632 -7.56127,-7.49623 -7.49794,-7.50305 5.73115,-0.4956 20.37877,-10.58262 22.63881,-12.86996 10.3843,7.21878 13.72809,17.27339 14.79606,23.49843 0.58303,3.40541 0.48813,5.66034 0.48813,5.66375 2.78549,-2.81812 4.99969,-4.54418 6.68736,-5.66375 l -0.003,0 0.003,-0.007 c 1.62775,-1.08034 2.76481,-1.61773 3.44786,-2.04765 3.16124,-1.64502 7.47554,-3.23033 9.35301,-3.69437 1.67104,-0.37148 4.51582,-0.86388 6.3709,-0.79052 4.9549,0.065 10.76175,2.68974 14.56211,6.53915 l 0,0 c 0.0482,0.0483 0.0975,0.0999 0.14736,0.14757 3.22458,3.33611 6.08258,10.94323 6.88142,13.49223 3.57964,8.72328 11.04346,11.57061 11.88815,11.93293 3.65193,1.73267 8.9489,2.16429 13.98548,1.47528 3.29623,-0.51394 6.52166,-1.58766 9.13805,-3.55107 3.16807,-2.26922 5.01803,-5.60298 6.7008,-9.61979 0.75384,2.1259 1.55866,5.76377 1.86595,8.55523 0.55638,4.61563 0.44826,10.06933 -2.91387,13.63063 -0.87135,0.98117 -2.93051,1.50855 -5.23213,1.73587 -2.0984,0.15994 -5.64201,0.0158 -7.55296,-0.20579 -2.44002,0.1227 -0.0883,5.38461 1.26373,10.10451 2.5023,-0.38555 5.30869,0.54742 7.7178,1.53201 0.12994,3.55938 -1.62604,6.86649 -2.99811,10.0352 3.17809,1.41962 8.02211,1.20636 8.03789,1.23451 0.24247,-3.71015 1.37036,-8.84227 4.42156,-10.6001 l 0.61225,-0.0624 c 2.03655,0.6082 4.22025,4.09103 5.83883,6.65431 0.0682,0.0849 0.12156,0.14907 0.19406,0.22157 0.11516,0.007 3.44615,-1.99006 4.08591,-4.90649 -0.56299,-0.75556 -1.0492,-1.51942 -1.49277,-2.19842 -1.23472,-2.05425 -1.85529,-3.94516 -1.915,-5.59956 -0.11942,-1.73929 0.37533,-3.25359 1.42026,-4.46081 0.32841,-0.46147 0.56512,-0.60222 1.05986,-0.83871 2.6102,-0.36913 5.1479,0.67728 7.3316,1.5819 0.73785,0.23992 1.37121,0.53313 1.9939,0.75875 1.60792,-4.26824 1.26245,-9.5379 1.17289,-9.607 -2.74668,0.43888 -7.27189,-1.93014 -7.62802,-2.88401 2.35643,-3.85261 4.65529,-7.93276 6.27387,-12.40444 1.47997,-4.07673 2.65498,-8.85314 3.5869,-14.98264 -1.47784,0.0658 -3.02178,-0.0691 -4.58705,-0.30238 0.36892,-0.26231 0.75491,-0.54295 1.14943,-0.8688 l -0.0178,0 0.0178,-0.0114 c 1.66123,-1.38763 3.42056,-3.46854 4.06884,-7.14714 0.36893,-2.27092 0.25377,-4.98156 0,-7.8579 -1.80624,1.04621 -3.79162,1.80347 -5.65544,1.58446 2.1048,-2.26921 3.05164,-7.10491 2.79147,-9.61894 -0.177,-2.18732 -0.92765,-4.22409 -2.16877,-5.89257 -0.31135,-0.45167 -0.6227,-0.83723 -0.99802,-1.21212 -1.4821,2.48395 -3.35019,4.30001 -5.07966,5.97766 -2.49931,2.42254 -4.73206,4.52989 -5.10525,8.47676 -0.18766,2.1242 0,4.7649 0.25377,6.51015 -1.19421,-1.28548 -3.29687,-2.65904 -5.53175,-3.25977 -0.99375,-0.21986 -2.1161,-0.38385 -3.05227,-0.14394 0.11501,0.90632 0.18659,1.95509 0.11501,3.0962 -0.1683,2.87144 -1.2987,4.53331 -2.91387,5.4537 -0.24247,-1.97258 -1.11296,-4.55826 -2.91473,-5.38461 -2.23765,0.53655 -4.61327,0.61161 -7.07164,-0.43887 -3.99591,-1.74845 -6.36663,-5.26561 -8.72904,-9.26984 5.6661,0.29493 10.64681,0.72719 15.91968,-2.48737 4.15521,-3.05547 8.20977,-10.41607 8.53178,-19.05767 l -0.90419,-10e-4 0.90419,0 c 0.0682,-1.8152 -0.0256,-3.6803 -0.31562,-5.58037 -1.89346,-10.56236 -8.01699,-15.53113 -8.01699,-15.53113 0,0 -2.04423,-2.34364 -2.98893,-3.55491 -1.85764,-2.41827 -3.48027,-4.39298 -3.41203,-8.33388 0.23074,-6.28879 6.7507,-7.80075 16.2114,-7.25696 4.22239,0 10.49199,1.39254 14.47553,-0.14501 3.66154,-1.36907 7.5086,-4.23944 10.25315,-8.41065 2.24767,-3.40563 3.73617,-7.72398 3.66367,-12.70341 0,-3.18598 -0.67601,-5.83457 -1.416,-8.48102 -0.86367,-3.55278 -1.86595,-7.19085 -1.50555,-12.34515 -3.16892,3.95156 -4.03259,7.4169 -4.2821,10.67965 -0.13648,2.04295 0.0597,4.0134 0.0597,6.05209 -0.0597,4.23731 -0.4265,8.70493 -2.97486,11.5028 0.29429,-1.58233 0.55659,-3.47174 0.60563,-5.28865 0.0618,-2.11972 -0.2431,-4.24584 -0.55445,-6.28879 -0.49475,-2.87677 -1.98538,-5.29078 -2.04509,-8.24858 -1.73587,3.33099 -2.11759,6.42954 -2.05148,9.38308 0.0661,2.72749 0.50541,5.37608 0.31561,8.10357 -0.19619,3.01964 -1.1153,5.13936 -2.54835,5.98171 0.42863,-2.74029 0.62269,-4.39299 0.42863,-6.66838 -0.18553,-2.34364 -1.36908,-4.31409 -1.86382,-6.58522 -0.81462,1.29017 -1.00015,3.25849 -1.18141,5.37395 -0.56725,5.44431 -1.17076,11.72458 -10.87371,13.24933 l -0.30282,-0.009 c -2.80384,0 -5.53538,0.009 -8.27439,0.30922 -2.65967,0.37319 -5.22637,0.97456 -7.39471,2.35216 -1.28783,0.75278 -2.36156,1.72947 -3.16445,2.8725 -1.36865,1.82117 -3.35552,6.91789 -0.81974,12.70555 0.8496,2.05788 4.36335,6.43807 5.2396,7.26762 4.47253,4.46762 9.3206,9.2338 9.3206,19.14425 0,0.14324 -0.003,0.29322 -0.009,0.44741 -0.10848,3.07125 -1.34115,7.27721 -3.42291,10.45083 -1.87086,2.55411 -4.55975,4.84316 -7.19725,4.85574 l -23.73407,0.14589 c -7.15076,0.0756 -14.11962,0.1399 -21.20363,1.66678 -1.39957,0.26486 -4.78324,0.21986 -6.89912,-0.83893 -0.15248,0 -7.37874,-3.7801 -9.79297,-5.12871 3.09642,-1.98175 5.83629,-6.3726 7.44635,-10.0013 0.17593,-0.37319 0.34738,-0.75384 0.52332,-1.14111 l 10e-4,0 c 1.17139,-2.51743 2.58248,-5.30399 5.43877,-8.32193 1.61197,-1.73801 3.09386,-3.38218 4.96152,-4.73846 2.72983,1.66123 3.46193,3.2137 9.08154,5.69809 1.017,-1.96832 2.09008,-4.66382 2.86056,-6.72383 -3.90187,-1.82117 -6.19433,-3.15186 -9.02652,-5.95826 0.39558,-1.08545 0.97712,-2.72535 1.34199,-3.85772 1.1812,0.59924 5.07219,2.66565 9.86865,3.81294 0.72229,-2.12825 1.33859,-4.40791 1.91266,-6.81979 -1.29444,-0.48408 -3.21541,-1.14516 -4.52073,-1.59726 -2.23168,-0.82955 -3.07466,-1.51835 -5.23064,-2.57608 0.29493,-1.20487 0.66812,-2.88316 0.91635,-4.14135 1.92843,0.42224 5.3072,1.62711 10.25101,1.89368 0.43418,-2.43321 0.87476,-4.90905 1.15967,-7.34438 -1.35202,-0.13862 -2.86888,-0.50754 -4.31089,-0.73785 -1.90434,-0.4521 -3.92021,-0.88287 -5.85014,-1.56954 0.17146,-1.2987 0.27062,-2.71043 0.4022,-4.03685 3.04971,0.23671 5.25047,1.30296 10.32266,0.75917 0.12497,-2.19223 0.31242,-4.53586 0.3508,-6.78993 -0.89224,-0.081 -2.4283,-0.38173 -3.54872,-0.53527 -1.9858,-0.36892 -4.84721,-0.64828 -6.76158,-1.09824 0.0257,-1.14943 -0.0128,-2.39269 -0.0223,-3.63595 0.93383,0.0853 5.8045,1.09185 10.33269,0.54806 -0.0525,-2.02802 -0.0576,-4.18613 -0.24822,-6.23548 -1.99263,-0.37319 -4.55911,-0.77837 -6.41099,-1.07266 -4.35247,-0.84448 -13.19816,-2.82132 -24.36402,-3.10921 0.6357,-2.8725 0.7515,-5.21827 -0.72292,-7.87112 -5.2989,6.05848 -8.89836,5.50616 -14.92507,5.67889 -1.92696,-0.0768 -4.10362,-0.15567 -6.64834,-0.0768 -2.31081,0.15141 -5.15985,0.6035 -8.01615,1.1345 -3.10708,0.67814 -6.20605,1.43305 -8.52005,2.19223 -2.23081,0.76131 -4.96727,1.66336 -7.63461,2.50571 -2.12592,0.75491 -4.29256,1.43518 -6.64749,2.25833 1.42623,3.34166 2.72641,8.47676 3.60609,11.74591 0,0 0.24823,0.90206 0.30664,1.19848 0.98288,0 2.35154,-0.14288 3.84685,-0.21965 7.27638,-0.67814 18.64526,-1.66976 23.67267,3.476 1.24111,1.28591 1.80175,2.8 2.55156,4.53374 -1.18141,-0.0618 -2.35579,-0.0618 -3.48709,-0.0618 -5.0865,-0.15567 -10.49775,-0.23244 -17.64574,3.09429 0.44485,1.14516 0.88137,2.35002 1.37184,3.56129 2.60659,-0.37532 4.7924,-0.60777 6.65176,-0.75491 2.04679,-0.0789 3.7835,-0.22818 5.4021,-0.22818 2.88551,0.24311 5.35134,0.98309 7.89778,1.95978 2.61148,0.98736 5.33789,2.04509 8.43091,1.97258 0.57556,0 1.44606,0.0661 1.88258,0.0661 3.34804,0 5.21314,-0.0661 7.08572,-0.4393 1.61432,-0.30282 3.22629,-0.83381 4.77983,-1.51409 -0.43568,2.10906 -1.73608,4.38659 -3.35872,6.50418 -2.36155,3.10068 -4.90394,4.92399 -7.64465,5.90921 -3.66516,1.43092 -7.65361,1.43092 -11.98711,1.50769 -12.50018,0.22818 -21.00017,9.60699 -27.90592,20.05164 l 0,0 c -2.08752,3.15954 -4.03087,6.41504 -5.89107,9.54793 -0.93638,1.50705 -1.80775,2.9465 -2.62235,4.30917 -1.91928,3.10474 -6.01008,6.50674 -10.49519,9.00989 -4.35419,2.40996 -9.07473,4.08612 -12.86506,4.15351 l -0.0542,0 c -3.05546,-0.0674 -6.03267,-1.44286 -9.07897,-2.8789 -2.66906,-1.19784 -5.34709,-2.40996 -7.88776,-2.5699 -1.54865,2.95887 -1.49619,6.13696 -1.49619,9.52553 2.37159,-0.74467 4.53736,-0.14415 6.47178,0.32159 1.05112,0.29663 2.16236,0.51735 3.29027,0.663 -1.77426,3.10302 -3.78096,5.84459 -5.85675,8.5917 l -0.007,0 c -0.60713,0.79969 -1.21852,1.60195 -1.83334,2.40996 -0.63398,0.66982 -1.1296,1.42857 -1.68766,2.0293 0,0.98288 0.12496,1.81094 0.38556,2.56478 1.1104,3.49029 4.83399,6.28773 7.80544,6.58927 0.0665,-3.17212 1.19442,-5.97617 2.48394,-8.3294 1.16372,-2.0775 2.35005,-3.69267 3.74621,-5.25303 M 255.1407,499.11452 c -1.23686,2.71469 -2.54238,4.83442 -4.71073,6.73236 -1.43348,1.20487 -2.98552,2.19009 -4.4849,2.80639 1.69514,4.75573 8.41108,9.88955 8.45928,9.90128 0.42906,-2.86397 1.19698,-6.23676 4.4109,-8.77318 1.14857,-0.90419 2.40825,-1.52475 3.6611,-1.8169 0.87626,1.50982 3.17618,3.86604 2.61724,11.26886 0,0.0799 6.32676,1.68853 9.68974,0.5391 -1.07223,-3.45873 0.11331,-10.67773 0.61544,-13.02563 1.80518,0.65468 9.89126,1.27525 28.02278,18.51857 0.0142,0.0482 7.64615,-12.37692 13.11243,-18.06008 5.28289,-5.37608 11.74548,-9.54515 20.18386,-10.66899 -9.87207,-4.99222 -18.62605,1.05773 -25.90093,6.05849 -4.78558,3.32459 -9.00391,6.276 -12.8143,5.7386 l -0.11331,0 c -4.5832,-1.28164 -12.227,-3.93449 -19.00009,-7.86046 -4.73163,-2.8789 -9.08496,-6.36557 -11.87898,-10.60075 l 0,-0.0725 c -1.606,-2.8064 -2.67482,-5.75993 -3.29026,-8.85208 -0.55894,-2.73603 -0.80631,-5.52536 -1.00058,-8.5578 -4.89967,0.59711 -10.98567,4.60837 -10.98567,4.54013 3.09962,4.08377 3.9667,8.18247 4.47083,10.2958 0.24652,0.98522 0.49389,1.66336 0.86708,2.49931 -1.1812,0.37959 -2.55326,0.68241 -3.91424,0.60563 -1.42367,0 -2.80234,-0.38811 -4.09187,-1.05346 -1.62114,-0.7741 -3.12052,-1.97471 -4.4849,-3.41843 -0.003,0.14715 -2.60999,3.19025 -3.73447,11.50067 1.79686,0.0789 4.30086,0.23458 6.7217,0.46276 2.55817,0.22392 5.0304,0.6035 7.57278,1.29231 l 0,0 m 8.98665,-66.34051 c -0.43312,1.50982 -0.96305,12.6501 2.05255,23.63683 1.56015,5.25239 4.47573,10.21903 8.38847,13.85071 4.66062,4.22878 9.19819,5.1415 14.80096,5.29291 -1.99178,2.50144 -5.3104,5.25665 -10.70013,6.13099 2.41657,1.96191 6.012,3.17958 8.87256,3.48666 5.15707,0.0661 8.96318,-0.99588 12.93329,-4.54439 0.87561,2.4268 1.49277,4.76831 1.49277,7.41903 5.15728,-1.66337 11.24818,-7.27189 14.60284,-12.25985 -8.825,-0.68667 -13.11179,-5.15003 -17.28683,-9.46411 -2.34748,-2.42254 -4.69901,-4.76618 -7.75107,-6.276 -2.24085,-1.0684 -5.54795,-0.76131 -8.02957,-1.2198 -7.14884,-1.43732 -15.21338,-11.74591 -19.37584,-26.05298 l 0,0 m 104.41086,152.06091 c 2.10181,-0.80801 4.40834,-2.0807 6.45257,-4.77983 3.28045,-4.92057 2.29416,-10.05866 -0.59476,-14.54761 -1.56186,-2.58418 -5.52621,-6.77245 -13.67733,-7.20812 -9.86866,-0.95217 -18.33795,7.41796 -24.01152,12.56096 -4.40514,3.54531 -8.68084,5.06814 -13.12671,6.35852 1.017,5.48356 6.27664,9.40206 10.37939,11.22899 1.86425,0.83723 4.18251,1.60195 5.29206,3.63275 -0.73551,3.50778 -2.15086,6.29583 -4.56316,8.44669 -2.26751,2.15512 -5.06388,3.20389 -7.65382,3.20219 -3.2779,-0.0316 -4.53246,-2.06833 -6.14763,-4.73739 -0.90461,-1.39531 -1.93099,-2.97721 -3.43698,-4.48575 -1.23451,-1.18206 -3.26957,-2.48247 -5.2622,-3.39455 -1.92012,-0.90973 -3.74449,-1.42857 -4.73398,-1.37867 -3.23886,0.43162 -6.46664,5.01483 -8.15027,8.03618 2.62492,0.6871 4.98071,1.6011 6.97995,2.66394 2.16664,1.2262 3.76517,2.58909 4.7988,5.29547 -2.43149,2.77228 -6.17747,4.02513 -9.23977,5.38802 0.0243,0.0717 1.93675,6.40502 4.15606,7.43204 0.98629,-1.06626 2.61639,-2.84307 4.15756,-3.78351 1.35607,-0.79628 2.68889,-0.98459 4.13176,-1.17459 1.08374,1.81605 1.33858,3.43698 1.00953,5.72538 -0.16335,1.5111 -0.7338,3.35211 -1.55866,5.32298 2.30504,0.97883 4.17014,2.06662 7.16825,2.45901 -0.0817,-0.049 0.70544,-4.58065 1.54351,-6.78482 l 0.0158,-0.0742 c 1.01806,-2.5731 2.35323,-4.68813 4.34671,-6.14933 4.85318,1.92097 9.10329,10.64851 9.10329,10.64851 l 0,0 c 0.0624,0.084 0.0624,0.084 0.18809,0.31476 2.74412,-0.77879 5.75289,-4.40919 5.77209,-4.44246 -1.82267,-2.21505 -2.79659,-5.59274 -3.83619,-8.39167 2.30845,-3.44786 4.8165,-5.4488 8.54692,-5.24067 2.77888,0.0926 5.67442,1.56698 8.32748,3.50288 1.08801,1.00719 2.02931,1.74099 3.00067,2.7823 2.18817,2.36752 5.9994,6.13269 9.77289,5.47204 -2.03762,-4.99052 -2.82238,-8.08779 -2.6473,-13.46323 1.39359,1.60109 2.66969,3.24292 4.32985,4.52243 1.4113,1.20466 3.15229,2.17346 4.9016,2.39589 2.13913,0.21154 3.99335,-0.59903 5.24791,-2.75309 -1.73438,-0.97562 -3.3794,-2.10181 -4.61157,-3.36959 -2.01992,-2.05916 -2.63729,-3.99591 -2.4991,-6.29604 2.74562,0.99716 5.36137,1.62945 8.25434,1.7911 2.08773,0.15994 4.22601,-0.0142 5.97276,-0.8722 2.1884,-0.79053 3.36703,-3.10964 3.76453,-5.79363 -2.76993,0.0643 -6.86735,0.0909 -10.74597,-0.80971 -5.4488,-1.24774 -8.84908,-3.02882 -11.11746,-9.25236 l 0,0 m 66.13533,-188.83832 8.31895,0 -4.15841,-8.91605 -4.16054,8.91605 0,0 z m 15.31361,14.55231 -3.97288,-8.22299 -14.36677,0 -3.97438,8.22299 -7.54549,0 18.70006,-38.45357 18.70644,38.45357 -7.54698,0 0,0 m -51.66451,-19.86014 c 2.13763,0.01 4.30001,-0.21325 5.72197,-0.91485 l 0,0 c 1.40042,-0.73785 2.17176,-1.59299 2.22336,-3.79375 l 0,0 c -0.0515,-2.10267 -0.86047,-2.93648 -2.36411,-3.68499 l 0,0 c -1.47868,-0.67814 -3.63935,-0.89353 -5.67356,-0.89566 l 0,9.28925 0.0924,0 0,0 z m 16.96524,17.77667 1.60345,2.08134 -8.54991,0 0,0 -10.11112,-13.68224 0,13.68224 -6.93324,0 0,-35.39127 6.56154,0 c 3.10473,0.01 6.64429,0.009 9.82217,1.68468 l 0,0 c 3.34613,1.85743 5.24045,5.38035 5.24386,8.96511 l 0,0 c 0.0215,4.62117 -2.90385,8.6431 -7.37638,10.02497 l 0,0 9.73963,12.63517 m -32.74993,2.08134 -6.93068,0 0,-35.38914 6.93068,0 0,35.38914 m -45.2403,-18.90691 -3.54873,18.90691 -7.14713,0 8.23344,-39.5838 12.44026,26.85906 12.43279,-26.85693 8.24026,39.58167 -7.14649,0 -3.54531,-18.90691 -9.98125,21.37423 -9.97784,-21.37423 0,0 m -39.27416,12.57972 c 4.28764,0.003 8.19612,-0.77623 10.89013,-2.54835 l 0,0 c 2.68377,-1.78066 4.32816,-4.39939 4.35652,-8.81797 l 0,0 c -0.0324,-4.44416 -1.67595,-7.05437 -4.35247,-8.83502 l 0,0 c -2.69806,-1.76359 -6.60334,-2.53556 -10.89418,-2.53343 l -0.22989,0 0,22.73477 0.22989,0 0,0 z m -7.16057,6.32719 0,-35.39127 8.50256,0 c 5.5454,0.003 10.70418,1.3712 14.55444,4.28422 l 0,0 c 3.85687,2.8981 6.3001,7.42756 6.28176,13.23868 l 0,0 c 0.0183,5.92413 -2.36241,10.53677 -6.21928,13.5031 l 0,0 c -3.85026,2.97486 -9.05318,4.36527 -14.75511,4.36527 l -8.36437,0 0,0 m -30.15018,-14.55231 8.32343,0 -4.1599,-8.91819 -4.16353,8.91819 0,0 z m 15.3166,14.55444 -3.97011,-8.22299 -14.36528,0 -3.97523,8.22299 -7.54528,0 18.69856,-38.45144 18.70368,38.45144 -7.54634,0 0,0"
       id="path58"
       style="fill:#edcf3f;fill-opacity:1;fill-rule:nonzero;stroke:none" />
  </g>
</svg>
