<?xml version="1.0" encoding="UTF-8" standalone="no"?>
<!DOCTYPE svg PUBLIC "-//W3C//DTD SVG 1.1//EN" "http://www.w3.org/Graphics/SVG/1.1/DTD/svg11.dtd">
<!-- Created with Inkscape (http://www.inkscape.org/) -->
<svg
   xmlns:svg="http://www.w3.org/2000/svg"
   xmlns:xlink="http://www.w3.org/1999/xlink"
   xmlns="http://www.w3.org/2000/svg"
   version="1.1"
   width="400"
   height="440"
   id="svg4120">
  <defs
     id="defs4555">
    <linearGradient
       id="linearGradient7519">
      <stop
         id="stop7521"
         style="stop-color:#0670ac;stop-opacity:1"
         offset="0" />
      <stop
         id="stop7523"
         style="stop-color:#bbcde3;stop-opacity:1"
         offset="0.64940405" />
      <stop
         id="stop7525"
         style="stop-color:#90b6d6;stop-opacity:1"
         offset="1" />
    </linearGradient>
    <linearGradient
       id="linearGradient7511">
      <stop
         id="stop7513"
         style="stop-color:#0670ac;stop-opacity:1"
         offset="0" />
      <stop
         id="stop7515"
         style="stop-color:#bbcde3;stop-opacity:1"
         offset="0.57174909" />
      <stop
         id="stop7517"
         style="stop-color:#90b6d6;stop-opacity:1"
         offset="1" />
    </linearGradient>
    <linearGradient
       id="linearGradient7503">
      <stop
         id="stop7505"
         style="stop-color:#0670ac;stop-opacity:1"
         offset="0" />
      <stop
         id="stop7507"
         style="stop-color:#bbcde3;stop-opacity:1"
         offset="0.43131933" />
      <stop
         id="stop7509"
         style="stop-color:#90b6d6;stop-opacity:1"
         offset="1" />
    </linearGradient>
    <linearGradient
       id="linearGradient7495">
      <stop
         id="stop7497"
         style="stop-color:#0670ac;stop-opacity:1"
         offset="0" />
      <stop
         id="stop7499"
         style="stop-color:#bbcde3;stop-opacity:1"
         offset="0.45587203" />
      <stop
         id="stop7501"
         style="stop-color:#90b6d6;stop-opacity:1"
         offset="1" />
    </linearGradient>
    <linearGradient
       id="linearGradient7487">
      <stop
         id="stop7489"
         style="stop-color:#0670ac;stop-opacity:1"
         offset="0" />
      <stop
         id="stop7491"
         style="stop-color:#bbcde3;stop-opacity:1"
         offset="0.4651795" />
      <stop
         id="stop7493"
         style="stop-color:#90b6d6;stop-opacity:1"
         offset="1" />
    </linearGradient>
    <linearGradient
       id="linearGradient7479">
      <stop
         id="stop7481"
         style="stop-color:#0670ac;stop-opacity:1"
         offset="0" />
      <stop
         id="stop7483"
         style="stop-color:#bbcde3;stop-opacity:1"
         offset="0.43480441" />
      <stop
         id="stop7485"
         style="stop-color:#90b6d6;stop-opacity:1"
         offset="1" />
    </linearGradient>
    <linearGradient
       id="linearGradient7471">
      <stop
         id="stop7473"
         style="stop-color:#0670ac;stop-opacity:1"
         offset="0" />
      <stop
         id="stop7475"
         style="stop-color:#bbcde3;stop-opacity:1"
         offset="0.57524896" />
      <stop
         id="stop7477"
         style="stop-color:#90b6d6;stop-opacity:1"
         offset="1" />
    </linearGradient>
    <linearGradient
       id="linearGradient7463">
      <stop
         id="stop7465"
         style="stop-color:#0670ac;stop-opacity:1"
         offset="0" />
      <stop
         id="stop7467"
         style="stop-color:#bbcde3;stop-opacity:1"
         offset="0.66489577" />
      <stop
         id="stop7469"
         style="stop-color:#90b6d6;stop-opacity:1"
         offset="1" />
    </linearGradient>
    <linearGradient
       id="linearGradient7423">
      <stop
         id="stop7425"
         style="stop-color:#0670ac;stop-opacity:1"
         offset="0" />
      <stop
         id="stop7431"
         style="stop-color:#bbcde3;stop-opacity:1"
         offset="0.83386129" />
      <stop
         id="stop7427"
         style="stop-color:#90b6d6;stop-opacity:1"
         offset="1" />
    </linearGradient>
    <linearGradient
       id="linearGradient7413">
      <stop
         id="stop7415"
         style="stop-color:#275090;stop-opacity:1"
         offset="0" />
      <stop
         id="stop7421"
         style="stop-color:#0070ac;stop-opacity:1"
         offset="0.26230332" />
      <stop
         id="stop7417"
         style="stop-color:#0070ac;stop-opacity:1"
         offset="0.57940775" />
      <stop
         id="stop7419"
         style="stop-color:#015090;stop-opacity:1"
         offset="1" />
    </linearGradient>
    <filter
       id="filter7753">
      <feGaussianBlur
         collect="always"
         stdDeviation="8.0275318"
         id="feGaussianBlur7755" />
    </filter>
    <linearGradient
       x1="102.52242"
       y1="336.10645"
       x2="159.84331"
       y2="261.6442"
       id="linearGradient7793"
       xlink:href="#linearGradient7471"
       gradientUnits="userSpaceOnUse"
       gradientTransform="translate(1.904764,13.333334)" />
    <linearGradient
       x1="177.81987"
       y1="378.59155"
       x2="193.10684"
       y2="261.6442"
       id="linearGradient7796"
       xlink:href="#linearGradient7487"
       gradientUnits="userSpaceOnUse"
       gradientTransform="translate(1.904764,13.333334)" />
    <linearGradient
       x1="138.70375"
       y1="354.41205"
       x2="178.40186"
       y2="261.6442"
       id="linearGradient7799"
       xlink:href="#linearGradient7479"
       gradientUnits="userSpaceOnUse"
       gradientTransform="translate(1.904764,13.333334)" />
    <linearGradient
       x1="34.033058"
       y1="278.46371"
       x2="91.327538"
       y2="261.6442"
       id="linearGradient7802"
       xlink:href="#linearGradient7423"
       gradientUnits="userSpaceOnUse"
       gradientTransform="translate(1.904764,13.333334)" />
    <linearGradient
       x1="64.765488"
       y1="314.37585"
       x2="131.8398"
       y2="261.6442"
       id="linearGradient7805"
       xlink:href="#linearGradient7463"
       gradientUnits="userSpaceOnUse"
       gradientTransform="translate(1.904764,13.333334)" />
    <linearGradient
       x1="335.40128"
       y1="314.95142"
       x2="261.33093"
       y2="261.6442"
       id="linearGradient7808"
       xlink:href="#linearGradient7519"
       gradientUnits="userSpaceOnUse"
       gradientTransform="translate(1.904764,13.333334)" />
    <linearGradient
       x1="365.34531"
       y1="279.02515"
       x2="304.82419"
       y2="261.6442"
       id="linearGradient7811"
       xlink:href="#linearGradient7423"
       gradientUnits="userSpaceOnUse"
       gradientTransform="translate(1.904764,13.333334)" />
    <linearGradient
       x1="221.3745"
       y1="378.92743"
       x2="207.03117"
       y2="261.6442"
       id="linearGradient7814"
       xlink:href="#linearGradient7495"
       gradientUnits="userSpaceOnUse"
       gradientTransform="translate(1.904764,13.333334)" />
    <linearGradient
       x1="258.97546"
       y1="355.75851"
       x2="221.56276"
       y2="261.6442"
       id="linearGradient7817"
       xlink:href="#linearGradient7503"
       gradientUnits="userSpaceOnUse"
       gradientTransform="translate(1.904764,13.333334)" />
    <linearGradient
       x1="295.37921"
       y1="337.11658"
       x2="238.55286"
       y2="261.6442"
       id="linearGradient7820"
       xlink:href="#linearGradient7511"
       gradientUnits="userSpaceOnUse"
       gradientTransform="translate(1.904764,13.333334)" />
    <linearGradient
       x1="42.823963"
       y1="144.56668"
       x2="104.87917"
       y2="163.98235"
       id="linearGradient7823"
       xlink:href="#linearGradient7423"
       gradientUnits="userSpaceOnUse"
       gradientTransform="translate(1.904764,13.333334)" />
    <linearGradient
       x1="59.022659"
       y1="104.05065"
       x2="140.87944"
       y2="163.98235"
       id="linearGradient7826"
       xlink:href="#linearGradient7463"
       gradientUnits="userSpaceOnUse"
       gradientTransform="translate(1.904764,13.333334)" />
    <linearGradient
       x1="109.19016"
       y1="93.155823"
       x2="164.82483"
       y2="163.98235"
       id="linearGradient7829"
       xlink:href="#linearGradient7471"
       gradientUnits="userSpaceOnUse"
       gradientTransform="translate(1.904764,13.333334)" />
    <linearGradient
       x1="253.84518"
       y1="78.617569"
       x2="219.46233"
       y2="163.98235"
       id="linearGradient7832"
       xlink:href="#linearGradient7503"
       gradientUnits="userSpaceOnUse"
       gradientTransform="translate(1.904764,13.333334)" />
    <linearGradient
       x1="289.38754"
       y1="92.651169"
       x2="234.07043"
       y2="163.98235"
       id="linearGradient7835"
       xlink:href="#linearGradient7511"
       gradientUnits="userSpaceOnUse"
       gradientTransform="translate(1.904764,13.333334)" />
    <linearGradient
       x1="220.04324"
       y1="58.461296"
       x2="206.02089"
       y2="163.98235"
       id="linearGradient7838"
       xlink:href="#linearGradient7495"
       gradientUnits="userSpaceOnUse"
       gradientTransform="translate(1.904764,13.333334)" />
    <linearGradient
       x1="179.83781"
       y1="58.125"
       x2="193.76218"
       y2="163.98235"
       id="linearGradient7841"
       xlink:href="#linearGradient7487"
       gradientUnits="userSpaceOnUse"
       gradientTransform="translate(1.904764,13.333334)" />
    <linearGradient
       x1="341.25266"
       y1="104.03047"
       x2="258.37027"
       y2="163.98235"
       id="linearGradient7844"
       xlink:href="#linearGradient7519"
       gradientUnits="userSpaceOnUse"
       gradientTransform="translate(1.904764,13.333334)" />
    <linearGradient
       x1="356.54691"
       y1="145.7493"
       x2="296.34952"
       y2="163.98235"
       id="linearGradient7847"
       xlink:href="#linearGradient7423"
       gradientUnits="userSpaceOnUse"
       gradientTransform="translate(1.904764,13.333334)" />
    <linearGradient
       x1="145.51822"
       y1="78.785927"
       x2="180.50084"
       y2="163.98235"
       id="linearGradient7850"
       xlink:href="#linearGradient7479"
       gradientUnits="userSpaceOnUse"
       gradientTransform="translate(1.904764,13.333334)" />
    <radialGradient
       cx="58.198612"
       cy="448.57166"
       r="175.7925"
       fx="58.198612"
       fy="448.57166"
       id="radialGradient7853"
       xlink:href="#linearGradient7413"
       gradientUnits="userSpaceOnUse"
       gradientTransform="matrix(-0.4873016,0.4712691,-0.4749138,-0.4910702,440.4412,470.33882)" />
    <radialGradient
       cx="197.14244"
       cy="258.5126"
       r="171.86096"
       fx="197.14244"
       fy="258.5126"
       id="radialGradient7856"
       xlink:href="#linearGradient7413"
       gradientUnits="userSpaceOnUse"
       gradientTransform="matrix(0.4769348,-0.4508129,0.4348113,0.4600056,-7.3810395,142.98876)" />
    <linearGradient
       x1="102.52242"
       y1="336.10645"
       x2="159.84331"
       y2="261.6442"
       id="linearGradient7956"
       xlink:href="#linearGradient7471"
       gradientUnits="userSpaceOnUse"
       gradientTransform="translate(2.5e-6,0)" />
    <linearGradient
       x1="177.81987"
       y1="378.59155"
       x2="193.10684"
       y2="261.6442"
       id="linearGradient7959"
       xlink:href="#linearGradient7487"
       gradientUnits="userSpaceOnUse"
       gradientTransform="translate(2.5e-6,0)" />
    <linearGradient
       x1="138.70375"
       y1="354.41205"
       x2="178.40186"
       y2="261.6442"
       id="linearGradient7962"
       xlink:href="#linearGradient7479"
       gradientUnits="userSpaceOnUse"
       gradientTransform="translate(2.5e-6,0)" />
    <linearGradient
       x1="34.033058"
       y1="278.46371"
       x2="91.327538"
       y2="261.6442"
       id="linearGradient7965"
       xlink:href="#linearGradient7423"
       gradientUnits="userSpaceOnUse"
       gradientTransform="translate(2.5e-6,0)" />
    <linearGradient
       x1="64.765488"
       y1="314.37585"
       x2="131.8398"
       y2="261.6442"
       id="linearGradient7968"
       xlink:href="#linearGradient7463"
       gradientUnits="userSpaceOnUse"
       gradientTransform="translate(2.5e-6,0)" />
    <linearGradient
       x1="335.40128"
       y1="314.95142"
       x2="261.33093"
       y2="261.6442"
       id="linearGradient7971"
       xlink:href="#linearGradient7519"
       gradientUnits="userSpaceOnUse"
       gradientTransform="translate(2.5e-6,0)" />
    <linearGradient
       x1="365.34531"
       y1="279.02515"
       x2="304.82419"
       y2="261.6442"
       id="linearGradient7974"
       xlink:href="#linearGradient7423"
       gradientUnits="userSpaceOnUse"
       gradientTransform="translate(2.5e-6,0)" />
    <linearGradient
       x1="221.3745"
       y1="378.92743"
       x2="207.03117"
       y2="261.6442"
       id="linearGradient7977"
       xlink:href="#linearGradient7495"
       gradientUnits="userSpaceOnUse"
       gradientTransform="translate(2.5e-6,0)" />
    <linearGradient
       x1="258.97546"
       y1="355.75851"
       x2="221.56276"
       y2="261.6442"
       id="linearGradient7980"
       xlink:href="#linearGradient7503"
       gradientUnits="userSpaceOnUse"
       gradientTransform="translate(2.5e-6,0)" />
    <linearGradient
       x1="295.37921"
       y1="337.11658"
       x2="238.55286"
       y2="261.6442"
       id="linearGradient7983"
       xlink:href="#linearGradient7511"
       gradientUnits="userSpaceOnUse"
       gradientTransform="translate(2.5e-6,0)" />
    <linearGradient
       x1="42.823963"
       y1="144.56668"
       x2="104.87917"
       y2="163.98235"
       id="linearGradient7986"
       xlink:href="#linearGradient7423"
       gradientUnits="userSpaceOnUse"
       gradientTransform="translate(2.5e-6,0)" />
    <linearGradient
       x1="59.022659"
       y1="104.05065"
       x2="140.87944"
       y2="163.98235"
       id="linearGradient7989"
       xlink:href="#linearGradient7463"
       gradientUnits="userSpaceOnUse"
       gradientTransform="translate(2.5e-6,0)" />
    <linearGradient
       x1="109.19016"
       y1="93.155823"
       x2="164.82483"
       y2="163.98235"
       id="linearGradient7992"
       xlink:href="#linearGradient7471"
       gradientUnits="userSpaceOnUse"
       gradientTransform="translate(2.5e-6,0)" />
    <linearGradient
       x1="253.84518"
       y1="78.617569"
       x2="219.46233"
       y2="163.98235"
       id="linearGradient7995"
       xlink:href="#linearGradient7503"
       gradientUnits="userSpaceOnUse"
       gradientTransform="translate(2.5e-6,0)" />
    <linearGradient
       x1="289.38754"
       y1="92.651169"
       x2="234.07043"
       y2="163.98235"
       id="linearGradient7998"
       xlink:href="#linearGradient7511"
       gradientUnits="userSpaceOnUse"
       gradientTransform="translate(2.5e-6,0)" />
    <linearGradient
       x1="220.04324"
       y1="58.461296"
       x2="206.02089"
       y2="163.98235"
       id="linearGradient8001"
       xlink:href="#linearGradient7495"
       gradientUnits="userSpaceOnUse"
       gradientTransform="translate(2.5e-6,0)" />
    <linearGradient
       x1="179.83781"
       y1="58.125"
       x2="193.76218"
       y2="163.98235"
       id="linearGradient8004"
       xlink:href="#linearGradient7487"
       gradientUnits="userSpaceOnUse"
       gradientTransform="translate(2.5e-6,0)" />
    <linearGradient
       x1="341.25266"
       y1="104.03047"
       x2="258.37027"
       y2="163.98235"
       id="linearGradient8007"
       xlink:href="#linearGradient7519"
       gradientUnits="userSpaceOnUse"
       gradientTransform="translate(2.5e-6,0)" />
    <linearGradient
       x1="356.54691"
       y1="145.7493"
       x2="296.34952"
       y2="163.98235"
       id="linearGradient8010"
       xlink:href="#linearGradient7423"
       gradientUnits="userSpaceOnUse"
       gradientTransform="translate(2.5e-6,0)" />
    <linearGradient
       x1="145.51822"
       y1="78.785927"
       x2="180.50084"
       y2="163.98235"
       id="linearGradient8013"
       xlink:href="#linearGradient7479"
       gradientUnits="userSpaceOnUse"
       gradientTransform="translate(2.5e-6,0)" />
    <radialGradient
       cx="58.198612"
       cy="448.57166"
       r="175.7925"
       fx="58.198612"
       fy="448.57166"
       id="radialGradient8016"
       xlink:href="#linearGradient7413"
       gradientUnits="userSpaceOnUse"
       gradientTransform="matrix(-0.4873016,0.4712691,-0.4749138,-0.4910702,438.53644,457.00549)" />
    <radialGradient
       cx="197.14244"
       cy="258.5126"
       r="171.86096"
       fx="197.14244"
       fy="258.5126"
       id="radialGradient8019"
       xlink:href="#linearGradient7413"
       gradientUnits="userSpaceOnUse"
       gradientTransform="matrix(0.4769348,-0.4508129,0.4348113,0.4600056,-9.285801,129.65543)" />
  </defs>
  <g
     id="g8023">
    <path
       d="M 204.74413,446.66371 C 142.39825,372.31961 12.724258,368.11832 12.724258,277.80877 C 12.724258,226.3014 25.631297,205.24382 25.631297,174.2339 C 25.848199,155.47541 19.841117,118.44987 15.091777,100.90287 C 109.80277,100.90287 170.31248,60.025167 204.74413,25.275277 C 240.1006,60.025167 299.68045,100.90287 394.39733,100.90287 C 389.64546,118.44987 383.64007,155.47541 383.85782,174.2339 C 383.85782,205.24382 396.76485,226.3014 396.76485,277.80877 C 396.76485,368.11832 268.01652,372.31961 204.74413,446.66371 z"
       transform="matrix(0.9579148,0,0,0.9456634,8.0588326,5.549348)"
       id="path7675"
       style="fill:#000000;fill-opacity:1;filter:url(#filter7753)" />
    <path
       d="M 199.99958,429.34735 C 138.30966,355.4785 10.000012,351.30406 10.000012,261.57182 C 10.000012,210.39371 22.771247,189.47074 22.771247,158.65906 C 22.985876,140.02048 17.041994,103.23163 12.342625,85.796799 C 106.05713,85.796799 165.9302,45.180411 199.99958,10.652655 C 234.98405,45.180411 293.93704,85.796799 387.65738,85.796799 C 382.95551,103.23163 377.0133,140.02048 377.22876,158.65906 C 377.22876,189.47074 389.99999,210.39371 389.99999,261.57182 C 389.99999,351.30406 262.60626,355.4785 199.99958,429.34735 z"
       id="path4124"
       style="fill:#ffffff" />
    <path
       d="M 36.198014,163.98401 C 36.391013,147.34447 33.523476,118.03186 29.378979,102.65762 L 28.138627,97.965746 L 32.974426,97.965746 C 105.91322,97.965746 168.59642,63.056148 197.36664,34.285929 L 199.99792,31.568963 L 202.63419,34.285929 C 231.40358,63.056148 294.08595,97.965746 367.02391,97.965746 L 371.86055,97.965746 L 370.62019,102.65762 C 366.09386,119.45523 363.92095,145.59749 363.83526,163.98401 L 36.198014,163.98401 z"
       id="path4128"
       style="fill:url(#radialGradient8019);fill-opacity:1" />
    <path
       d="M 375.79291,261.6442 C 375.79291,299.06944 346.81222,319.00494 312.02824,337.27417 C 273.84015,357.33113 233.72955,373.89497 202.63419,404.99116 L 199.99792,407.61329 L 197.36664,404.99116 C 166.26961,373.89497 126.16068,357.33113 87.970931,337.27417 C 53.188615,319.00494 24.207928,299.06944 24.207928,261.6442 L 375.79291,261.6442 z"
       id="path4132"
       style="fill:url(#radialGradient8016);fill-opacity:1;stroke:none" />
    <path
       d="M 137.437,82.525792 L 177.26226,163.98235 L 184.03637,163.98235 L 153.40271,74.738434 C 148.30653,77.443753 142.97326,80.04758 137.437,82.525792 z"
       id="path4136"
       style="fill:url(#linearGradient8013);fill-opacity:1" />
    <path
       d="M 358.01617,133.23056 L 295.11833,163.98235 L 335.48349,163.98235 L 356.48798,156.77315 C 356.70344,149.19876 357.21672,141.1635 358.01617,133.23056 z"
       id="path4140"
       style="fill:url(#linearGradient8010);fill-opacity:1" />
    <path
       d="M 324.90929,101.69762 L 253.39553,163.98235 L 269.08837,163.98235 L 356.46552,105.16745 C 345.67253,104.68828 335.13077,103.48619 324.90929,101.69762 z"
       id="path4144"
       style="fill:url(#linearGradient8007);fill-opacity:1" />
    <path
       d="M 171.41987,64.203329 L 190.91364,163.98235 L 196.79263,163.98235 L 189.04105,51.599305 C 183.7319,55.831149 177.84791,60.067153 171.41987,64.203329 z"
       id="path4148"
       style="fill:url(#linearGradient8004);fill-opacity:1" />
    <path
       d="M 210.95895,51.598473 L 203.20737,163.98235 L 209.08719,163.98235 L 228.58096,64.204161 C 222.15292,60.067985 216.26727,55.831149 210.95895,51.598473 z"
       id="path4152"
       style="fill:url(#linearGradient8001);fill-opacity:1" />
    <path
       d="M 281.09676,90.010346 L 231.30375,163.98235 L 240.50533,163.98235 L 299.73035,95.982506 C 293.34058,94.193106 287.1255,92.186576 281.09676,90.010346 z"
       id="path4156"
       style="fill:url(#linearGradient7998);fill-opacity:1" />
    <path
       d="M 246.59646,74.738434 L 215.96446,163.98235 L 222.73774,163.98235 L 262.56217,82.525792 C 257.02508,80.04758 251.69264,77.443753 246.59646,74.738434 z"
       id="path4160"
       style="fill:url(#linearGradient7995);fill-opacity:1" />
    <path
       d="M 100.26715,95.983336 L 159.49384,163.98235 L 168.69708,163.98235 L 118.90407,90.009506 C 112.8745,92.186576 106.65859,94.193106 100.26715,95.983336 z"
       id="path4164"
       style="fill:url(#linearGradient7992);fill-opacity:1" />
    <path
       d="M 43.533654,105.16745 L 130.90996,163.98235 L 146.60364,163.98235 L 75.089885,101.69762 C 64.868405,103.48619 54.326647,104.68828 43.533654,105.16745 z"
       id="path4168"
       style="fill:url(#linearGradient7989);fill-opacity:1" />
    <path
       d="M 43.507035,156.77149 L 64.51485,163.98235 L 104.87917,163.98235 L 41.982172,133.23222 C 42.780791,141.1635 43.292406,149.19793 43.507035,156.77149 z"
       id="path4172"
       style="fill:url(#linearGradient7986);fill-opacity:1" />
    <path
       d="M 305.89635,332.07233 L 244.55499,261.6442 L 234.43334,261.6442 L 287.98734,341.20486 C 293.962,338.19258 299.94332,335.17031 305.89635,332.07233 z"
       id="path4176"
       style="fill:url(#linearGradient7983);fill-opacity:1" />
    <path
       d="M 268.70321,351.01373 L 225.00964,261.6442 L 217.5592,261.6442 L 251.42643,360.30598 C 257.11992,357.10652 262.8891,354.02934 268.70321,351.01373 z"
       id="path4180"
       style="fill:url(#linearGradient7980);fill-opacity:1" />
    <path
       d="M 231.61155,372.27943 L 209.99562,261.6442 L 203.52848,261.6442 L 212.13692,386.44076 C 218.4094,381.34541 224.92229,376.66434 231.61155,372.27943 z"
       id="path4184"
       style="fill:url(#linearGradient7977);fill-opacity:1" />
    <path
       d="M 367.98808,268.15127 L 349.02755,261.6442 L 304.63104,261.6442 L 361.03677,289.22148 C 364.73953,282.9099 367.13788,275.96941 367.98808,268.15127 z"
       id="path4188"
       style="fill:url(#linearGradient7974);fill-opacity:1" />
    <path
       d="M 344.66427,307.86339 L 275.99808,261.6442 L 258.73462,261.6442 L 326.47158,320.63962 C 333.20327,316.54337 339.31436,312.33482 344.66427,307.86339 z"
       id="path4192"
       style="fill:url(#linearGradient7971);fill-opacity:1" />
    <path
       d="M 73.530916,320.64045 L 141.26788,261.6442 L 124.00608,261.6442 L 55.337398,307.86505 C 60.686475,312.33648 66.799231,316.54503 73.530916,320.64045 z"
       id="path4196"
       style="fill:url(#linearGradient7968);fill-opacity:1" />
    <path
       d="M 38.965725,289.22231 L 95.373954,261.6442 L 50.975777,261.6442 L 32.012757,268.15293 C 32.862952,275.97107 35.261302,282.91156 38.965725,289.22231 z"
       id="path4200"
       style="fill:url(#linearGradient7965);fill-opacity:1" />
    <path
       d="M 148.57523,360.30681 L 182.44246,261.6442 L 174.99036,261.6442 L 131.29596,351.01373 C 137.1109,354.03017 142.88175,357.10652 148.57523,360.30681 z"
       id="path4204"
       style="fill:url(#linearGradient7962);fill-opacity:1" />
    <path
       d="M 187.86641,386.44242 L 196.47402,261.6442 L 190.00687,261.6442 L 168.39178,372.28192 C 175.0802,376.66684 181.5931,381.34707 187.86641,386.44242 z"
       id="path4208"
       style="fill:url(#linearGradient7959);fill-opacity:1" />
    <path
       d="M 112.01349,341.20486 L 165.5675,261.6442 L 155.44667,261.6442 L 94.104484,332.07233 C 100.05752,335.17031 106.03883,338.19341 112.01349,341.20486 z"
       id="path4212"
       style="fill:url(#linearGradient7956);fill-opacity:1" />
    <path
       d="M 64.97156,167.21093 C 69.873079,167.21093 73.846204,171.18405 73.846204,176.08724 C 73.846204,180.98626 69.873079,184.96105 64.97156,184.96105 C 60.071706,184.96105 56.098581,180.98626 56.098581,176.08724 C 56.098581,171.18405 60.071706,167.21093 64.97156,167.21093 C 64.97156,167.21093 60.071706,167.21093 64.97156,167.21093 z"
       id="path4392"
       style="fill:#ff0016" />
    <path
       d="M 50.711236,239.77953 L 37.082318,201.60225 L 23.678843,239.77953 L 50.711236,239.77953 z"
       id="path4396"
       style="fill:#000000" />
    <path
       d="M 54.677706,239.77953 L 39.038932,196.11674 L 41.389032,189.41418 L 54.946407,189.41418 L 72.950254,239.77953 L 54.677706,239.77953 z"
       id="path4400"
       style="fill:#000000" />
    <path
       d="M 77.256969,239.77953 L 61.618197,196.11674 L 63.968297,189.41418 L 77.523175,189.41418 L 95.527855,239.77953 L 77.256969,239.77953 z"
       id="path4404"
       style="fill:#000000" />
    <path
       d="M 240.75739,210.18407 L 240.75739,222.09263 L 249.04888,222.09263 C 248.18122,225.17147 244.50092,226.50832 241.62589,226.50832 C 235.66953,226.50832 232.19388,221.28902 232.19388,215.74029 C 232.19388,209.65083 235.80513,204.03471 242.36045,204.03471 C 245.30619,204.03471 247.91335,205.37073 249.32008,207.9155 L 266.44378,201.62305 C 262.49728,192.99215 250.45312,188.648 241.69161,188.648 C 225.83655,188.648 213.72999,198.54754 213.72999,215.00406 C 213.72999,231.19106 226.17263,240.68796 241.55934,240.68796 C 249.38497,240.68796 257.6124,237.54506 262.96314,231.72763 C 268.91867,225.30541 268.91867,218.41483 269.05094,210.18407 L 240.75739,210.18407 z"
       id="path4408"
       style="fill:#707070" />
    <path
       d="M 106.82393,189.46055 L 98.660978,239.89412 L 116.39071,239.89412 L 118.52244,218.34287 C 118.72293,216.33634 118.85645,214.26452 118.99038,212.25965 L 119.5883,212.25965 C 119.71974,214.39761 120.19808,216.41121 120.73216,218.55084 L 127.28332,239.89412 L 137.99396,239.89412 L 145.27303,217.27701 C 145.80794,215.67145 146.16294,213.93259 146.49487,212.25965 L 146.83283,212.25965 L 149.30251,239.89412 L 163.15875,239.89412 L 167.03225,239.89412 L 182.55227,239.89412 L 184.03408,233.60292 L 197.86432,233.60292 L 199.55411,239.89412 L 218.94763,239.89412 L 200.95793,189.46055 L 180.68051,189.46055 L 165.78441,232.32909 L 158.73931,189.46055 L 140.07369,189.46055 L 134.38042,209.24403 C 133.77646,211.382 133.43934,213.74415 133.10658,215.95118 L 132.63864,215.95118 L 125.67153,189.46055 L 106.82393,189.46055 z M 190.63724,206.22842 L 191.31316,206.22842 C 191.64924,208.36971 191.97577,210.58793 192.509,212.72759 L 194.66673,221.61845 L 187.30967,221.61845 L 190.63724,206.22842 z"
       id="path4412"
       style="fill:#707070" />
    <path
       d="M 271.17497,189.46055 L 271.17497,239.89412 L 288.69674,239.89412 L 288.69674,223.49021 C 288.69674,220.14517 288.15433,216.88 287.55288,213.4035 L 288.09881,213.4035 L 304.21676,239.89412 L 320.51668,239.89412 L 321.73852,239.89412 L 339.9362,239.89412 L 341.39202,233.60292 L 355.24825,233.60292 L 356.91204,239.89412 L 376.33156,239.89412 L 358.31586,189.46055 L 338.06444,189.46055 L 321.73852,236.38457 L 321.73852,189.46055 L 304.21676,189.46055 L 304.21676,204.56463 C 304.21676,208.84306 305.04117,213.19181 305.77656,217.40699 L 305.23063,217.40699 L 288.77473,189.46055 L 271.17497,189.46055 z M 348.02117,206.22842 L 348.69708,206.22842 C 349.0315,208.36971 349.35886,210.58793 349.89293,212.72759 L 352.02466,221.61845 L 344.69359,221.61845 L 348.02117,206.22842 z"
       id="path4420"
       style="fill:#707070" />
    <g
       transform="translate(2.5e-6,0)"
       id="g6852">
      <path
         d="M 54.920616,277.62654 L 64.01488,303.5991 L 72.040992,303.5991 L 74.659794,293.40341 C 74.968427,292.12895 75.036642,290.81955 75.141461,289.47687 L 75.450925,289.47687 L 78.414131,303.5991 L 86.645722,303.5991 L 95.808201,277.62654 L 85.991853,277.62654 L 83.373883,288.54681 C 83.030311,290.02592 82.857277,291.61068 82.719182,293.12639 L 82.512041,293.12639 L 78.964845,277.62654 L 71.730696,277.62654 L 68.975463,288.3405 C 68.562844,289.88699 68.355702,291.54246 68.182668,293.12639 L 67.975527,293.12639 L 64.702856,277.62654 L 54.920616,277.62654 z"
         id="path4428"
         style="fill:#000000" />
      <path
         d="M 52.827571,275.5335 L 61.921835,301.50606 L 69.948779,301.50606 L 72.566749,291.31036 C 72.877046,290.0359 72.944429,288.72733 73.048416,287.38382 L 73.35788,287.38382 L 76.321086,301.50606 L 84.552677,301.50606 L 93.71682,275.5335 L 83.898808,275.5335 L 81.280838,286.4521 C 80.937266,287.93454 80.765064,289.51763 80.626137,291.03418 L 80.418996,291.03418 L 76.8718,275.5335 L 69.638483,275.5335 L 66.88325,286.24496 C 66.469799,287.79728 66.262657,289.45025 66.089623,291.03418 L 65.883314,291.03418 L 62.610643,275.5335 L 52.827571,275.5335 z"
         id="path4484"
         style="fill:#ffffff" />
      <path
         d="M 99.25,277.625 L 99.25,303.59375 L 108.5,303.59375 L 108.5,295.25 L 108.65625,295.25 L 112.78125,303.59375 L 123.6875,303.59375 L 118.03125,295.15625 C 117.51548,294.39838 116.91917,294.00185 116.4375,293.625 L 116.4375,293.40625 C 119.95059,292.23411 121.46875,290.58279 121.46875,286.65625 C 121.46875,280.11089 116.51112,277.625 110.65625,277.625 L 99.25,277.625 z M 108.5,284.71875 L 109.21875,284.71875 C 110.83678,284.71874 112.25,284.97054 112.25,286.96875 C 112.25,288.89709 110.70607,289.125 109.15625,289.125 L 108.5,289.125 L 108.5,284.71875 z"
         id="path4432"
         style="fill:#000000" />
      <path
         d="M 97.153165,275.53558 L 97.153165,301.50626 L 106.40799,301.50626 L 106.40799,293.16133 L 106.56397,293.16133 L 110.69744,301.50626 L 121.59005,301.50626 L 115.94877,293.05734 C 115.43299,292.29864 114.84464,291.90205 114.36297,291.52354 L 114.36297,291.31556 C 117.87606,290.14341 119.38033,288.4838 119.38033,284.55643 C 119.38033,278.01356 114.42058,275.53558 108.56571,275.53558 L 97.153165,275.53558 z M 106.40799,282.63267 L 107.1099,282.63267 C 108.7271,282.63267 110.15151,282.87018 110.15151,284.86839 C 110.15151,286.79919 108.60772,287.05211 107.0579,287.05211 L 106.40799,287.05211 L 106.40799,282.63267 z"
         id="path4492"
         style="fill:#ffffff" />
      <path
         d="M 131.74352,295.36585 C 129.22954,295.36585 126.61157,296.98554 126.61157,299.74078 C 126.61157,302.46273 129.22954,304.01172 131.74352,304.01172 C 134.25667,304.01172 136.87548,302.46273 136.87548,299.74078 C 136.87548,296.98554 134.25667,295.36585 131.74352,295.36585 z"
         id="path4440"
         style="fill:#000000" />
      <path
         d="M 129.65131,293.27363 C 127.13649,293.27363 124.51936,294.89416 124.51936,297.64773 C 124.51936,300.36886 127.13649,301.91867 129.65131,301.91867 C 132.16446,301.91867 134.78326,300.36886 134.78326,297.64773 C 134.78326,294.89416 132.16446,293.27363 129.65131,293.27363 z"
         id="path4496"
         style="fill:#ffffff" />
      <path
         d="M 142.27696,303.5991 L 151.30218,303.5991 L 151.30218,295.15954 C 151.30218,293.43752 151.02765,291.74877 150.71569,289.9577 L 150.99271,289.9577 L 159.29335,303.5991 L 168.31857,303.5991 L 168.31857,277.62654 L 159.29335,277.62654 L 159.29335,285.40974 C 159.29335,287.61509 159.7068,289.85538 160.08615,292.02413 L 159.81162,292.02413 L 151.33712,277.62654 L 142.27696,277.62654 L 142.27696,303.5991 z"
         id="path4444"
         style="fill:#000000" />
      <path
         d="M 140.18392,301.50606 L 149.20913,301.50606 L 149.20913,293.06732 C 149.20913,291.34364 148.93378,289.65573 148.62265,287.86549 L 148.89967,287.86549 L 157.20031,301.50606 L 166.22636,301.50606 L 166.22636,275.53266 L 157.20031,275.53266 L 157.20031,283.31919 C 157.20031,285.52205 157.61459,287.76234 157.99393,289.93275 L 157.71858,289.93275 L 149.24407,275.53266 L 140.18392,275.53266 L 140.18392,301.50606 z"
         id="path4500"
         style="fill:#ffffff" />
      <path
         d="M 173.6926,303.5991 L 191.43108,303.5991 L 191.43108,296.50305 L 183.19949,296.50305 L 183.19949,293.95329 L 190.46774,293.95329 L 190.46774,287.20414 L 183.19949,287.20414 L 183.19949,284.72176 L 191.15655,284.72176 L 191.15655,277.62654 L 173.6926,277.62654 L 173.6926,303.5991 z"
         id="path4448"
         style="fill:#000000" />
      <path
         d="M 171.59956,301.50606 L 189.33803,301.50606 L 189.33803,294.41083 L 181.10644,294.41083 L 181.10644,291.86025 L 188.3747,291.86025 L 188.3747,285.10943 L 181.10644,285.10943 L 181.10644,282.63038 L 189.06268,282.63038 L 189.06268,275.53266 L 171.59956,275.53266 L 171.59956,301.50606 z"
         id="path4504"
         style="fill:#ffffff" />
      <path
         d="M 211.16443,277.62654 L 211.16443,292.09484 C 211.16443,294.12632 211.09705,295.91739 208.5814,295.91739 C 206.06825,295.91739 205.9992,294.12632 205.9992,292.09484 L 205.9992,277.62654 L 196.56054,277.62654 L 196.56054,292.98996 C 196.56054,300.56685 201.31398,304.01255 208.5814,304.01255 C 215.84883,304.01255 220.6031,300.56685 220.6031,292.98996 L 220.6031,277.62654 L 211.16443,277.62654 z"
         id="path4452"
         style="fill:#000000" />
      <path
         d="M 209.07305,275.5335 L 209.07305,290.00096 C 209.07305,292.03411 209.00484,293.82518 206.48836,293.82518 C 203.97521,293.82518 203.90533,292.03411 203.90533,290.00096 L 203.90533,275.5335 L 194.46749,275.5335 L 194.46749,290.89608 C 194.46749,298.47547 199.22093,301.91951 206.48836,301.91951 C 213.75745,301.91951 218.51255,298.47547 218.51255,290.89608 L 218.51255,275.5335 L 209.07305,275.5335 z"
         id="path4508"
         style="fill:#ffffff" />
      <path
         d="M 224.81332,301.635 C 227.73909,303.11743 231.53086,304.01255 234.8027,304.01255 C 240.41715,304.01255 246.06571,300.94702 246.06571,294.74692 C 246.06571,290.33788 243.17155,288.20158 239.17513,287.30479 L 237.03966,286.82396 C 236.31674,286.65093 235.1471,286.51283 235.1471,285.54783 C 235.1471,284.48052 236.35085,284.17105 237.17859,284.17105 C 239.20924,284.17105 241.03774,285.03289 242.65578,286.13515 L 245.2047,279.48749 C 242.65578,277.93684 239.93465,277.21309 236.97228,277.21309 C 231.32205,277.21309 225.70843,280.65796 225.70843,286.82396 C 225.70843,290.88693 228.80807,293.05817 232.49419,293.71204 L 234.38758,294.05728 C 235.24942,294.23031 236.48978,294.33347 236.48978,295.50311 C 236.48978,296.67442 235.00818,297.05376 234.07812,297.05376 C 231.90771,297.05376 229.87622,295.98644 228.18748,294.67787 L 227.70498,294.29853 L 224.81332,301.635 z"
         id="path4456"
         style="fill:#000000" />
      <path
         d="M 222.71944,299.54279 C 225.64687,301.02439 229.43781,301.91951 232.70882,301.91951 C 238.3241,301.91951 243.97183,298.85481 243.97183,292.65304 C 243.97183,288.24483 241.081,286.10853 237.08375,285.21341 L 234.94828,284.73092 C 234.22453,284.55788 233.05322,284.42145 233.05322,283.45645 C 233.05322,282.38747 234.25781,282.07967 235.08471,282.07967 C 237.11703,282.07967 238.9447,282.94068 240.5619,284.04294 L 243.11249,277.39444 C 240.5619,275.84213 237.84244,275.11921 234.87923,275.11921 C 229.23067,275.11921 223.61456,278.56575 223.61456,284.73092 C 223.61456,288.79472 226.71503,290.96513 230.40198,291.61983 L 232.29703,291.96257 C 233.15804,292.1356 234.39673,292.23959 234.39673,293.4109 C 234.39673,294.5822 232.91513,294.96071 231.9859,294.96071 C 229.81466,294.96071 227.78318,293.89256 226.09693,292.58399 L 225.61277,292.20548 L 222.71944,299.54279 z"
         id="path4512"
         style="fill:#ffffff" />
      <path
         d="M 248.57886,286.06694 L 253.78069,285.82486 L 253.78069,303.59993 L 263.2177,303.59993 L 263.2177,285.82486 L 268.41953,286.06694 L 268.41953,277.62737 L 248.57886,277.62737 L 248.57886,286.06694 z"
         id="path4460"
         style="fill:#000000" />
      <path
         d="M 276.21875,277.625 L 267.1875,303.59375 L 277.15625,303.59375 L 277.9375,300.375 L 285.0625,300.375 L 285.90625,303.59375 L 295.90625,303.59375 L 286.65625,277.625 L 276.21875,277.625 z M 281.34375,286.28125 L 281.6875,286.28125 C 281.86055,287.38352 282.0388,288.52274 282.3125,289.625 L 283.40625,294.1875 L 279.625,294.1875 L 281.34375,286.28125 z"
         id="path4464"
         style="fill:#000000" />
      <path
         d="M 299.3125,277.625 L 299.3125,303.59375 L 311.28125,303.59375 C 318.89475,303.59376 324.34375,298.71665 324.34375,291 C 324.34376,281.459 317.65076,277.625 308.9375,277.625 L 299.3125,277.625 z M 308.75,285.75 L 309.34375,285.75 C 312.78778,285.75001 314.90625,287.3159 314.90625,290.96875 C 314.90625,294.37868 312.47833,295.8125 309.34375,295.8125 L 308.75,295.8125 L 308.75,285.75 z"
         id="path4472"
         style="fill:#000000" />
      <path
         d="M 297.22365,275.53558 L 297.22365,301.50626 L 309.18212,301.50626 C 316.79563,301.50626 322.23246,296.61286 322.23246,288.89787 C 322.23245,279.35604 315.55734,275.53558 306.84242,275.53558 L 297.22365,275.53558 z M 306.66044,283.67254 L 307.25837,283.67254 C 310.70406,283.67256 312.79566,285.21903 312.79566,288.87187 C 312.79566,292.28179 310.39294,293.73325 307.25837,293.73325 L 306.66044,293.73325 L 306.66044,283.67254 z"
         id="path4532"
         style="fill:#ffffff" />
      <path
         d="M 327.33176,286.06694 L 332.53442,285.82486 L 332.53442,303.59993 L 341.97143,303.59993 L 341.97143,285.82486 L 347.17326,286.06694 L 347.17326,277.62737 L 327.33176,277.62737 L 327.33176,286.06694 z"
         id="path4480"
         style="fill:#000000" />
      <path
         d="M 325.24038,283.97223 L 330.44138,283.73181 L 330.44138,301.50606 L 339.87838,301.50606 L 339.87838,283.73181 L 345.08022,283.97223 L 345.08022,275.5335 L 325.24038,275.5335 L 325.24038,283.97223 z"
         id="path4536"
         style="fill:#ffffff" />
      <path
         d="M 246.48582,283.97223 L 251.68765,283.73181 L 251.68765,301.50606 L 261.12548,301.50606 L 261.12548,283.73181 L 266.32732,283.97223 L 266.32732,275.5335 L 246.48582,275.5335 L 246.48582,283.97223 z"
         id="path4516"
         style="fill:#ffffff" />
      <path
         d="M 274.1126,275.53558 L 265.09175,301.50626 L 275.07447,301.50626 L 275.82838,298.25668 L 282.97747,298.25668 L 283.83536,301.50626 L 293.81808,301.50626 L 284.56326,275.53558 L 274.1126,275.53558 z M 279.23394,284.16648 L 279.5979,284.16648 L 281.31368,292.09546 L 277.51816,292.09546 L 279.23394,284.16648 z"
         id="path4524"
         style="fill:#ffffff" />
    </g>
    <g
       transform="translate(2.5e-6,0)"
       id="g6846">
      <path
         d="M 161.60934,130.11012 L 162.62259,130.90625 C 166.16979,133.65732 170.4399,135.9001 174.99951,135.9001 C 176.95446,135.9001 180.06657,135.10398 180.06657,132.64324 C 180.06657,130.1825 177.46025,129.96537 175.65088,129.6035 L 171.67027,128.87975 C 163.92534,127.50463 157.41161,122.94502 157.41161,114.40397 C 157.41161,101.44805 169.20953,94.209742 181.07899,94.209742 C 187.30405,94.209742 193.02166,95.729612 198.37822,98.987309 L 193.02166,112.95647 C 189.62088,110.64048 185.78418,108.83028 181.51407,108.83028 C 179.77708,108.83028 177.24396,109.48165 177.24396,111.7261 C 177.24396,113.75259 179.7047,114.04209 181.22457,114.40397 L 185.71181,115.41721 C 194.10811,117.29896 200.18759,121.78619 200.18759,131.051 C 200.18759,144.07929 188.3173,150.52064 176.51938,150.52064 C 169.64378,150.52064 161.68172,148.6389 155.52986,145.52678 L 161.60934,130.11012 z"
         id="path4540"
         style="fill:#000000" />
      <path
         d="M 246.79694,117.22658 C 243.61162,114.25922 239.63101,111.7261 235.14377,111.7261 C 229.20821,111.7261 224.3591,116.43046 224.3591,122.36519 C 224.3591,128.37313 229.49854,133.00511 235.43244,133.00511 C 239.99288,133.00511 243.61162,131.051 246.79694,127.93888 L 246.21711,148.35023 C 243.03262,149.8701 235.6504,150.52064 232.10403,150.52064 C 216.54179,150.52064 204.382,138.43405 204.382,122.87265 C 204.382,106.94853 216.90367,94.209742 232.90016,94.209742 C 237.38739,94.209742 242.01938,95.005865 246.21711,96.45336 L 246.79694,117.22658 z"
         id="path4544"
         style="fill:#000000" />
      <path
         d="M 159.2842,127.78498 L 160.29828,128.5811 C 163.84464,131.33218 168.11476,133.57579 172.6752,133.57579 C 174.62932,133.57579 177.74143,132.77967 177.74143,130.31893 C 177.74143,127.85819 175.13511,127.64106 173.32574,127.27919 L 169.34513,126.55461 C 161.60103,125.18032 155.08646,120.61988 155.08646,112.07966 C 155.08646,99.122908 166.88438,91.885431 178.75468,91.885431 C 184.97974,91.885431 190.69735,93.405301 196.05308,96.662165 L 190.69735,110.63133 C 187.29573,108.31534 183.45904,106.50597 179.18893,106.50597 C 177.45193,106.50597 174.91882,107.15734 174.91882,109.40096 C 174.91882,111.42745 177.37956,111.71695 178.89943,112.07966 L 183.38666,113.09207 C 191.78297,114.97465 197.86245,119.46188 197.86245,128.72668 C 197.86245,141.75497 185.99215,148.19633 174.19507,148.19633 C 167.31863,148.19633 159.35658,146.31458 153.20472,143.20247 L 159.2842,127.78498 z"
         id="path4548"
         style="fill:#ffffff" />
      <path
         d="M 244.4718,114.90227 C 241.28648,111.93407 237.30587,109.40096 232.81863,109.40096 C 226.88307,109.40096 222.03396,114.10615 222.03396,120.04088 C 222.03396,126.04882 227.1734,130.6808 233.10813,130.6808 C 237.66774,130.6808 241.28648,128.72668 244.4718,125.61457 L 243.89197,146.02509 C 240.70748,147.54496 233.32525,148.19633 229.77806,148.19633 C 214.21665,148.19633 202.05686,136.10891 202.05686,120.5475 C 202.05686,104.62422 214.57853,91.885431 230.57501,91.885431 C 235.06225,91.885431 239.69507,92.681553 243.89197,94.129048 L 244.4718,114.90227 z"
         id="path4552"
         style="fill:#ffffff" />
    </g>
  </g>
</svg>
