<?xml version="1.0" encoding="UTF-8" standalone="no"?>
<!-- Created with Inkscape (http://www.inkscape.org/) -->
<svg
   xmlns:svg="http://www.w3.org/2000/svg"
   xmlns="http://www.w3.org/2000/svg"
   version="1.0"
   width="2480"
   height="2480"
   viewBox="0 0 2480.52 2480.52"
   id="svg2778"
   xml:space="preserve"
   style="fill-rule:evenodd"><defs
   id="defs3107" />
 <path
   d="M 664,59.0625 C 660.74587,59.133077 657.39853,59.347913 653.9375,59.71875 L 650.75,60.0625 L 648.40625,62.28125 C 631.66976,78.241803 614.70632,92.599857 599.1875,110 C 597.78955,111.56605 596.53613,113.34238 595.34375,115.21875 C 559.6747,100.92429 523.7876,84.802356 487.34375,66.46875 L 119.5625,339.9375 C 160.85304,476.52999 201.45842,611.15073 233.6875,745.75 L 122.40625,745.75 C 167.4867,883.71907 189.12437,1021.4986 189.96875,1263.9688 L 298.09375,1263.9688 L 298.09375,1445.0938 C 298.09375,1792.8915 492.15053,2097.9422 778.21875,2259.0625 C 782.28815,2304.1644 784.36266,2356.1493 784.53125,2420.9375 L 1697.3125,2420.9375 C 1698.0248,2366.5208 1700.1684,2311.7599 1705.2188,2258.8125 C 1991.0616,2097.6308 2184.9375,1792.7238 2184.9375,1445.0938 L 2184.9375,1263.9688 L 2274.1562,1263.9688 C 2277.2988,1084.5384 2292.6339,902.82606 2344.4375,745.75 L 2249.25,745.75 C 2280.2819,615.69249 2319.4106,483.76885 2360.4375,341.875 L 1993.625,64.375 C 1893.8411,119.11119 1737.7033,168.50434 1563.9062,196.625 C 1560.91,195.58453 1558.0251,194.59994 1555.3438,193.625 C 1490.2344,169.94816 1455.861,147.67816 1382.5938,148.4375 C 1346.8686,148.80352 1314.7619,157.20316 1282,170.875 C 1258.3244,180.75363 1234.773,193.8261 1210.6875,202.375 C 1138.3987,173.68502 1044.166,140.17879 968.3125,131.09375 C 914.9107,124.69063 861.59316,141.13284 809.71875,128.71875 C 755.30348,115.70122 730.16727,57.627443 664,59.0625 z"
   transform="scale(1.0002097,1.0002097)"
   id="path3282"
   style="fill:#ffffff" /><g
   id="Ebene_x0020_1">
  
  <polygon
   points="237.997,751.472 2238.55,751.472 2237.13,756.896 238.833,755.236 237.997,751.472 "
   id="polygon2782"
   style="fill:#ffffff" />
  <polygon
   points="2238.55,751.472 237.997,751.472 236.79,746.042 2239.97,746.042 2238.55,751.472 "
   id="polygon2784"
   style="fill:#ffffff" />
  <polygon
   points="2239.97,746.042 236.79,746.042 235.584,740.614 2241.39,740.614 2239.97,746.042 "
   id="polygon2786"
   style="fill:#ffffff" />
  <polygon
   points="2241.39,740.614 235.584,740.614 234.378,735.184 2242.82,735.184 2241.39,740.614 "
   id="polygon2788"
   style="fill:#fbfdff" />
  <polygon
   points="2242.82,735.184 234.378,735.184 233.171,729.755 2244.24,729.755 2242.82,735.184 "
   id="polygon2790"
   style="fill:#fbfdff" />
  <polygon
   points="2244.24,729.755 233.171,729.755 231.965,724.326 2245.66,724.326 2244.24,729.755 "
   id="polygon2792"
   style="fill:#fbfdff" />
  <polygon
   points="2245.66,724.326 231.965,724.326 230.759,718.896 2247.09,718.896 2245.66,724.326 "
   id="polygon2794"
   style="fill:#fbfafa" />
  <polygon
   points="2247.09,718.896 230.759,718.896 229.553,713.468 2248.51,713.468 2247.09,718.896 "
   id="polygon2796"
   style="fill:#f8f9fa" />
  <polygon
   points="2248.51,713.468 229.553,713.468 228.346,708.038 2249.93,708.038 2248.51,713.468 "
   id="polygon2798"
   style="fill:#f8f9fa" />
  <polygon
   points="2249.93,708.038 228.346,708.038 227.14,702.608 2251.36,702.608 2249.93,708.038 "
   id="polygon2800"
   style="fill:#f8f9fa" />
  <polygon
   points="2251.36,702.608 227.14,702.608 2251.36,702.608 "
   id="polygon2802"
   style="fill:#f8f9fa" />
  <polygon
   points="2251.36,702.608 227.14,702.608 225.932,697.178 2252.78,697.178 2251.36,702.608 "
   id="polygon2804"
   style="fill:#f8f9fa" />
  <polygon
   points="2252.78,697.178 225.932,697.178 224.726,691.749 2254.2,691.749 2252.78,697.178 "
   id="polygon2806"
   style="fill:#f8f9fa" />
  <polygon
   points="2254.2,691.749 224.726,691.749 223.519,686.321 2255.62,686.321 2254.2,691.749 "
   id="polygon2808"
   style="fill:#f8f9fa" />
  <polygon
   points="2255.62,686.321 223.519,686.321 222.313,680.891 2257.05,680.891 2255.62,686.321 "
   id="polygon2810"
   style="fill:#f8f7f8" />
  <polygon
   points="2257.05,680.891 222.313,680.891 221.107,675.462 2258.47,675.462 2257.05,680.891 "
   id="polygon2812"
   style="fill:#f8f7f7" />
  <polygon
   points="2258.47,675.462 221.107,675.462 219.9,670.032 2259.89,670.032 2258.47,675.462 "
   id="polygon2814"
   style="fill:#f8f7f7" />
  <polygon
   points="2259.89,670.032 219.9,670.032 218.694,664.602 2261.32,664.602 2259.89,670.032 "
   id="polygon2816"
   style="fill:#f3f5f6" />
  <polygon
   points="2261.32,664.602 218.694,664.602 217.487,659.173 2262.74,659.173 2261.32,664.602 "
   id="polygon2818"
   style="fill:#f3f5f6" />
  <polygon
   points="2262.74,659.173 217.487,659.173 216.281,653.744 2264.16,653.744 2262.74,659.173 "
   id="polygon2820"
   style="fill:#f3f5f6" />
  <polygon
   points="2264.16,653.744 216.281,653.744 215.075,648.316 2265.58,648.316 2264.16,653.744 "
   id="polygon2822"
   style="fill:#f3f5f6" />
  <polygon
   points="2265.58,648.316 215.075,648.316 213.868,642.886 2267.01,642.886 2265.58,648.316 "
   id="polygon2824"
   style="fill:#f3f5f6" />
  <polygon
   points="2267.01,642.886 213.868,642.886 212.662,637.456 2268.43,637.456 2267.01,642.886 "
   id="polygon2826"
   style="fill:#f4f2f4" />
  <polygon
   points="2268.43,637.456 212.662,637.456 211.456,632.027 2269.85,632.027 2268.43,637.456 "
   id="polygon2828"
   style="fill:#f4f2f4" />
  <polygon
   points="2269.85,632.027 211.456,632.027 210.248,626.598 2271.28,626.598 2269.85,632.027 "
   id="polygon2830"
   style="fill:#f4f2f4" />
  <polygon
   points="2271.28,626.598 210.248,626.598 209.042,621.168 2272.7,621.168 2271.28,626.598 "
   id="polygon2832"
   style="fill:#f0f1f4" />
  <polygon
   points="2272.7,621.168 209.042,621.168 207.836,615.739 2274.12,615.739 2272.7,621.168 "
   id="polygon2834"
   style="fill:#f0f1f4" />
  <polygon
   points="2274.12,615.739 207.836,615.739 206.629,610.309 2275.55,610.309 2274.12,615.739 "
   id="polygon2836"
   style="fill:#f1eff0" />
  <polygon
   points="2275.55,610.309 206.629,610.309 205.423,604.881 2276.97,604.881 2275.55,610.309 "
   id="polygon2838"
   style="fill:#f1eff0" />
  <polygon
   points="2276.97,604.881 205.423,604.881 204.217,599.452 2278.39,599.452 2276.97,604.881 "
   id="polygon2840"
   style="fill:#f1eff0" />
  <polygon
   points="2278.39,599.452 204.217,599.452 203.01,594.022 2279.81,594.022 2278.39,599.452 "
   id="polygon2842"
   style="fill:#f1eff0" />
  <polygon
   points="2279.81,594.022 203.01,594.022 2279.81,594.022 "
   id="polygon2844"
   style="fill:#f1eff0" />
  <polygon
   points="2279.81,594.021 203.01,594.021 201.804,588.592 2281.24,588.592 2279.81,594.021 "
   id="polygon2846"
   style="fill:#f1eff0" />
  <polygon
   points="2281.24,588.592 201.804,588.592 200.597,583.162 2282.66,583.162 2281.24,588.592 "
   id="polygon2848"
   style="fill:#f1eff0" />
  <polygon
   points="2282.66,583.162 200.597,583.162 199.391,577.733 2284.08,577.733 2282.66,583.162 "
   id="polygon2850"
   style="fill:#ececee" />
  <polygon
   points="2284.08,577.733 199.391,577.733 198.185,572.304 2285.51,572.304 2284.08,577.733 "
   id="polygon2852"
   style="fill:#ece9ec" />
  <polygon
   points="2285.51,572.304 198.185,572.304 196.978,566.874 2286.93,566.874 2285.51,572.304 "
   id="polygon2854"
   style="fill:#ece9ec" />
  <polygon
   points="2286.93,566.874 196.978,566.874 195.772,561.446 2288.35,561.446 2286.93,566.874 "
   id="polygon2856"
   style="fill:#ece9e9" />
  <polygon
   points="2288.35,561.446 195.772,561.446 194.565,556.016 2289.78,556.016 2288.35,561.446 "
   id="polygon2858"
   style="fill:#e9e8e9" />
  <polygon
   points="2289.78,556.016 194.565,556.016 193.359,550.586 2291.2,550.586 2289.78,556.016 "
   id="polygon2860"
   style="fill:#e9e8e9" />
  <polygon
   points="2291.2,550.586 193.359,550.586 192.153,545.158 2292.62,545.158 2291.2,550.586 "
   id="polygon2862"
   style="fill:#e7e4e5" />
  <polygon
   points="2292.62,545.158 192.153,545.158 190.945,539.728 2294.04,539.728 2292.62,545.158 "
   id="polygon2864"
   style="fill:#e2e1e3" />
  <polygon
   points="2294.04,539.728 190.945,539.728 189.739,534.298 2295.47,534.298 2294.04,539.728 "
   id="polygon2866"
   style="fill:#e2e1e3" />
  <polygon
   points="2295.47,534.298 189.739,534.298 188.533,528.869 2296.89,528.869 2295.47,534.298 "
   id="polygon2868"
   style="fill:#e2dfe1" />
  <polygon
   points="2296.89,528.869 188.533,528.869 187.326,523.438 2298.31,523.438 2296.89,528.869 "
   id="polygon2870"
   style="fill:#dfddde" />
  <polygon
   points="2298.31,523.438 187.326,523.438 2298.31,523.438 "
   id="polygon2872"
   style="fill:#dfddde" />
  <path
   d="M 2298.31,523.438 L 187.32,523.438 L 187.31409,523.41201 C 190.30843,521.59769 193.26496,519.79873 196.19079,518.01039 L 2299.7308,518.01039 L 2298.3086,523.43799 L 2298.31,523.438 z"
   id="path2874"
   style="fill:#dfddde" />
  <path
   d="M 2299.74,518.011 L 196.2,518.011 C 199.18134,516.18841 202.12961,514.37882 205.04481,512.57985 L 2301.1648,512.57985 L 2299.7403,518.011 L 2299.74,518.011 z"
   id="path2876"
   style="fill:#dedcdc" />
  <path
   d="M 2301.16,512.58 L 205.04,512.58 C 207.99299,510.75859 210.91173,508.949 213.80331,507.15122 L 2302.5833,507.15122 L 2301.1611,512.58 L 2301.16,512.58 z"
   id="path2878"
   style="fill:#dbd9da" />
  <path
   d="M 2302.58,507.151 L 213.8,507.151 C 216.72819,505.32959 219.62685,503.52118 222.49598,501.72222 L 2303.996,501.72222 L 2302.5726,507.151 L 2302.58,507.151 z"
   id="path2880"
   style="fill:#dad8d8" />
  <path
   d="M 2304.01,501.722 L 222.51,501.722 C 225.4122,499.90177 228.2896,498.091 231.13865,496.29085 L 2305.4387,496.29085 L 2304.0153,501.722 L 2304.01,501.722 z"
   id="path2882"
   style="fill:#dad8d8" />
  <path
   d="M 2305.43,496.291 L 231.13,496.291 C 234.00858,494.47196 236.85526,492.66236 239.68423,490.86222 L 2306.8542,490.86222 L 2305.4321,496.291 L 2305.43,496.291 z"
   id="path2884"
   style="fill:#d7d6d6" />
  <path
   d="M 2306.85,490.862 L 239.68,490.862 C 242.53732,489.04296 245.37219,487.23454 248.1858,485.43203 L 2308.2658,485.43203 L 2306.8425,490.862 L 2306.85,490.862 z"
   id="path2886"
   style="fill:#d5d4d4" />
  <path
   d="M 2308.27,485.432 L 248.19,485.432 C 251.02606,483.61532 253.84321,481.80572 256.64029,480.00322 L 2309.7003,480.00322 L 2308.2769,485.432 L 2308.27,485.432 z"
   id="path2888"
   style="fill:#d3d2d2" />
  <path
   d="M 2309.7,480.003 L 256.64,480.003 C 259.45716,478.1875 262.25423,476.3779 265.03832,474.57422 L 2311.1183,474.57422 L 2309.6962,480.003 L 2309.7,480.003 z"
   id="path2890"
   style="fill:#d3d2d2" />
  <path
   d="M 2311.12,474.574 L 265.04,474.574 C 267.84416,472.75732 270.63533,470.9489 273.41115,469.14285 L 2312.5412,469.14285 L 2311.1178,474.574 L 2311.12,474.574 z"
   id="path2892"
   style="fill:#d2d0d0" />
  <polygon
   points="2312.54,469.143 273.409,469.143 2312.54,469.143 "
   id="polygon2894"
   style="fill:#cecccc" />
  <polygon
   points="2312.54,469.146 273.405,469.146 281.738,463.715 2313.97,463.715 2312.54,469.146 "
   id="polygon2896"
   style="fill:#cecccc" />
  <polygon
   points="2313.97,463.715 281.738,463.715 290.04,458.287 2315.39,458.287 2313.97,463.715 "
   id="polygon2898"
   style="fill:#cecccc" />
  <polygon
   points="2315.39,458.287 290.04,458.287 298.334,452.858 2316.81,452.858 2315.39,458.287 "
   id="polygon2900"
   style="fill:#cac8c8" />
  <polygon
   points="2316.81,452.858 298.334,452.858 306.618,447.427 2318.23,447.427 2316.81,452.858 "
   id="polygon2902"
   style="fill:#cac8c8" />
  <polygon
   points="2318.23,447.427 306.618,447.427 314.899,441.998 2319.66,441.998 2318.23,447.427 "
   id="polygon2904"
   style="fill:#cac8c8" />
  <polygon
   points="2319.66,441.998 314.899,441.998 323.192,436.569 2321.08,436.569 2319.66,441.998 "
   id="polygon2906"
   style="fill:#c9c7c6" />
  <polygon
   points="2321.08,436.569 323.192,436.569 331.502,431.139 2322.5,431.139 2321.08,436.569 "
   id="polygon2908"
   style="fill:#c9c7c6" />
  <polygon
   points="2322.5,431.139 331.502,431.139 339.835,425.711 2323.93,425.711 2322.5,431.139 "
   id="polygon2910"
   style="fill:#c9c9c9" />
  <polygon
   points="2323.93,425.711 339.835,425.711 348.205,420.28 2325.35,420.28 2323.93,425.711 "
   id="polygon2912"
   style="fill:#c5c5c5" />
  <path
   d="M 2325.35,420.28 L 348.21,420.28 C 350.99408,418.47749 353.79706,416.66908 356.61895,414.85122 L 2326.779,414.85122 L 2325.3556,420.28 L 2325.35,420.28 z"
   id="path2914"
   style="fill:#c5c5c5" />
  <path
   d="M 2326.77,414.851 L 356.61,414.851 C 359.40471,413.05085 362.22069,411.2389 365.05793,409.42222 L 2328.1879,409.42222 L 2326.7658,414.851 L 2326.77,414.851 z"
   id="path2916"
   style="fill:#c5c5c5" />
  <path
   d="M 2328.19,409.422 L 365.06,409.422 C 367.87243,407.62067 370.70494,405.81226 373.56462,403.99203 L 2329.6146,403.99203 L 2328.1913,409.422 L 2328.19,409.422 z"
   id="path2918"
   style="fill:#c3c2c3" />
  <polygon
   points="2329.62,403.992 373.567,403.992 2329.62,403.992 "
   id="polygon2920"
   style="fill:#c3c2c3" />
  <path
   d="M 2329.62,403.994 L 373.57,403.994 C 376.39897,402.19385 379.25629,400.38308 382.13723,398.56285 L 2331.0472,398.56285 L 2329.6239,403.994 L 2329.62,403.994 z"
   id="path2922"
   style="fill:#c3c2c3" />
  <path
   d="M 2331.04,398.563 L 382.13,398.563 L 386.21812,395.9809 C 387.93912,394.89774 389.83849,393.96223 391.87488,393.13421 L 2332.4649,393.13421 L 2331.0427,398.56299 L 2331.04,398.563 z"
   id="path2924"
   style="fill:#c0bfc0" />
  <path
   d="M 2332.46,393.134 L 391.87,393.134 C 398.48589,390.44441 406.5936,388.95256 415.0994,387.70522 L 2333.8794,387.70522 L 2332.4561,393.134 L 2332.46,393.134 z"
   id="path2926"
   style="fill:#c0bfc0" />
  <path
   d="M 2333.89,387.706 L 415.11,387.706 C 425.7443,386.14682 437,384.96444 446.7307,382.27485 L 2325.7607,382.27485 C 2328.5472,383.51747 2331.3348,384.99397 2334.1106,386.8579 L 2333.8885,387.706 L 2333.89,387.706 z"
   id="path2928"
   style="fill:#bfbebe" />
  <path
   d="M 2325.76,382.275 L 446.73,382.275 C 451.61307,380.92607 456.10989,379.19326 459.9547,376.8474 L 2310.2247,376.8474 C 2315.3641,378.4621 2320.5661,379.95513 2325.7669,382.275 L 2325.76,382.275 z"
   id="path2930"
   style="fill:#bfbebe" />
  <path
   d="M 2310.22,376.847 L 459.95,376.847 C 461.75841,375.74376 463.4239,374.5035 464.91457,373.10142 C 465.5158,372.53563 466.10404,371.97574 466.67692,371.41585 L 2296.3769,371.41585 C 2300.908,373.80659 2305.5371,375.37759 2310.2146,376.847 L 2310.22,376.847 z"
   id="path2932"
   style="fill:#bcbcbc" />
  <path
   d="M 2296.38,371.416 L 466.68,371.416 C 468.56047,369.57806 470.28147,367.76964 471.87254,365.98722 L 2288.2425,365.98722 L 2288.7197,366.37583 C 2291.2381,368.41221 2293.7942,370.04935 2296.3834,371.416 L 2296.38,371.416 z"
   id="path2934"
   style="fill:#bcbcbc" />
  <path
   d="M 2288.24,365.987 L 471.87,365.987 C 473.5095,364.15024 475.00135,362.34064 476.36209,360.55822 L 2282.0221,360.55822 C 2284.0974,362.45286 2286.1551,364.28254 2288.234,365.987 L 2288.24,365.987 z"
   id="path2936"
   style="fill:#bbbabb" />
  <path
   d="M 2282.03,360.558 L 476.37,360.558 C 477.7709,358.72124 479.03833,356.91164 480.17346,355.12685 L 2276.1135,355.12685 C 2278.1298,356.95771 2280.0917,358.78384 2282.0348,360.558 L 2282.03,360.558 z"
   id="path2938"
   style="fill:#bbbabb" />
  <polygon
   points="2276.11,355.127 480.165,355.127 2276.11,355.127 "
   id="polygon2940"
   style="fill:#b9b8b8" />
  <path
   d="M 2276.11,355.129 L 480.17,355.129 C 481.33702,353.29342 482.36703,351.48501 483.28718,349.69785 L 2145.4372,349.69785 L 2146.1955,350.3605 C 2152.2125,351.63619 2157.5078,351.14245 2162.7193,349.69785 L 2269.8783,349.69785 C 2272.0364,351.47555 2274.1023,353.30287 2276.1138,355.129 L 2276.11,355.129 z"
   id="path2942"
   style="fill:#b9b8b8" />
  <path
   d="M 2269.87,349.698 L 2162.711,349.698 C 2167.2728,348.43294 2171.7684,346.44262 2176.6161,344.2704 L 2262.638,344.2704 C 2265.1811,345.98077 2267.5778,347.80927 2269.8705,349.698 L 2269.87,349.698 z M 2145.428,349.698 L 483.278,349.698 C 484.2206,347.86596 485.04625,346.05873 485.7656,344.2704 L 2139.5256,344.2704 C 2141.3813,346.08472 2143.3515,347.89431 2145.428,349.698 L 2145.428,349.698 z"
   id="path2944"
   style="fill:#b7b6b7" />
  <path
   d="M 2262.64,344.271 L 2176.6181,344.271 C 2180.6164,342.4803 2184.8581,340.56795 2189.5747,338.84222 L 2252.9861,338.84222 C 2256.4541,340.41676 2259.648,342.25942 2262.64,344.271 L 2262.64,344.271 z M 2139.528,344.271 L 485.768,344.271 C 486.50507,342.44132 487.13819,340.63291 487.68036,338.84222 L 2134.3004,338.84222 C 2135.9481,340.65418 2137.6845,342.46495 2139.5307,344.271 L 2139.528,344.271 z"
   id="path2946"
   style="fill:#b4b4b4" />
  <path
   d="M 2252.99,338.842 L 2189.5786,338.842 C 2196.5536,336.28943 2204.5739,334.1491 2214.4026,333.41085 L 2229.5656,333.41085 C 2231.289,333.52897 2233.0572,333.68253 2234.8775,333.88687 C 2241.7284,334.65347 2247.6781,336.43235 2252.99,338.84199 L 2252.99,338.842 z M 2134.302,338.842 L 487.682,338.842 C 488.2348,337.01469 488.69783,335.20627 489.08881,333.41085 L 2129.6288,333.41085 C 2131.0935,335.22163 2132.6527,337.0324 2134.2969,338.842 L 2134.302,338.842 z"
   id="path2948"
   style="fill:#b4b4b4" />
  <path
   d="M 2229.56,333.411 L 2214.397,333.411 C 2219.0226,333.06491 2224.0521,333.03184 2229.56,333.411 z M 2129.6283,333.411 L 489.0883,333.411 C 489.48636,331.58841 489.81001,329.78 490.08523,327.98222 L 2125.4852,327.98222 C 2126.7893,329.78945 2128.1642,331.59905 2129.6301,333.411 L 2129.6283,333.411 z"
   id="path2950"
   style="fill:#b2b1b1" />
  <path
   d="M 2125.48,327.982 L 490.08,327.982 C 490.35876,326.16177 490.58673,324.35336 490.78517,322.55085 L 2121.7652,322.55085 C 2122.9322,324.35572 2124.1713,326.1665 2125.4812,327.982 L 2125.48,327.982 z"
   id="path2952"
   style="fill:#b0afb0" />
  <path
   d="M 2121.77,322.551 L 490.79,322.551 C 490.98962,320.7355 491.1609,318.92827 491.3239,317.1234 L 2118.4439,317.1234 C 2119.4916,318.92473 2120.5949,320.7355 2121.769,322.551 L 2121.77,322.551 z"
   id="path2954"
   style="fill:#aeadad" />
  <path
   d="M 2118.44,317.123 L 491.32,317.123 C 491.48419,315.31222 491.64483,313.50381 491.81965,311.69422 L 2115.4196,311.69422 C 2116.3717,313.49318 2117.3757,315.30278 2118.4364,317.123 L 2118.44,317.123 z"
   id="path2956"
   style="fill:#acabab" />
  <path
   d="M 2115.43,311.694 L 491.83,311.694 C 492.00482,309.88677 492.19972,308.07717 492.43241,306.26285 L 2112.6724,306.26285 C 2113.5477,308.05827 2114.4678,309.87023 2115.4329,311.694 L 2115.43,311.694 z"
   id="path2958"
   style="fill:#acabab" />
  <polygon
   points="2112.67,306.263 492.426,306.263 2112.67,306.263 "
   id="polygon2960"
   style="fill:#a9a8a8" />
  <path
   d="M 2112.67,306.266 L 492.43,306.266 C 492.66152,304.46349 492.93555,302.6539 493.27101,300.83485 L 2110.111,300.83485 C 2110.9308,302.62673 2111.7777,304.43868 2112.6683,306.266 L 2112.67,306.266 z"
   id="path2962"
   style="fill:#a9a8a8" />
  <path
   d="M 2110.11,300.834 L 493.27,300.834 C 493.60192,299.03504 493.99644,297.2278 494.47246,295.40522 L 2107.6825,295.40522 C 2108.4691,297.19355 2109.2783,299.00315 2110.1157,300.834 L 2110.11,300.834 z"
   id="path2964"
   style="fill:#a5a3a3" />
  <path
   d="M 2107.68,295.406 L 494.47,295.406 C 494.94012,293.61176 495.48937,291.80453 496.14258,289.9784 L 2105.3026,289.9784 C 2106.0822,291.76083 2106.8712,293.57042 2107.6791,295.406 L 2107.68,295.406 z"
   id="path2966"
   style="fill:#a3a2a2" />
  <path
   d="M 2105.3,289.978 L 496.14,289.978 C 496.78257,288.18494 497.52436,286.37653 498.38191,284.54685 L 2102.8919,284.54685 C 2103.6951,286.32337 2104.4901,288.13651 2105.2957,289.978 L 2105.3,289.978 z"
   id="path2968"
   style="fill:#a1a0a0" />
  <path
   d="M 2102.9,284.547 L 498.39,284.547 C 499.09045,283.05987 499.86295,281.55503 500.73113,280.03837 C 500.91067,279.72535 501.09258,279.42415 501.2733,279.11822 L 2100.3533,279.11822 C 2101.2179,280.88765 2102.0637,282.69725 2102.9,284.547 L 2102.9,284.547 z"
   id="path2970"
   style="fill:#a09e9d" />
  <path
   d="M 2100.35,279.118 L 501.27,279.118 C 502.42994,277.15603 503.62058,275.35234 504.83367,273.68685 L 1722.7937,273.68685 C 1753.4375,277.4277 1787.6202,279.50307 1826.4667,273.68685 L 2097.5287,273.68685 C 2098.5067,275.44802 2099.4422,277.25879 2100.3517,279.118 L 2100.35,279.118 z"
   id="path2972"
   style="fill:#9c9b9a" />
  <path
   d="M 2097.53,273.687 L 1826.468,273.687 C 1827.7012,273.50155 1828.9403,273.3102 1830.1829,273.10939 C 1834.8061,272.3617 1839.4305,270.571 1844.7364,268.25821 L 2094.2464,268.25821 C 2095.4039,270.0052 2096.4918,271.81716 2097.5301,273.68699 L 2097.53,273.687 z M 1722.795,273.687 L 504.835,273.687 C 506.28905,271.69078 507.78209,269.89181 509.30465,268.25822 L 1699.1247,268.25822 C 1699.9409,269.10159 1700.7216,269.94969 1701.4552,270.80724 C 1708.3805,271.80417 1715.4878,272.79401 1722.8006,273.687 L 1722.795,273.687 z"
   id="path2974"
   style="fill:#999898" />
  <path
   d="M 2094.24,268.258 L 1844.73,268.258 C 1848.4354,266.64212 1852.4704,264.77465 1857.0664,262.8304 L 2090.2054,262.8304 C 2091.6512,264.55849 2092.9895,266.37045 2094.2404,268.258 L 2094.24,268.258 z M 1699.113,268.258 L 509.293,268.258 C 511.20063,266.21335 513.15552,264.42383 515.15292,262.8304 L 1693.2129,262.8304 C 1695.3568,264.60692 1697.3306,266.41533 1699.113,268.258 z"
   id="path2976"
   style="fill:#969594" />
  <path
   d="M 2090.21,262.831 L 1857.071,262.831 C 1861.3103,261.03794 1866.028,259.17992 1871.4013,257.39985 L 2084.9513,257.39985 C 2086.866,259.10196 2088.6071,260.91509 2090.21,262.831 L 2090.21,262.831 z M 1693.218,262.831 L 515.158,262.831 C 517.77908,260.7391 520.47103,258.97793 523.21022,257.39985 L 1686.0002,257.39985 C 1688.5764,259.17637 1690.9896,260.98597 1693.2173,262.831 L 1693.218,262.831 z"
   id="path2978"
   style="fill:#949393" />
  <path
   d="M 2084.95,257.399 L 1871.4,257.399 C 1877.3332,255.43231 1884.0672,253.56011 1891.8442,251.97022 L 2077.5442,251.97022 C 2080.2846,253.61799 2082.7356,255.43231 2084.9503,257.399 L 2084.95,257.399 z M 1685.999,257.399 L 523.209,257.399 C 526.67936,255.39923 530.22413,253.69122 533.8079,251.97022 L 1677.4579,251.97022 C 1680.4617,253.74438 1683.3178,255.55279 1685.9944,257.399 L 1685.999,257.399 z"
   id="path2980"
   style="fill:#929191" />
  <path
   d="M 2077.54,251.971 L 1891.84,251.971 C 1899.5166,250.40119 1908.2114,249.10423 1918.1535,248.26795 C 1924.3158,247.7494 1930.9329,247.15762 1937.8429,246.54222 L 2065.5289,246.54222 C 2070.086,248.0577 2074.0512,249.87674 2077.5393,251.971 L 2077.54,251.971 z M 1677.459,251.971 L 533.809,251.971 C 537.34669,250.27244 540.92099,248.5597 544.487,246.54222 L 1667.627,246.54222 C 1671.0537,248.3152 1674.3386,250.12479 1677.464,251.971 L 1677.459,251.971 z"
   id="path2982"
   style="fill:#8f8d8d" />
  <path
   d="M 2065.53,246.542 L 1937.844,246.542 C 1978.5941,242.90982 2029.4471,238.49686 2056.201,244.05322 C 2059.571,244.75249 2062.6633,245.58996 2065.5301,246.542 L 2065.53,246.542 z M 1667.622,246.542 L 544.482,246.542 C 547.27081,244.9651 550.05371,243.20157 552.81417,241.11085 L 1656.4942,241.11085 C 1660.3319,242.88383 1664.0515,244.6946 1667.6223,246.542 L 1667.622,246.542 z"
   id="path2984"
   style="fill:#8c8a89" />
  <path
   d="M 1656.5,241.111 L 552.82,241.111 C 554.92962,239.51284 557.02506,237.72451 559.09807,235.6834 L 1644.1481,235.6834 C 1648.3709,237.4552 1652.498,239.26243 1656.4987,241.111 L 1656.5,241.111 z"
   id="path2986"
   style="fill:#8a8887" />
  <path
   d="M 1644.15,235.683 L 559.1,235.683 C 560.76195,234.04704 562.40853,232.24571 564.03622,230.25185 L 1630.6662,230.25185 C 1635.2363,232.02365 1639.7437,233.83324 1644.1508,235.683 L 1644.15,235.683 z"
   id="path2988"
   style="fill:#898786" />
  <polygon
   points="1630.66,230.252 564.035,230.252 1630.66,230.252 "
   id="polygon2990"
   style="fill:#858382" />
  <path
   d="M 1630.67,230.254 L 564.04,230.254 C 565.17631,228.86255 566.30199,227.37778 567.41823,225.78553 C 567.64266,225.46542 567.85645,225.1465 568.07025,224.82522 L 1616.2003,224.82522 C 1621.0621,226.59702 1625.9038,228.40425 1630.6771,230.254 L 1630.67,230.254 z"
   id="path2992"
   style="fill:#858382" />
  <path
   d="M 1616.19,224.826 L 568.06,224.826 C 569.25773,223.02585 570.29601,221.2139 571.18191,219.39485 L 1600.9319,219.39485 C 1606.0051,221.16665 1611.1079,222.97624 1616.1859,224.826 L 1616.19,224.826 z"
   id="path2994"
   style="fill:#82807f" />
  <path
   d="M 1600.94,219.394 L 571.19,219.394 C 572.06881,217.58913 572.80115,215.77835 573.41656,213.96522 L 1585.2066,213.96522 C 1590.3802,215.73702 1595.6425,217.54543 1600.9366,219.394 L 1600.94,219.394 z"
   id="path2996"
   style="fill:#807e7d" />
  <path
   d="M 1585.21,213.966 L 573.42,213.966 C 574.03422,212.15522 574.52678,210.34445 574.92248,208.53603 L 1200.5825,208.53603 C 1204.1946,209.94638 1207.5752,211.27759 1210.7006,212.52375 C 1214.282,211.31775 1217.887,209.98063 1221.5192,208.53603 L 1569.3732,208.53603 C 1574.5114,210.31019 1579.815,212.11742 1585.2142,213.966 L 1585.21,213.966 z"
   id="path2998"
   style="fill:#7d7b7a" />
  <path
   d="M 1569.37,208.536 L 1221.516,208.536 C 1225.7435,206.85516 1230.0112,205.03139 1234.3367,203.10722 L 1553.9467,203.10722 C 1558.8617,204.88256 1564.0247,206.69097 1569.3708,208.536 L 1569.37,208.536 z M 1200.579,208.536 L 574.919,208.536 C 575.31588,206.72168 575.61236,204.90972 575.83207,203.10722 L 1186.4801,203.10722 C 1191.4872,205.01013 1196.2037,206.82917 1200.5789,208.536 L 1200.579,208.536 z"
   id="path3000"
   style="fill:#7a7877" />
  <path
   d="M 1553.94,203.107 L 1234.33,203.107 C 1238.2386,201.36828 1242.1897,199.54805 1246.2022,197.67822 L 1539.3932,197.67822 C 1543.6054,199.3 1547.9427,200.92769 1552.4313,202.56011 L 1553.9397,203.107 L 1553.94,203.107 z M 1186.474,203.107 L 575.826,203.107 C 576.04807,201.28677 576.19217,199.47482 576.27958,197.67822 L 1172.0056,197.67822 C 1177.0517,199.54806 1181.8863,201.36356 1186.4741,203.107 L 1186.474,203.107 z"
   id="path3002"
   style="fill:#777574" />
  <path
   d="M 1539.4,197.678 L 1246.209,197.678 C 1250.0172,195.90266 1253.875,194.08598 1257.7989,192.24685 L 1525.6059,192.24685 C 1530.0685,194.03636 1534.6551,195.85187 1539.3999,197.678 L 1539.4,197.678 z M 1172.012,197.678 L 576.286,197.678 C 576.37341,195.85187 576.40412,194.03873 576.39821,192.24685 L 1157.1552,192.24685 C 1162.2769,194.09542 1167.2403,195.90974 1172.0123,197.678 L 1172.012,197.678 z"
   id="path3004"
   style="fill:#747271" />
  <path
   d="M 1525.6,192.247 L 1257.793,192.247 C 1261.6366,190.44567 1265.5393,188.62781 1269.5128,186.81822 L 1512.1878,186.81822 C 1516.5547,188.59356 1521.0137,190.4067 1525.6003,192.247 L 1525.6,192.247 z M 1157.149,192.247 L 576.392,192.247 C 576.38728,190.41496 576.34593,188.60301 576.29278,186.81822 L 1141.8868,186.81822 C 1147.1065,188.64908 1152.201,190.46221 1157.1491,192.247 L 1157.149,192.247 z"
   id="path3006"
   style="fill:#72706f" />
  <path
   d="M 1512.19,186.818 L 1269.515,186.818 C 1273.524,184.99187 1277.605,183.17282 1281.7652,181.38922 L 1498.7362,181.38922 C 1503.1539,183.14684 1507.6223,184.96116 1512.19,186.818 z M 1141.889,186.818 L 576.295,186.818 C 576.24185,184.97769 576.17688,183.16574 576.12845,181.38922 L 1126.1635,181.38922 C 1131.5072,183.20472 1136.7577,185.01904 1141.8888,186.818 L 1141.889,186.818 z"
   id="path3008"
   style="fill:#6e6c6b" />
  <path
   d="M 1498.74,181.389 L 1281.769,181.389 C 1286.1004,179.53098 1290.5193,177.71311 1295.0374,175.95903 L 1484.6654,175.95903 C 1489.3323,177.69185 1494.0063,179.50617 1498.7394,181.389 L 1498.74,181.389 z M 1126.168,181.389 L 576.133,181.389 C 576.08221,179.53924 576.04914,177.72611 576.06567,175.95903 L 1109.9037,175.95903 C 1115.4033,177.76154 1120.8321,179.57586 1126.1688,181.389 L 1126.168,181.389 z"
   id="path3010"
   style="fill:#6b6968" />
  <path
   d="M 1484.66,175.959 L 1295.032,175.959 C 1299.9257,174.05845 1304.934,172.23705 1310.0722,170.53022 L 1469.0712,170.53022 C 1474.3122,172.21933 1479.4835,174.0372 1484.6606,175.959 L 1484.66,175.959 z M 1109.897,175.959 L 576.059,175.959 C 576.07672,174.09625 576.14995,172.28429 576.31296,170.53022 L 1092.998,170.53022 C 1098.6842,172.31855 1104.3245,174.13287 1109.8962,175.959 L 1109.897,175.959 z"
   id="path3012"
   style="fill:#686665" />
  <path
   d="M 1469.07,170.531 L 1310.071,170.531 C 1316.0561,168.54304 1322.2208,166.71455 1328.578,165.09985 L 1449.941,165.09985 C 1456.5025,166.69919 1462.835,168.52296 1469.0693,170.531 L 1469.07,170.531 z M 1092.998,170.531 L 576.313,170.531 C 576.489,168.64935 576.77367,166.83621 577.20598,165.09985 L 1075.289,165.09985 C 1081.2221,166.87283 1087.1329,168.68715 1092.9987,170.531 L 1092.998,170.531 z"
   id="path3014"
   style="fill:#666362" />
  <path
   d="M 1449.94,165.1 L 1328.577,165.1 C 1337.677,162.78958 1347.182,160.92565 1357.1549,159.67122 L 1419.345,159.67122 C 1430.2935,160.91384 1440.362,162.76478 1449.9404,165.1 L 1449.94,165.1 z M 1075.287,165.1 L 577.204,165.1 C 577.67884,163.19118 578.33677,161.37805 579.23448,159.67122 L 1056.5625,159.67122 C 1062.8028,161.41939 1069.0548,163.23726 1075.2868,165.1 L 1075.287,165.1 z"
   id="path3016"
   style="fill:#63605f" />
  <path
   d="M 1419.35,159.671 L 1357.1599,159.671 C 1365.433,158.63273 1374.0286,158.01024 1382.9844,157.9181 C 1396.2906,157.78108 1408.2691,158.41538 1419.3499,159.671 L 1419.35,159.671 z M 1056.568,159.671 L 579.24,159.671 C 580.27355,157.71139 581.62602,155.89471 583.39073,154.24222 L 1036.3637,154.24222 C 1043.0564,155.96086 1049.8045,157.77518 1056.5681,159.671 L 1056.568,159.671 z"
   id="path3018"
   style="fill:#605d5c" />
  <polygon
   points="1036.36,154.242 583.389,154.242 1036.36,154.242 "
   id="polygon3020"
   style="fill:#5c5958" />
  <path
   d="M 1036.36,154.242 L 583.387,154.242 C 583.62915,154.01521 583.87365,153.7896 584.13115,153.5699 C 585.78365,152.15719 587.21408,150.55666 588.48504,148.8144 L 1013.874,148.8144 C 1021.2553,150.4728 1028.7713,152.29421 1036.3593,154.242 L 1036.36,154.242 z"
   id="path3022"
   style="fill:#5c5958" />
  <path
   d="M 1013.88,148.814 L 588.491,148.814 C 589.72653,147.12134 590.81678,145.29639 591.82316,143.38522 L 986.73816,143.38522 C 995.49202,144.89479 1004.5778,146.72565 1013.8809,148.814 L 1013.88,148.814 z"
   id="path3024"
   style="fill:#565352" />
  <path
   d="M 986.734,143.386 L 591.819,143.386 C 592.74033,141.63665 593.59316,139.81406 594.4259,137.95485 L 807.6759,137.95485 C 863.4083,151.29055 909.1549,133.54898 967.3989,140.52868 C 973.61082,141.27284 980.0779,142.23905 986.7339,143.386 L 986.734,143.386 z"
   id="path3026"
   style="fill:#524f4e" />
  <path
   d="M 807.676,137.954 L 594.426,137.954 C 595.22567,136.16921 596.0088,134.35017 596.81556,132.52522 L 791.63756,132.52522 C 796.77577,134.76477 802.09466,136.61925 807.67116,137.95282 L 807.67588,137.954 L 807.676,137.954 z"
   id="path3028"
   style="fill:#4b4846" />
  <path
   d="M 791.637,132.526 L 596.815,132.526 C 597.61821,130.70932 598.44623,128.89027 599.34394,127.09485 L 780.73594,127.09485 C 784.28662,129.07926 787.91408,130.90303 791.63724,132.526 L 791.637,132.526 z"
   id="path3030"
   style="fill:#464240" />
  <path
   d="M 780.736,127.095 L 599.344,127.095 C 600.26888,125.24643 601.26699,123.42738 602.38322,121.6674 L 771.73122,121.6674 C 774.68894,123.57149 777.68446,125.39053 780.73549,127.095 L 780.736,127.095 z"
   id="path3032"
   style="fill:#403c3a" />
  <path
   d="M 771.732,121.667 L 602.384,121.667 C 603.5652,119.80543 604.87751,118.00883 606.38235,116.32326 L 606.45913,116.23821 L 763.68013,116.23821 C 766.34019,118.1045 769.01914,119.92 771.73235,121.66699 L 771.732,121.667 z"
   id="path3034"
   style="fill:#3a3634" />
  <path
   d="M 763.68,116.238 L 606.459,116.238 C 608.0985,114.40124 609.76281,112.59164 611.43657,110.80685 L 756.14357,110.80685 C 758.64417,112.64597 761.15303,114.46502 763.67961,116.238 L 763.68,116.238 z"
   id="path3036"
   style="fill:#322e2b" />
  <polygon
   points="756.144,110.807 611.436,110.807 756.144,110.807 "
   id="polygon3038"
   style="fill:#2c2825" />
  <path
   d="M 756.147,110.809 L 611.434,110.809 C 613.15973,108.96869 614.90082,107.15792 616.64308,105.37785 L 748.84008,105.37785 C 751.27453,107.19808 753.70661,109.01358 756.14697,110.809 L 756.147,110.809 z"
   id="path3040"
   style="fill:#2c2825" />
  <path
   d="M 748.84,105.378 L 616.643,105.378 C 618.44787,103.53415 620.25746,101.72337 622.06115,99.94922 L 741.55715,99.94922 C 743.99278,101.74937 746.41778,103.56487 748.84041,105.378 L 748.84,105.378 z"
   id="path3042"
   style="fill:#292522" />
  <path
   d="M 741.557,99.9494 L 622.061,99.9494 C 623.94265,98.09846 625.81721,96.28887 627.67169,94.51943 L 734.07969,94.51943 C 736.58973,96.29949 739.0797,98.11736 741.55667,99.9494 L 741.557,99.9494 z"
   id="path3044"
   style="fill:#292522" />
  <path
   d="M 734.08,94.5194 L 627.672,94.5194 C 629.61979,92.66256 631.54515,90.8506 633.43624,89.09062 L 726.14494,89.09062 C 728.82153,90.84824 731.46269,92.66256 734.08023,94.5194 L 734.08,94.5194 z"
   id="path3046"
   style="fill:#282320" />
  <path
   d="M 726.145,89.0906 L 633.4363,89.0906 C 635.44315,87.22313 637.41103,85.41353 639.32221,83.66182 L 717.38161,83.66182 C 720.35114,85.38282 723.2687,87.20187 726.14492,89.0906 L 726.145,89.0906 z"
   id="path3048"
   style="fill:#282320" />
  <path
   d="M 717.381,83.6619 L 639.3216,83.6619 C 641.3757,81.78025 643.36484,79.9683 645.26775,78.23075 L 707.07985,78.23075 C 710.59746,79.88915 714.02175,81.7141 717.38105,83.6619 L 717.381,83.6619 z"
   id="path3050"
   style="fill:#25201d" />
  <path
   d="M 707.08,78.2307 L 645.2679,78.2307 C 647.35271,76.32897 649.33476,74.51938 651.18806,72.80192 L 693.21156,72.80192 C 698.00368,74.29495 702.61626,76.12581 707.07996,78.2307 L 707.08,78.2307 z"
   id="path3052"
   style="fill:#25201d" />
  <path
   d="M 693.212,72.8019 L 651.1885,72.8019 C 652.55869,71.53211 653.85683,70.31194 655.07464,69.15082 C 669.22424,67.63534 681.74494,69.232323 693.21194,72.8019 L 693.212,72.8019 z"
   id="path3054"
   style="fill:#231e1b" />
  <path
   d="M 2334.11,386.858 L 2237.1278,756.897 L 238.8378,755.23742 L 187.3246,523.41342 C 263.2697,477.38332 316.3986,439.94292 386.2226,395.98242 C 405.6887,383.72752 447.3401,389.62876 464.9187,373.10262 C 503.6112,336.71942 482.5741,311.77842 500.7279,280.03962 C 519.3542,247.48582 545.4835,257.07832 567.416,225.78722 C 586.3896,198.70352 566.41907,168.71532 584.137,153.57112 C 594.6556,144.57276 596.0435,127.90962 606.386,116.32442 C 623.6244,96.99532 643.2287,80.45262 655.0785,69.15212 C 722.3666,61.94681 752.8994,124.84912 807.6755,137.95452 C 863.4103,151.29262 909.1565,133.54983 967.4025,140.52953 C 1044.7296,149.79012 1160.6095,192.56013 1210.6975,212.52473 C 1257.2898,196.83723 1307.2758,158.69523 1382.9865,157.91913 C 1456.4912,157.16198 1489.7115,179.75123 1552.4375,202.56133 C 1601.2245,220.29823 1676.1345,241.23373 1701.4505,270.80853 C 1738.3192,276.11919 1780.4561,281.14403 1830.1835,273.11068 C 1847.5483,270.30179 1864.9887,252.74328 1918.1615,248.26888 C 1960.6657,244.69103 2024.9185,237.55538 2056.2085,244.05437 C 2113.5084,255.95377 2093.8155,305.54397 2146.1933,350.36237 C 2172.2163,355.88093 2184.8291,328.28457 2234.8776,333.88817 C 2261.2915,336.84589 2274.3709,354.77297 2288.7201,366.37697 C 2303.0752,377.98697 2318.7426,376.53527 2334.1135,386.85897 L 2334.11,386.858 z"
   id="path3056"
   style="fill:none;stroke:#1f1a17;stroke-width:0.90007299" />
  <path
   d="M 1210.93,202.427 C 1235.0205,193.87631 1258.5937,180.778 1282.2743,170.8973 C 1315.0431,157.2226 1347.1587,148.8195 1382.8913,148.4534 C 1456.174,147.69389 1490.5503,169.9819 1555.6733,193.6637 C 1596.31,208.4393 1676.0283,230.6895 1706.1503,261.9168 C 1748.0285,267.82043 1786.278,270.6116 1828.6743,263.76537 C 1836.8257,262.44597 1849.213,255.75213 1857.2132,252.53337 C 1876.7549,244.67014 1896.3853,240.60207 1917.3645,238.83507 C 1956.3913,235.55134 2021.3705,227.14947 2058.1315,234.78474 C 2074.5572,238.1984 2088.317,245.00684 2098.7978,258.37684 C 2108.2627,270.46054 2113.4813,285.83144 2119.9861,299.62424 C 2127.7926,316.17404 2136.8205,329.38094 2150.3996,341.47174 C 2152.8352,341.75287 2155.2201,341.64774 2157.7065,341.16817 C 2166.3836,339.4826 2176.9647,333.4455 2185.5461,330.23977 C 2202.2175,324.01013 2218.2428,322.50411 2235.9301,324.47907 C 2264.5966,327.68957 2274.5836,342.77107 2294.6675,359.01847 C 2306.5492,368.62633 2325.1507,369.44257 2339.3853,379.00197 L 2347.2473,384.2772 L 2336.6909,399.993 L 2328.8372,394.71187 C 2314.3545,384.98943 2298.2891,386.28993 2282.7669,373.73377 C 2266.5136,360.58937 2256.5183,345.83747 2233.8216,343.29427 C 2219.1015,341.64532 2206.0457,342.784 2192.1702,347.97063 C 2181.9564,351.78826 2172.0426,357.66826 2161.309,359.75073 C 2159.5431,360.08974 2157.776,360.31889 2156.0219,360.43819 C 2169.8596,398.66879 2211.5228,427.68259 2212.5517,474.08519 C 2212.8033,485.59479 2214.3625,491.07079 2211.4662,504.17029 C 2205.6169,504.17029 2201.1118,520.44369 2195.2566,520.44369 C 2189.4073,520.44133 2183.558,501.45709 2177.7087,501.45709 C 2184.373,472.57559 2181.557,459.95809 2176.0491,435.15409 C 2170.3971,409.67449 2155.208,385.04059 2145.7242,359.90239 L 2144.2288,359.61654 L 2141.8688,359.12044 L 2140.0391,357.55417 C 2123.3192,343.24867 2112.1876,327.45727 2102.868,307.70177 C 2097.2514,295.78707 2091.9585,280.34167 2083.8944,270.05107 C 2076.2462,260.28847 2066.2331,255.80347 2054.2818,253.32297 C 2020.4051,246.28776 1955.2053,254.64827 1918.9548,257.70285 C 1899.8619,259.30337 1882.0613,262.9391 1864.2748,270.09475 C 1854.1023,274.18996 1842.4108,280.72085 1831.6903,282.45595 C 1788.8105,289.38367 1749.9904,286.99884 1707.8533,281.25703 C 1741.391,411.83703 1863.3973,397.15603 1958.5813,444.77603 C 1993.5259,462.25303 2041.2273,490.78133 2073.7413,516.36133 C 2079.1429,529.86243 2075.0737,540.65383 2080.4741,554.15733 C 2034.5515,536.67093 1996.7614,526.53853 1950.8581,527.15043 C 1875.3926,454.56703 1791.9511,434.92013 1741.0751,376.99543 C 1716.4353,348.93613 1696.4837,309.59393 1693.3665,275.96243 C 1668.2849,248.38263 1585.3935,224.61343 1549.1985,211.45723 C 1486.8773,188.79003 1452.8222,166.66383 1383.0795,167.38323 C 1349.8288,167.72341 1320.0508,175.64216 1289.5688,188.36253 C 1267.4461,197.59359 1245.6767,209.39373 1223.2705,218.02593 C 1257.804,357.19593 1396.9925,328.89593 1493.0795,482.48293 C 1518.8355,523.65943 1531.5499,565.40063 1540.3522,613.55693 C 1509.745,591.03153 1476.4459,575.28143 1445.8434,564.95893 C 1435.704,537.74413 1431.1233,497.99923 1414.0172,469.74373 C 1406.4706,457.28093 1398.703,444.87593 1390.5952,433.20933 C 1364.6171,395.83033 1333.2894,375.39913 1297.8783,348.46903 C 1256.4726,316.98773 1218.7912,280.87143 1210.3291,222.56203 L 1207.1931,221.31232 C 1136.1512,193.00022 1041.4911,158.93442 966.27706,149.92432 C 911.36316,143.34859 860.80906,160.40392 805.47106,147.16032 C 758.98026,136.03582 728.28926,90.226616 683.02206,80.087216 C 703.07526,199.12722 784.78106,266.52322 877.35306,312.43922 C 866.98566,354.06342 892.01056,384.12612 911.12346,411.02432 C 878.37476,391.82982 845.29886,368.32642 801.75546,363.73272 C 733.02156,267.89152 681.02846,186.43272 671.30546,78.338716 C 667.39333,78.041054 663.356,77.991444 659.19696,78.287925 C 643.63706,92.970225 627.84326,106.48072 613.44446,122.62772 C 603.63343,133.61172 603.06526,149.83542 590.28706,160.76382 C 579.48496,169.9937 593.35463,205.26072 575.16296,231.21992 C 554.08806,261.29082 524.37496,257.76502 508.94146,284.74002 C 503.24927,294.68925 502.01964,303.99122 501.00381,315.17122 C 498.41699,343.69242 493.13467,359.56182 471.39831,379.99892 C 449.71741,400.38522 411.17611,391.45772 391.26231,403.98902 C 324.53051,446.00542 259.72131,490.60392 192.22531,531.51102 L 184.13529,536.41299 L 174.32426,520.22819 L 182.41901,515.31677 C 249.81461,474.46977 314.54101,429.92917 381.17901,387.97377 C 402.13461,374.77857 444.03761,379.73964 458.43051,366.20547 C 494.04361,332.72447 472.67221,310.02297 492.50921,275.33707 C 512.12651,241.05517 540.41981,247.80687 559.66501,220.35347 C 576.23481,196.69527 555.72217,165.40057 577.98301,146.37627 C 585.84506,139.65644 589.92141,120.55057 599.32251,110.01897 C 614.84461,92.615175 631.80541,78.262475 648.54541,62.298575 L 650.87355,60.083825 L 654.06633,59.741278 C 727.91713,51.828438 752.77193,115.08628 809.87533,128.74688 C 861.76063,141.16358 915.11033,124.72726 968.52333,131.13172 C 1044.3928,140.21867 1138.6243,173.73042 1210.9283,202.42642 L 1210.93,202.427 z"
   id="path3058"
   style="fill:#1f1a17" />
  <path
   d="M 307.605,1164.65 L 571.62,1164.3724 L 571.62,2088.8504 C 408.739,1922.4294 307.629,1695.7664 307.629,1445.4044 L 307.60419,1164.6494 L 307.605,1164.65 z M 839.687,1164.0948 L 1107.742,1163.8173 L 1107.742,2361.8173 C 1013.3017,2348.1638 923.16,2320.349 839.687,2280.5533 L 839.687,1164.1033 L 839.687,1164.0948 z M 1375.803,1163.5314 L 1643.858,1163.2538 L 1643.858,2280.4038 C 1560.3769,2320.2196 1470.254,2348.1089 1375.802,2361.7564 L 1375.8032,1163.5264 L 1375.803,1163.5314 z M 1911.925,1162.9762 L 2175.927,1162.6998 L 2175.927,1445.4038 C 2175.927,1695.7478 2074.799,1922.3718 1911.923,2088.7808 L 1911.9242,1162.9758 L 1911.925,1162.9762 z"
   id="path3060"
   style="fill:#272f7d" />
  <path
   d="M 487.441,66.4743 C 526.5493,86.1483 565.0268,103.3182 603.27,118.3679 L 595.12446,135.4043 C 560.15506,121.6599 525.00266,106.1519 489.40946,88.6041 L 141.55346,347.2691 C 221.91626,613.1031 303.43346,884.3181 317.06746,1163.2831 L 317.09345,1163.7497 L 317.09345,1445.4007 C 317.09345,1952.6307 736.43845,2361.9747 1241.7734,2361.9747 C 1747.1094,2361.9747 2166.4614,1952.6307 2166.4614,1445.4017 L 2166.4614,1172.1737 L 2166.4815,1171.7508 C 2179.1628,887.6378 2260.6478,620.1258 2339.1305,349.1818 L 1992.3235,86.812804 C 1879.2395,146.4078 1731.6565,187.4808 1587.6725,211.9748 L 1550.9113,198.7915 C 1730.0803,171.0723 1891.7053,120.5324 1994.0573,64.387504 L 2360.9313,341.9355 C 2275.4079,637.7225 2197.9913,890.3065 2185.3903,1172.5965 L 2185.3915,1445.3995 C 2185.3915,1959.9305 1760.7715,2380.9035 1241.7745,2380.9035 L 1241.7745,2380.9035 C 722.78451,2380.9035 298.16451,1959.9305 298.16451,1445.4005 L 298.16451,1164.2095 C 284.59841,886.7705 203.44781,617.4435 119.58351,340.0135 L 487.44051,66.474504 L 487.441,66.4743 z"
   id="path3062"
   style="fill:#1f1a17" />
  <path
   d="M 755.11,2117.81 L 1728.466,2117.81 C 1705.7717,2209.8442 1699.0542,2316.323 1697.6781,2421.456 L 784.7111,2421.456 C 784.34138,2279.387 774.85755,2198.649 755.1091,2117.81 L 755.11,2117.81 z"
   id="path3064"
   style="fill:#1f1a17" />
  <path
   d="M 778.886,2136.74 C 797.9541,2225.1089 802.7875,2312.078 803.5376,2402.53 L 1679.0456,2402.53 C 1680.6863,2314.6016 1686.1765,2222.857 1704.6823,2136.74 L 778.8853,2136.74 L 778.886,2136.74 z"
   id="path3066"
   style="fill:#272f7d" />
  <path
   d="M 122.43,745.898 L 2344.92,745.898 C 2293.1056,903.007 2277.7654,1084.778 2274.6222,1264.246 L 190.0222,1264.2448 C 189.17764,1021.7238 167.5216,883.89582 122.4317,745.89782 L 122.43,745.898 z"
   id="path3068"
   style="fill:#1f1a17" />
  <path
   d="M 148.237,764.828 C 196.5267,924.157 207.5686,1078.977 208.8431,1245.317 L 2256.0731,1245.3158 C 2259.5742,1086.1068 2272.8685,917.82982 2319.1006,764.82982 L 148.2406,764.82864 L 148.237,764.828 z"
   id="path3070"
   style="fill:#ffffff" />
  <polygon
   points="968.837,2356.09 922.706,2356.09 922.706,2229.68 895.435,2229.68 895.435,2191.92 968.837,2191.92 968.837,2356.09 "
   id="polygon3072"
   style="fill:#ffffff" />
  <path
   d="M 1399.34,2316.69 L 1379.4569,2316.69 L 1379.4569,2356.0877 L 1336.6397,2356.0877 L 1336.6397,2316.69 L 1256.3525,2316.69 L 1256.3525,2282.9196 L 1320.5813,2191.9249 L 1379.4569,2191.9249 L 1379.4569,2282.2121 L 1399.34,2282.2121 L 1399.34,2316.6901 L 1399.34,2316.69 z M 1336.6397,2282.212 L 1336.6397,2224.755 L 1297.1322,2282.212 L 1336.6397,2282.212 z"
   id="path3074"
   style="fill:#ffffff" />
  <path
   d="M 1587.7,2311.06 C 1587.7,2323.0988 1583.8765,2333.3397 1576.2282,2341.7818 C 1564.6761,2354.4454 1545.5631,2360.7743 1518.8846,2360.7743 C 1492.2073,2360.7743 1473.0884,2354.4454 1461.5351,2341.7818 C 1453.8869,2333.3398 1450.0692,2323.0988 1450.0692,2311.06 C 1450.0704,2298.3952 1454.2341,2288.231 1462.5568,2280.5709 C 1468.3305,2275.2579 1475.4661,2271.5029 1483.966,2269.3141 C 1476.1488,2266.3422 1470.1165,2262.1206 1465.8689,2256.6493 C 1460.7709,2250.0878 1458.2218,2242.0296 1458.2218,2232.4962 C 1458.2218,2219.516 1463.1557,2208.9667 1473.0057,2200.833 C 1484.0475,2191.7661 1499.3429,2187.2351 1518.8846,2187.2351 C 1538.4216,2187.2351 1553.6331,2191.6906 1564.5107,2200.5992 C 1574.5391,2208.8912 1579.5473,2219.5161 1579.5473,2232.4963 C 1579.5485,2241.8785 1576.9983,2249.8481 1571.9003,2256.4167 C 1567.4767,2262.0451 1561.4502,2266.1899 1553.8032,2268.8464 C 1562.4661,2271.5029 1569.5214,2275.3335 1574.9596,2280.3371 C 1583.4535,2288.1543 1587.7,2298.3952 1587.7,2311.0601 L 1587.7,2311.06 z M 1537.4932,2237.4171 C 1537.4932,2231.0127 1535.2844,2226.243 1530.8667,2223.1128 C 1527.4672,2220.7717 1523.4724,2219.5987 1518.8846,2219.5987 C 1514.4681,2219.5987 1510.6446,2220.6902 1507.4128,2222.8801 C 1502.8274,2226.0091 1500.5359,2230.8556 1500.5359,2237.4171 C 1500.5359,2243.3609 1502.5734,2247.8979 1506.6497,2251.021 C 1510.0457,2253.6775 1514.1267,2255.0087 1518.8845,2255.0087 C 1523.9838,2255.0087 1528.3554,2253.5641 1532.0088,2250.6678 C 1535.6682,2247.7786 1537.492,2243.3609 1537.4931,2237.4171 L 1537.4932,2237.4171 z M 1541.3097,2305.1978 C 1541.3097,2298.1626 1538.5964,2292.7669 1533.157,2289.013 C 1528.9106,2286.0411 1524.1539,2284.5587 1518.8846,2284.5587 C 1512.5947,2284.5587 1507.3313,2286.4321 1503.079,2290.1871 C 1498.8326,2293.941 1496.7053,2298.9445 1496.7053,2305.1978 C 1496.7065,2310.9833 1498.6613,2315.9432 1502.5735,2320.0892 C 1506.4809,2324.2281 1511.9191,2326.3047 1518.8847,2326.3047 C 1526.0144,2326.3047 1531.5424,2324.2718 1535.4545,2320.2026 C 1539.3595,2316.1393 1541.3097,2311.1357 1541.3097,2305.1978 L 1541.3097,2305.1978 z"
   id="path3076"
   style="fill:#ffffff" />
  <path
   d="M 285.186,1097.9 L 303.2323,1051.8699 C 318.4509,1062.4688 336.7311,1069.6257 355.9633,1069.6257 C 362.85323,1069.6245 380.3692,1068.6666 381.4417,1051.9136 C 382.29452,1038.6239 367.7623,1034.8016 353.0729,1031.1103 C 318.7355,1022.4852 291.1675,1000.5326 293.635,962.882 C 295.20599,938.8033 307.2826,920.8089 327.7019,909.0158 C 340.3962,901.69001 354.9285,898.0047 373.7887,898.0047 C 398.3269,898.00352 421.3142,904.83793 442.7801,916.455 L 421.1311,959.9656 C 408.6624,952.82408 391.639,949.5439 375.8393,949.5439 C 369.39705,949.5439 359.2754,954.01119 357.9571,962.302 C 355.94434,975.0022 365.10571,984.2912 388.7675,988.7904 C 404.6251,991.79891 424.1089,998.33684 434.7669,1011.1965 C 443.07663,1021.2154 448.9885,1040.3296 447.2722,1054.4827 C 441.20321,1104.4544 400.3397,1118.7292 357.7799,1118.7292 C 330.3383,1118.728 308.8984,1111.3963 285.1859,1097.9 L 285.186,1097.9 z"
   id="path3078"
   style="fill:#1f1a17" />
  <polygon
   points="552.826,1113.14 472.127,902.762 543.087,902.762 581.887,1039.46 619.85,902.762 690.65,902.762 611.551,1113.14 552.826,1113.14 "
   id="polygon3080"
   style="fill:#1f1a17" />
  <path
   d="M 1169.27,951.487 L 1169.27,1002.7592 L 1192.5408,1002.7592 C 1205.4253,1002.7592 1219.6859,992.7344 1219.6859,976.4102 C 1219.6859,959.9656 1206.3974,951.4869 1193.2094,951.4869 L 1169.2701,951.4869 L 1169.27,951.487 z M 1109.9774,1113.137 L 1109.9774,902.762 L 1198.3711,902.762 C 1244.3717,902.762 1275.9758,924.209 1278.0204,974.9403 C 1279.3717,1008.4899 1249.6705,1031.3874 1239.3787,1033.5962 L 1296.2179,1112.4624 L 1225.6673,1113.1369 L 1178.091,1044.2152 L 1169.2698,1044.416 L 1169.2698,1113.1369 L 1109.9772,1113.1369 L 1109.9774,1113.137 z"
   id="path3082"
   style="fill:#1f1a17" />
  <path
   d="M 1663.37,1058.37 C 1676.1588,1057.6388 1691.5675,1060.4477 1705.2151,1053.8791 C 1721.3184,1046.1363 1732.4996,1031.3466 1732.8658,1006.0382 C 1733.1871,983.66869 1717.8351,965.99559 1701.4554,960.89759 C 1690.2612,957.40715 1674.2158,959.27581 1663.3689,959.27581 L 1663.3701,1058.37 L 1663.37,1058.37 z M 1605.2941,1113.1398 L 1605.2941,902.7648 L 1677.3342,902.7648 C 1750.5153,902.7648 1788.7522,951.5589 1788.7522,1006.7188 C 1788.7522,1066.739 1745.2203,1113.5828 1684.8222,1113.3938 L 1605.2945,1113.1398 L 1605.2941,1113.1398 z"
   id="path3084"
   style="fill:#1f1a17" />
  <polygon
   points="1840.6,1113.14 1840.6,902.762 1898.98,902.762 1898.98,1113.14 1840.6,1113.14 "
   id="polygon3086"
   style="fill:#1f1a17" />
  <path
   d="M 1363.39,877.258 C 1363.39,871.66739 1365.548,866.7583 1369.8641,862.493 C 1374.1802,858.2277 1379.133,856.11926 1384.7732,856.11926 C 1390.7572,856.11926 1395.7595,858.17691 1399.8795,862.29692 C 1404.0007,866.41576 1406.0631,871.37088 1406.0631,877.25792 C 1406.0631,883.53599 1404.0503,888.73562 1400.0744,892.75402 C 1396.1056,896.78072 1391.0017,898.79348 1384.7732,898.79348 C 1378.8365,898.7923 1373.7881,896.72993 1369.6173,892.55912 C 1365.4477,888.39304 1363.3901,883.29026 1363.3901,877.25792 L 1363.39,877.258 z"
   id="path3088"
   style="fill:#1f1a17" />
  <path
   d="M 1469.37,877.258 C 1469.37,871.66739 1471.5269,866.7583 1475.843,862.493 C 1480.1591,858.2277 1485.1626,856.11926 1490.8985,856.11926 C 1496.7855,856.11926 1501.7384,858.17691 1505.8584,862.29692 C 1509.9796,866.41576 1512.0419,871.37088 1512.0419,877.25792 C 1512.0431,883.53599 1510.0292,888.73562 1506.0544,892.75402 C 1502.0868,896.78072 1497.0313,898.79348 1490.8985,898.79348 C 1484.9666,898.7923 1479.9122,896.72993 1475.6918,892.55912 C 1471.4773,888.39304 1469.3689,883.29026 1469.3701,877.25792 L 1469.37,877.258 z"
   id="path3090"
   style="fill:#1f1a17" />
  <path
   d="M 1439.6,896.249 C 1448.5487,896.249 1457.2294,897.2979 1465.5651,899.28468 C 1463.4885,903.04561 1462.3912,907.24831 1462.3912,911.82308 C 1462.3924,919.48197 1465.1351,926.22188 1470.5875,931.61048 C 1475.9892,936.94831 1482.6393,939.66743 1490.2296,939.66743 C 1497.7905,939.66743 1504.5469,937.1562 1509.8788,931.74868 C 1511.8479,929.76191 1513.4059,927.55307 1514.6107,925.20603 C 1537.1007,945.63133 1551.2266,975.11633 1551.2266,1007.8768 C 1551.2266,1069.5164 1501.2407,1119.5048 1439.5996,1119.5048 C 1377.9588,1119.5048 1327.9716,1069.5177 1327.9716,1007.8768 C 1327.9728,976.62943 1340.8313,948.36923 1361.5341,928.10233 C 1362.4047,929.31306 1363.3827,930.48717 1364.4871,931.59159 C 1369.8568,936.95423 1376.5141,939.66744 1384.1044,939.66744 C 1391.7019,939.66744 1398.5351,937.18811 1403.8977,931.74869 C 1409.2627,926.32936 1411.7031,919.41349 1411.7031,911.82309 C 1411.7031,907.71488 1410.9211,903.88544 1409.3241,900.40209 C 1418.9592,897.68888 1429.0997,896.25018 1439.5994,896.249 L 1439.6,896.249 z M 1439.6,954.6143 C 1469.0095,954.6143 1492.8614,978.4674 1492.8614,1007.8769 C 1492.8614,1037.2875 1469.0095,1061.1383 1439.6,1061.1383 C 1410.1905,1061.1383 1386.3386,1037.2876 1386.3386,1007.8769 C 1386.3398,978.4663 1410.1893,954.6155 1439.6,954.6143 z"
   id="path3092"
   style="fill:#1f1a17" />
  <path
   d="M 2064.57,895.214 C 2103.7598,895.214 2138.2177,915.4125 2158.1315,945.9712 L 2106.4293,973.916 C 2096.6738,961.5252 2081.5556,953.5805 2064.57,953.5805 C 2035.1594,953.57932 2011.3086,977.4324 2011.3086,1006.8419 C 2011.3086,1036.2525 2035.1593,1060.1033 2064.57,1060.1033 C 2081.6572,1060.1033 2096.8439,1052.0334 2106.5935,1039.5209 L 2064.9244,1039.5197 L 2064.9244,993.42582 L 2116.1163,993.42582 L 2175.39,993.42582 L 2176.1968,993.42582 L 2176.1968,1005.624 L 2176.1779,1005.6429 L 2176.1968,1006.8418 C 2176.1968,1068.4814 2126.2109,1118.4698 2064.5698,1118.4698 C 2002.929,1118.4698 1952.9418,1068.4827 1952.9418,1006.8418 C 1952.9418,945.20104 2002.9289,895.21484 2064.5698,895.21384 L 2064.57,895.214 z"
   id="path3094"
   style="fill:#1f1a17" />
  <path
   d="M 950.785,895.214 C 989.9748,895.214 1024.4339,915.4125 1044.3477,945.9712 L 992.6443,973.916 C 982.88879,961.5252 967.7706,953.5805 950.785,953.5805 C 921.3744,953.57932 897.5236,977.4324 897.5236,1006.8419 C 897.5236,1036.2525 921.3743,1060.1033 950.785,1060.1033 C 967.8722,1060.1033 983.06,1052.0334 992.8085,1039.5209 L 951.1382,1039.5197 L 951.1382,993.42582 L 1002.3301,993.42582 L 1061.605,993.42582 L 1062.4118,993.42582 L 1062.4118,1005.624 L 1062.3929,1005.6429 L 1062.4118,1006.8418 C 1062.4118,1068.4814 1012.4259,1118.4698 950.78476,1118.4698 C 889.14396,1118.4698 839.15676,1068.4827 839.15676,1006.8418 C 839.15676,945.20104 889.14386,895.21484 950.78476,895.21384 L 950.785,895.214 z"
   id="path3096"
   style="fill:#1f1a17" />
  <path
   d="M 1131.76,2186.38 C 1172.8621,2186.38 1206.1908,2218.857 1206.1908,2258.8984 C 1206.1908,2270.2308 1203.5154,2280.9644 1198.7516,2290.5108 C 1191.577,2304.8978 1179.6953,2315.6679 1168.6795,2327.0641 L 1140.026,2356.007 L 1078.814,2355.7554 L 1122.1498,2316.6648 C 1091.4906,2320.8108 1057.3422,2292.7893 1057.3422,2257.5482 C 1057.3422,2216.2063 1090.6709,2186.3799 1131.76,2186.3799 L 1131.76,2186.38 z M 1131.76,2230.9903 C 1117.6329,2230.9903 1105.3413,2241.5597 1105.3413,2256.1852 C 1105.3413,2270.8179 1117.6198,2281.3931 1131.76,2281.3931 C 1145.9001,2281.3931 1157.5101,2270.1493 1157.5101,2255.5107 C 1157.5101,2240.878 1145.8942,2230.9902 1131.76,2230.9902 L 1131.76,2230.9903 z"
   id="path3098"
   style="fill:#ffffff" />
  <path
   d="M 1236.54,1209.07 C 1493.028,1209.07 1701.032,1401.696 1701.032,1639.23 C 1701.0332,1876.763 1493.028,2069.39 1236.54,2069.39 C 980.051,2069.39 772.047,1876.763 772.047,1639.23 C 772.047,1401.696 980.051,1209.07 1236.54,1209.07 L 1236.54,1209.07 z"
   id="path3100"
   style="fill:#ffffff" />
  <path
   d="M 1232.49,1199.6 C 1496.449,1199.6 1710.504,1398.151 1710.504,1642.979 C 1710.5052,1887.813 1496.449,2086.365 1232.49,2086.365 C 968.543,2086.365 754.489,1887.813 754.489,1642.979 C 754.489,1398.15 968.543,1199.6 1232.49,1199.6 L 1232.49,1199.6 z M 1403.644,1305.245 C 1432.9968,1296.1391 1466.7542,1293.1117 1498.4422,1295.206 C 1424.3847,1246.9045 1334.0582,1218.5297 1236.5472,1218.5297 C 1228.3568,1218.5297 1220.2419,1218.7494 1212.1531,1219.1416 C 1241.2094,1237.1856 1265.4523,1260.9123 1287.4982,1287.6026 C 1327.8137,1288.6928 1365.2175,1293.4837 1403.6442,1305.245 L 1403.644,1305.245 z M 1530.914,1318.4756 L 1523.9083,1317.259 C 1493.8752,1312.0334 1458.9365,1312.0534 1427.5509,1318.6032 C 1454.4385,1358.4934 1476.932,1395.8736 1493.3247,1438.0482 C 1542.2452,1481.984 1588.4454,1526.449 1631.8067,1575.9062 L 1675.2193,1527.2196 C 1650.6232,1444.7106 1599.5057,1372.3576 1530.9133,1318.4756 L 1530.914,1318.4756 z M 1314.933,2001.5296 C 1318.9467,2016.9253 1321.4638,2036.1387 1321.054,2052.6459 C 1449.673,2030.2894 1559.225,1957.8902 1625.118,1858.1509 C 1616.1893,1834.1419 1604.3714,1815.831 1590.8491,1796.1888 C 1540.2147,1835.3786 1474.8871,1871.7547 1416.8751,1894.3759 L 1416.0801,1894.6854 C 1387.9322,1933.6543 1353.6692,1968.9898 1314.9331,2001.5294 L 1314.933,2001.5296 z M 1302.0048,2055.567 C 1302.8694,2040.6567 1300.546,2021.8155 1296.8548,2007.2206 C 1234.0363,2001.3087 1169.8138,1987.3635 1106.8658,1964.9136 L 1101.4334,1966.6358 C 1066.653,1977.6658 1020.1493,1984.2404 979.87445,1986.5815 C 1052.9492,2032.8325 1141.3244,2059.9209 1236.5464,2059.9209 C 1258.7824,2059.9209 1280.6263,2058.4255 1302.0048,2055.567 L 1302.0048,2055.567 z M 825.8208,1820.399 C 828.6415,1788.2007 833.35448,1753.4771 840.0991,1724.5283 L 840.81963,1721.4418 C 826.38183,1670.3704 803.77373,1615.7268 786.39713,1577.6478 C 783.21026,1597.7447 781.51878,1618.3082 781.51878,1639.226 C 781.51878,1704.1033 797.43308,1765.529 825.82078,1820.399 L 825.8208,1820.399 z M 857.3375,1734.1739 C 849.50734,1769.9583 844.6869,1813.8563 842.6741,1849.8909 C 871.3524,1895.5997 909.0657,1935.875 953.5571,1968.5989 C 994.2553,1968.1252 1048.9801,1962.1755 1089.3381,1950.5077 C 1087.4139,1913.9614 1090.1779,1878.9732 1096.3355,1845.1267 C 1039.7183,1797.8091 993.31451,1747.9236 949.12151,1688.5937 C 919.70501,1697.2188 889.12731,1711.3152 857.33771,1734.1738 L 857.3375,1734.1739 z M 877.5927,1445.1919 C 874.51332,1427.8519 871.11265,1410.6324 867.295,1393.4448 C 831.1456,1439.8033 804.91,1493.2347 791.5708,1551.0578 C 816.715,1522.1716 846.5674,1486.6353 877.5927,1445.1918 L 877.5927,1445.1919 z M 882.49585,1375.0323 C 887.68249,1397.0168 892.15568,1419.0189 896.11865,1441.2172 C 918.94765,1454.7372 940.74785,1462.9418 967.12875,1471.4098 C 1020.8767,1424.4005 1097.4527,1387.318 1167.9467,1376.8632 C 1198.6437,1347.964 1231.1018,1318.8191 1267.0043,1292.658 C 1241.8294,1263.3997 1213.3519,1238.2426 1177.4364,1222.0507 C 1058.6284,1236.3101 954.21945,1292.9544 882.49645,1375.0327 L 882.49585,1375.0323 z M 1416.6478,1874.0713 C 1474.6812,1850.5985 1539.5708,1813.5089 1587.9228,1774.3818 C 1600.8582,1713.0493 1610.7896,1654.5968 1621.6673,1593.0748 C 1579.0001,1543.8767 1533.4744,1499.759 1485.2994,1456.2968 C 1436.2796,1473.2068 1380.0323,1506.8131 1340.2043,1544.3882 C 1337.5679,1619.6199 1328.4869,1702.5072 1311.7469,1776.6912 C 1337.7876,1808.5812 1377.6341,1841.5945 1416.648,1874.0715 L 1416.6478,1874.0713 z M 1294.1698,1768.5513 C 1310.3463,1695.3501 1319.0234,1613.7653 1321.4141,1540.1043 C 1283.5047,1490.1621 1230.691,1443.6075 1168.3121,1395.9683 C 1100.1346,1406.6759 1025.6921,1443.7017 975.15515,1489.6066 C 961.55125,1550.0969 959.66495,1610.5906 959.70865,1671.0896 C 1004.7418,1732.4398 1051.7322,1783.3486 1109.7696,1831.6816 C 1175.2658,1804.5743 1237.7656,1783.2915 1294.1696,1768.5513 L 1294.1698,1768.5513 z"
   id="path3102"
   style="fill:#1f1a17" />
  <ellipse
   cx="1439.59"
   cy="1007.88"
   rx="52.367699"
   ry="52.485901"
   id="ellipse3104"
   style="fill:#ffffff" />
 </g>
</svg>