<?xml version="1.0" encoding="UTF-8"?>
<!-- Generator: Adobe Illustrator 15.0.2, SVG Export Plug-In . SVG Version: 6.00 Build 0)  -->
<!DOCTYPE svg PUBLIC "-//W3C//DTD SVG 1.1//EN" "http://www.w3.org/Graphics/SVG/1.1/DTD/svg11.dtd">
<svg version="1.1" id="Ebene_1" xmlns="http://www.w3.org/2000/svg" xmlns:xlink="http://www.w3.org/1999/xlink" x="0px" y="0px" width="566.929px" height="566.929px" viewBox="0 0 566.929 566.929" enable-background="new 0 0 566.929 566.929" xml:space="preserve">
<g>
	<path fill="#FFFFFF" d="M454.632,103.521c-4.836-2.002-165.542-67.378-349.666,0.618c0,0-28.627,291.285,174.274,390.25   c0,0,182.365-60.999,175.516-390.868H454.632z"/>
	<path fill="#1C8D3C" d="M143.334,111.539c-1.73-7.468-6.09-12.413-11.646-14.523c-5.067-2.02-10.189-2.317-18.258-0.449   l-25.573,6.99l-0.854,45.101l35.233-8.185C139.897,136.38,146.147,123.662,143.334,111.539"/>
	<path fill="#1C8D3C" d="M182.329,184.325l-15.646-67.432c-0.18,14.58-7.938,27.823-21.973,36.25l34.994,38.198L182.329,184.325z"/>
	<path fill="#C40009" d="M213.619,182.681l55.732-12.938l-21.848-94.208L209.671,177.03   C211.032,178.867,212.285,180.809,213.619,182.681"/>
	<polygon fill="#1C8D3C" points="167.2,214.625 121.275,161.121 91.498,168.029 105.613,228.9  "/>
	<polygon fill="#1C8D3C" points="188.844,212.435 106.24,231.6 124.893,312.01 207.504,292.842  "/>
	<path fill="#C40009" d="M274.639,192.536l-11.942,2.771c0.318,0.261,0.639,0.518,0.959,0.777c0.456-0.561,1.235-0.835,2.011-0.675   c1.308,0.268,1.752,1.54,1.584,2.714c-0.038,0.265-0.112,0.515-0.192,0.764c-0.002,0.199-0.005,0.399-0.007,0.599   c0.052,0.252,0.044,0.509-0.016,0.752c-0.071,2.715-0.287,5.415-0.917,8.079c-0.481,2.028-3.017,1.591-3.677,0   c-1.112-2.675-3.014-5.013-5.375-6.693c-0.225,0.054-0.457,0.079-0.699,0.065c-0.168-0.011-0.323-0.036-0.468-0.072   c-0.199,0.664-0.435,1.319-0.698,1.973c-0.53,1.329-1.278,2.765-1.338,4.22c-0.048,1.177-1.19,2.249-2.414,1.839   c-3.146-1.057-6.252-2.237-9.359-3.401c-0.728-0.272-1.453-0.606-1.657-1.453c-0.313-1.314-0.568-2.674-0.62-4.027   c-0.002-0.053,0-0.1-0.002-0.152l-48.053,11.147l18.659,80.406L293.3,272.94L274.639,192.536z"/>
	<polygon fill="#C40009" points="184.214,179.264 224.943,70.523 222.416,71.111 162.369,85.048  "/>
	<path fill-rule="evenodd" clip-rule="evenodd" d="M368.978,229.107c-2.483-29.553-35.022-39.193-53.327-43.73   c22.901,0.953,52.297,11.209,63.69,36.153C376.912,225.847,370.857,224.68,368.978,229.107 M298.365,141.156   c-2.064-0.185-4.721,1.159-6.332-0.181c6.035-4.699,15.121-12.306,23.633-12.969c-7.051,5.851-13.885,11.744-16.231,18.59   C297.517,144.451,299.703,143.175,298.365,141.156 M477.719,167.596c-7.186-3.796-13.268-19.068-17.768-28.253   c0,0.403,0,0.805-0.008,1.207c-6.427-8.136-13.504-14.593-21.38-19.012c4.625-0.076,7.63,0.449,8.405-1.427   c-2.527-3.537-34.268-17.806-50.387-17.303c-0.564-0.947-3.16-1.01-3.572-1.849c-2.57,0.379-3.025-0.332-5.395-0.377   c-2.715-0.053-5.321-0.659-8.021-0.679c-1.193,0.013-1.859,0.015-2.004,0.004c-0.986,0.06-1.971,0.121-2.951,0.211   c-1.992,0.187-3.972,0.403-5.962,0.645c-2.679,0.318-5.249,0.17-7.624-0.345c-0.97,0.264-1.918,0.459-2.845,0.594   c0.007,0.017,0,0.04,0.007,0.057c-24.521,4.501-69.053,6.025-82.666,32.939c-25.317,7.425-52.636,11.287-77.299,22.491   c4.935,8.928,12.261,25.22,21.997,27.25c1.654,6.864,7.969,12.569,13.975,13.387c-1.304-5.3-3.812-10.849,1.897-14.666   c3.288,0.316,5.86,2.458,9.037,3.072c1.236-2.249,2.423-4.515,4.499-6.585c3.005,1.031,5.931,2.284,9.04,3.073   c8.957-15.11,29.874-4.688,33.458,9.393c-10.52,5.624-17.287,1.651-25.363,1.007c-1.824,2.132-1.162,4.782-4.496,6.588   c-2.991-0.532-4.988-3.605-8.241-3.482c-3.567,1.947-2.211,4.941-6.476,6.74c-4.085-1.433-6.93-5.679-8.096-10.401   c-4.3,4.693-3.914,10.378-4.293,15.898c-18.658,14.576,18.751,16.402,24.85,23.222c-0.891-2.702-2.095-5.469-1.417-7.836   c4.651,0.652,8.283,3.924,13.391,3.415c-0.499-2.227-0.927-4.45,0.53-6.265c15.143-0.14,51.951-1.906,64.113,11.509   c11.006,16.518,28.004,18.299,39.836,31.66c12.703-5.785,25.515-15.848,39.194-18.74c6.697-1.412,13.401-2.447,20.126-3.262   c8.081-4.326,16.145-8.65,24.248-12.811c16.208-8.326,32.549-16.391,48.949-24.376C499.201,190.678,492.603,175.46,477.719,167.596   "/>
	<path fill="#FFFFFF" d="M297.943,139.084c0.211,0,0.414,0.01,0.605,0.028l0.98,0.087l0.547,0.821   c0.091,0.131,0.166,0.261,0.235,0.392c1.694-2.496,3.873-4.888,6.363-7.27c-3.108,1.691-6.14,3.858-8.875,5.944   C297.85,139.084,297.896,139.084,297.943,139.084 M300.246,150.58l-2.338-2.614c-1.68-1.875-1.404-3.6-1.224-4.646   c-0.127,0.02-0.261,0.041-0.396,0.064c-0.741,0.12-1.512,0.245-2.309,0.245c-1.324,0-2.393-0.353-3.262-1.078l-1.959-1.631   l2.01-1.565c0.442-0.345,0.898-0.703,1.368-1.073c6.269-4.92,14.856-11.662,23.37-12.323l6.443-0.5l-4.974,4.129   c-7.298,6.058-13.51,11.569-15.598,17.672L300.246,150.58z M345.463,193.881c1.314,0.706,2.604,1.45,3.87,2.235   c11.821,7.348,18.903,16.925,21.104,28.514c0.97-0.565,1.991-0.963,2.913-1.322c1.449-0.566,2.738-1.069,3.617-1.995   C370.473,207.981,358.498,199.177,345.463,193.881 M367.623,237.544l-0.69-8.264c-2.237-26.617-30.621-36.666-51.78-41.909   l-19.734-4.894l20.318,0.848c12.912,0.539,26.049,3.838,36.991,9.292c13.271,6.617,23.117,16.321,28.482,28.06l0.434,0.95   l-0.513,0.909c-1.543,2.748-4.176,3.776-6.285,4.598c-2.082,0.81-3.384,1.379-3.979,2.776L367.623,237.544z M240.556,187.659   l0.918,3.724c1.006,4.076,3.279,7.302,6.032,8.641c1.012-0.59,1.374-1.285,1.875-2.252c0.658-1.261,1.474-2.83,3.689-4.039   l0.424-0.23l0.481-0.019c2.458-0.092,4.27,1.081,5.855,2.107c0.737,0.48,1.443,0.938,2.135,1.204   c0.85-0.651,1.138-1.419,1.534-2.48c0.373-0.997,0.797-2.128,1.734-3.222l0.679-0.792l1.044,0.081   c2.194,0.176,4.277,0.581,6.293,0.972c2.61,0.505,5.077,0.984,7.717,0.984c2.983,0,5.785-0.633,8.71-1.976   c-2.732-7.46-10.995-13.697-18.534-13.697c-4.499,0-8.193,2.215-10.68,6.411l-0.784,1.321l-1.487-0.376   c-2.23-0.567-4.353-1.353-6.406-2.113c-0.507-0.187-1.023-0.378-1.54-0.565c-1.267,1.498-2.154,3.119-3.086,4.815l-0.923,1.681   l-1.468-0.282c-1.687-0.326-3.144-0.984-4.554-1.621c-1.216-0.547-2.376-1.072-3.565-1.312c-2.777,2.223-2.319,4.989-1.132,9.393   c0.615-1.215,1.414-2.398,2.449-3.532L240.556,187.659z M285.832,218.105c17.673,0,42.324,1.279,52.344,12.333l0.105,0.112   l0.084,0.129c5.846,8.777,13.35,13.139,21.291,17.758c5.94,3.452,12.068,7.015,17.326,12.544c3.967-1.895,7.924-4.162,12.086-6.548   c8.379-4.804,17.053-9.772,26.189-11.705c6.129-1.292,12.648-2.353,19.925-3.244l0.832-0.448c7.565-4.047,15.384-8.23,23.11-12.198   c13.443-6.908,27.945-14.137,46.783-23.321c-5.891-8.025-12.285-15.906-18.486-23.544c-3.74-4.605-7.605-9.366-11.319-14.11   c-0.964-1.233-1.948-2.467-2.991-3.774c-4.318-5.408-9.111-11.415-12.828-17.792l-1.955-2.474   c-6.433-8.15-13.424-14.372-20.771-18.496l-6.635-3.723l7.605-0.123c0.978-0.014,1.881-0.004,2.709,0.003   c0.52,0.008,1.023,0.016,1.469,0.012c-3.096-1.815-8.742-4.606-16.246-7.51c-11.725-4.535-22.307-7.137-29.025-7.137   c-0.268,0-0.527,0.004-0.789,0.011l-1.205,0.04l-0.481-0.811c-0.218-0.094-0.615-0.219-0.872-0.298   c-0.555-0.172-1.184-0.366-1.734-0.696c-0.246,0.018-0.484,0.028-0.717,0.028c-0.913,0-1.6-0.138-2.201-0.258   c-0.579-0.115-1.072-0.215-1.861-0.232c-1.422-0.027-2.791-0.191-4.111-0.351c-1.34-0.162-2.6-0.316-3.866-0.325   c-0.658,0.007-1.153,0.011-1.494,0.011c-0.235,0-0.388-0.004-0.497-0.005c-0.89,0.052-1.846,0.114-2.779,0.198   c-1.879,0.176-3.812,0.386-5.9,0.639c-2.637,0.315-5.278,0.221-7.813-0.275c-0.151,0.04-0.308,0.077-0.459,0.11l0.014,0.071   l-2.081,0.382c-4.062,0.746-8.669,1.41-13.546,2.114c-12.504,1.805-26.678,3.85-39.264,8.234   c-14.311,4.986-23.6,12.018-28.393,21.499l-0.402,0.794l-0.854,0.251c-8.564,2.513-17.504,4.652-26.148,6.723   c-16.351,3.916-33.235,7.96-48.864,14.767c0.331,0.621,0.671,1.265,1.022,1.925c4.651,8.768,11.018,20.777,18.529,22.345   l1.273,0.264l0.304,1.265c1.119,4.635,4.86,8.96,9.057,10.877c-1.156-4.478-1.9-9.655,3.678-13.383l0.608-0.408l0.73,0.071   c2.126,0.202,3.885,0.999,5.588,1.766c0.763,0.346,1.501,0.681,2.236,0.937c1.053-1.885,2.235-3.801,4.063-5.626l0.907-0.907   l1.212,0.418c0.976,0.335,1.948,0.693,2.888,1.041c1.563,0.579,3.061,1.133,4.583,1.593c3.225-4.589,7.912-7.091,13.349-7.091   c9.934,0,20.468,8.408,23.001,18.36l0.399,1.56l-1.419,0.758c-4.098,2.192-7.965,3.211-12.157,3.211c-3.034,0-5.813-0.54-8.5-1.061   c-1.586-0.308-3.102-0.6-4.647-0.787c-0.17,0.344-0.313,0.728-0.472,1.156c-0.566,1.515-1.342,3.59-4.071,5.07l-0.633,0.34   l-0.708-0.124c-1.732-0.309-3.12-1.207-4.342-2.002c-1.071-0.698-2.013-1.308-2.993-1.429c-0.786,0.543-1.114,1.173-1.573,2.059   c-0.755,1.449-1.695,3.255-4.652,4.5l-0.731,0.309l-0.745-0.265c-3.349-1.173-6.173-3.974-7.979-7.788   c-1.242,2.784-1.396,5.888-1.554,9.124c-0.037,0.771-0.075,1.571-0.129,2.364l-0.064,0.916l-0.722,0.562   c-3.066,2.395-4.61,4.516-4.348,5.971c0.582,3.223,9.216,5.952,15.517,7.947c3.32,1.049,6.397,2.023,8.906,3.105   c-0.221-1.269-0.244-2.545,0.121-3.819l0.492-1.716l1.768,0.248c2.156,0.303,4.037,1.068,5.858,1.808   c1.614,0.659,3.159,1.287,4.779,1.531c-0.182-1.762-0.003-3.699,1.396-5.443l0.61-0.761l0.972-0.007   c1.207-0.011,2.55-0.033,4.01-0.054C279.297,218.156,282.429,218.105,285.832,218.105 M375.957,265.979l-1.008-1.139   c-5.041-5.692-11.021-9.17-17.356-12.854c-7.963-4.628-16.194-9.413-22.556-18.898c-10.06-10.876-39.504-10.876-49.205-10.876   c-3.369,0-6.487,0.049-9.236,0.092c-1.01,0.019-1.964,0.033-2.858,0.044c-0.306,0.952-0.08,2.174,0.277,3.779l0.503,2.263   l-2.304,0.227c-0.423,0.044-0.854,0.064-1.277,0.064c-2.951,0-5.376-0.987-7.722-1.942c-0.896-0.363-1.767-0.72-2.637-1.003   c0.184,1.045,0.588,2.216,1.006,3.428c0.138,0.395,0.276,0.792,0.405,1.188l3.088,9.356l-6.568-7.344   c-1.627-1.821-7.208-3.584-12.127-5.142c-8.505-2.688-17.299-5.471-18.32-11.133c-0.539-2.983,1.142-6.047,5.132-9.35   c0.024-0.467,0.048-0.934,0.072-1.392c0.096-1.989,0.199-4.089,0.582-6.19c-6.597-0.949-13.069-6.84-15.261-13.723   c-8.768-2.785-15.271-15.05-20.078-24.114c-0.727-1.372-1.416-2.67-2.056-3.83l-1.075-1.944l2.024-0.919   c16.546-7.516,34.375-11.787,51.62-15.919c8.312-1.989,16.899-4.047,25.112-6.428c5.399-10.066,15.317-17.507,30.29-22.721   c12.959-4.516,27.341-6.592,40.029-8.424c4.039-0.582,7.898-1.136,11.381-1.731l-0.022-0.114l2.101-0.308   c0.861-0.126,1.736-0.311,2.602-0.546l0.486-0.13l0.488,0.104c2.237,0.486,4.598,0.594,6.942,0.312   c2.125-0.255,4.091-0.467,6.017-0.648c1.035-0.094,2.063-0.16,3.02-0.218l0.137-0.007l0.139,0.011h0.358   c0.336,0,0.821-0.004,1.472-0.011h0.037c1.502,0.011,2.946,0.186,4.344,0.355c1.281,0.155,2.483,0.3,3.699,0.324   c1.152,0.023,1.948,0.182,2.586,0.309c0.514,0.105,0.891,0.178,1.396,0.178c0.318,0,0.666-0.029,1.075-0.089l1.481-0.219   l0.465,0.95c0.192,0.072,0.453,0.151,0.649,0.212c0.659,0.203,1.415,0.438,2.063,0.873h0.064c9.934,0,23.508,4.695,30.717,7.496   c8.57,3.327,18.637,8.091,20.491,10.681l0.658,0.927l-0.435,1.051c-0.67,1.622-2.07,2.274-3.533,2.534   c4.359,3.137,8.566,6.98,12.576,11.492l0.014-4.375l3.871,7.891c3.673,7.486,4.353,16.957,9.688,23.646   c1.051,1.314,2.043,2.556,3.02,3.801c3.691,4.717,12.382,6.908,16.111,11.5c6.746,8.307,13.719,16.901,20.064,25.703l1.426,1.979   l-2.193,1.067c-19.888,9.685-34.972,17.199-48.91,24.359c-7.694,3.951-15.495,8.126-23.043,12.166l-1.512,0.811l-0.384,0.044   c-7.31,0.886-13.837,1.944-19.95,3.235c-8.512,1.796-16.892,6.602-25,11.248c-4.51,2.585-9.176,5.258-13.77,7.352L375.957,265.979z   "/>
	<path fill-rule="evenodd" clip-rule="evenodd" d="M339.32,104.195c0,0,50.2-24.188,68.08-36.688   c17.863-12.5-13.586,51.621-30.76,56.293"/>
	<path fill="#FFFFFF" d="M376.641,125.856c-0.904,0-1.732-0.604-1.982-1.517c-0.297-1.093,0.348-2.223,1.443-2.521   c8.416-2.29,22.454-22.449,30.281-39.839c3.873-8.608,4.424-12.647,4.271-13.948c-0.367,0.125-1.028,0.424-2.078,1.158   c-17.811,12.453-66.307,35.865-68.362,36.855c-1.021,0.494-2.247,0.065-2.74-0.959c-0.491-1.021-0.065-2.249,0.956-2.74   c0.5-0.241,50.26-24.26,67.794-36.521c1.824-1.278,4.507-2.818,6.703-1.466c2.354,1.446,1.86,4.876,1.698,6.002   c-0.944,6.57-6.736,19.357-14.086,31.098c-5.059,8.087-14.826,22.003-23.358,24.325C377,125.83,376.818,125.856,376.641,125.856"/>
	<polygon points="469.55,162.084 512.269,179.44 509.195,195.507 467.928,197.65  "/>
	<path fill="#FFFFFF" d="M470.367,163.367l-1.518,33.352l39.61-2.056l2.805-14.678L470.367,163.367z M467.005,198.578l1.718-37.778   l44.544,18.095l-3.337,17.455L467.005,198.578z"/>
	<polygon points="220.558,465.496 183.891,439.716 167.101,378.388 195.168,370.703  "/>
	<polygon points="277.819,492.057 249.75,499.742 212.288,362.869 240.349,355.185  "/>
	<polygon points="327.186,482.142 299.113,489.824 261.272,351.575 289.336,343.896  "/>
	
		<rect x="321.411" y="314.739" transform="matrix(0.9645 -0.264 0.264 0.9645 -89.8822 102.3685)" width="29.099" height="141.773"/>
	<polygon points="404.115,399.47 376.054,407.157 344.279,291.094 372.352,283.409  "/>
	<rect x="397.209" y="261.02" transform="matrix(0.9645 -0.264 0.264 0.9645 -66.5682 118.4574)" width="20.482" height="91.766"/>
	<polygon points="85.135,427.93 196.232,440.503 158.853,401.703  "/>
	<path fill="#FFFFFF" d="M89.016,427.481l104.886,11.871l-35.288-36.631L89.016,427.481z M196.132,441.379L85.035,428.803   l-0.195-1.702l73.718-26.228l0.928,0.219l37.379,38.799L196.132,441.379z"/>
	<g>
		<defs>
			<rect id="SVGID_1_" width="566.929" height="566.929"/>
		</defs>
		<clipPath id="SVGID_2_">
			<use xlink:href="#SVGID_1_" overflow="visible"/>
		</clipPath>
		<path clip-path="url(#SVGID_2_)" fill="#FFFFFF" d="M453.391,103.652l-2.693,0.678l1.076,0.426    c3.289,168.851-44.16,265.224-84.602,316.37c-41.102,51.977-83.447,69.012-88.999,71.084    C175.766,441.935,134.25,341.187,117.461,265.444c-18.658-84.185-12.125-157.789-11.837-160.88l0.047-0.528l-0.271-0.453    l-0.085-0.139c-0.417,0.345-0.92,0.615-1.355,0.939c-0.785,8.481-25.482,292.226,174.119,389.579    c0,0,181.706-60.79,175.305-389.241C453.391,104.361,453.391,103.652,453.391,103.652"/>
		<path clip-path="url(#SVGID_2_)" d="M278.078,493.961C78.42,396.577,103.185,112.726,103.958,104.4l-0.012-0.021    c182.833-67.519,342.662-3.53,349.402-0.71l0.021-0.031C460.189,433.045,278.078,493.961,278.078,493.961 M472.461,73.826h-0.073    C465.813,71.04,294.83-2.53,86.08,74.545l-0.002-0.002v0.002c-0.013,0.006-0.024,0.01-0.034,0.013l0.027,0.047    c-0.646,5.108-40.575,328.915,191.681,442.017C277.752,516.622,492.435,448.149,472.461,73.826"/>
	</g>
	<path fill="#FFFFFF" d="M105.618,105.638c54.899-20.129,113.097-30.334,172.996-30.334c41.513,0,82.794,4.818,122.705,14.32   c28.07,6.685,45.918,13.495,50.313,15.247c3.265,168.887-44.242,265.246-84.727,316.362c-22.93,28.948-46.061,46.746-61.428,56.58   c-14.306,9.154-24.648,13.26-27.292,14.24c-102.332-50.256-143.819-150.943-160.61-226.65   c-7.763-35.001-12.154-72.131-13.054-110.357C103.9,128.639,105.215,110.444,105.618,105.638 M281.712,37.707   c-66.963,0-132.973,11.834-196.19,35.168c-0.036,0.013-0.071,0.025-0.107,0.04c-0.486,0.184-0.866,0.576-1.037,1.069   c-0.077,0.23-0.109,0.467-0.092,0.702c-0.786,6.431-10.017,87.029,8.561,180.774c11.03,55.666,29.666,104.795,55.389,146.034   c15.257,24.46,33.214,46.386,53.371,65.159c22.156,20.64,47.517,37.987,75.376,51.55c0.241,0.12,0.505,0.178,0.769,0.178   c0.181,0,0.36-0.03,0.536-0.084c0.556-0.178,13.85-4.483,33.623-16.725c11.582-7.173,22.979-15.593,33.867-25.024   c13.604-11.784,26.455-25.191,38.194-39.85c29.853-37.289,52.796-82.799,68.181-135.273c9.129-31.123,15.662-65.075,19.428-100.916   c4.138-39.398,5.027-82.05,2.639-126.775c-0.042-0.802-0.616-1.456-1.375-1.625c-5.561-2.356-25.561-10.401-56.318-18.07   c-19.164-4.779-39.099-8.574-59.259-11.284C332.337,39.405,306.914,37.707,281.712,37.707 M278.078,493.961   c0,0,182.112-60.916,175.292-390.323l-0.022,0.031c-4.433-1.853-74.983-30.128-174.733-30.128   c-52.026,0-111.999,7.692-174.668,30.838l0.012,0.022C103.185,112.726,78.42,396.577,278.078,493.961 M281.712,39.469   c110.739-0.002,186.346,32.523,190.676,34.357h0.073c19.974,374.325-194.709,442.796-194.709,442.796   C45.496,403.521,85.425,79.713,86.071,74.605l-0.027-0.047c0.01-0.003,0.021-0.007,0.034-0.012v-0.003l0.002,0.003   C157.378,48.22,224.271,39.469,281.712,39.469"/>
	<path fill="#FFFFFF" d="M453.391,103.652c-4.436-1.854-75.008-30.114-174.754-30.114c-52.01,0-112.034,7.703-174.694,30.845   l1.616,0.959c55.238-20.402,112.774-30.338,173.078-30.338c41.525,0,82.83,4.822,122.754,14.335   c31.866,7.59,49.574,15.109,50.355,15.435L453.391,103.652z"/>
	<path d="M88.011,423.974l364.358-107.392c0,0,50.363-12.817,53.119-62.216l3.916-70.283L130.47,301.303   c0,0-33.804,6.095-38.616,53.716C87.039,402.638,88.011,423.974,88.011,423.974"/>
	<path fill="#FFFFFF" d="M512.891,179.62l-4.441,1.374L129.675,298.16c-1.492,0.312-9.879,2.306-18.768,9.647   c-8.727,7.207-19.674,21.194-22.269,46.885c-4.784,47.312-3.897,68.545-3.856,69.427l0.187,4.122l3.957-1.166l364.307-107.377   c1.125-0.293,13.617-3.695,26.557-13.082c17.742-12.862,27.742-30.871,28.924-52.069l3.921-70.286L512.891,179.62z    M509.404,184.082l-3.914,70.284c-2.756,49.399-53.121,62.216-53.121,62.216L88.011,423.974c0,0-0.973-21.336,3.842-68.957   c4.813-47.619,38.617-53.714,38.617-53.714L509.404,184.082"/>
	<path fill="#FFFFFF" d="M156.858,308.558l10.951-3.252l30.316,54.473l-4.873-53.564c-0.543-6.324,1.483-10.168,6.077-11.536   c4.458-1.329,8.192,0.8,11.2,6.39l25.269,47.492l-4.445-62.183l10.944-3.268l4.989,71.518c0.403,5.622-1.763,9.138-6.5,10.544   c-4.941,1.475-8.71-0.268-11.309-5.227l-24.693-46.631l4.86,52.541c0.541,5.571-1.595,9.069-6.396,10.502   c-2.402,0.715-4.576,0.635-6.518-0.242c-1.943-0.871-3.575-2.531-4.896-4.971L156.858,308.558z"/>
	<path fill="#FFFFFF" d="M304.428,280.068l-1.85,37.184l24.137-7.188L304.428,280.068z M289.314,349.713l4.557-74.365   c0.222-3.269,0.758-5.646,1.619-7.135c0.861-1.488,2.353-2.544,4.481-3.179c2.324-0.691,4.265-0.673,5.828,0.054   c1.556,0.725,3.367,2.426,5.429,5.09l44.417,59.777l-11.565,3.478l-10.114-13.791l-32.127,9.567l-1.042,17.075L289.314,349.713z"/>
	<path fill="#FFFFFF" d="M438.623,305.237l-31.734,9.455c-4.518,1.344-8.869,0.742-13.061-1.813   c-4.192-2.553-7.008-6.259-8.457-11.122l-11.322-37.994c-1.629-5.475-1.404-10.353,0.677-14.62   c2.082-4.272,5.687-7.176,10.82-8.707l31.218-9.299l3.214,10.782l-29.78,8.874c-5.137,1.527-6.939,4.858-5.404,9.993l10.982,36.866   c0.674,2.26,1.955,3.928,3.838,5.002c1.89,1.084,3.959,1.283,6.219,0.609l29.578-8.804L438.623,305.237z"/>
	<path fill="#FFFFFF" d="M348.217,465.935c-0.424-0.484-0.637-0.724-1.061-1.207c1.435-1.261,2.146-1.895,3.556-3.18   c0.126-0.114,0.192-0.174,0.317-0.29c0.344-0.308,0.293-0.705-0.141-1.179c-0.203-0.221-0.304-0.332-0.507-0.549   c-0.413-0.45-0.858-0.452-1.343-0.008c-0.67,0.606-1.01,0.912-1.684,1.516c-0.564,0.506-1.1,0.771-1.586,0.814   c-0.285,0.027-0.586-0.013-0.89-0.134c-0.306-0.124-0.55-0.29-0.738-0.507c-0.319-0.367-0.479-0.546-0.804-0.912   c-0.456-0.516-0.666-1.053-0.633-1.603c0.031-0.554,0.299-1.054,0.806-1.507c1.528-1.365,2.281-2.057,3.78-3.45   c0.441,0.474,0.658,0.706,1.097,1.18c-1.369,1.272-2.06,1.902-3.45,3.151c-0.098,0.086-0.148,0.133-0.246,0.219   c-0.152,0.138-0.238,0.299-0.25,0.486c-0.011,0.187,0.055,0.361,0.195,0.519c0.184,0.212,0.279,0.313,0.464,0.522   c0.147,0.173,0.345,0.252,0.575,0.244c0.23-0.009,0.441-0.099,0.637-0.269c0.739-0.662,1.1-0.996,1.832-1.66   c0.475-0.433,1.031-0.644,1.676-0.637c0.642,0.001,1.17,0.223,1.586,0.668c0.416,0.446,0.619,0.669,1.031,1.114   c0.376,0.4,0.551,0.908,0.521,1.52c-0.035,0.613-0.264,1.119-0.691,1.511C350.664,463.776,349.854,464.498,348.217,465.935"/>
	<path fill="#FFFFFF" d="M355.378,459.416c-2.212-2.342-4.423-4.688-6.64-7.03c0.472-0.445,0.711-0.669,1.178-1.119   c2.226,2.332,4.455,4.664,6.682,6.99C356.109,458.725,355.869,458.953,355.378,459.416 M347.066,451.087   c-0.218-0.232-0.326-0.499-0.326-0.797c0-0.293,0.112-0.551,0.34-0.766c0.232-0.218,0.508-0.33,0.818-0.324   c0.312,0.008,0.575,0.124,0.789,0.346c0.219,0.223,0.318,0.486,0.313,0.797c-0.008,0.303-0.131,0.563-0.355,0.779   c-0.228,0.219-0.496,0.322-0.8,0.314C347.537,451.432,347.279,451.312,347.066,451.087"/>
	<path fill="#FFFFFF" d="M358.33,456.582c-2-2.056-3.004-3.089-5.01-5.147c-0.588-0.605-0.838-1.274-0.76-2.01   c0.065-0.544,0.393-1.107,0.985-1.697c0.739-0.73,1.104-1.1,1.832-1.84c0.59-0.596,1.159-0.933,1.708-1.007   c0.355-0.042,0.703,0,1.043,0.124c0.336,0.122,0.658,0.334,0.97,0.629c2.067,2,3.099,2.994,5.17,4.989   c-0.468,0.485-0.702,0.725-1.17,1.204c-1.995-1.944-2.993-2.919-4.985-4.87c-0.131-0.127-0.194-0.188-0.321-0.312   c-0.083-0.069-0.228-0.114-0.394-0.105c-0.25,0.012-0.537,0.189-0.812,0.466c-0.746,0.759-1.123,1.135-1.875,1.883   c-0.306,0.304-0.464,0.568-0.464,0.789c-0.008,0.222,0.13,0.476,0.406,0.753c1.953,1.987,2.936,2.981,4.893,4.963   C359.063,455.871,358.82,456.108,358.33,456.582"/>
	<path fill="#FFFFFF" d="M370.498,443.944c-1.047,1.158-1.571,1.734-2.633,2.879c-0.547,0.585-1.177,0.92-1.883,0.99   c-0.709,0.076-1.318-0.13-1.824-0.613c-1.389-1.314-2.078-1.973-3.467-3.286c-0.354-0.336-0.59-0.653-0.709-0.95   c-0.119-0.295-0.119-0.652-0.052-1.029c0.108-0.59,0.366-1.174,0.836-1.679c1.017-1.101,1.525-1.651,2.522-2.76   c0.481,0.43,0.722,0.647,1.197,1.077c-1.009,1.119-1.514,1.672-2.543,2.776c-0.221,0.239-0.328,0.499-0.326,0.771   c0.008,0.271,0.127,0.518,0.363,0.74c1.227,1.146,1.838,1.723,3.069,2.869c0.231,0.221,0.514,0.332,0.841,0.33   c0.324-0.005,0.6-0.119,0.823-0.357c1.043-1.127,1.562-1.695,2.589-2.832C369.777,443.298,370.016,443.514,370.498,443.944"/>
	<path fill="#FFFFFF" d="M367.751,436.745c0.586,0.514,0.883,0.77,1.469,1.283c0.619-2.029,0.916-3.049,1.483-5.076   c-0.049-0.045-0.071-0.066-0.123-0.106c-0.23-0.198-0.44-0.286-0.621-0.258c-0.182,0.034-0.398,0.197-0.652,0.494   c-0.699,0.815-1.05,1.223-1.752,2.034C367.074,435.665,367.135,436.208,367.751,436.745 M377.271,436.137   c-1.452,1.742-2.187,2.604-3.677,4.314c-0.551,0.632-1.174,0.983-1.85,1.053c-0.682,0.069-1.308-0.159-1.887-0.674   c-1.293-1.151-1.94-1.728-3.232-2.877c-1.387-1.233-1.412-2.599-0.094-4.116c0.637-0.736,0.955-1.105,1.588-1.842   c0.529-0.627,1.108-0.975,1.734-1.044c0.626-0.068,1.241,0.147,1.842,0.651c0.355,0.295,0.529,0.444,0.881,0.733   c-0.768,2.745-1.17,4.119-2.023,6.87c0.094,0.084,0.145,0.126,0.238,0.21c0.138,0.094,0.21,0.141,0.348,0.231   c0.123,0.059,0.203,0.099,0.238,0.121c0.037,0.024,0.104,0.038,0.182,0.047c0.242,0.043,0.543-0.102,0.872-0.479   c1.459-1.678,2.183-2.521,3.606-4.229C376.533,435.522,376.779,435.726,377.271,436.137"/>
	<path fill="#FFFFFF" d="M384.417,427.196c-3.41-2.609-6.824-5.221-10.237-7.83c0.452-0.59,0.68-0.887,1.129-1.484   c3.432,2.585,6.863,5.172,10.292,7.753C385.13,426.262,384.895,426.573,384.417,427.196"/>
	<path fill="#FFFFFF" d="M383.215,417.517c0.311-0.111,0.579-0.342,0.777-0.617c0.746-1.041,1.119-1.563,1.85-2.612   c0.225-0.319,0.331-0.63,0.314-0.923c-0.01-0.293-0.151-0.533-0.416-0.713c-0.768-0.529-1.144-0.793-1.91-1.323   c-0.264-0.183-0.572-0.226-0.928-0.136c-0.354,0.09-0.637,0.287-0.839,0.582c-0.739,1.049-1.108,1.57-1.853,2.61   c-0.16,0.226-0.225,0.485-0.189,0.778c0.036,0.296,0.174,0.529,0.405,0.695c0.774,0.561,1.158,0.84,1.937,1.404   C382.701,417.508,382.996,417.599,383.215,417.517 M387.341,423.292c-0.601-0.443-0.904-0.665-1.509-1.109   c1.546-2.101,2.305-3.16,3.798-5.293c0.224-0.318,0.317-0.627,0.284-0.93c-0.028-0.298-0.191-0.551-0.488-0.754   c-0.521-0.365-0.781-0.542-1.307-0.908c-1.028,1.488-1.549,2.227-2.603,3.697c-0.579,0.803-1.26,1.266-2.042,1.396   c-0.781,0.131-1.477-0.033-2.092-0.486c-0.833-0.614-1.252-0.924-2.085-1.535c-0.616-0.45-0.992-1.078-1.138-1.868   c-0.145-0.789-0.01-1.467,0.41-2.05c0.854-1.193,1.277-1.786,2.117-2.987c0.471-0.677,1.092-1.095,1.875-1.254   c0.781-0.149,1.51-0.003,2.188,0.459c2.322,1.583,3.484,2.372,5.806,3.958c0.778,0.529,1.231,1.159,1.361,1.891   c0.122,0.729-0.083,1.49-0.63,2.271C389.736,420.013,388.947,421.114,387.341,423.292"/>
	<path fill="#FFFFFF" d="M394.556,412.998c-0.623-0.417-0.938-0.622-1.562-1.039c1.254-1.875,1.869-2.819,3.078-4.724   c0.164-0.254,0.217-0.521,0.174-0.805c-0.051-0.281-0.195-0.496-0.435-0.652c-0.474-0.295-0.71-0.439-1.18-0.741   c-0.706-0.444-1.274-0.328-1.701,0.349c-0.565,0.881-0.843,1.317-1.412,2.188c-0.63-0.406-0.944-0.614-1.571-1.021   c0.564-0.867,0.844-1.3,1.397-2.178c0.116-0.171,0.167-0.369,0.188-0.53c0.035-0.2,0.051-0.381,0.015-0.489   c-0.065-0.203-0.269-0.432-0.623-0.652c-0.472-0.301-0.706-0.448-1.181-0.745c-0.228-0.146-0.484-0.185-0.768-0.119   c-0.277,0.062-0.499,0.222-0.65,0.463c-1.174,1.841-1.768,2.752-2.976,4.56c-0.604-0.399-0.909-0.604-1.514-1.008   c1.157-1.742,1.731-2.615,2.853-4.381c0.528-0.826,1.161-1.32,1.86-1.505c0.341-0.092,0.688-0.123,1.043-0.073   c0.354,0.051,0.681,0.166,0.978,0.348c0.631,0.395,0.948,0.591,1.578,0.982c0.225,0.139,0.424,0.311,0.604,0.516   c0.181,0.201,0.301,0.414,0.351,0.619c0.055,0.207,0.022,0.946,0.022,0.946c0.028,0.021,0.424-0.233,0.444-0.245   c0.121-0.063,0.258-0.104,0.352-0.125c0.207-0.047,0.46-0.037,0.746,0.025c0.283,0.061,0.543,0.163,0.775,0.309   c0.629,0.391,0.947,0.584,1.577,0.98c0.638,0.395,1.015,0.988,1.122,1.781c0.109,0.791-0.087,1.584-0.586,2.371   C396.377,410.254,395.775,411.173,394.556,412.998"/>
	<path fill="#FFFFFF" d="M401.003,402.853c-3.679-2.22-7.356-4.442-11.034-6.66c0.384-0.644,0.579-0.965,0.963-1.608   c3.693,2.192,7.385,4.387,11.077,6.581C401.607,401.841,401.408,402.178,401.003,402.853"/>
	<path fill="#FFFFFF" d="M145.801,63.966c1.042-0.25,1.562-0.373,2.606-0.617c2.484,5.026,3.712,7.544,6.14,12.59   c-0.111-4.829-0.158-7.242-0.227-12.077c-0.014-1.423,0.529-2.265,1.629-2.507c1.063-0.236,1.897,0.298,2.485,1.598   c1.981,4.412,2.956,6.622,4.894,11.046c0.071-5.598,0.123-8.399,0.256-14.004c1.046-0.217,1.571-0.322,2.618-0.534   c-0.19,6.445-0.267,9.656-0.38,16.092c-0.02,1.271-0.579,2.017-1.675,2.252c-1.146,0.243-1.966-0.211-2.469-1.361   c-1.902-4.34-2.863-6.505-4.808-10.831c0.063,4.742,0.103,7.11,0.205,11.847c0.033,1.257-0.508,2.005-1.62,2.26   c-0.557,0.129-1.049,0.083-1.475-0.138c-0.429-0.222-0.775-0.615-1.04-1.179C150.123,72.614,148.693,69.731,145.801,63.966"/>
	<path fill="#FFFFFF" d="M177.803,70.039c0.157,0.851,0.429,1.4,0.802,1.638c0.374,0.238,1.035,0.273,1.98,0.101   c1.068-0.19,1.601-0.288,2.67-0.474c0.927-0.163,1.534-0.416,1.811-0.767c0.28-0.348,0.342-0.951,0.197-1.803   c-0.532-3.11-0.799-4.661-1.332-7.769c-0.139-0.819-0.403-1.361-0.805-1.617c-0.397-0.254-1.059-0.309-1.993-0.143   c-1.093,0.193-1.645,0.287-2.734,0.485c-0.936,0.168-1.543,0.437-1.829,0.8c-0.289,0.363-0.354,0.965-0.199,1.819   C176.943,65.4,177.231,66.946,177.803,70.039 M181.415,74.191c-1.214,0.219-2.099,0.302-2.654,0.241   c-0.553-0.059-1.118-0.312-1.693-0.734c-0.887-0.649-1.495-1.75-1.792-3.308c-0.566-2.996-0.852-4.49-1.421-7.484   c-0.161-0.849-0.204-1.551-0.13-2.095c0.075-0.541,0.288-1.1,0.646-1.672c0.36-0.574,0.807-0.994,1.344-1.265   c0.537-0.268,1.42-0.514,2.634-0.733c0.77-0.138,1.152-0.208,1.921-0.346c1.267-0.222,2.175-0.3,2.721-0.232   c0.544,0.069,1.136,0.319,1.742,0.751c0.923,0.662,1.509,1.791,1.768,3.34c0.5,3.009,0.751,4.507,1.251,7.515   c0.143,0.854,0.179,1.555,0.103,2.092c-0.075,0.542-0.302,1.092-0.673,1.658c-0.371,0.563-0.82,0.981-1.343,1.242   c-0.525,0.256-1.377,0.493-2.556,0.698C182.535,73.992,182.163,74.055,181.415,74.191"/>
	<path fill="#FFFFFF" d="M207.456,70.139c-2.6,0.341-3.898,0.52-6.495,0.89c-1.475,0.212-2.658,0.011-3.556-0.618   c-0.895-0.623-1.449-1.633-1.661-3.027c-0.778-5.122-1.17-7.68-1.949-12.807c1.029-0.156,1.545-0.236,2.577-0.388   c0.752,5.119,1.129,7.675,1.884,12.793c0.101,0.699,0.321,1.158,0.648,1.383c0.325,0.228,0.883,0.29,1.656,0.178   c2.627-0.377,3.938-0.555,6.568-0.902C207.259,68.642,207.326,69.139,207.456,70.139"/>
	<path fill="#FFFFFF" d="M213.958,69.323c-0.606-5.068-0.908-7.605-1.517-12.673c-0.202-1.689,0.124-2.968,0.974-3.845   c0.391-0.398,0.823-0.684,1.302-0.852c0.474-0.169,1.24-0.307,2.298-0.425c2.675-0.297,4.013-0.438,6.69-0.705   c0.097,1.007,0.152,1.504,0.25,2.511c-2.773,0.271-4.159,0.42-6.931,0.728c-0.31,0.032-0.463,0.051-0.771,0.087   c-0.293,0.064-0.568,0.191-0.787,0.378c-0.407,0.345-0.574,0.872-0.5,1.522c0.145,1.256,0.221,1.882,0.366,3.139   c3.631-0.419,5.446-0.611,9.083-0.97c0.097,1.004,0.147,1.509,0.247,2.511c-3.62,0.359-5.428,0.554-9.042,0.97   c0.337,2.933,0.506,4.395,0.845,7.33C215.462,69.145,214.961,69.205,213.958,69.323"/>
	<path fill="#FFFFFF" d="M231.756,67.481c-0.088-1.006-0.128-1.508-0.217-2.514c2.805-0.245,4.206-0.361,7.011-0.57   c0.47-0.033,0.853-0.203,1.159-0.498c0.306-0.295,0.442-0.641,0.413-1.039c-0.062-0.87-0.093-1.308-0.156-2.181   c-0.031-0.445-0.224-0.791-0.58-1.031c-0.353-0.239-0.821-0.341-1.393-0.297c-1.06,0.077-1.587,0.119-2.648,0.206   c-1.214,0.096-2.254-0.146-3.122-0.743c-0.869-0.593-1.344-1.393-1.434-2.399c-0.075-0.862-0.116-1.289-0.192-2.15   c-0.075-0.862-0.006-1.566,0.198-2.097c0.203-0.532,0.596-1.017,1.152-1.451c0.341-0.264,0.709-0.474,1.092-0.6   c0.379-0.127,0.894-0.211,1.541-0.263c2.91-0.234,4.364-0.342,7.276-0.538c0.067,1.008,0.103,1.509,0.172,2.516   c-2.958,0.199-4.433,0.308-7.389,0.543c-1.06,0.087-1.551,0.605-1.473,1.546c0.058,0.691,0.083,1.037,0.141,1.728   c0.1,1.184,0.704,1.725,1.823,1.634c1.244-0.097,1.866-0.148,3.109-0.241c1.101-0.081,2.066,0.184,2.9,0.781   c0.834,0.601,1.28,1.361,1.339,2.273c0.072,1.082,0.111,1.624,0.185,2.708c0.074,1.104-0.241,2.045-0.934,2.812   c-0.693,0.772-1.597,1.195-2.723,1.277C236.108,67.11,234.653,67.228,231.756,67.481"/>
	<path fill="#FFFFFF" d="M252.547,58.663c0.094,1.942,0.143,2.914,0.239,4.854c2.282-0.111,3.425-0.164,5.709-0.253   c0.472-0.019,0.879-0.225,1.237-0.606c0.361-0.384,0.538-0.818,0.522-1.303c-0.023-0.657-0.04-0.98-0.063-1.635   c-0.01-0.307-0.185-0.583-0.493-0.831c-0.403-0.324-0.856-0.501-1.348-0.479C256.027,58.498,254.869,58.551,252.547,58.663    M252.178,51.246c0.098,1.958,0.146,2.938,0.244,4.901c2.342-0.117,3.513-0.172,5.857-0.264c0.543-0.022,0.965-0.18,1.276-0.489   c0.309-0.305,0.458-0.711,0.438-1.223c-0.024-0.659-0.034-0.99-0.058-1.651c-0.017-0.461-0.206-0.836-0.562-1.126   c-0.359-0.289-0.794-0.429-1.309-0.409C255.709,51.076,254.531,51.128,252.178,51.246 M250.396,66.163   c-0.372-6.924-0.564-10.381-0.936-17.303c3.641-0.195,5.463-0.278,9.106-0.416c1.147-0.043,2.075,0.297,2.781,1.028   c0.342,0.355,0.618,0.754,0.824,1.204c0.203,0.447,0.313,0.874,0.324,1.274c0.027,0.832,0.04,1.25,0.067,2.083   c0.008,0.351-0.049,0.745-0.175,1.172c-0.124,0.428-0.264,0.742-0.412,0.945c-0.15,0.206-0.845,0.778-0.844,0.785   c0.002,0.017,0.204,0.106,0.312,0.181c0.112,0.076,0.211,0.134,0.286,0.182c0.276,0.176,0.521,0.531,0.704,0.944   c0.185,0.413,0.286,0.833,0.3,1.268c0.021,0.654,0.031,0.984,0.051,1.639c0.041,1.287-0.306,2.36-1.039,3.237   c-0.729,0.874-1.67,1.34-2.828,1.385C255.508,65.903,253.803,65.979,250.396,66.163"/>
	<path fill="#FFFFFF" d="M282.071,65.356c-2.702-0.007-4.05-0.002-6.753,0.021c-0.805,0.008-1.486-0.08-2.034-0.264   c-0.549-0.184-1.045-0.502-1.481-0.943c-0.436-0.442-0.735-0.909-0.906-1.392c-0.171-0.485-0.266-1.15-0.283-1.998   c-0.06-3.336-0.085-5.007-0.143-8.34c-0.029-1.651,0.503-2.871,1.604-3.633c0.428-0.295,0.883-0.494,1.364-0.597   c0.482-0.1,1.215-0.154,2.196-0.161c2.616-0.024,3.924-0.028,6.541-0.022c-0.007,1.01-0.007,1.513-0.015,2.521   c-2.58-0.005-3.869-0.002-6.454,0.019c-0.436,0.001-0.658,0.006-1.094,0.012c-0.446,0.006-0.824,0.188-1.123,0.55   c-0.3,0.364-0.45,0.811-0.443,1.34c0.014,1.183,0.024,1.777,0.039,2.957c3.626-0.043,5.44-0.058,9.068-0.047   c-0.007,1.01-0.007,1.517-0.01,2.527c-3.611-0.011-5.418-0.002-9.031,0.045c0.013,0.925,0.019,1.388,0.033,2.311   c0.004,0.435,0.009,0.645,0.014,1.077c0.007,0.404,0.183,0.777,0.527,1.074c0.293,0.257,0.612,0.405,0.902,0.451   c0.544-0.006,0.821-0.008,1.368-0.01c2.451-0.02,3.676-0.025,6.129-0.018C282.082,63.847,282.075,64.347,282.071,65.356"/>
	<path fill="#FFFFFF" d="M289.72,65.432c0.123-6.934,0.174-10.393,0.289-17.328c3.635,0.062,5.453,0.104,9.086,0.223   c1.13,0.036,2.101,0.491,2.875,1.37c0.313,0.358,0.524,0.709,0.63,1.031c0.102,0.322,0.145,0.764,0.122,1.323   c-0.046,1.2-0.065,1.798-0.11,2.996c-0.033,0.88-0.41,1.643-1.113,2.299c-0.709,0.651-1.497,0.966-2.381,0.937   c-1.194-0.04-1.795-0.058-2.99-0.088c2.516,3.02,3.758,4.537,6.205,7.588c-1.34-0.054-2.012-0.079-3.352-0.124   c-2.427-2.978-3.65-4.46-6.137-7.411c-0.214-0.23-0.314-0.519-0.309-0.877c0.016-0.546,0.192-0.979,0.543-1.293   c0.352-0.314,0.822-0.466,1.412-0.452c1.549,0.04,2.324,0.059,3.875,0.109c0.443,0.012,0.832-0.105,1.164-0.366   c0.34-0.263,0.515-0.583,0.529-0.968c0.025-0.766,0.043-1.15,0.064-1.915c0.041-1.068-0.478-1.622-1.549-1.657   c-2.412-0.075-3.613-0.101-6.02-0.151c-0.127,5.922-0.186,8.876-0.314,14.801C291.232,65.457,290.73,65.451,289.72,65.432"/>
	<path fill="#FFFFFF" d="M322.849,57.056c-0.155,2.129-0.237,3.193-0.397,5.322c-0.051,0.706-0.159,1.274-0.325,1.712   c-0.16,0.44-0.427,0.862-0.798,1.265c-0.488,0.525-0.998,0.878-1.522,1.058c-0.522,0.18-1.213,0.24-2.067,0.184   c-1.39-0.092-2.084-0.136-3.479-0.223c-1.256-0.076-2.242-0.462-2.951-1.084c-0.564-0.502-0.98-1.008-1.179-1.531   c-0.203-0.523-0.276-1.235-0.229-2.133c0.178-3.31,0.258-4.966,0.432-8.28c0.158-3.027,1.824-4.457,5.003-4.264   c2.762,0.168,4.141,0.257,6.899,0.456c-0.072,1.01-0.108,1.506-0.182,2.514c-2.838-0.205-4.257-0.295-7.1-0.467   c-0.697-0.042-1.2,0.072-1.516,0.346c-0.312,0.271-0.492,0.742-0.529,1.413c-0.194,3.426-0.285,5.142-0.48,8.565   c-0.033,0.547,0.068,0.992,0.309,1.343c0.241,0.349,0.567,0.539,0.969,0.563c0.275,0.017,0.41,0.026,0.681,0.042   c1.408,0.086,2.11,0.129,3.519,0.221c0.568,0.04,1.035-0.084,1.397-0.362c0.358-0.279,0.565-0.695,0.601-1.258   c0.159-2.236,0.235-3.354,0.392-5.59C321.313,56.939,321.828,56.979,322.849,57.056"/>
	<path fill="#FFFFFF" d="M341.376,68.679c-2.687-0.292-4.032-0.438-6.726-0.698c-0.804-0.078-1.474-0.232-2.002-0.474   c-0.525-0.243-0.988-0.614-1.38-1.097c-0.383-0.485-0.637-0.981-0.753-1.482c-0.119-0.5-0.145-1.168-0.068-2.015   c0.293-3.323,0.445-4.989,0.742-8.313c0.145-1.642,0.807-2.796,1.983-3.438c0.456-0.249,0.935-0.396,1.423-0.448   c0.488-0.051,1.223-0.027,2.205,0.069c2.605,0.257,3.904,0.389,6.512,0.675c-0.111,1.004-0.164,1.5-0.275,2.505   c-2.573-0.283-3.862-0.415-6.432-0.667c-0.436-0.043-0.652-0.067-1.087-0.109c-0.448-0.044-0.848,0.104-1.184,0.435   c-0.337,0.331-0.536,0.755-0.583,1.284c-0.112,1.176-0.166,1.771-0.274,2.948c3.612,0.339,5.423,0.52,9.035,0.916   c-0.112,1.004-0.167,1.504-0.276,2.506c-3.598-0.394-5.393-0.575-8.994-0.911c-0.088,0.919-0.127,1.382-0.215,2.3   c-0.043,0.432-0.058,0.643-0.101,1.073c-0.036,0.4,0.095,0.795,0.405,1.128c0.269,0.284,0.564,0.465,0.854,0.541   c0.544,0.052,0.812,0.08,1.357,0.134c2.444,0.239,3.667,0.365,6.106,0.632C341.543,67.178,341.492,67.677,341.376,68.679"/>
	<path fill="#FFFFFF" d="M348.992,69.566c0.851-6.885,1.277-10.316,2.127-17.202c3.613,0.447,5.416,0.688,9.025,1.191   c1.126,0.156,2.038,0.71,2.719,1.665c0.282,0.391,0.457,0.761,0.521,1.094c0.072,0.333,0.064,0.778-0.018,1.332   c-0.174,1.185-0.262,1.777-0.436,2.962c-0.127,0.871-0.574,1.595-1.35,2.174c-0.771,0.574-1.592,0.796-2.469,0.676   c-1.188-0.165-1.789-0.252-2.976-0.41c2.19,3.272,3.269,4.913,5.386,8.206c-1.332-0.197-2.002-0.287-3.338-0.475   c-2.095-3.218-3.16-4.822-5.32-8.019c-0.191-0.251-0.26-0.561-0.217-0.912c0.068-0.543,0.297-0.952,0.68-1.227   c0.385-0.277,0.865-0.38,1.449-0.301c1.541,0.202,2.316,0.309,3.858,0.522c0.438,0.059,0.839-0.015,1.201-0.239   c0.362-0.221,0.571-0.525,0.623-0.908c0.108-0.757,0.167-1.133,0.271-1.894c0.149-1.057-0.303-1.667-1.371-1.813   c-2.39-0.33-3.588-0.489-5.979-0.795c-0.754,5.877-1.13,8.813-1.884,14.692C350.498,69.754,349.994,69.69,348.992,69.566"/>
	<path fill="#FFFFFF" d="M389.119,61.732c-1.73,2.875-2.596,4.315-4.297,7.204c2.273,0.423,3.41,0.644,5.683,1.094   C389.962,66.714,389.695,65.052,389.119,61.732 M378.791,74.059c3.392-5.774,5.119-8.642,8.63-14.368   c0.391-0.629,0.76-1.044,1.097-1.25c0.337-0.205,0.764-0.259,1.271-0.161c0.557,0.108,0.955,0.318,1.207,0.629   c0.244,0.308,0.438,0.837,0.58,1.584c1.123,6.621,1.654,9.924,2.65,16.542c-1.076-0.221-1.622-0.328-2.701-0.544   c-0.224-1.52-0.332-2.28-0.563-3.8c-3.005-0.601-4.511-0.891-7.522-1.45c-0.789,1.319-1.191,1.978-1.977,3.303   C380.391,74.347,379.863,74.25,378.791,74.059"/>
	<path fill="#FFFFFF" d="M411.06,80.801c-2.932-0.702-4.397-1.042-7.334-1.707c-1.046-0.235-1.854-0.829-2.403-1.788   c-0.555-0.956-0.709-1.995-0.468-3.106c0.761-3.475,1.142-5.216,1.901-8.689c0.271-1.255,0.854-2.185,1.759-2.79   c0.897-0.601,1.97-0.763,3.193-0.486c2.981,0.673,4.467,1.018,7.442,1.732c-0.24,0.98-0.355,1.473-0.591,2.454   c-2.823-0.677-4.239-1.012-7.065-1.654c-1.221-0.277-1.959,0.177-2.219,1.35c-0.754,3.37-1.138,5.054-1.89,8.423   c-0.116,0.516-0.037,0.981,0.216,1.398c0.262,0.42,0.652,0.691,1.178,0.81c2.75,0.623,4.115,0.947,6.859,1.604   C411.406,79.333,411.292,79.819,411.06,80.801"/>
</g>
</svg>