<?xml version="1.0" encoding="utf-8"?>
<!-- Generator: Adobe Illustrator 13.0.0, SVG Export Plug-In . SVG Version: 6.00 Build 14948)  -->
<!DOCTYPE svg PUBLIC "-//W3C//DTD SVG 1.0//EN" "http://www.w3.org/TR/2001/REC-SVG-20010904/DTD/svg10.dtd">
<svg version="1.0" id="Ebene_1" xmlns="http://www.w3.org/2000/svg" xmlns:xlink="http://www.w3.org/1999/xlink" x="0px" y="0px"
	 width="266.618px" height="334.352px" viewBox="0 0 266.618 334.352" enable-background="new 0 0 266.618 334.352"
	 xml:space="preserve">
<path fill-rule="evenodd" clip-rule="evenodd" fill="#003D87" d="M89.622,73.497c13.472-3.84,27.66-2.702,42.565,3.553
	c14.476,6.113,28.091,16.205,40.987,30.278c-16.193-20.612-33.822-35.539-53.026-44.78c-19.921-9.665-38.694-11.798-56.61-6.68
	C50.354,59.564,38.889,67.24,29,78.755c-9.602,11.089-16.769,24.878-21.928,41.367c-5.017,16.634-7.453,34.545-7.023,53.879
	c0.286,20.046,3.44,39.944,9.603,59.991c1.721,5.543,5.591,15.633,11.61,30.277h0.571c6.163-2.699,12.898-4.121,20.065-4.121
	c12.038,0,21.64,2.273,28.807,6.68h0.43c-9.029-13.93-16.195-29-21.498-45.348c-5.59-17.059-8.742-33.832-9.603-50.464
	c-0.715-16.065,0.718-30.991,4.443-44.638c3.584-13.648,9.317-25.021,16.912-34.118C69.271,82.878,78.731,76.623,89.622,73.497
	L89.622,73.497z"/>
<path fill-rule="evenodd" clip-rule="evenodd" fill="#003D87" d="M251.137,134.339c-6.59,13.79-15.332,26.725-26.369,38.667
	c-11.18,12.225-23.646,22.318-37.262,30.424c-13.328,7.676-26.799,12.789-40.559,15.492c-13.758,2.703-26.655,2.703-38.838,0
	c-12.469-2.844-23.218-8.387-32.246-16.633c-11.037-10.234-18.201-23.172-21.498-39.093c-3.295-15.354-2.437-31.701,2.149-49.185
	c-8.168,23.171-10.749,45.204-7.595,66.242c3.297,21.609,12.183,39.094,26.943,52.602c10.749,9.949,23.79,16.629,38.982,20.043
	c14.617,3.41,30.096,3.41,46.721,0c16.48-3.129,32.818-9.383,48.727-18.625c16.48-9.664,31.529-21.891,45-36.676l9.316-10.945
	L251.137,134.339L251.137,134.339z"/>
<path fill-rule="evenodd" clip-rule="evenodd" fill="#003D87" d="M137.633,59.706c13.613,8.245,25.367,17.77,34.824,28.431
	c9.461,10.804,15.908,22.035,19.779,33.692c4.012,12.226,4.729,24.168,2.148,35.823c-2.865,13.364-11.035,24.594-24.506,33.406
	c-12.613,8.387-28.377,13.934-47.295,16.352c25.797-1.426,47.439-7.535,65.211-18.199c18.342-10.805,30.096-25.161,34.967-42.932
	c3.584-13.078,3.152-26.867-1.432-41.224c-4.443-13.933-12.471-27.438-24.078-40.516c-11.609-13.221-25.654-24.877-42.422-35.256
	c-17.484-10.662-36.402-19.049-57.04-25.304L82.743,0L41.038,31.274c15.622,0.568,32.104,3.271,49.588,8.389
	C107.681,44.495,123.302,51.177,137.633,59.706L137.633,59.706z"/>
<path fill-rule="evenodd" clip-rule="evenodd" fill="#003D87" d="M166.063,96.468c-6.02-6.111-13.043-10.805-20.924-14.073
	c-8.313-3.411-16.911-5.118-25.797-5.118c-9.03,0-17.485,1.707-25.796,5.118c-7.883,3.269-14.908,7.962-20.927,14.073
	c-6.161,5.971-10.892,12.936-14.188,20.898c-3.582,8.103-5.301,16.63-5.301,25.446c0,8.954,1.719,17.483,5.301,25.588
	c3.297,7.818,8.027,14.783,14.188,20.896c6.019,5.969,13.044,10.664,20.927,14.074c8.311,3.41,16.766,5.117,25.796,5.117
	c8.886,0,17.484-1.707,25.797-5.117c7.881-3.41,14.904-8.105,20.924-14.074c6.162-6.113,10.891-13.078,14.188-20.896
	c3.584-8.104,5.303-16.634,5.303-25.588c0-8.816-1.719-17.344-5.303-25.446C176.954,109.403,172.225,102.438,166.063,96.468
	L166.063,96.468z"/>
<path fill-rule="evenodd" clip-rule="evenodd" fill="#FFFFFF" d="M89.709,73.199c-9.172,3.805-17.292,9.266-24.179,16.235
	c-7.048,6.85-12.54,14.937-16.325,24.041c-4.05,9.195-6.109,19.063-6.109,29.337c0,10.375,2.062,20.303,6.119,29.507
	c3.786,8.95,9.271,17.032,16.312,24.013c6.845,6.789,14.922,12.227,24.007,16.16c0.058,0.023,0.116,0.051,0.176,0.074
	c9.629,3.949,19.322,5.871,29.633,5.871c10.164,0,20.135-1.973,29.631-5.871c0.059-0.023,0.119-0.051,0.178-0.074
	c9.082-3.93,17.16-9.367,24.004-16.16c7.041-6.98,12.525-15.063,16.313-24.013c4.057-9.204,6.117-19.13,6.117-29.507
	c0-10.273-2.057-20.144-6.105-29.337c-3.787-9.104-9.279-17.191-16.328-24.041c-6.887-6.972-15.006-12.431-24.143-16.221
	c-0.008-0.004-0.014-0.004-0.021-0.007c-0.004-0.001-0.008-0.004-0.014-0.008c-9.496-3.896-19.467-5.874-29.631-5.874
	C109.032,67.325,99.338,69.247,89.709,73.199L89.709,73.199z M79.714,182.262c-5.206-5.164-9.252-11.12-12.026-17.699
	c-0.022-0.055-0.045-0.107-0.067-0.159c-3.001-6.786-4.459-13.847-4.459-21.591c0-7.543,1.499-14.761,4.459-21.449
	c0.031-0.072,0.062-0.145,0.092-0.218c2.758-6.662,6.768-12.569,11.918-17.559c0.057-0.054,0.111-0.109,0.168-0.166
	c5.011-5.091,10.938-9.076,17.616-11.845c7.117-2.922,14.301-4.348,21.928-4.348c7.514,0,14.896,1.465,21.943,4.354
	c6.668,2.77,12.592,6.752,17.6,11.838c0.055,0.057,0.109,0.112,0.166,0.166c5.15,4.989,9.16,10.896,11.92,17.559
	c0.031,0.073,0.061,0.146,0.092,0.218c2.959,6.688,4.457,13.904,4.457,21.449c0,7.744-1.457,14.807-4.457,21.591
	c-0.023,0.052-0.047,0.104-0.066,0.156c-2.775,6.582-6.824,12.538-12.029,17.702c-5.039,5-11.016,9.016-17.752,11.945
	c-7.026,2.871-14.384,4.332-21.873,4.332c-7.595,0-14.751-1.422-21.871-4.332C90.731,191.277,84.755,187.262,79.714,182.262
	L79.714,182.262z M173.151,89.435c0.027,0.028,0.059,0.052,0.088,0.08c-0.057-0.055-0.111-0.111-0.168-0.164
	C173.1,89.376,173.124,89.408,173.151,89.435L173.151,89.435z M65.444,89.515c0.027-0.028,0.059-0.052,0.087-0.08
	c0.029-0.026,0.052-0.059,0.08-0.084C65.554,89.403,65.499,89.46,65.444,89.515L65.444,89.515z M189.479,113.476
	c0.016,0.037,0.037,0.072,0.051,0.109c-0.027-0.072-0.061-0.145-0.092-0.217C189.452,113.403,189.463,113.44,189.479,113.476
	L189.479,113.476z M49.153,113.585c0.016-0.037,0.037-0.072,0.053-0.109c0.015-0.035,0.024-0.072,0.039-0.107
	C49.213,113.44,49.182,113.513,49.153,113.585L49.153,113.585z M49.245,172.397c-0.011-0.026-0.019-0.053-0.029-0.078
	c-0.01-0.027-0.027-0.054-0.038-0.081C49.199,172.292,49.222,172.344,49.245,172.397L49.245,172.397z M189.467,172.319
	c-0.012,0.025-0.018,0.052-0.029,0.078c0.023-0.053,0.045-0.105,0.068-0.158C189.495,172.268,189.479,172.293,189.467,172.319
	L189.467,172.319z"/>
<path fill-rule="evenodd" clip-rule="evenodd" fill="#FFFFFF" d="M159.274,110.172c-8.17-8.388-17.914-12.51-29.522-12.51
	c-11.467,0-21.354,4.122-29.524,12.51c-8.168,8.388-12.182,18.48-12.182,30.279s4.014,21.894,12.182,30.28
	c1.004,1.138,2.149,1.99,3.154,2.984c7.451,6.397,16.193,9.667,26.37,9.667c10.175,0,19.06-3.27,26.511-9.667
	c1.004-0.994,2.008-1.847,3.012-2.984c8.168-8.387,12.18-18.481,12.18-30.28S167.442,118.56,159.274,110.172L159.274,110.172z
	 M129.751,100.079c10.892,0,20.206,3.98,27.802,11.94c7.74,7.819,11.607,17.344,11.607,28.432c0,11.231-3.867,20.612-11.607,28.575
	c-1.576,1.705-3.439,3.269-5.303,4.689c-6.449,4.69-14.045,7.108-22.499,7.108c-8.456,0-15.908-2.418-22.357-7.108
	c-1.863-1.421-3.727-2.984-5.445-4.689c-7.597-7.963-11.467-17.344-11.467-28.575c0-11.088,3.87-20.612,11.467-28.432
	C109.686,104.06,118.859,100.079,129.751,100.079L129.751,100.079z"/>
<path fill-rule="evenodd" clip-rule="evenodd" fill="#FFFFFF" d="M109.362,137.554c-3.348,0.472-6.942,4.059-10.939,10.962
	c-0.09,0.178-0.197,0.388-0.197,0.893c0,0.927,0.359,2.848,1.834,7.385l0.003,0.009c1.483,4.712,2.801,7.739,3.913,8.999
	c1.521,1.811,6.385,3.917,15.756,6.812c0.32,0.101,0.671,0.018,0.914-0.215l11.18-10.662c0.258-0.246,0.353-0.619,0.241-0.959
	l-5.447-16.634c-0.084-0.257-0.277-0.465-0.528-0.568C110.76,137.274,109.85,137.455,109.362,137.554L109.362,137.554z
	 M109.655,139.386c0.41,0.027,2.71,0.563,15.335,5.742c0.244,0.75,4.798,14.657,5.131,15.668c-0.754,0.721-9.648,9.203-10.358,9.881
	c-8.314-2.592-13.167-4.642-14.382-6.086c-0.544-0.617-1.707-2.497-3.552-8.354c0,0-0.002-0.006-0.003-0.008
	c-1.566-4.82-1.749-6.333-1.749-6.776c0-0.055,0.004-0.079,0.007-0.105C104.564,141.631,107.76,139.662,109.655,139.386
	L109.655,139.386z"/>
<path fill-rule="evenodd" clip-rule="evenodd" fill="#FFFFFF" d="M139.963,131.618c-0.371,0.094-0.652,0.357-0.771,0.72
	c-0.002,0.002-0.008,0.019-0.008,0.026c-0.477,0.89-5.185,4.699-14.005,11.326c-0.242,0.182-0.369,0.46-0.369,0.741
	c0,0.194,0.06,0.391,0.186,0.557c0.308,0.411,0.889,0.493,1.299,0.186c10.337-7.768,13.368-10.38,14.288-11.586
	c0.994,0.535,3.803,2.625,11.566,9.66c-0.205,5.459-1.729,10.793-4.68,16.28c-0.498,0.318-3.094,0.958-16.26,0.608
	c-0.513-0.014-0.939,0.391-0.954,0.902c-0.013,0.513,0.392,0.939,0.905,0.952c15.502,0.41,17.303-0.456,17.881-1.458
	c3.215-5.944,4.846-11.708,4.996-17.642c0.008-0.27-0.104-0.529-0.303-0.71C141.622,131.185,140.741,131.415,139.963,131.618
	L139.963,131.618z"/>
<path fill-rule="evenodd" clip-rule="evenodd" fill="#FFFFFF" d="M147.842,159.883c-0.254,0.181-0.389,0.466-0.389,0.756
	c0,0.188,0.057,0.375,0.174,0.537c4.643,6.512,5.428,8.416,5.561,8.88c-1.426,2.89-5.305,5.512-11.277,7.62
	c-5.865,2.113-10.58,2.797-13.637,1.969c-3.592-1.02-6.01-3.696-7.382-8.188c-0.15-0.491-0.668-0.767-1.159-0.618
	c-0.489,0.149-0.764,0.668-0.616,1.158c1.571,5.142,4.404,8.229,8.661,9.433c3.484,0.945,8.447,0.27,14.756-2.008
	c6.664-2.35,10.846-5.288,12.424-8.73c0.275-0.549,0.717-1.424-5.822-10.593C148.84,159.683,148.26,159.587,147.842,159.883
	L147.842,159.883z"/>
<path fill-rule="evenodd" clip-rule="evenodd" fill="#FFFFFF" d="M103.522,164.457c-1.946,2.375-2.933,4.104-2.933,5.137
	c0,0.509,0.411,0.915,0.92,0.921c0.509,0.003,0.927-0.412,0.936-0.921c0.005-0.254,0.464-1.461,2.513-3.962
	c0.325-0.396,0.266-0.98-0.131-1.306C104.431,164.003,103.846,164.061,103.522,164.457L103.522,164.457z"/>
<path fill-rule="evenodd" clip-rule="evenodd" fill="#FFFFFF" d="M121.758,110.132c-2.04,0.578-4.745,2.204-8.766,5.272
	c-2.327,1.732-5.222,4.075-5.743,5.367c-0.027,0.068-0.047,0.141-0.058,0.214c-0.156,1.076,0.208,5.89,1.14,16.985
	c0.042,0.509,0.491,0.889,1.002,0.847c0.483-0.041,0.851-0.447,0.851-0.924c0-0.025-0.002-0.052-0.003-0.079
	c-0.642-7.633-1.173-14.149-1.173-16.088c0-0.16,0.007-0.254,0.015-0.35c0.251-0.421,1.488-1.813,5.086-4.49
	c3.784-2.888,6.374-4.465,8.155-4.97c1.618-0.459,6.889,1.51,15.635,5.824c0.08,0.98,1.246,14.969,1.246,14.969
	c0.043,0.511,0.49,0.891,1.002,0.848c0.51-0.043,0.889-0.491,0.846-1.002l-1.289-15.494c-0.027-0.324-0.221-0.61-0.512-0.754
	C126.625,110.073,123.327,109.688,121.758,110.132L121.758,110.132z"/>
<path fill-rule="evenodd" clip-rule="evenodd" fill="#FFFFFF" d="M119,99.736c-0.044,0.113-0.065,0.229-0.065,0.343
	c0,0.369,0.223,0.718,0.585,0.862c0,0,2.003,0.794,2.899,1.151c-0.187,1.241-1.323,8.793-1.323,8.793
	c-0.009,0.048-0.011,0.094-0.011,0.14c0,0.451,0.328,0.848,0.789,0.916c0.507,0.077,0.979-0.272,1.056-0.778l1.433-9.523
	c0.064-0.427-0.174-0.842-0.574-1.001l-3.583-1.421C119.727,99.028,119.189,99.261,119,99.736L119,99.736z"/>
<path fill-rule="evenodd" clip-rule="evenodd" fill="#FFFFFF" d="M108.049,119.766l-11.034,0.712
	c-0.08,0.006-0.156,0.02-0.231,0.046c-0.912,0.3-1.979,1.358-3.61,7.019c-1.375,4.695-2.043,8.688-2.043,12.2
	c0,0.195,0.063,0.387,0.179,0.546l6.735,9.239c0.303,0.415,0.882,0.505,1.297,0.203c0.248-0.182,0.382-0.463,0.382-0.749
	c0-0.189-0.059-0.383-0.18-0.547c0,0-6.183-8.481-6.544-8.977c0.034-3.27,0.667-6.994,1.955-11.397
	c1.343-4.663,2.159-5.574,2.374-5.745c0.375-0.022,10.841-0.697,10.841-0.697c0.491-0.032,0.868-0.44,0.868-0.926
	c0-0.02-0.001-0.039-0.001-0.061C109.002,120.121,108.562,119.733,108.049,119.766L108.049,119.766z"/>
<path fill-rule="evenodd" clip-rule="evenodd" fill="#FFFFFF" d="M91.406,139.083l-2.581,2.559
	c-0.364,0.361-0.365,0.947-0.004,1.312c0.361,0.363,0.948,0.365,1.311,0.006l2.581-2.56c0.362-0.36,0.364-0.946,0.004-1.313
	C92.356,138.725,91.768,138.722,91.406,139.083L91.406,139.083z"/>
<path fill-rule="evenodd" clip-rule="evenodd" fill="#FFFFFF" d="M96.203,115.967c-0.642,1.751-0.647,3.672-0.014,5.712
	c0.151,0.488,0.67,0.763,1.159,0.611c0.489-0.153,0.764-0.672,0.612-1.161c-0.516-1.664-0.521-3.145-0.016-4.524
	c0.177-0.48-0.07-1.015-0.552-1.19C96.913,115.238,96.38,115.484,96.203,115.967L96.203,115.967z"/>
<path fill-rule="evenodd" clip-rule="evenodd" fill="#FFFFFF" d="M163.377,135.537l-10.748,6.538
	c-0.438,0.268-0.576,0.837-0.311,1.275c0.266,0.438,0.836,0.577,1.273,0.311c0,0,8.887-5.406,10.074-6.129
	c2.689,2.953,4.145,5.965,4.145,8.771c0,0.121,0,0.241-0.006,0.362c0,3.096-1.186,6.862-3.623,11.556
	c-2.838,5.496-6.359,9.28-10.469,11.247c-0.334,0.159-0.527,0.491-0.527,0.837c0,0.135,0.029,0.272,0.092,0.401
	c0.221,0.462,0.775,0.657,1.236,0.436c4.482-2.146,8.291-6.205,11.316-12.067c2.576-4.963,3.828-9.008,3.828-12.368
	c0.158-3.563-1.617-7.388-5.133-11.022C164.225,135.373,163.749,135.313,163.377,135.537L163.377,135.537z"/>
<path fill-rule="evenodd" clip-rule="evenodd" fill="#FFFFFF" d="M139.557,99.155l-16.193,1.422
	c-0.51,0.045-0.888,0.495-0.842,1.006c0.045,0.51,0.494,0.887,1.004,0.843c0,0,15.018-1.318,15.789-1.388
	c5.535,5.032,7.547,7.164,8.232,8.059c-3.615,1.5-6.83,3.986-9.506,7.477c-0.127,0.168-0.191,0.367-0.191,0.564
	c0,0.279,0.127,0.555,0.365,0.736c0.406,0.312,0.988,0.235,1.301-0.172c2.652-3.462,5.84-5.894,9.471-7.227
	c0.375-0.149,0.625-0.453,0.693-0.825c0.137-0.756,0.268-1.471-9.416-10.258C140.073,99.22,139.817,99.132,139.557,99.155
	L139.557,99.155z"/>
<path fill-rule="evenodd" clip-rule="evenodd" fill="#FFFFFF" d="M147.821,109.225c-0.209,0.468,0,1.017,0.469,1.226
	c9.424,4.216,11.684,6.295,12.191,7.159c2.057,2.998,2.871,9.264,2.451,18.679c-0.021,0.513,0.373,0.945,0.887,0.968
	c0.51,0.023,0.945-0.373,0.969-0.885c0.443-9.967-0.455-16.429-2.744-19.758c-1.082-1.845-5.344-4.433-12.998-7.856
	C148.579,108.548,148.03,108.757,147.821,109.225L147.821,109.225z"/>
<path fill-rule="evenodd" clip-rule="evenodd" fill="#FFFFFF" d="M162.239,115.487l-1.434,0.854
	c-0.439,0.262-0.584,0.831-0.322,1.271s0.83,0.586,1.271,0.322l1.434-0.852c0.439-0.264,0.584-0.833,0.322-1.273
	C163.249,115.371,162.678,115.226,162.239,115.487L162.239,115.487z"/>
<path fill-rule="evenodd" clip-rule="evenodd" fill="#FFFFFF" d="M126.988,179.984l-1.29,1.141
	c-0.384,0.336-0.421,0.922-0.083,1.309c0.341,0.383,0.926,0.422,1.31,0.082l1.292-1.137c0.383-0.34,0.419-0.926,0.08-1.309
	C127.957,179.684,127.372,179.648,126.988,179.984L126.988,179.984z"/>
<path fill-rule="evenodd" clip-rule="evenodd" fill="#FFFFFF" d="M144.76,176.894c-0.127,0.497,0.168,1.005,0.664,1.13l2.723,0.711
	c0.496,0.133,1.002-0.168,1.133-0.66c0.127-0.496-0.168-1.004-0.666-1.132l-2.721-0.712
	C145.399,176.101,144.891,176.397,144.76,176.894L144.76,176.894z"/>
<path fill-rule="evenodd" clip-rule="evenodd" fill="#003D87" d="M64.827,294.551v-17.344c-6.017-5.262-14.904-7.961-26.655-7.961
	c-9.458,0-17.341,2.699-23.79,7.961c-7.31,5.969-10.893,14.074-10.893,24.449c0,9.242,2.724,16.777,8.456,22.887
	c6.163,6.543,14.762,9.809,25.797,9.809c14.046,0,23.935-4.688,29.81-13.93v-19.188h-28.09v7.105h7.74v10.094
	c-1.864,1.563-4.588,2.273-8.027,2.273c-5.303,0-9.459-1.848-12.038-5.547c-2.293-2.984-3.297-6.965-3.297-11.938
	c0-5.262,1.29-9.383,4.013-12.652c3.297-3.699,8.171-5.543,14.905-5.543C51.643,285.027,58.952,288.152,64.827,294.551
	L64.827,294.551z"/>
<path fill-rule="evenodd" clip-rule="evenodd" fill="#003D87" d="M132.044,303.082c0-7.535-2.151-13.363-6.594-17.488
	c-4.587-4.406-11.464-6.539-20.637-6.539c-21.498,0-32.39,9.238-32.39,27.863c0,18.195,10.892,27.293,32.818,27.293
	c4.443,0,8.744-0.711,13.042-1.988c4.3-1.422,7.739-3.129,9.89-5.402v-12.227c-4.3,4.832-10.893,7.391-19.348,7.391
	c-4.587,0-8.313-0.852-11.322-2.559s-4.872-4.121-5.731-7.25h39.554C131.757,309.332,132.044,306.207,132.044,303.082
	L132.044,303.082z M104.383,292.703c3.727,0,6.593,0.711,9.029,1.848c2.436,1.422,3.869,3.41,4.156,5.828h-25.51
	c0.43-2.133,1.719-3.98,4.155-5.543C98.508,293.414,101.231,292.703,104.383,292.703L104.383,292.703z"/>
<path fill-rule="evenodd" clip-rule="evenodd" fill="#003D87" d="M168.875,294.836c5.016,0,7.453,2.559,7.453,7.676v30.137h21.639
	v-37.387c0-10.805-6.162-16.207-18.486-16.207c-10.031,0-17.055,4.266-20.924,12.793h-0.287v-11.23h-20.207v52.031h21.641v-27.012
	C159.704,298.391,162.711,294.836,168.875,294.836L168.875,294.836z"/>
<polygon fill-rule="evenodd" clip-rule="evenodd" fill="#003D87" points="266.475,280.617 241.538,280.617 227.491,300.094 
	227.348,300.094 227.348,267.965 205.708,267.965 205.708,332.648 227.348,332.648 227.348,312.605 227.491,312.605 
	240.965,332.648 266.618,332.648 243.543,306.492 266.475,280.617 "/>
<polygon fill-rule="evenodd" clip-rule="evenodd" fill="#FFFFFF" points="22.559,248.273 26.893,243.234 31.309,243.234 
	25.858,249.023 31.819,255.469 27.188,255.469 22.559,250.168 22.559,255.469 19.003,255.469 19.003,243.234 22.559,243.234 
	22.559,248.273 "/>
<path fill-rule="evenodd" clip-rule="evenodd" fill="#FFFFFF" d="M57.094,246.875v0.113c0,0.074-0.033,0.113-0.097,0.113
	c-0.031,0-0.085-0.027-0.161-0.082c-0.286-0.203-0.61-0.375-0.973-0.52c-0.613-0.23-1.211-0.348-1.795-0.348
	c-1.06,0-1.957,0.328-2.696,0.984c-0.721,0.648-1.08,1.43-1.08,2.352c0,0.84,0.317,1.547,0.956,2.113
	c0.725,0.66,1.666,0.988,2.82,0.988c0.799,0,1.51-0.16,2.134-0.48c0.341-0.172,0.566-0.32,0.68-0.453
	c0.041-0.051,0.083-0.074,0.124-0.074c0.071,0,0.108,0.102,0.108,0.305v3.027c0,0.133-0.052,0.23-0.152,0.297
	c-0.192,0.125-0.655,0.262-1.395,0.406c-0.584,0.121-1.148,0.18-1.69,0.18c-1.244,0-2.441-0.281-3.593-0.84
	c-1.192-0.586-2.104-1.352-2.736-2.301c-0.631-0.941-0.947-2.004-0.947-3.188c0-1.82,0.707-3.359,2.119-4.617
	c0.721-0.648,1.56-1.137,2.521-1.457c0.834-0.285,1.688-0.43,2.565-0.43c0.576,0,1.188,0.059,1.831,0.18
	c0.424,0.086,0.757,0.18,1.002,0.281l0.196,0.086c0.173,0.066,0.259,0.176,0.259,0.336V246.875L57.094,246.875z"/>
<path fill-rule="evenodd" clip-rule="evenodd" fill="#FFFFFF" d="M41.547,250.344l3.7,4.988h-4.774l-3.13-4.688v4.688H33.11v-12.18
	h6.586c1.773,0,3.109,0.355,4.01,1.066c0.434,0.344,0.772,0.758,1.022,1.238c0.247,0.473,0.371,0.957,0.371,1.457
	c0,0.633-0.191,1.238-0.574,1.813c-0.347,0.516-0.825,0.906-1.436,1.184C42.714,250.074,42.201,250.219,41.547,250.344
	L41.547,250.344z M37.343,247.969h0.788c0.678,0,1.239-0.07,1.684-0.211c0.608-0.199,0.912-0.496,0.912-0.887
	c0-0.242-0.131-0.465-0.392-0.672c-0.396-0.316-1.13-0.477-2.204-0.477h-0.788V247.969L37.343,247.969z"/>
</svg>
