<svg xmlns="http://www.w3.org/2000/svg" xml:space="preserve" overflow="visible" height="269.375"  width="252.935" viewBox="0 0 505.867 538.746" version="1.1" enable-background="new 0 0 505.867 538.746">
<title>KSC Lokeren</title>
<path d="M253.06,333.26c-44.418,0-80.556-36.957-80.556-82.381,0-24.569,12.211-48.053,33.501-64.429,12.571-9.669,36.138-17.955,46.615-17.955l0.405,0.005c31.799,0.775,55.229,12.021,69.641,33.428,10.707,15.905,15.501,31.488,15.082,49.04-0.519,21.863-9.771,42.533-26.053,58.199-16.14,15.53-36.97,24.09-58.63,24.09" fill="#FFF"/>
<path d="M131.62,73.597s-1.172,1.066-13.854-2.558c-0.426,0.107-1.812-0.386-3.303,1.353-1.492,1.738-5.649,5.788-6.501,6.641-0.959,0.426-2.026,0.639-2.985,1.705-0.959,1.065-1.492,1.385-1.492,1.385s-1.172,0.533,0,0.959c1.173,0.426,17.052,6.714,29.948,0.746,12.894-5.967,23.232-13.427,25.896-17.797s3.41-5.435,4.476-16.305c0.32-1.173,0.213-3.731,4.263-3.091,4.05,0.639,21.101,4.263,36.554,12.788,0.852,0.64,2.132,0.853,3.943,0.427,1.812-0.427,4.689-0.32,1.705-1.812,0.959-1.705,5.649-7.78,5.649-7.78l1.172,0.533s0.852,0.213,1.598-0.746,0.534-1.492-0.746-2.238c-1.278-0.746-18.223-11.829-55.844-23.445-0.638-0.107-2.024-0.64-5.221,0.532-3.197,1.173-14.493,6.288-15.773,7.14-1.279,0.853-4.475,3.411-2.878,11.191,0.73,3.836,3.93,18.543-6.62,30.372"/>
<path d="M148.78,34.805s-1.918,1.173,0,1.813c1.919,0.638,44.258,11.458,62.04,21.714l5.759-7.774s-31.031-17.565-57.142-20.335c-1.065,0-3.41-0.533-5.221,0.853-1.82,1.385-5.44,3.729-5.44,3.729" fill="#F0D800"/>
<path d="M145.05,45.996s1.278,10.764-4.902,22.807c-0.321,0.959-2.026,3.836,1.065,2.877s12.575-4.157,15.773-20.462c0.426-1.599,2.025-5.755-2.025-6.287-4.05-0.534-7.673-1.173-7.673-1.173s-2.35-0.643-2.24,2.238" fill="#F0D800"/>
<path d="M119.9,75.835s-2.451-0.213-3.943,1.599c-1.492,1.811-1.918,2.238-1.918,2.238s-1.705,1.386,0.746,2.131c2.451,0.746,10.763,3.19,18.223-2.988,0.959-0.635,1.386-1.594-0.746-1.488-2.13,0.108-10.44-0.319-12.36-1.492" fill="#F0D800"/>
<path d="M227.04,52.896s42.015-3.049,59.974,0v-4.743s-0.277-4.403,4.744-6.439c5.764-2.336,17.957-8.809,16.264-23.04-0.34-3.049-3.389-17.958-16.941-15.248-2.373,0.678-6.777,3.073-8.811-0.327-0.678-1.028-7.793-6.427-16.604,0-1.354,1.005-7.453,5.595-15.246,0.327-2.711-1.016-7.115-5.759-15.587,1.017-1.355,1.016-1.225,3.977-10.526,0.31-3.309-1.162-14.208,0.029-17.597,6.466-3.388,6.439-3.049,17.62,7.116,25.413,6.776,5.082,9.487,7.065,9.487,7.065s3.06,1.745,3.74,9.199"/>
<path d="M222.97,10.121s1.252-1.432,2.952-0.627l1.699,0.806s1.521,0.178,0,2.682c-1.52,2.505-5.545,13.238,7.066,24.776l1.789,1.699v3.22s-5.009,1.61-7.603-0.448c-2.6-2.057-21.65-18.514-5.91-32.108" fill="#F0D800"/>
<path d="M239.87,11.999l7.603,3.22s2.325,0.626,3.13-1.611c0.805-1.34,1.432-2.146,1.432-2.146s1.52-1.521-0.447-2.594c-1.969-1.073-6.887-4.024-10.285-1.252-0.62,0.447-1.7,1.789-1.43,4.383" fill="#F0D800"/>
<path d="M244.97,16.828s3.041,0.18,2.683,4.74c0.178,0.895,1.432,7.603,3.041,9.66,0.625,0.715,1.656,3.578,1.902,5.277,0.244,1.7,0.869,3.131,0.869,3.131s0.586,3.041-0.869,3.041h-5.123s-8.765-4.562-9.57-15.653c0-1.342-0.53-10.822,7.07-10.196" fill="#F0D800"/>
<path d="M260.8,39.635s-1.967,2.683,1.432,2.683h5.188s1.521-0.089,2.414-1.341c0.896-1.253,6.709-8.14,7.066-21.109,0.357-0.894,0.984-2.772-0.625-3.577-1.609-0.804-10.732-2.772-10.287,6.977-0.088,0.804-2.834,7.928-3.398,8.943-0.336,1.527-0.805,2.326-0.625,4.026-0.09,0.805-0.84,2.849-1.16,3.398" fill="#F0D800"/>
<path d="M277.32,40.708s-2.125,1.915,0.648,2.567c2.236,0.384,2.684,0.384,2.684,0.384s1.877,0.269,2.594-0.983c0.715-0.716,4.113-3.489,5.633-4.74,1.521-1.252,11.896-9.928,10.465-23.523-0.088-1.253-2.234-6.573-8.764-5.165-1.521,0.335-2.863,2.303-1.969,4.897,0.18,0.625,1.432,10.106-6.529,20.75-0.89,1.341-4.76,5.813-4.76,5.813" fill="#F0D800"/>
<path d="M264.74,9.013s-1.877,2.091-1.162,3.433c0.715,1.34,0.984,2.235,3.131,1.34,2.146-0.893,5.992-2.416,7.424-2.907,1.43-0.491,4.918-2.459,1.609-4.874-0.81-0.536-3.4-3.107-11,3.008" fill="#F0D800"/>
<path d="M314.26,56.792s1.477,0.739,3.139,0c1.662-0.738,13.389-5.725,29.732-11.356,1.293-0.278,4.523-2.217,4.895,2.307,0.369,4.525,1.938,13.389,3.875,16.713,1.939,3.324,10.711,13.758,21.33,17.544s20.498,5.725,29.086,1.569c0.924-0.369,1.662-0.553,0.646-1.662-1.015-1.107-4.432-6.002-7.848-8.402-0.646-0.647-2.311-1.293-4.434-0.462s-10.064,2.77-14.404,1.939c-1.293-0.369-3.23-0.092-4.154-3.877-0.924-3.787-3.509-18.842-3.971-26.319,0-2.306-0.092-5.261-2.954-7.015s-13.759-7.756-16.714-8.679c-2.123-0.647-4.248-0.831-5.447-0.739-0.092-0.554-1.293-0.739-2.309-0.554-1.016,0.184-31.672,8.402-50.508,21.791-0.83,0.555-0.83,3.047,1.201,2.031,2.031-1.2,2.955-2.123,2.955-2.123l15.789,3.97-2.677,1.293s-1.94,0.554-0.187,1.108c1.74,0.554,2.94,0.923,2.94,0.923" fill="#0C080C"/>
<path d="M295.42,51.622s15.975-12.003,49.031-20.129c1.016-0.184,6.186-0.461,9.141,1.016s3.508,1.846,3.508,1.846,3.602,2.309-0.461,3.694c-4.063,1.385-37.756,12.205-46.023,17.182-6.33-1.485-12.24-2.87-15.2-3.609" fill="#F0D800"/>
<path d="M357.47,46.451s-0.092-3.693,3.232-3.97,3.785-0.462,3.785-0.462,2.494-0.092,2.4,3.416c0,1.109,0.371,15.79,4.711,26.224,0.646,1.108,1.199,2.309,0.646,2.678-0.555,0.369-1.479,0.093-2.678-0.554-1.202-0.646-6.188-1.57-9.973-9.419-1.84-4.432-2.57-15.851-2.12-17.913" fill="#F0D800"/>
<path d="M383.05,77.753c-0.545,0.728,1.477,2.123,3.602,3.047,2.123,0.923,10.711,1.385,12.557,0.461,0.832-0.461,2.309-0.923,0-2.862l-1.57-1.477s-1.291-1.662-4.709-0.831c-3.416,0.831-5.264,1.292-7.387,1.016-0.92-0.093-1.94-0.093-2.49,0.646" fill="#F0D800"/>
<path d="M111.37,117.48s2.975-1.423-1.165-2.976c-4.139-1.551-15.91-2.845-24.189,6.468-8.278,9.314-9.701,18.368-6.466,22.896,3.233,4.527,11.124,7.76,17.849,2.198,6.727-5.562,15.005-12.158,21.732-6.079,6.725,6.079,2.974,13.193,1.293,14.746-1.682,1.552-7.348,6.193-17.457,0l-1.04-0.905s-1.164-1.164-2.716,0.258c-1.553,1.423-4.786,5.044-4.786,5.044s-1.164,1.294,1.035,2.2c2.198,0.905,11.167,4.009,18.001,1.681s13.948-5.562,16.665-12.418c2.716-6.855,0-15.134-3.881-18.238s-10.478-2.069-15.522-0.518c-5.045,1.553-10.348,4.93-12.806,6.798-1.811,0.834-7.761,3.421-10.735-2.011-1.423-2.975-1.682-7.244,2.069-10.866s8.537-3.492,10.865-2.974c2.328,0.516,2.851,0.646,2.851,0.646s1.288,0.129,3.228-1.553c1.94-1.7,5.18-4.41,5.18-4.41"/>
<path d="M146.03,127.18c-1.553-2.587,0.517-4.269,0.517-4.269s1.681-1.552,4.527-4.139c9.055-9.571,7.373-19.79,6.209-21.989-5.82-11.901-17.979-8.925-19.791-8.538-12.806,3.234-24.705,15.393-24.705,15.393-1.115,1.079-2.199,2.069-1.553,2.717,0.647,0.646,1.553,0.388,1.553,0.388s3.751-0.259,4.527-0.259c0.776,0,1.811,0.388,2.07,0.776,7.114,8.02,23.024,31.303,24.447,34.149,1.423,2.845,2.716,0.646,2.716,0.646s1.552-1.034,4.009-2.716c2.458-1.681,0.518-3.751,0.518-3.751s-3.52-5.84-5.07-8.42m-3.62-7.38c-1.164,0.13-2.587-1.294-2.587-1.294s-7.503-12.288-7.891-13.193c-0.388-0.906-3.751-4.786-3.622-6.209,0,0,3.494-5.044,8.409-4.528,4.915,0.518,8.666,3.364,10.736,6.727,2.069,3.363-0.13,10.606-1.035,13.193-0.9,2.59-2.84,5.17-4.01,5.3"/>
<path d="M183.73,67.338c-4.022,1.398-18.532,7.412-18.532,25.946,0,13.041,15.937,28.214,30.749,24.297,5.057-1.337,24.435-4.174,26.357-26.357,0.96-11.854-11.09-33.438-38.58-23.885m24.99,37.472c-1.235,1.511-6.864,5.766-7.962,6.178s-3.844,0.412-5.217,0.549c-8.785,0.274-17.296-9.61-18.943-14.415-5.079-14.961,7.001-24.16,7.001-24.16,12.492-5.49,22.376,3.982,23.474,5.629,1.098,1.646,3.157,5.354,4.392,7.791,2.47,9.166-1.51,16.915-2.74,18.425"/>
<path d="M271.86,103.99c-2.334-1.784-5.904-4.667-5.904-4.667s-3.293-3.707-4.117-6.04c-0.551-1.373-3.57-4.943-3.57-4.943s-1.234-1.027-0.549-1.955c0.686-0.927,3.568-2.438,3.568-2.438s6.59-4.943,6.178-12.492c-0.686-2.746-0.686-3.376-3.844-6.493-2.332-2.567-5.902-4.763-8.236-5.45-1.922-0.549-14.55-0.823-19.768,0.549-2.058,0.549-9.502,0.824-13.261,1.922-0.741,0.274-1.427,0.274-1.427,0.824,0,0.549,4.256,2.471,4.804,3.02,0.55,0.548,1.84,1.542,2.197,3.981,0,0,2.334,15.649,2.334,18.669s0.412,7.275,0,9.335c-0.412,2.059-0.412,3.843-0.412,6.039,0,2.197,0.366,5.766,0.595,6.452,0.64,0.138,1.739-0.274,3.112-0.549,1.372-0.274,5.353-1.097,5.353-1.097s1.784,0.411,1.372-2.883c-0.411-3.295-1.372-13.179-1.372-13.179s-0.824-4.392,3.844-4.118c1.51,0.137,4.529,1.099,7.824,4.53,3.295,3.432,8.238,9.609,10.846,11.668,2.607,2.06,4.666,3.157,5.902,3.432,1.236,0.274,2.334,0.412,4.531-1.51,0.84-0.4,2.35-0.81,0.02-2.6m-22.38-23.885c-2.608,2.334-9.747,3.844-10.982,2.883s-0.823-2.745-1.372-7.413c-0.412-5.628-0.821-10.064,0.765-10.611,13.669-4.709,17.354,3.199,17.903,5.669,0.82,4.531-3.57,7.688-6.32,9.472"/>
<path d="M269.9,65.746l2.678,3.061s1.059,2.04,3.973,0c1.766-0.893,5.465-2.791,9.289-1.078,1.021,0.568,1.785,0.823,1.402,4.52-0.381,3.698-4.336,23.846-7.905,34.047-0.638,2.168-1.913,3.866,0.638,4.037s5.811-0.211,7.369-0.594c1.174-0.255,1.43-0.638,2.195-2.423,0.764-1.785,5.609-17.426,7.904-32.814,0.256-1.233,0.51-4.293,3.572-3.782,3.059,0.509,9.053-0.383,10.965-1.149,0.893-0.255,1.149-1.019,0.893-2.295l-0.13-1.29s0.256-2.295-1.531-1.657c-1.656,0.382-8.033,0.127-11.094-0.766s-11.857-3.953-17.215-3.953c-5.354,0-10.328,1.658-11.985,3.06-1.66,1.404-1.81,2.16-1.02,3.062"/>
<path d="M317.46,66.893s12.24,5.229,12.879,5.738c0.637,0.51,0.51,1.226,0,3.227-0.512,2.002-10.713,29.545-15.559,35.538-0.637,0.893-1.146,3.06-5.992,3.57-4.846,0.511-8.416-0.764-8.672-1.402-0.127-0.51,2.17-2.168,3.316-4.208,1.148-2.04,4.59-7.014,14.92-35.577,0.51-0.893,0.764-1.657,0.127-3.316-0.65-1.661-1.41-2.681-1.03-3.574"/>
<path d="M320.65,119.94s13.645-17.854,19.637-34.94c0.256-1.02,1.02-6.63,0.893-7.65-0.383-0.765-1.146-0.815-0.893-1.492,0.256-0.676,2.041-0.294,4.846,1.236,2.805,1.531,5.443,2.806,5.443,2.806s1.953,1.181,2.207,4.799c0.383,3.617,5.078,30.905,5.791,32.69s1.35,5.866,4.666-0.51c3.314-6.376,8.16-16.322,8.672-17.852,0.51-1.529,1.504-6.758,0.561-9.053-0.561-1.786-1.072-2.933-0.561-3.188,0.51-0.255,7.65,4.463,11.604,6.758,1.529,0.765,2.168,1.275,1.146,3.826-1.02,2.549-14.664,26.012-18.361,31.368-1.021,1.785-2.041,4.081-1.912,5.994,0.127,1.912,0.52,6.12,0.52,6.12s-1.795-0.51-3.709-1.53c-1.912-1.02-8.543-4.718-9.053-5.865-0.127-1.021-0.766-19.638-2.168-26.014-1.275-5.738-2.168-10.456-2.168-10.456s-0.766-3.825-2.295-0.893c-1.531,2.933-7.779,15.302-7.779,15.302s-0.637,2.531-0.764,3.689c-0.129,1.157-3.443,5.365-4.08,6.002-1.28,0.25-11.49,0.51-12.25-1.15"/>
<path d="M418.84,134.22s-1.404,1.658,0.764,2.934c2.168,1.274,5.102,2.295,5.102,2.295s2.549,1.657,3.57-1.276c1.02-2.932,4.59-9.691-4.209-18.489-3.188-3.189-12.496-10.202-22.314-9.946-1.658,0.254-13.389,2.785-17.725,5.345s-11.605,11.996-9.691,22.707c1.912,10.712,10.711,17.598,17.979,20.785,0.383,1.276,1.021,1.531,1.404,2.423,0.383,0.893-2.934,2.806-3.826,3.316-0.893,0.51-1.02,1.657,0.383,2.423,1.402,0.765,4.965,4.972,11.664,0,6.697-4.973,14.732-11.222,16.518-13.262,1.146-1.02,2.039-1.912-0.129-3.697-2.168-1.787-6.248-6.121-6.248-6.121s-1.529-1.659-2.549-0.893c-1.021,0.765-1.148,2.04-0.766,3.315,0.383,1.276-0.383,4.591-2.297,5.994-1.912,1.402-3.824,3.442-3.824,3.442s-1.785,1.658-4.336,0.766c-2.551-0.893-10.457-1.531-13.898-14.155-0.256-1.657,0.383-10.711,8.67-19.127,1.275-1.02,6.504-7.396,17.471-5.356,1.785,0.383,9.436,3.06,10.201,6.759,0.79,3.73-1.88,9.85-1.88,9.85"/>
<path d="M106.13,170.96c-1.844,0.095-2.648,0.283-3.451,0.189-0.804-0.094-3.263-0.142-6.004-1.324-2.742-1.182-3.877-1.607-5.343-2.554-0.378-0.236-0.709-0.378-0.993-0.283-0.283,0.095-0.756,0.237-1.04,2.08-0.283,1.844-2.175,9.503-3.357,17.778-0.331,2.552-0.803,5.058-1.796,5.058-0.994,0-1.513-1.229-2.317-3.593s-1.844-5.011-2.08-6.051c-0.143-0.757-0.284-1.939-1.514-0.095-1.229,1.844-6.666,7.801-10.117,9.739-1.088,0.662-3.262,1.23-1.56-2.742s6.714-13.569,7.328-14.656c0.379-0.709,1.466-1.749-2.317-1.088-1.134,0.048-5.767-0.095-8.416-1.371-0.567-0.283-1.559-1.087,0.473-2.222,0.71-0.331,6.95-2.411,7.754-2.884,0.804-0.189,3.877-1.088,9.551-7.47,0.897-1.04,2.363-3.925-0.143-4.586-1.701-0.379-7.801-2.506-9.172-3.546-0.898-0.804-1.466-1.987-2.221-4.02-0.757-2.032-0.957-5.007-4.853-4.087-2.423,0.573-3.218,1.788-2.86,3.039,0.357,1.251,2.503,6.257,2.503,8.939s-2.503,4.469-3.576,5.721c-1.072,1.251-8.223,6.078-9.295,7.507-1.073,1.43-2.682,3.933-2.861,5.006s0,3.933,2.503,6.078c2.503,1.787,7.866,1.966,8.224,5.005,0.357,3.039-2.861,4.29-4.649,5.006-1.787,0.715-5.363,2.503-7.15-3.396-1.788-5.9-5.363-17.162-1.431-27.709,0,0,1.223-3.686,2.31-3.686,1.088,0,4.444,1.371,4.444,1.371s0.614,0.521,1.418,0.378c0.804-0.141,2.27-1.844,2.27-1.844s0.851-0.472-0.331-1.512c-1.182-1.04-5.485-3.736-5.485-3.736s-0.85-0.614-2.316,0.095c-1.466,0.709-8.227,4.729-9.786,5.91-1.561,1.182-3.972,3.404-5.06,4.066-1.087,0.662-4.727,3.499-5.105,4.35-0.379,0.851-0.095,12.765,0.803,18.297,0.899,5.531,2.506,10.165,3.215,11.819,0.709,1.656,1.324,2.743,1.277,3.641s-1.513,2.458-2.127,3.168c-0.616,0.709-5.722,6.524-5.722,6.524s-1.04,1.372-0.945,2.553c0.094,1.182,1.276,2.601,1.891,3.31,0.614,0.709,2.222,2.506,2.032,3.593-0.188,1.087-1.276,3.215-3.12,4.633-1.843,1.419-8.178,4.255-8.178,4.255s-4.02,2.033-4.351,4.067c-0.33,2.033,0.615,4.444,1.797,5.579,1.182,1.134,5.295,1.89,5.295,1.89s5.106,0.757,5.39,3.83c0.284,3.074-4.019,5.816-4.492,6.241-0.472,0.425-4.396,2.6-7.328,5.296-0.804,0.709-4.774,3.734-5.295,4.585-0.52,0.851-2.978,4.114-2.411,7.234,0.567,3.121,1.702,5.626,3.924,6.384,2.223,0.756,4.018-0.285,5.059-0.379,1.041-0.095,3.971-0.473,6.146,1.985,2.175,2.459,1.371,6.101,1.04,7.28-0.331,1.183-3.167,8.416-3.498,10.923-0.331,2.506-1.75,9.124,3.687,13.19,2.27,1.892,6.383,2.033,10.874-2.695,2.696-2.789,3.594-3.688,4.492-10.258,0.094-0.711-0.709-1.467-0.756-2.744-0.048-1.276,0-5.39,0-5.39s1.088-4.396,3.546-5.2c2.459-0.804,6.241,1.418,6.241,1.418s2.931,1.703,4.586,1.088c1.654-0.614,5.767-3.404,5.767-9.457,0-6.05-3.261-10.92-3.261-10.92l-4.114-8.793s-1.844-4.445,0.52-6.998,5.627-0.567,6.572,0.047c0.946,0.615,3.168,2.365,4.586,2.27s4.539-1.466,5.059-1.419c0.52,0.048,1.797,0.71,3.877,3.168,2.08,2.459,13.238,16.027,15.697,25.39,0.473,1.938,1.891,4.68-1.229,5.957-3.121,1.276-9.173,2.836-18.109-0.899-0.519-0.33-1.844-0.851-2.789,0.379-0.945,1.229-9.408,10.022-10.117,10.59-0.71,0.568-1.466,1.088,1.323,2.743,2.79,1.654,11.017,5.391,13.002,6.052,0.709,0.236,6.571,1.845,13.097-2.411,1.654-1.041,6.807-6.242,10.164-13.381,0.993-1.654,5.059-7.517,5.059-7.517s4.067-4.397,3.924-12.955c0.047-0.898-1.56-8.982-5.767-16.074-4.208-7.092-8.701-14.184-15.698-21.653-0.567-0.663-1.701-1.609-0.141-3.263,1.56-1.655,5.957-6.525,6.808-7.99,0.52-0.851,0.662-1.702-0.993-2.364-1.654-0.662-8.273-4.019-8.273-4.019s-0.946-0.945-2.364,0.379c-1.418,1.323-4.681,4.302-4.681,4.302s-1.088,1.182-2.175,0.047c-1.087-1.134-2.08-2.459-2.08-2.459s-0.662-1.607,1.466-3.025c2.127-1.419,2.884-1.986,3.593-2.175s1.75-0.615,1.655-2.459c0.236-0.662,2.599-5.058,3.593-6.24,0.378-0.426,1.749-1.372,2.459,0.094,0.709,1.466,2.552,6.336,8.037,6.194,5.484-0.143,7.754-4.634,7.942-8.936,0.095-1.655-0.473-7.423-0.331-8.369,0.143-0.945,0.804-2.364,0.946-3.026,0.142-0.661-0.142-2.032,0.804-2.789,0.945-0.756,2.316-0.614,3.877-0.047,1.56,0.567,3.262,0.662,4.255,0.52s5.248-1.418,5.343-3.924c0.1-2.52-0.7-3.66-2.55-3.56m-50.587,64.28s-3.307-0.827-5.993-1.859c-2.686-1.034-3.306-0.104-4.029,1.239-5.889,11.882,0.103,24.693,1.136,27.173,1.654,2.273,0.826,3.616-1.033,3.512-1.859-0.102-4.649-1.239-5.889-1.652-1.24-0.414-1.549,0-1.756,0.413s-2.376,6.199-5.166,11.363c-2.79,5.166-3.823,0.312-3.823-0.309s0.826-9.712,1.136-11.985c0.311-2.273,0.311-2.79-0.103-2.79-0.93,0.31-3.617,0.621-7.335,1.034-3.72,0.413-2.791-1.654-1.344-2.893,2.479-1.757,6.096-4.96,10.228-10.849,4.133-5.889,6.82-13.535,7.336-16.118,0.517-2.583-0.309-2.686-1.136-2.686-2.893-0.413-4.339,0-7.956,0.207-3.616,0.207-2.892-1.447-1.446-2.79,3.822-2.893,13.121-7.335,15.291-7.335,0.93,0,2.583,1.343,3.306,2.17,0.93,1.55,7.749,9.299,10.228,12.191,2.481,2.91-1.652,1.98-1.652,1.98"/>
<path d="M40.297,160.06l-6.744,3.258s-1.743,0.304-1.819,5.911c-0.076,5.608-0.379,17.354,10.685,34.936,5.229,8.26,6.441,10.686,6.441,10.686s3.335,5.607,5.609,7.881c2.272,2.274,3.182,4.623,5.001,6.442s10.685,10.989,11.898,12.579c1.212,1.592,17.734,20.916,19.476,30.919,0.379,1.972,1.061,5.685,3.41,1.441,2.35-4.244,6.669-15.613-0.227-25.918-2.046-2.956-10.61-14.172-13.565-16.824-2.956-2.653-16.294-16.446-17.961-18.188-1.667-1.743-12.201-12.808-17.96-29.253-0.834-2.727-3.411-13.034-1.971-21.446,0.379-1.29-0.226-3.26-2.273-2.43" fill="#F0D800"/>
<path d="M65.002,283.74l-4.471,5.153s-1.819,2.197,0.303,2.88c2.122,0.682,6.897,1.44,6.897,1.44s3.94,0.908,8.866-1.365c4.926-2.273,6.745-4.016,8.108-5.836,0.455-0.681,1.213-2.5-2.197-2.197-3.41,0.304-10.837-0.075-13.868-0.758-1.137-0.36-3.032-0.21-3.638,0.7" fill="#F6E91A"/>
<path d="M10.875,295.02s0.741-0.741,1.483,0.668,1.038,2.373,1.038,2.373,0.668,1.929-0.816,3.783c-1.482,1.854-3.188,4.673-3.114,5.637,0.073,0.965,1.112,1.632,2.447,2.151s9.197,3.264,9.791,6.305c0.593,3.041-1.706,9.197-7.195,15.873-1.78,2.225-0.816,3.708,0.297,3.708,1.112,0,6.675-2.596,8.382-4.228,0.963-0.89,2.224-1.631,2.744,0.148,0.519,1.78,3.338,10.829,0,25.219-0.446,1.78-2.003,5.859,0.815,4.747,2.819-1.112,5.638-2.744,6.676-2.967s1.335,0.89,1.632,2.3c0.297,1.409,3.041,9.791,4.747,11.349,0.89,0.742,2.596,2.002,3.041-2.226s0.222-10.087,0.222-10.087-0.296-1.188,1.261-0.742c1.558,0.445,5.786,1.039,7.195,0.223,0.816-0.371,2.151-1.188-0.222-2.967-2.374-1.78-11.942-6.75-14.687-24.625-0.074-0.52,0.223-1.039,2.003-0.668,1.781,0.371,8.826,0.371,10.31-0.074,0.816-0.223,1.632-1.409-1.261-2.744-1.335-0.668-9.049-5.637-9.049-5.637s-4.154-2.522-5.786-8.679c-0.444-1.409-0.222-4.005,1.262-4.673,1.483-0.667,8.974-5.34,9.938-15.131,0.223-0.519,0.446-0.224,1.039,0.594,0.593,0.815,6.231,5.711,8.604,7.12,0.891,0.371,4.08,3.041,4.376,4.079,0.297,1.039-0.89,4.673-2.151,5.638-1.261,0.964-4.228,0.297-5.043,0.074-0.817-0.223-1.335-0.891-1.781-0.816-0.445,0.074-3.783,2.077-4.524,2.522-0.742,0.444-1.409,1.409,0,2.447,0.519,0.52,2.003,2.893,2.447,3.635,0.445,0.741,4.525,3.931,4.821,4.153,0.297,0.223,7.196,3.635,8.456,6.379,1.261,2.744,0.668,6.379-0.074,7.343-0.741,0.965-4.153,2.3-7.491,2.819-0.742,0.073-3.189,1.704-2.967,3.782,0.223,2.077,2.447,4.303,3.782,5.341,1.336,1.038,7.567,5.117,7.567,5.117s5.785,3.635,5.488,6.973-2.67,5.266-5.191,5.637c-2.523,0.371-5.193,0-7.418,0.52s-4.228,2.893-4.599,4.673,1.706,8.01,2.745,9.494c1.038,1.483,2.225,7.714,0.445,10.606-1.781,2.893-6.675,9.494-14.242,3.338-2.002-1.854-4.153-3.709-2.966-11.794,0.148-1.631,0.89-8.381-1.928-11.348-2.82-2.968-7.121-0.668-7.938,0-0.815,0.667-6.674,5.563-11.273,3.856-4.599-1.706-4.08-8.308-2.003-11.126s8.604-12.089,9.717-17.43c0.593-2.597,0.741-5.786-2.745-5.86-2.077-0.147-3.634,0-5.711,0.594-2.076,0.594-6.453,1.039-7.863-3.486-0.445-1.706-0.963-4.302,2.226-8.381,0.667-0.668,1.853-1.262,2.002-2.745,0.223-0.741,2.597-3.634,3.041-5.488,0.445-1.854,0.297-4.896-5.117-6.676-2.374-0.593-4.229-1.187-5.267-2.596s-2.077-3.041-2.077-3.041-1.112-3.782,0.297-5.785c1.41-1.96,5.711-7.16,10.162-9.16"/>
<path d="M505.54,306.06c-1.045-4.015-3.135-10.065-8.635-14.685-0.879-0.934-5.609-3.244-6.434-3.739-0.99-0.937-2.969-2.806-4.18-8.635-0.549-2.694-1.045-5.334,1.814-8.8,1.045-1.209,2.145-1.375,3.961-1.593,1.814-0.221,5.389-0.056,6.6-2.915,1.318-2.585,3.904-5.281-3.74-11.714-4.016-3.3-9.734-7.59-9.734-7.59s-5.006-5.39-0.659-8.909c1.759-1.156,4.948-1.65,4.948-1.65s4.236-0.165,5.115-2.86c0.881-2.694,2.42-7.424-2.805-9.679-2.035-1.54-7.811-5.005-7.811-5.005s-2.42-2.365-2.639-3.684c-0.221-1.32,0-4.4,0.824-6.544,0.551-2.53,1.539-6.05,0.605-11.275-0.055-0.714-0.33-1.155-1.705,1.485-1.375,2.639-12.76,17.489-17.6,22.658-0.494,0.55-1.813,1.1,2.971,3.355,1.871,1.044,4.234,2.805,4.73,4.509,0.439,0.715,1.1,1.321-0.441,2.64-1.539,1.32-3.189,3.3-5.883,3.905-0.77,0.055-2.42-0.33-2.146-2.86-0.055-1.815-1.539-6.764-1.703-7.314-0.166-0.55-0.275-1.32-1.432-0.055-1.154,1.264-14.188,15.619-15.838,17.709-0.715,1.045-0.221,2.035,1.484,2.364,1.705,0.33,5.336,0.551,7.205-0.385,1.539-0.604,5.391-0.604,4.51,3.191-0.881,3.794-4.398,8.633-6.764,11.768-2.365,3.135-4.564,10.778-0.715,15.179,3.85,4.398,7.588,3.245,11.328,2.035s4.949-1.21,4.949-1.21,4.07-0.771,3.576,3.465c-0.496,4.233-1.211,9.954-0.826,12.374,0.385,2.419,1.43,8.139,6.436,10.725,0.715,0.164,4.674,0.439,6.654-1.32,1.373-0.66,4.949-2.53,6.984-2.035,2.033,0.495,3.629,2.805,1.264,5.279s-5.664,5.335-7.809,8.194c-2.146,2.86-0.551,9.954-0.275,10.725,0.275,0.77,0.715,1.484-0.057,2.585-0.77,1.1-1.428,1.979-2.363,2.584s-3.246,2.97-3.52,9.185c-0.551,2.31-1.871,5.555-2.255,7.314-0.386,1.76-0.825,8.964-0.056,11.384,0.551,0.165,0.99,0.22,1.1,1.1,0.109,0.881,1.154,5.391-2.475,5.5-1.43,0.33-2.529-0.33-4.949,3.245-1.1,1.54-2.971,3.85-5.115-1.54-1.1-1.815-1.98-4.62-7.48-3.74-1.1,0.221-4.564,0.771-1.648-4.345,1.209-1.54,4.619-4.839,4.619-4.839s3.301-4.62,4.125-5.72c0.934-0.825,4.783-4.345,5.609-7.205,0.494-1.539,1.211-7.039-2.969-9.073-1.045-0.275-4.4-0.441-4.785-1.98,0.055-0.55,0.824-1.87,2.969-2.75,0,0,6.381-3.244,7.865-9.349,0.33-2.915,1.1-6.6-2.31-9.13-1.979-2.034-6.546-6.27-7.534-10.009-0.055-0.275-0.385-0.825-2.42,0.276-0.88,0.549-2.805,1.924-4.785-1.156-1.98-2.969-11.055-15.784-11.055-15.784s-0.605-1.154-3.135-0.274c-2.529,0.881-13.527,5.06-19.084-5.225-0.383-0.825-0.604-2.641,0.441-5.994,1.045-3.356,4.895-10.504,7.975-13.914,3.078-3.41,11.438-13.914,17.488-19.743,6.104-6.545,15.617-17.379,18.092-20.294,2.477-2.914,10.67-13.254,14.08-20.019,3.41-6.763,8.908-20.403,7.15-27.553-0.166-1.649-0.275-2.474-1.377-3.904-1.1-1.43-5.994-6.984-8.962-9.514-2.862-2.53-11.056-9.294-13.97-10.669-0.496-0.385-1.43-0.331-2.035,1.429-0.605,1.761-7.204,14.905-7.204,14.905s-0.495,1.155,0.769,2.254c1.266,1.1,6.271,5.83,8.029,6.874,0.441,0.496,5.281,7.536,5.281,7.536s0.604,1.044-0.111,2.584-4.289,8.799-10.723,15.673c-0.605,0.716-14.244,17.655-20.953,23.208-4.51,4.566-11.275,12.045-14.354,15.565-0.441,0.934-1.432,2.474-2.586,3.794s-9.184,13.584-11.164,20.404c-0.879,3.685-1.375,5.884-0.494,9.954,0.879,4.07,1.65,10.504,10.395,22.492,1.814,2.586,7.533,9.295,20.732,11,1.926,0.055,7.26-0.496,10.01-1.375,1.209-0.166,3.189,0.055,1.869,2.75-0.77,1.814-2.145,4.84-1.154,6.654,0.99,1.815,2.693,3.301,5.885,3.74,2.584,0.55,7.754,2.311,4.344,6.984-1.1,1.649-3.189,2.364-7.59,3.904-4.398,1.54-7.975,5.169-7.314,9.844,0.551,3.355,0.66,6.27,3.686,5.61,0.604,0.055,4.84,1.319,6.324,2.97,1.154,1.21,1.539,3.079-0.936,5.279-1.705,1.76-10.998,10.339-10.998,10.339s-4.4,5.06,1.484,9.13c3.74,2.584,8.139,3.794,8.744,4.234,0.605,0.439,3.686,1.76,1.1,6.544-1.648,3.575-5.225,10.888-3.738,15.069,1.484,4.18,3.738,7.645,10.449,9.02,0.715,0.164,5.059-0.056,8.523-5.61,0.496-0.824,2.971-2.31,4.51,1.76,1.045,2.805,0.66,7.369-0.715,9.733-1.1,1.981-5.389,2.75-7.424,0.276-0.605-0.495-1.541-0.936-3.961,0-1.154,0.22-5.004,0.22-6.818-0.33-0.715-0.165-1.705-0.11-1.926,1.595-0.219,1.705-2.145,11.273-1.43,16.443,0.055,0.989-1.43,4.895-4.234,2.09-0.77-0.824-3.244-2.365-4.068-9.13-0.221-0.77-1.156-0.989-3.521,0.881-1.76,1.484-5.664,3.134-5.885,3.134-0.219,0-4.068-0.385-2.309-4.454,1.1-1.815,3.354-4.455,3.354-4.455s2.146-1.65-0.77-2.64c-1.484-0.604-2.859-0.88-8.469-6.104-0.439-0.605-0.77-2.199,1.65-2.145,2.418,0.055,11.768,0,14.299-0.825,1.594-0.33,2.145-0.77,1.154-2.915,0-1.046-1.596-7.863,3.41-20.513,0.439-0.77,1.045-2.09-1.486-2.694-1.703-0.495-3.354-1.32-4.068-1.761-0.715-0.439-1.871-0.439-2.42,1.101-0.551,1.54-2.365,6.765-1.869,9.02,0.494,2.254,0.439,5.828-0.33,7.754-0.441,1.155-0.99,2.859-5.83,3.409-2.365,0.221-4.016-0.385-2.75-4.234,0.715-2.475,1.154-7.92,0.881-10.229-0.275-2.31-0.332-4.014-3.686-5.334-2.475-1.32-6.16-2.311-9.955-5.39-0.549-0.495-1.043-1.319,0.496-3.189s9.898-11.989,12.648-15.619c2.42-3.244,6.16-7.865,9.35-10.339,0.879-0.715,1.264-1.431-2.09-2.585,0.439-2.255,5.443-20.128,5.443-20.128l2.146-1.813s1.264-0.661,0.164-1.212c-0.99-0.55-1.65-0.935-4.949,1.046-3.301,1.979-11.879,7.754-21.01,15.288-9.074,7.535-10.395,10.339-11.439,11.878-1.045,1.541-2.529,4.456-3.353,6.051-0.827,1.595-2.257,4.179-2.257,4.179s-2.09,2.695-0.33,6.105c1.76,3.409,4.291,7.313,7.535,10.999,1.594,2.145,4.51,7.644,4.785,8.688,0.273,1.045,1.648,6.05-1.102,17.764-0.385,2.035-3.132,10.449-9.953,19.578-0.551,0.66-2.035,2.365-4.346,3.355-2.309,0.989-19.412,7.534-45.756,10.724s-47.406,6.38-53.291,7.37-23.264,5.609-25.629,6.104c-1.375,0.166-3.407,0.439-6.324,1.265-2.914,0.825-11.824,3.85-12.924,4.18-1.045,0.33-1.705,0.99-4.564-0.33-2.86-1.32-15.894-6.491-31.568-9.185-15.673-2.695-43.281-7.314-43.281-7.314s-22.493-3.244-31.237-5.39c-8.744-2.144-15.014-3.795-24.474-9.074-9.459-5.279-19.798-15.123-19.798-15.123s-2.09-1.595-2.585-6.489c-0.495-4.895-1.759-12.869,1.981-22.879,1.21-3.024,3.189-6.379,5.884-9.184,2.695-2.806,4.949-6.71,5.335-8.14,0.384-1.43,1.649-5.114-0.661-8.634-0.66-1.54-1.814-3.135-3.08-4.729-1.264-1.596-9.404-10.339-18.643-17.488-7.974-5.83-15.288-10.56-18.203-11.77-1.375-0.55-2.311-0.715-2.366,0.385-0.054,1.1,2.585,2.805,3.741,3.685l1.154,0.881-1.265,15.783s-0.384,1.265,1.1,2.365c1.485,1.1,15.619,12.208,24.969,29.146,0.659,1.21,1.099,2.476-0.606,4.29-0.495,1.1-0.66,1.155-0.825,1.814-0.165,0.66-1.1,1.65-2.254,2.146-1.155,0.496-3.795,1.979-3.795,1.979s-0.77,0.44-2.42,0.495c-1.65,0.055-2.75-0.055-3.135,1.32-0.384,1.374-1.759,4.51-1.1,13.474,0.166,0.88,0.386,4.015-2.529,4.124-2.915,0.11-8.085,0.056-9.35-5.279-0.109-0.495,0.056-2.64,2.805-6.324,2.145-2.805,3.685-4.62,3.355-6.765s-1.1-3.959-4.675-4.345c-0.99,0-5.115,0.441-6.764,1.101-1.21,0.274-1.595,0.88-0.77,3.135,0.825,2.254,3.135,9.844-1.375,20.953-0.66,1.54-1.32,2.694,0.495,2.914,1.815,0.221,5.005,0.936,5.94,1.32,0.934,0.275,4.399,0.66,5.939,0.439,1.595-0.109,3.52,0.55,1.925,1.925s-4.455,3.795-5.995,4.62c-0.935,0.659-0.879,1.65,0.33,3.3,1.21,1.649,2.641,5.004,9.899,9.789,5.005,3.465,14.629,3.08,14.629,3.08s3.63-0.166,1.375,2.09c-0.66,0.604-4.179,2.145-4.179,2.145s-4.125,1.925-5.17,2.199c-1.045,0.275-1.265,0.551-0.605,1.926s2.75,6.984,2.915,7.81c0.165,0.824-0.33,3.959-2.475,2.53-2.145-1.431-3.465-2.311-8.084-5.721-0.826-0.55-1.705,0.77-2.09,1.43s-2.146,3.575-2.475,3.905c-0.33,0.33-2.2,2.64-3.135-1.76-0.33-1.65-0.605-5.114-0.549-6.6,0.054-1.485,0.495-6.324-3.63-12.429-2.805-4.125-5.005-5.83-5.885-6.38s-1.154-0.495-1.484,1.045-2.201,5.83-2.97,6.93c-0.771,1.101-2.64,2.475-3.575-1.484-0.935-3.96-2.75-11.055-3.905-13.089-0.714-1.101-0.77-1.43-3.08-1.54-1.375-0.221-4.729-0.99-6.599-2.97-1.32-1.485-1.65-1.815-2.53-2.256-0.879-0.439-1.485-0.385-2.365,0.495s-2.75,2.86-3.245,3.136c-0.494,0.274-2.694,1.43-2.364-1.815,0.165-1.045,1.925-8.14,1.76-11.659,0.219-0.55,0.439-3.355,0.11-4.62-0.165-0.824,0.113-1.268-1.759-2.366,0,0-0.989-0.55-2.089,0.99-1.1,1.539-7.59,9.514-7.974,18.753-0.165,3.96,1.979,6.82,7.258,9.569,1.54,0.66,4.016,1.102,6.765-0.715,2.75-1.814,5.17-2.915,6.38-2.97s5.005-0.166,4.18,6.544c-0.826,6.709-1.815,11.219-1.76,12.648,0.055,1.431-0.221,8.635,7.259,8.965,2.475,0.055,6.104-2.2,8.25-5.996,0.604-0.823,3.134-2.474,5.389-0.658,0.33,0.22,1.539,1.209,0.88,12.374-0.385,3.244,0.55,11.823,6.049,12.318,4.455,0.495,8.029-3.189,8.909-4.51,0.881-1.319,2.641-2.529,4.62-2.529,1.98,0,3.355,0.22,5.829,3.465,0.33,0.33,1.101,0.109,2.091-0.936,0.989-1.045,7.589-8.029,7.589-8.029s0.99-1.045,0.55-3.189c-0.44-2.09,0.165-7.645,2.915-10.119,0.824-0.495,6.765-3.904,6.324-7.646-0.22-1.264-0.44-1.483-0.66-2.309s-0.494-4.29-5.444-5.06c-2.145-0.44-3.41-1.101-11.164,0.274-1.265,0.165-6.93,0.605-8.525-0.77s-5.72-3.739,1.375-8.029c1.1-0.385,6.105-1.319,8.964-3.409,0.88-0.385,2.255-0.44,4.125,1.375,1.87,1.814,8.305,10.009,26.288,17.323,6.985,12.924,7.369,16.663,10.339,18.589,2.97,1.925,10.999,5.114,20.568,5.994,7.975,0.99,32.888,5.609,38.938,6.874,6.049,1.265,25.243,5.114,27.772,5.885,0.88,0.44,2.75,1.76-0.549,3.574-2.201,1.431-11.55,7.975-12.43,8.47s-2.034,1.045,0.056,2.09c2.089,1.046,3.299,1.705,4.234,1.155,0.769,0.274,14.683,6.104,15.014,6.214,0.33,0.11,1.21,0.22,2.254-0.439,1.045-0.66,10.285-6.6,17.544-9.789,1.045-0.386,2.365-0.716,3.85,0.109s10.559,5.61,11.438,6.325c0.826,0.439,1.926,0.715,3.246,0.604,1.32-0.109,2.805-0.495,1.649-1.32,1.101-0.274,23.153-1.76,23.153-1.76s3.078,0.056,3.465-0.109c0.385-0.165-0.111-0.77-0.936-1.375s-12.373-9.569-14.85-10.999c-0.439-0.33-1.208-1.87,1.102-2.529,2.309-0.661,10.613-3.465,21.832-4.345,3.52-0.715,27.883-3.851,31.844-4.4,3.959-0.55,19.248-1.924,22.877-2.419s10.998-2.255,12.043-2.694c1.045-0.44,2.146-0.44,3.576-3.025,0.824-0.715,2.475-2.805-0.66-1.814,1.1-1.815,9.898-16.004,9.898-16.004s15.949-4.729,17.984-6.214c0.879-0.495,4.18-0.88,2.035,2.475-1.102,1.704-2.807,5.004-0.551,7.864,2.254,2.859,3.41,4.839,3.41,4.839s0.879,2.476,0.824,3.851,0.275,3.079,1.43,4.84c1.156,1.76,4.016,6.159,4.016,6.159s1.924,2.694,5.115,0.88c1.869-0.715,5.773-2.805,9.953,0.44,1.539,1.539,3.135,2.804,4.455,5.499,0.549,0.604,2.859,2.694,5.773,1.375,1.596-0.825,2.75-2.365,2.859-7.095,0.221-3.409,0.551-9.954,0.881-11.494,0.33-1.539,1.596-3.739,3.576-3.85,1.979-0.109,2.033,1.045,3.299,1.43,0.605,0.056,1.539-0.22,1.869-0.109,0.33,0.109,5.061,3.629,6.766,3.52,1.705-0.11,3.795-2.034,4.014-3.189,0.385-0.55,2.641-1.649,2.53-8.579,0.166-0.551,0.88-8.635,0.386-12.099,0.055-0.66,1.045-5.225,6.213-3.465,1.76,0.604,4.674,3.134,6.654,3.024s7.205-2.365,8.747-6.6c0.274-1.045,1.868-11.274-5.226-20.184-1.1-1.596-5.555-4.729-6.709-5.5-0.717-0.604-2.035-1.759-1.596-4.784,0.439-3.024,1.155-5.994,3.85-6.654,2.311-0.604,4.895,1.32,7.094,3.74,1.212,1.154,4.455,3.135,6.436,2.859,1.98-0.274,5.555-1.1,7.369-3.96,1.814-2.858,1.045-8.469,0.551-10.339-0.496-1.869-3.246-6.104-3.189-6.435,0.164-0.274,0.385-0.659-0.166-1.539-0.549-0.88-3.85-6.984-6.434-9.294-0.33-0.66-1.541-4.29,2.859-6.215,1.814-0.77,4.125-1.21,8.965,0.385,1.375,0.165,6.543,0,4.508-6.159-0.77-1.266-5.004-8.91-7.039-11.33-0.439-1.045-2.805-8.743,5.006-11.053,0.99-0.221,5.719-1.32,5.719-1.32s4.75,0.19,3.16-6.3m-24.9-45.07c-1.941,1.691-4.824,4.823-5.637,5.387-0.627,0.94-1.566,0.876-2.318,0.751-4.635-1.44-6.766-0.751-9.834-0.814-3.195-0.313-1.441-3.884-1.441-3.884,0.5-1.754,3.508-6.201,4.887-8.268,1.377-2.068,2.631-6.327,3.193-9.208,0.564-2.882,3.258-1.441,3.258-1.441s1.879,1.754,4.322,4.134c2.506,2.318,3.695,6.64,4.072,9.02,0.57,2.06,0.32,3.57-0.5,4.32m-49.8,168.69c-0.564,0.877-0.877,1.691-0.627,2.568s-0.125,2.693-0.939,3.508-0.439,1.629-0.125,2.317c0.313,0.689,0.063,3.759-0.502,6.14-0.564,2.38-2.693,1.754-3.445,0.939-0.939-0.689-2.881-4.761-3.695-6.39s-1.754-0.501-1.754-0.501-3.572,2.255-7.643,3.007c-4.072,0.752-2.256-2.381-2.256-2.381s2.568-4.071,3.133-5.073c0.563-1.003,1.252-2.193-0.25-2.631-1.504-0.438-3.57-0.877-6.076-2.569-2.506-1.691,0.563-2.818,1.439-2.818,10.838,0.313,17.289-4.447,17.289-4.447,1.441-0.94,2.693,0.188,2.693,0.188s1.504,1.566,3.196,2.882c1.76,1.24,0.14,4.37-0.43,5.25"/>
<path d="M458.16,155.39s-1.418,1.35,0.066,2.834c1.486,1.485,7.355,8.57,8.166,9.987,0.877,1.418,2.564,2.16,2.834-1.484s0.676-12.754-5.129-18.625c-0.607-1.012-2.293-1.012-2.631,0.338-0.34,1.34-2.56,6.27-3.31,6.95" fill="#F0D800"/>
<path d="M476.52,160.65s-3.441-1.484-3.24,1.417c0.203,2.902-1.551,16.062-5.195,22.472-0.404,1.417-1.957,5.601-8.975,13.766-0.406,0.675-9.381,11.472-11.676,13.294-1.35,1.417-2.158,2.43-2.158,2.43s-20.719,21.459-22,23.146c-1.283,1.687-13.969,20.11-15.049,24.901s0.607,10.865,4.725,13.699c1.822,1.147,3.172-0.54,2.631-3.44-0.135-2.565,1.215-8.37,3.105-11.069,1.889-2.699,7.895-10.46,7.895-10.46s1.012-1.686,2.023-2.564c1.014-0.877,5.535-5.87,6.547-7.085s11.473-13.43,11.473-13.43,9.516-11.539,10.459-12.552c0.945-1.011,12.891-17.072,17.682-27.802,4.453-9.785,5.871-13.565,6.342-20.38,0.21-1.69-0.06-3.18-4.58-6.35" fill="#F0D800"/>
<path d="M419.16,284.48s5.803,14.913,26.857,10.863c2.227-0.538,2.025-2.36,0.473-4.25-1.553-1.889-4.926-6.209-4.926-6.209s-0.945-1.957-4.59-0.81c-2.766,0.945-8.367,1.419-13.834-0.944-1.35-0.61-5.33-2.77-3.98,1.35" fill="#F0D800"/>
<path d="M433.52,338.13s-1.496-0.926-2.705,0.071c-1.211,0.996-3.844,2.705-8.258,8.399-4.414,5.695-13.525,16.017-14.309,17.155s-2.135,1.779-3.203,0-3.844-6.335-3.844-6.335-1.281-1.709,0.854-5.055c2.137-3.346,6.266-9.823,10.75-14.022,0.783-0.997,3.986-4.628,8.684-8.329,4.699-3.701,16.088-11.888,17.512-13.026-0.35,1.93-4.76,19.59-5.48,21.15" fill="#F0D800"/>
<path d="M412.67,378.92s2.705,7.119-0.641,15.376c-0.428,1.354-0.285,1.992,1.068,1.565,1.352-0.427,5.408-1.637,6.477-1.851,1.068-0.213,2.563-0.569,2.777-3.559,0.283-2.99,0.285-6.62,0.213-7.688-0.07-1.067,0-2.206-2.064-3.487s-5.908-2.99-5.908-2.99-2.86-1.42-1.93,2.64" fill="#F0D800"/>
<path d="M408.04,405.9s-2.635,9.324-4.484,10.606c-0.996,0.925-0.143,1.993,0.711,2.135,0.855,0.143,5.482,0.641,6.479,1.14,0.996,0.498,3.629,0.143,5.195-0.356,1.566-0.498,4.484-1.494,4.414-5.979-0.143-1.066-0.143-1.565-2.492-3.346-1.779-1.565-3.061-2.705-3.486-3.274-0.428-0.569-1.211-2.42-3.561-2.847-1.13-0.21-2.56-0.14-2.77,1.93" fill="#F0D800"/>
<path d="M378.85,426.37s-14.059,5.601-38.439,8.566c-24.381,2.965-45.576,5.381-49.201,6.04-3.623,0.659-21.471,4.559-22.295,4.997-0.549,0.274-2.471,0-3.184,0.385-0.715,0.384-9.17,3.404-10.434,4.282-1.264,0.88-0.77,1.813,0.494,2.526s7.908,4.449,8.566,4.668c0.658,0.22,1.152,0.109,1.537,0.22,0.385,0.109,1.1,0.769,1.758,0.823s2.416,0.055,3.24-0.329c0.822-0.385,3.295-0.714,3.898-0.769,0.604-0.056,23.832-5.217,36.133-6.37,7.633-1.098,30.422-4.667,36.078-5.271s14.826-1.702,17.736-2.252c2.91-0.549,4.173-1.482,4.173-1.482s10.69-15.39,9.92-16.04" fill="#F0D800"/>
<path d="M265.18,478.7l22.791-2.318s-4.285-3.557-5.822-4.601c-1.537-1.043-9.28-6.754-10.16-7.139-0.877-0.384-1.482-0.109-3.623-1.921-1.648-1.264-2.691-1.538-3.186-1.538s-1.043-0.494-1.482-0.659c-0.439-0.164-15.101-7.962-17.571-9.006-0.605-0.329-4.558-3.24-18.286-5.931-10.489-1.812-17.243-2.69-17.243-2.69s-2.417,0.33-4.887-1.153c-1.428-0.22-8.457-0.878-9.171-1.043s-25.095-4.118-27.072-4.777-2.142-0.769-2.581-0.714-1.263-0.165-2.086-0.439c-0.825-0.274-10.27-2.471-10.599-2.416-0.165,0.109-0.385,0.604-0.823,0.549-0.44-0.055-27.018-5.656-34.431-9.938,1.592,1.702,8.182,17.571,10.708,17.571,2.142,0.439,1.648,0.44,2.581,0.824,0.934,0.384,4.393,1.758,7.028,2.307,2.636,0.549,4.338,0.274,5.437,0.494s5.711,1.372,7.139,1.537c1.427,0.165,13.234,2.252,23.338,3.898,10.104,1.647,29.817,5.272,34.759,6.315,4.943,1.043,15.046,3.294,23.558,7.028,8.5,3.74,25.25,11.65,31.67,15.77" fill="#F0D800"/>
<path d="M230.97,465.46s-2.196-0.659-4.063,0.329c-1.868,0.988-16.32,9.642-17.083,10.642,0.444,0.615,12.196,5.612,13.733,5.723,0.385-0.604,0.824-1.482,3.075-3.13,2.252-1.648,10.653-7.084,12.026-7.798s2.142-2.032,0.165-2.855c-1.99-0.81-7.87-2.9-7.87-2.9" fill="#F0D800"/>
<path d="M95.532,360.28s2.1,4.11,3.586,1.398c1.486-2.711,3.323-6.472,3.323-6.472s2.187-3.323-1.837-7.695c-2.448-3.761-9.182-13.817-24.837-24.75-6.733-4.022-11.281-6.384-11.281-6.384s-1.574-0.875-1.137,0.874,2.798,14.343,2.798,16.004c0.088,0.875,0.7,1.399,1.05,0,0.35-0.699,0.612-0.874,1.486-0.175,0.875,0.7,8.309,4.985,18.628,16.092,4.99,6.47,6.826,9.1,8.225,11.11" fill="#F0D800"/>
<path d="M88.897,376.48l-5.921,2.687s-1.919,0.713-2.193,6.688c-0.274,5.976-0.328,8.168-0.328,8.168s-0.823,3.728,2.905,2.248c3.509-1.042,5.099-1.426,5.099-1.426s1.753-0.438,1.863-2.741c0.11-2.302,0.603-10.251,0.932-12.608s0.219-4.18-2.357-3.02" fill="#F0D800"/>
<path d="M104.59,193.97s-2.443-0.758-3.538,1.264c-0.758,1.516-8.928,12.045-8.928,12.045s-1.768,1.684-0.169,1.937c1.601,0.253,15.667,2.274,19.541-0.843,2.528-1.347,2.696-1.431,2.865-1.768,0.167-0.337,0.757-1.095,1.178-1.264,0.422-0.168,1.264-0.505,1.854-0.926,0.59-0.422,4.043-4.212,6.654-7.665,2.61-3.369,5.222-6.317,9.686-10.36,4.463-4.043,17.182-15.414,27.963-20.299,3.286-1.937,11.54-7.244,35.46-13.56,8.255-2.444,27.711-8.929,27.711-8.929s-0.337,0.927,0.674,0.59c1.011-0.337,21.984-7.581,31.417-14.404,1.602-1.178,3.201-1.515,5.139,0.337,1.938,1.854,7.328,5.56,10.107,7.075,2.779,1.517,12.297,6.655,25.016,10.361s24.258,7.243,35.881,11.876c11.625,4.633,13.898,5.306,27.375,12.97,10.613,6.571,16.172,9.94,29.564,24.258,4.379,4.97,13.307,12.55,17.688,13.309,4.381,0.758,12.971-0.927,13.645-1.348,0.674-0.422,1.434-0.337,0.086-1.684-1.35-1.348-2.191-2.612-2.191-2.612s-1.009-0.841-2.527-0.253c-0.758-0.673-6.654-8.169-6.654-8.169l1.012-0.59s1.096-0.252-0.422-1.516c-0.842-1.348-1.01-1.769-1.01-1.769s-0.842-1.095-2.105-0.505c-1.264,0.589-5.475,0.926-11.455-0.843-2.189-1.01-8.002-5.222-8.676-9.181-0.674-3.958-1.012-7.664-0.421-9.938,0.253-1.348,0.085-2.191-1.433-3.117-1.348-0.926-12.129-10.276-29.732-19.457-4.885-2.358-32.512-13.981-38.492-16.002-5.98-2.023-27.711-10.867-31.838-12.382-4.127-1.517-16.255-6.402-18.867-7.496-2.275-0.337-3.033,0-3.707,1.01-0.672,1.011-7.58,12.466-20.551,17.857-0.505-3.959-1.432-10.697-1.432-10.697s2.443-1.601,2.359-4.296l0.253-2.19s0.42-1.684-1.432,0.084c-0.843,0.674-14.488,8.339-18.615,9.518-2.864,1.263-20.889,6.654-20.889,6.654s-17.435,4.633-21.983,6.738c-2.275,0.758-12.129,3.453-16.93,5.222s-20.805,9.687-23.753,11.539c-2.947,1.854-6.822,3.622-11.539,10.866-4.296,6.654-4.464,12.466-4.633,15.161-0.168,2.696-0.674,6.149-4.801,10.192-3.706,3.369-7.075,3.285-9.011,3.285-1.97-0.02-5.42-0.11-5.42-0.11"/>
<path d="M457.42,171.99c-3.959-4.295-8.338-9.265-9.855-10.613-0.42-0.673-0.926-1.684-0.42-2.442,0.506-0.759,0.506-0.59,0.084-1.685-0.254-1.263-0.422-3.369,0-5.39,0.422-2.022,1.348-10.866-2.863-12.888-3.285-1.011-3.875-1.263-5.056,0.338-1.177,1.6-8.505,11.623-8.505,11.623s-1.348,1.432-0.084,2.695c1.262,1.264,5.979,7.243,13.98,11.96,4.381,2.696,7.076,4.549,7.328,4.886,0.254,0.337,1.77,1.516-0.084,2.105-1.854,0.59-2.443,1.433-9.686,0.169-1.18-0.169-2.021-0.505-1.18,0.842,0.842,1.348,4.465,8.086,4.549,11.287,0.168,2.106-0.17,3.033-2.695,1.6-2.527-1.432-8.086-5.728-9.266-7.075-0.928-1.011-1.686-0.842-2.105,0.422-0.422,1.262-2.863,4.547-3.791,5.474-0.926,0.927-1.854,0.59-1.6-2.021,0.252-2.612,1.854-11.202-1.6-17.267-2.191-4.38-3.033-5.139-4.465-4.043,0,0-11.287,8.591-14.32,10.192-1.094,0.757-1.432,2.189,0.506,3.032,1.938,0.842,3.623,1.852,10.529,1.011,1.264-0.421,2.611-1.011,1.348,2.358s-3.537,8.507-3.537,8.507-1.264,1.853,0.674,3.201c1.936,1.348,6.568,4.969,11.285,5.222,1.096-0.168,2.021,0.168,1.18,3.032-0.842,2.864-3.031,12.213-1.684,16.34,0.674,1.937,1.768,2.021,3.957,0.085,2.191-1.938,14.236-12.635,17.605-17.605,3.284-4.042,12.717-14.824,13.645-18.698,0.52-1.45,0.61-2.37-3.86-6.67m-20.13,33.86c-0.506,1.938-2.189,1.769-2.611,1.432-0.42-1.011-2.609-2.696-3.789-3.79-1.012-0.674-0.338-2.359-0.338-2.359l2.949-5.137c0.252-0.337,1.094-0.59,2.105,0.252,2.87,2.7,2.2,7.67,1.69,9.61"/>
<path d="M397.44,198.71s6.438,8.757,19.293,5.367c-3.094-4.131-6.063-8.459-6.063-8.459s-5.07,2.597-11.252,0.618c-1.23-0.49-4.2,0.25-1.98,2.47" fill="#F0D800"/>
<path d="M383.07,172s0.418-1.585-1.084-2.587c-1.502-1.001-10.596-7.758-14.85-9.844-4.004-2.086-19.857-9.594-19.857-9.594s-10.594-4.255-14.6-6.341c-2.918-1.251-19.688-7.592-19.688-7.592s-31.787-10.011-44.551-18.354c-1.336-1.084-3.338-0.334-3.422,0.667-0.082,1.001-1.584,4.005-1.584,4.005s-0.584,2.669,1.836,4.422c1.834,1.752,8.51,9.093,26.113,13.849,10.928,3.421,28.365,9.011,34.29,11.263,5.921,2.252,22.856,7.925,41.546,19.855l13.514,8.844s2.754,1.001,2.17-1.335c-0.09-2.67,0.16-7.26,0.16-7.26" fill="#F0D800"/>
<path d="M241.91,120.36l1.669,11.18s-17.02,7.424-17.604,7.841c-0.083-0.333,0.083-0.833-1.085-0.333-1.167,0.5-21.19,6.424-25.361,7.008-0.584,0.334-1.335,0.834-3.004,0.501-0.834,0.333-12.68,4.171-12.68,4.171s-19.356,6.007-27.866,12.181c-1.001,0.5-1.418,0.917-1.585,1.251s-1.585,1.001-1.919,1.335-12.347,7.592-15.35,10.261c-0.834,0.417-1.752,1.085-2.336,1.752s-5.006,3.087-5.59,3.337c-0.584,0.251-2.753,0.918-1.418-3.504,1.251-4.504,4.339-14.015,20.357-23.192,9.927-4.839,22.442-9.928,37.376-14.434,5.088-1.167,31.285-8.175,31.285-8.175s10.428-3.254,10.094-2.586c0.167,0.083,0.834-0.167,2.419-0.751,1.59-0.6,10.02-4.02,12.6-7.86" fill="#F0D800"/>
<path d="M92.123,207.28s1.403-1.171,3.454-1.171c2.05,0,12.227,0.44,16.912-4.027,4.613-3.88,4.76-4.393,4.76-4.393s2.416-3.222-2.416-2.196c-3.954,0.806-11.129,2.05-13.618,1.464-0.44-0.22-0.806-0.805-0.366-1.318-0.44-0.293-1.392-0.366-1.905,0.512-0.512,0.879-6.882,10.178-7.834,11.057-0.503,0.6-0.017,1.4,1.022,0.08" fill="#F6E91A"/>
<path d="M141.46,189.08s0.707-0.707,1.8,0.771c1.092,1.479,2.313,3.536,6.94,4.564,4.627,1.027,16.581,3.213,24.872,4.369,2.249,0.45,2.7,0.387,3.47,0.322,0.772-0.064,1.607-0.129,0.644,1.286-0.965,1.414-5.271,8.033-5.592,8.933s-1.029,0.835-1.736,0.835-25.707-3.471-27.699-3.92c-1.992-0.45-2.892-0.386-2.892-0.386s-0.9,0.257-1.993-1.028c-1.091-1.285-2.249-3.085-2.249-3.085s-0.836-1.671-0.193-4.113c0.38-2.25,1.61-6.37,4.63-8.55"/>
<path d="M386.9,211.83c-1.35-1.992-2.184-4.82-9.705-6.041-2.057-0.257-3.148,0.578-4.434,2.056-1.285,1.479-2.957,2.829-6.813,12.918-0.707,2.122-6.941,21.402-6.941,21.402s-0.191,0.899-0.32,1.928c-0.129,1.028-1.029,3.663-3.021,3.792-1.928,0.128-5.27,0.642-5.27,0.642s-1.865-0.064-1.865,2.764c0,2.828-0.32,8.162-0.578,9.061-0.256,0.901,0.9,1.414,1.35,1.414,0.451,0,2.379,0.257,2.379,0.257s2.184,0.129,1.605,3.214-7.006,31.427-7.006,31.427-0.578,4.563-4.305,3.021c-3.729-1.543-6.684-2.379-6.684-2.379s-1.414-0.319-2.057,1.029c-0.643,1.35-2.057,3.278-2.057,3.278s-0.193,0.448-0.193,1.092c0,0.642,0.193,7.263,1.928,8.741,0.322,0.257,0.58,0.578,0.643,1.414,0.064,0.835,0.451,1.992,1.479,3.342,0.516,0.642,0.965,2.635-0.707,2.956-1.67,0.321-8.162,1.928-9.705,2.892-0.514,0.45-0.576,0.772-0.191,1.801s6.684,15.103,6.684,15.103,0.771,1.542-0.578,2.057c-1.35,0.514-16.195,5.398-23.586,6.362-2.186,0.321-3.664,0-2.828-3.921,0.836-3.92,2.121-10.796,2.121-15.488-0.064-0.578,0-0.771-1.029-0.257-1.027,0.514-9.896,4.885-9.896,4.885s-0.771,0.514-0.965,1.928c-0.191,1.414-1.605,12.789-1.605,12.789s-0.129,2.121-2.186,2.507-19.924,2.764-32.648,3.663c-1.092,0.193-1.543-0.258-1.414-2.441,0.129-2.186,0.449-7.198,0.449-7.198s0.064-0.578-1.414-0.515c-1.477,0.064-10.346,0-14.01-0.578-0.514-0.129-0.835-0.128-0.9,0.899-0.063,1.028-0.449,7.584-0.449,8.034,0,0.449-0.193,0.449-0.9,0.321-0.707-0.129-25.386-3.406-28.471-3.664-0.578-0.128-1.028-0.128-1.028-1.863s-0.065-11.697-0.065-11.697,0.194-1.222-1.349-2.057c-1.542-0.835-7.712-4.948-8.997-6.042-0.772-0.834-1.221-0.191-1.221,1.158s0.449,11.697,0.578,13.561c0.128,1.863,0.321,5.656-2.378,5.013s-18.381-4.049-18.381-4.049-2.378-0.257-1.285-3.213c1.093-2.957,2.121-6.428,1.992-7.776-0.129-1.35-0.064-3.921-3.085-4.756-2.313-0.836-8.676-4.691-8.676-4.691s-0.964-1.543,0.643-3.535c1.606-1.992,4.691-7.841,4.691-12.275-0.064-1.413-0.578-3.855-4.113-3.6-3.02-0.063-8.548-0.642-8.548-0.642s-1.863,0.45-2.184-2.569c-0.322-3.022-4.435-30.979-4.435-30.979s-1.285-4.049,3.534-3.792c4.821,0.257,5.142,0.257,5.142,0.257s1.606,0.386,1.285-2.507c-0.192-2.441-0.514-7.326-0.514-7.326s0.514-2.185-1.799-2.378c-2.314-0.192-8.676-1.156-8.676-1.156s-1.607,0.064-2.25-3.15c-0.643-3.214-3.534-16.71-6.106-25.9-2.57-9.191-4.627-13.304-4.627-13.304s-0.449-1.604-2.249-1.476-8.42-0.065-13.881,4.498c-0.451,0.064-1.993,1.092-1.222,2.121,0.771,1.028,2.378,2.763,3.856,3.984,0.964,1.157,4.821,6.749,6.106,11.119s4.241,16.517,4.627,17.995c0.385,1.478,5.913,27.828,5.913,27.828l5.206,26.864,2.057,11.697s0.963,4.178-1.671,4.691c-2.635,0.515-6.106,0.964-6.106,0.964s-1.222-0.064-1.735,1.221c-0.515,1.286-2.121,5.592-1.414,7.905s0.899,2.956,2.378,3.984c1.478,1.029,9.19,5.785,9.19,5.785s9.576,6.748,10.025,15.359c0.194,4.112,0.451,5.849-3.855,5.913-4.178,0.064-8.162,0.128-8.162,0.128s-0.964-0.128-1.35,0.9c-0.385,1.028-3.535,6.94-0.578,9.833,0.771,0.963,1.863,3.534,6.876,5.462,2.315,0.644,14.526,3.985,16.839,6.428,2.12,1.863,2.699,2.441,2.699,2.441s2.378,2.828,0,4.371c-1.028,1.092-3.856,2.377-4.82,3.021-0.964,0.643-3.277,2.956-3.792,5.977-0.514,3.021,1.222,4.37,2.378,5.334,1.157,0.965,2.442,2.25,3.214,2.828,0.77,0.578,4.176,2.699,7.968,1.028s4.95-2.186,4.95-2.186,4.562-1.734,8.675,0.193c4.114,1.928,15.875,8.033,27.122,8.098s17.866-2.441,30.848-13.046c1.414-1.029,3.6-1.607,5.014,0.063s8.482,10.026,17.096,11.44c8.611,1.414,21.594-0.708,35.797-5.978,4.434-1.028,11.568-2.956,17.352-0.064,2.828,1.093,8.676,2.186,12.018-2.185,1.352-2.121,1.736-6.941-1.285-9.962-2.121-1.928-4.113-2.892-5.848-3.792,0,0-3.084-1.864-0.32-4.948,2.762-3.085,4.563-5.206,4.756-5.463,0.191-0.257,5.977-4.306,14.074-7.776,2.313-0.964,8.162-4.563,6.941-10.797-0.258-1.222-0.322-1.606-1.928-1.414-1.607,0.192-7.07-0.515-9.191-1.607-1.027-0.449-1.35-1.672-0.514-3.663,0.836-1.992,1.863-4.691,1.863-4.691s1.605-1.992,1.799-3.728c0.771-0.578,14.975-14.011,15.746-14.91s2.764-2.057,3.471-10.348c0.193-1.734-0.449-2.12-1.928-2.442-1.479-0.321-5.398-0.771-6.555-0.578-1.094-0.192-3.15-0.707-2.893-3.021,0.256-2.313,2.25-17.543,6.234-28.6,3.406-10.605,12.789-41.133,12.789-41.133l5.27-18.509s2.441-5.847,4.242-7.712c1.799-1.864,3.855-4.306,3.855-4.306s1.36-0.32,0.02-2.31m-186.49,183.64c-9.88-3.328-12.457-18.898-12.672-20.401-0.214-1.504-0.322-4.833-1.932-8.699-1.397-5.584-10.417-5.047-12.565-5.369-2.147-0.322-2.469-1.825-1.825-3.221,0.645-1.396,2.47-6.873,2.47-6.873,0.751-2.47,4.295-1.61,4.295-1.61s17.826,4.402,20.618,5.154c2.792,0.751,2.362,3.007,2.362,3.007s2.041,31.679,2.471,35.973c0.65,4.29-2.25,2.9-3.22,2.04m40.05-13.53l-5.584,1.396c-5.048,1.396-5.477,6.55-5.799,11.168s-3.114,4.833-3.114,4.833-5.799,0.43-8.483,0.43c-2.685,0-2.363-3.544-2.363-3.544l-3.007-35.546c0-3.757,2.792-3.436,2.792-3.436s23.088,2.685,25.236,2.899c2.146,0.215,1.718,1.826,1.718,1.826s0.537,10.309,0.751,15.355c0.21,5.05-2.16,4.62-2.16,4.62m50.05-19.76c-0.217,6.229-5.801,35.329-6.23,37.585-0.428,2.255-2.684,1.503-3.113,1.503s-1.826,0.107-2.469-0.107c-0.645-0.214-3.975-1.181-7.088-2.147-3.115-1.182-2.578-5.584-2.148-7.839s-0.107-5.047-1.396-6.874c-3.543-4.187-6.766-4.187-9.342-4.724-2.578-0.537-2.363-2.577-2.363-2.577l-0.535-11.383c0-3.866,3.113-3.974,3.113-3.974s29.209-3.222,30.82-3.437c1.61-0.21,1.08,2.69,0.76,3.98m41.02-8.48c-0.322,2.146-3.223,6.229-3.867,7.41-0.645,1.181-1.824,1.825-3.758,0.858s-4.832-1.933-6.229-1.073c-1.396,0.858-2.148,4.617-2.686,6.442-0.535,1.826-0.215,10.524-0.537,14.068,0,4.939-5.584,9.449-5.584,9.449s-6.229,4.188-8.912,5.477c-2.686,1.289-3.436,0.752-2.9-2.577,1.396-5.584,6.336-35.759,6.336-35.759,0-0.537,0.752-2.149,1.719-2.041,2.793,0.43,19.76-3.865,22.873-4.51s3.87,0.1,3.55,2.25"/>
<path d="M333.62,198.28s-0.955-0.955,1.486-0.742c2.441,0.212,14.861,0,17.941-0.425,3.078-0.318,9.023-1.168,11.783-6.795,0.426-0.637,0.85-2.017,2.336-0.743s7.963,5.202,5.414,13.27c-0.424,1.168-1.699,2.018-3.504,2.867s-7.43,4.246-27.389,4.671c-1.063,0-1.486,0.106-2.23-1.38-0.75-1.5-5.84-10.73-5.84-10.73"/>
<path d="M323.84,201.13c-16.539-24.567-43.059-33.378-70.781-34.054-9.973-0.243-34.591,7.991-47.92,18.243-18.972,14.594-34.053,37.635-34.053,65.553,0,46.278,36.7,83.797,81.973,83.797,45.271,0,85.006-37.409,86.105-83.675,0.49-20.44-6.08-36.14-15.32-49.87m-31.35-22.85c0.867,0.542,3.791,1.787,3.791,1.787s9.201,4.602,16.186,12.343c1.463,1.679,2.166,2.004,2.166,2.004s1.949,1.137,1.191,4.168c-0.758,3.032-9.42,25.986-9.42,25.986s-1.137,2.706-3.627,3.465c-2.49,0.758-17.541,5.575-17.541,5.575s-1.354,0.434-2.869-0.594c-1.516-1.03-26.148-18.461-26.148-18.461s-0.92-0.704-0.975-2.22-0.813-12.018-0.488-13.48c0.326-1.462,0.867-3.086,2.654-3.953,0,0,28.691-16.078,30.912-16.565,2.23-0.51,3.31-0.62,4.18-0.08m-9.37,63.56c-0.703,3.359-7.309,27.285-8.553,30.966-0.758,2.003-1.408,3.411-3.303,3.519-1.895,0.109-33.565,0.541-38.058,0.109-0.759-0.109-2.058-0.162-2.762-2.816-0.703-2.651-7.796-32.644-7.796-32.644s-0.595-3.736,1.896-5.089c2.49-1.354,20.516-14.185,28.097-17.65,0,0,2.002-0.757,3.355,0.055s11.693,7.633,25.77,18.353c1.3,1.18,2.06,1.83,1.35,5.19m-59.38-63.5c2.165-1.028,4.872-2.058,4.872-2.058s2.382-0.649,4.114,0c1.733,0.651,18.57,8.284,18.57,8.284s2.381,1.462,4.385,0.487c2.002-0.975,21.438-10.827,21.438-10.827s2.275-0.813,3.844-0.325c1.57,0.487,2.004,0.649,2.004,0.649s2.436,1.354,0.27,2.815c-2.164,1.462-19.488,12.019-27.5,16.025-0.975,0.542-2.221,1.137-5.74-0.541-3.519-1.679-26.473-11.857-26.473-11.857s-1.95-1.62,0.22-2.64m-27.89,20.62c1.245-1.354,8.337-9.365,18.569-16.024,0,0,1.462-1.625,3.843-0.326,2.382,1.3,27.556,12.236,29.126,12.994,1.571,0.757,3.735,2.165,3.845,4.71,0.107,2.543,0.432,11.043,0.432,11.043s0.543,2.057-2.436,3.681c-2.328,1.462-26.147,19.219-29.451,20.627-0.541,0.325-1.028,0.704-1.786,0.325-0.758-0.38-17.812-8.391-17.812-8.391s-1.082-0.433-1.245-1.733c-0.162-1.3-4.059-22.304-4.059-22.304s-0.27-3.24,0.97-4.6m-21.27,54.46c-0.108-1.624,0.055-5.685,0.379-6.768,0.325-1.082,1.353-2.814,2.274-3.789,0.92-0.974,9.636-10.394,10.448-11.639s1.571-1.624,1.192-5.035c-0.38-3.411-1.733-10.774-1.733-12.29,0-1.515-0.325-4.005,0.92-5.197,1.245-1.19,2.003-1.894,2.003-1.894s1.354-1.462,2.274,0.27c0.379,1.192,3.14,19.057,3.14,19.057s0.65,2.977-0.542,4.872c-1.19,1.894-8.228,12.343-17.756,22.954-0.32,0.45-2.48,1.75-2.59-0.53m6.66,30.76c-0.541-1.137-3.897-10.827-5.468-18.19-0.162-1.299-0.324-4.385,1.083-6.334,1.408-1.949,16.674-19.814,22.412-26.852,0,0,1.137-1.679,3.628-0.542,2.491,1.138,14.671,6.659,14.671,6.659s2.165,0.921,2.599,2.762c0.433,1.84,7.471,32.698,7.471,32.698s0.866,3.79-1.083,6.226c-1.949,2.437-10.123,12.939-10.123,12.939s-1.03,0.92-2.437,0.541c-1.407-0.379-30.588-7.958-30.588-7.958s-1.62-0.83-2.16-1.96m43.85,42.22c-3.789-1.299-6.55-2.869-6.55-2.869s-1.408-0.866-2.545-3.627c-1.137-2.761-4.548-11.478-4.548-11.478s-0.703-1.57-2.111-1.841c-1.407-0.271-16.025-4.33-16.025-4.33s-2.165-0.704-3.139-2.328c-0.975-1.624-3.845-5.089-4.169-6.497,0,0-0.866-2.923,1.515-2.49,2.382,0.434,26.744,5.522,26.744,5.522s2.978,0.704,3.844,3.086c0.866,2.382,8.716,23.171,8.716,23.171s2.06,4.99-1.73,3.69m44.23,1.52c-0.055,0.379,0.053,1.516-2.492,2.111-2.543,0.596-17.107,2.869-33.943-1.299-0.596-0.271-1.354-0.542-2.057-2.328-0.704-1.787-10.503-27.88-10.503-27.88s-1.028-2.437,0.433-4.765c1.462-2.328,3.736-6.551,8.121-12.073,0,0,1.083-1.895,5.305-1.895,4.223,0,38.492,0.433,38.492,0.433s2.436-0.054,3.572,1.733c1.137,1.785,6.715,9.798,6.715,9.798s1.244,1.625,0,4.224c-1.24,2.6-13.31,31.02-13.31,31.02s-0.28,0.54-0.33,0.92m55.33-39.2c-1.137,2.274-2.436,4.06-2.436,4.06s-0.541,1.463-3.465,2.113c-2.924,0.648-22.359,4.438-22.359,4.438s-2.057,0.271-2.977,2.274c-0.92,2.002-11.1,22.357-11.1,22.357s-0.703,2.004-2.867,2.707c-2.166,0.704-3.682,1.083-3.682,1.083s-3.682,1.028-2.166-2.328,12.451-29.017,14.238-31.183c0.703-0.975,1.732-1.786,3.52-2.111,1.785-0.324,29.504-5.306,31.832-5.414,0.02,0,2.61-0.27,1.48,2m9.15-21.38c-0.65,2.11-3.357,10.937-3.789,11.802-0.434,0.866-1.191,2.815-3.953,3.248-2.762,0.434-30.316,6.01-37.463,7.092-1.354,0.217-2.652,0.543-4.168-1.299-1.518-1.841-7.039-10.07-7.039-10.07s-0.813-0.974-0.107-3.463c0.703-2.492,10.557-36.49,10.611-36.706,0.053-0.217,0.703-2.22,2.49-2.653,1.785-0.433,12.723-3.845,12.723-3.845s2.273-1.028,3.951,0.542,6.82,6.605,26.094,31.779c0.01,0.01,1.31,1.47,0.66,3.58m2.38-14.29c-0.107,1.299-0.486,4.331-0.486,4.331s-1.299,3.357-3.086,1.245c-1.787-2.112-22.738-28.261-23.387-29.451-0.65-1.19-0.758-2.058-0.217-3.519s7.85-22.142,8.932-23.658,1.678-1.894,2.924-0.108,2.111,3.248,2.111,3.248,0.811,1.787-0.107,4.331c-0.922,2.545-5.145,12.993-5.145,12.993s-0.975,2.978,0.162,4.44c1.139,1.461,16.35,22.141,17.379,23.116,0.72,0.82,1.05,1.74,0.94,3.04"/>
<path d="M216.51,191.84s1.394-1.194,2.189-0.896c0.796,0.298,21.798,8.361,22.893,8.859,1.095,0.497,1.394,0.796,1.493,2.09,0.1,1.294,0.299,6.171,0.199,6.768-0.099,0.597-0.199,1.195-1.294,1.891-1.094,0.697-21.598,15.03-22.892,16.025s-1.692,0.399-2.887-0.199c-1.194-0.597-7.466-4.877-8.361-5.275-0.896-0.398-1.095-1.394-1.394-3.484-0.298-2.091-2.488-13.338-2.488-13.338s-0.497-1.591,0.996-2.885c1.48-1.3,8.35-7.77,11.54-9.56"/>
<path d="M263.17,200.84s-0.299-1.195,1.045-1.867,12.322-6.124,13.441-6.796c1.121-0.672,9.262-4.855,9.783-5.078,0.523-0.225,2.465-1.345,3.809-0.524,1.346,0.823,11.801,7.095,15.311,11.278,0.82,0.821,0.373,2.987-0.074,4.107-0.449,1.12-6.051,15.907-6.646,17.177-0.449,0.971-0.897,1.718-2.391,2.314-1.492,0.598-8.662,3.137-10.382,3.362-1.044,0.223-1.716,0.223-3.21-0.822-1.492-1.046-18.818-14.264-19.342-14.713-0.523-0.447-0.672-1.194-0.896-2.613s-0.45-5.83-0.45-5.83"/>
<path d="M296.4,241.62l5.676-1.493s1.195-0.448,1.793,0.299c0.596,0.747,19.863,24.644,20.611,25.764,0.746,1.12,0.895,1.643,0.521,3.212-0.372,1.567-1.344,4.481-1.344,4.481s-0.223,1.045-1.27,1.418c-1.045,0.373-26.063,5.377-28.154,5.601-2.09,0.225-2.838,0.149-3.658-0.97-0.821-1.121-3.139-4.556-3.512-5.153s-0.971-1.345-0.225-3.361c0.748-2.016,7.693-26.96,7.693-26.96s0.45-2.47,1.87-2.84"/>
<path d="M236.28,290.46s0.598-1.346,3.062-1.195,26.361,0.674,27.258,0.674,2.391-0.076,3.063,1.342c0.672,1.42,2.988,5.203,3.285,5.976,0.299,0.771,0.225,1.419-0.223,2.465-0.449,1.046-8.963,20.611-8.963,20.611s-0.971,2.092-2.24,2.315-10.082,1.045-12.621,0.598c-0.821-0.299-1.269-0.747-2.166-0.299-0.522,0-3.659-0.149-4.48-0.374-0.822-0.224-1.643-0.672-2.166-1.941s-7.767-21.583-7.767-21.583-0.373-1.941,0.598-3.211c0.98-1.27,3.37-5.38,3.37-5.38"/>
<path d="M201.26,242.14s0.598-0.971,2.39-0.299,6.721,2.689,6.721,2.689,1.27,0.597,1.493,2.24c0.225,1.643,4.855,27.333,4.855,27.333s0.368,2.465-0.747,4.107c-1.114,1.644-1.941,2.912-2.613,3.81-0.673,0.896-0.897,0.821-1.495,0.672-0.597-0.149-23.3-4.929-23.3-4.929s-0.971-0.075-1.493-1.645c-0.523-1.567-2.54-8.213-2.763-9.708-0.225-1.494-0.299-2.913,0.597-4.182,0.89-1.27,14.55-18.15,16.35-20.09"/>
<path d="M232.85,241.24s-0.522-1.195,0.225-1.792c0.746-0.598,16.28-11.053,18.669-11.8,1.27-0.522,1.568-0.522,2.613,0.224,1.047,0.747,9.635,7.991,18.447,14.115,0.746,0.523,1.568,0.74,1.046,3.208-0.524,2.468-4.259,15.014-5.005,18.972-0.299,1.643-0.82,2.166-2.463,2.315-1.645,0.15-20.015,0.821-24.72,0.448-0.598,0-1.718,0-2.091-1.195-0.39-1.2-6.74-24.5-6.74-24.5"/>
<path d="M110.92,439.01s-27.498,25.906-30.577,29.409c-0.85,1.168-1.274,1.593,0,2.336s9.874,5.097,13.378,14.439c0.425,0.637,0.743,1.381,2.016,0.956,1.275-0.426,4.141-1.169,5.097-1.169,1.062,0,1.38-0.424,0.212-1.167-1.167-0.742-3.928-2.336-9.13-9.131-0.319-1.062-1.168-2.229,0.53-3.929,1.7-1.698,23.146-24.207,28.986-29.197,0.53-0.424,0.955-0.742-0.32-1.911-1.273-1.168-7.219-7.113-8.281-8.6-0.53-0.53-2.441-0.955-1.911,1.063,0.64,2.01,2.13,4.35,0,6.9"/>
<path d="M159.98,480.1c-0.424-7.326-3.609-14.015-5.521-16.139-1.911-2.123-3.397-3.928-4.777-4.459-1.381-0.53-13.59-5.839-16.457-5.309,0,0-12.315-2.441-21.021,8.601-0.107,0.637-0.319,1.273-1.275,2.017-0.955,0.743-5.308,7.645-5.096,13.908,0.212,6.265,4.141,14.546,9.025,19.43s16.138,8.706,27.286,6.264c2.24-0.53,19.23-4.99,17.85-24.31m-5.63-7.01c-1.486,11.891-8.493,19.323-9.236,19.536-0.743,0.212-0.85,0.53-1.7,1.486-9.98,7.75-19.535,6.581-23.357,3.503-9.556-8.813-5.733-20.278-2.548-25.693,6.37-10.829,16.775-13.059,16.775-13.059,2.76-1.062,12.846,1.698,15.925,4.141,3.09,2.43,4.36,8.27,4.15,10.08"/>
<path d="M174.1,472.34s8.6,4.777,9.768,5.415c1.168,0.637,2.229,0.955,1.168,3.079-1.062,2.123-8.282,15.501-8.282,15.501s-1.274,2.654,1.275,2.654c2.548,0,19.004,0.318,24.207-6.689,1.168-1.698,1.38-5.414,1.38-5.414s-0.637-1.275,1.061-1.487c1.699-0.212,5.522-0.317,5.522-0.317s1.486-0.213,1.38,1.91c-0.107,2.124-1.168,6.583-4.991,8.176-3.822,1.593-15.288,5.521-15.288,5.521s-3.292,0.743-2.442,3.822c0.849,3.079,3.184,13.484,12.103,22.189,0.956,0.638,2.867,1.805,2.867,1.805s2.124,1.169-0.106,2.23c-2.229,1.062-5.415,2.441-8.812,0.53-3.398-1.911-7.75-6.582-12.529-17.73-1.168-2.973-3.184-7.326-7.325-8.918-1.487-0.531-3.61-0.106-5.415,2.866s-7.645,10.512-8.6,11.573c-1.168,1.592-1.592,1.804-3.079,0.955-1.486-0.85-3.61-1.911-3.61-1.911s-1.805-0.105,0.213-2.866c2.017-2.761,15.288-23.677,18.792-31.745,1.38-4.565,1.38-6.158,0.743-7.22-0.63-1.05-2.65-4.87,0.01-3.92"/>
<path d="M254.68,494.96s-14.227-12.316-31.958-3.504c-0.848,0.637-2.229,2.654-3.502,2.336-0.213,0.212-9.874,9.874-9.131,15.926s2.76,22.296,19.641,27.923c4.247,1.38,15.501,3.291,24.632-7.008,0.213,0.743-0.041,1.521,0.105,1.593,0.148,0.072,1.594-2.123,1.594-2.123s0.85-1.487-1.063-1.593c-1.91-0.106-5.627-0.956-6.583-1.168-0.955-0.213-2.442-0.425-3.822,1.062s-7.007,6.583-12.422,6.583c-5.414,0-12.422-7.539-11.891-19.642,0.107-2.018,1.593-4.989,4.353-4.884s11.997-1.593,21.022,5.839c1.38,1.062,2.123,0.956,3.292-0.53,1.168-1.486,2.76-2.548,3.928-3.61s1.486-1.38-1.381-1.593c-2.865-0.211-15.395,0.213-27.498-4.353-0.743-0.425-1.168-0.85-0.318-2.548,0.849-1.699,5.626-9.344,7.113-10.512,1.486-1.167,10.511-5.732,18.261,4.885,1.168,1.38,1.699,1.805,2.973,1.38s3.398-1.062,3.398-1.062,2.46-0.45-0.73-3.42"/>
<path d="M318,523.4c-0.602-0.602-1.545-0.516-2.061-0.344-0.771,0.601-2.318,1.201-4.035,1.117-4.549-0.345-7.639-3.178-7.639-3.178s-8.414-8.155-9.787-9.529c-1.375-1.373,0.771-3.091,0.771-3.091s4.895-3.434,7.041-6.267c4.549-6.095,0.428-12.104-0.173-12.448-0.601-0.343-2.661-1.631-3.177-2.231s-1.803-1.46-4.035-2.146c-4.979-2.661-20.26-0.344-24.467,0.344-4.205,0.687-6.438,0.687-6.438,0.687-2.232,0-1.459,1.803-1.287,2.919,3.863,4.206,3.691,4.636,4.635,6.868,1.545,4.292,1.115,13.135,1.031,14.251-0.086,1.115-0.258,1.888-0.086,2.66,0.17,0.773,0.17,3.863-0.086,4.637-0.258,0.772,0.428,13.221,0.256,15.452-0.17,2.231,0.43,2.146,1.547,2.318,1.115,0.17,3.262,0,4.721-0.258,1.461-0.258,1.975-0.516,2.061-1.374,0.086-0.857-0.086-2.403-0.086-2.918,0-0.516,0-2.061,0.172-2.919s0.516-5.151,0.344-9.873c0.086-5.065,3.777-3.949,4.894-3.605s4.892,2.489,7.726,4.636c10.389,8.929,14.938,10.302,17.686,11.246,2.746,0.945,3.52,0.688,4.464,0.344,4.464-1.546,5.237-3.005,6.438-4.722,1.22-1.73,0.19-1.99-0.41-2.59m-37.95-14.16c-1.803,0.687-3.262-0.258-3.434-2.404-0.171-2.146-1.115-14.423-1.459-15.624,0,0-0.171-3.435,3.949-3.52,4.121-0.086,9.787-1.288,15.623,3.776,1.805,1.718,3.691,6.268-0.943,10.646-1.37,1.36-4.81,4.1-13.74,7.11"/>
<path d="M346.67,473.1s-10.904-4.979-21.807-0.429c-2.832,1.459-12.018,9.271-12.619,20.088,0,8.414,4.207,17.856,10.816,21.72,6.611,3.863,12.105,6.438,26.527,3.434,3.348-1.287,12.877-8.585,12.705-17.341,0-1.03,0.172-1.975-1.631-0.687s-5.408,3.691-5.408,3.691-1.287,0.944-1.545,3.091c-0.258,0.944-2.232,6.267-7.898,7.297-1.373,0.257-13.221,1.202-19.916-10.474-0.344-1.203-0.086-2.489,1.889-3.434s15.279-6.954,15.279-6.954,1.547-0.516,4.121-0.516c2.576,0,3.777,0.087,4.895-2.06,1.115-2.146,2.146-4.293,2.66-5.324,0.516-1.028,1.031-1.63-0.771-0.943-1.803,0.688-4.895,2.404-7.383,3.777-2.49,1.374-11.074,6.267-17.686,8.242-1.631,0.601-7.211,2.489-7.727-1.889-0.514-3.949-0.686-10.903,4.895-16.827,2.832-2.318,6.609-4.378,9.873-2.918,3.262,1.459,4.893,2.747,4.893,2.747s1.287,1.288,3.434,0,3.691-2.576,3.691-2.576,1.48-0.61-1.27-1.72"/>
<path d="M352.08,461.25s-1.889,1.373,0.344,1.889c1.717,0.086,4.377,0.687,5.922,2.833,1.547,2.146,9.701,10.902,14.596,32.193,0.258,1.115,0.084,5.063,0.084,5.063s-0.6,3.005,0.859,1.718,6.354-6.868,7.211-8.069c0.859-1.202,0.773-1.631-0.344-3.691-1.115-2.061-10.988-20.604-12.018-22.406-0.43-1.116-0.258-4.121,2.746-3.349,3.006,0.772,30.391,9.443,37.088,10.215,3.605,0.603,4.463,0.345,6.096-1.029,1.629-1.373,3.691-3.263,3.691-3.263s1.543-1.374-0.859-1.802c-1.459-0.516-3.348-1.631-4.809-3.52-1.459-1.889-7.123-7.899-24.037-30.391-1.973-2.575-2.316-3.004-3.691-1.631-1.373,1.374-6.953,6.181-7.896,6.954-0.945,0.772-0.602,1.201,0.771,1.287s3.605,0.344,4.379,0.172c0.771-0.172,1.459-0.343,2.918,0.858,1.461,1.202,16.912,19.488,18.457,22.579,1.117,1.803,1.719,4.464-3.004,3.691-4.721-0.773-12.361-2.318-29.961-9.358-2.404-0.944-7.469-2.403-9.357-2.661s-4.549-0.601-6.438,0.344c-1.89,0.95-2.75,1.38-2.75,1.38"/>
</svg>
