<?xml version="1.0" encoding="UTF-8" standalone="no"?>
<!-- Created with Inkscape (http://www.inkscape.org/) -->

<svg
   xmlns:dc="http://purl.org/dc/elements/1.1/"
   xmlns:cc="http://creativecommons.org/ns#"
   xmlns:rdf="http://www.w3.org/1999/02/22-rdf-syntax-ns#"
   xmlns:svg="http://www.w3.org/2000/svg"
   xmlns="http://www.w3.org/2000/svg"
   xmlns:sodipodi="http://sodipodi.sourceforge.net/DTD/sodipodi-0.dtd"
   xmlns:inkscape="http://www.inkscape.org/namespaces/inkscape"
   id="svg2"
   version="1.1"
   inkscape:version="0.48.2 r9819"
   width="214.27272"
   height="300.00037"
   xml:space="preserve"
   sodipodi:docname="kvmechelen logo.pdf"><metadata
     id="metadata8"><rdf:RDF><cc:Work
         rdf:about=""><dc:format>image/svg+xml</dc:format><dc:type
           rdf:resource="http://purl.org/dc/dcmitype/StillImage" /><dc:title></dc:title></cc:Work></rdf:RDF></metadata><defs
     id="defs6" /><sodipodi:namedview
     pagecolor="#ffffff"
     bordercolor="#666666"
     borderopacity="1"
     objecttolerance="10"
     gridtolerance="10"
     guidetolerance="10"
     inkscape:pageopacity="0"
     inkscape:pageshadow="2"
     inkscape:window-width="1366"
     inkscape:window-height="716"
     id="namedview4"
     showgrid="false"
     fit-margin-top="0"
     fit-margin-left="0"
     fit-margin-right="0"
     fit-margin-bottom="0"
     inkscape:zoom="1"
     inkscape:cx="276.83962"
     inkscape:cy="136.63509"
     inkscape:window-x="-8"
     inkscape:window-y="-8"
     inkscape:window-maximized="1"
     inkscape:current-layer="g10" /><g
     id="g10"
     inkscape:groupmode="layer"
     inkscape:label="kvmechelen logo"
     transform="matrix(1.25,0,0,-1.25,-95.8325,448.92124)"><path
       d="m 248.08418,223.65502 c -7.21828,-1.83949 -13.29581,-6.87855 -16.05451,-9.46832 1.37479,3.11205 2.60303,6.4286 3.5938,9.93076 13.556,7.01603 12.26641,22.22501 12.26641,22.22501 -3.19954,-2.28544 -8.07381,-8.04069 -10.01634,-10.40285 0.28935,2.9314 0.38705,5.95693 0.25639,9.06765 12.08802,9.51982 5.88211,24.21696 5.88211,24.21696 -4.16871,-2.53105 -6.62064,-9.17217 -7.53641,-12.1225 -0.80442,3.46826 -1.91111,7.01754 -3.37111,10.639 2.12054,1.9732 9.37477,10.45287 -0.53404,27.07982 0,0 -4.93679,-8.56391 -5.40792,-15.21938 -2.16258,3.60249 -4.68909,7.26067 -7.61975,10.9662 0,0 0.77037,13.09869 -16.95097,15.79545 0,0 -0.38515,-15.41026 15.02512,-15.79545 3.90057,-5.30111 7.05923,-10.4784 9.57589,-15.51312 -5.85256,5.38446 -15.75795,6.96814 -15.75795,6.96814 6.87514,-14.92436 17.22365,-16.50633 19.89866,-16.66123 1.50507,-4.2384 2.56972,-8.35902 3.25597,-12.34825 -2.95866,2.76933 -11.4298,10.11637 -18.50075,10.58788 0,0 2.06904,-17.38898 19.41803,-18.92417 0.20908,-4.33916 -0.0106,-8.49725 -0.56052,-12.45463 -1.46644,3.6097 -5.55716,10.89275 -15.7557,15.28395 0,0 -2.47423,-17.76656 14.18587,-23.14687 -1.35133,-5.19241 -3.22568,-9.95992 -5.34281,-14.25211 -0.025,3.92861 -1.19756,12.43004 -10.00653,18.78367 0,0 -3.9869,-16.93088 7.06265,-24.22304 -3.003,-5.08677 -6.21049,-9.30659 -8.98168,-12.54022 0.52985,4.05736 1.49677,15.60836 -3.89832,19.89295 0,0 -7.99505,-13.52909 -0.57564,-24.72143 -1.7672,-1.75544 -2.87839,-2.67613 -2.87839,-2.67613 l 1.69747,0 c -3.72295,-1.02033 -7.48185,-2.35269 -11.34383,-3.72524 -9.90841,-3.52108 -21.13787,-7.51178 -35.28581,-7.51294 -14.14798,0.001 -25.37782,3.99186 -35.28585,7.51294 -4.45616,1.58387 -8.77678,3.11663 -13.06137,4.17403 -0.4901,0.4344 -1.30437,1.17824 -2.36103,2.22734 7.4194,11.19234 -0.5753,24.72143 -0.5753,24.72143 -5.39543,-4.28459 -4.42855,-15.83559 -3.89832,-19.89295 -2.77119,3.23363 -5.97829,7.45345 -8.981283,12.54022 11.049193,7.29216 7.062263,24.22304 7.062263,24.22304 -8.808979,-6.35363 -9.981523,-14.85506 -10.006538,-18.78367 -2.117475,4.29219 -3.991087,9.0597 -5.343154,14.25211 16.660102,5.38031 14.186222,23.14687 14.186222,23.14687 -10.198548,-4.3912 -14.289616,-11.67425 -15.755316,-15.28395 -0.550321,3.95738 -0.770333,8.11547 -0.561296,12.45463 17.349422,1.53519 19.418802,18.92417 19.418802,18.92417 -7.07172,-0.47151 -15.542472,-7.81855 -18.500747,-10.58788 0.685904,3.98923 1.750517,8.10985 3.255231,12.34825 2.675359,0.1549 13.023876,1.73687 19.899396,16.66123 0,0 -9.90578,-1.58368 -15.758337,-6.96814 2.516697,5.03472 5.675327,10.21201 9.575897,15.51312 15.4103,0.38519 15.02512,15.79545 15.02512,15.79545 -17.72131,-2.69676 -16.95097,-15.79545 -16.95097,-15.79545 -2.93102,-3.70553 -5.457179,-7.36371 -7.620107,-10.9662 -0.470391,6.65547 -5.407573,15.21938 -5.407573,15.21938 -9.908801,-16.62695 -2.65492,-25.10662 -0.534032,-27.07982 -1.459999,-3.62146 -2.566652,-7.17074 -3.371074,-10.639 -0.915418,2.95033 -3.367701,9.59145 -7.536062,12.1225 0,0 -6.205906,-14.69714 5.881725,-24.21696 -0.130658,-3.11072 -0.03293,-6.13625 0.256041,-9.06765 -1.942141,2.36216 -6.816456,8.11741 -10.015996,10.40285 0,0 -1.289202,-15.20898 12.266417,-22.22501 0.990771,-3.50216 2.219007,-6.81871 3.594189,-9.93076 -2.75909,2.58977 -8.836627,7.62883 -16.054518,9.46832 0,0 0.963508,-17.11723 21.340895,-19.51196 1.739503,-2.83522 3.529035,-5.39924 5.254145,-7.66746 -2.77685,1.01916 -11.204049,3.87559 -18.062545,3.71573 0,0 5.784381,-11.72823 24.640025,-11.46234 1.29487,-1.36343 2.36669,-2.40194 3.10825,-3.09463 -2.62234,0.52263 -5.23902,0.83924 -7.87273,0.83924 -5.657137,0 -15.499659,-0.61543 -17.85425,-4.73679 -1.64371,-2.87648 1.146793,-14.9702 2.06446,-18.94465 0,0 0.882841,-3.94032 1.808109,-4.7584 8.134783,-5.89572 22.173711,1.59714 22.294511,1.70278 l 1.85314,1.92248 c 0,0 11.07797,-4.15169 24.50747,-7.20467 -5.44201,-0.43591 -15.95644,-2.00842 -21.00268,-7.68526 0,0 14.0302,-7.85454 28.30996,6.19683 0.99302,-0.17797 1.99023,-0.34613 2.98822,-0.50106 l 9.13238,-9.47704 c 0,0 -18.03378,2.90867 -25.59632,-4.36301 0,0 7.56254,-5.23561 20.65157,-2.90867 l -15.9977,-12.5073 1.16347,-4.07214 c 0,0 23.70949,19.996 24.13632,20.3554 0.42645,-0.3594 24.13629,-20.3554 24.13629,-20.3554 l 1.16347,4.07214 -15.9977,12.5073 c 13.08903,-2.32694 20.65158,2.90867 20.65158,2.90867 -7.56255,7.27168 -25.59633,4.36301 -25.59633,4.36301 l 9.03167,9.37252 c 1.06461,0.15908 2.12922,0.33329 3.18969,0.51925 14.24869,-13.93172 28.22056,-6.1105 28.22056,-6.1105 -4.92202,5.53672 -15.04214,7.16829 -20.58794,7.65005 13.49958,3.05639 24.66237,7.23988 24.66237,7.23988 l 1.85352,-1.92248 c 0.1212,-0.10564 14.16008,-7.5985 22.29452,-1.70278 0.92561,0.81808 1.80846,4.7584 1.80846,4.7584 0.91689,3.97445 3.70778,16.06817 2.06445,18.94465 -2.35532,4.12136 -12.19711,4.73679 -17.85424,4.73679 -3.9411,0 -7.8428,-0.69761 -11.78316,-1.75769 0.40412,0.35149 1.94936,1.72628 4.12101,4.01308 18.856,-0.26589 24.64038,11.46234 24.64038,11.46234 -6.85811,0.15986 -15.28605,-2.69657 -18.06294,-3.71573 1.72554,2.26822 3.51504,4.83224 5.25458,7.66746 20.377,2.39473 21.34124,19.51196 21.34124,19.51196 z"
       style="fill:#e2ad3a;fill-opacity:1;fill-rule:nonzero;stroke:none"
       id="path12"
       inkscape:connector-curvature="0" /><path
       d="m 201.18563,322.19958 c -0.62757,0 -1.19682,-0.22874 -1.65092,-0.59539 0.14431,0.64918 0.22687,1.32519 0.23292,2.0232 0.47722,-0.69572 1.27594,-1.15382 2.18151,-1.15382 1.45852,0 2.64468,1.18639 2.64468,2.64453 0,1.45829 -1.18616,2.64468 -2.64468,2.64468 -1.13543,0 -2.09781,-0.72298 -2.4716,-1.73042 -0.0371,0.14504 -0.075,0.29013 -0.11933,0.4363 -0.1886,0.62187 -0.4268,1.21082 -0.70328,1.77227 0.367,-0.19333 0.77828,-0.3134 1.22141,-0.3134 1.45888,0 2.64507,1.18658 2.64507,2.64472 0,1.4581 -1.18619,2.64468 -2.64507,2.64468 -1.45775,0 -2.64394,-1.18658 -2.64394,-2.64468 0,-0.0538 0.0125,-0.10417 0.0159,-0.1568 -0.5079,0.60749 -1.08734,1.15929 -1.73004,1.6581 1.45623,0.003 2.64014,1.18771 2.64014,2.64391 0,1.45852 -1.18697,2.64491 -2.64507,2.64491 -1.45775,0 -2.64394,-1.18639 -2.64394,-2.64491 0,-0.43781 0.11704,-0.84495 0.30603,-1.20908 -0.67947,0.3238 -1.40776,0.60218 -2.18038,0.83642 0.57266,0.48555 0.94493,1.20097 0.94493,2.00881 0,1.45848 -1.1862,2.64487 -2.64468,2.64487 -1.45814,0 -2.64434,-1.18639 -2.64434,-2.64487 0,-0.45259 0.125,-0.87299 0.32647,-1.24604 -0.52077,0.0458 -0.98204,0.0686 -1.34981,0.0772 l -0.39539,0.01 c -0.31018,0.33178 -0.6662,0.62626 -1.04076,0.9046 1.12903,0.30188 1.96754,1.32333 1.96754,2.54548 0,1.45833 -1.18697,2.64472 -2.64507,2.64472 -1.45775,0 -2.64394,-1.18639 -2.64394,-2.64472 0,-0.33233 0.0685,-0.64763 0.18103,-0.94113 -0.54881,0.19084 -1.11158,0.36017 -1.6918,0.50199 0.74191,0.46869 1.2396,1.29072 1.2396,2.2315 0,1.45833 -1.18658,2.64487 -2.64433,2.64487 -1.45853,0 -2.64468,-1.18654 -2.64468,-2.64487 0,-0.62284 0.22571,-1.18864 0.58739,-1.64123 -0.85251,0.0916 -1.6918,0.14768 -2.50002,0.17987 0.96009,0.39694 1.6384,1.34148 1.6384,2.44321 0,1.45853 -1.1862,2.64492 -2.64507,2.64492 -1.45775,0 -2.64395,-1.18639 -2.64395,-2.64492 0,-1.07295 0.64538,-1.99516 1.56607,-2.40912 -0.89002,-0.007 -1.70239,-0.0356 -2.3758,-0.0738 l -0.26357,-0.0152 c -0.15835,0.2121 -0.31588,0.41869 -0.47039,0.61206 l -0.16855,0.21094 c 0.0913,0.39655 0.14466,0.80744 0.14466,1.23126 0,2.01675 -1.09983,3.77747 -2.72799,4.7262 l -0.0981,0.48858 c -0.004,0.018 -0.31813,1.60811 -0.39309,3.65554 0.53097,-0.0415 1.33085,-0.14353 2.47008,-0.41186 l 1.0135,-0.23882 0,6.26066 -0.99038,-0.20318 c -0.0129,-0.002 -1.12372,-0.2242 -2.52237,-0.29843 0.0432,0.72659 0.14276,1.86031 0.3791,3.21734 l 0.16816,0.96576 -0.98053,0 -4.55467,0 0.16777,-0.96576 c 0.23634,-1.35703 0.33558,-2.49075 0.37875,-3.21734 -1.39865,0.0742 -2.50872,0.29595 -2.52237,0.29843 l -0.98964,0.20318 -3.5e-4,-6.26066 1.0135,0.23882 c 1.13884,0.26833 1.93946,0.37056 2.47008,0.41186 -0.0746,-2.04743 -0.38934,-3.63754 -0.39275,-3.65554 l -0.0981,-0.48819 c -1.62932,-0.94834 -2.72993,-2.70945 -2.72993,-4.72659 0,-0.42114 0.0523,-0.82979 0.1428,-1.22405 l -0.1746,-0.21815 c -0.15454,-0.19337 -0.31169,-0.39957 -0.47039,-0.61206 l -0.2617,0.0152 c -0.69385,0.0394 -1.53275,0.0695 -2.45535,0.0746 0.92035,0.41431 1.56456,1.33578 1.56456,2.40834 0,1.45853 -1.1862,2.64492 -2.64395,2.64492 -1.45848,0 -2.64507,-1.18639 -2.64507,-2.64492 0,-1.10456 0.68211,-2.05081 1.64674,-2.44546 -0.81389,-0.0341 -1.6581,-0.0913 -2.51554,-0.18596 0.36584,0.45372 0.59423,1.02258 0.59423,1.64957 0,1.45833 -1.1862,2.64487 -2.64395,2.64487 -1.4581,0 -2.64507,-1.18654 -2.64507,-2.64487 0,-0.95005 0.50863,-1.77817 1.26345,-2.24418 -0.59232,-0.1464 -1.16611,-0.32344 -1.72473,-0.52135 0.12004,0.30208 0.19085,0.6289 0.19085,0.97317 0,1.45833 -1.18619,2.64472 -2.64429,2.64472 -1.45853,0 -2.64472,-1.18639 -2.64472,-2.64472 0,-1.24263 0.86465,-2.2811 2.02246,-2.5627 -0.36471,-0.27365 -0.7124,-0.56262 -1.01614,-0.88738 l -0.39655,-0.01 c -0.38705,-0.009 -0.87714,-0.0337 -1.43273,-0.0846 0.20376,0.37476 0.33062,0.7976 0.33062,1.25341 0,1.45848 -1.1862,2.64487 -2.64469,2.64487 -1.45813,0 -2.64433,-1.18639 -2.64433,-2.64487 0,-0.81808 0.381,-1.54144 0.96692,-2.027 -0.79306,-0.24351 -1.53803,-0.53477 -2.23227,-0.87295 0.20756,0.3772 0.33632,0.80365 0.33632,1.2638 0,1.45852 -1.18619,2.64491 -2.64429,2.64491 -1.45853,0 -2.64472,-1.18639 -2.64472,-2.64491 0,-1.45791 1.18619,-2.64429 2.64472,-2.64429 0.0295,0 0.0568,0.008 0.0856,0.008 -0.68629,-0.53135 -1.29909,-1.12503 -1.83196,-1.78061 0.009,0.0903 0.0273,0.17836 0.0273,0.27136 0,1.4581 -1.18619,2.64468 -2.6439,2.64468 -1.45853,0 -2.64511,-1.18658 -2.64511,-2.64468 0,-1.45814 1.18658,-2.64472 2.64511,-2.64472 0.48664,0 0.93772,0.14187 1.33046,0.3725 -0.28974,-0.5789 -0.5374,-1.18732 -0.73283,-1.83099 l 0,-3.8e-4 c -0.0587,-0.19391 -0.10909,-0.38651 -0.15454,-0.57833 -0.33291,1.08017 -1.32822,1.87245 -2.51632,1.87245 -1.4581,0 -2.64429,-1.18639 -2.64429,-2.64468 0,-1.45814 1.18619,-2.64453 2.64429,-2.64453 0.96239,0 1.79826,0.52248 2.26066,1.29301 -0.004,-0.77619 0.0856,-1.52589 0.25038,-2.24267 -0.46698,0.41548 -1.07485,0.67567 -1.74749,0.67567 -1.45814,0 -2.64433,-1.18659 -2.64433,-2.64488 0,-1.45794 1.18619,-2.64452 2.64433,-2.64452 1.31003,0 2.39283,0.96009 2.60078,2.21218 0.2954,-0.61753 0.63246,-1.19717 0.98922,-1.73458 -1.40206,-0.064 -2.52539,-1.21555 -2.52539,-2.63297 0,-1.45814 1.1862,-2.64449 2.64472,-2.64449 0.31395,0 0.61125,0.0646 0.89114,0.16568 -0.61621,-1.16459 -0.65104,-2.0785 -0.081,-2.7155 0.62265,-0.69688 1.78499,-0.7056 2.12961,-0.52344 l 0.10115,0.0538 c 0.0352,-0.79023 0.0773,-1.74672 0.0773,-1.74672 l 1.72209,-2.63258 1.27598,-0.97219 c 0.45561,-0.33784 0.84002,-0.55863 1.10549,-0.69386 -0.007,-0.008 -0.0178,-0.0148 -0.0238,-0.0223 -0.6109,-0.67376 -0.78399,-1.28862 -0.78399,-1.76925 0,-0.16381 0.0205,-0.31188 0.05,-0.44142 0.28067,-1.22521 1.60206,-1.81509 1.86376,-1.92092 l 0.41889,-0.16929 c 2.52729,-3.68432 19.83579,-4.92128 26.10875,-4.92128 8.13405,0 14.67783,1.09475 17.85425,1.74711 6.20288,1.27442 7.94999,2.3438 8.41506,3.31693 l 0.0602,0.0239 c 0.16021,0.0632 1.57441,0.65499 1.86869,1.916 0.11511,0.49463 0.0852,1.26116 -0.66015,2.13113 0.23785,0.10739 0.72375,0.35222 1.33202,0.8033 l 1.30285,0.96521 1.69785,2.67365 0.0704,1.62665 c 0.55866,-0.18065 1.42214,0.0504 1.83044,0.38782 0.53741,0.44522 0.93699,1.29719 0.0973,2.88521 0.28102,-0.10266 0.581,-0.16758 0.89762,-0.16758 1.45809,0 2.64507,1.18635 2.64507,2.64449 0,1.39147 -1.08471,2.52349 -2.45077,2.62521 0.33403,0.5022 0.65103,1.04131 0.93279,1.61358 0.25829,-1.18883 1.31611,-2.08342 2.58185,-2.08342 1.45849,0 2.64468,1.18658 2.64468,2.64452 0,1.45829 -1.18619,2.64488 -2.64468,2.64488 z"
       style="fill:#e2ad3a;fill-opacity:1;fill-rule:nonzero;stroke:none"
       id="path14"
       inkscape:connector-curvature="0" /><path
       d="m 118.72134,290.71358 c 0,0 0,-50.08258 0,-59.32898 0,-5.39392 1.92585,-9.63158 4.23763,-11.94297 2.29742,-2.29743 39.22089,-27.80587 39.67724,-28.12097 0.45562,0.3151 37.37913,25.82354 39.67651,28.12097 2.31178,2.31139 4.23767,6.54905 4.23767,11.94297 0,9.2464 0,59.32898 0,59.32898 l -87.82905,0 z"
       style="fill:#e2ad3a;fill-opacity:1;fill-rule:nonzero;stroke:none"
       id="path16"
       inkscape:connector-curvature="0" /><path
       d="m 203.25238,272.37378 c 0,7.3423 0,13.24885 0,15.04179 -5.87191,0 -75.36116,0 -81.23303,0 0,-1.79294 0,-7.69949 0,-15.04179 l 81.23303,0 z"
       style="fill:#ee2722;fill-opacity:1;fill-rule:nonzero;stroke:none"
       id="path18"
       inkscape:connector-curvature="0" /><path
       d="m 122.01935,269.4651 c 0,-16.5071 0,-38.0805 0,-38.0805 0,-4.66636 1.6842,-8.01743 3.2643,-9.60242 0.64461,-0.6033 3.75553,-2.88215 8.34084,-6.15099 l 0,53.83391 -11.60514,0 z"
       style="fill:#fee702;fill-opacity:1;fill-rule:nonzero;stroke:none"
       id="path20"
       inkscape:connector-curvature="0" /><path
       d="m 133.62449,269.4651 0,-53.83391 c 3.24387,-2.31216 7.22398,-5.11899 11.6044,-8.18749 l 0,62.0214 -11.6044,0 z"
       style="fill:#ee2722;fill-opacity:1;fill-rule:nonzero;stroke:none"
       id="path22"
       inkscape:connector-curvature="0" /><path
       d="m 145.22889,269.4651 0,-62.0214 c 3.65969,-2.56362 7.59513,-5.30643 11.60475,-8.09123 l 0,70.11263 -11.60475,0 z"
       style="fill:#fee702;fill-opacity:1;fill-rule:nonzero;stroke:none"
       id="path24"
       inkscape:connector-curvature="0" /><path
       d="m 156.83364,269.4651 0,-70.11263 c 1.92473,-1.3362 3.86575,-2.68222 5.80257,-4.0218 1.92512,1.33279 3.86765,2.67916 5.80184,4.02215 l 0,70.11228 -11.60441,0 z"
       style="fill:#ee2722;fill-opacity:1;fill-rule:nonzero;stroke:none"
       id="path26"
       inkscape:connector-curvature="0" /><path
       d="m 168.43805,269.4651 0,-70.11228 c 3.97972,2.76324 7.92233,5.51135 11.60479,8.08976 l 0,62.02252 -11.60479,0 z"
       style="fill:#fee702;fill-opacity:1;fill-rule:nonzero;stroke:none"
       id="path28"
       inkscape:connector-curvature="0" /><path
       d="m 180.04284,269.4651 0,-62.02252 c 4.35882,3.05259 8.34766,5.8647 11.60514,8.18632 l 0,53.8362 -11.60514,0 z"
       style="fill:#ee2722;fill-opacity:1;fill-rule:nonzero;stroke:none"
       id="path30"
       inkscape:connector-curvature="0" /><path
       d="m 191.64798,269.4651 0,-53.8362 c 4.55731,3.24802 7.67882,5.53443 8.34009,6.15328 1.5793,1.58499 3.26431,4.93567 3.26431,9.60242 0,0 0,21.5734 0,38.0805 l -11.6044,0 z"
       style="fill:#fee702;fill-opacity:1;fill-rule:nonzero;stroke:none"
       id="path32"
       inkscape:connector-curvature="0" /><path
       d="m 140.81209,273.73267 -3.42223,0 -3.37414,4.98868 -0.7298,-0.68892 0,-4.29976 -2.79962,0 0,12.65273 2.79962,0 0,-4.93641 5.18826,5.15456 1.73799,-1.75862 -4.24217,-4.22572 4.84209,-6.88654 z"
       style="fill:#e2ad3a;fill-opacity:1;fill-rule:nonzero;stroke:none"
       id="path34"
       inkscape:connector-curvature="0" /><path
       d="m 162.85704,286.21724 -3.09956,-7.5845 -3.19539,7.5845 -3.00865,0 5.50526,-12.57548 1.21877,0 5.52761,12.57548 -2.94804,0 z"
       style="fill:#e2ad3a;fill-opacity:1;fill-rule:nonzero;stroke:none"
       id="path36"
       inkscape:connector-curvature="0" /><path
       d="m 193.19093,273.73267 -2.86776,0 -1.38615,7.07626 -2.57011,-6.94103 -1.3051,0 -2.3262,6.6782 -1.40547,-6.81343 -2.71891,0 2.81776,12.65273 1.09076,0 3.36467,-7.4758 3.32527,7.4758 1.1703,0 2.81094,-12.65273 z"
       style="fill:#e2ad3a;fill-opacity:1;fill-rule:nonzero;stroke:none"
       id="path38"
       inkscape:connector-curvature="0" /><path
       d="m 146.78433,257.0078 c 0,0 0,-17.45204 0,-20.50614 0,-3.05411 2.47237,-4.94475 3.78128,-5.81735 1.29149,-0.86085 11.78241,-7.9496 12.06533,-8.14048 0.28292,0.19088 10.7833,7.27963 12.0744,8.14048 1.30891,0.8726 3.78128,2.76324 3.78128,5.81735 0,3.0541 0,20.50614 0,20.50614 l -31.70229,0 z"
       style="fill:#e2ad3a;fill-opacity:1;fill-rule:nonzero;stroke:none"
       id="path40"
       inkscape:connector-curvature="0" /><path
       d="m 176.86602,247.32851 c -0.78588,-0.44917 -2.71666,0.13768 -3.45822,0.96463 0.71806,0.0754 2.40645,0.34125 3.05826,1.22595 0.16967,0.23068 0.25488,0.48443 0.25488,0.75804 0,0.11817 -0.0159,0.23975 -0.0477,0.36475 l -0.0512,0.2024 -0.18518,-0.0969 c -0.90099,-0.47264 -1.91829,-0.47567 -2.79656,-0.0886 0.82638,0.26209 1.82964,1.2434 2.04627,1.53578 0.34579,0.46771 0.67528,1.19302 0.67528,1.87986 0,0.42947 -0.12876,0.84417 -0.46356,1.17161 l -0.12155,0.1191 -0.1265,-0.14772 c -0.15568,-0.17022 -2.25954,-1.51511 -2.45876,-1.61358 -0.89378,-0.44123 -1.8289,-0.66205 -3.03138,-0.7158 l -0.46206,0.0115 c -0.61695,0.0324 -1.46112,0.0767 -1.75769,-0.54768 -0.36851,-0.77731 -0.2318,-1.62835 -0.0988,-2.4517 0.12953,-0.80369 0.26321,-1.63499 -0.0739,-2.39776 -0.25829,-0.58441 -0.94531,-2.13644 -1.74974,-2.11561 -0.82982,0.0216 -1.28769,2.2614 -1.30095,3.21242 -0.008,0.61772 0.10793,1.24979 0.22118,1.86147 0.14655,0.79306 0.29804,1.61338 0.18328,2.42541 -0.17875,1.2676 -1.04301,1.93116 -2.49886,1.91902 l -1.2256,-0.14353 -0.42947,-0.067 -0.85329,-0.18293 c -0.21361,-0.0883 -0.31736,-0.24352 -0.34125,-0.44522 -0.28706,0.0491 -1.57778,0.2693 -1.57778,0.2693 -0.28179,0.0562 -0.49087,0.0119 -0.67264,-0.12026 -0.49312,-0.35789 -0.60446,-1.26307 -0.609,-1.30134 l 0.32003,-0.0725 c 0.0409,0.09 0.43212,0.24317 0.82145,0.32135 3.9e-4,-0.005 1.10099,-0.0738 1.27179,-0.0848 0.0409,-0.0411 0.15567,-0.15603 0.30452,-0.30452 -0.22839,-0.0114 -0.55486,-0.0161 -1.07865,0.0273 -0.28517,0.0238 -0.67563,0.0235 -0.76692,-0.25585 -0.0871,-0.26472 0.20717,-0.54632 0.23746,-0.56451 0.38782,-0.13407 0.9741,-0.1867 1.76262,-0.17309 0.008,-0.58495 0.17801,-1.07578 0.51697,-1.45414 l 0.0761,-0.0846 c 0.6643,-0.73799 1.29149,-1.43503 1.30056,-2.46559 3.9e-4,-0.0163 3.9e-4,-0.0322 3.9e-4,-0.0481 0,-1.48575 -0.65597,-2.82195 -1.74218,-3.67369 -0.0303,0.18972 -0.0666,0.37646 -0.0666,0.57754 0,0.13066 0.003,0.26229 0.007,0.39237 l 0.003,0.80861 -0.17235,-0.015 c -0.684,-0.0282 -1.20361,0.13729 -1.58763,0.5058 -0.74272,0.71165 -0.84611,2.05992 -0.84724,3.41086 l 0.0815,0.80446 c 0.0909,0.66807 0.19426,1.42552 -0.0246,1.88587 -0.29579,0.62436 -1.14074,0.58007 -1.75696,0.54768 l -0.46205,-0.0115 c -1.20322,0.0538 -2.13756,0.27457 -3.03138,0.7158 -0.19996,0.0985 -2.30309,1.44336 -2.45911,1.61358 l -0.11553,0.12592 -0.13294,-0.0973 c -0.33442,-0.32763 -0.46357,-0.74214 -0.46357,-1.17181 0,-0.68703 0.33027,-1.41195 0.67567,-1.87927 0.19015,-0.25756 1.21799,-1.26535 2.05464,-1.53198 -0.87981,-0.39124 -1.90126,-0.39011 -2.80528,0.0844 l -0.18522,0.0969 -0.0511,-0.2024 c -0.0318,-0.125 -0.0477,-0.24658 -0.0477,-0.36475 0,-0.27361 0.0852,-0.52736 0.25527,-0.75804 0.65216,-0.88431 2.33981,-1.15055 3.05787,-1.22595 -0.74117,-0.82695 -2.67234,-1.41342 -3.45783,-0.96463 l -0.26361,0.15075 0.0171,-0.30374 c 0.0329,-0.56169 0.27268,-1.02033 0.71278,-1.36192 0.87372,-0.67757 2.36556,-0.74536 3.465,-0.65333 -0.0723,-0.0534 -0.14163,-0.0985 -0.21547,-0.1549 -0.28862,-0.22082 -0.58744,-0.44898 -0.84802,-0.53857 -0.69761,-0.23897 -1.40167,-0.27419 -2.15195,-0.10719 l -0.43025,0.0954 0.26135,-0.35447 c 1.34525,-1.82436 2.9098,-2.42467 5.21514,-2.09478 -0.94986,-0.7264 -2.37732,-1.61758 -3.71651,-1.571 l -0.4821,0.0167 0.42187,-0.33539 0.32612,-0.27136 0.47454,-0.37646 c 0.51053,-0.24161 1.10778,-0.27873 1.57061,-0.28404 0.73624,-0.008 1.69711,0.1049 2.43603,0.40903 -0.43746,-0.61811 -0.88548,-1.15439 -1.50433,-1.57363 l -0.1981,-0.13407 0.19582,-0.13748 c 0.52111,-0.36358 1.22369,-0.45674 2.09021,-0.27574 1.68877,0.35338 3.50669,1.6619 4.3096,2.73636 0.0125,-0.0608 0.0458,-0.11022 0.0458,-0.17723 0,-0.17992 -0.0447,-0.38251 -0.13519,-0.60675 -0.59915,-1.49107 -3.06132,-3.50705 -4.09755,-3.78733 -0.18747,-0.0504 -0.58057,0.0125 -0.92713,0.0678 l -0.85631,0.0886 c -1.14679,-0.05 -2.29397,-0.21889 -2.61893,-1.64406 l -0.067,-0.29618 0.45677,0.16704 c 0.89836,0.3291 1.82777,0.66806 2.62347,0.15299 -0.006,-0.43289 -2.64771,-2.29626 -3.09386,-2.3974 l -0.45561,-0.1034 0.42001,-0.20562 c 0.94986,-0.46473 2.11333,-0.0121 2.90107,0.42416 -0.1867,-0.36397 -0.31813,-0.75253 -0.31813,-1.15094 0,-0.15719 0.0159,-0.31398 0.0485,-0.46585 0.13333,-0.62304 0.53403,-1.09681 1.12713,-1.33431 l 0.12271,0.30681 c -0.0273,0.0106 -0.0614,0.031 -0.0837,0.0966 -0.0163,0.0477 -0.0242,0.10564 -0.0242,0.17421 0,0.54725 0.51394,1.7471 1.42366,3.30254 0.97599,1.67136 2.63293,2.9727 4.78224,3.81917 -0.1886,-0.86807 -0.43704,-1.61835 -0.78018,-2.23984 -0.31623,-0.57149 -0.77034,-0.88962 -1.25096,-1.22594 l -0.88548,-0.69878 c -0.39841,-0.38934 -0.62909,-0.91465 -0.62909,-1.40055 0,-0.0932 0.008,-0.18445 0.0258,-0.27307 0.0617,-0.31778 0.26395,-0.74877 0.87411,-0.99872 0.6927,-0.28291 1.11876,0.0538 1.49297,0.35032 0.20679,0.16363 0.40182,0.31813 0.64421,0.39426 0.2102,0.0667 0.39768,0.0466 0.55788,-0.0583 0.2102,-0.13861 0.35525,-0.4147 0.38744,-0.73927 0.0545,-0.54086 -0.27648,-0.88513 -0.65938,-1.28393 -0.41547,-0.43211 -0.88625,-0.92259 -0.8529,-1.73648 0.0246,-0.59158 0.34086,-1.18166 0.84647,-1.5782 0.46244,-0.36359 1.02144,-0.5124 1.53275,-0.40978 0.44538,-0.10262 1.00438,0.0462 1.46682,0.40978 0.50561,0.39654 0.82223,0.98662 0.84647,1.5782 0.0352,0.86617 -0.367,1.21839 -0.75595,1.55925 -0.28633,0.25072 -0.55676,0.48702 -0.68059,0.94419 -0.12119,0.4465 -0.0216,0.96649 0.23103,1.20853 0.16021,0.15378 0.37568,0.18973 0.63967,0.10603 0.24166,-0.0761 0.4363,-0.23063 0.64309,-0.39426 0.37495,-0.29691 0.80066,-0.63323 1.49296,-0.35032 0.61017,0.24922 0.81242,0.68059 0.87451,0.99872 0.0174,0.0886 0.0261,0.17988 0.0261,0.27307 0,0.4859 -0.23142,1.01121 -0.62948,1.40055 l -0.88583,0.69878 c -0.48063,0.33667 -0.93434,0.65445 -1.25096,1.22633 -0.34237,0.61924 -0.59085,1.37026 -0.77983,2.23945 2.14896,-0.84647 3.80551,-2.14742 4.77321,-3.80327 0.91728,-1.56909 1.43273,-2.7708 1.43273,-3.31844 0,-0.0686 -0.008,-0.12651 -0.0246,-0.17421 -0.022,-0.0656 -0.056,-0.086 -0.0833,-0.0966 l 0.12271,-0.30681 c 0.59345,0.2375 0.99341,0.71127 1.12709,1.33431 0.0322,0.15187 0.0481,0.30866 0.0481,0.46585 0,0.39841 -0.13101,0.78623 -0.31813,1.15055 0.78817,-0.43591 1.95164,-0.88924 2.90188,-0.42377 l 0.41924,0.20562 -0.45561,0.1034 c -0.44538,0.10114 -3.0863,1.96335 -3.09386,2.3974 0.79837,0.51468 1.72663,0.17611 2.62459,-0.15299 l 0.45639,-0.16704 -0.0678,0.29618 c -0.32535,1.42517 -1.47175,1.59407 -2.61819,1.64406 l -0.85671,-0.0886 c -0.34652,-0.0557 -0.73965,-0.11817 -0.92713,-0.0678 -1.03583,0.28028 -3.49835,2.29626 -4.09789,3.78733 -0.0897,0.22424 -0.13519,0.42683 -0.13519,0.60675 0,0.067 0.0337,0.11646 0.0462,0.17723 0.80256,-1.07427 2.62009,-2.38224 4.30887,-2.73559 0.86651,-0.18177 1.57021,-0.0894 2.09059,0.27497 l 0.19655,0.13748 -0.19806,0.13407 c -0.61885,0.41924 -1.0669,0.95517 -1.50549,1.57363 0.7397,-0.30413 1.70014,-0.41698 2.43603,-0.40903 0.46357,0.005 1.0612,0.0424 1.57061,0.28404 l 0.4757,0.37743 0.69572,0.5789 -0.4306,0.0102 c -1.33958,-0.0466 -2.76704,0.8446 -3.71651,1.57138 2.30534,-0.33027 3.86989,0.27004 5.21514,2.0944 l 0.26131,0.35447 -0.42986,-0.0954 c -0.75063,-0.167 -1.45434,-0.13178 -2.15269,0.10719 -0.26019,0.0896 -0.55901,0.31794 -0.84802,0.53857 -0.0734,0.0564 -0.14275,0.1015 -0.21473,0.1549 1.09909,-0.092 2.59093,-0.0244 3.46465,0.65333 0.44084,0.34159 0.68059,0.79988 0.71317,1.3623 l 0.0174,0.30336 -0.26395,-0.15075 z"
       style="fill:#231f20;fill-opacity:1;fill-rule:nonzero;stroke:none"
       id="path42"
       inkscape:connector-curvature="0" /><path
       d="m 187.49063,299.65054 c 0,-1.03165 -11.095,-4.20032 -24.78054,-4.20032 -13.68631,0 -24.78053,3.0109 -24.78053,4.20032 0,1.24945 11.09422,4.19977 24.78053,4.19977 13.68554,0 24.78054,-3.12228 24.78054,-4.19977 z"
       style="fill:#ee2722;fill-opacity:1;fill-rule:nonzero;stroke:none"
       id="path44"
       inkscape:connector-curvature="0" /><path
       d="m 170.14082,319.07198 c 1.22409,2.03685 2.45535,5.13679 2.45535,9.39525 0,2.82308 -0.84534,5.35188 -1.97131,7.4709 3.3143,-0.1426 11.25862,-1.04266 12.69248,-6.34967 1.2593,-4.65934 -0.82943,-9.14242 -2.51666,-11.74945 -3.44685,0.53954 -7.05469,0.96522 -10.65986,1.23297 l 0,0 z"
       style="fill:#ee2722;fill-opacity:1;fill-rule:nonzero;stroke:none"
       id="path46"
       inkscape:connector-curvature="0" /><path
       d="m 155.19071,319.07198 c -1.22444,2.03685 -2.45496,5.13679 -2.45496,9.39525 0,2.82308 0.84495,5.35188 1.97095,7.4709 -3.31429,-0.1426 -11.25862,-1.04266 -12.69251,-6.34967 -1.25965,-4.65934 0.82943,-9.14242 2.5167,-11.74945 3.44646,0.53954 7.05465,0.96522 10.65982,1.23297 z"
       style="fill:#ee2722;fill-opacity:1;fill-rule:nonzero;stroke:none"
       id="path48"
       inkscape:connector-curvature="0" /><path
       d="m 178.52373,311.76888 c -0.43746,-0.19011 -2.8337,-1.22901 -3.85969,-1.674 0.85558,-0.71883 2.85527,-2.39892 3.22114,-2.70568 0.43743,0.18976 2.83367,1.22862 3.85966,1.67326 -0.85554,0.71976 -2.8564,2.39965 -3.22111,2.70642 l 0,0 z"
       style="fill:#ee2722;fill-opacity:1;fill-rule:nonzero;stroke:none"
       id="path50"
       inkscape:connector-curvature="0" /><path
       d="m 146.83622,311.76888 c 0.43743,-0.19011 2.83371,-1.22901 3.8597,-1.674 -0.85632,-0.71883 -2.85605,-2.39892 -3.22192,-2.70568 -0.43743,0.18976 -2.83367,1.22862 -3.85966,1.67326 0.85632,0.71976 2.8564,2.39965 3.22188,2.70642 z"
       style="fill:#ee2722;fill-opacity:1;fill-rule:nonzero;stroke:none"
       id="path52"
       inkscape:connector-curvature="0" /><path
       d="m 166.1134,337.86476 c -0.91693,-0.88967 -2.10425,-1.43126 -3.40331,-1.43126 -1.2987,0 -2.48676,0.54159 -3.40369,1.43126 -1.38049,-2.10557 -3.03591,-5.45074 -3.03591,-9.39753 0,-3.50934 1.16688,-7.29023 1.83797,-9.17442 1.56001,0.0846 3.10526,0.11739 4.6111,0.0822 1.54826,0.0363 3.08552,0.0163 4.60462,-0.0489 0.67264,1.89517 1.82475,5.65167 1.82475,9.14111 0,3.94679 -1.6543,7.29177 -3.03553,9.39753 z"
       style="fill:#ee2722;fill-opacity:1;fill-rule:nonzero;stroke:none"
       id="path54"
       inkscape:connector-curvature="0" /><path
       d="m 160.16198,332.8473 c 0,-1.40473 1.14299,-2.54777 2.54811,-2.54777 1.4047,0 2.54734,1.14304 2.54734,2.54777 0,1.40508 -1.14264,2.54811 -2.54734,2.54811 -1.40512,0 -2.54811,-1.14303 -2.54811,-2.54811 z"
       style="fill:#e2ad3a;fill-opacity:1;fill-rule:nonzero;stroke:none"
       id="path56"
       inkscape:connector-curvature="0" /><path
       d="m 160.16198,328.02336 c 0,-1.40493 1.14299,-2.54792 2.54811,-2.54792 1.4047,0 2.54734,1.14299 2.54734,2.54792 0,1.40493 -1.14264,2.54812 -2.54734,2.54812 -1.40512,0 -2.54811,-1.14319 -2.54811,-2.54812 z"
       style="fill:#e2ad3a;fill-opacity:1;fill-rule:nonzero;stroke:none"
       id="path58"
       inkscape:connector-curvature="0" /><path
       d="m 160.16198,323.19962 c 0,-1.40489 1.14299,-2.54792 2.54811,-2.54792 1.4047,0 2.54734,1.14303 2.54734,2.54792 0,1.40454 -1.14264,2.54792 -2.54734,2.54792 -1.40512,0 -2.54811,-1.14338 -2.54811,-2.54792 z"
       style="fill:#e2ad3a;fill-opacity:1;fill-rule:nonzero;stroke:none"
       id="path60"
       inkscape:connector-curvature="0" /><path
       d="m 165.43847,312.15574 c 0,-1.50677 -1.22141,-2.72857 -2.72799,-2.72857 -1.507,0 -2.72841,1.2218 -2.72841,2.72857 0,1.50681 1.22141,2.7286 2.72841,2.7286 1.50658,0 2.72799,-1.22179 2.72799,-2.7286 z"
       style="fill:#ee2722;fill-opacity:1;fill-rule:nonzero;stroke:none"
       id="path62"
       inkscape:connector-curvature="0" /><path
       d="m 189.95389,305.77713 c 0,-1.50681 1.22141,-2.7286 2.72802,-2.7286 1.50662,0 2.72842,1.22179 2.72842,2.7286 0,1.50677 -1.2218,2.72857 -2.72842,2.72857 -1.50661,0 -2.72802,-1.2218 -2.72802,-2.72857 l 0,0 z"
       style="fill:#ee2722;fill-opacity:1;fill-rule:nonzero;stroke:none"
       id="path64"
       inkscape:connector-curvature="0" /><path
       d="m 135.37803,305.77713 c 0,-1.50681 -1.22141,-2.7286 -2.72841,-2.7286 -1.50658,0 -2.72876,1.22179 -2.72876,2.7286 0,1.50677 1.22218,2.72857 2.72876,2.72857 1.507,0 2.72841,-1.2218 2.72841,-2.72857 z"
       style="fill:#ee2722;fill-opacity:1;fill-rule:nonzero;stroke:none"
       id="path66"
       inkscape:connector-curvature="0" /><path
       d="m 186.30443,318.30165 c 0.53326,-0.65636 1.3373,-1.08432 2.24852,-1.08432 1.6066,0 2.90868,1.30227 2.90868,2.90867 0,1.60621 -1.30208,2.90868 -2.90868,2.90868 -0.017,0 -0.0326,-0.005 -0.0489,-0.005 0.10153,0.31627 0.19659,0.63002 0.28067,0.93908 0.49765,-0.39655 1.11914,-0.64329 1.80427,-0.64329 1.60659,0 2.90867,1.30228 2.90867,2.90868 0,1.60621 -1.30208,2.90867 -2.90867,2.90867 -0.36471,0 -0.71011,-0.075 -1.03165,-0.19752 0.0242,0.58744 0.0261,1.1262 0.0114,1.5924 l 0.0185,0.0595 c 2.37693,-0.28936 7.0865,-1.42479 7.40916,-5.88968 0.35866,-4.96254 -1.5865,-8.58136 -4.04829,-10.54964 -2.11332,1.02126 -4.68265,1.99613 -7.51861,2.84581 0.31701,0.43083 0.60334,0.86391 0.87489,1.29793 l 0,0 z"
       style="fill:#ee2722;fill-opacity:1;fill-rule:nonzero;stroke:none"
       id="path68"
       inkscape:connector-curvature="0" /><path
       d="m 139.02713,318.30165 c -0.53364,-0.65636 -1.33694,-1.08432 -2.24855,-1.08432 -1.60621,0 -2.90868,1.30227 -2.90868,2.90867 0,1.60621 1.30247,2.90868 2.90868,2.90868 0.0171,0 0.0322,-0.005 0.0489,-0.005 -0.10188,0.31627 -0.19655,0.63002 -0.28063,0.93908 -0.4973,-0.39655 -1.11918,-0.64329 -1.80431,-0.64329 -1.6062,0 -2.90867,1.30228 -2.90867,2.90868 0,1.60621 1.30247,2.90867 2.90867,2.90867 0.36471,0 0.71015,-0.075 1.03169,-0.19752 -0.0246,0.58744 -0.0261,1.1262 -0.0114,1.5924 l -0.019,0.0595 c -2.37693,-0.28936 -7.08645,-1.42479 -7.40912,-5.88968 -0.35831,-4.96254 1.58689,-8.58136 4.04825,-10.54964 2.11336,1.02126 4.68343,1.99613 7.519,2.84581 -0.31701,0.43083 -0.6033,0.86391 -0.87486,1.29793 z"
       style="fill:#ee2722;fill-opacity:1;fill-rule:nonzero;stroke:none"
       id="path70"
       inkscape:connector-curvature="0" /><path
       d="m 172.72683,183.43544 c -0.38519,3.91344 -2.81513,6.54374 -5.7776,6.25477 l -0.002,0 c -2.96359,-0.29164 -4.83681,-3.34385 -4.45279,-7.25803 0.3848,-3.91383 2.81436,-6.54417 5.77721,-6.25481 2.96588,0.29125 4.83832,3.34385 4.45504,7.25807 m -4.77546,-3.97558 c -1.01311,-0.0988 -1.98608,1.37592 -2.17468,3.29386 -0.18825,1.91825 0.48063,3.5544 1.49296,3.65399 1.01273,0.0989 1.98608,-1.37592 2.17468,-3.29382 0.18786,-1.91867 -0.48059,-3.55482 -1.49296,-3.65403 z"
       style="fill:#e2ad3a;fill-opacity:1;fill-rule:nonzero;stroke:none"
       id="path72"
       inkscape:connector-curvature="0" /><path
       d="m 154.81235,190.69157 c -2.83445,0 -5.14017,-2.30573 -5.14017,-5.14017 0,-2.67043 1.75695,-4.79629 4.36452,-5.0417 -0.99911,-1.91449 -4.16871,-2.83483 -4.16871,-2.83483 l 3.87784,-0.94644 c 3.65291,2.2031 6.20556,5.42913 6.20707,8.82297 0.001,2.83444 -2.3065,5.14017 -5.14055,5.14017 m 0,-6.98233 c -1.01765,0 -1.84255,0.8249 -1.84255,1.84216 0,1.01765 0.8249,1.84255 1.84255,1.84255 1.0173,0 1.84216,-0.8249 1.84216,-1.84255 0,-1.01726 -0.82486,-1.84216 -1.84216,-1.84216 z"
       style="fill:#e2ad3a;fill-opacity:1;fill-rule:nonzero;stroke:none"
       id="path74"
       inkscape:connector-curvature="0" /><path
       d="m 144.14721,193.30712 -2.52046,-2.03607 2.64053,-1.00934 -4.10623,-8.96651 3.12683,-1.43161 5.34505,11.67219 -4.48572,1.77134 z"
       style="fill:#e2ad3a;fill-opacity:1;fill-rule:nonzero;stroke:none"
       id="path76"
       inkscape:connector-curvature="0" /><path
       d="m 185.74124,184.38793 -1.16347,2.81172 -1.56037,-0.74761 -2.99694,6.37104 -3.21013,-1.18995 -1.73461,-8.60297 1.0669,-2.90867 5.0118,2.22773 1.38957,-2.97002 3.12682,1.43161 -1.37937,2.93291 1.4498,0.64421 m -8.04772,-0.48517 0.99872,3.70821 1.23468,-2.63828 -2.2334,-1.06993 z"
       style="fill:#e2ad3a;fill-opacity:1;fill-rule:nonzero;stroke:none"
       id="path78"
       inkscape:connector-curvature="0" /><path
       d="m 163.82923,153.74991 c -31.70453,0 -50.32004,13.67076 -59.91866,13.67076 -9.59862,0 -12.216426,-4.07214 -12.216426,-4.07214 0,0 -3.490408,15.1251 -2.326939,17.16117 1.16347,2.03607 6.980816,3.49041 15.706835,3.49041 16.57944,0 32.57714,-13.08903 58.75519,-13.08903 26.17806,0 42.17576,13.08903 58.7552,13.08903 8.72602,0 14.54336,-1.45434 15.70683,-3.49041 1.16347,-2.03607 -2.32694,-17.16117 -2.32694,-17.16117 0,0 -2.6178,4.07214 -12.21642,4.07214 -9.59862,0 -28.21413,-13.67076 -59.91867,-13.67076 z"
       style="fill:#ee2722;fill-opacity:1;fill-rule:nonzero;stroke:none"
       id="path80"
       inkscape:connector-curvature="0" /><path
       d="m 107.71345,169.92523 -3.53889,-0.25829 -3.91193,4.86637 -0.651427,-0.7397 0.324181,-4.43685 -2.882922,-0.2102 -0.954006,13.05382 2.882534,0.21058 0.372272,-5.08602 4.965218,5.69502 1.94063,-1.67477 -4.12403,-4.68456 5.57837,-6.7354 z"
       style="fill:#e2ad3a;fill-opacity:1;fill-rule:nonzero;stroke:none"
       id="path82"
       inkscape:connector-curvature="0" /><path
       d="m 130.90558,173.86106 -9.33238,-9.54751 -1.17864,0.44728 -0.65786,13.33219 2.83181,0.15148 0.34768,-8.88964 6.04306,6.46839 1.94633,-1.96219 z"
       style="fill:#e2ad3a;fill-opacity:1;fill-rule:nonzero;stroke:none"
       id="path84"
       inkscape:connector-curvature="0" /><path
       d="m 148.99388,156.64951 -2.90185,0.67601 0.2776,7.44023 -4.02327,-5.52306 -1.29754,0.30223 -1.00101,6.41459 -2.99314,-6.52974 -2.739,0.63743 5.80144,12.0884 1.09758,-0.25565 1.63498,-8.31923 5.1114,6.74862 1.1718,-0.27267 -0.13899,-13.40716 z"
       style="fill:#e2ad3a;fill-opacity:1;fill-rule:nonzero;stroke:none"
       id="path86"
       inkscape:connector-curvature="0" /><path
       d="m 158.49593,155.79622 -7.76216,0.75672 1.26915,13.0269 7.47277,-0.72756 -0.2185,-2.24398 -4.59559,0.44766 -0.33857,-3.47412 4.77659,-0.46507 -0.1409,-1.44755 -4.77697,0.46511 -0.35222,-3.61804 4.8849,-0.47609 -0.2185,-2.24398 z"
       style="fill:#e2ad3a;fill-opacity:1;fill-rule:nonzero;stroke:none"
       id="path88"
       inkscape:connector-curvature="0" /><path
       d="m 169.35571,158.50074 c -0.63021,-0.15109 -1.19414,-0.2299 -1.69292,-0.23746 -1.16766,-0.0174 -2.03231,0.36017 -2.59357,1.13357 -0.56168,0.77297 -0.85216,1.81904 -0.87186,3.13818 -0.0193,1.27823 0.31246,2.30344 0.99418,3.07567 0.68172,0.77189 1.51115,1.16498 2.48866,1.17976 0.61354,0.009 1.07939,-0.056 1.39713,-0.19655 0.28975,-0.12841 0.54125,-0.27497 0.76277,-0.4344 l 0.50072,2.50305 c -0.31095,0.12763 -0.64727,0.23215 -1.0154,0.30902 -0.67186,0.14016 -1.28392,0.20605 -1.83421,0.1981 -2.03797,-0.0307 -3.61199,-0.70937 -4.72205,-2.03646 -1.11007,-1.32783 -1.65166,-2.91209 -1.62362,-4.75386 0.0311,-2.0804 0.59763,-3.70705 1.69901,-4.87847 1.10095,-1.1718 2.66438,-1.74217 4.68983,-1.71223 0.53896,0.008 1.14342,0.0905 1.81338,0.24731 0.67035,0.15602 1.21916,0.36963 1.64635,0.64119 l -0.036,2.39927 c -0.43859,-0.23293 -0.97297,-0.42455 -1.60245,-0.57569 z"
       style="fill:#e2ad3a;fill-opacity:1;fill-rule:nonzero;stroke:none"
       id="path90"
       inkscape:connector-curvature="0" /><path
       d="m 184.00969,157.96636 -2.86249,-0.4007 -0.75858,5.41929 -3.56464,-0.49956 0.7582,-5.4189 -2.86245,-0.40069 -1.81451,12.96252 2.86245,0.40108 0.75331,-5.38333 3.56502,0.49882 -0.75331,5.38329 2.86249,0.40031 1.81451,-12.96213 z"
       style="fill:#e2ad3a;fill-opacity:1;fill-rule:nonzero;stroke:none"
       id="path92"
       inkscape:connector-curvature="0" /><path
       d="m 195.35235,160.55954 -7.55612,-1.92927 -3.23778,12.68228 7.27471,1.85729 0.55789,-2.18453 -4.47436,-1.14187 0.86353,-3.3817 4.65046,1.18732 0.3594,-1.40966 -4.65047,-1.18732 0.89948,-3.5226 4.75615,1.21385 0.55711,-2.18379 z"
       style="fill:#e2ad3a;fill-opacity:1;fill-rule:nonzero;stroke:none"
       id="path94"
       inkscape:connector-curvature="0" /><path
       d="m 205.60619,163.93938 -7.58147,-2.60834 -4.25737,12.37776 2.73334,0.94039 3.5245,-10.2459 4.8474,1.6676 0.7336,-2.13151 z"
       style="fill:#e2ad3a;fill-opacity:1;fill-rule:nonzero;stroke:none"
       id="path96"
       inkscape:connector-curvature="0" /><path
       d="m 214.39244,167.86077 -7.29631,-2.75339 -4.62207,12.24594 7.02475,2.65078 0.79574,-2.10879 -4.32023,-1.63045 1.23277,-3.26543 4.49029,1.69444 0.51356,-1.36041 -4.4903,-1.69482 1.28393,-3.40179 4.59175,1.73345 0.79612,-2.10953 z"
       style="fill:#e2ad3a;fill-opacity:1;fill-rule:nonzero;stroke:none"
       id="path98"
       inkscape:connector-curvature="0" /><path
       d="m 226.33844,169.97259 -1.25096,-0.17499 -6.94673,6.67634 1.05023,-7.50198 -2.73633,-0.38289 -1.81454,12.96252 1.25096,0.17537 6.94029,-6.63542 -1.04414,7.46106 2.73671,0.38289 1.81451,-12.9629 z"
       style="fill:#e2ad3a;fill-opacity:1;fill-rule:nonzero;stroke:none"
       id="path100"
       inkscape:connector-curvature="0" /><path
       d="m 235.96432,160.73072 c 0,0 -2.6178,4.07215 -12.21642,4.07215 -5.23561,0 -7.85342,-3.19954 -7.85342,-3.19954 0,0 13.67076,-6.98082 20.06984,-0.87261 l 0,0 z"
       style="fill:#ee2722;fill-opacity:1;fill-rule:nonzero;stroke:none"
       id="path102"
       inkscape:connector-curvature="0" /><path
       d="m 91.694144,160.73072 c 0,0 2.617806,4.07215 12.216426,4.07215 5.23561,0 7.85342,-3.19954 7.85342,-3.19954 0,0 -13.670766,-6.98082 -20.069846,-0.87261 z"
       style="fill:#ee2722;fill-opacity:1;fill-rule:nonzero;stroke:none"
       id="path104"
       inkscape:connector-curvature="0" /><path
       d="m 114.67266,169.3594 c 0,-1.07066 -0.86806,-1.93873 -1.93911,-1.93873 -1.07067,0 -1.93951,0.86807 -1.93951,1.93873 0,1.07109 0.86884,1.93911 1.93951,1.93911 1.07105,0 1.93911,-0.86802 1.93911,-1.93911 z"
       style="fill:#e2ad3a;fill-opacity:1;fill-rule:nonzero;stroke:none"
       id="path106"
       inkscape:connector-curvature="0" /><path
       d="m 132.319,162.57288 c 0,-1.07066 -0.8688,-1.93872 -1.93951,-1.93872 -1.07105,0 -1.93911,0.86806 -1.93911,1.93872 0,1.07105 0.86806,1.93912 1.93911,1.93912 1.07071,0 1.93951,-0.86807 1.93951,-1.93912 z"
       style="fill:#e2ad3a;fill-opacity:1;fill-rule:nonzero;stroke:none"
       id="path108"
       inkscape:connector-curvature="0" /></g></svg>