<?xml version="1.0" encoding="UTF-8" standalone="no"?>
<!-- Created with Inkscape (http://www.inkscape.org/) -->

<svg
   xmlns:dc="http://purl.org/dc/elements/1.1/"
   xmlns:cc="http://creativecommons.org/ns#"
   xmlns:rdf="http://www.w3.org/1999/02/22-rdf-syntax-ns#"
   xmlns:svg="http://www.w3.org/2000/svg"
   xmlns="http://www.w3.org/2000/svg"
   xmlns:sodipodi="http://sodipodi.sourceforge.net/DTD/sodipodi-0.dtd"
   xmlns:inkscape="http://www.inkscape.org/namespaces/inkscape"
   id="svg5701"
   version="1.1"
   inkscape:version="0.48.5 r10040"
   width="1000"
   height="750"
   xml:space="preserve"
   sodipodi:docname="royal-mouscron-peruwelz-vector-logo.ai"
   inkscape:export-filename="/Users/coleman/Dropbox/dev/clubs/crests/belgium/belgian-pro-league/royal-mouscron-peruwelz.png"
   inkscape:export-xdpi="240.39265"
   inkscape:export-ydpi="240.39265"><metadata
     id="metadata5707"><rdf:RDF><cc:Work
         rdf:about=""><dc:format>image/svg+xml</dc:format><dc:type
           rdf:resource="http://purl.org/dc/dcmitype/StillImage" /><dc:title></dc:title></cc:Work></rdf:RDF></metadata><defs
     id="defs5705"><clipPath
       clipPathUnits="userSpaceOnUse"
       id="clipPath5715"><path
         d="M 0,600 800,600 800,0 0,0 0,600 z"
         id="path5717" /></clipPath><linearGradient
       x1="0"
       y1="0"
       x2="1"
       y2="0"
       gradientUnits="userSpaceOnUse"
       gradientTransform="matrix(203.23828,0,0,-203.23828,298.38086,217.48242)"
       spreadMethod="pad"
       id="linearGradient5751"><stop
         style="stop-opacity:1;stop-color:#ad0f0a"
         offset="0"
         id="stop5753" /><stop
         style="stop-opacity:1;stop-color:#e31f1a"
         offset="0.199997"
         id="stop5755" /><stop
         style="stop-opacity:1;stop-color:#ea5d40"
         offset="0.502533"
         id="stop5757" /><stop
         style="stop-opacity:1;stop-color:#e31f1a"
         offset="0.809998"
         id="stop5759" /><stop
         style="stop-opacity:1;stop-color:#ad0f0a"
         offset="1"
         id="stop5761" /></linearGradient><clipPath
       clipPathUnits="userSpaceOnUse"
       id="clipPath5769"><path
         d="M 0,600 800,600 800,0 0,0 0,600 z"
         id="path5771" /></clipPath></defs><sodipodi:namedview
     pagecolor="#ffffff"
     bordercolor="#666666"
     borderopacity="1"
     objecttolerance="10"
     gridtolerance="10"
     guidetolerance="10"
     inkscape:pageopacity="0"
     inkscape:pageshadow="2"
     inkscape:window-width="665"
     inkscape:window-height="480"
     id="namedview5703"
     showgrid="false"
     inkscape:zoom="0.31466667"
     inkscape:cx="500"
     inkscape:cy="375"
     inkscape:window-x="0"
     inkscape:window-y="0"
     inkscape:window-maximized="0"
     inkscape:current-layer="g5709" /><g
     id="g5709"
     inkscape:groupmode="layer"
     inkscape:label="royal-mouscron-peruwelz-vector-logo"
     transform="matrix(1.25,0,0,-1.25,0,750)"><g
       id="g5711"><g
         id="g5713"
         clip-path="url(#clipPath5715)"><g
           id="g5719"
           transform="translate(520.4688,379.5669)"><path
             d="m 0,0 -24.979,48.901 -2.55,4.991 -5.376,-1.6 c -0.112,-0.036 -14.2,-4.167 -31.831,-4.166 -21.711,0.003 -38.868,5.942 -51.078,17.612 l -4.655,4.45 -4.654,-4.45 c -12.211,-11.67 -29.367,-17.609 -51.078,-17.612 -17.633,-10e-4 -31.719,4.13 -31.832,4.166 l -5.369,1.598 -2.556,-4.988 L -240.939,0 l -2.285,-4.473 3.638,-3.466 c 10.055,-9.597 13.331,-19.565 13.339,-30.648 0.002,-9.535 -2.459,-19.885 -5.199,-31.381 -3.002,-12.599 -6.243,-26.184 -6.244,-40.539 -0.001,-11.068 1.93,-22.591 7.382,-34.451 6.72,-14.615 17.948,-28.107 34.295,-41.25 18.103,-14.552 41.926,-28.256 72.823,-41.912 l 2.721,-1.202 2.723,1.202 c 30.896,13.656 54.719,27.36 72.822,41.912 16.347,13.143 27.576,26.635 34.293,41.25 5.451,11.858 7.383,23.383 7.383,34.451 -0.002,14.356 -3.244,27.942 -6.242,40.539 -2.742,11.496 -5.203,21.846 -5.201,31.381 0.009,11.083 3.283,21.052 13.339,30.648 L 2.287,-4.473 0,0 z"
             style="fill:#e20613;fill-opacity:1;fill-rule:nonzero;stroke:none"
             id="path5721" /></g><g
           id="g5723"
           transform="translate(518.4746,372.3037)"><path
             d="m 0,0 c -10.235,-9.739 -13.641,-20.057 -13.631,-31.324 0.002,-9.695 2.488,-20.101 5.227,-31.597 3,-12.598 6.216,-26.109 6.215,-40.323 0,-10.96 -1.907,-22.335 -7.295,-34.06 -6.644,-14.451 -17.762,-27.832 -34.032,-40.91 -18.013,-14.483 -41.765,-28.156 -72.613,-41.787 l -2.346,-1.037 -2.344,1.037 c -30.849,13.631 -54.6,27.304 -72.615,41.787 -16.268,13.078 -27.387,26.459 -34.031,40.908 -5.39,11.729 -7.297,23.104 -7.297,34.062 -0.001,14.214 3.215,27.725 6.218,40.323 2.737,11.496 5.224,21.902 5.225,31.597 0.009,11.266 -3.395,21.584 -13.63,31.324 l -3.133,2.985 1.97,3.854 24.979,48.901 2.2,4.297 4.629,-1.377 c 0.169,-0.05 14.318,-4.203 32.097,-4.204 21.873,-0.002 39.304,5.997 51.724,17.871 l 4.008,3.832 4.01,-3.832 c 12.416,-11.874 29.85,-17.873 51.723,-17.871 17.775,10e-4 31.929,4.154 32.097,4.204 l 4.632,1.379 2.197,-4.299 L 1.164,6.839 3.133,2.985 0,0 z"
             style="fill:#ffffff;fill-opacity:1;fill-rule:nonzero;stroke:none"
             id="path5725" /></g><g
           id="g5727"
           transform="translate(310.5083,425.4043)"><path
             d="m 0,0 -24.98,-48.901 c 58.988,-56.213 -85.129,-130.693 114.472,-218.895 l 0,282.828 C 56.148,-16.843 0,0 0,0"
             style="fill:#e20d13;fill-opacity:1;fill-rule:nonzero;stroke:none"
             id="path5729" /></g><g
           id="g5731"
           transform="translate(489.4922,425.4043)"><path
             d="m 0,0 24.98,-48.901 c -58.988,-56.213 85.129,-130.693 -114.472,-218.895 l 0,282.828 C -56.147,-16.843 0,0 0,0"
             style="fill:#382d86;fill-opacity:1;fill-rule:nonzero;stroke:none"
             id="path5733" /></g><g
           id="g5735"
           transform="translate(502.5684,217.3555)"><path
             d="m 0,0 c -0.41,6.13 -7.389,12.061 -18.791,17.18 -11.423,5.104 -27.381,9.334 -45.987,11.678 -12.302,1.556 -25.037,2.338 -37.79,2.338 -12.753,0 -25.489,-0.782 -37.791,-2.338 -18.607,-2.344 -34.563,-6.574 -45.988,-11.678 C -197.749,12.061 -204.726,6.13 -205.137,0 l -0.016,-0.256 0.211,-0.151 c 5.895,-4.194 11.11,-15.468 14.4,-31.772 l 0.923,0.136 c -0.006,0.064 -0.009,0.129 -0.009,0.191 -0.037,1.493 1.649,3.207 3.805,4.627 2.137,1.432 4.632,2.605 6.007,3.334 9.601,5.342 21.626,9.22 34.95,11.592 12.906,2.299 27.59,3.467 42.298,3.467 14.707,0 29.392,-1.168 42.297,-3.467 13.325,-2.372 25.35,-6.25 34.943,-11.588 1.384,-0.734 3.877,-1.906 6.014,-3.338 2.155,-1.421 3.843,-3.134 3.804,-4.627 0,-0.058 -0.004,-0.127 -0.01,-0.203 l 0.924,-0.124 c 3.291,16.304 8.506,27.578 14.402,31.772 L 0.017,-0.256 0,0 z"
             style="fill:#434998;fill-opacity:1;fill-rule:nonzero;stroke:none"
             id="path5737" /></g></g></g><g
       id="g5739"><g
         id="g5741"><g
           id="g5747"><g
             id="g5749"><path
               d="m 362.327,245.289 c -18.533,-2.337 -34.418,-6.552 -45.724,-11.608 l 0,0 c -11.153,-4.96 -17.761,-10.795 -18.222,-16.129 l 0,0 c 5.924,-4.433 10.838,-15.042 14.143,-30.203 l 0,0 c 0.735,1.346 2.167,2.516 3.702,3.558 l 0,0 c 2.213,1.482 4.75,2.67 6.08,3.378 l 0,0 c 9.715,5.404 21.831,9.303 35.233,11.692 l 0,0 c 12.971,2.308 27.704,3.48 42.461,3.48 l 0,0 c 14.756,0 29.488,-1.172 42.461,-3.48 l 0,0 c 13.402,-2.389 25.517,-6.288 35.225,-11.688 l 0,0 c 1.338,-0.712 3.873,-1.9 6.087,-3.382 l 0,0 c 1.536,-1.042 2.967,-2.212 3.704,-3.559 l 0,0 c 3.303,15.161 8.216,25.773 14.143,30.205 l 0,0 c -0.464,5.334 -7.071,11.168 -18.222,16.128 l 0,0 c -11.307,5.056 -27.192,9.271 -45.724,11.608 l 0,0 c -12.26,1.549 -24.96,2.328 -37.674,2.328 l 0,0 c -12.715,0 -25.413,-0.779 -37.673,-2.328"
               style="fill:url(#linearGradient5751);stroke:none"
               id="path5763" /></g></g></g></g><g
       id="g5765"><g
         id="g5767"
         clip-path="url(#clipPath5769)"><g
           id="g5773"
           transform="translate(353.0615,338.2104)"><path
             d="m 0,0 c 1.263,0.229 3.111,0.385 5.218,0.385 2.573,0 4.37,-0.385 5.609,-1.39 1.051,-0.825 1.618,-2.032 1.618,-3.625 0,-2.187 -1.57,-3.703 -3.059,-4.243 l 0,-0.076 c 1.211,-0.489 1.879,-1.62 2.313,-3.215 0.54,-1.98 1.051,-4.243 1.387,-4.911 l -4.01,0 c -0.258,0.489 -0.696,1.902 -1.184,4.035 -0.488,2.19 -1.232,2.754 -2.853,2.778 l -1.158,0 0,-6.813 -3.881,0 L 0,0 z m 3.881,-7.432 1.545,0 c 1.954,0 3.111,0.977 3.111,2.494 0,1.568 -1.079,2.393 -2.881,2.393 -0.953,0 -1.489,-0.053 -1.775,-0.133 l 0,-4.754 z"
             style="fill:#ffffff;fill-opacity:1;fill-rule:nonzero;stroke:none"
             id="path5775" /></g><g
           id="g5777"
           transform="translate(380.7036,320.8521)"><path
             d="m 0,0 c -5.12,0 -8.153,3.883 -8.153,8.822 0,5.19 3.346,9.073 8.435,9.073 5.319,0 8.227,-3.982 8.227,-8.767 C 8.509,3.422 5.089,0 0.023,0 L 0,0 z m 0.18,3.114 c 2.646,0 4.162,2.493 4.162,5.887 0,3.109 -1.465,5.784 -4.162,5.784 -2.701,0 -4.218,-2.622 -4.218,-5.863 0,-3.262 1.568,-5.808 4.19,-5.808 l 0.028,0 z"
             style="fill:#ffffff;fill-opacity:1;fill-rule:nonzero;stroke:none"
             id="path5779" /></g><g
           id="g5781"
           transform="translate(399.9849,321.1353)"><path
             d="m 0,0 0,7.098 -5.472,10.233 4.499,0 1.746,-4.166 C 1.314,11.904 1.7,10.979 2.111,9.848 l 0.051,0 c 0.386,1.078 0.796,2.085 1.309,3.317 l 1.751,4.166 4.397,0 L 3.914,7.225 3.914,0 0,0 z"
             style="fill:#ffffff;fill-opacity:1;fill-rule:nonzero;stroke:none"
             id="path5783" /></g><g
           id="g5785"
           transform="translate(418.1133,325.5835)"><path
             d="m 0,0 -1.209,-4.448 -4.062,0 5.298,17.33 5.116,0 5.398,-17.33 -4.213,0 L 4.986,0 0,0 z M 4.396,2.934 3.318,6.607 C 3.032,7.636 2.725,8.949 2.47,9.949 l -0.078,0 C 2.161,8.921 1.875,7.612 1.622,6.607 l -1.056,-3.673 3.83,0 z"
             style="fill:#ffffff;fill-opacity:1;fill-rule:nonzero;stroke:none"
             id="path5787" /></g><g
           id="g5789"
           transform="translate(436.1367,338.4658)"><path
             d="m 0,0 3.912,0 0,-14.04 6.891,0 0,-3.291 L 0,-17.331 0,0 z"
             style="fill:#ffffff;fill-opacity:1;fill-rule:nonzero;stroke:none"
             id="path5791" /></g><g
           id="g5793"
           transform="translate(329.4341,295.6299)"><path
             d="m 0,0 c -0.078,2.079 -0.152,4.573 -0.152,7.123 l -0.051,0 C -0.774,4.909 -1.493,2.442 -2.161,0.41 l -2.107,-6.762 -3.061,0 -1.848,6.683 c -0.572,2.057 -1.134,4.503 -1.572,6.792 l -0.05,0 C -10.874,4.781 -10.98,2.106 -11.085,-0.05 l -0.332,-6.584 -3.623,0 1.102,17.328 5.222,0 1.696,-5.808 c 0.566,-1.983 1.079,-4.143 1.466,-6.172 l 0.101,0 c 0.466,2.005 1.06,4.265 1.646,6.221 l 1.825,5.759 5.144,0 0.922,-17.328 -3.798,0 L 0,0 z"
             style="fill:#ffffff;fill-opacity:1;fill-rule:nonzero;stroke:none"
             id="path5795" /></g><g
           id="g5797"
           transform="translate(349.0239,288.7158)"><path
             d="m 0,0 c -5.112,0 -8.145,3.878 -8.145,8.813 0,5.197 3.341,9.078 8.43,9.078 5.324,0 8.228,-3.986 8.228,-8.769 C 8.513,3.416 5.093,0 0.031,0 L 0,0 z m 0.18,3.107 c 2.65,0 4.167,2.494 4.167,5.886 0,3.115 -1.462,5.789 -4.167,5.789 -2.697,0 -4.214,-2.623 -4.214,-5.863 0,-3.268 1.572,-5.812 4.191,-5.812 l 0.023,0 z"
             style="fill:#ffffff;fill-opacity:1;fill-rule:nonzero;stroke:none"
             id="path5799" /></g><g
           id="g5801"
           transform="translate(369.1611,306.3237)"><path
             d="m 0,0 0,-9.951 c 0,-3.006 1.153,-4.525 3.135,-4.525 2.056,0 3.19,1.441 3.19,4.525 l 0,9.951 3.904,0 0,-9.72 c 0,-5.348 -2.697,-7.888 -7.223,-7.888 -4.369,0 -6.914,2.439 -6.914,7.942 L -3.908,0 0,0 z"
             style="fill:#ffffff;fill-opacity:1;fill-rule:nonzero;stroke:none"
             id="path5803" /></g><g
           id="g5805"
           transform="translate(388.0562,293.0078)"><path
             d="m 0,0 c 1.031,-0.541 2.673,-1.079 4.346,-1.079 1.802,0 2.752,0.742 2.752,1.899 0,1.055 -0.821,1.696 -2.905,2.416 -2.88,1.032 -4.784,2.622 -4.784,5.173 0,2.953 2.498,5.19 6.559,5.19 1.978,0 3.397,-0.383 4.425,-0.871 L 9.513,9.589 C 8.845,9.921 7.586,10.41 5.917,10.41 4.221,10.41 3.396,9.613 3.396,8.741 c 0,-1.105 0.95,-1.593 3.213,-2.471 3.06,-1.127 4.476,-2.721 4.476,-5.192 0,-2.903 -2.209,-5.37 -6.97,-5.37 -1.981,0 -3.936,0.539 -4.909,1.079 L 0,0 z"
             style="fill:#ffffff;fill-opacity:1;fill-rule:nonzero;stroke:none"
             id="path5807" /></g><g
           id="g5809"
           transform="translate(419.6572,289.457)"><path
             d="m 0,0 c -0.692,-0.332 -2.338,-0.741 -4.425,-0.741 -5.987,0 -9.072,3.751 -9.072,8.716 0,5.909 4.214,9.175 9.464,9.175 2.032,0 3.571,-0.413 4.263,-0.772 l -0.821,-3.082 c -0.769,0.332 -1.875,0.641 -3.287,0.641 -3.092,0 -5.504,-1.878 -5.504,-5.759 0,-3.471 2.057,-5.657 5.529,-5.657 1.207,0 2.493,0.227 3.29,0.567 L 0,0 z"
             style="fill:#ffffff;fill-opacity:1;fill-rule:nonzero;stroke:none"
             id="path5811" /></g><g
           id="g5813"
           transform="translate(427.3965,306.0674)"><path
             d="M 0,0 C 1.262,0.233 3.111,0.387 5.221,0.387 7.794,0.387 9.592,0 10.826,-1 c 1.055,-0.825 1.622,-2.035 1.622,-3.627 0,-2.186 -1.567,-3.704 -3.059,-4.243 l 0,-0.078 c 1.207,-0.486 1.875,-1.618 2.308,-3.213 0.545,-1.978 1.061,-4.241 1.393,-4.91 l -4.012,0 c -0.258,0.49 -0.695,1.9 -1.183,4.033 -0.489,2.189 -1.235,2.753 -2.853,2.781 l -1.157,0 0,-6.814 -3.885,0 L 0,0 z m 3.885,-7.429 1.544,0 c 1.954,0 3.112,0.976 3.112,2.494 0,1.568 -1.084,2.39 -2.881,2.39 -0.949,0 -1.494,-0.052 -1.775,-0.128 l 0,-4.756 z"
             style="fill:#ffffff;fill-opacity:1;fill-rule:nonzero;stroke:none"
             id="path5815" /></g><g
           id="g5817"
           transform="translate(455.0381,288.7158)"><path
             d="m 0,0 c -5.116,0 -8.149,3.878 -8.149,8.813 0,5.197 3.339,9.078 8.435,9.078 5.318,0 8.223,-3.986 8.223,-8.769 C 8.509,3.416 5.093,0 0.026,0 L 0,0 z m 0.181,3.107 c 2.648,0 4.165,2.494 4.165,5.886 0,3.115 -1.466,5.789 -4.165,5.789 -2.699,0 -4.219,-2.623 -4.219,-5.863 0,-3.268 1.566,-5.812 4.195,-5.812 l 0.024,0 z"
             style="fill:#ffffff;fill-opacity:1;fill-rule:nonzero;stroke:none"
             id="path5819" /></g><g
           id="g5821"
           transform="translate(471.2627,288.9961)"><path
             d="m 0,0 0,17.328 4.577,0 3.6,-6.349 c 1.031,-1.825 2.031,-3.986 2.826,-5.94 l 0.055,0 c -0.231,2.291 -0.309,4.629 -0.309,7.249 l 0,5.04 3.596,0 0,-17.328 -4.108,0 -3.701,6.685 c -1.037,1.876 -2.189,4.086 -3.015,6.12 l -0.102,0 c 0.13,-2.314 0.18,-4.76 0.18,-7.582 L 3.599,0 0,0 z"
             style="fill:#ffffff;fill-opacity:1;fill-rule:nonzero;stroke:none"
             id="path5823" /></g><g
           id="g5825"
           transform="translate(320.3032,273.9531)"><path
             d="m 0,0 c 1.208,0.206 2.908,0.359 5.3,0.359 2.415,0 4.163,-0.461 5.32,-1.411 1.106,-0.852 1.829,-2.291 1.829,-3.987 0,-1.719 -0.543,-3.166 -1.572,-4.115 -1.336,-1.232 -3.345,-1.826 -5.658,-1.826 -0.513,0 -0.974,0.027 -1.338,0.102 l 0,-6.224 -3.881,0 L 0,0 z m 3.881,-7.869 c 0.337,-0.078 0.751,-0.102 1.313,-0.102 2.085,0 3.366,1.057 3.366,2.803 0,1.592 -1.075,2.545 -3.057,2.545 -0.797,0 -1.336,-0.051 -1.622,-0.126 l 0,-5.12 z"
             style="fill:#ffffff;fill-opacity:1;fill-rule:nonzero;stroke:none"
             id="path5827" /></g><g
           id="g5829"
           transform="translate(350.6968,264.1807)"><path
             d="m 0,0 -6.378,0 0,-4.115 7.125,0 0,-3.214 -11.031,0 0,17.331 10.671,0 0,-3.212 -6.765,0 0,-3.596 L 0,3.194 0,0 z"
             style="fill:#ffffff;fill-opacity:1;fill-rule:nonzero;stroke:none"
             id="path5831" /></g><g
           id="g5833"
           transform="translate(359.2607,273.9258)"><path
             d="m 0,0 c 1.258,0.233 3.107,0.387 5.218,0.387 2.568,0 4.37,-0.387 5.605,-1.389 1.055,-0.82 1.618,-2.031 1.618,-3.623 0,-2.184 -1.567,-3.709 -3.057,-4.248 l 0,-0.074 c 1.208,-0.49 1.877,-1.616 2.315,-3.217 0.538,-1.975 1.051,-4.241 1.386,-4.91 l -4.009,0 c -0.258,0.489 -0.696,1.907 -1.184,4.043 -0.489,2.18 -1.231,2.746 -2.854,2.77 l -1.157,0 0,-6.813 -3.881,0 L 0,0 z m 3.881,-7.432 1.539,0 c 1.959,0 3.117,0.978 3.117,2.494 0,1.569 -1.084,2.396 -2.881,2.396 -0.95,0 -1.489,-0.054 -1.775,-0.132 l 0,-4.758 z"
             style="fill:#ffffff;fill-opacity:1;fill-rule:nonzero;stroke:none"
             id="path5835" /></g><g
           id="g5837"
           transform="translate(383.4312,274.1826)"><path
             d="m 0,0 0,-9.951 c 0,-3.009 1.157,-4.527 3.131,-4.527 2.06,0 3.193,1.443 3.193,4.527 l 0,9.951 3.909,0 0,-9.716 c 0,-5.351 -2.701,-7.895 -7.227,-7.895 -4.374,0 -6.918,2.442 -6.918,7.945 L -3.912,0 0,0 z"
             style="fill:#ffffff;fill-opacity:1;fill-rule:nonzero;stroke:none"
             id="path5839" /></g><g
           id="g5841"
           transform="translate(405.0039,256.8516)"><path
             d="m 0,0 -4.12,17.331 4.194,0 1.309,-7.12 C 1.774,8.127 2.134,5.887 2.412,4.117 l 0.053,0 C 2.747,6.02 3.161,8.104 3.6,10.266 l 1.461,7.065 4.167,0 1.391,-7.302 c 0.383,-2.031 0.669,-3.881 0.922,-5.808 l 0.055,0 c 0.255,1.927 0.638,3.957 0.998,6.045 l 1.418,7.065 3.982,0 L 13.523,0 9.283,0 7.813,7.459 C 7.48,9.209 7.195,10.828 6.992,12.806 l -0.052,0 C 6.633,10.852 6.347,9.209 5.937,7.459 L 4.291,0 0,0 z"
             style="fill:#ffffff;fill-opacity:1;fill-rule:nonzero;stroke:none"
             id="path5843" /></g><g
           id="g5845"
           transform="translate(440.4854,264.1807)"><path
             d="m 0,0 -6.379,0 0,-4.115 7.122,0 0,-3.214 -11.031,0 0,17.331 10.672,0 0,-3.212 -6.763,0 0,-3.596 L 0,3.194 0,0 z"
             style="fill:#ffffff;fill-opacity:1;fill-rule:nonzero;stroke:none"
             id="path5847" /></g><g
           id="g5849"
           transform="translate(449.0732,274.1826)"><path
             d="m 0,0 3.909,0 0,-14.036 6.891,0 0,-3.295 -10.8,0 L 0,0 z"
             style="fill:#ffffff;fill-opacity:1;fill-rule:nonzero;stroke:none"
             id="path5851" /></g><g
           id="g5853"
           transform="translate(466.2471,258.9629)"><path
             d="m 0,0 8.256,11.906 0,0.078 -7.509,0 0,3.236 12.57,0 0,-2.259 -8.071,-11.726 0,-0.101 8.204,0 0,-3.245 L 0,-2.111 0,0 z"
             style="fill:#ffffff;fill-opacity:1;fill-rule:nonzero;stroke:none"
             id="path5855" /></g><path
           d="m 422.179,352.26 8.478,0 0,2.468 -8.478,0 0,-2.468 z"
           style="fill:#ffffff;fill-opacity:1;fill-rule:nonzero;stroke:none"
           id="path5857" /><g
           id="g5859"
           transform="translate(442.1504,353.6841)"><path
             d="m 0,0 0,-2.634 9.666,0 9.666,0 0,2.634 L 9.666,0 0,0 z"
             style="fill:#ffffff;fill-opacity:1;fill-rule:nonzero;stroke:none"
             id="path5861" /></g><g
           id="g5863"
           transform="translate(424.1836,386.1162)"><path
             d="m 0,0 0,-23.95 -1.485,0 0,-6.918 8.774,0 0,6.918 -6.398,0 0,23.837 L 0,0 z"
             style="fill:#ffffff;fill-opacity:1;fill-rule:nonzero;stroke:none"
             id="path5865" /></g><g
           id="g5867"
           transform="translate(448.3936,401.4927)"><path
             d="M 0,0 C -0.454,0.164 -0.887,0.365 -1.278,0.588 L -31.563,-13.948 -16.276,-15.833 0,0 z"
             style="fill:#ffffff;fill-opacity:1;fill-rule:nonzero;stroke:none"
             id="path5869" /></g><g
           id="g5871"
           transform="translate(450.7852,407.2251)"><path
             d="m 0,0 c -1.934,0 -3.494,-2.013 -3.494,-4.499 l 1.341,0.633 C -2.153,-2.158 0,0 0,0"
             style="fill:#ffffff;fill-opacity:1;fill-rule:nonzero;stroke:none"
             id="path5873" /></g><path
           d="m 472.977,352.26 8.479,0 0,2.468 -8.479,0 0,-2.468 z"
           style="fill:#ffffff;fill-opacity:1;fill-rule:nonzero;stroke:none"
           id="path5875" /><g
           id="g5877"
           transform="translate(478.5596,386.0029)"><path
             d="m 0,0 0,-23.836 -6.399,0 0,-6.919 8.775,0 0,6.919 -1.486,0 0,23.949 L 0,0 z"
             style="fill:#ffffff;fill-opacity:1;fill-rule:nonzero;stroke:none"
             id="path5879" /></g><g
           id="g5881"
           transform="translate(459.8672,359.1509)"><path
             d="m 0,0 -8.051,0 -8.051,0 0,0.408 8.051,0 L 0,0.408 0,0 z m 0,-2.602 -8.051,0 -8.051,0 0,0.409 8.051,0 8.051,0 0,-0.409 z m 1.287,-1.301 10.486,0 0,6.919 -0.57,0 0,22.972 -0.942,0 0,-22.972 -4.86,0 0,22.972 -0.444,0 0,-22.972 -3.67,0 0,6.691 L 0.643,10.199 0,9.707 0,2.601 l -7.676,0 0,23.387 -0.375,0 -0.375,0 0,-23.387 -7.676,0 0,7.106 -0.641,0.492 -0.646,-0.492 0,-6.691 -3.67,0 0,22.972 -0.444,0 0,-22.972 -4.859,0 0,22.972 -0.943,0 0,-22.972 -0.57,0 0,-6.919 10.486,0 0,-0.52 -11.303,0 0,-2.468 10.456,0 0,1.429 0.519,0.52 9.666,0 9.666,0 0.52,-0.52 0,-1.429 10.457,0 0,2.468 -11.305,0 0,0.52 z"
             style="fill:#ffffff;fill-opacity:1;fill-rule:nonzero;stroke:none"
             id="path5883" /></g><g
           id="g5885"
           transform="translate(451.8164,400.9048)"><path
             d="m 0,0 c -0.887,0 -1.734,0.107 -2.521,0.309 l -15.991,-15.555 18.512,0 18.512,0 L 2.521,0.309 C 1.734,0.107 0.887,0 0,0"
             style="fill:#ffffff;fill-opacity:1;fill-rule:nonzero;stroke:none"
             id="path5887" /></g><g
           id="g5889"
           transform="translate(471.5156,385.6592)"><path
             d="m 0,0 15.287,1.886 -30.285,14.536 c -0.391,-0.223 -0.824,-0.424 -1.277,-0.589 L 0,0 z"
             style="fill:#ffffff;fill-opacity:1;fill-rule:nonzero;stroke:none"
             id="path5891" /></g><g
           id="g5893"
           transform="translate(456.3428,402.7261)"><path
             d="m 0,0 c 0,2.486 -1.561,4.499 -3.495,4.499 0,0 2.154,-2.158 2.154,-3.866 L 0,0 z"
             style="fill:#ffffff;fill-opacity:1;fill-rule:nonzero;stroke:none"
             id="path5895" /></g><g
           id="g5897"
           transform="translate(452.2891,407.8931)"><path
             d="M 0,0 -0.473,8.517 -0.944,0 -0.473,0.188 0,0 z"
             style="fill:#ffffff;fill-opacity:1;fill-rule:nonzero;stroke:none"
             id="path5899" /></g><g
           id="g5901"
           transform="translate(331.1387,373.7886)"><path
             d="m 0,0 c -1.114,-0.038 -3.413,-0.357 -4.527,-0.897 0.505,0.973 1.22,2.55 -0.288,3.522 L -5.421,4.387 C -4.96,5.5 -4.022,7.624 -2.764,5.642 -2.08,5.103 1.262,2.804 2.236,2.409 1.478,1.761 0.758,0.971 0,0 m -7.474,7.872 -1.078,0.866 c 1.434,2.368 3.306,3.594 4.53,3.232 0.07,-0.431 0.57,-1.583 0.57,-1.583 -1.04,0.399 -3.052,-0.213 -4.022,-2.515 m 51.058,0.554 0,2.069 -0.038,0.03 -2.279,1.83 -1.99,1.321 c 0.09,0.691 0.13,1.312 0.13,1.868 0.003,3.471 -1.525,4.517 -1.549,4.533 l -0.101,0.066 -0.063,-0.107 c -1.126,-2.025 -3.385,-4.286 -3.392,-4.294 -1.607,-1.759 -2.15,-3.354 -2.15,-4.696 0.004,-2.69 2.157,-4.317 2.154,-4.317 1.555,-1.558 2.048,-2.723 2.048,-3.563 0.01,-1.376 -1.335,-1.988 -1.69,-2.126 -3.04,5.423 -7.938,5.903 -9.532,5.899 L 24.872,6.93 c 0.269,0.334 0.393,0.679 0.393,1.007 -0.014,1.069 -1.131,1.89 -1.423,2.092 l 0.4,1.392 c 0.353,-0.144 0.674,-0.215 0.968,-0.215 2.275,0.057 2.502,3.815 2.517,5.857 0,0.672 -0.031,1.167 -0.04,1.299 l 0.666,1.1 c 0.371,0.577 0.523,1.139 0.523,1.67 -0.013,2.226 -2.634,3.8 -3.183,4.114 1.415,2.033 1.863,3.917 1.863,5.48 0,2.61 -1.243,4.303 -1.251,4.315 l -0.032,0.041 -0.054,0.003 -0.45,0.017 C 23.113,35.098 20.885,33.51 20.354,33.105 l -0.58,1.344 c 6.002,2.053 9.463,3.476 11.424,4.459 1.974,0.997 2.459,1.498 2.482,1.896 -0.023,0.363 -0.41,0.404 -0.41,0.413 L 33.242,41.22 19.67,38.052 c -0.528,0.802 -1.133,1.098 -1.694,1.095 -1.04,-0.007 -1.867,-0.921 -2.038,-1.112 l -0.901,0 -0.029,-0.02 -2.721,-2.04 C 11.805,35.759 11.584,35.42 11.588,35.048 11.61,33.939 13.314,32.642 13.603,32.417 13.506,30.161 13.327,29.3 13.229,29.115 l -0.034,0.063 -0.047,0.142 -0.05,0.198 -0.141,-0.145 c -0.563,-0.56 -0.797,-1.128 -0.797,-1.669 0.024,-1.979 2.973,-3.451 3.473,-3.698 -0.212,-1.051 -0.296,-1.985 -0.296,-2.786 0,-2.159 0.58,-3.42 0.741,-3.723 l -0.99,-1.185 c -1.225,1.775 -1.474,5.73 -1.482,5.923 l 0.058,0.574 c -0.008,1.95 -1.903,3.826 -1.908,3.837 C 9.22,29.174 0.602,33.475 0.598,33.479 l -0.106,0.053 -0.047,-0.1 -0.414,-0.817 -2.353,0.945 0.703,-5.154 -1.376,-2.527 0.036,-0.057 0.648,-1.079 -2.032,-4.514 0.004,-0.03 c 0.191,-3.433 3.216,-3.765 4.279,-3.754 l 0.313,0.013 0.841,-1.257 -1.25,-2.5 c -1.629,2.167 -3.062,2.924 -4.261,2.924 -2.261,-0.015 -3.541,-2.605 -3.741,-3.032 -2.06,-0.033 -3.408,-1.383 -3.416,-1.391 l -0.055,-0.053 0.028,-0.066 c 0.195,-0.541 0.269,-1.062 0.269,-1.542 0.004,-1.685 -0.934,-2.895 -0.934,-2.899 l -0.058,-0.066 2.79,-3.486 0.012,-0.008 0.883,-0.665 1.126,-3.386 0.004,-0.008 1.168,-2.098 0.063,-0.003 4.225,-0.221 0.223,-1.092 0.039,-0.024 2.362,-1.657 0.066,0.088 0.621,0.834 c 0.74,-0.423 1.35,-0.605 1.853,-0.605 1.977,0.035 2.075,2.631 2.085,2.98 0.2,0.402 0.982,0.977 1.711,1.417 0.611,0.379 1.179,0.673 1.352,0.761 l 8.372,-4.971 0.015,-0.004 3.351,-0.672 0.929,-2.089 0.102,0.044 2.138,0.849 c 0.449,-4.003 1.785,-5.04 1.944,-5.148 0.056,-0.066 1.104,-1.337 2.168,-2.898 1.091,-1.593 2.173,-3.502 2.17,-4.618 l -0.262,-0.729 c -0.005,-0.008 -2.502,-3.41 -3.195,-5.256 l -0.034,-0.099 0.094,-0.045 c 0.007,-0.004 0.719,-0.332 1.735,-0.336 1.23,0 2.921,0.5 4.312,2.641 0.105,0.1 1.227,1.081 1.238,2.139 l -0.086,0.471 c 0,0.005 -0.864,2.342 -0.859,3.719 -0.005,0.482 0.113,0.806 0.322,0.895 l 0.014,0 c 0.168,-0.011 1.215,-0.062 1.231,-2.987 l -0.02,-0.753 c -0.004,0 -0.059,-0.778 -0.48,-1.87 -0.261,-0.673 -0.659,-1.464 -1.266,-2.26 -0.113,0.005 -0.185,0.005 -0.189,0.006 l 0,-0.238 c -0.34,-0.419 -0.735,-0.836 -1.207,-1.236 l -0.027,-0.023 -0.012,-0.035 c 0.004,-0.004 -0.383,-0.881 -0.383,-1.801 0,-0.395 0.07,-0.807 0.27,-1.178 l 0.026,-0.05 0.056,-0.01 c 0.003,0 0.233,-0.035 0.594,-0.035 1.02,0 3.13,0.268 4.143,2.361 0.379,0.795 0.782,1.721 0.926,2.614 l 0.606,-1.009 0.101,0.147 c 0.008,0.017 0.696,1.062 0.696,3.285 0,0.923 -0.117,2.051 -0.454,3.396 l -0.003,0.011 -0.008,0.014 c 0.004,0.004 -0.367,0.74 -0.367,1.864 0,0.373 0.039,0.788 0.152,1.234 l 0.097,0.801 c 0.004,1.235 -0.808,2.155 -2.126,2.465 -1.661,0.408 -2.481,0.732 -2.494,2.268 l 0.059,0.782 c 0.165,1.169 0.806,2.169 1.705,2.937 l 0.007,0.008 0.008,0.012 1.055,1.447 0.285,0.402 -0.003,0.041 -0.068,1.973 c 2.951,1.599 4.861,4.182 5.321,4.846 L 41.522,1.6 c -0.854,-0.969 -1.127,-2.04 -1.123,-2.99 0,-1.54 0.7,-2.757 0.704,-2.765 l 0.086,-0.153 0.105,0.141 0.671,0.896 c 2.072,1.488 2.663,3.868 2.663,6.071 -0.003,2.897 -1.003,5.52 -1.044,5.626"
             style="fill:#000000;fill-opacity:1;fill-rule:nonzero;stroke:none"
             id="path5903" /></g><g
           id="g5905"
           transform="translate(349.9434,412.0361)"><path
             d="M 0,0 0.729,-0.736 10.674,1.399 -0.404,-1.69 c 0,0.432 0.114,1.077 0.404,1.69"
             style="fill:#ffffff;fill-opacity:1;fill-rule:nonzero;stroke:none"
             id="path5907" /></g><g
           id="g5909"
           transform="translate(349.689,409.6621)"><path
             d="m 0,0 c 0.215,-0.542 1.043,-0.933 1.043,-0.933 1.29,0.465 9.596,3.243 11.749,4.636 L 0,0 z"
             style="fill:#ffffff;fill-opacity:1;fill-rule:nonzero;stroke:none"
             id="path5911" /></g><g
           id="g5913"
           transform="translate(349.2236,412.3608)"><path
             d="m 0,0 c -0.688,0.391 -1.943,-1.046 -1.943,-1.046 l -0.179,0 0,-2.513 c -0.435,0 -0.829,0.176 -2.049,-0.793 0,0.611 -0.645,1.297 -1.004,1.328 l 0.031,0.253 -0.356,-0.253 c -0.398,-0.252 -0.648,-0.5 -0.398,-0.932 0.289,-0.504 1.762,-1.905 1.907,-2.013 l -0.039,-0.324 3.561,-0.324 0.285,0.864 0.649,-0.251 -0.106,-0.579 c 0.392,0.362 1.149,0.935 1.474,1.011 L 1.219,-4.387 C 0.036,-3.708 -1.083,-2.519 0,0"
             style="fill:#ffffff;fill-opacity:1;fill-rule:nonzero;stroke:none"
             id="path5915" /></g><g
           id="g5917"
           transform="translate(350.2983,405.3833)"><path
             d="M 0,0 C 0.324,0.252 1.298,1.044 1.767,1.296 1.978,0.504 2.841,-1.256 4.135,-1.688 L 3.737,-2.405 c 0,0 -2.623,1.257 -3.737,2.405"
             style="fill:#ffffff;fill-opacity:1;fill-rule:nonzero;stroke:none"
             id="path5919" /></g><g
           id="g5921"
           transform="translate(354.7188,402.7261)"><path
             d="M 0,0 C 0.399,-0.072 0.825,-0.072 0.646,0.793 0.399,0.535 0.141,0.396 0,0"
             style="fill:#ffffff;fill-opacity:1;fill-rule:nonzero;stroke:none"
             id="path5923" /></g><g
           id="g5925"
           transform="translate(352.7803,407.1074)"><path
             d="M 0,0 C 1.255,0.793 3.052,1.405 4.311,1.226 5.065,-0.139 6.684,-3.629 3.342,-8.269 3.776,-8.479 4.35,-8.912 4.35,-8.912 2.763,-9.484 -3.557,-12.291 -2.591,-6.971 l 0.398,-1.546 0.649,0.114 -0.434,2.368 c 1.544,-0.684 2.482,-0.504 3.522,0.97 1.184,-0.213 2.267,-0.038 1.727,2.157 C 1.399,-2.513 0.75,-2.403 0,0"
             style="fill:#ffffff;fill-opacity:1;fill-rule:nonzero;stroke:none"
             id="path5927" /></g><g
           id="g5929"
           transform="translate(345.2324,405.3525)"><path
             d="m 0,0 3.343,-0.325 c -0.18,-0.578 -0.43,-1.69 -0.4,-1.977 L -0.253,-2.015 0,0 z"
             style="fill:#ffffff;fill-opacity:1;fill-rule:nonzero;stroke:none"
             id="path5931" /></g><g
           id="g5933"
           transform="translate(349.3643,404.5239)"><path
             d="m 0,0 c -0.286,-0.793 -0.719,-2.842 0.465,-2.695 0.035,0.753 -0.246,1.69 0.539,2.406 L 0.684,0 0,0 z"
             style="fill:#ffffff;fill-opacity:1;fill-rule:nonzero;stroke:none"
             id="path5935" /></g><g
           id="g5937"
           transform="translate(350.9819,403.8027)"><path
             d="M 0,0 C 0.825,-0.542 2.623,-1.508 2.623,-1.508 1.884,-2.246 1.294,-3.09 -0.468,-1.508 -0.504,-0.97 -0.359,-0.324 0,0"
             style="fill:#ffffff;fill-opacity:1;fill-rule:nonzero;stroke:none"
             id="path5939" /></g><g
           id="g5941"
           transform="translate(348.1753,402.2212)"><path
             d="m 0,0 0.22,-0.5 c -1.044,-0.432 -1.763,-0.576 -2.623,-2.841 -1.587,1.257 -2.411,2.228 -1.653,3.486 l 0.645,0.25 1.657,-0.143 -0.509,-0.216 0.251,-0.68 L 0,0 z"
             style="fill:#ffffff;fill-opacity:1;fill-rule:nonzero;stroke:none"
             id="path5943" /></g><g
           id="g5945"
           transform="translate(349.0049,401.145)"><path
             d="m 0,0 c -1.115,0 -2.192,-1.473 -2.518,-2.662 l 0.54,-0.32 c 0,0 0.469,1.833 1.978,2.982"
             style="fill:#ffffff;fill-opacity:1;fill-rule:nonzero;stroke:none"
             id="path5947" /></g><g
           id="g5949"
           transform="translate(355.438,396.7222)"><path
             d="M 0,0 C 0.973,0.36 2.407,0.973 2.407,0.973 4.206,-0.469 4.601,-1.978 3.772,-3.055 3.413,-3.342 2.337,-3.991 2.337,-3.991 1.869,-3.594 1.435,-3.055 0.469,-3.09 0.54,-2.372 0.649,-0.969 0,0"
             style="fill:#ffffff;fill-opacity:1;fill-rule:nonzero;stroke:none"
             id="path5951" /></g><g
           id="g5953"
           transform="translate(355.1484,393.6675)"><path
             d="M 0,0 C 0.109,0.969 0.075,2.05 -0.535,2.802 L -1.074,2.662 C -1.254,1.546 -1.254,0.5 0,0"
             style="fill:#ffffff;fill-opacity:1;fill-rule:nonzero;stroke:none"
             id="path5955" /></g><g
           id="g5957"
           transform="translate(349.4346,400.4961)"><path
             d="m 0,0 c -0.935,-0.901 -1.833,-2.05 -1.798,-3.125 l -0.426,0 c -0.254,-1.258 -0.435,-3.991 0.574,-6.183 l -1.009,-1.191 c 0.971,-0.248 2.628,-0.822 3.667,0.186 0.469,-0.361 1.474,-0.613 3.772,-0.541 0.29,0.68 0.829,3.234 0.829,3.234 C 4.82,-7.401 3.596,-6.721 3.78,-4.383 2.228,-4.383 -0.645,-4.634 0,0"
             style="fill:#ffffff;fill-opacity:1;fill-rule:nonzero;stroke:none"
             id="path5959" /></g><g
           id="g5961"
           transform="translate(355.0435,389.6792)"><path
             d="m 0,0 c 0.321,1.22 0.719,2.769 0.754,3.16 0.504,-0.035 1.22,0 1.549,-1.184 l 1.004,0.5 C 3.346,1.543 3.38,0.214 3.346,-0.358 L 0,0 z"
             style="fill:#ffffff;fill-opacity:1;fill-rule:nonzero;stroke:none"
             id="path5963" /></g><g
           id="g5965"
           transform="translate(355.5083,388.8853)"><path
             d="M 0,0 2.736,-0.355 C 2.592,-1.04 2.302,-2.369 2.088,-2.623 L 0,0 z"
             style="fill:#ffffff;fill-opacity:1;fill-rule:nonzero;stroke:none"
             id="path5967" /></g><g
           id="g5969"
           transform="translate(354.7188,388.561)"><path
             d="M 0,0 2.342,-2.837 C 1.943,-3.09 1.439,-3.09 0.399,-2.766 0.399,-1.974 0.25,-0.465 0,0"
             style="fill:#ffffff;fill-opacity:1;fill-rule:nonzero;stroke:none"
             id="path5971" /></g><g
           id="g5973"
           transform="translate(354.3599,386.5166)"><path
             d="m 0,0 c -0.105,0.825 -0.54,2.404 -0.54,2.404 -0.75,0 -2.728,0 -3.162,0.18 L -3.448,0.211 0,0"
             style="fill:#ffffff;fill-opacity:1;fill-rule:nonzero;stroke:none"
             id="path5975" /></g><g
           id="g5977"
           transform="translate(344.2637,395.6084)"><path
             d="M 0,0 C -0.04,-1.368 -0.145,-6.647 -0.469,-8.052 L 0.75,-8.953 1.935,-9.526 4.632,-8.125 5.855,-8.521 5.68,-6.615 C 4.561,-6.867 3.626,-6.867 2.009,-6.184 l -0.11,-0.18 C 1.075,-5.07 0.176,-3.237 0,0"
             style="fill:#ffffff;fill-opacity:1;fill-rule:nonzero;stroke:none"
             id="path5979" /></g><g
           id="g5981"
           transform="translate(343.4351,398.9873)"><path
             d="M 0,0 C -0.36,0.469 -1.004,1.257 -1.438,1.509 0.359,-5.107 -2.42,-7.127 -1.313,-9.07 l -0.513,-0.512 c -1.723,2.345 1.482,4.178 -0.461,11.755 l -0.887,0.62 c 0.402,-1.781 1.536,-6.819 -0.109,-8.681 l -0.563,0.377 c 0.484,0.973 1.321,2.132 -0.247,8.925 L -4.741,3.79 c 0.543,-1.912 1.27,-5.066 0.461,-7.144 l -0.673,0.217 c 0.27,1.24 0.622,4.042 -0.785,7.548 l -0.321,0.188 c 0.133,-0.97 0.567,-4.179 0.027,-4.958 0.165,-0.593 0.7,-1.027 -1.59,-3.128 -0.188,-0.756 -1.266,-3.453 -1.376,-3.562 2.322,-1.48 5.929,-3.798 8.681,-4.229 C -0.18,-9.93 0.203,-2.742 0,0"
             style="fill:#ffffff;fill-opacity:1;fill-rule:nonzero;stroke:none"
             id="path5983" /></g><g
           id="g5985"
           transform="translate(336.5674,404.0977)"><path
             d="M 0,0 C 0.105,-1.024 0.434,-3.154 0.293,-4.553 L 0.191,-4.366 C 0.137,-3.154 0.055,-0.7 -0.458,0.245 L 0,0 z"
             style="fill:#ffffff;fill-opacity:1;fill-rule:nonzero;stroke:none"
             id="path5987" /></g><g
           id="g5989"
           transform="translate(335.1641,404.8794)"><path
             d="m 0,0 -1.559,0.837 c 0.293,-0.622 0.969,-2.154 0.996,-2.775 L 0.649,-2.585 C 0.543,-1.885 0.274,-0.592 0,0"
             style="fill:#ffffff;fill-opacity:1;fill-rule:nonzero;stroke:none"
             id="path5991" /></g><g
           id="g5993"
           transform="translate(332.7954,403.9907)"><path
             d="M 0,0 C 0.082,0.512 0.082,1.377 0.023,1.645 0.243,1.241 0.7,0.16 0.7,0.16 l -0.727,-0.24"
             style="fill:#ffffff;fill-opacity:1;fill-rule:nonzero;stroke:none"
             id="path5995" /></g><g
           id="g5997"
           transform="translate(332.0103,405.7437)"><path
             d="M 0,0 C -0.966,-0.837 -1.884,-2.078 -1.29,-4.988 -0.349,-3.398 0.297,-1.753 0,0"
             style="fill:#ffffff;fill-opacity:1;fill-rule:nonzero;stroke:none"
             id="path5999" /></g><g
           id="g6001"
           transform="translate(331.0444,405.8804)"><path
             d="M 0,0 C -0.543,-0.542 -1.028,-1.378 -1.219,-2.431 L -1.618,0.672 0,0 z"
             style="fill:#ffffff;fill-opacity:1;fill-rule:nonzero;stroke:none"
             id="path6003" /></g><g
           id="g6005"
           transform="translate(333.9526,402.4014)"><path
             d="M 0,0 -0.188,0.649 -0.458,0.16 C -0.86,0.512 -1.212,1.401 -1.212,1.401 -1.348,0.782 -1.348,0.512 -1.481,0.297 -0.348,-0.137 0.836,-0.621 1.485,-1.616 L 2.021,-2.048 1.97,-0.917 0,0 z"
             style="fill:#ffffff;fill-opacity:1;fill-rule:nonzero;stroke:none"
             id="path6007" /></g><g
           id="g6009"
           transform="translate(332.2563,401.8896)"><path
             d="m 0,0 c 0.915,-0.245 1.938,-0.7 2.423,-1.378 -0.618,-0.83 -3.018,-4.338 -4.151,-5.011 -0.512,0.514 -1.426,0.94 -2.153,0.729 l 0.996,2.262 -0.649,1.19 1.052,1.991 c 0.109,-0.647 0.484,-1.941 0.699,-2.345 C -1.271,-1.998 -0.462,-1.134 0,0"
             style="fill:#ffffff;fill-opacity:1;fill-rule:nonzero;stroke:none"
             id="path6011" /></g><g
           id="g6013"
           transform="translate(331.6348,394.6074)"><path
             d="M 0,0 C 1.047,0.866 2.885,2.669 4.178,5.017 4.663,4.452 5.472,3.506 5.069,2.939 3.37,0.702 1.403,0.407 0.836,-0.483 L 0,0"
             style="fill:#ffffff;fill-opacity:1;fill-rule:nonzero;stroke:none"
             id="path6015" /></g><g
           id="g6017"
           transform="translate(329.7739,395.1216)"><path
             d="M 0,0 C -0.296,0.215 -0.754,0.569 -1.778,0.352 L -1.993,-0.133 0,0"
             style="fill:#ffffff;fill-opacity:1;fill-rule:nonzero;stroke:none"
             id="path6019" /></g><g
           id="g6021"
           transform="translate(330.126,394.2852)"><path
             d="m 0,0 c -0.946,0.299 -1.888,0.164 -2.779,-0.24 0.082,-1.406 0.622,-2.615 2.427,-3.182 0.563,0.676 0.974,1.616 1.239,2.483 L 0.512,-0.133 0.27,-0.025 C 0.457,-0.833 -0.621,-1.806 -0.786,-0.861 L 0,0 z"
             style="fill:#ffffff;fill-opacity:1;fill-rule:nonzero;stroke:none"
             id="path6023" /></g><g
           id="g6025"
           transform="translate(332.2012,392.1841)"><path
             d="M 0,0 C -0.16,0.62 -0.485,1.483 -0.485,1.483 L 0,1.212 0,0 z"
             style="fill:#ffffff;fill-opacity:1;fill-rule:nonzero;stroke:none"
             id="path6027" /></g><g
           id="g6029"
           transform="translate(330.6885,390.7534)"><path
             d="M 0,0 C 0.325,0.513 0.704,1.458 0.704,1.458 0.864,0.917 1.001,0 1.001,0 0.571,-0.078 0.246,-0.05 0,0"
             style="fill:#ffffff;fill-opacity:1;fill-rule:nonzero;stroke:none"
             id="path6031" /></g><g
           id="g6033"
           transform="translate(332.9556,390.6465)"><path
             d="M 0,0 0,2.886 C 0.27,3.234 0.782,3.559 1.212,3.803 L 1.673,3.666 C 1.537,3.289 0.27,0.295 0,0"
             style="fill:#ffffff;fill-opacity:1;fill-rule:nonzero;stroke:none"
             id="path6035" /></g><g
           id="g6037"
           transform="translate(334.1162,391.2383)"><path
             d="M 0,0 C -0.218,-0.427 -0.945,-1.776 -0.945,-1.776 0.782,-2.453 7.466,-5.066 10.163,-4.446 6.223,-4.122 3.475,-2.158 0,0"
             style="fill:#ffffff;fill-opacity:1;fill-rule:nonzero;stroke:none"
             id="path6039" /></g><g
           id="g6041"
           transform="translate(332.7407,388.8428)"><path
             d="M 0,0 C -0.297,-0.542 -1.134,-2.24 -1.134,-2.24 0.485,-2.939 3.369,-3.509 8.654,-2.779 7.223,-2.591 1.751,-0.759 0,0"
             style="fill:#ffffff;fill-opacity:1;fill-rule:nonzero;stroke:none"
             id="path6043" /></g><g
           id="g6045"
           transform="translate(331.3101,385.9268)"><path
             d="M 0,0 C 2.67,-0.911 7.09,-1.292 12.023,-0.268 L 11.886,-0.54 7.118,-1.211 7.067,-1.856 c 0.993,-0.38 2.963,-1.296 3.15,-1.514 L 9.193,-4.229 c -1.239,0.727 -7.277,3.938 -8.814,0.352 l -0.863,0.348 c 0,0.973 0.296,3.238 0.484,3.529"
             style="fill:#ffffff;fill-opacity:1;fill-rule:nonzero;stroke:none"
             id="path6047" /></g><g
           id="g6049"
           transform="translate(339.9131,384.1753)"><path
             d="M 0,0 2.642,0.407 C 2.423,-0.132 2.259,-0.915 2.259,-1.102 1.967,-0.885 0.833,-0.105 0,0"
             style="fill:#ffffff;fill-opacity:1;fill-rule:nonzero;stroke:none"
             id="path6051" /></g><g
           id="g6053"
           transform="translate(320.4287,379.1123)"><path
             d="M 0,0 C 0.614,1.004 1.544,2.226 1.977,2.585 L 2.771,1.937 C 2.083,1.039 1.368,-0.361 1.219,-1.55 c -0.14,-1.185 0.079,0 0.079,0 L 0,0 z"
             style="fill:#ffffff;fill-opacity:1;fill-rule:nonzero;stroke:none"
             id="path6055" /></g><g
           id="g6057"
           transform="translate(319.6001,380.1514)"><path
             d="M 0,0 0.618,0.108 0.324,-0.396 0,0 z"
             style="fill:#ffffff;fill-opacity:1;fill-rule:nonzero;stroke:none"
             id="path6059" /></g><g
           id="g6061"
           transform="translate(319.7446,380.9448)"><path
             d="m 0,0 c 0.473,1.257 0.754,2.337 0.363,3.809 0.571,0.538 2.045,1.329 3.158,1.077 0.47,1.042 1.443,2.23 2.452,2.765 0.39,-0.75 1,-1.723 1.899,-2.079 C 5.973,5.71 4.459,5.643 2.443,2.406 L 1.513,2.945 1.153,2.334 2.087,1.726 2.013,1.257 1.188,0.211 0,0 z"
             style="fill:#ffffff;fill-opacity:1;fill-rule:nonzero;stroke:none"
             id="path6063" /></g><g
           id="g6065"
           transform="translate(326.4331,388.8853)"><path
             d="M 0,0 C 2.223,-0.107 3.45,-1.722 4.135,-2.837 3.846,-3.846 3.591,-5.679 3.666,-6.111 l -1.185,0.719 -0.039,0.073 0.144,0.217 C 2.259,-4.743 1.617,-3.951 1.578,-3.27 l 0.505,-0.181 0.359,0.614 C 1.868,-2.478 1.328,-2.446 1.184,-2.369 L 1.008,-1.473 0,0"
             style="fill:#ffffff;fill-opacity:1;fill-rule:nonzero;stroke:none"
             id="path6067" /></g><g
           id="g6069"
           transform="translate(323.9155,373.5366)"><path
             d="M 0,0 C 0.324,0.719 0.863,1.692 2.337,1.944 3.057,1.008 1.583,-1.077 0.898,-1.794 L 0,-0.105"
             style="fill:#ffffff;fill-opacity:1;fill-rule:nonzero;stroke:none"
             id="path6071" /></g><g
           id="g6073"
           transform="translate(323.5596,374.5796)"><path
             d="m 0,0 c -0.325,0.97 -0.684,1.833 -0.684,1.833 -0.364,0.685 -1.009,1.402 1.329,4.816 0.72,1.046 1.974,3.525 5.284,1.118 1.294,-0.794 2.983,-1.474 4.746,-1.366 l -0.04,0.717 c -0.574,0 -1.723,0.108 -1.723,0.108 0.39,1.4 3.376,1.87 7.442,-0.722 L 14.88,4.888 C 13.113,4.208 11.425,3.127 10.6,2.23 9.412,2.695 6.394,4.636 5.421,5.248 4.706,6.438 3.018,7.87 1.365,3.559 L 2.079,1.474 C 0.965,1.185 0.75,1.042 0,0"
             style="fill:#ffffff;fill-opacity:1;fill-rule:nonzero;stroke:none"
             id="path6075" /></g><g
           id="g6077"
           transform="translate(325.2832,371.2031)"><path
             d="M 0,0 C 1.04,0.828 2.873,1.653 5.499,1.798 5.14,1.257 4.312,-0.252 4.312,-0.252 L 0,0 z"
             style="fill:#ffffff;fill-opacity:1;fill-rule:nonzero;stroke:none"
             id="path6079" /></g><g
           id="g6081"
           transform="translate(337.0405,377.9941)"><path
             d="m 0,0 c -2.521,-1.617 -5.289,-3.954 -7.196,-8.376 l 1.404,-1.077 C -4.784,-7.188 -1.696,-1.651 0,0"
             style="fill:#ffffff;fill-opacity:1;fill-rule:nonzero;stroke:none"
             id="path6083" /></g><g
           id="g6085"
           transform="translate(333.6553,371.5586)"><path
             d="M 0,0 2.192,-0.825 C 1.833,-2.548 1.149,-3.915 -1.29,-2.369 L 0,0 z"
             style="fill:#ffffff;fill-opacity:1;fill-rule:nonzero;stroke:none"
             id="path6087" /></g><g
           id="g6089"
           transform="translate(334.5894,373.1802)"><path
             d="M 0,0 C -0.551,-0.832 3.381,4.921 4.136,5.607 5.175,5.68 6.363,5.787 6.723,4.921 L 2.951,1.725 C 1.939,1.437 0.649,0.968 0,0"
             style="fill:#ffffff;fill-opacity:1;fill-rule:nonzero;stroke:none"
             id="path6091" /></g><g
           id="g6093"
           transform="translate(341.8125,377.4546)"><path
             d="m 0,0 0.36,-0.32 c -0.684,-0.901 -2.479,-2.625 -3.162,-2.95 l 0.218,-0.576 c -0.898,-0.393 -2.513,-1.329 -3.161,-2.191 l -1.478,0.614 c 0.618,0.86 2.126,1.937 3.271,2.296 L 0,0 z"
             style="fill:#ffffff;fill-opacity:1;fill-rule:nonzero;stroke:none"
             id="path6095" /></g><g
           id="g6097"
           transform="translate(339.5146,379.5791)"><path
             d="M 0,0 1.083,1.185 C 2.267,0.393 3.416,-0.539 3.666,-1.547 L 3.201,-1.945 2.591,-1.44 C 2.408,-0.398 1.188,0.106 0,0"
             style="fill:#ffffff;fill-opacity:1;fill-rule:nonzero;stroke:none"
             id="path6099" /></g><g
           id="g6101"
           transform="translate(344.8691,385.9033)"><path
             d="m 0,0 0.469,-0.215 0,-0.434 -2.228,-1.436 C -1.508,-1.22 -0.32,-0.108 0,0"
             style="fill:#ffffff;fill-opacity:1;fill-rule:nonzero;stroke:none"
             id="path6103" /></g><g
           id="g6105"
           transform="translate(341.1675,381.2285)"><path
             d="M 0,0 C 1.294,1.188 3.631,3.021 4.312,3.239 5.105,1.401 5.859,0.221 7.044,-0.248 L 6.684,-1.689 C 5.574,-1.83 2.881,-2.478 2.663,-2.838 2.412,-1.83 0.825,-0.211 0,0"
             style="fill:#ffffff;fill-opacity:1;fill-rule:nonzero;stroke:none"
             id="path6107" /></g><g
           id="g6109"
           transform="translate(346.1631,385.2915)"><path
             d="M 0,0 1.657,0.722 C 1.978,0.252 3.018,-1.149 3.346,-1.149 L 2.627,-3.666 C 1.228,-2.875 0.219,-1.901 0,0"
             style="fill:#ffffff;fill-opacity:1;fill-rule:nonzero;stroke:none"
             id="path6111" /></g><g
           id="g6113"
           transform="translate(343.7944,377.4897)"><path
             d="M 0,0 C 1.149,0.649 2.729,1.118 3.952,1.226 3.776,0.038 3.842,-1.364 3.842,-1.364 L 0,0 z"
             style="fill:#ffffff;fill-opacity:1;fill-rule:nonzero;stroke:none"
             id="path6115" /></g><g
           id="g6117"
           transform="translate(339.4795,373.7163)"><path
             d="M 0,0 C 1.223,0.721 3.236,2.481 3.557,3.31 L 4.459,2.986 1.798,-1.149 0,0 z"
             style="fill:#ffffff;fill-opacity:1;fill-rule:nonzero;stroke:none"
             id="path6119" /></g><g
           id="g6121"
           transform="translate(344.6934,376.4131)"><path
             d="m 0,0 3.022,-1.112 c 0.25,-0.791 0.68,-1.62 1.719,-1.945 L 4.487,-8.013 3.338,-7.837 -2.735,-4.17 0,0 z"
             style="fill:#ffffff;fill-opacity:1;fill-rule:nonzero;stroke:none"
             id="path6123" /></g><g
           id="g6125"
           transform="translate(348.5,386.439)"><path
             d="M 0,0 0.396,0.258 1.548,-0.107 C 2.052,-0.426 3.307,-0.68 5.86,-0.68 l 0,-0.432 0.465,-0.142 C 6.258,-1.724 6.004,-2.189 4.714,-2.98 L 4.46,-2.189 3.702,-2.369 4.171,-3.449 2.158,-18.33 1.404,-18.223 c 0.109,1.761 0.965,12.765 1.688,16.175 L 2.338,-1.9 0.935,-12.291 c -1.47,1.153 -1.114,3.199 -0.539,6.545 l 0.363,-0.109 1.11,4.207 -0.465,0.031 C 0.899,-1.22 0.219,-0.391 0,0"
             style="fill:#ffffff;fill-opacity:1;fill-rule:nonzero;stroke:none"
             id="path6127" /></g><g
           id="g6129"
           transform="translate(353.3901,382.6709)"><path
             d="M 0,0 C 0.43,0.211 1.239,0.75 1.239,0.75 2.048,0.051 3.561,-0.598 1.403,-2.486 l 1.075,0.055 C 2.103,-3.616 1.887,-5.124 1.997,-6.098 L -0.754,-4.964 0,0 z"
             style="fill:#ffffff;fill-opacity:1;fill-rule:nonzero;stroke:none"
             id="path6131" /></g><g
           id="g6133"
           transform="translate(355.438,375.7642)"><path
             d="M 0,0 C -0.535,-0.268 -0.645,-1.349 -0.645,-1.508 L -3.072,-0.43 -2.857,1.403 0,0 z"
             style="fill:#ffffff;fill-opacity:1;fill-rule:nonzero;stroke:none"
             id="path6135" /></g><g
           id="g6137"
           transform="translate(355.438,374.5796)"><path
             d="M 0,0 C 0,0.45 0.364,0.81 0.81,0.81 1.255,0.81 1.623,0.45 1.623,0 1.623,-0.447 1.255,-0.807 0.81,-0.807 0.364,-0.807 0,-0.447 0,0"
             style="fill:#ffffff;fill-opacity:1;fill-rule:nonzero;stroke:none"
             id="path6139" /></g><g
           id="g6141"
           transform="translate(353.9844,373.7729)"><path
             d="m 0,0 11.554,-5.373 c -1.904,-1.723 -3.847,-6.203 0.254,-6.794 1.669,-0.104 2.696,-1.586 2.012,-3.884 0.035,-2.877 0.861,-2.909 0.826,-5.251 -0.11,-1.54 -0.11,-2.316 -0.54,-3.235 l -0.719,1.191 c -0.259,-2.75 -1.177,-3.262 -1.177,-3.262 -0.789,-0.145 -2.74,0.856 -3.209,1.239 1.149,1.114 2.482,2.599 2.482,6.713 -0.433,1.71 -0.504,1.993 -1.798,2.318 -2.747,1.616 -6.718,5.767 -8.767,7.6 -0.058,0.596 -0.164,1.887 -0.164,1.887 l -2.478,-0.806 -0.813,1.833 0.813,6.091 c 0,-1.508 0.106,-4.31 0.59,-5.392 L -0.54,-4.8 C -0.813,-3.399 -1.079,0.917 -1.079,0.917 -0.594,-1.241 0,-3.451 0.485,-4.263 L 1.02,-3.774 C 0.754,-3.074 0.214,-0.974 0,0"
             style="fill:#ffffff;fill-opacity:1;fill-rule:nonzero;stroke:none"
             id="path6143" /></g><g
           id="g6145"
           transform="translate(355.583,363.4385)"><path
             d="m 0,0 c 2.302,-2.265 6.688,-6.037 7.618,-6.362 -0.789,-3.449 2.197,-4.565 -0.246,-6.832 l -0.649,-0.791 c -0.9,0.256 -1.943,0.791 -2.662,1.692 l 0.829,1.186 C 6.039,-10.243 5.644,-7.622 1.977,-3.09 1.258,-2.123 0.105,-0.717 0,0"
             style="fill:#ffffff;fill-opacity:1;fill-rule:nonzero;stroke:none"
             id="path6147" /></g><g
           id="g6149"
           transform="translate(357.7754,347.8369)"><path
             d="M 0,0 C 0.504,1.261 1.435,2.625 1.435,2.625 2.158,1.976 3.417,0.972 3.881,0.899 2.912,0.215 1.478,-0.5 0,0"
             style="fill:#ffffff;fill-opacity:1;fill-rule:nonzero;stroke:none"
             id="path6151" /></g><g
           id="g6153"
           transform="translate(362.583,347.9155)"><path
             d="m 0,0 c -0.29,-0.5 -0.892,-1.651 -0.566,-2.908 1.293,-0.03 2.724,0.325 3.638,1.479 C 2.283,-1.212 0.934,-1.002 0,0"
             style="fill:#ffffff;fill-opacity:1;fill-rule:nonzero;stroke:none"
             id="path6155" /></g><g
           id="g6157"
           transform="translate(357.1113,373.2314)"><path
             d="M 0,0 C 0.648,0.542 0.75,0.97 0.75,1.566 L 9.38,-2.101 C 9.329,-2.75 9.38,-3.667 8.79,-4.042 L 0,0 z"
             style="fill:#ffffff;fill-opacity:1;fill-rule:nonzero;stroke:none"
             id="path6159" /></g><g
           id="g6161"
           transform="translate(356.5723,380.0791)"><path
             d="m 0,0 c -0.271,-0.756 -0.54,-2.373 -0.325,-3.614 l 0.27,-0.324 c 0.11,1.081 0.645,3.883 0.645,3.883 L 0,0"
             style="fill:#ffffff;fill-opacity:1;fill-rule:nonzero;stroke:none"
             id="path6163" /></g><g
           id="g6165"
           transform="translate(357.9204,380.0244)"><path
             d="m 0,0 c 2.642,-0.542 6.199,-2.535 7.598,-5.823 3.076,1.188 3.346,3.778 0.219,6.527 -1.724,2.425 -3.022,3.502 -0.703,7.493 0.703,0.973 3.83,4.366 3.99,4.8 C 11.159,11.863 10.189,9.438 9.756,9.006 9.22,8.356 8.356,7.657 8.032,6.524 l -0.11,0.432 -0.75,-0.161 0.97,-3.559 0.59,0.16 c -0.161,0.919 -0.7,2.483 0.809,4.369 0.973,0.971 1.888,2.696 2.267,3.881 0.269,-1.565 0.481,-2.155 0.269,-4.042 C 11.05,6.848 10.78,6.524 10.35,3.506 c 0.754,-1.673 1.297,-4.418 1.348,-6.041 l 0.65,-0.05 c -0.059,2.373 -0.11,4.309 -1.35,6.252 0.325,1.403 0.7,2.481 1.24,3.236 L 14.18,5.714 C 13.046,5.664 12.183,4.423 12.022,3.129 l 0.591,-0.271 c 0.485,1.241 0.918,2.104 2.318,2.157 L 16.338,3.938 16.279,2.105 c 0.759,-2.482 1.997,-6.365 0.059,-9.654 -0.379,2.481 -1.188,3.506 -1.892,4.422 -0.266,1.509 0.219,5.932 0.219,5.932 L 13.961,3.021 C 13.48,0.864 13.422,-1.993 13.746,-3.287 12.183,-5.068 10.889,-6.793 8.356,-8.03 L -0.595,-4.26 0,0 z"
             style="fill:#ffffff;fill-opacity:1;fill-rule:nonzero;stroke:none"
             id="path6167" /></g><g
           id="g6169"
           transform="translate(372.8003,374.7974)"><path
             d="M 0,0 C 0.324,-0.649 0.915,-1.89 0.754,-3.239 0.27,-3.723 -0.375,-4.423 -0.375,-4.423 -0.7,-3.45 -1.134,-1.456 0,0"
             style="fill:#ffffff;fill-opacity:1;fill-rule:nonzero;stroke:none"
             id="path6171" /></g><g
           id="g6173"
           transform="translate(330.2861,398.1133)"><path
             d="M 0,0 C 0.273,1.054 1.024,2.83 2.908,2.83 2.939,1.646 3.018,-0.187 0,0"
             style="fill:#1d1d1b;fill-opacity:1;fill-rule:nonzero;stroke:none"
             id="path6175" /></g><g
           id="g6177"
           transform="translate(331.3379,398.8389)"><path
             d="M 0,0 C 0.269,0.545 0.782,1.03 1.105,1.19 1.028,0.649 0.833,0.244 0,0"
             style="fill:#ffffff;fill-opacity:1;fill-rule:nonzero;stroke:none"
             id="path6179" /></g><g
           id="g6181"
           transform="translate(376.936,225.1387)"><path
             d="m 0,0 1.24,1.206 c 2.559,2.675 4.755,5.427 4.762,8.69 0,0.183 -0.007,0.366 -0.023,0.552 -0.252,3.528 -2.807,6.042 -6.936,6.025 -0.279,0 -0.565,-0.012 -0.858,-0.035 C -4.584,16.223 -6.901,15.1 -8.37,13.803 l -0.157,-0.14 1.835,-3.775 0.275,0.247 c 0.96,0.86 2.356,1.797 3.981,1.92 0.144,0.011 0.281,0.017 0.415,0.017 1.888,-0.023 2.665,-1.013 2.8,-2.427 C 0.78,9.592 0.783,9.527 0.783,9.466 0.802,7.364 -1.084,4.981 -5.04,0.87 L -7.529,-1.758 -7.28,-4.989 -7,-4.969 7.454,-3.854 7.113,0.548 0,0 z"
             style="fill:#ffffff;fill-opacity:1;fill-rule:nonzero;stroke:none"
             id="path6183" /></g><g
           id="g6185"
           transform="translate(394.2949,239.6279)"><path
             d="M 0,0 0.887,-4.081 4.692,-2.278 4.667,-18.022 9.76,-18.031 9.793,2.571 5.563,2.577 0,0 z"
             style="fill:#ffffff;fill-opacity:1;fill-rule:nonzero;stroke:none"
             id="path6187" /></g><g
           id="g6189"
           transform="translate(424.4326,224.0068)"><path
             d="m 0,0 0.02,0.28 -0.031,0.003 c -1.832,0.148 -2.631,1.775 -2.647,3.741 0,0.085 10e-4,0.169 0.005,0.254 0.041,0.524 0.132,0.851 0.238,1.02 0.463,0.838 1.371,1.435 2.419,1.435 l 0.003,0 C 0.079,6.733 0.155,6.729 0.231,6.724 1.919,6.579 2.675,5.318 2.694,3.726 2.694,3.599 2.69,3.47 2.681,3.341 2.519,1.479 1.528,0.268 0.206,0.273 0.144,0.273 0.083,0.274 0.022,0.28 L 0,0 z m 2.083,10.478 c -0.238,0.021 -0.471,0.031 -0.695,0.029 -1.264,0.002 -2.334,-0.301 -3.214,-0.854 0.872,1.829 2.739,3.271 6.327,3.286 0.025,10e-4 0.025,10e-4 0.039,0 0.711,0 1.243,-0.043 1.756,-0.085 l 0.281,-0.023 0.022,0.279 0.311,3.862 -0.26,0.037 c -0.472,0.068 -1.042,0.114 -1.916,0.123 -0.176,0.006 -0.357,0.009 -0.536,0.009 -2.965,0.001 -5.517,-0.796 -7.59,-2.396 -2.384,-1.88 -4.052,-4.977 -4.36,-8.797 -0.029,-0.347 -0.043,-0.692 -0.043,-1.034 -0.02,-4.423 2.437,-8.241 7.524,-8.638 0.237,-0.019 0.47,-0.029 0.702,-0.029 l 0.01,0 c 4.133,0 7.244,3.024 7.55,6.914 0.02,0.248 0.03,0.488 0.03,0.725 0.009,3.875 -2.655,6.341 -5.938,6.592"
             style="fill:#ffffff;fill-opacity:1;fill-rule:nonzero;stroke:none"
             id="path6191" /></g><g
           id="g6193"
           transform="translate(376.002,224.5039)"><path
             d="m 0,0 -0.021,0.279 -0.017,0.194 1.815,1.763 c 2.542,2.649 4.605,5.307 4.598,8.295 0,0.169 -0.007,0.338 -0.02,0.508 -0.271,3.272 -2.477,5.488 -6.378,5.508 -0.264,-0.001 -0.535,-0.011 -0.814,-0.033 -2.541,-0.196 -4.687,-1.203 -6.066,-2.358 l 1.326,-2.726 c 0.995,0.832 2.375,1.688 4.03,1.818 0.159,0.014 0.314,0.018 0.46,0.02 l 0.052,0 c 2.092,0 3.207,-1.327 3.307,-2.955 C 2.274,10.246 2.277,10.175 2.277,10.101 2.258,7.643 0.242,5.244 -3.7,1.117 L -6.016,-1.328 -5.83,-3.754 7.786,-2.703 7.532,0.581 0,0 z"
             style="fill:#382d86;fill-opacity:1;fill-rule:nonzero;stroke:none"
             id="path6195" /></g><g
           id="g6197"
           transform="translate(399.5229,222.166)"><path
             d="m 0,0 3.971,-0.009 0.033,19.482 -3.543,0.006 -5.046,-2.338 0.641,-2.952 3.563,1.69 0.066,0 0.06,0 0.281,0 L 0,0 z"
             style="fill:#382d86;fill-opacity:1;fill-rule:nonzero;stroke:none"
             id="path6199" /></g><g
           id="g6201"
           transform="translate(427.6875,227.7324)"><path
             d="m 0,0 c 0,-0.141 -0.004,-0.284 -0.016,-0.429 -0.155,-2.018 -1.316,-3.578 -3.033,-3.584 -0.074,0 -0.149,0.002 -0.228,0.009 l -0.032,0.002 c -2.232,0.182 -3.181,2.217 -3.164,4.301 0,0.092 0,0.184 0.006,0.287 0.047,0.574 0.137,0.975 0.313,1.268 0.551,1 1.64,1.713 2.906,1.714 0.09,0 0.182,-0.004 0.271,-0.011 C -0.964,3.405 0.02,1.765 0,0 M -1.867,6.221 C -3.361,6.22 -4.496,5.779 -5.381,5.006 L -5.47,4.929 -5.588,4.938 -6.029,4.973 -5.926,5.307 c 0.733,2.402 2.906,4.478 7.147,4.465 0.039,0.003 0.058,0.003 0.064,0.003 0.604,0 1.085,-0.031 1.524,-0.064 l 0.245,3.051 c -0.396,0.047 -0.883,0.078 -1.587,0.084 -0.176,0.006 -0.35,0.008 -0.524,0.008 -2.866,0 -5.279,-0.76 -7.246,-2.276 -2.244,-1.771 -3.848,-4.72 -4.145,-8.401 -0.029,-0.332 -0.042,-0.663 -0.042,-0.989 0.021,-4.237 2.222,-7.678 7.01,-8.079 0.221,-0.017 0.441,-0.027 0.656,-0.025 3.856,0.003 6.706,2.78 7.003,6.395 0.016,0.234 0.026,0.462 0.025,0.681 C 4.193,3.764 1.815,5.938 -1.219,6.193 -1.44,6.215 -1.656,6.221 -1.867,6.221"
             style="fill:#382d86;fill-opacity:1;fill-rule:nonzero;stroke:none"
             id="path6203" /></g></g></g></g></svg>