<?xml version="1.0" encoding="UTF-8" standalone="no"?>
<svg
   xmlns:dc="http://purl.org/dc/elements/1.1/"
   xmlns:cc="http://creativecommons.org/ns#"
   xmlns:rdf="http://www.w3.org/1999/02/22-rdf-syntax-ns#"
   xmlns:svg="http://www.w3.org/2000/svg"
   xmlns="http://www.w3.org/2000/svg"
   xmlns:sodipodi="http://sodipodi.sourceforge.net/DTD/sodipodi-0.dtd"
   xmlns:inkscape="http://www.inkscape.org/namespaces/inkscape"
   width="600pt"
   height="802pt"
   viewBox="0 0 600 802"
   version="1.1"
   id="svg3052"
   inkscape:version="0.48.5 r10040"
   sodipodi:docname="rufc_logo.svg">
  <metadata
     id="metadata3117">
    <rdf:RDF>
      <cc:Work
         rdf:about="">
        <dc:format>image/svg+xml</dc:format>
        <dc:type
           rdf:resource="http://purl.org/dc/dcmitype/StillImage" />
      </cc:Work>
    </rdf:RDF>
  </metadata>
  <defs
     id="defs3115" />
  <sodipodi:namedview
     pagecolor="#ffffff"
     bordercolor="#666666"
     borderopacity="1"
     objecttolerance="10"
     gridtolerance="10"
     guidetolerance="10"
     inkscape:pageopacity="0"
     inkscape:pageshadow="2"
     inkscape:window-width="1600"
     inkscape:window-height="838"
     id="namedview3113"
     showgrid="false"
     inkscape:zoom="0.91835714"
     inkscape:cx="457.53546"
     inkscape:cy="622.13457"
     inkscape:window-x="-8"
     inkscape:window-y="-8"
     inkscape:window-maximized="1"
     inkscape:current-layer="svg3052" />
  <g
     id="#fefefeff">
    <path
       d="M 375 17.84375 C 357.45 17.840625 339.91875 18.3625 322.40625 19.40625 C 316.59375 19.98125 310.81875 20.95 305.03125 21.8125 C 298.15625 22.4375 291.23125 22.7625 284.46875 24.3125 C 276.19375 26.3 267.55 26.2125 259.375 28.75 C 239.3875 32.2875 219.7 37.375 200.1875 43 C 161.5875 54.1625 123.9375 68.64375 87.875 86.40625 C 69.1625 95.61875 50.65625 105.425 33.28125 117 C 29.19375 121.275 30.54375 127.85625 29.21875 133.21875 C 27.09375 141.73125 26.35 150.4625 25.1875 159.125 C 22.3375 172.0625 22.76875 185.4 20.65625 198.4375 C 17.91875 215.9 19.28125 233.7375 17.03125 251.25 C 16.54375 279.7625 16.56875 308.26875 16.90625 336.78125 C 18.80625 353.53125 18.175 370.475 19.8125 387.25 C 21.2875 398.9875 22.56875 410.76875 23.34375 422.59375 C 26.13125 435.65625 26.325 449.1 29.3125 462.125 C 29.625 469.7375 32.55 477.025 31.875 484.6875 C 32.3 483.0875 32.6 481.4625 33 479.875 C 33.15 486.225 34 492.5875 35.8125 498.6875 C 37.525 504.3625 37.4125 510.45 39.4375 516.0625 C 61.425 616.85 102.1875 714.3 163.3125 797.8125 C 192.3125 837.8 226.2875 874.03125 263.375 906.59375 C 297.1375 935.90625 334.0875 961.40625 372.75 983.78125 C 374.25 984.56875 375.7625 984.64375 377.3125 984.03125 C 467.925 933.10625 546.525 860.75 603.875 774 C 648.35 707.275 680.61875 632.7125 701.34375 555.375 C 707.04375 535.325 711.09375 514.8625 715.71875 494.5625 C 716.66875 484.3 720.05625 474.46875 720.59375 464.15625 C 724.03125 450.33125 724.1875 435.99375 726.8125 422.03125 C 728.475 401.84375 731.6125 381.8 731.6875 361.5 C 731.5 353.8625 733.33125 346.375 733.09375 338.75 C 733.41875 309.575 733.45 280.39375 733 251.21875 C 730.8 234.96875 732.075 218.4125 729.5625 202.1875 C 729.1125 193.5 727.35 184.9625 727.125 176.25 C 726.375 167 723.91875 157.95625 723.46875 148.65625 C 722.46875 140.25625 720.05625 132.11875 719.40625 123.65625 C 718.94375 115.94375 710.34375 113.75 705.15625 109.75 C 656.00625 80.4875 602.725 58.36875 547.875 42.40625 C 528.9375 37.21875 509.975 32.20625 490.625 28.84375 C 482.1125 26.23125 473.125 26.2375 464.5 24.1875 C 456.0375 22.2125 447.25 22.6125 438.75 20.875 C 435.025 20.4875 431.375 19.60625 427.625 19.40625 C 410.1125 18.3625 392.55 17.846875 375 17.84375 z M 380.65625 35.34375 C 392.125 35.359375 403.6 35.45625 415.0625 35.75 C 426.225 37.6625 437.6625 37.2 448.8125 39.3125 C 458.45 41.0875 468.31875 41.5 477.84375 44 C 491.64375 45.525 505.08125 49.08125 518.53125 52.40625 C 538.75625 57.20625 558.54375 63.525 578.40625 69.625 C 616.84375 83.2625 654.53125 99.425 689.84375 119.9375 C 694.81875 122.925 700.1875 125.38125 704.625 129.15625 C 706.3375 138.14375 708.5375 147.0875 709.25 156.25 C 710.45 165.825 712.23125 175.35 712.84375 185 C 713.30625 195.8875 716.0625 206.54375 715.9375 217.46875 C 717 227.01875 716.2875 236.6875 717.9375 246.1875 C 718.65 281.6375 718.5875 317.1125 718 352.5625 C 716.125 365.5875 716.875 378.84375 715.1875 391.90625 C 712.95 408.06875 712.775 424.4625 709.5625 440.5 C 708.8375 448.9 707.58125 457.2625 705.78125 465.5 C 705.03125 473.375 703.35 481.075 701.75 488.8125 C 701 496.7875 698.16875 504.3375 697.09375 512.25 C 689.49375 546.325 680.41875 580.1125 668.46875 612.9375 C 665.00625 624.725 659.85625 635.90625 655.28125 647.28125 C 645.19375 671.25625 634.46875 695 621.71875 717.6875 C 616.64375 726.1875 612.65 735.325 607.125 743.5625 C 594.1375 765.0375 580.0125 785.8375 564.25 805.375 C 514.35 869.8375 451.45 923.8875 381.25 965.1875 C 379.3875 965.85 377.325 967.775 375.3125 966.625 C 361.625 959.8375 349.1875 950.89375 336.5 942.46875 C 310.6625 925.38125 286.54375 905.8875 263.21875 885.5625 C 248.71875 871.3 233.775 857.45 220.375 842.125 C 203.05 823.475 187.375 803.36875 172.1875 782.96875 C 113.6375 700.48125 75.18125 604.6625 54.84375 505.875 C 52.56875 497.525 51.875 488.8625 49.625 480.5 C 48.575 472.55 47.425 464.625 45.625 456.8125 C 44.4625 443.175 41.0375 429.86875 40.5625 416.15625 C 38.7 401.65625 37.1375 387.10625 36.75 372.46875 C 35.05 363.39375 35.80625 354.13125 35.28125 344.96875 C 34.24375 338.78125 34.28125 332.5 34.15625 326.25 C 34.00625 301.2625 33.9 276.2875 34.5625 251.3125 C 35.625 244.6625 35.55625 237.93125 35.78125 231.21875 C 37.75625 217.24375 37.225 203.0375 39.3125 189.0625 C 40.9625 178.3375 41.1625 167.4 43.3125 156.75 C 44.825 149.6875 45.11875 142.46875 46.09375 135.34375 C 46.75625 132.55625 47.06875 129.125 49.71875 127.4375 C 59.19375 121.0125 69.65 116.2125 79.6875 110.75 C 101.7375 98.875 124.6625 88.79375 147.875 79.46875 C 168.6625 72.39375 188.975 63.8125 210.375 58.6875 C 225.175 54.1375 240.28125 50.75625 255.40625 47.53125 C 263.43125 44.96875 271.975 44.98125 280.125 42.96875 C 288.5875 40.96875 297.275 40.6375 305.8125 39.0625 C 316 37.2 326.41875 37.49375 336.65625 36.15625 C 339.81875 35.60625 343.0375 35.58125 346.25 35.53125 C 357.7125 35.4 369.1875 35.328125 380.65625 35.34375 z M 273.75 89.03125 C 239.3 123.03125 205.2375 157.48125 170.875 191.59375 C 173.75 194.95625 176.9625 198.00625 180.0625 201.15625 C 198.2875 219.18125 216.325 237.425 234.5 255.5 C 247.0625 267.85 259.225 280.6125 272.125 292.625 C 238.75 326.5625 204.75 359.875 171.3125 393.75 C 174.4625 398.0375 178.4 401.63125 182.1875 405.34375 C 199.4375 421.83125 215.7125 439.3 232.9375 455.8125 C 245.8625 468.7375 258.825 481.66875 271.5625 494.78125 C 274.025 497.56875 276.71875 493.94375 278.53125 492.28125 C 310.36875 459.73125 342.8125 427.775 375 395.5625 C 402.75 423.45 430.7375 451.0625 458.5 478.9375 C 463.8125 484.075 468.5 489.84375 474.0625 494.71875 C 474.95 495.83125 476.5875 496.21875 477.8125 495.40625 C 490.7375 481.65625 504.5 468.7 517.6875 455.1875 C 537.65 435.4375 557.35625 415.4125 577.34375 395.6875 C 580.15625 392.1125 574.68125 389.6625 572.71875 387.25 C 541.06875 355.75 509.36875 324.25 477.96875 292.5 C 493.74375 277.6125 508.80625 261.9875 524.21875 246.75 C 542.38125 228.275 561.1125 210.3875 579 191.6875 C 544.85 157.3875 510.7125 123.0625 476.25 89.0625 C 442.2375 122.3125 409.06875 156.5125 375.03125 189.6875 C 341.10625 156.3125 307.6625 122.41875 273.75 89.03125 z M 374.3125 121.8125 C 367.525 128.3375 360.9375 135.05625 354.25 141.71875 C 352.9875 143.15625 350.275 145.1625 352.25 147.1875 C 359.6625 154.9125 367.3125 162.45625 375 169.90625 C 383.275 161.83125 391.6125 153.78125 399.4375 145.28125 C 391.45 137.58125 383.75625 129.55625 375.78125 121.84375 L 374.3125 121.8125 z M 482.65625 122.34375 C 489.51875 129.69375 496.95 136.475 503.875 143.75 C 487.325 160.1625 470.9375 176.725 454.375 193.125 C 451.525 195.7625 449.14375 199.9625 451.59375 203.6875 C 453.61875 210.025 459.0375 214.4 465 216.875 C 468.375 217.8375 471.46875 216.03125 473.78125 213.71875 C 490.58125 197.25625 506.94375 180.35 523.84375 164 C 531.34375 170.725 538.075 178.28125 545.5 185.09375 C 530.1125 199.83125 515.375 215.26875 500.125 230.15625 C 494.7625 235.28125 490.0125 241.09375 484.0625 245.59375 C 479.3625 249.23125 473.01875 248.41875 467.46875 248.21875 C 461.69375 248.15625 456.6875 245.0125 451.8125 242.3125 C 435.7 232.7625 422.96875 216.35 420.53125 197.5 C 420.00625 187.1375 426.1625 177.7875 433.75 171.25 C 450.05 154.95 466.39375 138.68125 482.65625 122.34375 z M 268.65625 135.125 C 273.30688 135.10999 277.95312 135.70312 282.1875 137.71875 C 290.575 140.76875 296.48125 148.3625 299.53125 156.5 C 300.90625 161.5625 301.75 166.7625 302.875 171.875 C 318.4625 172.125 331.2875 182.70625 341.8125 193.15625 C 343.5 195.04375 347.23125 197.9875 344.40625 200.4375 C 339.01875 206.3125 332.7 211.28125 327.375 217.21875 C 320.2375 210.33125 313.74375 202.74375 305.84375 196.71875 C 302.98125 194.14375 297.9625 193.48125 295.25 196.59375 C 289.2625 202.18125 283.5625 208.1 277.6875 213.8125 C 286.05 222.9125 295.11875 231.34375 303.78125 240.15625 C 298.61875 246.20625 292.85 251.675 287.25 257.3125 C 285.9875 258.45 284.05 260.725 282.4375 258.75 C 259.7125 236.075 237.1 213.2875 214.3125 190.6875 C 212.675 188.825 210.275 187.44375 209.5 184.96875 C 211.9625 181.48125 215.625 179.125 218.5625 176.0625 C 229.725 164.725 241.3625 153.84375 252.4375 142.40625 C 254.9625 140.06875 257.2 137.0875 260.375 135.625 C 263.09375 135.35781 265.86587 135.13401 268.65625 135.125 z M 265.71875 165.0625 C 264.83162 165.05426 263.92344 165.19063 263 165.5 C 256.75 169.9625 252.65 176.76875 246.625 181.53125 C 250.65 186.46875 255.25 190.9 260 195.125 C 260.4375 194.95 261.325 194.6125 261.75 194.4375 C 266.8 189.4 271.8375 184.3625 276.875 179.3125 C 277.7625 176.5125 277.7375 172.8625 275.5 170.6875 C 272.98125 167.82344 269.56297 165.09821 265.71875 165.0625 z M 375.03125 256.34375 C 379.75073 256.36715 384.45703 257.09141 388.78125 258.96875 C 399.59375 263.61875 408.0625 273.4375 410.5625 285 C 411.525 294.1125 411.5125 303.8375 406.9375 312.0625 C 401.725 321.075 392.6625 328.075 382.4375 330.3125 C 373.85 331.3375 364.40625 331.675 356.65625 327.1875 C 344.50625 320.9125 335.65 307.7125 336.6875 293.75 C 335.4375 277 348.1375 261.2875 364.125 257.3125 C 367.66875 256.71641 371.36054 256.32555 375.03125 256.34375 z M 258.1875 336.46875 C 259.22656 336.39844 260.2875 336.725 261.0625 337.5 C 265.15 341.4125 269.15625 345.44375 273.15625 349.46875 C 275.48125 351.21875 275.2375 354.975 273.0625 356.75 C 263.0375 366.6625 253.11875 376.66875 243.09375 386.59375 C 247.25625 391.03125 251.575 395.33125 256 399.53125 C 263.3 391.90625 271.175 384.85 278.4375 377.1875 C 280.15 375.825 282.33125 372.625 284.46875 375.1875 C 290.06875 380.0375 295.0375 385.5625 300.125 390.9375 C 291.0125 400.05 281.6875 408.9625 272.9375 418.4375 C 280.65 425.6875 287.94375 433.34375 295.59375 440.65625 C 297.31875 442.44375 299.33125 443.99375 300.53125 446.21875 C 299.78125 448.03125 298.33125 449.41875 296.96875 450.78125 C 291.23125 456.35625 285.61875 462.05625 279.84375 467.59375 C 274.93125 464.23125 271.18125 459.575 266.90625 455.5 C 245.45625 434.125 224.05625 412.70625 202.65625 391.28125 C 204.14375 388.44375 207.075 386.625 209.1875 384.25 C 224.4375 368.6125 240.21875 353.5 255.46875 337.875 C 256.1375 337.00625 257.14844 336.53906 258.1875 336.46875 z M 480.5625 342.875 C 481.62979 342.84264 482.67813 342.86641 483.75 342.90625 C 496.45 342.46875 509.45625 347.48125 518.21875 356.78125 C 526.03125 364.14375 530.1875 374.575 531.875 385 C 533.475 398.125 529.59375 411.4375 522.59375 422.5 C 515.88125 416.0125 509.3875 409.2625 502.6875 402.75 C 505.7625 397.3375 507.56875 390.2875 504.28125 384.5625 C 501.68125 379.175 497.91875 373.6625 491.90625 371.8125 C 481.35625 368.275 469.6 373.15625 462.5 381.21875 C 457.5375 386.66875 453.4375 393.6625 453.75 401.25 C 453.3625 407.7375 456.7375 414.35 462.1875 417.875 C 467.2625 421.6 474.0625 421.16875 480 420.53125 C 483.1875 420.21875 485.975 417.43125 489.25 418.15625 C 495.1375 424.14375 501.15625 430.04375 506.84375 436.21875 C 506.78125 436.74375 506.675 437.7875 506.625 438.3125 C 493.6875 446.5375 477.675 450.1625 462.5625 447 C 448.9125 444.4875 436.74375 435.1625 430.90625 422.5625 C 421.26875 403.8125 425.65 379.90625 439.125 364.15625 C 449.20312 351.85156 464.55313 343.36046 480.5625 342.875 z M 376.1875 416.71875 C 375.6 416.71875 374.4 416.7375 373.8125 416.75 C 368.225 421.9 362.7125 427.20625 357.9375 433.15625 C 369.3 432.80625 380.65 432.725 392 433.1875 C 387.1125 427.35 381.7 421.93125 376.1875 416.71875 z M 375 441.625 C 365.2875 441.9375 355.1375 441.3 345.875 444.625 C 326.875 463.1125 308.375 482.1375 289.5 500.75 C 284.25 505.8625 279.41875 511.425 273.78125 516.125 C 267.33125 510.2125 261.4625 503.65 255 497.75 C 251.3625 502.075 246.4875 505.81875 244.5625 511.28125 C 243.1375 523.55625 239.475 535.43125 238.0625 547.71875 C 241.475 545.01875 244.46875 541.875 247.65625 538.9375 C 267.70625 520.675 292.0625 507.34375 318 499.59375 C 327.175 497.24375 336.34375 494.35 345.90625 494.25 C 347.44375 486.225 347.31875 477.575 351.53125 470.3125 C 354.71875 463.925 360.63125 458.5875 367.84375 457.4375 C 375.90625 456.2125 385.0875 456.46875 391.5625 462.09375 C 400.25 469.51875 402.575 481.61875 402.0625 492.53125 C 409.5875 495.53125 417.925 495.1 425.5625 497.8125 C 458.325 506.0375 488.625 523.64375 511.9375 548.09375 C 510.9125 535.35625 506.55 523.19375 505.5 510.46875 C 503.975 504.99375 499.10625 501.40625 495.84375 496.96875 C 489.16875 503.20625 483.175 510.18125 476.25 516.15625 C 468.2125 509.24375 461.31875 501.15 453.59375 493.9375 C 437.14375 477.4625 420.75 460.9125 404.1875 444.5625 C 394.9375 441.05 384.7125 442.025 375 441.625 z M 344.53125 507.6875 C 339.24553 507.77996 334.1625 509.3125 329 510.40625 C 293.1125 518.43125 260.5 538.7375 236.1875 566.1875 C 231.4625 569.875 232.28125 576.4875 231.84375 581.8125 C 240.69375 573.1625 248.78125 563.6875 258.59375 556.0625 C 282.36875 537.125 310.66875 523.83125 340.59375 518.28125 C 342.71875 517.93125 344.8625 517.43125 346.75 516.34375 C 346.775 513.46875 346.75 510.625 346.8125 507.75 C 346.04844 507.69844 345.28635 507.67429 344.53125 507.6875 z M 403.375 507.71875 C 402.90905 507.73318 402.4375 507.77344 401.96875 507.8125 C 402.00625 510.7875 402 513.7625 401.9375 516.75 C 422.475 520.4125 442.78125 526.375 461.21875 536.3125 C 483.31875 547.6375 502.55625 563.8625 518.65625 582.6875 C 517.51875 577.0375 518.625 570.275 514.3125 565.8125 C 490.3125 539.3375 458.475 520.0375 423.875 511.125 C 417.04297 509.91797 410.36427 507.50237 403.375 507.71875 z M 372.25 531.84375 C 368.58789 531.88398 364.90312 531.97187 361.25 532.0625 C 335.2375 534.05 309.7375 542.4625 287.5 556.0625 C 288.25 557.475 289.3125 558.58125 290.6875 559.40625 C 297.7 563.95625 304.5375 568.8 311.1875 573.875 C 312.55 574.5875 314.2875 576.675 315.875 575.25 C 341.825 556.95 373.8375 549.875 405 547.4375 C 418.125 546.325 431.325 547.55625 444.4375 546.65625 C 432.1 540.30625 418.5625 536.90625 405.0625 534.09375 C 394.23438 532.05938 383.23633 531.72305 372.25 531.84375 z M 420.625 563.03125 C 403.7113 563.26718 386.86328 564.9125 370.375 568.90625 C 355.9125 572.48125 341.36875 577.475 329.21875 586.3125 C 329.23125 586.9375 329.25 588.1375 329.25 588.75 C 340.9375 599.7375 352.6375 611.11875 361.3125 624.71875 C 366.175 624.46875 369.8625 620.98125 374.0625 618.96875 C 393.1375 609.19375 413.625 601.8125 435 599.3125 C 444.85 597.1125 455.0375 598.05 465.0625 598 C 483.8625 599.575 502.3375 604.7375 519.1875 613.3125 C 518.025 610.3875 516.64375 607.5875 514.78125 605.0625 C 504.80625 590.9 493.08125 577.75625 479.09375 567.46875 C 472.83125 566.03125 466.33125 565.90625 460.03125 564.59375 C 446.96094 563.53281 433.7801 562.84775 420.625 563.03125 z M 271.1875 566.5625 C 260.675 575.9 250.16875 585.35 241.59375 596.5625 C 239.68125 599.15 236.05 602.61875 239.125 605.78125 C 259.05 633.81875 283.9375 658.4 312.5 677.625 C 330.3625 689.6625 350.1375 698.73125 370.75 704.90625 C 372.8375 692.09375 370 679.125 365.75 667.0625 C 359.275 648.875 347.925 632.88125 335.4375 618.34375 C 318.2375 599.08125 298.1625 582.53125 276.625 568.34375 C 275.0375 567.16875 273.05 566.9625 271.1875 566.5625 z M 456.4375 614.28125 C 455.54442 614.28762 454.64375 614.31445 453.75 614.34375 C 424.4875 613.63125 396.18125 624.08125 371.09375 638.46875 C 375.33125 647.23125 379.7 655.94375 382.75 665.21875 C 387.7 663.83125 392.425 661.76875 397.4375 660.59375 C 418.35 654.80625 442.88125 656.86875 460.09375 671.09375 C 461.80625 672.89375 464.3875 672.2375 466.375 671.3125 C 483.1 664.1125 502 661.1625 520 664.625 C 527.875 665.5 535.01875 669.1625 542.15625 672.375 C 540.66875 665.7625 539.85625 659 537.46875 652.625 C 536.13125 649.05 536.325 644.475 532.75 642.1875 C 511.37695 624.82266 484.1229 614.08375 456.4375 614.28125 z M 227.375 618.65625 C 221.6875 626.80625 218.425 636.2875 214.75 645.4375 C 211.725 656.325 207.475 667.2875 208.0625 678.75 C 224.6875 698.15 243.13125 716 263.15625 731.875 C 283.40625 747.625 305.575 761.525 330.125 769.4375 C 333.275 770.1125 337.6125 771.98125 340 768.78125 C 351.8 754.56875 362.99375 739 367.71875 720.875 C 331.14375 711.35 297.85 691.49375 269.9375 666.28125 C 254.4 651.69375 239.4 636.31875 227.375 618.65625 z M 421.78125 674.15625 C 419.09688 674.14219 416.425 674.21875 413.75 674.28125 C 404.2375 674.60625 395.25 678.1625 386.6875 682 C 387.175 694.1875 387.675 706.46875 385.9375 718.59375 C 379.2 749.44375 359.53125 775.7125 336.59375 796.6875 C 319.10625 812.6375 299.73125 826.55 279.21875 838.3125 C 279.20625 838.9 279.2 840.0875 279.1875 840.6875 C 299.45 853.9875 322.25 863.8125 346.25 867.625 C 352.7375 867.4375 360.29375 872.18125 365.90625 867.21875 C 376.15625 859.20625 386 850.5875 394.625 840.8125 C 420.025 813.6 439.3375 780.15625 447.5625 743.71875 C 449.6875 737.85625 450.1125 731.625 450.75 725.5 C 452.9875 712.375 453.65 699.05 452.8125 685.75 C 446.2 680.2375 438.44375 675.8375 429.84375 674.5 C 427.16875 674.25625 424.46562 674.17031 421.78125 674.15625 z M 504.25 680.28125 C 492.22949 680.51562 480.3 683.3625 469.125 687.84375 C 468.95 701.33125 469.3875 714.9 467.6875 728.3125 C 465.625 736.325 465.40625 744.70625 462.84375 752.59375 C 453.80625 790.05625 433.925 824.575 407.5625 852.5625 C 402.3 858.35 395.875 863.075 391.25 869.4375 C 399.6625 867.8125 408.4125 867.75625 416.5625 864.90625 C 476.925 850.50625 526.73125 799.7375 540.15625 739.1875 C 540.91875 733.6125 542.94375 728.2625 543.34375 722.625 C 544.19375 712.6375 544.66875 702.5625 544.09375 692.5625 C 536.53125 685.65 526.01875 683.225 516.28125 680.9375 C 512.27813 680.4 508.25684 680.20312 504.25 680.28125 z M 205.84375 700.90625 C 205.89375 711.64375 205.84375 722.575 208.71875 733 C 215.43125 769.8375 235.55625 803.95625 263.84375 828.40625 C 278.85625 819.84375 293.08125 809.93125 306.78125 799.40625 C 312.28125 794.75625 318.4375 790.75 323 785.125 C 294.7 776.9625 269.825 760.05 247.5625 741.1875 C 232.5875 728.9 219.63125 714.44375 205.84375 700.90625 z "
       transform="scale(0.8,0.8)"
       id="path3059"
       style="fill:#ffffff" />
  </g>
  <g
     id="#202020ff">
    <path
       d="M 346 0 C 330.35 1.9 314.6625 3.4125 298.9375 4.5625 C 288.6 7.0375 277.9125 7.2875 267.5625 9.625 C 204.725 20.7 143.53125 40.8125 85.90625 68.25 C 62.79375 79.5 39.96875 91.58125 18.84375 106.28125 C 16.30625 109.90625 15.8125 114.4875 15.125 118.75 C 14.3625 126.0125 11.96875 132.99375 11.34375 140.28125 C 10.65625 149.01875 8.075 157.475 7.6875 166.25 C 7.1125 177.9625 4.25625 189.43125 3.90625 201.15625 C 3.04375 219.45625 1.3 237.6625 0 255.9375 L 0 331.5 C 0.45 339.775 1.9375 347.98125 1.875 356.28125 C 1.925 362.54375 3.53125 368.68125 3.34375 374.96875 C 3.45625 393.33125 7.2625 411.35625 8.3125 429.65625 C 10.6625 440.86875 11.16875 452.35 13.46875 463.5625 C 21.59375 515.7 34.45 567.1375 51.8125 617 C 84.2875 709.2875 134.2125 795.98125 201.25 867.53125 C 235.375 904.49375 274.0375 937.1625 315.5 965.625 C 334.675 978.95 355.00625 990.5125 375.03125 1002.5 L 376.75 1002.5 C 379.4875 1000.3375 382.3875 998.3875 385.4375 996.6875 C 457.4625 956.0625 522.28125 902.525 574.96875 838.75 C 636.75625 764.4625 681.58125 676.825 709.46875 584.5 C 718.18125 556.325 725.03125 527.59375 730.96875 498.71875 C 732.06875 489.44375 735.09375 480.5375 735.65625 471.1875 C 738.41875 458.975 739.21875 446.44375 741.59375 434.15625 C 742.55625 425.30625 742.89375 416.38125 744.40625 407.59375 C 746.79375 393.10625 745.975 378.30625 748 363.78125 C 748 354.65625 749.2125 345.6375 750 336.5625 L 750 249.0625 C 748.25 242.7125 748.1375 236.15 748 229.625 C 745.95 215.075 746.79375 200.24375 744.40625 185.71875 C 742.20625 173.19375 742.4875 160.3625 739.5625 147.9375 C 738.6875 136.9 735.8125 126.18125 734.375 115.21875 C 733.4625 111.43125 732.83125 106.775 729.09375 104.6875 C 715.96875 95.9125 702.33125 87.9125 688.40625 80.5 C 623.98125 46.575 554.38125 22.425 482.71875 9.625 C 474.44375 7.5125 465.84375 7.5375 457.53125 5.6875 C 449.21875 3.8 440.675 3.90625 432.25 3.09375 C 422.8875 1.76875 413.4125 1.4125 404.0625 0 L 346 0 z M 375 17.84375 C 392.55 17.846875 410.1125 18.3625 427.625 19.40625 C 431.375 19.60625 435.025 20.4875 438.75 20.875 C 447.25 22.6125 456.0375 22.2125 464.5 24.1875 C 473.125 26.2375 482.1125 26.23125 490.625 28.84375 C 509.975 32.20625 528.9375 37.21875 547.875 42.40625 C 602.725 58.36875 656.00625 80.4875 705.15625 109.75 C 710.34375 113.75 718.94375 115.94375 719.40625 123.65625 C 720.05625 132.11875 722.46875 140.25625 723.46875 148.65625 C 723.91875 157.95625 726.375 167 727.125 176.25 C 727.35 184.9625 729.1125 193.5 729.5625 202.1875 C 732.075 218.4125 730.8 234.96875 733 251.21875 C 733.45 280.39375 733.41875 309.575 733.09375 338.75 C 733.33125 346.375 731.5 353.8625 731.6875 361.5 C 731.6125 381.8 728.475 401.84375 726.8125 422.03125 C 724.1875 435.99375 724.03125 450.33125 720.59375 464.15625 C 720.05625 474.46875 716.66875 484.3 715.71875 494.5625 C 711.09375 514.8625 707.04375 535.325 701.34375 555.375 C 680.61875 632.7125 648.35 707.275 603.875 774 C 546.525 860.75 467.925 933.10625 377.3125 984.03125 C 375.7625 984.64375 374.25 984.56875 372.75 983.78125 C 334.0875 961.40625 297.1375 935.90625 263.375 906.59375 C 226.2875 874.03125 192.3125 837.8 163.3125 797.8125 C 102.1875 714.3 61.425 616.85 39.4375 516.0625 C 37.4125 510.45 37.525 504.3625 35.8125 498.6875 C 34 492.5875 33.15 486.225 33 479.875 C 32.6 481.4625 32.3 483.0875 31.875 484.6875 C 32.55 477.025 29.625 469.7375 29.3125 462.125 C 26.325 449.1 26.13125 435.65625 23.34375 422.59375 C 22.56875 410.76875 21.2875 398.9875 19.8125 387.25 C 18.175 370.475 18.80625 353.53125 16.90625 336.78125 C 16.56875 308.26875 16.54375 279.7625 17.03125 251.25 C 19.28125 233.7375 17.91875 215.9 20.65625 198.4375 C 22.76875 185.4 22.3375 172.0625 25.1875 159.125 C 26.35 150.4625 27.09375 141.73125 29.21875 133.21875 C 30.54375 127.85625 29.19375 121.275 33.28125 117 C 50.65625 105.425 69.1625 95.61875 87.875 86.40625 C 123.9375 68.64375 161.5875 54.1625 200.1875 43 C 219.7 37.375 239.3875 32.2875 259.375 28.75 C 267.55 26.2125 276.19375 26.3 284.46875 24.3125 C 291.23125 22.7625 298.15625 22.4375 305.03125 21.8125 C 310.81875 20.95 316.59375 19.98125 322.40625 19.40625 C 339.91875 18.3625 357.45 17.840625 375 17.84375 z M 476.25 70.46875 C 470.7125 74.25625 466.4125 79.5 461.5625 84.0625 C 446.425 99.7625 430.625 114.8 415.5 130.5 C 413.4 132.3 411.2875 135.4375 408.125 134.375 C 403.75 131.325 400.66875 126.85 396.71875 123.3125 C 389.16875 116.4875 382.26875 108.98125 375.46875 101.40625 C 367.69375 107.03125 362.46875 115.28125 355.21875 121.46875 C 351.45625 124.78125 348.3875 128.775 344.75 132.1875 C 343.25 133.5375 341.425 135.14375 339.25 134.46875 C 337.725 133.55625 336.43125 132.3375 335.15625 131.125 C 325.40625 121.2875 315.625 111.4625 306 101.5 C 295.95 92.3875 286.825 82.31875 277 72.96875 C 275.7 72.11875 274.40625 70.175 272.65625 70.875 C 268.11875 74.4125 264.63125 79.0625 260.46875 83 C 225.51875 117.625 190.925 152.60625 156 187.28125 C 154.575 188.91875 151.4375 191.525 153.875 193.625 C 161.225 201.6625 169.11875 209.1875 176.84375 216.875 C 199.26875 239.475 221.85625 261.9 244.34375 284.4375 C 246.86875 287.325 252 289.83125 250.625 294.40625 C 247.0375 299.85625 241.625 303.725 237.1875 308.4375 C 227.9875 317.1375 219.6375 326.70625 210.25 335.21875 C 204.0125 340.66875 198.875 347.1875 192.875 352.875 C 182.825 362.4 173.33125 372.475 163.46875 382.1875 C 159.79375 385.9 155.7875 389.40625 152.875 393.78125 C 155.1 398.28125 159.06875 401.4875 162.53125 405 C 172.86875 415.0625 183.03125 425.33125 193.59375 435.15625 C 205.18125 447.73125 217.8125 459.2625 229.625 471.625 C 231.775 474.2 235.2375 476.73125 234.4375 480.53125 C 232.7625 490.91875 232.2 501.51875 229.1875 511.65625 C 227.025 526.05625 222.975 540.10625 220.5625 554.46875 C 217.5 564.96875 217.5125 575.9875 214.8125 586.5625 C 213.7375 591.675 212.875 596.875 211.5 601.9375 C 209.6875 608.6625 209.675 615.7875 207.0625 622.3125 C 202.525 633.825 196.84375 645.0625 194.53125 657.3125 C 192.98125 663.9625 191.46875 670.64375 190.90625 677.46875 C 190.45625 688.65625 188.29375 699.81875 189.78125 711.03125 C 190.91875 717.84375 190.4 724.83125 191.9375 731.59375 C 196.65 752.83125 202.3375 774.41875 214.4375 792.78125 C 223.4125 808.99375 235 823.76875 248.3125 836.65625 C 256.3875 844.66875 266.06875 850.75 275.34375 857.25 C 306.73125 877.225 344.125 887.20625 381.25 886.65625 C 393.1875 886.44375 404.8875 883.9375 416.5625 881.6875 C 426.7375 879.15 436.4625 875.1 446.4375 871.875 C 459.475 867.55 470.45 859.1125 482.0625 852.0625 C 490.375 846.8625 497.7 840.25625 504.625 833.34375 C 520.775 818.00625 533.66875 799.4625 543.21875 779.375 C 547.19375 769.5 551.4125 759.66875 554.3125 749.40625 C 555.6875 742.41875 557.25 735.475 558.625 728.5 C 560.35 713.675 561.90625 698.64375 559.53125 683.78125 C 559.68125 672.25625 556.4125 661.18125 553.75 650.09375 C 550.1625 638.34375 544.725 627.2125 541.25 615.4375 C 539.5125 605.475 537.125 595.6625 535.5625 585.6875 C 532.4125 575.075 532.38125 563.88125 529.40625 553.21875 C 527.25625 539.98125 522.6125 527.225 521.4375 513.8125 C 519.4625 502.3375 516.48125 491.0125 515.65625 479.375 C 515.40625 476.3875 518.06875 474.325 519.84375 472.3125 C 524.84375 467.7 529.575 462.8125 534.125 457.75 C 552.6125 440.4625 569.84375 421.9125 588.09375 404.375 C 591.24375 401.0125 595.2875 398.1125 597.0625 393.75 C 593.9125 388.4625 588.7625 384.825 584.625 380.375 C 568 362.8375 549.8375 346.8125 533.5 329 C 527.675 323.15 521.575 317.5875 515.9375 311.5625 C 510.4875 305.7625 503.86875 300.99375 499.34375 294.40625 C 498.10625 290.85625 501.60625 288.49375 503.71875 286.28125 C 519.08125 271.61875 533.625 256.15 548.8125 241.3125 C 564.225 225.3875 580.525 210.3375 595.6875 194.1875 C 597.0375 193.0625 597.3 191.75 596.5 190.25 C 593.3375 185.025 588.15625 181.575 583.96875 177.25 C 551.66875 145.425 519.9125 112.99375 487.6875 81.09375 C 484 77.43125 480.6875 73.28125 476.25 70.46875 z M 273.75 89.03125 C 307.6625 122.41875 341.10625 156.3125 375.03125 189.6875 C 409.06875 156.5125 442.2375 122.3125 476.25 89.0625 C 510.7125 123.0625 544.85 157.3875 579 191.6875 C 561.1125 210.3875 542.38125 228.275 524.21875 246.75 C 508.80625 261.9875 493.74375 277.6125 477.96875 292.5 C 509.36875 324.25 541.06875 355.75 572.71875 387.25 C 574.68125 389.6625 580.15625 392.1125 577.34375 395.6875 C 557.35625 415.4125 537.65 435.4375 517.6875 455.1875 C 504.5 468.7 490.7375 481.65625 477.8125 495.40625 C 476.5875 496.21875 474.95 495.83125 474.0625 494.71875 C 468.5 489.84375 463.8125 484.075 458.5 478.9375 C 430.7375 451.0625 402.75 423.45 375 395.5625 C 342.8125 427.775 310.36875 459.73125 278.53125 492.28125 C 276.71875 493.94375 274.025 497.56875 271.5625 494.78125 C 258.825 481.66875 245.8625 468.7375 232.9375 455.8125 C 215.7125 439.3 199.4375 421.83125 182.1875 405.34375 C 178.4 401.63125 174.4625 398.0375 171.3125 393.75 C 204.75 359.875 238.75 326.5625 272.125 292.625 C 259.225 280.6125 247.0625 267.85 234.5 255.5 C 216.325 237.425 198.2875 219.18125 180.0625 201.15625 C 176.9625 198.00625 173.75 194.95625 170.875 191.59375 C 205.2375 157.48125 239.3 123.03125 273.75 89.03125 z M 374.3125 121.8125 L 375.78125 121.84375 C 383.75625 129.55625 391.45 137.58125 399.4375 145.28125 C 391.6125 153.78125 383.275 161.83125 375 169.90625 C 367.3125 162.45625 359.6625 154.9125 352.25 147.1875 C 350.275 145.1625 352.9875 143.15625 354.25 141.71875 C 360.9375 135.05625 367.525 128.3375 374.3125 121.8125 z M 482.65625 122.34375 C 466.39375 138.68125 450.05 154.95 433.75 171.25 C 426.1625 177.7875 420.00625 187.1375 420.53125 197.5 C 422.96875 216.35 435.7 232.7625 451.8125 242.3125 C 456.6875 245.0125 461.69375 248.15625 467.46875 248.21875 C 473.01875 248.41875 479.3625 249.23125 484.0625 245.59375 C 490.0125 241.09375 494.7625 235.28125 500.125 230.15625 C 515.375 215.26875 530.1125 199.83125 545.5 185.09375 C 538.075 178.28125 531.34375 170.725 523.84375 164 C 506.94375 180.35 490.58125 197.25625 473.78125 213.71875 C 471.46875 216.03125 468.375 217.8375 465 216.875 C 459.0375 214.4 453.61875 210.025 451.59375 203.6875 C 449.14375 199.9625 451.525 195.7625 454.375 193.125 C 470.9375 176.725 487.325 160.1625 503.875 143.75 C 496.95 136.475 489.51875 129.69375 482.65625 122.34375 z M 268.65625 135.125 C 265.86587 135.13401 263.09375 135.35781 260.375 135.625 C 257.2 137.0875 254.9625 140.06875 252.4375 142.40625 C 241.3625 153.84375 229.725 164.725 218.5625 176.0625 C 215.625 179.125 211.9625 181.48125 209.5 184.96875 C 210.275 187.44375 212.675 188.825 214.3125 190.6875 C 237.1 213.2875 259.7125 236.075 282.4375 258.75 C 284.05 260.725 285.9875 258.45 287.25 257.3125 C 292.85 251.675 298.61875 246.20625 303.78125 240.15625 C 295.11875 231.34375 286.05 222.9125 277.6875 213.8125 C 283.5625 208.1 289.2625 202.18125 295.25 196.59375 C 297.9625 193.48125 302.98125 194.14375 305.84375 196.71875 C 313.74375 202.74375 320.2375 210.33125 327.375 217.21875 C 332.7 211.28125 339.01875 206.3125 344.40625 200.4375 C 347.23125 197.9875 343.5 195.04375 341.8125 193.15625 C 331.2875 182.70625 318.4625 172.125 302.875 171.875 C 301.75 166.7625 300.90625 161.5625 299.53125 156.5 C 296.48125 148.3625 290.575 140.76875 282.1875 137.71875 C 277.95312 135.70312 273.30688 135.10999 268.65625 135.125 z M 265.71875 165.0625 C 269.56297 165.09821 272.98125 167.82344 275.5 170.6875 C 277.7375 172.8625 277.7625 176.5125 276.875 179.3125 C 271.8375 184.3625 266.8 189.4 261.75 194.4375 C 261.325 194.6125 260.4375 194.95 260 195.125 C 255.25 190.9 250.65 186.46875 246.625 181.53125 C 252.65 176.76875 256.75 169.9625 263 165.5 C 263.92344 165.19063 264.83162 165.05426 265.71875 165.0625 z M 375.03125 256.34375 C 371.36054 256.32555 367.66875 256.71641 364.125 257.3125 C 348.1375 261.2875 335.4375 277 336.6875 293.75 C 335.65 307.7125 344.50625 320.9125 356.65625 327.1875 C 364.40625 331.675 373.85 331.3375 382.4375 330.3125 C 392.6625 328.075 401.725 321.075 406.9375 312.0625 C 411.5125 303.8375 411.525 294.1125 410.5625 285 C 408.0625 273.4375 399.59375 263.61875 388.78125 258.96875 C 384.45703 257.09141 379.75073 256.36715 375.03125 256.34375 z M 258.1875 336.46875 C 257.14844 336.53906 256.1375 337.00625 255.46875 337.875 C 240.21875 353.5 224.4375 368.6125 209.1875 384.25 C 207.075 386.625 204.14375 388.44375 202.65625 391.28125 C 224.05625 412.70625 245.45625 434.125 266.90625 455.5 C 271.18125 459.575 274.93125 464.23125 279.84375 467.59375 C 285.61875 462.05625 291.23125 456.35625 296.96875 450.78125 C 298.33125 449.41875 299.78125 448.03125 300.53125 446.21875 C 299.33125 443.99375 297.31875 442.44375 295.59375 440.65625 C 287.94375 433.34375 280.65 425.6875 272.9375 418.4375 C 281.6875 408.9625 291.0125 400.05 300.125 390.9375 C 295.0375 385.5625 290.06875 380.0375 284.46875 375.1875 C 282.33125 372.625 280.15 375.825 278.4375 377.1875 C 271.175 384.85 263.3 391.90625 256 399.53125 C 251.575 395.33125 247.25625 391.03125 243.09375 386.59375 C 253.11875 376.66875 263.0375 366.6625 273.0625 356.75 C 275.2375 354.975 275.48125 351.21875 273.15625 349.46875 C 269.15625 345.44375 265.15 341.4125 261.0625 337.5 C 260.2875 336.725 259.22656 336.39844 258.1875 336.46875 z M 480.5625 342.875 C 464.55313 343.36046 449.20312 351.85156 439.125 364.15625 C 425.65 379.90625 421.26875 403.8125 430.90625 422.5625 C 436.74375 435.1625 448.9125 444.4875 462.5625 447 C 477.675 450.1625 493.6875 446.5375 506.625 438.3125 C 506.675 437.7875 506.78125 436.74375 506.84375 436.21875 C 501.15625 430.04375 495.1375 424.14375 489.25 418.15625 C 485.975 417.43125 483.1875 420.21875 480 420.53125 C 474.0625 421.16875 467.2625 421.6 462.1875 417.875 C 456.7375 414.35 453.3625 407.7375 453.75 401.25 C 453.4375 393.6625 457.5375 386.66875 462.5 381.21875 C 469.6 373.15625 481.35625 368.275 491.90625 371.8125 C 497.91875 373.6625 501.68125 379.175 504.28125 384.5625 C 507.56875 390.2875 505.7625 397.3375 502.6875 402.75 C 509.3875 409.2625 515.88125 416.0125 522.59375 422.5 C 529.59375 411.4375 533.475 398.125 531.875 385 C 530.1875 374.575 526.03125 364.14375 518.21875 356.78125 C 509.45625 347.48125 496.45 342.46875 483.75 342.90625 C 482.67813 342.86641 481.62979 342.84264 480.5625 342.875 z M 376.1875 416.71875 C 381.7 421.93125 387.1125 427.35 392 433.1875 C 380.65 432.725 369.3 432.80625 357.9375 433.15625 C 362.7125 427.20625 368.225 421.9 373.8125 416.75 C 374.4 416.7375 375.6 416.71875 376.1875 416.71875 z M 375 441.625 C 384.7125 442.025 394.9375 441.05 404.1875 444.5625 C 420.75 460.9125 437.14375 477.4625 453.59375 493.9375 C 461.31875 501.15 468.2125 509.24375 476.25 516.15625 C 483.175 510.18125 489.16875 503.20625 495.84375 496.96875 C 499.10625 501.40625 503.975 504.99375 505.5 510.46875 C 506.55 523.19375 510.9125 535.35625 511.9375 548.09375 C 488.625 523.64375 458.325 506.0375 425.5625 497.8125 C 417.925 495.1 409.5875 495.53125 402.0625 492.53125 C 402.575 481.61875 400.25 469.51875 391.5625 462.09375 C 385.0875 456.46875 375.90625 456.2125 367.84375 457.4375 C 360.63125 458.5875 354.71875 463.925 351.53125 470.3125 C 347.31875 477.575 347.44375 486.225 345.90625 494.25 C 336.34375 494.35 327.175 497.24375 318 499.59375 C 292.0625 507.34375 267.70625 520.675 247.65625 538.9375 C 244.46875 541.875 241.475 545.01875 238.0625 547.71875 C 239.475 535.43125 243.1375 523.55625 244.5625 511.28125 C 246.4875 505.81875 251.3625 502.075 255 497.75 C 261.4625 503.65 267.33125 510.2125 273.78125 516.125 C 279.41875 511.425 284.25 505.8625 289.5 500.75 C 308.375 482.1375 326.875 463.1125 345.875 444.625 C 355.1375 441.3 365.2875 441.9375 375 441.625 z M 344.53125 507.6875 C 345.28635 507.67429 346.04844 507.69844 346.8125 507.75 C 346.75 510.625 346.775 513.46875 346.75 516.34375 C 344.8625 517.43125 342.71875 517.93125 340.59375 518.28125 C 310.66875 523.83125 282.36875 537.125 258.59375 556.0625 C 248.78125 563.6875 240.69375 573.1625 231.84375 581.8125 C 232.28125 576.4875 231.4625 569.875 236.1875 566.1875 C 260.5 538.7375 293.1125 518.43125 329 510.40625 C 334.1625 509.3125 339.24553 507.77996 344.53125 507.6875 z M 403.375 507.71875 C 410.36427 507.50237 417.04297 509.91797 423.875 511.125 C 458.475 520.0375 490.3125 539.3375 514.3125 565.8125 C 518.625 570.275 517.51875 577.0375 518.65625 582.6875 C 502.55625 563.8625 483.31875 547.6375 461.21875 536.3125 C 442.78125 526.375 422.475 520.4125 401.9375 516.75 C 402 513.7625 402.00625 510.7875 401.96875 507.8125 C 402.4375 507.77344 402.90905 507.73318 403.375 507.71875 z M 372.25 531.84375 C 383.23633 531.72305 394.23438 532.05938 405.0625 534.09375 C 418.5625 536.90625 432.1 540.30625 444.4375 546.65625 C 431.325 547.55625 418.125 546.325 405 547.4375 C 373.8375 549.875 341.825 556.95 315.875 575.25 C 314.2875 576.675 312.55 574.5875 311.1875 573.875 C 304.5375 568.8 297.7 563.95625 290.6875 559.40625 C 289.3125 558.58125 288.25 557.475 287.5 556.0625 C 309.7375 542.4625 335.2375 534.05 361.25 532.0625 C 364.90312 531.97187 368.58789 531.88398 372.25 531.84375 z M 420.625 563.03125 C 433.7801 562.84775 446.96094 563.53281 460.03125 564.59375 C 466.33125 565.90625 472.83125 566.03125 479.09375 567.46875 C 493.08125 577.75625 504.80625 590.9 514.78125 605.0625 C 516.64375 607.5875 518.025 610.3875 519.1875 613.3125 C 502.3375 604.7375 483.8625 599.575 465.0625 598 C 455.0375 598.05 444.85 597.1125 435 599.3125 C 413.625 601.8125 393.1375 609.19375 374.0625 618.96875 C 369.8625 620.98125 366.175 624.46875 361.3125 624.71875 C 352.6375 611.11875 340.9375 599.7375 329.25 588.75 C 329.25 588.1375 329.23125 586.9375 329.21875 586.3125 C 341.36875 577.475 355.9125 572.48125 370.375 568.90625 C 386.86328 564.9125 403.7113 563.26718 420.625 563.03125 z M 271.1875 566.5625 C 273.05 566.9625 275.0375 567.16875 276.625 568.34375 C 298.1625 582.53125 318.2375 599.08125 335.4375 618.34375 C 347.925 632.88125 359.275 648.875 365.75 667.0625 C 370 679.125 372.8375 692.09375 370.75 704.90625 C 350.1375 698.73125 330.3625 689.6625 312.5 677.625 C 283.9375 658.4 259.05 633.81875 239.125 605.78125 C 236.05 602.61875 239.68125 599.15 241.59375 596.5625 C 250.16875 585.35 260.675 575.9 271.1875 566.5625 z M 456.4375 614.28125 C 484.1229 614.08375 511.37695 624.82266 532.75 642.1875 C 536.325 644.475 536.13125 649.05 537.46875 652.625 C 539.85625 659 540.66875 665.7625 542.15625 672.375 C 535.01875 669.1625 527.875 665.5 520 664.625 C 502 661.1625 483.1 664.1125 466.375 671.3125 C 464.3875 672.2375 461.80625 672.89375 460.09375 671.09375 C 442.88125 656.86875 418.35 654.80625 397.4375 660.59375 C 392.425 661.76875 387.7 663.83125 382.75 665.21875 C 379.7 655.94375 375.33125 647.23125 371.09375 638.46875 C 396.18125 624.08125 424.4875 613.63125 453.75 614.34375 C 454.64375 614.31445 455.54442 614.28762 456.4375 614.28125 z M 227.375 618.65625 C 239.4 636.31875 254.4 651.69375 269.9375 666.28125 C 297.85 691.49375 331.14375 711.35 367.71875 720.875 C 362.99375 739 351.8 754.56875 340 768.78125 C 337.6125 771.98125 333.275 770.1125 330.125 769.4375 C 305.575 761.525 283.40625 747.625 263.15625 731.875 C 243.13125 716 224.6875 698.15 208.0625 678.75 C 207.475 667.2875 211.725 656.325 214.75 645.4375 C 218.425 636.2875 221.6875 626.80625 227.375 618.65625 z M 421.78125 674.15625 C 424.46562 674.17031 427.16875 674.25625 429.84375 674.5 C 438.44375 675.8375 446.2 680.2375 452.8125 685.75 C 453.65 699.05 452.9875 712.375 450.75 725.5 C 450.1125 731.625 449.6875 737.85625 447.5625 743.71875 C 439.3375 780.15625 420.025 813.6 394.625 840.8125 C 386 850.5875 376.15625 859.20625 365.90625 867.21875 C 360.29375 872.18125 352.7375 867.4375 346.25 867.625 C 322.25 863.8125 299.45 853.9875 279.1875 840.6875 C 279.2 840.0875 279.20625 838.9 279.21875 838.3125 C 299.73125 826.55 319.10625 812.6375 336.59375 796.6875 C 359.53125 775.7125 379.2 749.44375 385.9375 718.59375 C 387.675 706.46875 387.175 694.1875 386.6875 682 C 395.25 678.1625 404.2375 674.60625 413.75 674.28125 C 416.425 674.21875 419.09688 674.14219 421.78125 674.15625 z M 504.25 680.28125 C 508.25684 680.20312 512.27813 680.4 516.28125 680.9375 C 526.01875 683.225 536.53125 685.65 544.09375 692.5625 C 544.66875 702.5625 544.19375 712.6375 543.34375 722.625 C 542.94375 728.2625 540.91875 733.6125 540.15625 739.1875 C 526.73125 799.7375 476.925 850.50625 416.5625 864.90625 C 408.4125 867.75625 399.6625 867.8125 391.25 869.4375 C 395.875 863.075 402.3 858.35 407.5625 852.5625 C 433.925 824.575 453.80625 790.05625 462.84375 752.59375 C 465.40625 744.70625 465.625 736.325 467.6875 728.3125 C 469.3875 714.9 468.95 701.33125 469.125 687.84375 C 480.3 683.3625 492.22949 680.51562 504.25 680.28125 z M 205.84375 700.90625 C 219.63125 714.44375 232.5875 728.9 247.5625 741.1875 C 269.825 760.05 294.7 776.9625 323 785.125 C 318.4375 790.75 312.28125 794.75625 306.78125 799.40625 C 293.08125 809.93125 278.85625 819.84375 263.84375 828.40625 C 235.55625 803.95625 215.43125 769.8375 208.71875 733 C 205.84375 722.575 205.89375 711.64375 205.84375 700.90625 z "
       transform="scale(0.8,0.8)"
       id="path3096" />
  </g>
  <g
     id="#ef212aff">
    <path
       fill="#ef212a"
       opacity="1.00"
       d=" M 269.33 28.93 C 271.86 28.49 274.43 28.47 277.00 28.43 C 295.34 28.22 313.70 28.14 332.04 28.61 C 340.97 30.14 350.13 29.75 359.05 31.44 C 366.76 32.86 374.65 33.21 382.27 35.21 C 393.31 36.43 404.07 39.26 414.83 41.92 C 431.01 45.76 446.84 50.83 462.73 55.71 C 493.48 66.62 523.63 79.54 551.88 95.95 C 555.86 98.34 560.16 100.30 563.71 103.32 C 565.08 110.51 566.83 117.67 567.40 125.00 C 568.36 132.66 569.78 140.27 570.27 147.99 C 570.64 156.70 572.84 165.23 572.74 173.97 C 573.59 181.61 573.03 189.35 574.35 196.95 C 574.92 225.31 574.87 253.69 574.40 282.05 C 572.90 292.47 573.49 303.07 572.14 313.52 C 570.35 326.45 570.21 339.57 567.64 352.40 C 567.06 359.12 566.06 365.80 564.62 372.39 C 564.02 378.69 562.69 384.87 561.41 391.06 C 560.81 397.44 558.54 403.47 557.68 409.80 C 551.60 437.06 544.33 464.09 534.77 490.35 C 532.00 499.78 527.89 508.73 524.23 517.83 C 516.16 537.01 507.57 556.01 497.37 574.16 C 493.31 580.96 490.12 588.26 485.70 594.85 C 475.31 612.03 464.00 628.67 451.39 644.30 C 411.47 695.87 361.16 739.11 305.00 772.15 C 303.51 772.68 301.85 774.22 300.24 773.30 C 289.29 767.87 279.36 760.71 269.21 753.97 C 248.54 740.30 229.24 724.70 210.58 708.44 C 198.98 697.03 187.01 685.96 176.29 673.70 C 162.43 658.78 149.91 642.69 137.76 626.37 C 90.92 560.38 60.14 483.74 43.87 404.71 C 42.05 398.03 41.51 391.10 39.71 384.41 C 38.87 378.05 37.93 371.71 36.49 365.46 C 35.56 354.55 32.84 343.89 32.46 332.92 C 30.97 321.32 29.71 309.68 29.40 297.97 C 28.04 290.71 28.64 283.31 28.22 275.98 C 27.39 271.03 27.43 266.00 27.33 261.00 C 27.21 241.01 27.11 221.02 27.64 201.04 C 28.49 195.72 28.45 190.35 28.63 184.98 C 30.21 173.80 29.79 162.42 31.46 151.24 C 32.78 142.66 32.93 133.93 34.65 125.41 C 35.86 119.76 36.09 113.98 36.87 108.28 C 37.40 106.05 37.66 103.29 39.78 101.94 C 47.36 96.80 55.71 92.96 63.74 88.59 C 81.38 79.09 99.73 71.03 118.30 63.57 C 134.93 57.91 151.19 51.04 168.31 46.94 C 180.15 43.30 192.23 40.61 204.33 38.03 C 210.75 35.98 217.57 35.99 224.09 34.38 C 230.86 32.78 237.83 32.50 244.66 31.24 C 252.81 29.75 261.14 30.00 269.33 28.93 M 208.37 66.39 C 180.41 94.09 152.74 122.09 124.80 149.83 C 123.66 151.14 121.14 153.22 123.09 154.90 C 128.97 161.33 135.30 167.34 141.48 173.49 C 159.42 191.57 177.48 209.53 195.47 227.56 C 197.49 229.87 201.61 231.87 200.51 235.53 C 197.64 239.89 193.31 242.99 189.76 246.76 C 182.40 253.72 175.70 261.36 168.19 268.17 C 163.20 272.53 159.10 277.76 154.30 282.31 C 146.26 289.93 138.66 297.99 130.77 305.76 C 127.83 308.73 124.64 311.52 122.31 315.02 C 124.09 318.62 127.26 321.19 130.03 324.00 C 138.30 332.05 146.42 340.26 154.87 348.12 C 164.14 358.18 174.24 367.42 183.69 377.31 C 185.41 379.37 188.18 381.39 187.54 384.43 C 186.20 392.74 185.77 401.22 183.36 409.33 C 181.63 420.85 178.38 432.08 176.45 443.57 C 174.00 451.97 174.00 460.80 171.84 469.26 C 170.98 473.35 170.29 477.49 169.19 481.54 C 167.74 486.92 167.73 492.62 165.64 497.84 C 162.01 507.05 157.48 516.04 155.63 525.84 C 154.39 531.16 153.18 536.51 152.73 541.97 C 152.37 550.92 150.63 559.86 151.82 568.83 C 152.73 574.28 152.31 579.87 153.54 585.28 C 157.31 602.27 161.88 619.54 171.56 634.23 C 178.74 647.20 188.01 659.01 198.66 669.32 C 205.12 675.73 212.85 680.59 220.27 685.79 C 245.38 701.77 275.29 709.76 304.99 709.32 C 314.54 709.15 323.92 707.16 333.26 705.36 C 341.40 703.33 349.17 700.09 357.15 697.51 C 367.58 694.05 376.36 687.28 385.65 681.64 C 392.30 677.48 398.15 672.20 403.69 666.67 C 416.61 654.40 426.94 639.57 434.58 623.50 C 437.76 615.60 441.14 607.74 443.46 599.53 C 444.56 593.94 445.80 588.39 446.90 582.81 C 448.28 570.95 449.52 558.92 447.62 547.03 C 447.74 537.81 445.13 528.94 443.00 520.07 C 440.13 510.67 435.79 501.77 433.01 492.35 C 431.62 484.38 429.70 476.53 428.45 468.55 C 425.93 460.06 425.91 451.10 423.53 442.57 C 421.81 431.98 418.10 421.78 417.16 411.05 C 415.58 401.87 413.18 392.81 412.52 383.50 C 412.32 381.11 414.45 379.47 415.87 377.86 C 419.87 374.17 423.65 370.26 427.29 366.21 C 442.08 352.38 455.88 337.54 470.48 323.51 C 473.00 320.82 476.22 318.50 477.64 315.01 C 475.12 310.78 471.02 307.86 467.71 304.30 C 454.41 290.27 439.88 277.46 426.81 263.21 C 422.15 258.53 417.27 254.07 412.76 249.25 C 408.40 244.61 403.10 240.80 399.48 235.53 C 398.49 232.69 401.28 230.80 402.97 229.03 C 415.26 217.30 426.89 204.92 439.04 193.05 C 451.37 180.31 464.41 168.28 476.54 155.36 C 477.62 154.46 477.84 153.41 477.20 152.21 C 474.67 148.03 470.52 145.25 467.17 141.79 C 441.33 116.33 415.93 90.40 390.15 64.88 C 387.20 61.95 384.56 58.63 381.01 56.38 C 376.58 59.41 373.14 63.61 369.26 67.26 C 357.15 79.82 344.50 91.84 332.40 104.40 C 330.72 105.84 329.02 108.36 326.49 107.51 C 322.99 105.07 320.54 101.48 317.38 98.65 C 311.34 93.19 305.82 87.19 300.38 81.13 C 294.16 85.63 289.98 92.22 284.18 97.17 C 281.17 99.82 278.71 103.01 275.80 105.74 C 274.60 106.82 273.13 108.12 271.39 107.58 C 270.17 106.85 269.14 105.86 268.12 104.89 C 260.32 97.02 252.51 89.16 244.81 81.19 C 236.77 73.90 229.47 65.86 221.61 58.38 C 220.57 57.70 219.53 56.14 218.13 56.70 C 214.50 59.53 211.70 63.24 208.37 66.39 Z"
       id="path3111" />
  </g>
</svg>
