<?xml version="1.0" encoding="utf-8"?>
<!-- Generator: Adobe Illustrator 14.0.0, SVG Export Plug-In . SVG Version: 6.00 Build 43363)  -->
<!DOCTYPE svg PUBLIC "-//W3C//DTD SVG 1.1//EN" "http://www.w3.org/Graphics/SVG/1.1/DTD/svg11.dtd">
<svg version="1.1"
	 id="svg4505" inkscape:version="0.48.2 r9819" sodipodi:docname="Logo SCO Angers.svg" xmlns:dc="http://purl.org/dc/elements/1.1/" xmlns:cc="http://creativecommons.org/ns#" xmlns:rdf="http://www.w3.org/1999/02/22-rdf-syntax-ns#" xmlns:svg="http://www.w3.org/2000/svg" xmlns:sodipodi="http://sodipodi.sourceforge.net/DTD/sodipodi-0.dtd" xmlns:inkscape="http://www.inkscape.org/namespaces/inkscape"
	 xmlns="http://www.w3.org/2000/svg" xmlns:xlink="http://www.w3.org/1999/xlink" x="0px" y="0px" width="383.91px"
	 height="523.248px" viewBox="0 0 383.91 523.248" enable-background="new 0 0 383.91 523.248" xml:space="preserve">
<sodipodi:namedview  id="base" inkscape:window-y="-8" inkscape:window-x="-8" inkscape:window-height="706" inkscape:window-width="1366" fit-margin-bottom="5" fit-margin-right="5" inkscape:current-layer="g3833" inkscape:document-units="px" inkscape:pageshadow="2" inkscape:pageopacity="0.0" inkscape:cy="216.1514" inkscape:cx="72.510419" inkscape:zoom="0.7" fit-margin-left="5" borderopacity="1.0" fit-margin-top="5" bordercolor="#666666" showgrid="false" pagecolor="#ffffff" inkscape:window-maximized="1">
	</sodipodi:namedview>
<g id="layer1" transform="translate(-182.33094,-380.8874)" inkscape:label="Calque 1" inkscape:groupmode="layer">
	<g id="g4468" transform="matrix(0.67852621,0.00386059,-0.00386059,0.67852621,135.60003,408.33055)">
		<g id="g3833" transform="matrix(0.99964007,-0.02682742,0.02682742,0.99964007,600.29209,-96.723884)">
			<path id="path3030-1" sodipodi:nodetypes="cccccc" inkscape:connector-curvature="0" d="M-503.546,90.945
				C-360.532,40.587-146.997,41.588,1.172,101.75C28.031,288.548,23.59,454.596-6.76,619.6
				c-72.18,74.261-149.646,138.816-260.582,191.565c-81.651-45.897-166.237-106.01-249.243-200.677
				C-540.335,468.193-540.075,302.16-503.546,90.945z"/>
			<path id="path3030" sodipodi:nodetypes="cccccc" inkscape:connector-curvature="0" fill="#FFFFFF" d="M-484.212,107.421
				c152.567-45.471,307.278-41.348,464.927,9.762C5.767,291.408,1.273,455.346-27.035,609.243
				c-67.32,69.262-136.114,127.114-239.583,176.312c-76.154-42.807-152.63-97.207-230.048-185.502
				C-515.046,467.966-518.283,304.418-484.212,107.421z"/>
		</g>
		<g id="g3017" transform="translate(-1589.3742,920.68489)">
		</g>
		<g id="flowRoot2997" transform="translate(-235.32796,948.36903)">
		</g>
		<path id="path3924" sodipodi:nodetypes="ccc" inkscape:connector-curvature="0" fill="#B1B022" d="M121.145,297.099
			c47.536,101.861,99.557,202.974,169.768,301.056C199.49,512.103,149.75,419.757,121.145,297.099z"/>
		<path id="path3924-0" sodipodi:nodetypes="ccc" inkscape:connector-curvature="0" fill="#B1B022" d="M580.707,297.837
			c-46.798,102.202-98.088,203.688-167.589,302.273C503.918,513.402,552.99,420.698,580.707,297.837z"/>
		<g id="g4210" transform="translate(35.963457,-90)">
			<path id="path3829" inkscape:connector-curvature="0" d="M316.251,202.062c-51.315,0.129-105.329,2.978-161.563,9.657
				c-22.764,30.683-41.057,51.262-71.281,126.469c54.854,117.046,108.976,233.531,232.563,406.311
				c63.655-92.795,131.145-187.154,235.467-408.156c-18.841-46.193-38.979-85.171-71.812-125.938
				C429.081,205.257,374.405,201.915,316.251,202.062z M284.406,207.187l64.03,0l0.001,54.75l-64.031,0L284.406,207.187z
				 M438.969,211.968l38.531,4.406c11.726,14.08,22.857,28.869,32.719,45.187l-71.25,0L438.969,211.968z M193.344,212.937
				l0.001,49.563l-68.501,0c9.483-16.319,20.226-31.076,31.501-45.156L193.344,212.937z M439.781,408.594l72.251-0.001
				c-24.916,49.089-48.58,90.865-72.252,132.656L439.781,408.594z M285.094,409.906l63.843,0.125l1.313,276.281
				c-13.949,20.743-23.585,34.097-34.656,49.907c-8.777-12.91-18.491-25.215-29.062-40.813L285.094,409.906z M122.188,410.75l72,0
				l0,135.281C170.595,503.413,147.021,460.808,122.188,410.75z"/>
			<g id="g4202">
				<path id="path3909-9" sodipodi:nodetypes="ccccccsccccccccccsccc" inkscape:connector-curvature="0" d="M323.163,119.557
					l-0.001,9.434c-4.386-3.379-9.877-3.997-14.565-3.997c-6.836,0.459-12.679,3.555-14.365,9.178
					c-0.727,2.589-1.091,5.759-1.09,9.508c-0.533,7.037,1.366,12.26,8.027,16.914c1.655,0.814,3.254,1.221,5.134,1.221
					c1.83,0,4.234-0.073,5.863-1.06l0-13.241c-0.025-1.036-0.163-1.861-0.413-2.479l12.488,0.001
					c-0.251,0.689-0.389,1.516-0.415,2.478l0.001,14.811c0.025,1.331,0.2,3.348,0.527,4.26c-6.155,1.556-13.333,2.497-18.952,2.51
					c-5.365,0-9.752-0.838-13.162-2.516c-4.336-2.121-7.57-5.291-9.701-9.509c-1.931-3.797-2.896-8.311-2.896-13.54
					c0-8.929,2.871-15.811,8.612-20.645c4.712-3.972,11.005-5.956,18.877-5.956C311.969,116.931,317.949,117.806,323.163,119.557"/>
				<path id="path3896-4" sodipodi:nodetypes="ccccccccccccccccscc" inkscape:connector-curvature="0" d="M347.862,118.901
					l31.565,0.5l-0.09,6.942c-0.807-0.23-1.657-0.352-2.547-0.367l-17.459-0.235l-0.266,12.871l13.956,0.229
					c1.167,0.019,2.121-0.06,2.86-0.239l-0.09,8.384c-0.683-0.203-1.596-0.315-2.738-0.333l-14.07-0.232l-0.27,14.302l17.931,0.228
					c1.169,0.019,2.173-0.071,3.014-0.273l-0.095,7.879l-32.492-0.5c0.29-0.644,0.442-1.435,0.457-2.37l0.713-44.366
					C348.234,120.288,348.108,119.481,347.862,118.901"/>
				<path id="path3907-8" sodipodi:nodetypes="cccccccccccccccccc" inkscape:connector-curvature="0" d="M226.582,138.787
					l1.832,30.36c0.067,1.009,0.245,1.826,0.534,2.457l-10.164,0.993c0.262-0.725,0.374-1.555,0.336-2.49l-1.817-45.438
					c-0.068-1.032-0.246-1.851-0.534-2.455l9.67-0.48c0.153,0.536,0.591,1.233,1.312,2.092l22.213,28.359l-1.321-29.077
					c-0.065-0.983-0.243-1.801-0.534-2.455l9.534-0.277c-0.245,0.479-0.357,1.309-0.336,2.492l2.41,45.511
					c0.064,0.934,0.254,1.727,0.571,2.38l-9.391,0.471c-0.178-0.487-0.67-1.207-1.474-2.161"/>
				<path id="path3905-8" sodipodi:nodetypes="cccccccccccccccccccc" inkscape:connector-curvature="0" d="M163.746,163.866
					l-2.991,10.595c-0.177,0.711-0.237,1.298-0.179,1.758c0.015,0.122,0.051,0.315,0.111,0.578l-9.88,0.895
					c0.44-0.721,0.775-1.537,1.006-2.454l13.156-47.115c0.174-0.736,0.234-1.323,0.179-1.76c-0.015-0.121-0.033-0.268-0.054-0.437
					l11.569-1.289c0.037,0.514,0.264,1.176,0.681,1.987l22.717,44.752c0.44,0.783,1.015,1.488,1.726,2.116l-12.606,1.289
					c-0.001-0.222-0.009-0.393-0.025-0.515c-0.06-0.485-0.263-1.064-0.61-1.737l-5.432-10.346 M165.49,155.953l14.378-1.317
					l-9.063-16.739"/>
				<path id="path3887-2" sodipodi:nodetypes="ccccccccccccccccccc" inkscape:connector-curvature="0" d="M457.21,171.476
					l2.133-8.397c2.16,2.564,4.838,3.228,4.838,3.228s4.441,1.886,7.886,2.405c3.952,0.012,8.41-1.716,8.847-5.334
					c0.239-2.268-0.524-4.092-2.292-5.639c-7.42-7.288-19.019-11.053-18.11-20.534c0.322-3.067,1.147-5.746,3.069-8.04
					c3.728-4.471,9.087-6.315,16.55-5.529c4.363,0.459,8.114,1.894,12.323,4.302l-2.152,8.33c-3.941-3.54-7.533-4.35-10.781-4.691
					c-1.91-0.202-3.569-0.452-4.979,0.559c-2.523,2.242-2.995,5.288-1.006,7.342c1.113,1.1,4.195,3.711,7.995,6.82
					c4.502,3.538,8.066,5.89,9.497,8.485c2.66,4.566,2.152,10.64-0.91,14.867c-3.791,5.045-10.517,6.813-18.957,6.736
					C465.07,176.162,459.309,173.815,457.21,171.476"/>
				<path id="path3890-4" sodipodi:nodetypes="cccccsccccccccccsccccc" inkscape:connector-curvature="0" d="M412.615,149.736
					l-0.91,18.463c-0.044,0.943,0.063,1.76,0.319,2.449l-10.95-0.523c0.286-0.544,0.467-1.348,0.542-2.409l2.042-44.886
					c0.041-0.894-0.066-1.711-0.319-2.449l21.26,0.473c7.467,0.607,13.363,7.303,12.92,14.457
					c-0.103,4.34-6.02,10.502-10.533,13.232l14.253,21.202c0.654,1.071,1.257,1.838,1.809,2.3l-15.282-0.733
					c-0.094-0.804-0.318-1.577-0.677-2.321l-9.601-18.88 M412.754,142.94l5.981,0.249c2.028,0.085,3.678-0.376,4.95-1.408
					c2.003-1.628,2.572-3.254,2.715-6.397c-0.001-4.393-3.022-7.227-6.873-7.455l-5.943-0.25L412.754,142.94"/>
			</g>
		</g>
		<g id="g4307" transform="translate(35.853037,-90)">
			<g id="text4251" transform="matrix(1,0,0,1.0360145,0,-17.601217)">
				
					<path id="path4263" sodipodi:nodetypes="ccccccccccc" inkscape:connector-curvature="0" stroke="#000000" stroke-width="1.25" d="
					M328.195,473.572l-20.688,0.001l0-3.887l7.506-0.001l0-25.17l-7.074,2.32l-0.001-3.656l13.04-3.539l0,30.046l7.218,0.001
					L328.195,473.572z"/>
			</g>
			<g id="text4255" transform="matrix(1.06174,0,0,0.94185014,0.17677669,0)">
				
					<path id="path4260" sodipodi:nodetypes="ccssccccccssscccccc" inkscape:connector-curvature="0" stroke="#000000" stroke-width="1.3988" d="
					M288.174,574.669l0-4.989c2.098,1.189,4.319,1.971,6.662,1.971c3.41,0,5.564-0.716,7.46-3.46
					c1.897-2.746,2.389-6.644,2.389-11.698c-0.035,0.017-0.07,0.017-0.106-0.001c-1.608,3.235-3.448,4.852-7.436,4.852
					c-6.606-0.161-10.46-5.242-10.5-11.724c0.018-8.05,5.453-12.484,11.576-12.562c3.707-0.001,6.596,1.464,8.667,4.393
					c2.073,2.928,3.691,7.19,3.692,12.785c0,6.942-1.513,12.293-4.205,16.052c-2.693,3.76-6.852,5.638-11.642,5.638
					C292.213,575.926,290.027,575.508,288.174,574.669L288.174,574.669z M297.825,540.704c-4.855,0.352-6.417,3.757-6.408,8.314
					c-0.353,5.455,2.315,8.442,6.697,8.498c4.11-0.279,6.663-2.858,6.675-7.135C304.966,544.966,302.38,540.774,297.825,540.704z"/>
			</g>
			<g id="text4251-5" transform="matrix(1,0,0,1.0360145,4.9843101e-6,118.8704)">
				
					<path id="path4263-1" sodipodi:nodetypes="ccccccccccc" inkscape:connector-curvature="0" stroke="#000000" stroke-width="1.25" d="
					M328.723,473.488l-20.686,0l0-3.801l7.506-0.001l0-25.171l-7.075,2.321l0-3.656l13.04-3.539l0,30.046l7.216-0.001
					L328.723,473.488z"/>
			</g>
			<g id="text4255-7" transform="matrix(1.06174,0,0,0.94185014,0.79549482,136.73677)">
				
					<path id="path4260-1" sodipodi:nodetypes="ccssccccccssscccccc" inkscape:connector-curvature="0" stroke="#000000" stroke-width="1.3988" d="
					M288.174,574.668l0-4.988c2.098,1.189,4.319,1.971,6.662,1.971c3.41,0,5.564-0.716,7.461-3.462
					c1.897-2.744,2.387-6.644,2.388-11.698c-0.034,0.019-0.069,0.019-0.104,0.001c-1.609,3.235-3.45,4.852-7.436,4.852
					c-6.606-0.162-10.461-5.242-10.5-11.723c0.018-8.052,5.453-12.484,11.575-12.563c3.707,0.001,6.596,1.464,8.669,4.394
					c2.073,2.928,3.691,7.19,3.691,12.785c0,6.942-1.513,12.293-4.207,16.051c-2.692,3.76-6.85,5.64-11.641,5.64
					C292.213,575.927,290.027,575.507,288.174,574.668L288.174,574.668z M297.826,540.703c-4.856,0.354-6.418,3.759-6.408,8.314
					c-0.353,5.455,2.315,8.443,6.697,8.498c4.111-0.277,6.663-2.856,6.677-7.133C304.967,544.967,302.381,540.775,297.826,540.703z"
					/>
			</g>
		</g>
		<g id="g4452" transform="translate(38.183487,-90)">
			
				<path id="path4354-5" sodipodi:nodetypes="ccccccccc" inkscape:connector-curvature="0" fill="#FFFFFF" stroke="#FFFFFF" stroke-width="3" d="
				M270.25,301.875c-31.794,27.794-17.238,70.995,25.781,80.094c21.216,6.773,54.712,3.743,69.203-5.363l0.114-16.087
				c-17.48,12.507-49.664,12.708-63.632,5.569c-21.058-9.512-28.679-30.68-16.658-51.151c13.211-19.121,48.848-21.071,80.525-4.469
				l2.39-16.971C337.901,282.066,291.708,283.467,270.25,301.875z"/>
			
				<path id="path4354" sodipodi:nodetypes="cccccccssscccccscc" inkscape:connector-curvature="0" fill="#FFFFFF" stroke="#FFFFFF" stroke-width="3" d="
				M233.064,363.063c4.147-28.037-32.186-33.092-43.242-36.246c-7.332-2.078-13.697-3.563-17.588-5.32
				c-20.802-9.831-0.821-20.723,22.376-19.184c15.012,1.197,16.869,3.637,32.214,8.777c0.318-5.173,1.435-10.31,4.406-15.379
				c-9.08-2.969-15.095-4.934-24.475-7.021c-7.841-1.7-25.517-1.7-34.258,0.001c-8.461,1.646-20.603,6.957-25.303,11.619
				c-7.453,7.394-8.122,17.966-2.906,26.989c4.292,7.427,18.331,14.035,35.214,16.312c20.035,5.368,28.229,5.396,29.797,19.729
				c0.197,17.612-44.643,11.821-57.312,4.604l-5.211-2.211c-0.134,6.116-1.167,9.614-2.757,15.549l8.946,2.161
				c13.857,3.347,20.225,4.394,35.705,3.894C204.658,387.339,229.17,382.75,233.064,363.063z"/>
			
				<path id="path4354-5-2" sodipodi:nodetypes="ccscscscscssssssssss" inkscape:connector-curvature="0" fill="#FFFFFF" stroke="#FFFFFF" stroke-width="3" d="
				M488.146,355.475c0,0,1.003-20.064,1.002-21.488c0,0,1.229-11.347-0.853-18.085c-6.1-19.736-27.127-29.818-53.831-28.631
				c-21.84,0.001-36.643,8.645-43.198,20.405c-4.989,8.952-4.147,19.394-4.147,31.048c-0.752,9.053-0.132,17.329,2.778,24.319
				c4.952,11.883,19.025,20.479,30.489,21.94c9.734,1.81,24.462,1.882,37.109-0.883
				C473.937,380.506,487.678,366.902,488.146,355.475L488.146,355.475z M424.258,371.598c-3.751-1.114-8.532-3.758-10.458-7.502
				c-3.506-6.815-4.41-16.555-4.488-27.582c-0.056-8.1,1.426-17.44,4.074-23.942c4.288-10.538,13.116-12.085,24.791-12.1
				c12.006-0.014,23.581,3.038,25.985,11.228c1.644,5.596,3.083,11.953,3.083,23.839c-0.001,20.542-1.819,26.078-7.098,31.358
				c-3.18,3.18-9.473,6.099-17.052,6.099C436.691,372.997,430.316,373.397,424.258,371.598L424.258,371.598z"/>
		</g>
	</g>
</g>
</svg>
