<?xml version="1.0" encoding="UTF-8" standalone="no"?>
<!-- Created with Inkscape (http://www.inkscape.org/) -->

<svg
   xmlns:dc="http://purl.org/dc/elements/1.1/"
   xmlns:cc="http://creativecommons.org/ns#"
   xmlns:rdf="http://www.w3.org/1999/02/22-rdf-syntax-ns#"
   xmlns:svg="http://www.w3.org/2000/svg"
   xmlns="http://www.w3.org/2000/svg"
   version="1.1"
   width="236.25806"
   height="300"
   id="svg2"
   xml:space="preserve"><metadata
     id="metadata8"><rdf:RDF><cc:Work
         rdf:about=""><dc:format>image/svg+xml</dc:format><dc:type
           rdf:resource="http://purl.org/dc/dcmitype/StillImage" /><dc:title></dc:title></cc:Work></rdf:RDF></metadata><defs
     id="defs6"><clipPath
       id="clipPath16"><path
         d="m 0,0 481.89,0 0,637.795 L 0,637.795 0,0 z"
         id="path18" /></clipPath><clipPath
       id="clipPath28"><path
         d="m 181.417,581.101 300.472,0 0,45.355 -300.472,0 0,-45.355 z"
         id="path30" /></clipPath><clipPath
       id="clipPath36"><path
         d="m 179.176,628.697 1024.954,0 0,-1592.959 -1024.954,0 0,1592.959 z"
         id="path38" /></clipPath><clipPath
       id="clipPath40"><path
         d="m 181.417,-962.02 1020.472,0 0,1588.476 -1020.472,0 0,-1588.476 z"
         id="path42" /></clipPath><clipPath
       id="clipPath60"><path
         d="m 0,0 481.89,0 0,637.795 L 0,637.795 0,0 z"
         id="path62" /></clipPath><clipPath
       id="clipPath68"><path
         d="m 481.89,723.967 1445.669,0 0,-810.142 -1445.669,0 0,810.142 z"
         id="path70" /></clipPath><clipPath
       id="clipPath80"><path
         d="m -8.504,651.967 c 0,0 -5.669,0 -5.669,-5.669 l 0,-59.527 c 0,0 0,-5.67 5.669,-5.67 l 980.787,0 c 0,0 5.67,0 5.67,5.67 l 0,59.527 c 0,0 0,5.669 -5.67,5.669 l -980.787,0 z"
         id="path82" /></clipPath><clipPath
       id="clipPath88"><path
         d="m 181.417,626.456 1020.473,0 0,-1588.476 -1020.473,0 0,1588.476 z"
         id="path90" /></clipPath><clipPath
       id="clipPath96"><path
         d="m 179.176,628.697 1024.954,0 0,-1592.959 -1024.954,0 0,1592.959 z"
         id="path98" /></clipPath><clipPath
       id="clipPath100"><path
         d="m 181.417,-962.02 1020.472,0 0,1588.476 -1020.472,0 0,-1588.476 z"
         id="path102" /></clipPath><clipPath
       id="clipPath132"><path
         d="m 170.078,343.627 260.788,0 0,168.528 -260.788,0 0,-168.528 z"
         id="path134" /></clipPath><clipPath
       id="clipPath160"><path
         d="m 170.078,343.627 260.788,0 0,168.528 -260.788,0 0,-168.528 z"
         id="path162" /></clipPath><linearGradient
       x1="0"
       y1="0"
       x2="1"
       y2="0"
       id="linearGradient204"
       gradientUnits="userSpaceOnUse"
       gradientTransform="matrix(0,-32.255798,-32.255798,0,168.99944,628.53467)"
       spreadMethod="pad"><stop
         id="stop206"
         style="stop-color:#c4cbd0;stop-opacity:1"
         offset="0" /><stop
         id="stop208"
         style="stop-color:#8b969d;stop-opacity:1"
         offset="0.97802699" /><stop
         id="stop210"
         style="stop-color:#8b969d;stop-opacity:1"
         offset="1" /></linearGradient><clipPath
       id="clipPath218"><path
         d="m 0,0 481.89,0 0,637.795 L 0,637.795 0,0 z"
         id="path220" /></clipPath><clipPath
       id="clipPath238"><path
         d="m 0,0 481.89,0 0,637.795 L 0,637.795 0,0 z"
         id="path240" /></clipPath><clipPath
       id="clipPath272"><path
         d="m 0,0 481.89,0 0,637.795 L 0,637.795 0,0 z"
         id="path274" /></clipPath><clipPath
       id="clipPath284"><path
         d="m 45.531,467.716 22.323,0 0,28.346 -22.323,0 0,-28.346 z"
         id="path286" /></clipPath><clipPath
       id="clipPath300"><path
         d="m 42.52,467.716 28.346,0 0,28.346 -28.346,0 0,-28.346 z"
         id="path302" /></clipPath><clipPath
       id="clipPath600"><path
         d="m 0,0 481.89,0 0,637.795 L 0,637.795 0,0 z"
         id="path602" /></clipPath><clipPath
       id="clipPath648"><path
         d="m 311.811,308.975 c 0,0 -1.134,0 -2.387,-0.506 l 0,0 0,-248.524 c 0.656,-0.261 1.443,-0.419 2.387,-0.419 l 0,0 113.386,0 c 0,0 1.133,0 2.387,0.507 l 0,0 0,248.523 c -0.656,0.262 -1.443,0.419 -2.387,0.419 l 0,0 -113.386,0 z"
         id="path650" /></clipPath><clipPath
       id="clipPath658"><path
         d="m 311.811,308.975 c 0,0 -1.134,0 -2.387,-0.506 l 0,0 0,-248.524 c 0.656,-0.261 1.443,-0.419 2.387,-0.419 l 0,0 113.386,0 c 0,0 1.133,0 2.387,0.507 l 0,0 0,248.523 c -0.656,0.262 -1.443,0.419 -2.387,0.419 l 0,0 -113.386,0 z"
         id="path660" /></clipPath><clipPath
       id="clipPath766"><path
         d="m 311.811,308.975 c 0,0 -1.134,0 -2.387,-0.506 l 0,0 0,-248.524 c 0.656,-0.261 1.443,-0.419 2.387,-0.419 l 0,0 113.386,0 c 0,0 1.133,0 2.387,0.507 l 0,0 0,248.523 c -0.656,0.262 -1.443,0.419 -2.387,0.419 l 0,0 -113.386,0 z"
         id="path768" /></clipPath><clipPath
       id="clipPath862"><path
         d="m 311.811,308.975 c 0,0 -1.134,0 -2.387,-0.506 l 0,0 0,-248.524 c 0.656,-0.261 1.443,-0.419 2.387,-0.419 l 0,0 113.386,0 c 0,0 1.133,0 2.387,0.507 l 0,0 0,248.523 c -0.656,0.262 -1.443,0.419 -2.387,0.419 l 0,0 -113.386,0 z"
         id="path864" /></clipPath><clipPath
       id="clipPath918"><path
         d="m 311.811,308.975 c 0,0 -1.134,0 -2.387,-0.506 l 0,0 0,-248.524 c 0.656,-0.261 1.443,-0.419 2.387,-0.419 l 0,0 113.386,0 c 0,0 1.133,0 2.387,0.507 l 0,0 0,248.523 c -0.656,0.262 -1.443,0.419 -2.387,0.419 l 0,0 -113.386,0 z"
         id="path920" /></clipPath><clipPath
       id="clipPath1090"><path
         d="m 311.811,308.975 c 0,0 -1.134,0 -2.387,-0.506 l 0,0 0,-248.524 c 0.656,-0.261 1.443,-0.419 2.387,-0.419 l 0,0 113.386,0 c 0,0 1.133,0 2.387,0.507 l 0,0 0,248.523 c -0.656,0.262 -1.443,0.419 -2.387,0.419 l 0,0 -113.386,0 z"
         id="path1092" /></clipPath><clipPath
       id="clipPath1404"><path
         d="m 0,0 481.89,0 0,637.795 L 0,637.795 0,0 z"
         id="path1406" /></clipPath><clipPath
       id="clipPath1750"><path
         d="m 0,0 481.89,0 0,637.795 L 0,637.795 0,0 z"
         id="path1752" /></clipPath><clipPath
       id="clipPath1764"><path
         d="m 0,0 481.89,0 0,637.795 L 0,637.795 0,0 z"
         id="path1766" /></clipPath><clipPath
       id="clipPath1778"><path
         d="m 0,0 481.89,0 0,637.795 L 0,637.795 0,0 z"
         id="path1780" /></clipPath><clipPath
       id="clipPath1792"><path
         d="m 0,0 481.89,0 0,637.795 L 0,637.795 0,0 z"
         id="path1794" /></clipPath><clipPath
       id="clipPath1806"><path
         d="m 0,0 481.89,0 0,637.795 L 0,637.795 0,0 z"
         id="path1808" /></clipPath><clipPath
       id="clipPath1820"><path
         d="m 0,0 481.89,0 0,637.795 L 0,637.795 0,0 z"
         id="path1822" /></clipPath><clipPath
       id="clipPath1834"><path
         d="m 0,0 481.89,0 0,637.795 L 0,637.795 0,0 z"
         id="path1836" /></clipPath><clipPath
       id="clipPath1848"><path
         d="m 0,0 481.89,0 0,637.795 L 0,637.795 0,0 z"
         id="path1850" /></clipPath><clipPath
       id="clipPath1862"><path
         d="m 0,0 481.89,0 0,637.795 L 0,637.795 0,0 z"
         id="path1864" /></clipPath><clipPath
       id="clipPath1876"><path
         d="m 0,0 481.89,0 0,637.795 L 0,637.795 0,0 z"
         id="path1878" /></clipPath><clipPath
       id="clipPath1890"><path
         d="m 0,0 481.89,0 0,637.795 L 0,637.795 0,0 z"
         id="path1892" /></clipPath><clipPath
       id="clipPath1904"><path
         d="m 0,0 481.89,0 0,637.795 L 0,637.795 0,0 z"
         id="path1906" /></clipPath><clipPath
       id="clipPath1918"><path
         d="m 0,0 481.89,0 0,637.795 L 0,637.795 0,0 z"
         id="path1920" /></clipPath><clipPath
       id="clipPath1932"><path
         d="m 0,0 481.89,0 0,637.795 L 0,637.795 0,0 z"
         id="path1934" /></clipPath><clipPath
       id="clipPath1946"><path
         d="m 0,0 481.89,0 0,637.795 L 0,637.795 0,0 z"
         id="path1948" /></clipPath><clipPath
       id="clipPath1960"><path
         d="m 0,0 481.89,0 0,637.795 L 0,637.795 0,0 z"
         id="path1962" /></clipPath><clipPath
       id="clipPath1974"><path
         d="m 0,0 481.89,0 0,637.795 L 0,637.795 0,0 z"
         id="path1976" /></clipPath><clipPath
       id="clipPath1988"><path
         d="m 0,0 481.89,0 0,637.795 L 0,637.795 0,0 z"
         id="path1990" /></clipPath><clipPath
       id="clipPath2002"><path
         d="m 0,0 481.89,0 0,637.795 L 0,637.795 0,0 z"
         id="path2004" /></clipPath><clipPath
       id="clipPath2016"><path
         d="m 0,0 481.89,0 0,637.795 L 0,637.795 0,0 z"
         id="path2018" /></clipPath><clipPath
       id="clipPath2030"><path
         d="m 0,0 481.89,0 0,637.795 L 0,637.795 0,0 z"
         id="path2032" /></clipPath><clipPath
       id="clipPath2044"><path
         d="m 0,0 481.89,0 0,637.795 L 0,637.795 0,0 z"
         id="path2046" /></clipPath><clipPath
       id="clipPath2116"><path
         d="m 0,0 481.89,0 0,637.795 L 0,637.795 0,0 z"
         id="path2118" /></clipPath></defs><g
     transform="matrix(1.25,0,0,-1.25,-121.91375,716.64498)"
     id="g10"><g
       transform="matrix(8.4668927,0,0,8.4668927,-287.97509,-3626.7852)"
       id="g280"><g
         clip-path="url(#clipPath284)"
         id="g282"><g
           transform="translate(56.694,496.0377)"
           id="g288"><path
             d="m 0,0 -11.139,-2.397 0,-5.079 c 0,-4.138 0.354,-8.632 3.542,-13.571 3.329,-5.156 7.596,-7.249 7.596,-7.249 0,0 4.267,2.093 7.596,7.249 3.188,4.939 3.542,9.433 3.542,13.571 l 0,5.079 L 0,0 z"
             id="path290"
             style="fill:#ffffff;fill-opacity:1;fill-rule:nonzero;stroke:none" /></g><g
           transform="translate(56.694,496.0377)"
           id="g292"><path
             d="m 0,0 -0.005,0.023 -11.158,-2.401 0,-0.019 0,-5.079 c 0,-4.139 0.355,-8.64 3.547,-13.584 3.332,-5.162 7.603,-7.256 7.605,-7.257 l 0.01,-0.005 0.011,0.005 c 0.002,0.001 4.272,2.095 7.605,7.257 3.191,4.944 3.546,9.445 3.546,13.584 l 0,4.092 0,0.775 0,0.212 0,0.019 L 0,0.024 -0.005,0.023 0,0 -0.005,-0.023 11.132,-2.42 l 0.005,0.023 -0.023,0 0,-5.079 c 0,-4.137 -0.354,-8.624 -3.539,-13.559 -1.663,-2.575 -3.56,-4.385 -5.041,-5.552 -0.741,-0.583 -1.377,-1.005 -1.828,-1.282 -0.226,-0.138 -0.405,-0.239 -0.528,-0.306 -0.062,-0.034 -0.109,-0.059 -0.141,-0.075 -0.032,-0.017 -0.048,-0.025 -0.048,-0.025 l 0.01,-0.021 0.011,0.021 c -0.001,0 -0.017,0.008 -0.049,0.025 -0.478,0.247 -4.42,2.387 -7.538,7.215 -3.185,4.935 -3.539,9.422 -3.539,13.559 l 0,4.092 0,0.775 0,0.212 -0.023,0 0.005,-0.023 L 0.005,-0.023 0,0 -0.005,-0.023 0,0 z"
             id="path294"
             style="fill:#000000;fill-opacity:1;fill-rule:nonzero;stroke:none" /></g></g></g><g
       transform="matrix(8.4668927,0,0,8.4668927,-287.97509,-3626.7852)"
       id="g296"><g
         clip-path="url(#clipPath300)"
         id="g298"><g
           transform="translate(65.6473,487.5097)"
           id="g304"><path
             d="m 0,0 c 0,-3.355 -0.328,-6.592 -2.884,-10.915 -2.476,-4.19 -6.071,-6.269 -6.071,-6.269 0,0 -3.592,2.079 -6.069,6.269 -2.556,4.323 -2.884,7.56 -2.884,10.915 0,3.355 -0.006,4.519 -0.006,4.519 L -8.952,6.378 0.013,4.519 C 0.013,4.519 0,3.355 0,0 m -8.953,8.151 -10.714,-2.329 0,-4.934 c 0,-4.021 0.341,-8.388 3.408,-13.187 3.202,-5.01 7.305,-7.043 7.305,-7.043 0,0 4.104,2.033 7.306,7.043 3.066,4.799 3.407,9.166 3.407,13.187 l 0,4.934 -10.712,2.329 z"
             id="path306"
             style="fill:#000000;fill-opacity:1;fill-rule:nonzero;stroke:none" /></g><g
           transform="translate(56.6923,494.6526)"
           id="g308"><path
             d="m 0,0 -9.765,-1.995 c 0,0 0.007,-1.25 0.007,-4.851 0,-3.601 0.358,-7.076 3.142,-11.716 2.698,-4.497 6.612,-6.729 6.612,-6.729 0,0 3.917,2.232 6.615,6.729 2.784,4.64 3.142,8.115 3.142,11.716 0,3.601 0.014,4.851 0.014,4.851 L 0,0 z"
             id="path310"
             style="fill:#03549f;fill-opacity:1;fill-rule:nonzero;stroke:none" /></g><g
           transform="translate(63.3361,486.876)"
           id="g312"><path
             d="m 0,0 c -0.817,0.172 -1.391,0.286 -1.392,0.286 l -0.281,0.055 0,-0.286 0,-0.099 0,-0.466 c -0.112,0.02 -0.241,0.042 -0.389,0.066 l 10e-4,0 c -0.308,0.051 -0.548,0.084 -0.728,0.106 l 0,0.274 0,0.231 0,0.097 0,0.204 -0.201,0.03 c -1.44,0.211 -2.873,0.256 -2.878,0.256 l -0.243,0.007 0,-0.243 0,-0.107 0,-0.536 c -0.186,0.006 -0.406,0.01 -0.532,0.01 -0.126,0 -0.338,-0.004 -0.52,-0.009 l 0,0.282 0,0.253 0,0.107 0,0.243 -0.243,-0.007 c -0.005,0 -1.438,-0.045 -2.878,-0.256 l -0.201,-0.03 0,-0.204 0,-0.097 0,-0.505 c -0.181,-0.022 -0.42,-0.055 -0.728,-0.106 l 0,0 c -0.148,-0.024 -0.276,-0.046 -0.388,-0.066 l 0,0.231 0,0.235 0,0.099 0,0.286 -0.281,-0.055 c -10e-4,0 -0.576,-0.114 -1.392,-0.286 l -0.187,-0.04 0,-2.521 0.031,-0.055 c 0,0 0.016,-0.027 0.043,-0.074 0.173,-0.299 0.816,-1.411 0.965,-1.668 0.005,-0.161 0.024,-0.633 0.049,-1.26 0.039,-0.983 0.094,-2.343 0.139,-3.463 0.023,-0.56 0.043,-1.06 0.057,-1.423 0.007,-0.181 0.013,-0.328 0.017,-0.431 0.002,-0.043 0.003,-0.077 0.004,-0.104 -0.055,-0.1 -0.175,-0.319 -0.286,-0.522 -0.063,-0.115 -0.123,-0.225 -0.168,-0.306 -0.044,-0.081 -0.073,-0.133 -0.073,-0.133 l 0.413,-0.227 c 0,0 0.137,0.25 0.276,0.503 0.069,0.126 0.139,0.253 0.191,0.349 0.027,0.048 0.049,0.089 0.065,0.119 0.008,0.014 0.015,0.026 0.019,0.035 0.003,0.005 0.005,0.008 0.007,0.012 l 0.002,0.005 0.002,0.003 0.004,0.008 0.021,0.047 0,0.052 c 0,0.005 0,0.006 0,0.008 0,0.008 0,0.019 -10e-4,0.037 -0.01,0.268 -0.077,1.94 -0.142,3.556 -0.032,0.808 -0.064,1.601 -0.088,2.197 -0.012,0.298 -0.022,0.547 -0.029,0.724 -0.003,0.088 -0.006,0.158 -0.008,0.207 0,0.025 -10e-4,0.044 -0.002,0.057 0,0.007 0,0.012 0,0.016 l 0,0.002 0,0.062 -0.032,0.055 c -0.035,0.061 -0.835,1.444 -1.005,1.738 l 0,2.013 c 0.326,0.069 0.605,0.126 0.811,0.168 0.038,0.007 0.074,0.014 0.107,0.021 l 0,-0.561 0,-0.287 0.281,0.055 c 0.153,0.03 0.366,0.07 0.654,0.117 l 0,0 c 0.441,0.073 0.735,0.108 0.911,0.125 l 0.212,0.021 0,0.214 0,0.485 0,0.124 c 0.635,0.086 1.259,0.141 1.74,0.175 0.264,0.018 0.485,0.03 0.639,0.038 l 0,-0.642 0,-0.247 0.247,0.012 c 0.164,0.008 0.566,0.018 0.745,0.017 0.179,0.001 0.593,-0.009 0.756,-0.017 l 0.247,-0.012 0,0.247 0,0.527 0,0.115 C -5.205,0.252 -4.246,0.194 -3.26,0.06 l 0,-0.609 0,-0.214 0.212,-0.021 c 0.175,-0.017 0.469,-0.052 0.91,-0.125 l 0,0 c 0.288,-0.047 0.502,-0.087 0.655,-0.117 l 0.281,-0.055 0,0.287 0,0.515 0,0.046 c 0.212,-0.043 0.531,-0.108 0.918,-0.189 l 0,-2.013 c -0.17,-0.294 -0.97,-1.677 -1.006,-1.738 l -0.031,-0.055 0,-0.061 c 0,-0.001 -0.001,-0.013 -0.001,-0.029 -0.005,-0.13 -0.024,-0.615 -0.05,-1.269 -0.039,-0.982 -0.094,-2.345 -0.139,-3.468 -0.023,-0.562 -0.043,-1.064 -0.057,-1.428 -0.008,-0.182 -0.013,-0.33 -0.017,-0.433 -0.002,-0.052 -0.004,-0.093 -0.005,-0.122 -10e-4,-0.014 -10e-4,-0.026 -10e-4,-0.034 0,-0.005 0,-0.008 -0.001,-0.011 0,-0.004 0,-0.004 0,-0.011 l 0,-0.052 0.022,-0.047 0.003,-0.008 c 0.003,-0.005 0.004,-0.007 0.006,-0.011 0.007,-0.013 0.02,-0.037 0.039,-0.071 0.129,-0.237 0.517,-0.944 0.517,-0.944 L -0.591,-12 c -0.001,0 -0.035,0.062 -0.086,0.157 -0.078,0.141 -0.194,0.353 -0.292,0.531 -0.049,0.089 -0.093,0.17 -0.125,0.229 -0.009,0.017 -0.017,0.031 -0.024,0.044 0.012,0.339 0.078,1.96 0.14,3.527 0.033,0.808 0.065,1.601 0.089,2.198 0.011,0.298 0.021,0.546 0.028,0.723 0.004,0.089 0.006,0.159 0.008,0.208 0,0.009 0.001,0.017 0.001,0.025 0.078,0.135 0.292,0.506 0.504,0.871 0.127,0.22 0.253,0.438 0.347,0.601 0.047,0.081 0.086,0.149 0.113,0.196 0.028,0.047 0.043,0.074 0.043,0.074 l 0.032,0.055 0,2.521 L 0,0 z"
             id="path314"
             style="fill:#ffffff;fill-opacity:1;fill-rule:nonzero;stroke:none" /></g><g
           transform="translate(62.7446,474.876)"
           id="g316"><path
             d="m 0,0 c 0,0 -0.034,0.062 -0.086,0.156 -0.077,0.141 -0.194,0.353 -0.291,0.532 -0.049,0.089 -0.094,0.17 -0.126,0.229 -0.009,0.017 -0.017,0.031 -0.024,0.044 0.013,0.339 0.078,1.96 0.141,3.527 0.032,0.808 0.064,1.601 0.088,2.198 0.012,0.298 0.022,0.546 0.029,0.723 0.003,0.089 0.006,0.159 0.008,0.208 0,0.009 0,0.017 0,0.025 0.078,0.135 0.293,0.506 0.504,0.871 0.127,0.22 0.253,0.438 0.347,0.601 0.047,0.081 0.087,0.149 0.114,0.196 0.027,0.047 0.043,0.074 0.043,0.074 l 0.031,0.055 0,2.521 L 0.591,12 c -0.816,0.172 -1.391,0.286 -1.392,0.286 l -0.281,0.055 0,-0.851 c -0.112,0.02 -0.24,0.042 -0.388,0.066 l 0,0 c -0.308,0.051 -0.547,0.084 -0.728,0.106 l 0,0.806 -0.201,0.03 c -1.44,0.211 -2.873,0.255 -2.878,0.256 l -0.243,0.007 0,-0.886 c -0.186,0.006 -0.405,0.01 -0.532,0.01 -0.125,0 -0.338,-0.004 -0.52,-0.009 l 0,0.885 -0.243,-0.007 C -6.82,12.753 -8.253,12.709 -9.693,12.498 l -0.201,-0.03 0,-0.806 c -0.18,-0.022 -0.42,-0.055 -0.728,-0.106 l 10e-4,0 c -0.148,-0.024 -0.277,-0.046 -0.389,-0.066 l 0,0.851 -0.281,-0.055 c -10e-4,0 -0.575,-0.114 -1.392,-0.286 l -0.187,-0.04 0,-2.521 0.032,-0.055 c 0,0 0.015,-0.027 0.043,-0.074 0.172,-0.299 0.816,-1.412 0.964,-1.668 0.006,-0.161 0.025,-0.633 0.05,-1.26 0.039,-0.983 0.094,-2.343 0.139,-3.463 0.022,-0.56 0.042,-1.06 0.056,-1.423 0.008,-0.181 0.013,-0.328 0.017,-0.431 0.002,-0.043 0.003,-0.077 0.004,-0.104 -0.054,-0.1 -0.174,-0.319 -0.286,-0.522 C -11.914,0.324 -11.974,0.214 -12.018,0.133 -12.063,0.052 -12.091,0 -12.092,0"
             id="path318"
             style="fill:none;stroke:#000000;stroke-width:0.098;stroke-linecap:butt;stroke-linejoin:miter;stroke-miterlimit:10;stroke-opacity:1;stroke-dasharray:none" /></g><g
           transform="translate(56.6976,494.5732)"
           id="g320"><path
             d="m 0,0 -0.028,0.139 -9.88,-2.019 10e-4,-0.116 c 0,0 0,-0.02 0,-0.061 0.002,-0.288 0.007,-1.639 0.007,-4.79 0,-1.805 0.09,-3.586 0.531,-5.5 0.44,-1.914 1.232,-3.958 2.631,-6.289 1.36,-2.266 3.023,-3.959 4.348,-5.086 1.324,-1.128 2.31,-1.69 2.316,-1.693 l 0.07,-0.04 0.07,0.04 c 0.006,0.003 0.992,0.565 2.318,1.693 1.325,1.127 2.989,2.82 4.349,5.086 1.399,2.331 2.191,4.375 2.631,6.289 0.441,1.914 0.531,3.695 0.531,5.5 0,1.801 0.003,3.013 0.007,3.776 0.002,0.381 0.003,0.65 0.005,0.823 0,0.087 10e-4,0.149 10e-4,0.191 0.001,0.041 0.001,0.06 0.001,0.06 L 9.91,-1.88 0,0.144 -0.028,0.139 0,0 -0.028,-0.139 9.739,-2.134 9.767,-1.995 9.626,-1.994 c 0,-0.001 -0.014,-1.251 -0.014,-4.853 0,-1.796 -0.089,-3.552 -0.523,-5.437 -0.434,-1.884 -1.213,-3.897 -2.599,-6.207 -1.339,-2.231 -2.982,-3.903 -4.29,-5.016 -0.654,-0.556 -1.224,-0.973 -1.63,-1.25 -0.202,-0.138 -0.364,-0.242 -0.475,-0.311 -0.055,-0.034 -0.098,-0.06 -0.127,-0.077 -0.014,-0.008 -0.025,-0.015 -0.032,-0.019 l -0.008,-0.004 -0.002,-0.002 0.07,-0.123 0.07,0.123 -0.002,0.001 c -0.054,0.031 -1.035,0.602 -2.332,1.715 -1.297,1.112 -2.909,2.767 -4.227,4.963 -1.386,2.31 -2.165,4.323 -2.599,6.207 -0.434,1.885 -0.523,3.641 -0.523,5.437 0,3.602 -0.007,4.852 -0.007,4.852 l -0.142,0 0.028,-0.139 9.766,1.995 L 0,0 -0.028,-0.139 0,0 z"
             id="path322"
             style="fill:#ffffff;fill-opacity:1;fill-rule:nonzero;stroke:none" /></g><g
           transform="translate(48.8204,488.0339)"
           id="g324"><path
             d="m 0,0 c -0.603,-0.147 -0.922,0.061 -0.953,0.644 -0.002,0.055 -0.005,0.11 -0.008,0.165 0.218,0.06 0.436,0.118 0.654,0.173 0.003,-0.044 0.005,-0.089 0.007,-0.134 0.006,-0.135 0.032,-0.228 0.077,-0.275 0.049,-0.054 0.13,-0.066 0.248,-0.038 0.079,0.02 0.141,0.06 0.192,0.124 0.051,0.064 0.075,0.146 0.07,0.244 -0.005,0.111 -0.038,0.189 -0.099,0.232 -0.066,0.046 -0.192,0.08 -0.375,0.098 -0.267,0.028 -0.461,0.091 -0.578,0.19 -0.131,0.108 -0.204,0.283 -0.217,0.523 -0.014,0.283 0.056,0.529 0.212,0.727 0.147,0.192 0.365,0.326 0.647,0.395 l 0.006,10e-4 C 0.155,3.135 0.375,3.12 0.536,3.028 0.714,2.926 0.809,2.735 0.821,2.46 0.823,2.416 0.824,2.373 0.826,2.33 0.613,2.284 0.399,2.235 0.187,2.185 0.186,2.202 0.185,2.218 0.184,2.235 0.169,2.569 0.027,2.575 -0.078,2.55 -0.169,2.527 -0.232,2.49 -0.272,2.435 -0.313,2.378 -0.332,2.3 -0.327,2.203 -0.323,2.12 -0.304,2.059 -0.272,2.022 -0.234,1.977 -0.162,1.945 -0.057,1.924 0.088,1.895 0.233,1.865 0.378,1.833 0.59,1.787 0.744,1.707 0.834,1.597 0.913,1.496 0.957,1.347 0.965,1.155 0.99,0.54 0.666,0.162 0.006,0.001 L 0,0 z"
             id="path326"
             style="fill:#ffffff;fill-opacity:1;fill-rule:nonzero;stroke:none" /></g><g
           transform="translate(48.7008,491.1532)"
           id="g328"><path
             d="m 0,0 -0.006,-0.001 c -0.297,-0.073 -0.527,-0.216 -0.686,-0.421 -0.164,-0.211 -0.239,-0.469 -0.224,-0.766 0.014,-0.251 0.091,-0.436 0.232,-0.551 0.123,-0.106 0.319,-0.17 0.599,-0.198 C 0.134,-1.96 0.229,-2 0.27,-2.028 0.321,-2.064 0.349,-2.131 0.353,-2.229 0.357,-2.314 0.339,-2.382 0.297,-2.434 0.255,-2.487 0.207,-2.518 0.144,-2.533 c -0.148,-0.036 -0.19,0.01 -0.203,0.025 -0.028,0.029 -0.06,0.095 -0.068,0.251 -0.001,0.028 -0.003,0.055 -0.004,0.083 -0.002,0.034 -0.003,0.067 -0.005,0.1 -0.035,-0.008 -0.071,-0.018 -0.107,-0.027 -0.183,-0.046 -0.365,-0.095 -0.548,-0.144 -0.035,-0.01 -0.071,-0.02 -0.106,-0.03 0.001,-0.033 0.003,-0.066 0.005,-0.1 0.002,-0.038 0.004,-0.077 0.006,-0.115 0.032,-0.607 0.379,-0.833 1.008,-0.679 l 0.006,10e-4 c 0.685,0.167 1.036,0.576 1.01,1.216 -0.008,0.201 -0.055,0.357 -0.139,0.465 -0.097,0.118 -0.258,0.203 -0.48,0.251 -0.145,0.032 -0.29,0.062 -0.435,0.091 -0.119,0.024 -0.17,0.059 -0.192,0.085 -0.027,0.031 -0.042,0.084 -0.045,0.157 -0.005,0.085 0.01,0.151 0.043,0.196 0.029,0.04 0.08,0.069 0.153,0.087 0.058,0.014 0.192,0.046 0.207,-0.277 0.001,-0.033 0.003,-0.067 0.005,-0.1 0.036,0.009 0.071,0.017 0.107,0.025 0.177,0.042 0.355,0.082 0.532,0.121 0.036,0.007 0.072,0.015 0.108,0.023 -0.001,0.033 -0.003,0.067 -0.004,0.1 -0.001,0.027 -0.002,0.054 -0.003,0.08 C 0.983,-0.358 0.88,-0.155 0.69,-0.046 0.519,0.052 0.286,0.069 0,0 M 0.004,-0.1 C 0.264,-0.037 0.47,-0.051 0.622,-0.137 0.787,-0.231 0.875,-0.41 0.886,-0.671 0.887,-0.698 0.889,-0.725 0.89,-0.751 0.712,-0.79 0.535,-0.83 0.358,-0.871 0.345,-0.59 0.239,-0.472 0.04,-0.52 l -0.002,0 c -0.21,-0.051 -0.31,-0.189 -0.299,-0.41 0.004,-0.093 0.026,-0.162 0.064,-0.206 0.044,-0.051 0.123,-0.087 0.238,-0.11 0.145,-0.029 0.29,-0.059 0.435,-0.09 C 0.68,-1.381 0.824,-1.455 0.908,-1.558 0.982,-1.652 1.023,-1.792 1.03,-1.975 1.055,-2.56 0.751,-2.915 0.123,-3.068 L 0.117,-3.069 c -0.57,-0.139 -0.868,0.056 -0.897,0.608 -0.002,0.038 -0.004,0.077 -0.006,0.116 0.183,0.049 0.365,0.098 0.548,0.144 0.001,-0.028 0.003,-0.056 0.004,-0.084 0.007,-0.146 0.037,-0.246 0.088,-0.3 0.059,-0.066 0.157,-0.082 0.293,-0.049 l 0.002,10e-4 c 0.091,0.022 0.167,0.071 0.228,0.147 0.061,0.076 0.089,0.17 0.084,0.282 -0.006,0.125 -0.045,0.213 -0.117,0.264 -0.071,0.05 -0.203,0.086 -0.395,0.106 -0.259,0.027 -0.443,0.086 -0.554,0.18 -0.124,0.102 -0.192,0.267 -0.203,0.495 -0.014,0.271 0.051,0.501 0.198,0.688 0.138,0.18 0.341,0.304 0.609,0.37 L 0.004,-0.1"
             id="path330"
             style="fill:#000000;fill-opacity:1;fill-rule:nonzero;stroke:none" /></g><g
           transform="translate(49.9365,489.0742)"
           id="g332"><path
             d="M 0,0 C 0.205,0.043 0.409,0.083 0.615,0.122 0.624,-0.119 0.633,-0.361 0.642,-0.602 0.437,-0.641 0.233,-0.682 0.029,-0.724 0.02,-0.483 0.01,-0.241 0,0"
             id="path334"
             style="fill:#ffffff;fill-opacity:1;fill-rule:nonzero;stroke:none" /></g><g
           transform="translate(50.6033,489.2567)"
           id="g336"><path
             d="m 0,0 c -0.036,-0.007 -0.072,-0.014 -0.108,-0.02 -0.169,-0.033 -0.338,-0.066 -0.507,-0.101 -0.036,-0.008 -0.072,-0.015 -0.108,-0.023 0.002,-0.033 0.003,-0.066 0.005,-0.1 0.008,-0.208 0.017,-0.416 0.025,-0.624 0.001,-0.033 0.003,-0.066 0.004,-0.1 0.036,0.008 0.072,0.015 0.107,0.022 0.168,0.035 0.337,0.069 0.505,0.101 0.036,0.007 0.072,0.013 0.108,0.02 -0.002,0.033 -0.003,0.067 -0.004,0.1 C 0.019,-0.516 0.011,-0.308 0.004,-0.1 0.002,-0.067 0.001,-0.033 0,0 m -0.104,-0.121 c 0.008,-0.208 0.015,-0.416 0.023,-0.624 -0.168,-0.032 -0.337,-0.066 -0.505,-0.1 -0.008,0.208 -0.016,0.416 -0.025,0.624 0.169,0.034 0.338,0.068 0.507,0.1"
             id="path338"
             style="fill:#000000;fill-opacity:1;fill-rule:nonzero;stroke:none" /></g><g
           transform="translate(51.7572,488.6168)"
           id="g340"><path
             d="m 0,0 c -0.401,-0.06 -0.681,0.041 -0.836,0.31 -0.117,0.2 -0.183,0.546 -0.202,1.06 -0.018,0.514 0.022,0.881 0.125,1.12 0.136,0.321 0.413,0.521 0.823,0.584 l 0.005,0.001 C 0.288,3.13 0.554,3.037 0.705,2.805 0.799,2.655 0.851,2.427 0.858,2.129 0.859,2.112 0.859,2.096 0.86,2.079 0.636,2.051 0.413,2.021 0.19,1.988 0.189,2.005 0.189,2.022 0.188,2.039 0.182,2.244 0.155,2.387 0.107,2.465 0.064,2.534 -0.004,2.559 -0.107,2.544 -0.18,2.533 -0.279,2.495 -0.33,2.296 -0.37,2.142 -0.384,1.856 -0.37,1.445 c 0.013,-0.403 0.05,-0.672 0.111,-0.801 0.045,-0.1 0.115,-0.138 0.22,-0.122 0.095,0.014 0.159,0.058 0.201,0.137 0.056,0.11 0.081,0.305 0.073,0.582 0,0.016 -10e-4,0.033 -10e-4,0.05 C 0.456,1.323 0.679,1.353 0.901,1.38 0.902,1.364 0.902,1.347 0.902,1.33 0.912,0.965 0.861,0.678 0.75,0.477 0.609,0.213 0.358,0.055 0.005,0.001 L 0,0 z"
             id="path342"
             style="fill:#ffffff;fill-opacity:1;fill-rule:nonzero;stroke:none" /></g><g
           transform="translate(51.671,491.7419)"
           id="g344"><path
             d="m 0,0 -0.005,-0.001 c -0.434,-0.066 -0.727,-0.28 -0.872,-0.623 -0.106,-0.246 -0.148,-0.619 -0.129,-1.141 0.02,-0.521 0.088,-0.874 0.209,-1.08 0.164,-0.286 0.461,-0.394 0.885,-0.33 l 0.005,0 c 0.373,0.057 0.64,0.226 0.792,0.509 0.116,0.211 0.168,0.498 0.158,0.878 -10e-4,0.033 -10e-4,0.067 -0.002,0.1 C 1.004,-1.692 0.968,-1.697 0.932,-1.701 0.745,-1.725 0.559,-1.75 0.373,-1.776 0.337,-1.781 0.3,-1.787 0.264,-1.792 0.265,-1.825 0.266,-1.859 0.267,-1.892 0.277,-2.226 0.236,-2.379 0.2,-2.45 0.168,-2.51 0.12,-2.542 0.046,-2.553 c -0.058,-0.009 -0.123,-0.004 -0.168,0.096 -0.041,0.087 -0.092,0.291 -0.108,0.786 -0.013,0.406 0,0.687 0.039,0.837 0.047,0.183 0.133,0.197 0.17,0.202 0.105,0.016 0.143,-0.02 0.166,-0.057 0.03,-0.049 0.067,-0.16 0.075,-0.405 0.001,-0.034 0.002,-0.067 0.003,-0.101 0.036,0.006 0.073,0.011 0.109,0.016 0.187,0.027 0.374,0.052 0.561,0.076 0.036,0.004 0.072,0.009 0.109,0.013 C 1.001,-1.056 1,-1.023 0.999,-0.989 0.992,-0.679 0.94,-0.451 0.84,-0.292 0.677,-0.042 0.394,0.059 0,0 M 0.003,-0.1 C 0.355,-0.048 0.602,-0.133 0.743,-0.35 0.834,-0.494 0.882,-0.711 0.89,-1.003 0.703,-1.026 0.516,-1.052 0.329,-1.079 0.323,-0.865 0.294,-0.715 0.242,-0.63 0.19,-0.546 0.101,-0.512 -0.023,-0.531 l -0.001,0 c -0.138,-0.022 -0.229,-0.119 -0.273,-0.293 -0.041,-0.16 -0.055,-0.448 -0.042,-0.865 0.014,-0.411 0.053,-0.683 0.117,-0.818 0.052,-0.117 0.142,-0.166 0.27,-0.147 l 0.001,0 c 0.114,0.018 0.196,0.074 0.247,0.17 0.061,0.119 0.088,0.321 0.08,0.607 0.186,0.027 0.372,0.052 0.558,0.075 C 0.944,-2.16 0.895,-2.435 0.789,-2.629 0.656,-2.877 0.423,-3.023 0.09,-3.074 L 0.085,-3.075 c -0.38,-0.057 -0.641,0.037 -0.786,0.29 -0.113,0.192 -0.178,0.538 -0.196,1.04 -0.018,0.502 0.022,0.868 0.121,1.097 0.128,0.302 0.385,0.487 0.774,0.547 L 0.003,-0.1"
             id="path346"
             style="fill:#000000;fill-opacity:1;fill-rule:nonzero;stroke:none" /></g><g
           transform="translate(52.8068,489.5448)"
           id="g348"><path
             d="M 0,0 C 0.207,0.025 0.414,0.048 0.621,0.069 0.626,-0.173 0.631,-0.416 0.636,-0.658 0.43,-0.679 0.224,-0.701 0.018,-0.726 0.012,-0.484 0.006,-0.242 0,0"
             id="path350"
             style="fill:#ffffff;fill-opacity:1;fill-rule:nonzero;stroke:none" /></g><g
           transform="translate(53.4809,489.6693)"
           id="g352"><path
             d="M 0,0 C -0.036,-0.004 -0.073,-0.007 -0.109,-0.011 -0.28,-0.029 -0.45,-0.048 -0.621,-0.068 -0.657,-0.072 -0.693,-0.076 -0.73,-0.081 c 0.001,-0.033 0.002,-0.067 0.003,-0.1 0.005,-0.209 0.01,-0.417 0.016,-0.626 0,-0.033 0.001,-0.067 0.002,-0.1 0.036,0.004 0.072,0.008 0.108,0.013 0.17,0.02 0.34,0.038 0.51,0.056 0.036,0.004 0.072,0.007 0.109,0.011 -10e-4,0.034 -0.002,0.067 -0.003,0.1 C 0.011,-0.518 0.007,-0.309 0.002,-0.101 0.001,-0.067 0.001,-0.034 0,0 m -0.107,-0.112 c 0.005,-0.208 0.009,-0.417 0.014,-0.625 -0.17,-0.018 -0.34,-0.037 -0.51,-0.057 -0.005,0.209 -0.01,0.417 -0.015,0.626 0.17,0.02 0.341,0.039 0.511,0.056"
             id="path354"
             style="fill:#000000;fill-opacity:1;fill-rule:nonzero;stroke:none" /></g><g
           transform="translate(54.9897,490.8002)"
           id="g356"><path
             d="M 0,0 C 0.035,0.002 0.07,0.004 0.106,0.006 0.241,0.013 0.342,0.044 0.405,0.101 0.468,0.157 0.499,0.239 0.497,0.351 0.496,0.47 0.468,0.553 0.414,0.598 0.359,0.644 0.268,0.664 0.144,0.658 c 0,0.017 0,0.034 -0.001,0.05 C 0.142,0.692 0.142,0.675 0.141,0.658 0.091,0.656 0.041,0.653 -0.009,0.65 -0.006,0.433 -0.003,0.217 0,0 m 0.016,-1.265 c 0.055,0.003 0.109,0.006 0.164,0.009 0.134,0.006 0.234,0.042 0.298,0.106 0.064,0.065 0.096,0.164 0.094,0.294 -0.002,0.258 -0.122,0.375 -0.376,0.364 0,0.016 0,0.033 0,0.05 C 0.195,-0.459 0.195,-0.476 0.194,-0.492 0.131,-0.496 0.069,-0.499 0.007,-0.502 0.01,-0.756 0.013,-1.011 0.016,-1.265 m -0.709,2.398 c 0.337,0.025 0.673,0.045 1.01,0.06 C 0.881,1.216 1.169,0.956 1.172,0.443 1.174,0.141 1.067,-0.068 0.853,-0.186 0.958,-0.222 1.046,-0.284 1.117,-0.372 1.215,-0.496 1.266,-0.66 1.267,-0.857 1.268,-1.116 1.202,-1.325 1.072,-1.479 0.915,-1.663 0.674,-1.76 0.353,-1.775 0.02,-1.79 -0.312,-1.809 -0.643,-1.834 -0.66,-0.845 -0.676,0.144 -0.693,1.133"
             id="path358"
             style="fill:#ffffff;fill-opacity:1;fill-rule:nonzero;stroke:none" /></g><g
           transform="translate(55.0517,490.2506)"
           id="g360"><path
             d="M 0,0 C 0.044,0.002 0.088,0.005 0.132,0.007 0.357,0.017 0.453,-0.078 0.456,-0.308 0.457,-0.425 0.43,-0.512 0.376,-0.567 0.323,-0.621 0.236,-0.651 0.117,-0.656 0.081,-0.658 0.045,-0.66 0.008,-0.662 0.006,-0.441 0.003,-0.221 0,0 m -0.015,1.152 c 0.032,0.002 0.063,0.004 0.094,0.005 l 0.003,0 C 0.192,1.162 0.27,1.146 0.314,1.11 0.356,1.075 0.379,1.001 0.38,0.898 0.382,0.801 0.357,0.731 0.306,0.686 0.252,0.638 0.164,0.612 0.043,0.605 0.026,0.605 0.009,0.604 -0.008,0.603 -0.01,0.786 -0.012,0.969 -0.015,1.152 m 0.27,0.641 -0.006,0 C -0.068,1.778 -0.384,1.76 -0.7,1.737 -0.737,1.734 -0.774,1.731 -0.811,1.728 c 0.001,-0.033 0.001,-0.067 0.002,-0.1 0.016,-0.955 0.032,-1.911 0.048,-2.866 0.001,-0.034 0.002,-0.067 0.002,-0.101 0.036,0.003 0.073,0.006 0.109,0.008 0.313,0.023 0.627,0.042 0.941,0.055 0.338,0.015 0.594,0.12 0.762,0.316 0.138,0.163 0.208,0.382 0.206,0.654 C 1.258,-0.098 1.204,0.075 1.099,0.207 1.043,0.278 0.976,0.334 0.899,0.374 1.047,0.485 1.167,0.673 1.165,0.994 1.162,1.533 0.847,1.817 0.255,1.793 m -0.354,-2.562 c 0.072,0.005 0.145,0.008 0.217,0.012 0.301,0.015 0.45,0.164 0.447,0.453 C 0.562,-0.019 0.419,0.12 0.134,0.107 l -0.003,0 C 0.051,0.103 -0.03,0.099 -0.111,0.095 c 0.004,-0.288 0.008,-0.576 0.012,-0.864 m -0.017,1.265 c 0.053,0.003 0.107,0.006 0.16,0.009 C 0.344,0.52 0.493,0.65 0.491,0.902 0.489,1.036 0.456,1.131 0.39,1.186 0.324,1.24 0.221,1.265 0.081,1.258 l -0.003,0 C 0.01,1.254 -0.058,1.251 -0.126,1.247 -0.123,0.997 -0.12,0.746 -0.116,0.496 M 0.255,1.692 C 0.785,1.714 1.052,1.474 1.055,0.991 1.057,0.654 0.918,0.443 0.637,0.353 l 0,-0.008 C 0.794,0.329 0.918,0.263 1.01,0.147 1.102,0.031 1.149,-0.121 1.15,-0.308 1.152,-0.557 1.091,-0.754 0.967,-0.899 0.821,-1.071 0.595,-1.161 0.29,-1.175 -0.024,-1.189 -0.338,-1.207 -0.652,-1.23 c -0.015,0.955 -0.031,1.911 -0.047,2.866 0.316,0.023 0.633,0.042 0.949,0.056 l 0.005,0"
             id="path362"
             style="fill:#000000;fill-opacity:1;fill-rule:nonzero;stroke:none" /></g><g
           transform="translate(57.1956,490.2379)"
           id="g364"><path
             d="M 0,0 C 0.138,-0.001 0.276,-0.004 0.414,-0.007 0.345,0.325 0.276,0.657 0.207,0.988 0.138,0.659 0.069,0.33 0,0 M -0.188,1.789 C 0.076,1.788 0.339,1.783 0.602,1.776 0.857,0.779 1.107,-0.221 1.354,-1.223 c -0.232,0.012 -0.463,0.021 -0.695,0.028 -0.042,0.204 -0.085,0.407 -0.127,0.61 -0.217,0.006 -0.433,0.01 -0.65,0.011 -0.042,-0.202 -0.085,-0.403 -0.127,-0.606 -0.232,10e-4 -0.464,0 -0.696,-0.004 0.247,0.993 0.498,1.985 0.753,2.973"
             id="path366"
             style="fill:#ffffff;fill-opacity:1;fill-rule:nonzero;stroke:none" /></g><g
           transform="translate(57.2619,490.2875)"
           id="g368"><path
             d="M 0,0 C 0.047,0.224 0.094,0.448 0.141,0.671 0.188,0.446 0.235,0.221 0.281,-0.005 0.188,-0.003 0.094,-0.001 0,0 M 0.579,1.775 C 0.55,1.776 0.521,1.777 0.492,1.778 0.258,1.784 0.024,1.788 -0.21,1.789 -0.239,1.79 -0.269,1.79 -0.298,1.79 -0.304,1.764 -0.311,1.738 -0.318,1.712 -0.564,0.757 -0.806,-0.201 -1.044,-1.161 c -0.011,-0.042 -0.021,-0.083 -0.031,-0.125 0.046,0.001 0.091,0.002 0.137,0.003 0.194,0.003 0.388,0.004 0.582,0.004 0.03,0 0.06,-0.001 0.09,-0.001 0.005,0.027 0.011,0.055 0.017,0.082 0.036,0.174 0.073,0.349 0.11,0.524 C 0.048,-0.676 0.234,-0.679 0.42,-0.683 0.457,-0.859 0.494,-1.035 0.53,-1.211 0.536,-1.239 0.542,-1.266 0.548,-1.293 0.577,-1.294 0.607,-1.295 0.637,-1.296 0.831,-1.302 1.025,-1.31 1.219,-1.319 1.264,-1.322 1.31,-1.324 1.356,-1.326 1.346,-1.285 1.335,-1.243 1.325,-1.201 1.087,-0.232 0.845,0.734 0.599,1.697 0.593,1.723 0.586,1.749 0.579,1.775 M -0.133,-0.099 C 0.05,-0.101 0.232,-0.104 0.414,-0.108 0.325,0.324 0.235,0.755 0.145,1.187 l -0.008,0 C 0.046,0.758 -0.043,0.33 -0.133,-0.099 m 0.625,1.776 c 0.246,-0.962 0.489,-1.928 0.727,-2.896 -0.194,0.01 -0.388,0.017 -0.582,0.024 -0.042,0.203 -0.084,0.407 -0.126,0.61 -0.247,0.007 -0.494,0.011 -0.74,0.012 -0.043,-0.202 -0.085,-0.404 -0.127,-0.606 -0.194,0.001 -0.388,-10e-4 -0.582,-0.004 0.239,0.96 0.481,1.917 0.728,2.872 C 0.024,1.687 0.258,1.683 0.492,1.677"
             id="path370"
             style="fill:#000000;fill-opacity:1;fill-rule:nonzero;stroke:none" /></g><g
           transform="translate(59.4496,488.9007)"
           id="g372"><path
             d="m 0,0 c -0.615,0.049 -0.926,0.358 -0.922,0.945 0,0.056 0,0.111 0.001,0.167 0.223,-0.011 0.447,-0.025 0.67,-0.04 0,-0.045 -0.001,-0.09 -0.001,-0.135 C -0.254,0.801 -0.233,0.701 -0.191,0.64 -0.144,0.57 -0.064,0.532 0.056,0.522 0.137,0.516 0.202,0.536 0.257,0.583 0.312,0.631 0.34,0.702 0.341,0.802 0.343,0.914 0.314,1.002 0.255,1.064 0.192,1.13 0.067,1.204 -0.116,1.282 -0.383,1.396 -0.575,1.52 -0.687,1.657 c -0.126,0.149 -0.19,0.346 -0.188,0.588 0.002,0.285 0.088,0.505 0.256,0.652 0.161,0.141 0.388,0.204 0.675,0.182 L 0.062,3.078 C 0.339,3.056 0.559,2.97 0.715,2.827 0.887,2.669 0.971,2.449 0.967,2.173 0.966,2.129 0.965,2.086 0.965,2.042 0.748,2.065 0.532,2.086 0.315,2.104 0.316,2.121 0.316,2.138 0.316,2.155 0.32,2.491 0.178,2.542 0.071,2.551 -0.022,2.558 -0.087,2.541 -0.131,2.5 -0.176,2.457 -0.199,2.386 -0.2,2.288 -0.201,2.204 -0.186,2.137 -0.155,2.09 -0.12,2.034 -0.049,1.979 0.055,1.924 0.199,1.849 0.343,1.772 0.487,1.694 0.697,1.58 0.846,1.451 0.929,1.314 1.002,1.189 1.038,1.027 1.034,0.834 1.029,0.529 0.939,0.305 0.767,0.166 0.595,0.028 0.339,-0.026 0.006,0 L 0,0 z"
             id="path374"
             style="fill:#ffffff;fill-opacity:1;fill-rule:nonzero;stroke:none" /></g><g
           transform="translate(59.5121,492.0292)"
           id="g376"><path
             d="m 0,0 -0.006,0 c -0.303,0.024 -0.544,-0.043 -0.715,-0.195 -0.178,-0.155 -0.27,-0.387 -0.271,-0.686 -0.002,-0.253 0.066,-0.462 0.201,-0.621 0.118,-0.144 0.312,-0.271 0.592,-0.39 C 0.02,-1.985 0.113,-2.055 0.153,-2.096 0.202,-2.148 0.226,-2.224 0.224,-2.322 0.223,-2.408 0.201,-2.468 0.156,-2.507 0.111,-2.545 0.06,-2.561 -0.004,-2.556 c -0.151,0.012 -0.19,0.071 -0.203,0.091 -0.025,0.037 -0.055,0.113 -0.053,0.27 0,0.028 0.001,0.056 0.001,0.084 0,0.034 0.001,0.067 0.001,0.101 -0.037,0.002 -0.073,0.005 -0.109,0.007 -0.187,0.013 -0.374,0.024 -0.562,0.034 -0.036,0.002 -0.073,0.004 -0.109,0.006 0,-0.034 0,-0.067 -10e-4,-0.101 0,-0.039 0,-0.078 0,-0.117 -0.004,-0.611 0.334,-0.947 0.976,-0.998 l 0.006,0 c 0.348,-0.027 0.616,0.03 0.799,0.177 0.183,0.147 0.279,0.382 0.284,0.702 0.004,0.202 -0.034,0.372 -0.111,0.506 -0.09,0.147 -0.246,0.283 -0.466,0.403 -0.144,0.078 -0.288,0.154 -0.432,0.23 -0.093,0.049 -0.158,0.099 -0.188,0.146 -0.025,0.039 -0.037,0.096 -0.036,0.17 0.001,0.086 0.019,0.146 0.055,0.18 0.032,0.031 0.084,0.043 0.159,0.037 0.059,-0.005 0.196,-0.017 0.192,-0.341 -0.001,-0.034 -0.001,-0.067 -0.002,-0.101 0.037,-0.003 0.074,-0.006 0.11,-0.009 0.18,-0.016 0.36,-0.033 0.54,-0.052 0.036,-0.004 0.073,-0.008 0.109,-0.012 0.001,0.034 0.001,0.068 0.002,0.101 0,0.027 0.001,0.054 0.001,0.08 C 0.964,-0.671 0.874,-0.436 0.69,-0.267 0.524,-0.115 0.291,-0.024 0,0 M -0.001,-0.101 C 0.263,-0.122 0.469,-0.202 0.616,-0.336 0.776,-0.482 0.854,-0.688 0.85,-0.95 0.849,-0.977 0.849,-1.004 0.848,-1.03 c -0.18,0.018 -0.359,0.036 -0.54,0.052 0.004,0.282 -0.095,0.434 -0.299,0.45 l -10e-4,0.001 c -0.215,0.016 -0.323,-0.088 -0.325,-0.31 -0.001,-0.094 0.016,-0.168 0.052,-0.225 0.042,-0.064 0.119,-0.126 0.233,-0.186 C 0.112,-1.323 0.256,-1.4 0.4,-1.477 0.601,-1.587 0.741,-1.707 0.82,-1.836 0.888,-1.953 0.921,-2.104 0.918,-2.288 0.907,-2.875 0.583,-3.129 -0.056,-3.079 l -0.006,0.001 c -0.582,0.046 -0.871,0.336 -0.868,0.892 0,0.039 0.001,0.078 0.001,0.116 0.187,-0.009 0.374,-0.02 0.561,-0.033 -0.001,-0.028 -0.001,-0.056 -0.001,-0.085 -0.002,-0.147 0.022,-0.256 0.07,-0.326 0.056,-0.084 0.154,-0.131 0.292,-0.142 l 0.002,-10e-4 c 0.093,-0.007 0.173,0.017 0.238,0.073 0.066,0.056 0.099,0.14 0.101,0.253 0.001,0.125 -0.032,0.225 -0.102,0.298 -0.069,0.073 -0.199,0.151 -0.391,0.232 -0.259,0.111 -0.441,0.229 -0.547,0.358 -0.119,0.141 -0.178,0.326 -0.176,0.556 0.001,0.273 0.081,0.48 0.24,0.618 0.15,0.133 0.362,0.19 0.635,0.169 l 0.006,-0.001"
             id="path378"
             style="fill:#000000;fill-opacity:1;fill-rule:nonzero;stroke:none" /></g><g
           transform="translate(61.1535,491.1783)"
           id="g380"><path
             d="M 0,0 C -0.203,0.026 -0.406,0.05 -0.61,0.072 -0.607,0.264 -0.603,0.455 -0.6,0.646 0.033,0.577 0.665,0.49 1.295,0.385 1.289,0.194 1.284,0.003 1.279,-0.188 1.077,-0.154 0.874,-0.123 0.672,-0.093 0.652,-0.889 0.633,-1.686 0.614,-2.483 0.394,-2.45 0.173,-2.42 -0.049,-2.392 -0.032,-1.594 -0.016,-0.797 0,0"
             id="path382"
             style="fill:#ffffff;fill-opacity:1;fill-rule:nonzero;stroke:none" /></g><g
           transform="translate(62.5043,491.6049)"
           id="g384"><path
             d="m 0,0 c -0.037,0.006 -0.073,0.012 -0.109,0.018 -0.594,0.098 -1.189,0.18 -1.786,0.246 -0.037,0.004 -0.073,0.008 -0.11,0.012 -10e-4,-0.033 -10e-4,-0.067 -0.002,-0.1 -0.003,-0.158 -0.005,-0.316 -0.008,-0.474 0,-0.034 -10e-4,-0.067 -0.002,-0.101 0.037,-0.004 0.074,-0.008 0.11,-0.012 0.167,-0.018 0.334,-0.038 0.5,-0.059 -0.015,-0.764 -0.03,-1.527 -0.045,-2.291 -0.001,-0.033 -0.002,-0.067 -0.002,-0.101 0.036,-0.004 0.072,-0.009 0.108,-0.013 0.185,-0.024 0.37,-0.05 0.554,-0.077 0.036,-0.005 0.072,-0.01 0.108,-0.016 0.001,0.034 0.002,0.067 0.003,0.101 0.018,0.763 0.037,1.526 0.055,2.289 0.166,-0.024 0.332,-0.051 0.498,-0.078 0.037,-0.006 0.073,-0.012 0.109,-0.018 0.001,0.033 0.002,0.067 0.003,0.1 0.005,0.158 0.009,0.316 0.013,0.474 0.001,0.033 0.002,0.066 0.003,0.1 m -0.112,-0.082 c -0.005,-0.158 -0.009,-0.316 -0.013,-0.473 -0.202,0.033 -0.405,0.064 -0.608,0.094 -0.019,-0.797 -0.037,-1.594 -0.056,-2.39 -0.185,0.027 -0.37,0.052 -0.555,0.076 0.016,0.797 0.033,1.594 0.049,2.392 -0.203,0.026 -0.406,0.05 -0.61,0.073 0.003,0.158 0.006,0.316 0.008,0.473 0.597,-0.066 1.192,-0.148 1.785,-0.245"
             id="path386"
             style="fill:#000000;fill-opacity:1;fill-rule:nonzero;stroke:none" /></g><g
           transform="translate(62.6185,491.5351)"
           id="g388"><path
             d="M 0,0 C 0.224,-0.038 0.447,-0.079 0.67,-0.122 0.639,-1.109 0.607,-2.096 0.576,-3.083 0.356,-3.04 0.137,-3 -0.084,-2.962 -0.056,-1.975 -0.028,-0.987 0,0"
             id="path390"
             style="fill:#ffffff;fill-opacity:1;fill-rule:nonzero;stroke:none" /></g><g
           transform="translate(63.3446,491.4529)"
           id="g392"><path
             d="M 0,0 C -0.036,0.007 -0.073,0.014 -0.109,0.021 -0.296,0.057 -0.483,0.091 -0.67,0.123 -0.706,0.129 -0.743,0.136 -0.779,0.142 -0.78,0.108 -0.781,0.075 -0.782,0.041 c -0.027,-0.954 -0.053,-1.908 -0.08,-2.862 -0.001,-0.033 -0.002,-0.067 -0.003,-0.1 0.036,-0.006 0.072,-0.013 0.108,-0.019 0.184,-0.032 0.368,-0.065 0.551,-0.1 0.036,-0.007 0.072,-0.014 0.108,-0.021 0.001,0.034 0.002,0.067 0.003,0.1 0.031,0.954 0.061,1.907 0.092,2.861 0.001,0.033 0.002,0.067 0.003,0.1 m -0.112,-0.079 c -0.03,-0.954 -0.06,-1.907 -0.09,-2.861 -0.184,0.035 -0.368,0.069 -0.552,0.101 0.027,0.954 0.054,1.908 0.081,2.862 0.187,-0.033 0.374,-0.067 0.561,-0.102"
             id="path394"
             style="fill:#000000;fill-opacity:1;fill-rule:nonzero;stroke:none" /></g><g
           transform="translate(64.2719,489.4135)"
           id="g396"><path
             d="M 0,0 C 0.135,-0.03 0.271,-0.062 0.406,-0.094 0.351,0.251 0.297,0.596 0.241,0.94 0.161,0.627 0.08,0.314 0,0 M -0.115,1.821 C 0.143,1.765 0.401,1.705 0.658,1.642 0.87,0.596 1.077,-0.453 1.279,-1.503 1.053,-1.442 0.827,-1.384 0.6,-1.328 c -0.033,0.211 -0.067,0.423 -0.101,0.634 -0.212,0.051 -0.424,0.1 -0.637,0.148 -0.049,-0.193 -0.098,-0.385 -0.148,-0.577 -0.228,0.049 -0.456,0.096 -0.684,0.141 0.281,0.938 0.566,1.873 0.855,2.803"
             id="path398"
             style="fill:#ffffff;fill-opacity:1;fill-rule:nonzero;stroke:none" /></g><g
           transform="translate(64.3389,489.449)"
           id="g400"><path
             d="M 0,0 C 0.055,0.213 0.109,0.426 0.164,0.639 0.201,0.405 0.239,0.17 0.276,-0.064 0.184,-0.042 0.092,-0.021 0,0 M 0.636,1.646 C 0.608,1.653 0.579,1.66 0.551,1.667 0.322,1.723 0.092,1.776 -0.138,1.826 -0.166,1.833 -0.195,1.839 -0.224,1.845 -0.231,1.821 -0.239,1.797 -0.246,1.772 -0.525,0.873 -0.8,-0.03 -1.072,-0.937 c -0.011,-0.039 -0.023,-0.078 -0.035,-0.117 0.045,-0.009 0.091,-0.018 0.136,-0.027 0.191,-0.038 0.382,-0.077 0.572,-0.118 0.03,-0.007 0.059,-0.013 0.088,-0.019 0.007,0.025 0.014,0.051 0.02,0.077 0.043,0.166 0.086,0.333 0.129,0.499 C 0.021,-0.683 0.204,-0.725 0.386,-0.769 0.415,-0.952 0.445,-1.135 0.474,-1.318 0.478,-1.346 0.483,-1.375 0.487,-1.403 0.516,-1.41 0.546,-1.418 0.575,-1.425 0.764,-1.472 0.954,-1.52 1.143,-1.571 1.187,-1.582 1.232,-1.594 1.277,-1.607 1.268,-1.563 1.26,-1.519 1.251,-1.475 1.056,-0.46 0.857,0.553 0.653,1.564 L 0.636,1.646 z m -0.77,-1.717 C 0.045,-0.111 0.224,-0.152 0.402,-0.195 0.331,0.254 0.26,0.703 0.188,1.151 L 0.18,1.153 C 0.075,0.746 -0.03,0.338 -0.134,-0.071 m 0.68,1.638 C 0.751,0.556 0.951,-0.456 1.147,-1.47 0.958,-1.42 0.769,-1.372 0.579,-1.325 0.545,-1.113 0.512,-0.902 0.478,-0.69 c -0.241,0.059 -0.483,0.115 -0.725,0.168 -0.05,-0.192 -0.099,-0.385 -0.148,-0.577 -0.191,0.041 -0.382,0.081 -0.573,0.119 0.272,0.905 0.548,1.807 0.827,2.706 0.229,-0.05 0.459,-0.104 0.687,-0.159"
             id="path402"
             style="fill:#000000;fill-opacity:1;fill-rule:nonzero;stroke:none" /></g><g
           transform="translate(54.9105,472.1629)"
           id="g404"><path
             d="m 0,0 0,1.112 -0.314,0 0,0.28 0.065,0 c 0.198,0 0.307,0.074 0.334,0.224 l 0.005,0.03 0.301,0 L 0.391,0 0,0 z"
             id="path406"
             style="fill:#ffffff;fill-opacity:1;fill-rule:nonzero;stroke:none" /></g><g
           transform="translate(55.3369,473.844)"
           id="g408"><path
             d="m 0,0 -0.071,0 -0.236,0 -0.059,0 -0.01,-0.058 c -0.015,-0.084 -0.062,-0.196 -0.3,-0.196 l -0.029,0 -0.071,0 0,-0.07 0,-0.209 0,-0.071 0.071,0 0.243,0 0,-1.042 0,-0.07 0.071,0 0.32,0 0.071,0 0,0.07 0,1.575 L 0,0 z m -0.071,-0.071 0,-1.575 -0.32,0 0,1.113 -0.314,0 0,0.209 0.029,0 c 0.217,0 0.34,0.084 0.369,0.253 l 0.236,0"
             id="path410"
             style="fill:#000000;fill-opacity:1;fill-rule:nonzero;stroke:none" /></g><g
           transform="translate(56.0394,473.5288)"
           id="g412"><path
             d="m 0,0 c -0.057,0 -0.092,-0.021 -0.112,-0.067 -0.017,-0.04 -0.026,-0.11 -0.026,-0.209 0,-0.1 0.012,-0.171 0.035,-0.212 0.02,-0.035 0.053,-0.051 0.103,-0.051 0.051,0 0.085,0.016 0.105,0.051 0.024,0.041 0.035,0.112 0.035,0.212 0,0.087 -0.007,0.151 -0.022,0.19 C 0.098,-0.027 0.06,0 0,0 m -0.018,-1.397 c -0.305,0 -0.469,0.15 -0.473,0.433 l -0.001,0.036 0.378,0 0,-0.036 c 0,-0.136 0.059,-0.153 0.11,-0.153 0.063,0 0.105,0.029 0.129,0.091 0.02,0.053 0.03,0.141 0.031,0.263 -0.065,-0.055 -0.154,-0.082 -0.265,-0.082 -0.279,0 -0.42,0.177 -0.42,0.527 0,0.397 0.183,0.598 0.545,0.598 0.213,0 0.363,-0.082 0.445,-0.244 0.058,-0.115 0.086,-0.287 0.086,-0.528 0,-0.298 -0.023,-0.499 -0.072,-0.616 C 0.396,-1.3 0.23,-1.397 -0.018,-1.397"
             id="path414"
             style="fill:#ffffff;fill-opacity:1;fill-rule:nonzero;stroke:none" /></g><g
           transform="translate(56.0394,473.0253)"
           id="g416"><path
             d="m 0,0 c -0.046,0 -0.063,0.017 -0.072,0.034 -0.014,0.024 -0.031,0.077 -0.031,0.193 0,0.117 0.013,0.171 0.023,0.195 0.011,0.024 0.027,0.046 0.08,0.046 0.045,0 0.069,-0.017 0.085,-0.061 C 0.094,0.381 0.105,0.331 0.105,0.227 0.105,0.111 0.088,0.058 0.075,0.034 0.065,0.017 0.048,0 0,0 m 0.016,0.819 c -0.265,0 -0.581,-0.11 -0.581,-0.634 0,-0.465 0.248,-0.562 0.456,-0.562 0.089,0 0.166,0.017 0.228,0.05 C 0.115,-0.428 0.102,-0.482 0.092,-0.511 0.073,-0.559 0.045,-0.578 -0.004,-0.578 c -0.03,0 -0.074,0 -0.074,0.118 l 0,0.071 -0.071,0 -0.307,0 -0.072,0 0.001,-0.072 c 0.004,-0.214 0.095,-0.468 0.509,-0.468 0.263,0 0.44,0.105 0.526,0.311 0.05,0.121 0.074,0.327 0.074,0.63 0,0.246 -0.029,0.424 -0.09,0.543 C 0.404,0.73 0.244,0.819 0.016,0.819 M 0,-0.071 c 0.064,0 0.109,0.023 0.136,0.069 0.026,0.046 0.04,0.123 0.04,0.229 0,0.092 -0.008,0.16 -0.025,0.203 C 0.126,0.503 0.076,0.539 0,0.539 -0.071,0.539 -0.119,0.509 -0.145,0.45 -0.164,0.405 -0.174,0.331 -0.174,0.227 c 0,-0.106 0.014,-0.183 0.041,-0.229 0.026,-0.046 0.071,-0.069 0.133,-0.069 m 0.016,0.819 c 0.2,0 0.338,-0.075 0.413,-0.225 0.055,-0.108 0.083,-0.278 0.083,-0.511 0,-0.291 -0.023,-0.492 -0.069,-0.603 -0.074,-0.178 -0.228,-0.267 -0.461,-0.267 -0.288,0 -0.434,0.132 -0.438,0.398 l 0.307,0 c 0,-0.126 0.048,-0.189 0.145,-0.189 0.078,0 0.132,0.038 0.162,0.113 0.022,0.06 0.033,0.155 0.033,0.287 l 0,0.076 -0.004,0 c -0.059,-0.089 -0.158,-0.133 -0.296,-0.133 -0.257,0 -0.385,0.163 -0.385,0.491 0,0.375 0.17,0.563 0.51,0.563"
             id="path418"
             style="fill:#000000;fill-opacity:1;fill-rule:nonzero;stroke:none" /></g><g
           transform="translate(57.2555,473.5288)"
           id="g420"><path
             d="m 0,0 c -0.054,0 -0.087,-0.026 -0.105,-0.085 -0.022,-0.07 -0.033,-0.207 -0.033,-0.409 l 0,-0.171 c 0,-0.193 0.011,-0.321 0.032,-0.38 0.018,-0.05 0.051,-0.072 0.106,-0.072 0.054,0 0.087,0.027 0.106,0.088 0.021,0.068 0.032,0.204 0.032,0.406 l 0,0.171 c 0,0.192 -0.011,0.32 -0.032,0.38 C 0.088,-0.022 0.055,0 0,0 m 0,-1.397 c -0.199,0 -0.34,0.064 -0.419,0.19 -0.074,0.118 -0.11,0.318 -0.11,0.611 0,0.283 0.024,0.479 0.074,0.598 C -0.378,0.186 -0.225,0.28 0,0.28 0.199,0.28 0.339,0.217 0.417,0.093 0.493,-0.027 0.529,-0.228 0.529,-0.521 0.529,-0.804 0.505,-1 0.455,-1.12 0.378,-1.304 0.225,-1.397 0,-1.397"
             id="path422"
             style="fill:#ffffff;fill-opacity:1;fill-rule:nonzero;stroke:none" /></g><g
           transform="translate(57.2555,472.4469)"
           id="g424"><path
             d="m 0,0 c -0.04,0 -0.06,0.013 -0.072,0.049 -0.014,0.038 -0.031,0.133 -0.031,0.367 l 0,0.172 c 0,0.247 0.017,0.353 0.031,0.398 0.016,0.05 0.039,0.061 0.072,0.061 0.04,0 0.06,-0.014 0.073,-0.049 0.013,-0.039 0.03,-0.134 0.03,-0.368 l 0,-0.171 C 0.103,0.212 0.086,0.108 0.073,0.064 0.054,0.005 0.025,0 0,0 m 0,1.397 c -0.238,0 -0.406,-0.103 -0.488,-0.299 -0.052,-0.124 -0.077,-0.324 -0.077,-0.612 0,-0.3 0.038,-0.506 0.116,-0.63 0.086,-0.137 0.237,-0.206 0.449,-0.206 0.237,0 0.406,0.103 0.488,0.299 0.051,0.124 0.077,0.324 0.077,0.612 0,0.3 -0.039,0.507 -0.118,0.633 C 0.362,1.329 0.212,1.397 0,1.397 m 0,-1.468 c 0.07,0 0.116,0.038 0.14,0.114 0.022,0.071 0.033,0.21 0.033,0.416 l 0,0.171 C 0.173,0.827 0.162,0.958 0.139,1.022 0.116,1.085 0.07,1.117 0,1.117 -0.07,1.117 -0.116,1.081 -0.139,1.007 -0.162,0.934 -0.174,0.794 -0.174,0.588 l 0,-0.172 c 0,-0.197 0.012,-0.327 0.035,-0.391 C -0.116,-0.039 -0.07,-0.071 0,-0.071 M 0,1.326 C 0.187,1.326 0.316,1.27 0.387,1.156 0.458,1.043 0.494,0.844 0.494,0.561 0.494,0.285 0.47,0.09 0.423,-0.024 0.351,-0.195 0.211,-0.28 0,-0.28 c -0.187,0 -0.317,0.058 -0.389,0.174 -0.07,0.111 -0.105,0.308 -0.105,0.592 0,0.275 0.024,0.47 0.071,0.585 0.071,0.17 0.212,0.255 0.423,0.255"
             id="path426"
             style="fill:#000000;fill-opacity:1;fill-rule:nonzero;stroke:none" /></g><g
           transform="translate(58.3915,472.1317)"
           id="g428"><path
             d="m 0,0 c -0.327,0 -0.5,0.164 -0.5,0.474 l 0,0.077 0.377,0 0,-0.035 c 0,-0.223 0.091,-0.223 0.121,-0.223 0.037,0 0.151,0 0.151,0.272 0,0.154 -0.018,0.22 -0.033,0.248 C 0.097,0.847 0.059,0.863 0,0.863 -0.071,0.863 -0.107,0.828 -0.116,0.75 l -0.004,-0.031 -0.356,0 0.062,0.927 0.89,0 0,-0.32 -0.584,0 L -0.13,1.09 c 0.063,0.044 0.147,0.066 0.25,0.066 0.279,0 0.42,-0.181 0.42,-0.538 C 0.54,0.419 0.505,0.274 0.433,0.177 0.347,0.059 0.201,0 0,0"
             id="path430"
             style="fill:#ffffff;fill-opacity:1;fill-rule:nonzero;stroke:none" /></g><g
           transform="translate(58.9028,473.8128)"
           id="g432"><path
             d="m 0,0 -0.071,0 -0.821,0 -0.066,0 -0.004,-0.066 -0.058,-0.856 -0.005,-0.076 0.075,0 0.287,0 0.063,0 0.008,0.062 c 0.008,0.069 0.036,0.083 0.081,0.083 0.067,0 0.08,-0.025 0.085,-0.033 0.01,-0.019 0.029,-0.076 0.029,-0.23 0,-0.237 -0.085,-0.237 -0.116,-0.237 -0.024,0 -0.086,0 -0.086,0.188 l 0,0.07 -0.07,0 -0.307,0 -0.071,0 0,-0.07 0,-0.043 c 0,-0.332 0.185,-0.508 0.536,-0.508 0.212,0 0.368,0.064 0.462,0.19 0.076,0.104 0.113,0.256 0.113,0.463 0,0.474 -0.247,0.574 -0.455,0.574 -0.081,0 -0.15,-0.013 -0.209,-0.039 l 0.013,0.137 0.516,0 0.071,0 0,0.071 0,0.249 L 0,0 z m -0.071,-0.071 0,-0.249 -0.58,0 -0.034,-0.358 0.005,0 c 0.057,0.079 0.154,0.118 0.289,0.118 0.256,0 0.385,-0.168 0.385,-0.503 0,-0.19 -0.034,-0.33 -0.1,-0.42 -0.08,-0.109 -0.215,-0.163 -0.405,-0.163 -0.31,0 -0.465,0.146 -0.465,0.438 l 0,0.043 0.307,0 c 0,-0.172 0.052,-0.258 0.156,-0.258 0.124,0 0.186,0.102 0.186,0.307 0,0.13 -0.012,0.218 -0.037,0.264 -0.026,0.046 -0.075,0.069 -0.147,0.069 -0.089,0 -0.14,-0.048 -0.152,-0.144 l -0.287,0 0.058,0.856 0.821,0"
             id="path434"
             style="fill:#000000;fill-opacity:1;fill-rule:nonzero;stroke:none" /></g><g
           transform="translate(56.6968,474.6619)"
           id="g436"><path
             d="m 0,0 c -3.243,1.848 -4.905,5.43 -4.885,8.961 2.052,1.128 4.205,1.191 4.885,1.191 l 0.001,0 0.001,0 c 0.684,0 2.852,-0.063 4.917,-1.191 C 4.94,5.43 3.266,1.848 0.002,0 L 0,0 z"
             id="path438"
             style="fill:#ffffff;fill-opacity:1;fill-rule:nonzero;stroke:none" /></g><g
           transform="translate(56.6968,474.6619)"
           id="g440"><path
             d="m 0,0 0.058,0.102 c -1.59,0.907 -2.796,2.236 -3.605,3.774 -0.809,1.538 -1.22,3.284 -1.22,5.021 0,0.021 0,0.042 0,0.063 l -0.118,10e-4 0.057,-0.103 c 1.011,0.556 2.05,0.851 2.921,1.005 0.87,0.155 1.571,0.171 1.907,0.171 l 0.001,0 0.001,0 c 0.338,0 1.044,-0.016 1.92,-0.171 C 2.799,9.708 3.845,9.414 4.863,8.858 L 4.919,8.961 4.801,8.96 C 4.802,8.939 4.802,8.918 4.802,8.896 4.802,7.16 4.388,5.414 3.573,3.876 2.759,2.338 1.545,1.009 -0.056,0.103 L 0.002,0 0.002,0.118 0,0.118 0,0 0.058,0.102 0,0 l 0,-0.118 0.002,0 c 0.021,0 0.04,0.005 0.058,0.015 1.643,0.931 2.888,2.295 3.722,3.869 0.833,1.573 1.255,3.357 1.255,5.13 0,0.022 0,0.044 0,0.066 0,0.042 -0.024,0.082 -0.061,0.102 C 3.929,9.636 2.858,9.937 1.963,10.096 1.068,10.254 0.348,10.27 0.002,10.27 l -0.001,0 -0.001,0 c -0.344,0 -1.059,-0.016 -1.949,-0.175 C -2.838,9.937 -3.901,9.636 -4.941,9.064 -4.979,9.043 -5.002,9.004 -5.003,8.962 c 0,-0.022 0,-0.044 0,-0.065 0,-1.774 0.42,-3.557 1.248,-5.131 0.827,-1.574 2.064,-2.938 3.697,-3.868 C -0.04,-0.113 -0.021,-0.118 0,-0.118 L 0,0 z"
             id="path442"
             style="fill:#000000;fill-opacity:1;fill-rule:nonzero;stroke:none" /></g><g
           transform="translate(56.6983,475.1584)"
           id="g444"><path
             d="M 0,0 C -2.965,1.695 -4.485,4.981 -4.466,8.219 -2.591,9.254 -0.621,9.312 0,9.312 l 0.001,0 0.001,0 C 0.627,9.312 2.61,9.254 4.498,8.219 4.517,4.981 2.986,1.695 0.002,0 L 0,0 z"
             id="path446"
             style="fill:#ffffff;fill-opacity:1;fill-rule:nonzero;stroke:none" /></g><g
           transform="translate(56.6983,475.1584)"
           id="g448"><path
             d="m 0,0 0.023,0.041 c -1.465,0.838 -2.575,2.066 -3.32,3.486 -0.744,1.419 -1.122,3.031 -1.122,4.633 0,0.02 0,0.039 0,0.059 l -0.047,0 0.022,-0.041 C -2.579,9.207 -0.618,9.265 0,9.265 l 0.001,0 0.001,0 c 0.622,0 2.597,-0.058 4.473,-1.087 l 0.023,0.041 -0.047,0 c 0,-0.02 0,-0.039 0,-0.059 C 4.451,6.558 4.07,4.947 3.321,3.527 2.571,2.107 1.453,0.879 -0.022,0.041 L 0.002,0 0.002,0.047 0,0.047 0,0 0.023,0.041 0,0 l 0,-0.047 0.002,0 0.012,0 0.011,0.006 c 1.492,0.847 2.622,2.09 3.379,3.524 0.757,1.434 1.141,3.06 1.141,4.677 0,0.02 0,0.04 0,0.059 l 0,0.028 -0.024,0.014 c -1.9,1.041 -3.89,1.097 -4.519,1.098 l -0.001,0 -0.001,0 C -0.625,9.358 -2.602,9.302 -4.489,8.261 l -0.024,-0.014 0,-0.028 C -4.514,8.2 -4.514,8.18 -4.514,8.16 c 0,-1.617 0.382,-3.243 1.134,-4.677 0.752,-1.434 1.875,-2.677 3.357,-3.524 l 0.01,-0.006 0.013,0 L 0,0 z"
             id="path450"
             style="fill:#000000;fill-opacity:1;fill-rule:nonzero;stroke:none" /></g><g
           transform="translate(58.1865,480.7291)"
           id="g452"><path
             d="M 0,0 0.184,-0.026 0.364,0.04 0.464,0.185 0.53,0.439 0.558,0.675 0.432,1.101 0.264,1.645 0.364,1.627 0.464,1.645 0.59,1.717 0.731,1.842 0.896,1.892 1.048,1.859 1.12,1.797 1.078,1.707 0.972,1.672 0.804,1.645 0.685,1.575 0.685,1.497 0.718,1.437 0.814,1.413 0.952,1.455 1.03,1.556 1.058,1.6 1.334,1.627 1.602,1.645 1.164,0.557 1.012,0.053 0.929,-0.099 0.771,-0.227 0.464,-0.338 0.313,-0.365 0.063,-0.24 0,0 z"
             id="path454"
             style="fill:#ffffff;fill-opacity:1;fill-rule:nonzero;stroke:none" /></g><g
           transform="translate(58.0398,480.3914)"
           id="g456"><path
             d="M 0,0 0.088,-0.19 0.161,-0.427 0.235,-0.674 0.43,-0.885 0.649,-0.937 0.84,-1.073 0.931,-1.389 0.994,-1.412 1.221,-1.089 1.208,-0.647 1.112,-0.521 0.813,-0.404 0.537,-0.245 0.395,-0.037 0.235,0.11 0,0 z"
             id="path458"
             style="fill:#ffffff;fill-opacity:1;fill-rule:nonzero;stroke:none" /></g><g
           transform="translate(58.203,480.8356)"
           id="g460"><path
             d="M 0,0 C 0.127,-0.05 0.222,0 0.186,0.03 0.15,0.061 0.101,0.188 0.093,0.27 0.152,0.273 0.295,0.303 0.328,0.338 0.322,0.35 0.211,0.48 0.211,0.493 c 0,0.014 0.086,0.04 0.116,0.05 0.031,0.01 0.04,0.033 0.035,0.064 -0.014,0.064 -0.057,0.059 -0.091,0.1 -0.034,0.041 -0.04,0.2 -0.044,0.235 L 0.287,1.045 0.076,1.252 0.177,1.364 C 0.169,1.398 0.095,1.416 0.032,1.436 -0.031,1.455 -0.13,1.548 -0.186,1.681 -0.24,1.815 -0.298,1.823 -0.33,1.835 c 0,0 0.035,0.087 0.037,0.092 -0.075,0.065 -0.191,0.038 -0.257,0.071 -0.079,0.04 -0.354,0.143 -0.399,0.167 l -0.016,0.089 c 0,0 -0.229,0 -0.269,0.008 C -1.34,2.273 -1.396,2.363 -1.441,2.367 -1.486,2.37 -1.48,2.34 -1.568,2.36 c -0.265,0.089 -0.505,0.059 -0.561,0.026 0,0 -0.004,0.064 -0.01,0.11 -0.01,0.056 -0.064,0.039 -0.07,0.013 C -2.276,2.33 -2.572,2.353 -2.682,2.297 l -0.127,0.064 c 0,0 -0.083,-0.118 -0.128,-0.149 C -2.981,2.181 -3.089,2.139 -3.179,2.103 -3.269,2.067 -3.349,1.997 -3.374,1.954 l -0.118,0 c 0,0 10e-4,-0.028 0,-0.078 C -3.49,1.799 -3.548,1.761 -3.59,1.695 -3.632,1.63 -3.652,1.545 -3.655,1.512 -3.664,1.435 -3.747,1.426 -3.805,1.368 -3.834,1.344 -3.85,1.244 -3.85,1.213 c 0,-0.031 0.019,-0.042 0.019,-0.071 0,-0.009 0.002,-0.049 -0.029,-0.075 C -3.904,1.028 -3.933,0.985 -3.925,0.912 -3.918,0.851 -3.95,0.796 -3.953,0.764 -3.958,0.714 -3.938,0.65 -3.925,0.63 -3.918,0.619 -3.903,0.59 -3.915,0.558 -3.93,0.516 -3.981,0.33 -3.98,0.263 c 0,-0.067 0.027,-0.13 0.039,-0.153 0.01,-0.019 0.01,-0.06 0.002,-0.074 -0.005,-0.012 -0.332,-0.61 -0.377,-0.707 -0.027,-0.051 -0.063,-0.135 -0.059,-0.201 0.006,-0.133 0.1,-0.155 0.146,-0.159 0,0 0.116,-0.002 0.178,0 0,0 0.001,0 -0.002,-0.087 -0.003,-0.087 -0.153,-0.1 -0.154,-0.217 10e-4,-0.088 0.083,-0.147 0.127,-0.168 -0.03,-0.065 -0.044,-0.083 -0.031,-0.176 0.017,-0.114 0.179,-0.11 0.243,-0.108 0.101,-0.247 -0.023,-0.292 0,-0.458 0.049,-0.3 0.537,-0.366 1.015,-0.244 0.128,-0.527 0.593,-0.252 0.744,-1.16 0.865,-0.256 1.255,0.718 1.678,1.116 0.153,0.168 0.513,0.346 0.519,0.353 0.006,0.007 0.024,0.015 0.003,0.039 -0.353,0.296 -0.491,0.863 -0.502,0.961 0,0 0.135,0.019 0.15,0.022 0.015,0.002 0.05,0.013 0.021,0.052 -0.035,0.039 -0.165,0.192 -0.152,0.192 0.012,0 0.185,0.004 0.227,0.016 -0.006,0.03 -0.022,0.093 -0.053,0.145 -0.03,0.052 -0.036,0.076 -0.031,0.136 0.002,0.015 0.001,0.052 0.028,0.111 0.059,-0.063 0.203,-0.024 0.285,0.126 C 0.156,-0.191 0.018,-0.12 0,0"
             id="path462"
             style="fill:#000000;fill-opacity:1;fill-rule:nonzero;stroke:none" /></g><g
           transform="translate(54.4859,482.1593)"
           id="g464"><path
             d="M 0,0 C 0.032,0.014 0.147,0.072 0.16,0.143 0.165,0.175 0.189,0.171 0.203,0.166 0.274,0.16 1.226,-0.249 1.399,-0.394 1.572,-0.539 0.648,-0.269 0.474,-0.211 0.557,-0.283 1.226,-0.517 1.539,-0.529 1.626,-0.532 1.783,-0.508 1.934,-0.587 2.06,-0.652 2.237,-0.697 2.356,-0.708 2.307,-0.73 2.21,-0.731 2.183,-0.73 2.289,-0.783 2.43,-0.81 2.498,-0.826 2.817,-0.905 3.06,-1.178 3.193,-1.251 3.297,-1.321 3.546,-1.391 3.554,-1.58 3.554,-1.63 3.499,-1.639 3.482,-1.638 3.346,-1.632 3.346,-1.529 3.23,-1.533 3.05,-1.546 2.891,-1.447 2.771,-1.491 2.891,-1.496 2.937,-1.543 3.06,-1.585 3.168,-1.633 3.259,-1.557 3.32,-1.648 3.253,-1.681 3.089,-1.688 3.015,-1.683 2.868,-1.677 2.841,-1.612 2.793,-1.591 2.728,-1.562 2.675,-1.577 2.659,-1.611 2.638,-1.667 2.568,-1.753 2.508,-1.788 2.45,-1.82 2.361,-1.868 2.316,-1.974 2.272,-2.079 2.178,-2.299 2.013,-2.288 1.848,-2.279 1.828,-2.16 1.83,-2.149 c 0.02,-0.029 0.045,-0.078 0.172,-0.08 0.128,-0.002 0.213,0.187 0.275,0.351 0.061,0.11 0.133,0.118 0.206,0.173 0.072,0.054 0.135,0.183 0.114,0.329 -0.013,0.092 -0.153,0.327 -0.45,0.261 -0.19,-0.058 -0.323,-0.213 -0.348,-0.249 -0.164,-0.002 -0.481,0.138 -0.506,0.151 0.168,0.013 0.252,0.056 0.252,0.056 -0.111,0.011 -0.484,-0.005 -0.715,0.06 -0.23,0.064 -0.507,0.205 -0.581,0.232 -0.12,0.049 -0.382,0.076 -0.381,0.246 0.004,0.087 0.036,0.108 0.036,0.108 l 0.178,-0.015 c 0,0 -0.163,0.081 -0.176,0.111 -0.02,0.028 0.005,0.095 0.012,0.105 0.006,0.01 0.016,0.063 0.087,0.058 0.071,-0.005 0.109,-0.018 0.109,-0.018 0,0 -0.145,0.113 -0.152,0.146 C -0.054,-0.107 -0.062,-0.028 0,0"
             id="path466"
             style="fill:#ffffff;fill-opacity:1;fill-rule:nonzero;stroke:none" /></g><g
           transform="translate(54.4539,481.5174)"
           id="g468"><path
             d="M 0,0 C 0.18,0.005 0.385,0.064 0.717,-0.119 0.932,-0.269 1.353,-0.235 1.433,-0.212 1.327,-0.296 0.874,-0.324 0.642,-0.175 0.441,-0.046 0.171,-0.007 0,0"
             id="path470"
             style="fill:#000000;fill-opacity:1;fill-rule:nonzero;stroke:none" /></g><g
           transform="translate(56.8667,481.2432)"
           id="g472"><path
             d="M 0,0 C 0.265,-0.036 0.486,-0.152 0.713,-0.321 0.845,-0.422 1.055,-0.48 1.082,-0.613 1.033,-0.54 0.812,-0.435 0.591,-0.427 0.371,-0.418 0.32,-0.432 0.269,-0.361 0.119,-0.158 -0.359,0.051 -0.582,0.13 -0.244,0.061 0.116,-0.09 0.318,-0.321 0.341,-0.348 0.398,-0.361 0.47,-0.361 0.545,-0.36 0.666,-0.376 0.699,-0.394 0.662,-0.352 0.36,-0.106 0,0"
             id="path474"
             style="fill:#000000;fill-opacity:1;fill-rule:nonzero;stroke:none" /></g><g
           transform="translate(56.3697,480.6824)"
           id="g476"><path
             d="M 0,0 C 0,-0.101 0.266,0.264 0.426,0.163 0.534,0.094 0.479,-0.07 0.467,-0.113 0.461,-0.175 0.53,-0.13 0.552,-0.067 0.57,-0.014 0.608,0.141 0.468,0.227 0.307,0.326 0.015,0.106 0,0"
             id="path478"
             style="fill:#ffffff;fill-opacity:1;fill-rule:nonzero;stroke:none" /></g><g
           transform="translate(56.6196,480.601)"
           id="g480"><path
             d="m 0,0 c 0,-0.038 0.063,-0.03 0.065,-0.071 0.002,-0.041 -0.07,-0.065 -0.113,-0.106 -0.044,-0.04 -0.016,-0.162 -0.067,-0.164 -0.048,-0.002 0.002,0.065 -0.063,0.059 -0.048,-0.005 -0.05,-0.112 0.039,-0.133 0.127,-0.023 0.115,0.087 0.143,0.176 0.015,0.048 0.138,0.044 0.138,0.166 C 0.142,0.054 0.004,0.041 0,0"
             id="path482"
             style="fill:#ffffff;fill-opacity:1;fill-rule:nonzero;stroke:none" /></g><g
           transform="translate(54.6043,480.9479)"
           id="g484"><path
             d="m 0,0 c 0.056,-0.074 0.214,-0.26 0.526,-0.297 0,-0.132 -0.29,-0.098 -0.34,-0.215 -0.051,0.051 0.048,0.153 0.206,0.165 C 0.333,-0.337 0.224,-0.286 0.193,-0.26 0.198,-0.324 0.162,-0.411 0.081,-0.397 0,-0.39 -0.005,-0.192 0.041,-0.163 0.041,-0.163 -0.064,-0.064 0,0"
             id="path486"
             style="fill:#ffffff;fill-opacity:1;fill-rule:nonzero;stroke:none" /></g><g
           transform="translate(58.2103,480.7588)"
           id="g488"><path
             d="M 0,0 C 0.04,-0.014 0.228,-0.044 0.34,0.065 0.462,0.175 0.548,0.479 0.457,0.791 0.429,0.887 0.228,1.578 0.194,1.636 0.157,1.673 0.151,1.71 0.146,1.748 0.141,1.813 0.195,1.883 0.325,1.903 0.455,1.923 0.553,1.96 0.553,1.96 L 0.551,2.297 c 0.093,0.015 0.358,0.071 0.366,-0.143 0,-0.009 0,-0.267 0,-0.267 C 0.963,1.889 1.118,1.873 1.121,1.742 1.126,1.631 1.016,1.613 0.95,1.606 0.884,1.6 0.678,1.61 0.685,1.483 0.689,1.422 0.777,1.415 0.801,1.417 0.877,1.416 0.958,1.476 1.007,1.599 l 0.312,0.039 c 0,0 0.061,0.061 0.061,0.133 C 1.385,1.832 1.35,1.877 1.363,1.896 1.377,1.916 1.413,1.915 1.446,1.901 1.479,1.888 1.648,1.802 1.64,1.705 1.632,1.608 1.2,0.709 1.093,0.306 1.068,0.212 1.022,-0.072 0.862,-0.217 0.741,-0.313 0.459,-0.41 0.403,-0.423 0.347,-0.437 0.323,-0.432 0.278,-0.423 0.21,-0.41 0.019,-0.296 -0.021,-0.214 -0.047,-0.16 0.111,-0.259 0.184,-0.313 0.256,-0.367 0.38,-0.376 0.465,-0.338 0.551,-0.3 0.815,-0.215 0.897,-0.069 0.969,0.058 0.991,0.136 1.031,0.316 1.07,0.497 1.525,1.587 1.525,1.587 1.396,1.574 1.065,1.547 1.065,1.547 1.045,1.495 0.933,1.3 0.711,1.368 0.779,1.135 0.749,0.712 0.679,0.59 0.703,0.685 0.744,1.216 0.657,1.407 0.63,1.432 0.619,1.453 0.617,1.504 0.615,1.555 0.681,1.643 0.798,1.654 0.915,1.666 1.056,1.652 1.055,1.741 1.054,1.83 0.934,1.821 0.898,1.821 0.65,1.821 0.589,1.524 0.304,1.559 c 0,0 0.211,-0.73 0.229,-0.788 C 0.561,0.704 0.693,-0.147 0.029,-0.079 0.021,-0.111 0.451,-0.146 0.606,0.024 0.582,-0.037 0.413,-0.164 0.036,-0.135 0.17,-0.219 0.493,-0.203 0.63,-0.096 0.532,-0.2 0.313,-0.275 0.04,-0.184 L 0,0 z"
             id="path490"
             style="fill:#000000;fill-opacity:1;fill-rule:nonzero;stroke:none" /></g><g
           transform="translate(59.6174,482.4061)"
           id="g492"><path
             d="M 0,0 C 0.012,0.012 0.053,0.098 0.033,0.182 0.071,0.181 0.172,0.1 0.171,0.056 0.17,0.011 0,0 0,0"
             id="path494"
             style="fill:#ffffff;fill-opacity:1;fill-rule:nonzero;stroke:none" /></g><g
           transform="translate(59.0603,482.7694)"
           id="g496"><path
             d="m 0,0 0,-0.128 c -0.226,-0.017 -0.297,-0.255 -0.505,-0.267 -0.084,0 -0.129,0.088 -0.127,0.129 0.001,0.041 0.038,0.079 0.148,0.094 C -0.399,-0.162 -0.098,-0.089 0,0"
             id="path498"
             style="fill:#ffffff;fill-opacity:1;fill-rule:nonzero;stroke:none" /></g><g
           transform="translate(58.8271,482.7372)"
           id="g500"><path
             d="M 0,0 0,0.257 C 0.036,0.268 0.232,0.3 0.233,0.173 0.237,0.057 0,0 0,0"
             id="path502"
             style="fill:#ffffff;fill-opacity:1;fill-rule:nonzero;stroke:none" /></g><g
           transform="translate(58.5033,482.3564)"
           id="g504"><path
             d="M 0,0 C 0.015,0.032 0.069,0.104 0.128,0.131 0.059,0.121 -0.047,0.034 -0.032,0.018 L 0,0 z"
             id="path506"
             style="fill:#000000;fill-opacity:1;fill-rule:nonzero;stroke:none" /></g><g
           transform="translate(58.4413,482.4109)"
           id="g508"><path
             d="M 0,0 C 0.012,0.021 0.064,0.089 0.137,0.115 0.061,0.105 0.021,0.075 -0.021,0.04"
             id="path510"
             style="fill:#000000;fill-opacity:1;fill-rule:nonzero;stroke:none" /></g><g
           transform="translate(59.2176,482.064)"
           id="g512"><path
             d="M 0,0 C -0.077,-0.105 -0.046,-0.342 0.042,-0.365 -0.056,-0.227 0,0 0,0"
             id="path514"
             style="fill:#000000;fill-opacity:1;fill-rule:nonzero;stroke:none" /></g><g
           transform="translate(59.265,482.1426)"
           id="g516"><path
             d="M 0,0 C 0.053,0.075 0.099,0.07 0.172,0.072 0.128,0.087 0.038,0.105 0,0"
             id="path518"
             style="fill:#000000;fill-opacity:1;fill-rule:nonzero;stroke:none" /></g><g
           transform="translate(58.1865,480.3914)"
           id="g520"><path
             d="M 0,0 C 0,-0.053 0.079,-0.41 0.283,-0.585 0.145,-0.507 0.001,-0.231 -0.038,-0.041 -0.04,-0.033 0,0 0,0"
             id="path522"
             style="fill:#000000;fill-opacity:1;fill-rule:nonzero;stroke:none" /></g><g
           transform="translate(58.2004,480.403)"
           id="g524"><path
             d="m 0,0 c 0.02,-0.014 0.127,-0.114 0.15,-0.289 -0.009,0.122 -0.008,0.2 -0.123,0.306 L 0,0 z"
             id="path526"
             style="fill:#000000;fill-opacity:1;fill-rule:nonzero;stroke:none" /></g><g
           transform="translate(58.2492,480.458)"
           id="g528"><path
             d="M 0,0 C 0.018,-0.015 0.101,-0.09 0.12,-0.244 0.128,-0.161 0.091,-0.022 0.036,0.019 L 0,0 z"
             id="path530"
             style="fill:#000000;fill-opacity:1;fill-rule:nonzero;stroke:none" /></g><g
           transform="translate(58.4582,480.3898)"
           id="g532"><path
             d="M 0,0 C 0.026,-0.031 0.094,-0.168 0.144,-0.226 0.255,-0.353 0.477,-0.369 0.686,-0.491 0.77,-0.546 0.822,-0.611 0.824,-0.71 0.825,-0.809 0.831,-1.088 0.831,-1.088 0.88,-1.147 0.917,-1.253 0.899,-1.396 0.88,-1.56 0.775,-1.71 0.732,-1.779 0.668,-1.891 0.641,-2.163 0.634,-2.323 0.555,-2.395 0.298,-2.547 0.171,-2.792 0.164,-2.856 0.098,-3.078 -0.112,-3.073 c -0.21,0.004 -0.274,0.243 -0.282,0.315 -0.002,0.021 0.009,0.037 0.019,0.049 0.021,0.018 0.4,0.374 0.4,0.374 -0.007,0.081 -0.089,0.341 -0.145,0.448 0.056,0.038 0.436,0.154 0.618,0.434 -0.01,0.123 -0.036,0.278 -0.119,0.387 -0.082,0.109 -0.375,0.091 -0.527,0.303 -0.154,0.213 -0.093,0.416 -0.294,0.717 l 0.048,-0.014 0.104,0.025 -0.072,-0.025 c 0.179,-0.278 0.143,-0.517 0.275,-0.678 0.186,-0.227 0.614,-0.063 0.64,-0.641 l 0.213,0.305 c 0.005,0.089 -0.008,0.359 -0.008,0.359 -0.01,0.056 -0.035,0.133 -0.119,0.175 -0.122,0.07 -0.43,0.121 -0.553,0.289 -0.057,0.089 -0.218,0.325 -0.265,0.338 L 0,0 z"
             id="path534"
             style="fill:#000000;fill-opacity:1;fill-rule:nonzero;stroke:none" /></g><g
           transform="translate(58.4072,478.4771)"
           id="g536"><path
             d="m 0,0 c 0.025,-0.022 0.181,-0.409 0.198,-0.768 0.067,0.097 0.315,0.335 0.425,0.384 0.002,0.074 0.024,0.415 0.118,0.573 0.094,0.14 0.203,0.32 0.107,0.569 C 0.695,0.586 0.58,0.219 0,0"
             id="path538"
             style="fill:#ffffff;fill-opacity:1;fill-rule:nonzero;stroke:none" /></g><g
           transform="translate(58.4946,477.9678)"
           id="g540"><path
             d="m 0,0 c 0.009,-0.086 0.148,-0.392 -0.023,-0.544 -0.064,-0.061 -0.3,-0.087 -0.34,0.216 L 0,0 z"
             id="path542"
             style="fill:#ffffff;fill-opacity:1;fill-rule:nonzero;stroke:none" /></g><g
           transform="translate(58.4549,477.378)"
           id="g544"><path
             d="M 0,0 C -0.098,0.015 -0.216,0.149 -0.223,0.183 -0.19,0.131 -0.063,0.042 0.032,0.039 0.127,0.037 0,0 0,0"
             id="path546"
             style="fill:#000000;fill-opacity:1;fill-rule:nonzero;stroke:none" /></g><g
           transform="translate(58.5095,477.4473)"
           id="g548"><path
             d="M 0,0 C -0.097,0.015 -0.215,0.149 -0.222,0.183 -0.189,0.131 -0.063,0.042 0.032,0.04 0.128,0.037 0,0 0,0"
             id="path550"
             style="fill:#000000;fill-opacity:1;fill-rule:nonzero;stroke:none" /></g><g
           transform="translate(58.549,477.5149)"
           id="g552"><path
             d="M 0,0 C -0.098,0.015 -0.216,0.149 -0.223,0.183 -0.19,0.131 -0.063,0.042 0.032,0.04 0.127,0.037 0,0 0,0"
             id="path554"
             style="fill:#000000;fill-opacity:1;fill-rule:nonzero;stroke:none" /></g><g
           transform="translate(58.5909,477.682)"
           id="g556"><path
             d="M 0,0 C 0.018,0.033 0.063,0.215 0.039,0.376 0.078,0.288 0.076,0.089 0.072,0.049 0.067,0.01 0,0 0,0"
             id="path558"
             style="fill:#000000;fill-opacity:1;fill-rule:nonzero;stroke:none" /></g><g
           transform="translate(58.6651,477.7304)"
           id="g560"><path
             d="M 0,0 C 0.018,0.033 0.063,0.215 0.039,0.375 0.078,0.288 0.077,0.089 0.072,0.049 0.067,0.01 0,0 0,0"
             id="path562"
             style="fill:#000000;fill-opacity:1;fill-rule:nonzero;stroke:none" /></g><g
           transform="translate(58.7631,477.8138)"
           id="g564"><path
             d="M 0,0 C 0.021,0.011 0.041,0.028 0.06,0.047 0.062,0.118 0.056,0.267 0.024,0.339 0.043,0.211 0.019,0.069 0,0"
             id="path566"
             style="fill:#000000;fill-opacity:1;fill-rule:nonzero;stroke:none" /></g><g
           transform="translate(58.8526,477.8912)"
           id="g568"><path
             d="M 0,0 C 0.011,0.012 0.021,0.022 0.031,0.032 0.039,0.04 0.046,0.047 0.054,0.054 0.054,0.131 0.046,0.252 0.018,0.315 0.036,0.2 0.018,0.075 0,0"
             id="path570"
             style="fill:#000000;fill-opacity:1;fill-rule:nonzero;stroke:none" /></g><g
           transform="translate(58.9552,477.9754)"
           id="g572"><path
             d="M 0,0 C 0.013,0.009 0.027,0.017 0.041,0.025 0.035,0.101 0.02,0.205 -0.009,0.261 0.01,0.172 0.008,0.074 0,0"
             id="path574"
             style="fill:#000000;fill-opacity:1;fill-rule:nonzero;stroke:none" /></g><g
           transform="translate(59.0556,479.0658)"
           id="g576"><path
             d="M 0,0 C 0.011,0.012 0.021,0.023 0.03,0.033 0.038,0.041 0.045,0.048 0.053,0.055 0.05,0.133 0.039,0.253 0.01,0.316 0.03,0.201 0.016,0.075 0,0"
             id="path578"
             style="fill:#000000;fill-opacity:1;fill-rule:nonzero;stroke:none" /></g><g
           transform="translate(58.9711,479.0484)"
           id="g580"><path
             d="m 0,0 c 0.02,-0.152 0.051,-0.081 0.063,-0.069 0.009,0.009 -0.002,0.118 0,0.135 C 0.06,0.158 0.053,0.287 0.012,0.377 0.036,0.24 0.019,0.089 0,0"
             id="path582"
             style="fill:#000000;fill-opacity:1;fill-rule:nonzero;stroke:none" /></g><g
           transform="translate(59.1328,479.1109)"
           id="g584"><path
             d="M 0,0 C 0.013,0.009 0.027,0.016 0.041,0.024 0.037,0.1 0.024,0.205 -0.004,0.261 0.013,0.171 0.01,0.074 0,0"
             id="path586"
             style="fill:#000000;fill-opacity:1;fill-rule:nonzero;stroke:none" /></g><g
           transform="translate(58.1279,480.5459)"
           id="g588"><path
             d="M 0,0 C 0.006,0.098 -0.051,0.126 -0.026,0.151 -0.012,0.167 0.121,0.162 0.111,0.011 0.101,-0.14 -0.092,-0.214 -0.109,-0.168 -0.131,-0.107 -0.017,-0.099 0,0"
             id="path590"
             style="fill:#ffffff;fill-opacity:1;fill-rule:nonzero;stroke:none" /></g><g
           transform="translate(58.4769,481.7668)"
           id="g592"><path
             d="M 0,0 0.051,0.088 C 0.077,0.003 0.106,-0.096 0.14,-0.211 L 0.145,-0.23 c 0.084,-0.286 0.012,-0.575 -0.103,-0.678 -0.029,-0.028 -0.063,-0.045 -0.098,-0.055 0.008,0.008 0.014,0.017 0.018,0.027 0.009,0.025 0.001,0.053 -0.021,0.071 -0.018,0.015 -0.053,0.093 -0.069,0.163 0.07,0.011 0.177,0.036 0.215,0.077 l 0.007,0.054 c -0.004,0.008 -0.01,0.016 -0.042,0.055 -0.012,0.015 -0.033,0.041 -0.049,0.062 0.014,0.005 0.032,0.011 0.054,0.018 l 0.009,0.003 c 0.05,0.016 0.076,0.06 0.067,0.116 l 0,0.002 C 0.12,-0.255 0.085,-0.233 0.06,-0.217 0.049,-0.21 0.039,-0.204 0.032,-0.195 0.024,-0.185 0.01,-0.148 0,-0.003 L 0,0 z m -0.134,0.321 c 0.017,0.019 0.039,0.045 0.071,0.081 l 0.008,0.034 c 0.021,-0.064 0.048,-0.152 0.084,-0.273 -0.053,0.052 -0.124,0.12 -0.163,0.158 m 0.662,0.135 c -0.025,0 -0.062,0.009 -0.063,0.023 -0.003,0.053 0.088,0.065 0.187,0.07 0.005,0 0.011,0.001 0.015,0.001 C 0.631,0.491 0.583,0.456 0.536,0.456 l -0.004,0 -0.004,0 z"
             id="path594"
             style="fill:#ffffff;fill-opacity:1;fill-rule:nonzero;stroke:none" /></g></g></g></g></svg>