<?xml version="1.0" encoding="utf-8"?>
<!-- Generator: Adobe Illustrator 13.0.2, SVG Export Plug-In . SVG Version: 6.00 Build 14948)  -->
<!DOCTYPE svg PUBLIC "-//W3C//DTD SVG 1.0//EN" "http://www.w3.org/TR/2001/REC-SVG-20010904/DTD/svg10.dtd">
<svg version="1.0" id="Ebene_1" xmlns="http://www.w3.org/2000/svg" xmlns:xlink="http://www.w3.org/1999/xlink" x="0px" y="0px"
	 width="458.528px" height="512.455px" viewBox="0 0 458.528 512.455" enable-background="new 0 0 458.528 512.455"
	 xml:space="preserve">
<path fill-rule="evenodd" clip-rule="evenodd" fill="#FFFFFF" d="M1.228,1.226h456.073v294.239c0,0,0,181.45-228.038,215.78
	c0,0-228.035-40.74-228.035-215.78V1.226L1.228,1.226z"/>
<path d="M0,0h458.528v295.479c-0.009,0.524-0.006,182.49-229.083,216.976l-0.407-0.009C228.381,512.326,0,471.53,0,295.465V0L0,0z
	 M2.454,2.451v293.014c0,171.185,219.081,213.103,226.824,214.538c226.453-34.198,226.79-213.48,226.796-214.538v-0.015v0.015
	v-0.015v-293H2.454L2.454,2.451z"/>
<path fill-rule="evenodd" clip-rule="evenodd" fill="#FFFFFF" d="M14.908,173.275h214.601l-0.246,322.668
	c0,0-214.355-38.294-214.355-202.831V173.275L14.908,173.275z"/>
<path fill-rule="evenodd" clip-rule="evenodd" fill="#FDE158" d="M444.082,173.275H229.465l0.246,322.668
	c0,0,198.164-9.22,214.371-202.831V173.275L444.082,173.275z"/>
<polygon fill-rule="evenodd" clip-rule="evenodd" points="14.908,173.275 14.908,16.526 443.619,16.526 443.619,173.275 
	14.908,173.275 "/>
<path d="M8.369,179.814V9.987h441.79v169.827H8.369L8.369,179.814z M21.45,166.739h415.63V23.065H21.45V166.739L21.45,166.739z"/>
<polygon fill-rule="evenodd" clip-rule="evenodd" fill="#FDE158" points="14.999,286.072 54.762,265.225 67.485,284.895 
	17.314,322.509 14.999,286.072 "/>
<path d="M9.892,283.219l2.846-1.494l39.763-20.848l3.936-2.065l2.423,3.75l12.724,19.673l2.481,3.832l-3.65,2.736l-50.169,37.614
	l-7.26,5.443l-0.576-9.044l-2.317-36.437L9.892,283.219L9.892,283.219z M20.104,288.929l1.54,24.229l39.262-29.435l-7.818-12.085
	L20.104,288.929L20.104,288.929z"/>
<path fill-rule="evenodd" clip-rule="evenodd" fill="#FDE158" d="M74.379,302.004l7.355,5.722l-25.629,96.056
	c-14.433-16.77-26.251-36.36-33.472-59.186C41.276,328.992,74.379,302.004,74.379,302.004L74.379,302.004z"/>
<path d="M74.316,295.749l3.07,2.388l7.355,5.719l2.558,1.989l-0.833,3.126l-25.629,96.059l-2.394,8.968l-6.056-7.034
	c-7.443-8.651-14.191-17.988-19.976-28.052c-5.818-10.125-10.724-21.056-14.451-32.842l-0.987-3.12l2.52-2.109
	c18.262-15.287,51.706-42.551,51.801-42.627L74.316,295.749L74.316,295.749z M74.442,308.262
	c-8.063,6.586-30.549,24.973-46.116,37.957c3.352,9.867,7.608,19.122,12.59,27.788c3.914,6.812,8.254,13.225,12.93,19.269
	l22.323-83.669L74.442,308.262L74.442,308.262z"/>
<path fill-rule="evenodd" clip-rule="evenodd" fill="#FFFFFF" d="M383.391,302.004l-7.356,5.722l25.635,96.056
	c14.429-16.77,26.25-36.36,33.466-59.186C416.493,328.992,383.391,302.004,383.391,302.004L383.391,302.004z"/>
<path d="M383.326,308.262l-1.723,1.342l22.324,83.666c4.676-6.044,9.012-12.454,12.926-19.263
	c4.983-8.666,9.237-17.918,12.592-27.788C413.88,333.234,391.392,314.848,383.326,308.262L383.326,308.262z M380.385,298.137
	l3.07-2.388l3.023,2.464c0.094,0.076,33.536,27.34,51.8,42.627l2.517,2.109l-0.984,3.12c-3.729,11.786-8.631,22.72-14.452,32.842
	c-5.783,10.063-12.53,19.4-19.978,28.052l-6.056,7.04l-2.391-8.956l-25.629-96.056l-0.838-3.144l2.561-1.992L380.385,298.137
	L380.385,298.137z"/>
<polygon fill-rule="evenodd" clip-rule="evenodd" fill="#FFFFFF" points="442.77,286.072 403.008,265.225 390.284,284.895 
	440.452,322.509 442.77,286.072 "/>
<path d="M437.666,288.929l-32.982-17.291l-7.819,12.085l39.261,29.435L437.666,288.929L437.666,288.929z M445.031,281.725
	l2.845,1.494l-0.202,3.161l-2.317,36.437l-0.574,9.044l-7.26-5.443l-50.168-37.614l-3.65-2.736l2.481-3.832l12.724-19.673
	l2.423-3.75l3.938,2.065L445.031,281.725L445.031,281.725z"/>
<path fill-rule="evenodd" clip-rule="evenodd" fill="#FDE158" d="M96.854,313.857h15.939l0.243,137.077
	c-15.602-9.489-30.948-20.789-44.701-34.172L96.854,313.857L96.854,313.857z"/>
<path d="M93.139,308.95h24.549l0.007,4.907l0.245,137.077l0.016,8.716l-7.466-4.544c-8.26-5.019-16.45-10.544-24.375-16.6
	c-7.323-5.599-14.438-11.669-21.19-18.237l-2.073-2.021l0.772-2.789l28.518-102.908L93.139,308.95L93.139,308.95z M100.569,318.762
	l-26.741,96.492c5.827,5.511,11.937,10.667,18.226,15.475c5.254,4.014,10.63,7.784,16.062,11.326l-0.218-123.293H100.569
	L100.569,318.762z"/>
<polygon fill-rule="evenodd" clip-rule="evenodd" fill="#FDE158" points="14.908,266.042 14.908,235.395 36.167,235.393 
	47.41,250.562 14.908,266.042 "/>
<path d="M10.005,273.806V230.49h4.903l21.259-0.001h2.452l1.475,1.992l11.243,15.168l3.543,4.783l-5.364,2.555l-32.499,15.479
	L10.005,273.806L10.005,273.806z M19.813,258.276l20.125-9.585l-6.221-8.394L19.813,240.3V258.276L19.813,258.276z"/>
<path fill-rule="evenodd" clip-rule="evenodd" fill="#FFFFFF" d="M166.499,37.63c-12.649,1.337-19.077,2.102-19.077,24.48v100.6
	h-3.413L55.646,57.902h-0.401v74.59c0,19.696,4.217,23.906,18.876,24.48v3.633H26.93v-3.633c15.264-0.958,19.479-3.825,19.479-24.48
	V48.149C38.177,38.585,34.964,37.63,26.93,37.63v-3.634h34.34l76.913,91.992h0.401V62.111c0-21.995-5.624-23.525-19.279-24.48
	v-3.634h47.193V37.63L166.499,37.63z"/>
<path fill-rule="evenodd" clip-rule="evenodd" fill="#FFFFFF" d="M205.859,111.454l23.096-52.595l23.294,52.595H205.859
	L205.859,111.454z M304.26,156.973c-8.833-0.574-11.648-2.679-18.073-16.639L236.183,31.699h-4.017l-41.769,93.905
	c-3.817,8.417-10.043,22.38-14.662,27.161c-3.612,3.633-7.028,4.017-10.241,4.207v3.633h39.76v-3.633
	c-4.214,0-13.652,0-13.652-8.033c0-2.104,0.601-4.781,1.604-7.266l9.239-22.38h52.616l8.232,18.36
	c1.204,2.679,3.817,8.99,3.817,12.05c0,7.078-6.627,7.269-14.06,7.269v3.633h51.208V156.973L304.26,156.973z"/>
<path fill-rule="evenodd" clip-rule="evenodd" fill="#FFFFFF" d="M419.329,74.35c-5.019-20.083-19.479-35.382-44.18-35.382
	c-10.043,0-21.688,3.826-30.126,11.666c-7.831,7.269-16.664,19.51-16.664,47.051c0,40.544,23.897,57.186,49.198,57.186
	c24.703,0,39.158-13.581,45.387-19.317l3.612,3.439c-0.196,0.385-17.47,24.29-54.422,24.29c-32.329,0-67.072-18.36-67.072-65.982
	c0-42.841,33.741-65.985,68.279-65.985c17.871,0,30.929,6.315,35.344,6.315c1.005,0,7.635,0,9.237-6.315h4.219l1.805,43.034H419.329
	L419.329,74.35z"/>
<path fill-rule="evenodd" clip-rule="evenodd" fill="#FDE158" d="M61.302,203.517l-15.939,15.938c0,0,21.456,30.037,37.393,61.301
	c0,0,6.13,13.485,34.329,16.553h69.268v-25.137h-22.68v9.809h-25.748v-47.813h26.972v12.261h21.456v-26.36H78.466L61.302,203.517
	L61.302,203.517z"/>
<path d="M61.373,210.379l-9.645,9.645c6.06,8.769,22.515,33.243,35.396,58.507l0.057,0.114c0.016,0.032,4.947,10.931,30.083,13.755
	h64.184v-15.325h-12.872v9.809h-35.556v-57.621h36.782v12.259h11.646v-16.551H78.466l-3.391-1.377L61.373,210.379L61.373,210.379z
	 M57.835,200.051l3.396-3.396l3.461,3.34l15.732,15.17h110.833v36.168h-31.264V239.07h-17.162v38.005h15.936v-9.809h32.49v34.942
	h-74.172l-0.519-0.038c-30.962-3.366-38.213-19.266-38.235-19.31l0.057,0.117c-15.804-31-36.949-60.604-37.009-60.688l-2.407-3.376
	l2.922-2.927L57.835,200.051L57.835,200.051z"/>
<polygon points="103.534,231.718 87.8,238.462 85.884,233.96 101.618,227.215 103.534,231.718 "/>
<polygon points="94.091,244.389 90.649,236.35 97.402,233.476 100.844,241.516 94.091,244.389 "/>
<polygon points="137.925,254.395 193.112,254.395 201.889,245.616 208.824,252.551 198.606,262.767 195.139,264.205 
	137.925,264.205 137.925,254.395 "/>
<polygon fill-rule="evenodd" clip-rule="evenodd" fill="#FDE158" points="131.183,313.857 131.183,458.525 176.021,416.314 
	151.619,313.857 131.183,313.857 "/>
<path d="M136.088,318.762V447.19l34.51-32.49l-22.853-95.938H136.088L136.088,318.762z M126.278,308.95h29.212l0.896,3.776
	l24.406,102.457l0.653,2.742l-2.071,1.951l-44.839,42.211l-8.257,7.772V308.95L126.278,308.95z"/>
<polygon fill-rule="evenodd" clip-rule="evenodd" fill="#FDE158" points="168.779,313.857 191.958,400.374 220.563,371.771 
	190.849,313.857 168.779,313.857 "/>
<path d="M175.165,318.762l19.327,72.146l20.082-20.077l-26.716-52.069H175.165L175.165,318.762z M164.048,315.12l-1.652-6.17h31.447
	l1.374,2.684l29.716,57.917l1.625,3.164l-2.527,2.525l-28.605,28.603l-6,6l-2.199-8.203L164.048,315.12L164.048,315.12z"/>
<path fill-rule="evenodd" clip-rule="evenodd" fill="#FFFFFF" d="M362.136,313.857h-15.938l-0.243,141.404
	c15.604-9.489,30.949-25.116,44.701-38.499L362.136,313.857L362.136,313.857z"/>
<path d="M358.421,318.762h-7.327l-0.22,127.307c11.115-8.121,22.119-18.876,32.329-28.866c0.659-0.645,1.313-1.286,1.966-1.922
	L358.421,318.762L358.421,318.762z M365.848,308.95l0.999,3.601l28.521,102.908l0.773,2.789l-2.074,2.021
	c-1.333,1.295-2.681,2.616-4.043,3.946c-12.873,12.592-26.962,26.37-41.522,35.221l-7.468,4.541l0.018-8.716l0.24-141.404
	l0.009-4.907H365.848L365.848,308.95z"/>
<polygon fill-rule="evenodd" clip-rule="evenodd" fill="#FFFFFF" points="444.082,266.042 444.082,235.395 422.821,235.393 
	411.58,250.562 444.082,266.042 "/>
<path d="M439.178,258.276V240.3l-13.904-0.003l-6.223,8.394L439.178,258.276L439.178,258.276z M448.986,273.806l-7.011-3.34
	l-32.502-15.479l-5.364-2.555l3.545-4.783l11.241-15.168l1.477-1.992h2.449l21.261,0.001h4.904V273.806L448.986,273.806z"/>
<path fill-rule="evenodd" clip-rule="evenodd" fill="#FFFFFF" d="M397.69,203.517l15.938,15.938c0,0-21.457,30.037-37.395,61.301
	c0,0-6.129,13.485-34.327,16.553h-69.272v-25.137h22.685v9.809h25.746v-47.813h-26.974v12.261h-21.457v-26.36h107.892
	L397.69,203.517L397.69,203.517z"/>
<path d="M397.758,196.655l3.398,3.396l15.938,15.936l2.924,2.927l-2.408,3.376c-0.062,0.085-21.205,29.688-37.008,60.688
	l0.056-0.117c-0.021,0.044-7.271,15.943-38.232,19.31l-0.519,0.038h-74.174v-34.942h32.49v9.809h15.938V239.07h-17.165v12.264
	h-31.263v-36.168h110.833l15.732-15.17L397.758,196.655L397.758,196.655z M397.617,210.379l-13.699,13.214l-3.393,1.377H277.541
	v16.551h11.646v-12.259h36.782v57.621h-35.555v-9.809h-12.873V292.4h64.184c25.137-2.824,30.067-13.723,30.082-13.755l0.059-0.114
	c12.882-25.264,29.335-49.739,35.396-58.507L397.617,210.379L397.617,210.379z"/>
<polygon points="357.372,227.215 373.107,233.96 371.191,238.462 355.453,231.718 357.372,227.215 "/>
<polygon points="358.146,241.516 361.594,233.476 368.347,236.35 364.896,244.389 358.146,241.516 "/>
<polygon points="321.064,264.205 263.851,264.205 260.382,262.767 250.166,252.551 257.101,245.616 265.878,254.395 
	321.064,254.395 321.064,264.205 "/>
<polygon fill-rule="evenodd" clip-rule="evenodd" fill="#FFFFFF" points="327.806,313.857 327.806,461.153 282.97,416.314 
	307.374,313.857 327.806,313.857 "/>
<path d="M332.71,308.95v152.203l-8.37,3.466l-44.836-44.839l-1.937-1.937l0.633-2.66l24.404-102.457l0.896-3.776H332.71
	L332.71,308.95z M322.901,318.762h-11.657l-22.869,96.021l34.526,34.529V318.762L322.901,318.762z"/>
<polygon fill-rule="evenodd" clip-rule="evenodd" fill="#FFFFFF" points="290.209,313.857 267.038,400.374 238.427,371.771 
	268.14,313.857 290.209,313.857 "/>
<path d="M296.593,308.95l-1.652,6.17l-23.174,86.52l-2.194,8.186l-5.982-5.982l-28.611-28.603l-2.538-2.537l1.617-3.152
	l29.714-57.917l1.377-2.684H296.593L296.593,308.95z M283.825,318.762h-12.691l-26.725,52.078l20.089,20.083L283.825,318.762
	L283.825,318.762z"/>
<polygon fill="#E76336" points="216.989,466.6 229.14,454.447 230.877,456.19 241.286,466.608 237.817,470.057 229.147,461.376 
	220.456,470.068 216.989,466.6 "/>
<polygon fill="#E76336" points="191.243,440.854 199.931,432.164 191.243,423.478 194.711,420.012 205.132,430.433 206.867,432.164 
	205.132,433.898 194.711,444.319 191.243,440.854 "/>
<polygon fill="#E76336" points="201.032,413.678 209.728,422.37 218.421,413.678 221.889,417.144 211.469,427.564 209.739,429.293 
	208.011,427.564 197.585,417.144 201.032,413.678 "/>
<path fill="#E76336" d="M229.14,446.051l-1.73-1.731l-10.421-10.421l-1.733-1.734l13.884-13.884l1.737,1.74l10.409,10.424l1.72,1.72
	l-1.72,1.726l-10.409,10.421L229.14,446.051L229.14,446.051z M229.147,439.122l6.948-6.958l-6.948-6.955l-6.955,6.955
	L229.147,439.122L229.147,439.122z"/>
<polygon fill="#E76336" points="245.479,462.404 233.323,450.249 235.058,448.515 245.479,438.094 247.213,436.362 259.368,448.515 
	255.899,451.98 247.213,443.297 240.258,450.249 248.947,458.938 245.479,462.404 "/>
<polygon fill="#E76336" points="209.328,458.938 218.014,450.249 211.061,443.297 202.374,451.98 198.905,448.515 209.328,438.094 
	211.061,436.362 212.795,438.094 223.216,448.515 224.95,450.249 212.795,462.404 209.328,458.938 "/>
<polygon fill="#E76336" points="238.321,412.553 247.008,421.239 255.697,412.553 259.163,416.021 247.008,428.177 234.853,416.021 
	238.321,412.553 "/>
<polygon fill="#E76336" points="266.827,423.683 258.141,432.372 266.827,441.059 263.358,444.524 251.203,432.372 263.358,420.214 
	266.827,423.683 "/>
<polygon fill-rule="evenodd" clip-rule="evenodd" fill="#FFFFFF" points="130.91,470.376 123.557,470.376 123.557,463.022 
	130.91,463.022 130.91,470.376 "/>
<polygon fill-rule="evenodd" clip-rule="evenodd" fill="#FFFFFF" points="335.654,474.053 328.298,474.053 328.298,466.699 
	335.654,466.699 335.654,474.053 "/>
<polygon points="14.908,166.739 450.158,166.739 450.158,293.112 437.08,293.112 437.08,179.814 14.908,179.814 14.908,166.739 "/>
<path d="M450.158,293.191c-0.006,0.501-0.015,175.86-219.924,209.215l-2.145-0.053c-0.631-0.117-219.721-39.24-219.721-209.241
	H21.45c0,152.514,191.54,193.025,207.854,196.204c207.776-32.054,207.771-195.809,207.776-196.28L450.158,293.191L450.158,293.191z"
	/>
<polygon points="8.369,293.112 8.369,173.275 21.45,173.275 21.45,293.112 8.369,293.112 "/>
</svg>
