<?xml version="1.0" encoding="UTF-8" standalone="no"?>
<!-- Generator: Adobe Illustrator 15.0.2, SVG Export Plug-In . SVG Version: 6.00 Build 0)  -->

<svg
   xmlns:dc="http://purl.org/dc/elements/1.1/"
   xmlns:cc="http://creativecommons.org/ns#"
   xmlns:rdf="http://www.w3.org/1999/02/22-rdf-syntax-ns#"
   xmlns:svg="http://www.w3.org/2000/svg"
   xmlns="http://www.w3.org/2000/svg"
   xmlns:sodipodi="http://sodipodi.sourceforge.net/DTD/sodipodi-0.dtd"
   xmlns:inkscape="http://www.inkscape.org/namespaces/inkscape"
   version="1.1"
   id="Capa_1"
   x="0px"
   y="0px"
   width="175.60001"
   height="252"
   viewBox="0 0 175.6 571.4634"
   xml:space="preserve"
   inkscape:version="0.48.4 r9939"
   sodipodi:docname="rc_recreativo_huelva.svg"><metadata
   id="metadata59"><rdf:RDF><cc:Work
       rdf:about=""><dc:format>image/svg+xml</dc:format><dc:type
         rdf:resource="http://purl.org/dc/dcmitype/StillImage" /></cc:Work></rdf:RDF></metadata><defs
   id="defs57" /><sodipodi:namedview
   pagecolor="#ffffff"
   bordercolor="#666666"
   borderopacity="1"
   objecttolerance="10"
   gridtolerance="10"
   guidetolerance="10"
   inkscape:pageopacity="0"
   inkscape:pageshadow="2"
   inkscape:window-width="1920"
   inkscape:window-height="1018"
   id="namedview55"
   showgrid="false"
   fit-margin-top="0"
   fit-margin-left="0"
   fit-margin-right="0"
   fit-margin-bottom="0"
   inkscape:zoom="3.1785714"
   inkscape:cx="87.800003"
   inkscape:cy="126"
   inkscape:window-x="-8"
   inkscape:window-y="-8"
   inkscape:window-maximized="1"
   inkscape:current-layer="Capa_1" />
<path
   d="m 87.630607,569.90614 -190.799997,-125.064 c 6.335994,-13.536 12.311994,-27.072 16.775994,-41.256 8.136,-25.416 10.8,-50.328 1.656,-75.96 -5.76,-16.056 -14.975996,-29.52 -25.343994,-42.768 l 83.015994,-97.2 c 18.935998,7.992 37.944,14.472 58.032,18.864 39.528003,8.64 73.800006,8.64 113.328006,0 20.088,-4.392 39.096,-10.872 58.032,-18.864 l 83.016,97.2 c -10.368,13.248 -19.584,26.712 -25.344,42.768 -9.144,25.632 -6.48,50.544 1.656,75.96 4.464,14.184 10.44,27.72 16.776,41.256 l -190.800003,125.064 0,0 z"
   id="path3"
   inkscape:connector-curvature="0"
   style="fill:#16468C" />
<path
   d="m 87.630607,545.78614 171.648003,-106.704 c -4.392,-9.792 -8.568,-20.304 -11.952,-31.032 -9.144,-28.584 -11.736,-56.52 -1.44,-85.392 4.536,-12.744 11.376,-25.128 20.232,-37.296 l -68.112,-79.704 c -16.056,6.408 -32.904,11.664 -50.544,15.552 -43.704,9.576 -75.960003,9.576 -119.664006,0 -17.640002,-3.888 -34.488002,-9.144 -50.544,-15.552 l -68.112,79.704 c 8.856,12.168 15.696,24.552 20.232,37.296 10.296,28.872 7.704,56.808 -1.44,85.392 -3.384,10.728 -7.56,21.24 -11.952,31.032 l 171.648003,106.704 z"
   id="path5"
   inkscape:connector-curvature="0"
   style="fill:#ffffff" />
<path
   d="m 87.630607,501.79414 c 77.760003,0 141.192003,-58.536 141.192003,-130.392 0,-71.784 -63.432,-130.248 -141.192003,-130.248 -77.760005,0 -141.192003,58.464 -141.192003,130.248 0,71.856 63.431998,130.392 141.192003,130.392 z"
   id="path7"
   inkscape:connector-curvature="0"
   style="fill:#fcbc0f" />
<path
   d="m 87.630607,483.65014 c 67.752003,0 122.976003,-50.4 122.976003,-112.248 0,-61.776 -55.224,-112.104 -122.976003,-112.104 -67.752003,0 -122.976003,50.328 -122.976003,112.104 0,61.848 55.224,112.248 122.976003,112.248 z"
   id="path9"
   inkscape:connector-curvature="0"
   style="fill:#ffffff" />
<path
   d="m 100.51861,430.87414 c 24.264,-1.224 46.08,-8.136 62.208,-18.72 4.968,-3.24 9.36,-6.912 13.104,-10.728 l 9.144,16.2 c -3.744,3.456 -7.848,6.624 -12.312,9.576 -18.864,12.384 -44.208,20.448 -72.144,21.672 v -18 z"
   id="path11"
   inkscape:connector-curvature="0"
   style="fill:#16468C" />
<path
   d="m 13.038604,337.27414 c -10.368002,9.648 -16.488002,21.168 -16.488002,33.336 0,15.912 10.368,30.6 26.928002,41.544 13.608,8.928 31.320003,15.264 51.048003,17.712 v 18.144 c -23.472,-2.592 -44.640003,-10.08 -60.912003,-20.808 -21.672002,-14.184 -35.064,-34.2 -35.064,-56.592 0,-22.104 13.175998,-41.976 34.488,-56.16 v 22.824 z"
   id="path13"
   inkscape:connector-curvature="0"
   style="fill:#16468C" />
<path
   d="m 165.53461,309.77014 c 2.448,1.368 4.824,2.808 7.128,4.32 6.048,3.96 11.448,8.352 16.056,13.176 l -8.712,17.424 c -3.888,-4.968 -8.856,-9.576 -14.616,-13.752 1.44,-6.912 1.584,-14.184 0.144,-21.168 z"
   id="path15"
   inkscape:connector-curvature="0"
   style="fill:#16468C" />
<path
   d="m 35.070604,442.61014 v 12.024 h -18 v -20.592 c 5.544,3.24 11.592,6.12 18,8.568 z"
   id="path17"
   inkscape:connector-curvature="0"
   style="fill:#16468C" />
<path
   d="m 159.55861,439.01014 v 15.624 h -18 v -8.712 c 6.336,-1.944 12.312,-4.248 18,-6.912 z"
   id="path19"
   inkscape:connector-curvature="0"
   style="fill:#16468C" />
<path
   d="m 35.070604,282.48214 v 73.944 h 43.488003 v -45.504 c -14.472,1.44 -27.864,4.896 -39.528003,9.864 v -19.368 c 12.096003,-4.392 25.416003,-7.344 39.528003,-8.568 v -18 c 16.56,-0.432 34.344003,-2.16 50.328003,2.808 13.896,4.32 24.984,12.96 30.168,24.912 9.432,21.672 -1.584,48.672 -18.504,61.2 12.672,6.984 19.008,24.624 19.008,41.472 v 4.176 c -5.4,3.456 -11.448,6.48 -18,9 v -13.176 c 0,-16.848 -8.28,-30.744 -26.352,-30.744 H 96.486607 v 80.136 h -17.928 v -80.136 H 35.070604 v 39.672 c -3.312,-1.656 -6.408,-3.456 -9.36,-5.4 -3.168,-2.016 -6.048,-4.248 -8.64,-6.552 v -119.736 h 18 l 0,0 z m 63.504003,9.864 c 16.992003,0.504 41.040003,3.24 41.832003,25.848 -13.104,-4.752 -28.008,-7.56 -43.920003,-7.92 v 46.152 h 17.928003 c 18.936,0.864 37.296,-31.536 27.144,-49.248 -8.064,-13.968 -28.872,-15.048 -42.984003,-14.832 z"
   id="path21"
   inkscape:connector-curvature="0"
   style="fill:#16468C" />
<path
   d="m 8.790602,194.85814 c 52.128005,-19.584 105.552008,-19.584 157.680008,0 l 10.44,-32.04 c -52.344,-26.496 -126.288003,-26.496 -178.560008,0 l 10.44,32.04 z"
   id="path23"
   inkscape:connector-curvature="0"
   style="fill:#fcbc0f" />
<path
   d="m 87.630607,31.490142 c 7.776,0 14.184003,-6.408 14.184003,-14.256 0,-7.8479997 -6.408003,-14.2559995 -14.184003,-14.2559995 -7.776,0 -14.184,6.4079998 -14.184,14.2559995 0,7.848 6.408,14.256 14.184,14.256 z"
   id="path25"
   inkscape:connector-curvature="0"
   style="fill:#fcbc0f" />
<path
   d="m -14.897396,161.59414 c 7.847998,0 14.25599802,-6.408 14.25599802,-14.256 0,-7.848 -6.40800002,-14.184 -14.25599802,-14.184 -7.848,0 -14.256,6.336 -14.256,14.184 0,7.848 6.408,14.256 14.256,14.256 z"
   id="path27"
   inkscape:connector-curvature="0"
   style="fill:#fcbc0f" />
<path
   d="m 14.550604,133.58614 c 4.968,0 9,-4.104 9,-9.072 0,-4.968 -4.032,-9 -9,-9 -4.968002,0 -9.072002,4.032 -9.072002,9 0,4.968 4.104,9.072 9.072002,9.072 z"
   id="path29"
   inkscape:connector-curvature="0"
   style="fill:#fcbc0f" />
<path
   d="m 10.446604,154.46614 c 4.968,0 9,-4.032 9,-9 0,-4.968 -4.032,-9.072 -9,-9.072 -5.040002,0 -9.0720021,4.104 -9.0720021,9.072 0,4.968 4.0320001,9 9.0720021,9 z"
   id="path31"
   inkscape:connector-curvature="0"
   style="fill:#fcbc0f" />
<path
   d="m 31.542604,147.84214 c 4.968,0 9,-4.032 9,-9 0,-4.968 -4.032,-9.072 -9,-9.072 -4.968,0 -9.072,4.104 -9.072,9.072 0,4.968 4.104,9 9.072,9 z"
   id="path33"
   inkscape:connector-curvature="0"
   style="fill:#fcbc0f" />
<path
   d="m 55.662607,141.57814 c 3.312,0 5.976,-2.736 5.976,-5.976 0,-3.312 -2.664,-5.976 -5.976,-5.976 -3.312,0 -5.976,2.664 -5.976,5.976 0,3.24 2.664,5.976 5.976,5.976 z"
   id="path35"
   inkscape:connector-curvature="0"
   style="fill:#fcbc0f" />
<path
   d="m 87.630607,120.77014 c 4.968,0 9,-4.032 9,-9 0,-4.968 -4.032,-9.072 -9,-9.072 -4.968,0 -9,4.104 -9,9.072 0,4.968 4.032,9 9,9 z"
   id="path37"
   inkscape:connector-curvature="0"
   style="fill:#fcbc0f" />
<path
   d="m 77.262607,138.98614 c 4.968,0 9.072,-4.032 9.072,-9 0,-4.968 -4.104,-9.072 -9.072,-9.072 -4.968,0 -9.072,4.104 -9.072,9.072 0,4.968 4.104,9 9.072,9 z"
   id="path39"
   inkscape:connector-curvature="0"
   style="fill:#fcbc0f" />
<path
   d="m 190.15861,161.59414 c 7.848,0 14.256,-6.408 14.256,-14.256 0,-7.848 -6.408,-14.184 -14.256,-14.184 -7.848,0 -14.256,6.336 -14.256,14.184 0,7.848 6.408,14.256 14.256,14.256 z"
   id="path41"
   inkscape:connector-curvature="0"
   style="fill:#fcbc0f" />
<path
   d="m 160.71061,133.58614 c 4.968,0 9.072,-4.104 9.072,-9.072 0,-4.968 -4.104,-9 -9.072,-9 -4.968,0 -9,4.032 -9,9 0,4.968 4.032,9.072 9,9.072 z"
   id="path43"
   inkscape:connector-curvature="0"
   style="fill:#fcbc0f" />
<path
   d="m 164.81461,154.46614 c 5.04,0 9.072,-4.032 9.072,-9 0,-4.968 -4.032,-9.072 -9.072,-9.072 -4.968,0 -9,4.104 -9,9.072 0,4.968 4.032,9 9,9 z"
   id="path45"
   inkscape:connector-curvature="0"
   style="fill:#fcbc0f" />
<path
   d="m 143.71861,147.84214 c 4.968,0 9.072,-4.032 9.072,-9 0,-4.968 -4.104,-9.072 -9.072,-9.072 -4.968,0 -9,4.104 -9,9.072 0,4.968 4.032,9 9,9 z"
   id="path47"
   inkscape:connector-curvature="0"
   style="fill:#fcbc0f" />
<path
   d="m 119.59861,141.57814 c 3.312,0 5.976,-2.736 5.976,-5.976 0,-3.312 -2.664,-5.976 -5.976,-5.976 -3.312,0 -5.976,2.664 -5.976,5.976 0,3.24 2.664,5.976 5.976,5.976 z"
   id="path49"
   inkscape:connector-curvature="0"
   style="fill:#fcbc0f" />
<path
   d="m 97.998607,138.98614 c 4.968003,0 9.072003,-4.032 9.072003,-9 0,-4.968 -4.104,-9.072 -9.072003,-9.072 -4.968,0 -9.072,4.104 -9.072,9.072 0,4.968 4.104,9 9.072,9 z"
   id="path51"
   inkscape:connector-curvature="0"
   style="fill:#fcbc0f" />
<path
   d="M -0.56939798,120.77014 C -9.137398,109.17814 -12.449396,95.210142 -6.473398,81.602142 c 0.72,-1.656 1.584,-3.24 2.52,-4.824 -25.199998,8.712 -26.999998,28.799998 -15.623998,48.743998 -6.984,1.512 -12.816,6.336 -15.696,12.744 -28.872,-45.935998 0.72,-84.239998 55.656,-85.463998 8.496,-5.688 17.64,-10.224 25.488003,-13.32 6.84,-2.736 14.112,-4.824 21.528,-6.192 12.744,-2.232 27.792,-2.232 40.464003,0 7.416,1.368 14.688,3.456 21.528,6.192 7.848,3.096 16.992,7.632 25.488,13.32 54.936,1.224 84.528,39.528 55.656,85.463998 -2.88,-6.408 -8.712,-11.232 -15.696,-12.744 11.376,-19.944 9.576,-40.031998 -15.624,-48.743998 0.936,1.584 1.8,3.168 2.52,4.824 5.976,13.608 2.664,27.575998 -5.904,39.167998 -1.656,-6.768 -7.848,-11.808 -15.12,-11.808 -0.288,0 -0.648,0 -1.008,0 10.8,-14.543998 2.016,-25.847998 -10.08,-35.351998 -8.64,-6.768 -19.008,-12.096 -27.576,-15.48 -5.904,-2.376 -11.88,-4.104 -17.712,-5.184 -1.584,-0.288 -3.24,-0.504 -4.896003,-0.72 v 49.463998 c -2.88,-3.383999 -7.128,-5.543998 -11.808,-5.543998 -4.68,0 -8.928,2.159999 -11.808,5.543998 V 52.226142 c -1.656,0.216 -3.312,0.432 -4.896,0.72 -5.832,1.08 -11.808,2.808 -17.712,5.184 -8.568,3.384 -18.936003,8.712 -27.576003,15.48 -12.096,9.504 -20.880002,20.808 -10.08,35.351998 -0.36,0 -0.72,0 -1.008,0 -7.272002,0 -13.4640021,5.04 -15.12000198,11.808 z"
   id="path53"
   inkscape:connector-curvature="0"
   style="fill:#fcbc0f" />
</svg>